<svg id="coa26024637" width="500" height="500" viewBox="0 0 200 200" xmlns="http://www.w3.org/2000/svg" xmlns:x="http://www.w3.org/1999/xlink"><defs><clipPath id="pavise_coa26024637"><path d="M95 7L39.9 37.3a10 10 0 00-5.1 9.5L46 180c.4 5.2 3.7 10 9 10h90c5.3 0 9.6-4.8 10-10l10.6-133.2a10 10 0 00-5-9.5L105 7c-4.2-2.3-6.2-2.3-10 0z"/></clipPath><clipPath id="divisionClip_coa26024637"><path d="m 200,115 v -15 c -8.9,3.5 -16,3.1 -25,0 -8.9,-3.5 -16,-3.1 -25,0 -8.9,3.5 -16,3.2 -25,0 -8.9,-3.5 -16,-3.2 -25,0 -8.9,3.5 -16,3.1 -25,0 -8.9,-3.5 -16,-3.1 -25,0 -8.9,3.5 -16,3.2 -25,0 -8.9,-3.5 -16,-3.2 -25,0 v 15 z" transform="translate(-10 -10) rotate(45 110 110) scale(1.1)"/><rect x="0" y="115" width="200" height="85" transform="translate(-10 -10) rotate(45 110 110) scale(1.1)" shape-rendering="crispedges"/></clipPath><g id="rustre_coa26024637"><path d="M100 55l30 45-30 45-30-45zm-12 45a12 12 0 1024 0 12 12 0 10-24 0"/></g><radialGradient id="backlight" cx="100%" cy="100%" r="150%"><stop stop-color="#fff" stop-opacity=".3" offset="0"/><stop stop-color="#fff" stop-opacity=".15" offset=".25"/><stop stop-color="#000" stop-opacity="0" offset="1"/></radialGradient></defs><g clip-path="url(#pavise_coa26024637)"><rect x="0" y="0" width="200" height="200" fill="#fafafa"/><g fill="#522d5b" stroke="#000"><use x:href="#rustre_coa26024637" transform="translate(-35 -35) scale(1.35)"/></g><g clip-path="url(#divisionClip_coa26024637)"><rect x="0" y="0" width="200" height="200" fill="#522d5b"/><g fill="#fafafa" stroke="#000"><use x:href="#rustre_coa26024637" transform="translate(-35 -35) scale(1.35)"/></g></g></g><path d="M95 7L39.9 37.3a10 10 0 00-5.1 9.5L46 180c.4 5.2 3.7 10 9 10h90c5.3 0 9.6-4.8 10-10l10.6-133.2a10 10 0 00-5-9.5L105 7c-4.2-2.3-6.2-2.3-10 0z" fill="url(#backlight)" stroke="#333"/></svg>