<svg id="coa781052676" width="500" height="500" viewBox="0 0 200 200" xmlns="http://www.w3.org/2000/svg" xmlns:x="http://www.w3.org/1999/xlink"><defs><clipPath id="pavise_coa781052676"><path d="M95 7L39.9 37.3a10 10 0 00-5.1 9.5L46 180c.4 5.2 3.7 10 9 10h90c5.3 0 9.6-4.8 10-10l10.6-133.2a10 10 0 00-5-9.5L105 7c-4.2-2.3-6.2-2.3-10 0z"/></clipPath><clipPath id="divisionClip_coa781052676"><rect x="100" y="0" width="100" height="100"/><rect x="0" y="100" width="100" height="100"/></clipPath><g id="crescent_coa781052676" stroke-width=".5"><path d="M84 65c-32 15-24 68 16 68s48-53 16-68c18 20 2 41-16 41S67 85 84 65z"/><path fill="none" d="M84 65c-26 15-14 56 16 56s42-41 16-56"/></g><pattern id="bendy-argent-gules" width="0.5" height="0.5" viewBox="0 0 100 100"><rect width="100" height="100" fill="#fafafa"/><polygon points="0,25 75,100 25,100 0,75" fill="#d7374a"/><polygon points="25,0 75,0 100,25 100,75" fill="#d7374a"/></pattern><radialGradient id="backlight" cx="100%" cy="100%" r="150%"><stop stop-color="#fff" stop-opacity=".3" offset="0"/><stop stop-color="#fff" stop-opacity=".15" offset=".25"/><stop stop-color="#000" stop-opacity="0" offset="1"/></radialGradient></defs><g clip-path="url(#pavise_coa781052676)"><rect x="0" y="0" width="200" height="200" fill="url(#bendy-argent-gules)"/><g clip-path="url(#divisionClip_coa781052676)"><rect x="0" y="0" width="200" height="200" fill="#522d5b"/></g><g fill="#377cd7" stroke="#000"><use x:href="#crescent_coa781052676" transform="translate(16 11) scale(0.54)"/><use x:href="#crescent_coa781052676" transform="translate(76 11) scale(0.54)"/><use x:href="#crescent_coa781052676" transform="translate(16 81) scale(0.54)"/><use x:href="#crescent_coa781052676" transform="translate(76 81) scale(0.54)"/></g></g><path d="M95 7L39.9 37.3a10 10 0 00-5.1 9.5L46 180c.4 5.2 3.7 10 9 10h90c5.3 0 9.6-4.8 10-10l10.6-133.2a10 10 0 00-5-9.5L105 7c-4.2-2.3-6.2-2.3-10 0z" fill="url(#backlight)" stroke="#333"/></svg>