<svg id="coa230782123" width="500" height="500" viewBox="0 0 200 200" xmlns="http://www.w3.org/2000/svg" xmlns:x="http://www.w3.org/1999/xlink"><defs><clipPath id="polish_coa230782123"><path d="m 90.3,6.3 c -12.7,0 -20.7,10.9 -40.5,14 0,11.8 -4.9,23.5 -11.4,31.1 0,0 12.7,6 12.7,19.3 C 51.1,90.8 30,90.8 30,90.8 c 0,0 -3.6,7.4 -3.6,22.4 0,34.3 23.1,60.2 40.7,68.2 17.6,8 27.7,11.4 32.9,18.6 5.2,-7.3 15.3,-10.7 32.8,-18.6 17.6,-8 40.7,-33.9 40.7,-68.2 0,-15 -3.6,-22.4 -3.6,-22.4 0,0 -21.1,0 -21.1,-20.1 0,-13.3 12.7,-19.3 12.7,-19.3 C 155.1,43.7 150.2,32.1 150.2,20.3 130.4,17.2 122.5,6.3 109.7,6.3 102.5,6.3 100,10 100,10 c 0,0 -2.5,-3.7 -9.7,-3.7 z"/></clipPath><clipPath id="divisionClip_coa230782123"><rect x="100" y="0" width="100" height="200"/></clipPath><g id="cavalier_coa230782123"><path stroke="none" d="M398.59 285.51c-21.36 15.56-35.26-15.27-65.77-24.87-30.63-9.63-44.9-6.27-44.9-6.27l1.25-13.15s6.7 3.66 10.1 4.06c58.6-39.86 40.63-93.75 34.04-141.92-14.79 2.35-36.5 4.83-36.5 4.83l7.23-41.17-9.44-20.27s-23.12 1.05-30.62 6.8c-7.5 5.74-11.45 19.42-11.45 19.42l2.42 3.48-5.9 11.07 1.7 2.55.24 14.56-13.08 3.76-31.1-16.7-.12-4.89 10.76-37.17 9.45-8.92 3.97 19.06 6.51.32.53-18.06 156.66-4.3 15.26-5.69-14.05-6.6-158.14-4.77-.2-18.5-5.3.4s-3.55 16.46-4.92 21.61c-2.4-16.48-9.27-6.98-9.27-6.98l-5.67-1.04-15.92 9.74-8.62 2.55s-16.54-18.35-22.2 3.6c7.34 20.32 18.36 4.4 18.36 4.4l11.73-.9 2.07 8.57-14.48 23.59-7.54 31.87-15.85-6.3.44-13.13-7.76 7.13-.8-6.95-10.24 8.57-19.66 5.48-2.12 9.4s-33.22 33.33-46.25 69.9c.96 5.6 11.11 13.76 11.11 13.76l13.9-16.72 3.87 3.8-8.35 11s6.27 4.37 14.9.86c2.7-1.1 1.76-7.77 1.76-7.77l6.5-4.98.7 18.32s-12.43 19.1-15.62 33.3c-12.78 11-15.75 25.12-17.88 30.18-32.74-4.8-33.3-22.46-51.52-1.78-9.44 29.28-15.31 40.04-26.71 52.08 2.48 19.97-14.77 39.15 9.36 58.05 8.67-6.26 10-9.85 10.1-10.71-.03-.24.02-.27 0 0 .4 3.17 5.49 28.73 29.14 27.83.98-1.3 10-33.72-11.7-39.98 6.92-12.77-10.69-11.01 25.82-40.73 27.16 25.13 40.67 26.2 53.05 31.78 13.4 6.33 18.58 10.19 21.6-1.32 4.56-.32 9.68 4.4 9.68 4.4l-3.78 7.26s-6.27-.2-8.47 3.02c-2.35 3.45-.9 8.17-.9 8.17s-10.87-.38-19.21 5.44c-8.9 6.2-13.01 16.49-13.01 16.49l17.95-1.92 21.3 6.39 2.64-3.26 18.96 4.03.02-16.98 6.18-1.3S187 469.76 245.71 477.35c-22.4-47.76-31-79.85-31-79.85h5.44s13.68 77.1 60.95 83.78c-10.76-24.01-31.82-85.24-31.82-85.24l5.35.1s21.71 64.78 32.66 77.13c23-30.76-8.8-98.94-8.8-98.94l8.64-1.43s.5 14.36 28.02 40.26c29 22.6 44.77 26.63.58 72.51-24 4.7-29.2 11.28-32.48 26.15 2.62 6.93 22.86 7.04 22.86 7.04s-3.55 4.17 2.4 5.86c12.32 3.5 39.13 5.27 38.5-18.07 2.61-.77 3.9-3.22 3.9-3.22s6.8 3.9 17.56 3.45c10.4-72.13 34.92-70.16 31.34-85.52-.52-2.2-35.35-27.4-35.35-27.4s10.35-16.12 13.33-15.82c9.53 46.19 44.1 11.2 44.1 11.2s-20.5 6.06-16.63-8.32c3.17-11.8 63.67-16.34 69.42-72.9 5.92-58.29-54-38.72-76.1-22.62zm-366.4 21.8c-.67-14.08 15.9-34.06 15.9-34.06l7.28 2.15s-17.24 29.75-23.18 31.92zm92.08-122.04l-.25-15.75 6.45-3.6 13.09-.86zm101.25-3.03l-9.47-33.8-11.3-22.62 16.6 6.1 11.36 48.38zm111.17 311.05s17.98-28.74 27.02-37.9c-9.35 40.35-27.02 37.9-27.02 37.9zm59-157.4l-6.34-32.23s13.57 9.09 26.03.33c3.97 4.92 8.18 9.6 8.18 9.6z" transform="matrix(.16 0 0 .16 61.8 57.6)"/><path fill="#000" stroke="none" d="M470.98 279.85c-6.21-10.05-19.3-16.38-39.23-11.98-21.95 4.84-35.46 22.23-48.95 20.13-11.3-1.76-29.68-24.22-57.9-31.76-9.36-2.5-24.32-3.89-34.73-3.4.54-2.86 1.14-6.85 1.38-9.14 2.28 1.02 5.07 2.33 7.84 3.45 59.06-43.71 41.74-86.66 35.08-146.5-2.42.5-24.15 4.23-35.1 6.08-4.84-12.12 17.65-35.88-3.98-60.89-26.48.16-35.97 4.66-43.12 23.13-.38 1-1.09 3.42-1.56 5.03-.58 1.96.93 3.02 3.47 3.5-1.5 2.26-4.23 6.39-5.6 8.77-1.02 1.81-2.22 4.16 1.2 4.63-.42 1.22-1.41 4.34-1.39 4.92.02.38.07.46 1.86.44.24.17.31.89.38 1.94.07 1.27-.38 3.12-.46 3.72-.09.56-.15 1.8.1 2.3-7.36.71-12.32 2.77-12.32 2.77s-10.38-7.85-27.79-14.12c-1.15-3.03-3.03-5.42-3.03-5.42s2.4-6.49 3.3-12.06c.98-.17 2.39-.36 3.46-.57-1.87-14.13 4.6-24.14 7.66-28.17.85-.53 3.72-2.7 4.6-4L230 62.8l10.05.05-.02-18.99c17.5-.6 150.94-4.35 152.66-4.67 3.88-.73 21.97-7.7 21.97-7.7s-17.53-7.15-22.25-7.82c-3.16-.44-136.76-3.1-152.4-3.5L240 .7l-9.4-.12s-2.2 10.74-3.23 15.47c-.25-.63-1.97-3.27-4.55-3.26-4.4.01-4.91 2.4-4.95 2.55-.32-.22-1.15-1.9-4.7-.81-3.27 1-3.28 2.36-3.28 2.36s-1.67-1.27-4.69 1.01c-2.09 1.6-2.2 2.78-2.2 2.78s-2.16-.48-4.6 1.16a6.24 6.24 0 00-2.55 3.8l-9.85-.05c-.15-.23-.95-1.49-1.12-1.7a11.64 11.64 0 00-9.3-4.75c-6.55 0-11.87 5.58-11.87 12.43S169.03 44 175.58 44a11.68 11.68 0 0010.28-6.28l8.39-.02c0 1.66.09 4.37 2.05 6.24-3.06 4.09-10.01 14.76-16.75 25.84.58.52 1.35 1.09 2.23 1.54-1.38 2.16-5.22 10.45-5.22 20.28a228 228 0 00-1.73 6.58c-4.34-2.3-8.96-4.72-13.69-6.13.75-2.38 1.27-6.07 1-11.86-.14-3-.48-3-1.6-2.04-1.32 1.14-4.23 2.92-6.05 4.67.05-.85-.27-3.66-.6-4.46-4.38 1.16-9.59 3.07-13.18 10.4-8.66-.16-17.5 2.46-22.1 6.32-.26 2.47.34 6.13.27 8.79-10.12 8.32-42.56 47.39-46 71.01-.3 2.02 3.52 9.66 8.37 12.5 2.88 1.68 6.92 1.64 9.05-4.18 1.78-4.85 4.52-8.46 8.25-10.5l1.58 2.3c-3.39 2.74-5.62 4.77-6.77 8.2-.53 1.6-.56 5.54 3.55 6.53 4.62 1.1 10.4.24 12.91-1 3.37-1.67 3.52-5.25 3.43-6.22a7.72 7.72 0 00-.68-2.43c.38-.39 1.33-1.08 2.62-1.95.36 6.1.1 11.62-.3 17.03a70.57 70.57 0 00-13.8 30.06c-10.26 7.46-15.51 18.67-17.58 28-19.14-4.87-25.42-8.52-30.42-10.68-3.13-1.37-7.8-.46-10.63 1.11-7.37 4.09-12.54 7.88-13.71 13.16-8.44 38.14-22.92 41-23.69 50.23-1.8 21.65-5.13 29.86-4.85 35.11.24 4.53 4.18 18.46 16.23 24.35 4.82-3.8 7.7-6.59 9.12-8.64.17.76.4 1.53.52 2.33 2.54 16.57 18.85 21.06 29.01 22.7 13.25-23.8-2.97-42.58-7.6-43.2-1.25.24-3.14 1.07-3.36.39-.18-.58.33-.53 1.93-1.36 3.9-2.03-1.52-10.59-.43-12.99 2.06-4.53 18.32-23.53 22.63-23.58 4.16-.05 20.81 17.86 35.57 24.66 4.68 2.16 10.7 1.32 30.61 12.52 4.08 2.3 7.59-.52 8.94-3.7l.98-2.3c1.33.06 3.63.61 7.22 2.69l-3.44 4.64a8.93 8.93 0 00-10 10.65c-1.97.27-5.3 1.02-9.23 2.17-2.93.87-8 3.35-12.09 6.18a31.35 31.35 0 00-11.16 15.14 30.7 30.7 0 00-.9 3.33c.8-.16 1.62-.33 2.55-.56 6.8-1.7 15.69-2.42 20.07-2.68-.3.75-.52 1.42-.67 1.92.88.18 19.06 4.28 22.89 5.3.16-.83.45-2.17.78-4.25a82.27 82.27 0 0019.98 5.06c.31-2.65-.35-12.97-.12-18.38l2.54-.94c3.2 26.47 19.71 107.85 74.29 115.48-1.64-17.04-20.18-34.53-30.45-80.92a34.9 34.9 0 012.26.07s11.08 77.48 63.26 84.87c2.06-9.65-23.51-51.7-30.5-85.16 1.32-.02 2.9.05 2.9.05s11.42 49.55 32.48 77.97c22.66-27.85 5.3-70.67-5.78-99.94.48-.58 1.1-1.23 1.62-1.62.3-.01 2.58.24 2.95.23.23 4 2.91 14.51 11.85 20.93 9.04 14.14 18.71 21.32 30.43 27.98 2.9 2.26 13.24 14.8 14.41 19.75 1.13 4.75-7.94 17.84-16.15 29.53-3.45 4.92-7.68 9.84-11.74 12-6.15 3.28-29.36-2.41-33.4 29.15 3.26 3.1 13.3 7.5 23.2 5.77a87.2 87.2 0 01-.52 3.97c3.14 2.87 11.96 4.79 20.65 4.87 11.43.11 26.74-6.86 23.86-20.7 2.56-1.5 2.6-2.71 11.5-.22 8.69 2.42 10.66-.51 10.93-4.98a90.77 90.77 0 014.17-23.15c7.45-24.1 20.3-42.55 25.72-52.32 2.25-4.06.71-7.53-1.76-9.25-7.39-5.13-25.36-18.04-31.15-23.1-1.8-1.57-2-2.2-.27-4.21 2.55-2.98 6.88-8 9.22-10.92.68 5.33 2.82 10.85 5.01 14.19 8.18 12.48 27.66 14.83 45.54-8.61-2.16.76-3.9 1.45-6.71 2.35-13.07 4.21-16.36-2.74-11.46-10.7 7.6-2.93 18.64-6.34 29.35-13.38 9.72-6.39 24.98-19.62 32.49-33.41 7.2-13.25 8.38-36.74 0-50.32zM175.58 40.62c-4.66 0-8.43-4.05-8.43-9.05 0-5 3.77-9.05 8.43-9.05 4.65 0 8.43 4.05 8.43 9.05 0 5-3.78 9.05-8.43 9.05zm172.15 229.22c3.04 1.83 5.48 3.48 7.12 4.64-.77 7.61-2.83 20.66-6.51 35.62a207.2 207.2 0 01-4.98 17 6.68 6.68 0 00-5.25-2.64c-.35 0-.7.04-1.03.1l-.63-.3a199.88 199.88 0 004.72-16.24c4.17-17.07 6.04-31.2 6.44-36.28l.12-1.9zm43.35 36.46c8.25 4.74 15.1 5.03 22.5.9.42-.24 1.15-.52 1.57-.83a20.64 20.64 0 017.5 7.36 141.52 141.52 0 00-26.08 20.34c.26-7.45-2.8-19.15-5.49-27.77zm-239.05 50.47a8.9 8.9 0 003.69-8.47l26.42-46.63c3.52-.7 11.31-.68 15.08.51-2.5 13.94-10.4 24.57-20.16 34.66-6.22 6.44-12.12 14.61-14.46 23.57l-10.57 1.72a47 47 0 000-5.36zm26.18-18.82c9.77-10.1 17.89-20.95 20.52-35.21a16.48 16.48 0 016.47 4.46c.6 11.38-.86 26.67-17.25 31.07-1.66.84-19.8 21-19.92 21.25l-3.7.6c2.35-8.28 7.93-16.02 13.88-22.17zm2.14-38.02s-3-7.83-1.59-12.5c4.19-4.44 12.3-5.18 12.3-5.18s6.62 11.04 23.54 10.76c-2.65 3.03-7.17 8.73-8.94 11.88-7.56-8.06-25.3-4.96-25.3-4.96zm-62.14-122.67l-.05-1.07c1.43-.91 3-1.88 4.52-2.82l.23 2.33c1.03 12.2.16 25.31.1 26.85-.11.09-4.44-.15-5.15-.18.5-7.14 1.05-15.85.35-25.11zm24.3-71.23c.02.7.33 1.67.53 1.38 1.8-2.49 5.2-4.09 8.62-6.22l.64.21c-.39 2.98-2.2 7.44-4.87 12.59a81.99 81.99 0 00-11.14-10.72 8.5 8.5 0 003.14-.69 6.34 6.34 0 002.94-2.82l.46.02c-.55 2.12-.4 3.88-.32 6.25zm68.41 96.48c-30.17.82-73.2 2.06-85.69.22-.03-1.32.26-7.5.17-14.45l.24-.23c17.53-19.78 41.4-38.54 37.17-56.63-.25-1.01-1.12-1.41-.85.04.62 3.53.95 8.64-5.09 17.52.15-1.4.23-3.04.23-4.87-.01-6.02-.88-13.8-3.29-20.04a6.17 6.17 0 00.11-2.57c3.73-6.67 6.37-12.6 6.88-16.8 16.31 7.54 30.77 21.48 39.58 38.23 7.1 13.45 10.5 32.83 10.5 49.47 0 1.49-.03 2.95-.08 4.39a45.3 45.3 0 00.12 5.72zm-86.01-37.65c.73.28 2.23.94 3.5 1.45l-3.27 2.05a8.83 8.83 0 00-.23-3.5zm23.34-36.52a6.83 6.83 0 004.18-1.84c1.8 5.57 2.56 12.34 2.54 17.6a81.4 81.4 0 01-.28 7.88 87.76 87.76 0 01-3.89 4.69c.2-2.08.33-4.56.33-7.3-.02-6.7-.72-14.71-2.88-21.03zm-5.56-5.84c.01-5.47 9.5-5.47 9.5 0 0 5.48-9.49 5.48-9.5 0zm4.56 10.03a75.62 75.62 0 011.75 16.84c0 3.5-.21 6.62-.52 8.81-1.09 2.76-4.95 5.7-6.69 6.36-1.48.56-6.67 1.07-11.45.53h-.02a52.48 52.48 0 01-5.34-2.1c6-7.2 14.54-18.54 21.7-29.55l.57-.9zm-6.79 35.32a2739.8 2739.8 0 00-13.9 14.42c-.03-.42-.44-7.52-.84-10.76 3.06-1.86 5.43-3.26 5.43-3.26 1.8.13 7.31.2 9.31-.4zm12.4-48.84a6.52 6.52 0 00-3.14-2.11l-.82-1.11c2.84-5.36 4.84-10.11 5.42-13.73 1.49.52 2.97 1.07 4.43 1.7-.12 3.25-2.4 8.78-5.9 15.25zm-18.4-17.17a85.93 85.93 0 00-2-1.48 28.6 28.6 0 018.06-.74c-1.12 1.6-3.33 2.5-6.06 2.22zm1.81 4.16a76.95 76.95 0 0110.57 10.64 6.92 6.92 0 00-4.31 1.81c-6.48-8.07-14.76-13.6-17.47-15.3a19.29 19.29 0 014.58-2.16c1.12.76 3.6 2.48 6.63 5.01zm6.31 20.6a6.7 6.7 0 003.4 1.64c.17.5.35 1 .51 1.53l-1.6 2.5a330.57 330.57 0 01-21.76 29.66 8.08 8.08 0 00-4.48-2.16c6-7.2 14.44-18.47 21.63-29.54.8-1.22 1.55-2.43 2.3-3.63zm80.47 77.25l.1.04h.01s.03.02-.01 0c-.68.16-71.56 17.1-106.43 11.75 0-1.3.73-9.53.93-10.96 26.56 1.65 66.22 1.19 105.4-.83zm12.57-2.4a28.76 28.76 0 002.16 6.54l.55 1.28c-.7-.06-1.41-.14-2.11-.23-.95-.13-1.63-.13-2.26-.87-.5-.59-.93-1.22-1.29-1.89a15.49 15.49 0 01-1.45-4.2c-.8-3.77-.87-7.68-.68-11.52.14-2.63.22-5.78 1.25-8.3.89 2.44 1.96 5.2 3.25 8.13a41.6 41.6 0 00.58 11.07zm.15 37.2l-3.08-16.79 22.2-2.75 1.44 1.4 1.75 14.04zm22.58-1.98l.84 6.77-21.81 4.01-1.23-6.7zM238.6 217.9l1.08-1.23a18.2 18.2 0 001.63-4.93 31 31 0 006.74.07l.28.34c.9 1.12 1.8 2.2 2.78 3.3l.8.79zm6.7-8.14c-1.08.02-2.16 0-3.23-.09-1.14-.08-1.24-.43-1.77-1.41a25.9 25.9 0 01-1.9-4.5 36.57 36.57 0 01-1.42-9.2 84.71 84.71 0 009.35 15.16c-.34.02-.68.04-1.03.04zm-19.65-4.82c.4-.29 2.65-.67 3.92-.78.06.2.1.43.17.63a14.53 14.53 0 001.8 3.73l.09.12-2.35-.01c-2.08 0-2.72-.05-3.2-.26-.72-.3-1.13-.96-1.21-1.92-.05-.57.3-1.16.78-1.5zm-3.07-2.61c-.47-.15-1.61-.65-1.61-2.08 0-1.05.7-1.85 1.79-2.03 2.12-.22 4.63-.36 5.72-.4.1 1.48.3 2.96.6 4.4-.9.07-2.04.23-2.94.25-.98.02-2.8.1-3.56-.14zm3.28-20.83c-1.16-13.65-4.36-25.77-8.28-34.97-2.77-6.52-6.79-14.27-10.74-19.07 3.71 2.58 11 5.37 13.97 6.43 2.66 14.82 5.6 32.05 10.15 46.05l.22.62c-1.48.19-3.44.5-5.32.94zm3.32 1.66c-.2.95-.26 2.07-.33 2.56a48.6 48.6 0 00-.3 2.59c-1.38.06-4.18.32-4.68.36-1.09.1-2.05-.36-2.26-1.2a3.3 3.3 0 01.48-2.25c.32-.44 1.19-.89 3.04-1.3 1.67-.36 2.84-.59 4.05-.76zm-6.66 7.76c.83-.15 4.03-.41 5.89-.48a65.9 65.9 0 00-.04 5.23c-1.6.1-4.24.38-6.17.45-.88.06-2.13-.6-2.15-2.43-.03-1.94 2.05-2.7 2.47-2.77zm.14 14.73c-.04.24-.05.49-.03.74a4.95 4.95 0 002.27 3.75l.17.1-.04.1a35.33 35.33 0 01-4.58 8.94l-.54.74c-3.41-3.2-5.2-7.86-6.12-12.27 4.14-.94 7.22-1.69 8.87-2.1zm.86 12.74a32.9 32.9 0 003.6-7.68v-.05c.5.03 1.06.05 1.7.05h4.74l.15.05c1.44.33 2.92.38 4.38.5a16.2 16.2 0 01-1.02 3.7l-3.08 3.52-1.7.21-3.35.42.6 3.33.18.93-1 1.15c-6.2 6.67-15.2 13.75-22.42 22.17-.3-3.37 3.14-9.55 6.36-13.93 3.66-5 7.74-9.27 10.86-14.37zm5.8 10.09l1.1-1.26 5.14 28.03c-9.58 8.46-27.38 29.78-31.08 34.26a24.1 24.1 0 01-11.3-7.74c6.94-31.45 23.59-40.09 36.14-53.3zm-23.2 61.54c2-2.4 6.43-7.7 11.57-13.58 6.1-7 13.21-14.8 18.2-19.35l3.16 17.22-.88.6c-9.2 6.4-18.01 12.51-22.08 16.24-2.05.15-5.82.03-9.97-1.13zm32.73-11.56l.85-.6 1.38 7.51c-3.66.14-7.49 0-11.37-.61 2.44-1.63 6.34-4.46 9.14-6.3zm-1.09-28.91l21.7-3.99 14.47 115.91s2.35 19.02-2.88 28.81c-8.3-9.29-12.18-25.5-12.18-25.5zm26.81 10.97c6.2-4.45 11.24-8.4 14.6-12.79a27.41 27.41 0 004.03-8.3c1.08.57 4.92 2.7 5.4 2.92a67.8 67.8 0 01-1.5 9.95c-2.33 10.23-8.45 21.7-20.14 27.54l-2.41-19.35.02.03zm-.43-3.5l-.02.02-2.78-22.29.9.37a12.5 12.5 0 014.56 3.61c3.45 4.55 2.45 11.01.45 16-1.1.84-2.15 1.61-3.1 2.29zm13.9-13.31c-1.79 3.06-4.82 6.1-7.93 8.73 1.26-4.16 1.66-8.66-.21-12.66-1.7-3.63-5.07-6.22-8.86-7.4l-1.04-8.33.05.04a139.2 139.2 0 0020.2 13.9 26.4 26.4 0 01-2.21 5.72zm-10.8 38.37c2.02-.76 3.9-1.82 5.66-3.07a196.67 196.67 0 00-3.4 21.17zm6.43 4.28c2.68 2.05 9.37 7.16 13.52 10.16 3.66 2.66 7.77 5.55 12.12 8.5a6.75 6.75 0 00-3.95 6.03l.02.32a492.77 492.77 0 01-23.08-16.65c.41-2.86.88-5.7 1.37-8.36zm23.01 28.57a6.78 6.78 0 004.23 2.65l2.2 1.4a235.2 235.2 0 01-4.61 11.04c-1.46 3.25-4.51 5.83-7.38 7.19-.76-4.34-.55-7.74.63-10.36a227.3 227.3 0 004.93-11.92zm5.32.62a4.59 4.59 0 01-4.5-4.5c0-2.43 2.07-4.51 4.5-4.51s4.5 2.08 4.5 4.5a4.57 4.57 0 01-4.5 4.51zm6.63-4.4a273.7 273.7 0 0015.3 9.09c3.62 1.98 7.1 3.77 10.48 5.4a6.7 6.7 0 00-2.93 5.46c0 .5.07 1 .18 1.49-3.66-1.76-7.42-3.7-11.3-5.81a283.7 283.7 0 01-16.04-9.54 6.76 6.76 0 004.31-6.1zm23.77 24.14l1.11.52a6.64 6.64 0 004.26 1.9c.48.22.96.4 1.45.6a247.04 247.04 0 01-3.98 9.46c-1.46 3.25-4.51 5.83-7.38 7.19-.76-4.34-.55-7.74.63-10.37 1.39-3.1 2.68-6.2 3.9-9.3zm5.71.32a4.58 4.58 0 01-4.5-4.51c0-2.43 2.07-4.5 4.5-4.5s4.51 2.07 4.51 4.5-2.08 4.5-4.5 4.5zm6.64-4.51c0-.31-.03-.61-.07-.91 10.89 4.36 20.53 6.63 29.14 6.6 7.06 0 13.47-1.47 19.64-4.52.03 2.9-.28 5.84-.71 8.47a51.19 51.19 0 01-18.87 3.51h-.06c-10.09-.01-20.8-2.6-32.52-7.37a6.74 6.74 0 003.45-5.78zm-19.01-71.36a99.52 99.52 0 0119.92 8.89c-.02.72-.07 1.7-.17 2.94-.48 5.97-2.5 20.02-6.39 35.95a193.5 193.5 0 01-4.59 15.8c-3.08-1.5-6.26-3.14-9.55-4.95a274.75 274.75 0 01-15.94-9.5c7.8-23.47 9.39-41.45 9.56-50.91 2.43.47 4.83 1.06 7.16 1.78zm-9.29-2.18c-.12 8.56-1.5 26.23-9.11 49.62a6.7 6.7 0 00-5.11-2.76l-1.52-1.02c6.91-21.77 8.26-38.87 8.38-46.82 2.4.23 4.88.55 7.36.98zm-9.57-1.18c-.03 7.56-1.08 23.8-8 45.78a468.71 468.71 0 01-10.44-7.36 786.26 786.26 0 01-14.31-10.8 119 119 0 011.69-7.36c6.93-6.33 11.32-15.53 12.52-20.42 1.69-.15 9.34-.58 18.54.16zm24.82-151.9c2.12 17.82 5.14 34.15 6.5 49.47 2.9 32.88-1.81 61.12-39.28 89.52-45.78-19.27-60.36-45.5-67.93-74.72-3.78-14.61-5.82-29.97-9.12-45.58 2.65-.45 30.2-5.2 57.06-9.76 25.64-4.34 50.66-8.51 52.77-8.92zm-77.5-31.7c5.55-17.77 13.78-23.94 39.73-23.86 18.53 23.2-2.02 44.99 2.16 58.2L285.27 109c-1.67-.34-3.5-1.1-4.84-1.77-4.84-2.44-8.17-5.87-8.56-6.85-.94-8.74 12.62-26.31-10.81-25.45-6.99.26-7.4-.27-6.85-2.15zm-3.15 13.64a198.9 198.9 0 015.44-8.84l.37-.02c.27.2.65.45 1.17.68-.35.9-.54 2.7.72 3.3 1.27.6 2.5 0 3.27-.81 1.33.2 2.6.5 2.54.26-.1-.34-1.95-2.17-2.9-2.76-.5-.3-1.27-.88-1.58-1.09 15.18-.43 13.75 4.3 11.58 12.91-1.1 4.38-3.01 9.27-1.23 12.08-5.6 2.23-10.38 3.4-13.58 3.67-3.94.34-6.08-1.93-4.02-6.12.51-1.04-.02-1.85-.24-2.57-.25-.85.07-.97.42-.96 3.05.08 4.06.38 6.96 2.01 1.32.75 2.18.68 2.72.2.27-.24.4-1.29-.32-2.5a41.89 41.89 0 00-4.13-5.56 3.38 3.38 0 00-1.98-1.2c-.56-.07-4.23.03-5.1-.19-.7-.17-.82-1.23-.1-2.5zm8.85-6.54c0-.47.3-.84.68-.84.37 0 .67.37.67.84 0 .46-.3.84-.67.84-.37 0-.68-.38-.68-.84zm-8.7 13.32c.37-1.83.62-1.97.9-2.17.28-.2 4.12-.02 4.77.04.37.03.71.4 1.05.76a22.11 22.11 0 013.58 4.68c.44.93.02 1.06-.53.83-.96-.4-3.29-1.88-4.53-2.25-.5-.15-2.14-.3-3.74-.34-1.61-.04-1.8-.12-1.5-1.55zm1.18 13.87c1.25.67 3.06 1.04 5.4.74a63.34 63.34 0 0014.2-4.03 33 33 0 009 6.03l-25.3 4.35a53.67 53.67 0 00-5.88-6.94c.91-.09 1.8-.15 2.58-.15zm-6.78.78l1.43-.26a37.2 37.2 0 014.68 4.87c.63.77 1.18 1.5 1.63 2.1l-11.9 2.04c.33-.99.83-2.33 1.45-3.66.8-1.79 1.78-3.68 2.7-5.09zm-7.22 2.27a56.1 56.1 0 014.28-1.51 49 49 0 00-1.72 3.46 32.84 32.84 0 00-1.83 4.93l-4.81.82a23.83 23.83 0 012.38-5.06 48.17 48.17 0 011.7-2.64zM208.6 95.84c10.47 2.82 22.5 10.1 27.66 13.61-1.42 2.1-3.64 5.7-4.24 8.76l-13.97 2.4L220 130c-3.38-1.53-9.85-3.53-16.58-7.97-1.25-.85-6.6-6.3-9.45-9 .57-3.59 4.15-8.05 7.89-11.55a74 74 0 016.75-5.65zm30.16-72.52s150.2 3 153.22 3.5c3.52.58 15.63 4.57 15.63 4.57s-12.28 4.22-15.27 4.57c-2.85.33-153.58 4.73-153.58 4.73zm-9.83.4L233.2 3.8l3.6.05.03 55.78-4.2-.03-3.9-20.68c7.02-8.27 4.31-10.27-.23-12.06.06-.8.39-2.43.43-3.14zm-8.12-7.96a4.82 4.82 0 012.8 0c2.1.88 2.27 7.49 2.14 10-1.94-1.17-4.97-4-5.6-4.06-.34-1.83-1.59-5.11.66-5.94zm-.14 8.21c1.16.01 2.34 2.9 8.77 5.58 1.92.8 1.45 3.64-2.82 8.7-.81.98-3.98 6.98-10.5 6.78-9.56-.3-6.44-6.94-3.98-8.23 5.35-2.81 7.4-.7 8.24-.08.57.37 1.1.51 1.55.67 1.13.38 2.15.18 1.02-.4-1.26-.66-1.54-1.8.16-2.28 1-.28 1.91-.57 2.4-.84.63-.35 1.08-1 .64-1.35-.45-.35-2.33.14-2.91-.3-6.1-4.69-4.03-8.26-2.57-8.25zm-8.83-5.56c.47-2 4.72-2.22 5.34 0 .6 1.5 1.1 3.55 1.24 4.39-1.17 1.5-1.54 5.07 1.1 8.2 1.2 1.76-.08 2.22-1.4 2.27-.82.02-1.93-.92-2.92-2.4-2.13-3.23-4.28-8.5-3.36-12.46zm-2.2 1.17c1.31 9.55 3.54 11.45 4.88 13.24 1.5 1.5-2.77 2.18-4.46.96-2.3-1.67-4.86-7.27-4.86-10.58 0-3.8 3.52-4.62 4.44-3.62zm-6.6 3.75c1.73 7.86 5.07 10.93 5.07 10.93s2.27 1.96-1.36 2.35c-1.15.12-4.54-.83-7.59-7.14-2.24-4.65 1.9-7.04 3.89-6.14zm-16.96 11.18c.17-.81.4-2.07.4-2.94 0-.95-.12-1.87-.33-2.76h.62l9.91.04c.3 1.36 1.88 4.1 2.87 5.6zm13.64 10.2s2.05-.17 3.38-.32c3.38-.38-1.87-.53-3.02-1.1-1.51-.74-2.98-2.38-2.7-5.6l5.61-.02a16.4 16.4 0 003.79 1.32c-.62 3.82 1.87 8.1 9.6 8.04.3 0 1.04 0 1.33-.02-2.25 2.9-7.89 12.33-7.19 24.97a82.74 82.74 0 01-15.42.07c-3.97-.33-9.48-2.14-11.3-3.15 11-18.1 15.92-24.18 15.92-24.18zm-15.06 27.73l.34-.68a40.8 40.8 0 009.9 2.4 86.05 86.05 0 0012.4.2l-.04.2c-.58 4.61-2.74 10.66-3.55 12.8-7.07 4-12.97 5-17.15 5a22.4 22.4 0 01-5.15-.56 14.39 14.39 0 01-1.51-.44c.1-10.07 2.46-14.08 4.76-18.92zm-5.31 20.98c1.03.36 3.53 1.07 7.2 1.07h.03c4.49 0 10.7-1.09 17.98-5.16a19.13 19.13 0 012.69 4.86 77.58 77.58 0 00-6.87 5.76c-3.52 3.38-7.16 7.5-8.29 11.72-4.53-4.01-8.9-7.18-14.18-11.13-.12-1.1.81-4.8 1.44-7.12zm-10.82 5.12c19.63 10.52 40.86 28.24 50.39 61.24 1.53 5.31 2.93 13.25 3.8 22.64-1.1.43-1.65.86-2.18 1.48a5.27 5.27 0 00-.92 4.4 3 3 0 00.85 1.5s-2.49.93-2.5 3.8c-.01 1.86.64 2.91 2.12 3.76-.73.41-1.35 1.74-1.26 2.82.07.78.33 1.58.76 2.1l-6.55.18a45.51 45.51 0 01-.12-5.6c.06-1.46.08-2.95.08-4.46 0-16.93-3.4-36.53-10.73-50.46-10.42-19.76-28.4-35.68-48.35-42.25a20.16 20.16 0 004.94-4.92 40.8 40.8 0 019.67 3.77zm-9.43-15.8c.78 15.2-10.07 16.47-14.53 20.66.7-9.36 9.05-16.61 14.53-20.66zm-7.74-.17c.13 1.05.08 2.64-.23 4.2a50.3 50.3 0 00-2.5 2.58c-1.5-.19-2.97-.32-4.42-.4 1.69-3.52 5.45-5.84 7.15-6.38zM122.14 96.6c4.92-3.73 13.97-5.28 24.16-4.33a37.02 37.02 0 00-2.84 5.48c-8.02-.96-15.52.57-21.54 4.53-.08-.97-.07-5.36.22-5.68zm-21.23 32.1c6.75-8.96 14.98-18.11 20.66-22.98.54-.47 1.06-.88 1.58-1.27.2.12.98.59 2.18 1.4 3.54 2.35 10.55 7.53 15.96 14.45a5.95 5.95 0 000 4.37 330.6 330.6 0 01-24.56 34.07 119.33 119.33 0 01-15.89-9.95c-4.75-3.5-8.08-6.39-9.04-7.23 2.76-4.17 5.8-8.48 9.1-12.86zm-10.3 14.66c2.39 2.08 12.29 10.49 23.97 16.68a7.23 7.23 0 00-4.8 4.27c-3.7-2.12-7.23-4.45-10.32-6.7a147.76 147.76 0 01-11.8-9.54c.93-1.54 1.93-3.12 2.96-4.71zm18.9 26.22c-1.64.6-4.58 2.17-6.7 3.71l-1.52-2.14a28.76 28.76 0 018.17-1.8zM86.8 183.2c-3.15 6.8-10.9-6.16-10.68-8.08.71-6.34 4.5-15.15 10.43-25.18 2.44 2.2 11.72 10.36 22.74 16.56-.02.24-.03.48-.03.73l.01.27c-1.97.09-5.74.77-7.47 1.24-10.96 2.97-13.41 11.05-15 14.46zm23.52-5.37c-1.33-.53-3.24-1.1-4.24-.95-1.35.19 7.18 4.79 2.78 8.73-1.76 1.58-12.48 2.77-12.56-.45-.1-4.19 7.6-10.36 13.93-14.09a7.44 7.44 0 004.63 3.42 41.68 41.68 0 01-4.54 3.34zm1.07-10.6c.01-7.35 11.71-7.35 11.71 0-.01 7.35-11.7 7.35-11.71 0zm-7.41 59.82c1.23-7.46 5.15-17.95 12.03-27.79-.58 6.19-1.28 12.14-1.55 18.18 27.58 4.9 74.92-4.24 97.24-9.22.98 4.76 2.96 9.9 6.95 13.51-2.62 3.44-5.56 6.82-7.98 10.16a45.3 45.3 0 00-4.82 8.14c-10.62 3.4-40.31 11.96-70.81 13.45-3.27.15-6.56.24-9.87.24-12.48 0-25.2-1.25-37.27-4.4 3.57-11.32 9.78-17.7 16.08-22.27zM87.3 251.36c12.31 3.22 25.23 4.5 37.87 4.5 3.35 0 6.68-.1 9.97-.26 31.88-1.56 60.22-10 69.8-13.14-.71 2.25-1.03 4.54-.56 6.64-.76.99-1.89 2.7-3.02 4.52-11.53 3.59-37.52 10.7-66.32 12.1-3.27.16-6.56.25-9.88.25-13.3 0-26.9-1.4-39.68-5.04.42-3.52 1.04-6.7 1.82-9.57zM6.6 322.5c1.17-7.88 1.59-15.52 1.87-16.33 2.76-8.04 14.35-12.21 23.16-47.16.47-1.86.78-3.12 1.61-4.35 1.72-2.57 4.56-4.36 7.84-6.49 5.04-3.27 8.36-3.73 11.39-2.44 2.24.96 4.91 2.38 9.1 4.04 4.71 1.87 13.02 4.45 21.28 6.58-.7 4.81-1.12 11.75-1.23 16-2.2-1.23-6.68-4.02-8.04-4.48-3.68-1.25-8.43-.25-9.68.2a21.88 21.88 0 00-9.33 6.84c-.71-.27-2.76-.95-4.23-2.06-.82-.62 3.34-3.6 3.88-4.18.19-.2-1.74.12-3.9.95-1.66.64-3.48 2.4-4.65 3.75-5.4 6.23-13.1 22.13-14.4 27.61-.9 3.07-.94 6.04-1 7.53-2.57 3.01-5.46 7.01-8.6 9.85-.73.1-2.77.2-3.58-.02-.8-.23-1.57-.79-1.87-.74-.79.28 1.2 1.4 1.96 1.67.36.12 2 .27 2.46.34l-.64.48c-1.02.88-1.42 3.4-1.5 6.4a6.4 6.4 0 00-2.9.64c-.67.29-2.3 1.04.13.95.8-.03 1.72-.13 2.66.04-.24 3.6.23 6.43.57 8.88-6.94 5.1-13.55 6.32-15.18 6.52-1.23-3.47 1.41-11.47 2.82-21.02zm45.84-44.8c-4.95 7.47-11.57 17.77-18.88 27.44.3-1.94 1.11-3.91 1.48-5.33 1.14-4.35 6.58-14.93 10.04-19.92.83-1.19 3.18-4.5 3.77-4.03.64.42 1.87 1.1 3.59 1.83zM16.1 362.67c-4.2-1.73-10.25-9.48-11.98-17.03a45.3 45.3 0 006.15-1.83 35.2 35.2 0 009.12-5.25c.44 1.98 4.9 13.34 5.2 14.98-1.87 3.1-4.33 5.94-8.5 9.13zm29.57-19.26c.24-.02 1.3-.27 1.68-.37 3.48 1.86 15.67 16.34 5.99 36.29-8.19-1.4-16.16-4.58-20.6-10.75 3.82-1.83 7.48-4.92 9.31-7.8 4.04-6.33 4.06-13.95 3.62-17.37zm100.35-13.86c3.82-9.12 3.75-9.27 7.28-12.16 1.86-1.52.16-2.29-4.8 1.2-3.14 2.21-7.53 18.87-11.03 18.35-2.84-.42-12.18-7.88-29.97-12.13-9.7-2.33-29.44-21.11-35.77-25.02-.85-.52-3.56-1.74-7.5.43-3.35 1.84-14.82 13.78-20.2 21.96-.88 1.34-2.21 2.9-1.72 5.38.52 2.57 1.64 5.74 1.78 6.87.15 1.26 0 4.06-6.45 4.47-4.44.28-4.81.8-.84 1.5 2.05.35 4.12-.36 4.26 2.2.08 1.61-5.28 8.05-2.81 6.24.8-.59 2.55-3.55 5.41-4.88.54 4.35.24 17.3-12.27 22.5-1.52-2.26-2.27-8.13-2.87-10.39-1.78-6.73-3.92-11.7-6.31-19.16-1.25-3.9-.56-14.46.41-15.45 29.47-30.17 30-44.7 41.53-50.05 2.97-1.38 7.35-1.09 9.15-.27 1.63.75 5.56 3.5 8.22 4.87 20.72 10.6 40.65 9.19 44.74 12.05 4.63 3.23 6.82 7.52 8.17 8.85 3.77 3.72-3.82-10.2-6.78-11.54-6.34-2.87-23.74-2.6-42.82-11.39-.06-3.96.09-7.58.4-10.92 12.92 3.64 26.58 5.03 39.91 5.03 3.36 0 6.68-.09 9.98-.25 27.28-1.34 51.96-7.71 64.52-11.49a319.92 319.92 0 00-2.47 4.15c-2.71 5.29-4.7 11.68-6.63 18.73-3.4.41-10.79 2.3-14.6 6.6-1.6 6.53.6 12.93 1.47 15.34l-23.37 31.55c-1.69-.65-6.01-2.74-8.02-3.17zm28.76-21.22l-20.51 36.03c-.13-.14-.99-1.08-1.12-1.2a9 9 0 00-2.65-1.83zm-43.04 47.71c2.6-.72 5.8-1.04 6.35-1.1a71.37 71.37 0 00-6 9.49 13.99 13.99 0 01-1.66-4.38 31.3 31.3 0 01-.3-3.52c.52-.17 1.06-.34 1.6-.49zm-22.28 17.76a27.71 27.71 0 015.24-7.98c.17 2.39.87 4.73 2.04 6.82-2.41.3-4.9.68-7.28 1.16zm9.6-1.43a13.86 13.86 0 01-2.24-8.61 33.12 33.12 0 014.51-3.3v.16c0 3.97 1.14 7.9 3.26 11.24-1.66.13-3.54.3-5.53.5zm9.46-.81l-1.47.14c-.31-.44-.63-.88-.9-1.33a18.6 18.6 0 01-2.33-6.08 17.79 17.79 0 01-.32-5.07l.4-.21c.5-.25 2.08-.99 4.13-1.75 0 3.32 1.02 6.62 2.93 9.33a139.11 139.11 0 00-2.44 4.97zm18.48 6.59s-10.5-2.46-16.04-3.69c2.15-6.76 7.66-15.02 10.11-18.18a8.9 8.9 0 007.8 1.92c.26 9.28-1.87 19.95-1.87 19.95zm-.14-22.72a5.96 5.96 0 110-11.91 5.96 5.96 0 010 11.91zm20.24 23.71c-4.38-.35-12.67-2.79-16.27-4.55.15-1.21.46-3.63.6-4.92L167 365.3c-.12 4.68.32 11.63.1 13.84zm-15.43-12.01l.2-2.36 33.58-6.34zm138.75 45.41c5.36 19.29 7.49 40.72-3.34 57.94-20.12-30.53-30.17-75.56-30.17-75.56s-8.56-.04-9.05-.07c7.12 34.88 27.35 69.1 30.74 84.39-32.86-6.59-50.02-49.3-55.13-73-.97-4.52-1.65-8.13-1.77-10.89 0-.08-7.41.07-8.72.12 8.22 43.37 26.1 64.61 30.35 80.05-47.3-8.52-64.56-85.86-67.37-112.79l24.44-6.83a33.88 33.88 0 009.24 14.64c2-6.85 1.08-11.85 1.08-11.85s7.93-2.77 13.63-8.85c-7.7-2.7-16.05-1.82-16.05-1.82s-2.9-5.83-7.05-9.9c-2.37 7.52-1.36 15.15-1.2 16.16l-24.57 4.05c-.12-.52-.17-1.55-.22-2.07 5.38-6.16 13.4-14.7 14.16-15.09 18.15-5.64 19.56-22.29 18.74-34.03 2.41-4.55 6.48-9.24 9.65-13.1 1.29-1.56 5.3-4.65 9.44-7.5 4.4.79 9.78 1.16 14.21.98l14.26 77.82.02.09.02.08c.16.7 4.16 17.11 12.9 26.9l3.04 3.4 2.16-4.03c2.45-4.6 3.4-10.85 3.69-16.53 2.13 5.5 9.85 25.68 12.87 37.3zm-81.88-46.39c-3.23-3.14-5.4-10-5.7-10.94l5.16-1.45-.2-.74-5.28.86c-.07-.39-1.17-6.35-.27-10.74 1.23.7 4.82 7.35 4.82 7.35s8.02-1.3 13 .38c-4.32 3.92-11.97 6.27-11.97 6.27s.75 3.93.44 9.01zm77 4.34c-1.07.04-2.88-.08-4.18.09-.72.5-1.9 1.36-1.9 1.36s-1.04-1.44-1.85-3.14c-.02-1-.06-1.92-.1-2.77 2.73.15 5.6-.06 8.22-.84-.05 2.43-.17 4.35-.2 5.3zm20.62 119.21c11.28-1.33 15.18-4.33 24.6-18.18 12.69-18.65 16.75-24.87 14.35-31.22-1.16-3.05-5.35-8.03-8.83-12.24 14.48 6.6 28.58 12.4 28.24 19.2-.05.92-.5 2.49-.78 3.7-7.75 10.3-20.58 24.57-28.87 41.96-3.53.64-6.3.71-9.1 1.56-2.56-.67-3.79-1.95-3.79-1.95s-1.33-1.03-.61.82a4.83 4.83 0 001.72 2.03c-5.53 2.02-9.16 4.37-11.91 8.19-4.97-.5-13.62-2.31-18.24-8.44 3.34-2.81 7.21-4.72 13.22-5.43zm55.96-31.2c-3.3 9.6-9.53 23.47-16.35 30.67-2.33 2.32-4.32 2.75-6.9 3.08 6.6-13.65 18.6-27.81 23.25-33.76zm-76.99 54.07c-.47-2.11 1.16-9.98 6.04-15.7 6.03 6.87 15.25 7.9 19.19 8.09a36.48 36.48 0 00-5.08 11.34c-5.9 2.04-19.62-1.37-20.15-3.73zm41.8 12.74c-2.54.34-20.14-.85-19.92-3.77.4-5.46 2.3-11.72 7.14-16.95 10.17 7.41 24 10.4 31.1 8.66-1.03 4.27-4.27 10.2-18.32 12.06zm37.67-136.05c-1.31 1.56-2.91 4.87 1.14 8.19 5.59 4.59 29.88 22.2 31.68 23.53.97.72 1.58 2.86.82 4.29-3.77 7.06-10.93 17.69-17.42 31.16-5.46 11.34-10.6 24.68-12.69 39.61-.38 2.7.12 6.91-.7 8.24-1.88 3.02-14.54-1.08-19.76-5.5-1.05-.88-1.13-.38-.75.09 1.03 1.28 2.39 3.15 2.2 4.57-.12.91-.84 1.57-2.56 1.5-1.45-.06-3.64-1.2-4.4-1.51-3.41-1.43-3.69-.77-2.08-.15 2.08.8 5.6 4.09 5.31 8.4-11.75 1.84-26.43-6.12-29.33-8.96a13.88 13.88 0 014.12-2.82c8.78-4.28 15.08-2.67 24.9-6.04 4.4-1.52 20.21-26.76 21.77-45.51 1.44-17.24-46.62-20.05-67.08-55.34-20.8-15.57-2.89-37.4-17.34-50.73-1.77-1.63-2.65-1.05-1.63.18 4.13 5.04 4.92 13.93 4.95 20.48-1.76.58-3.63.85-5.48.93-.97.04-1.94.02-2.91-.03-.12-1.58-.24-2.6-.27-2.77l-6.43-51.51c.26-3.88.71-8.15 1.29-12.43a490.42 490.42 0 0022.95 16.48c-1.51 3.98-3.2 8.1-5.1 12.35-1.92 4.28-1.34 9.57-.28 14.1 4.2-1.12 8.92-4.74 10.9-9.18 1.66-3.67 3.14-7.25 4.5-10.74a280.6 280.6 0 0014.4 8.5c3.82 2.08 7.53 4 11.15 5.74-1.2 3.04-2.5 6.14-3.94 9.33-1.9 4.27-1.33 9.56-.27 14.09 4.2-1.1 8.92-4.73 10.91-9.17a241.6 241.6 0 004.01-9.5c11.64 4.66 22.37 7.22 32.63 7.24h.08a53.5 53.5 0 0018.4-3.18 64.06 64.06 0 01-1.63 6.5c-6.23 18.6-18.43 30.55-26.06 39.57zM379.67 376c9.01-11.77 14.97-23.61 16.75-37.59 6.37-6.81 16.56-15.15 26.93-21.52.96 7.9-6.63 17.15-15.86 26.82-8.2 8.6-17.64 17.55-21.43 28.15-2.62 7.31-2.55 17.68 2.52 24.71-4.8-3.68-8.6-10.93-8.91-20.57zm39.31 14.93c-2.8 1.8-5.38 3.73-6.92 4.7-4.81 3.07-9.24 4.54-13.56 4.44-4.17-4.93-4.8-9.36-3.55-12.43 1.24-3.08 4.93-6.08 9.75-8.21-2.9 6.96 2.1 14.96 14.28 11.5zm48.96-62.1c-10.28 18.36-32.12 35.23-48.57 40.98-12.71 4.44-22.16 7.73-25.98 13.52a12.88 12.88 0 002.42 16.47 16.58 16.58 0 01-5.14-1.85c-11.25-20.32 1.45-36.29 17.92-52.37 15.26-14.9 26.49-30.9 9.02-40.87 6.12-4.02 14.6-7.66 20.09-6.14 11.29 3.11 11.64 18.92 4.37 27.9-5.66 6.99-14.95 14.7-29.43 21.3 0 0 17.32-2.17 33.79-14.25 10-7.33 16.7-18.09 11.16-32.41-.49-1.14-1.42-2.9-1.31-2.4 1.1 6.01 5.77 19.7-9.28 31.58-10.78 8.52-19.64 11.52-19.64 11.52l1.63-.76c4.06-2.27 12.11-8.9 15.92-14.17 10.8-14.99 4.25-32.06-10.91-31.4-5.87.26-10.6 1.82-19.5 7.74-11.93 7.91-19.68 2.53-29.34-4.22 2.75 4.54 6.39 17.69 8.02 29.3.07.54.13 1.08.18 1.63a41.15 41.15 0 01-19.55 4.73c-8.3.02-17.75-2.18-28.56-6.53a210.8 210.8 0 005.15-17.53 284.43 284.43 0 006.42-34.67l.37.28c11.03 7.68 19.2 14.66 26.26 15.07 16.43.95 27.82-16.69 51.19-20.7 15.95-2.74 27.26 1.6 32.69 9.66 9.44 14.03 7.11 37 .61 48.6zM82.07 167.2c-.35.22-1.13 1-1.03 1.43a5.39 5.39 0 013.46-1.25c.45.02 1.03.47.96 1.35-.3-.18-.84-.2-1.3-.12-1.85.38-4.45 1.97-5.47 3.54-.72 1.12-.96 3.13.27 4.02 1.02.74 3.75.88 6.22-2.53 2.1-2.9 2.8-5.85 1.37-7.05-1-.85-2.58-.6-4.48.6zm.9 6.56c-.98.92-2.08 1.13-2.52.63-.83-.93.18-2.6 1.69-3.55 1.26-.8 2.74-1.23 2.94-.86.49.88-1.17 2.91-2.1 3.78zm115.05 53.41c-18.39-9.33-46.43-3.18-61.63 4.31 24.14-6.77 45.4-8.4 61.63-4.3zm141.93 162.8c22.1-.38 23.14-14.27 32.43-21.86-7.43-.22-10.33 17.48-32.43 21.86zM120.57 318.1c-7.6-1.48-11.37-.9-25.27-10.87-2.78-2-6.7-4.06-7.26-4.14-3.37-.47 2.91 2.84 14.25 11.42 4.32 3.27 15.51 5.33 16.64 5.54 1.13.2 3.5-1.6 1.64-1.95zm260.53 107c7.12 1.42 6.86 4.14 8.2 5.16.5-.4.08-5.18-6.22-7.03-3.36-5.72-9.14-10.3-14.27-13.29 0 1.34 11.01 9.78 12.3 15.17zM111.94 130.32c.18-.56.4-1.88.75-1.92.24-.03 1.56 1.46 4.2 1.46 2.66 0 3.95-1.03 4.52-1.56a5.14 5.14 0 001.53-2.8c.76.12 2.25.03 2.98-.1 2.02-.33 2.9-1.45 2.33-1.37h-.82c-1.03-.02-2.8-.09-3.93-.37-1.09-.27-2.1-1.1-3.2-1.46a9.37 9.37 0 00-3.98-.41c.47-.96 1.65-2.6 1.87-3.02.24-.44.98-1.83-.4-.71a47.4 47.4 0 00-3.44 3.14c-1.42 1.4-2.24 2.3-2.83 3.68-.14.57-.09 1.43-.14 2.77-.07 1.55-.24 3.56-.2 3.6.14.11.64-.58.76-.93zm5.53-6.5c1.7-.1 3.1.66 3.19 1.77.08 1.1-1.2 2.3-2.9 2.4-1.7.1-3.14-.86-3.22-1.96-.08-1.11 1.22-2.1 2.93-2.2z" transform="matrix(.16 0 0 .16 61.8 57.6)"/><path stroke-width=".5" d="M99.25 78.82l14.14-2.43c2.3 11.75-.46 14.95-4.24 17.82-3.8-1.46-8.31-3.84-9.9-15.4Z"/></g><g id="heron_coa230782123" stroke-width=".3"><path d="M95.03 140.6s1.07-.34 1.38.5c.31.85-.16 1.13-.16 1.13s-.3.1-.52.33c-.6.58-.35 1.14.03 1.52.17.17.33.2.37.27.12.18-1.23.33-1.94-1.15-.76-1.6.84-2.6.84-2.6zm-3.15-3.58s1.11.07 1.1.97c-.02.9-.56 1-.56 1s-.32-.02-.62.1c-.76.33-.73.93-.53 1.43.1.23.23.3.25.39.04.21-1.27-.15-1.39-1.78-.1-1.78 1.75-2.11 1.75-2.11zm.89-4.34s.77.81.14 1.47c-.63.64-1.02.35-1.02.35s-.21-.22-.52-.33c-.78-.28-1.25.15-1.43.66-.09.23-.03.39-.09.46-.11.19-.82-.97.2-2.24 1.13-1.39 2.72-.37 2.72-.37z"/><path d="M107.42 108.34c-.04.15-.18.13-1.23.31-1.13.2-1.09.93-1.25.9h-.04c.2.34.55.77.82 1.47.3.8.41 1.25.5 1.52.35.54-.78 1.07-.32 2.62.18 1.49-1.35 4.96-1.9 6.89-.27.22-.6 1.56-.73 1.95-.27.22-.77 1.7-.67 1.85-.23.13-.64 1.51-.5 1.87-.2.2-.62 1.5-.6 1.8-.25.19-.81 1.68-.64 1.93-.06.14-.2.13-.31.35-.25.44-.27.85-.78 1.3-.45.37-.88.46-1.48.6-1.07.07-1.66-.52-2.55-.7a1.7 1.7 0 00-.75.06c-.69.3-1.35-.17-1.4-.41-.1-.66-.59-.77-1.09-.8-.56.03-.77.42-.77.42s.61.1.4 1.18c-.04.14-.06.28-.13.4-.06.1-.31.4-.32.49-.04.28.22.59.76.61.35.01.64-.28.77-.45.44.2.86.39 1.35.27.16-.04.33-.1.48-.05.16.05.26.22.4.33.18.15.76.07 1 .06-.44.18-.96.55-1.56.52-.43-.03-.78-.06-1.12.11-.41.2-.54.42-.84.71-.05-.14-.28-.28-.4-.32-.16-.05-.32-.05-.48-.05-.51 0-1.4.58-1.12 1.23.03.08.04.06.11.06.44-.15 1.22.58 1.17 1.54-.01.11.1.36.2.42.26.17.85.19 1.27-.19s.27-.74.26-.88c.32-.19.53-.6.83-.83.45-.34 1.07-.2 1.64-.23.62-.02 1.44-.62 1.52-.66-.24.48-.57 1.09-1.13 1.28-.32.11-.58.36-.73.73-.04.13-.2.38-.25.61-.05.23-.13.46-.13.46s-.38-.25-.94-.02c-.72.31-.95 1.1-.7 1.57l.23.21c.59-.58 1.9.2 1.9.78.08.18.47.4 1.01.01.25-.19.45-.53.4-.98s-.25-.28-.25-.69.67-.83.87-1c.31-.25.53-.53.66-.87.17-.49.14-.77.41-1.2.27-.41.66-.28 1.27-.4.62-.12.72-.72 1.16-1.18.24-.29.96-.58 1.11-.28.31.65.82.3.86.43.05.3-.2.9.5 1.27.6.3.9-.13.9-.13s-.23-1.26 1.29-1.61c.16-.1.22-.7-.63-1.02-.5-.24-.88.18-.88.18s-.36-.46-.97-.33c-.37.07-.3-.13-.6-.34-.22-.15-.55-.18-.6-.32a4.33 4.33 0 01.15-1.74s.37-1.15.5-1.7c.13-.54 1.27-4.26 1.96-6.05s1.97-5.24 1.97-5.24c.47-1.2.92-2.66 1.48-3.83 1.52-2.2.2-2.76-.11-3.47-.15-.33-.5-1.26-.75-2.14-.22-.56-.36-.96-.46-1.19z"/><path d="M98.63 103.09a5.14 5.14 0 001.58 3.28c.94.97 2.44 1.57 3.15 2.71.37.61 1.07 1.19 1.37 1.7.5.86.89 1.3 1.21 1.39.16.04.16-.47 1.3-.55 1.14-.07 1.23-.02 1.28-.2.06-.22-.21-.65-.32-1.31-.22-1.27.17-1.63-.2-2.92m4.82 29.18s-1.08-.3-1.35.56.21 1.13.21 1.13.3.08.54.3c.61.55.4 1.11.04 1.51-.16.18-.32.2-.36.29-.1.18 1.24.27 1.87-1.23.7-1.64-.95-2.56-.95-2.56zm-10.64 5.78s1.05-.38 1.4.45-.13 1.14-.13 1.14-.29.1-.51.35c-.57.6-.3 1.15.09 1.51.17.18.34.19.38.26.13.17-1.21.38-1.98-1.07-.8-1.59.75-2.64.75-2.64zm-3.27-3.47s1.13.03 1.14.93-.53 1.01-.53 1.01-.31 0-.6.14c-.75.35-.7.95-.48 1.44.1.22.24.29.27.38.05.22-1.27-.1-1.45-1.72-.2-1.77 1.65-2.18 1.65-2.18zm.72-4.38s.8.8.2 1.47c-.62.66-1.02.38-1.02.38s-.22-.21-.53-.3c-.78-.27-1.23.2-1.4.7-.08.23-.02.4-.07.47-.1.2-.86-.94.12-2.25 1.08-1.42 2.7-.46 2.7-.46z"/><path d="M111.73 116.17c-.55-1.5.54-2.12.17-2.63-.1-.26-.24-.72-.6-1.5-.31-.67-.69-1.07-.9-1.42l.04.01c.17.01.09-.7 1.2-.97 1.02-.25 1.17-.24 1.2-.39.1.23.28.61.48 1.18.32.86.72 1.77.88 2.1.36.68 1.7 1.16.32 3.44-.48 1.21-.83 2.68-1.24 3.93 0 0-1.07 3.52-1.65 5.34a86.85 86.85 0 00-1.57 6.17c-.1.55-.4 1.72-.4 1.72-.04.48-.24 1.57-.14 1.83.05.14.39.16.61.3.32.2.25.4.62.32.6-.15.98.3.98.3s.36-.45.87-.22c.86.29.82.88.67 1-1.51.41-1.22 1.66-1.22 1.66s-.28.45-.9.17c-.72-.33-.5-.94-.56-1.24-.04-.13-.53.23-.87-.4-.16-.3-.86.02-1.1.32-.42.48-.5 1.08-1.11 1.22-.62.15-1 .03-1.26.45-.26.43-.21.72-.36 1.2-.12.36-.32.64-.62.9-.2.19-.85.64-.84 1.04.01.41.2.23.28.68.06.45-.12.8-.36 1-.53.4-.92.19-1 .03-.05-.58-1.37-1.31-1.94-.71-.08-.04-.24-.2-.24-.2-.28-.45-.06-1.26.63-1.59.56-.27.95-.01.95-.01l.1-.47c.04-.23.19-.48.23-.62.15-.39.38-.65.7-.77.55-.2.86-.83 1.1-1.32-.48.38-.88.66-1.5.71-.56.05-1.2-.05-1.63.3-.3.23-.5.65-.81.86.02.14.18.5-.23.9-.4.38-1 .38-1.25.23-.11-.07-.22-.3-.22-.43.02-.96-.78-1.65-1.22-1.5-.07.02-.09.03-.12-.05-.3-.64.57-1.25 1.09-1.27.16-.01.32-.01.47.03.13.04.36.17.41.31.3-.3.41-.52.8-.74.34-.18.7-.17 1.13-.16.6.01 1.1-.37 1.54-.58-.24.03-.8.11-1-.03-.14-.1-.24-.27-.4-.32-.17-.04-.33.02-.49.06-.5.14-.92-.03-1.36-.21-.12.17-.4.47-.75.48-.53.01-.8-.3-.78-.58 0-.1.24-.4.3-.49a1 1 0 00.11-.4c.18-1.09-.44-1.17-.44-1.17s.2-.41.76-.46c.5 0 1 .1 1.11.76.06.24.74.67 1.41.36.09-.05.45-.14.75-.1.9.14 1.52.71 2.59.6.6-.16 1.02-.25 1.45-.65.49-.48.56-.92.78-1.37.1-.24.22-.23.29-.38-.19-.23.29-1.75.52-1.96-.04-.3.3-1.62.48-1.83-.15-.35.19-1.76.39-1.9-.1-.14.31-1.65.57-1.88.1-.39.35-1.75.6-1.99.46-1.97 1.78-5.52 1.5-7zM87.05 69.82l.35-1.07-1.63-1.67-2.61.75c-1.5.4-3.35.96-5.33 1.49-3.2.85-6.7 2.16-7.02 2.27-2.9.99-3.47 2.3-3.37 2.2.65-.53 1.1-.59 1.1-.59a43.22 43.22 0 016.84-1.96c4-.86 11.25-1.3 11.67-1.42m6.97-4.56c.94-.06 3.09.5 4.78.36 1.76-.15 2.5-1.44 2.63-1.38.14.05 0 1.06-.67 1.74-1.04 1.07-2.57.8-2.57.8s.75.42 1.43.36c.9-.07 1.22-.48 1.3-.33.1.17-.3.87-.87 1.2-.6.36-1.3.28-1.3.28s.48.62 1.1.82c.71.23 1.5-.12 1.56-.03s-.3.71-.87.96c-.95.33-1.58.08-1.58.08"/><path d="M87.27 69.59c-.38.17-7.5 1.66-11.34 3.07a44.17 44.17 0 00-6.47 2.93s1.43.01 4.89-1.32a56.76 56.76 0 0113.11-2.67l.99-1.27-1.18-.74z"/><path d="M83.46 98.23c-2.3-2.99-2.14-8.24.44-11.96a42.4 42.4 0 013.81-4.5c1.88-2.05 3.54-3.46 5.33-5.3.88-.88 1.47-1.58 1.69-2.23.33-1 .04-1.59.04-1.59-1.05-.86-1.94.52-4.57-.06 0 0-1.04-.32-1.56-.4s-1.39-.46-1.39-.46.61-.94.12-1.86c-.35-.64-.78-.74-1.34-1.39-.47-.53-.5-1.41-.5-1.41s.16-.6 1.32-1.35c1.1-.7 3-1.53 5.07-1.48a8.33 8.33 0 017.61 6.91c.39 2.53-.92 4.5-2.74 7.08-.7.97-1.65 2.51-3.54 5.23-1.6 2.3-3.02 4.49-3.21 5.78-.18 1.12-.06 2.38 1.19 2.53 4.01.38 2.8-4.62 17.1-3.35 5.83.8 12.42 5.56 16.55 10.71 2.74 2.08 3.95 4.08 5.74 6.64.42.68.85 1.38 1.17 2.12 1.07 2.5.81 5.35.55 8.06-.08.7-.37 1.43-.72 2.04-.04-1.04-.4-2.24-.66-3.4.03 1.6.02 3.2-.3 4.76a8.97 8.97 0 01-1.99 4.26s.13-1.71.1-3c-.02-.86-.17-2.6-.57-3.35l-.09.49a14.04 14.04 0 01-3.1 7.03c.6-1.77.89-3.65.84-5.52a9.18 9.18 0 01-4.7 6.38 10.59 10.59 0 002.25-10.47c-.04.68-1.34 2.82-2.34 3.02 0 0 .3-2.19-.44-5.46a7.5 7.5 0 00-2.92-4.6c-1.46.03-1.69.12-3 .05-.35-.02-1.36-.06-1.73-.13.59 1.21.27 1.64.7 2.84.22.63.57 1 .54 1.23-.02.2-.1.15-1.2.42s-1.03.78-1.2.76c-.32-.03-.78-.4-1.42-1.15-.39-.47-1.17-.92-1.65-1.45-1.3-1.46-2.9-1.87-3.17-2.17-.2-.19-.63-.33-1.03-.79-.39-.43-2.62-.89-3.2-1.7l-.38-.37-3.67-1.56c-2.66.21-6.82-1.06-7.43-1.55-1.22-.96-4.46-1.8-6.4-4.33z"/><path d="M88.8 64.95s.23.53.69.74c.44.19.92.17 1.04.18.12 0 .46-.1.8-.09.36.01.36.26.72.27s.58-.44.95-.43.6.15.84.07c.12-.05.29-.22.5-.35s.4-.21.52-.25a6.8 6.8 0 00-2.93-.85 8.83 8.83 0 00-3.27.58l.14.13z"/><path fill="#fff" d="M89.54 66.83c.45.01.84.23.83.68 0 .2-.09.37-.23.51a1.01 1.01 0 01-.74.3c-.45-.02-.6-.33-.72-.54-.12-.26-.13-.5-.1-.55.13-.05.48-.4.96-.4z"/><path d="M94.63 94.5c-.69.37-.9.36-1.51.46-.8.13-2.53.05-2.55 1.78-.03 2.14.92 2.93 2.48 4.5 1.4 1.41 2.32 1.6 5 3.36 1.51.95 3.94 1.54 9.84 2.13 4.1.4 8.25.79 12.03.17.97-.16 2.22-.31 3.07-.8.93-.55.92-1.2.35-1.52-.29-.9-1.37-1.07-2.16-1.03.3 0 1.98-.19 1.6-1.04.39-.75-.95-1.79-1.94-1.57 0 0 .33-.27.31-.7.03-.76-.72-1.47-1.9-1.6-.6-.62-2.47-1-4.1-1.2.42-.53 0-1.96-1.06-1.91 0 0-.76-.78-2.28-1.04-.51-.09-1.46-.2-1.46-.2.03-.64-.72-1.01-1.67-1.4-.17-.08-.5-.68-2.06-.74a4.44 4.44 0 00-1.82.21 5.48 5.48 0 00-2.57.09"/><path fill="none" d="M101.84 103.36c.19-.1.7-.4.81-.58.12-.2.13-.44.12-.67-.02-.42-.1-.84-.28-1.24.36-.16.95-.48 1.14-.86.06-.14.08-.9-.2-1.24.42-.32.9-.93.8-1.54s-.64-1.14-1.25-1.21c.2-.4.47-.82.43-1.26s-.3-.88-.7-1.05c.17-.51-.25-1.11-.7-1.41m8.36 2c-.83-.08-1.8.2-1.95.16-.97-.17-4.1-.26-4.97.2"/><path fill="none" d="M120.87 100.94c-1.08-.38-3.9-.95-5.85-.53 0 0-1.04-.64-2.89-.77s-3.25.06-3.25.06c-.66-.6-3.72-.73-5.32-.6m17.67 4.46c-1.08-.35-4.6-.43-6.53.04 0 0-1.05-.62-2.9-.7s-3.26.15-3.26.15c-.67-.6-4.15-.85-5.75-.68m1.34-5.49c1.66-.42 4 .08 4 .08 1.54-.18 3.57.04 4.24.32 1.5-.14 1.83.01 2.8.17m2.55 10.68c-.61-.56-1.03-.65-1.51-.95"/><g fill="#000" stroke="none"><path d="M96.03 136.82c-.89.32-1.5 1.11-.78 1.95v.02c-.86-.9-.23-1.85.74-2.18zm-3.8-3.27c-.95-.07-1.62.48-1.31 1.5h-.02c-.4-1.1.37-1.77 1.37-1.7zm-.28-4.54c-.45-.54-1.62-.66-1.96.24l-.02-.01c.4-.96 1.54-1.01 2.13-.37zm12.27-9.86a2.1 2.1 0 00-.89-.01c-.13-.16-.25-.4.13-.27.26.07.54.19.76.28zm-.8 1.85c-.24-.23-.85.2-.84-.15-.03-.4.67.04.85.14zm-.52 1.87c-.25-.01-.52-.13-.75-.01-.4-.5.45-.27.66-.04zm-.59 1.83c-.23-.17-.6-.07-.78-.12-.34-.3.2-.27.39-.16.13.08.3.14.39.28zm.37.9c.32-2.24 1.17-4.36 1.82-6.52.73-2.06 1.43-4.14 2.23-6.19.13-.33.58-1.35.26-.5-.7 1.97-1.28 3.99-2 5.96-.79 2.4-1.71 4.78-2.31 7.25zm-.98 1.05c-.24-.24-.77.08-.85-.22-.14-.41.74.06.85.22zm3.25-9.44a2.18 2.18 0 00-.89-.01c-.16-.17-.22-.4.16-.26.25.07.51.19.73.27zm2.7-9.16c-.15.5.19 1.3.26 1.54a1.1 1.1 0 01-.26-1.54zm-14.56 24.17c-.12-.23-.23-.47-.36-.68l.3-.1c.05.26.06.52.09.77h-.03zm.64-4.59c.04.43-.14.8-.38 1.13l-.03-.02c.15-.38.17-.7.09-1.05zm8.81 1.21a1.1 1.1 0 01-.43-.83h.03c.1.28.29.43.56.55zm-6.83 5.68c.3.24.55.53.73.87l-.03.02a2.59 2.59 0 00-.86-.6zm16.36-2.03c.79.27 1.4 1.28.71 2.07h-.03c.6-.86-.04-1.62-.72-1.85zm-8.88 5.85c-.82.3-1.31 1.23-.67 1.97v.02c-.76-.75-.18-1.92.62-2.19zm-3.9-3.15c-.77-.02-1.57.69-1.23 1.56l-.02.01c-.4-.96.41-1.78 1.26-1.78zm-.49-4.63c-.8-.38-1.5-.4-1.88.41h-.03c.38-.92 1.12-1.03 2-.56zm7.18 1.42c-.56.1-.7 1-1.04 1.13-.32-.45.58-.88.91-1.1l.08-.02zm5.22.14c-.26-.5.74-1.82.47-.95-.25.26-.33.69-.47.95zm-11.08 1.71c-.55-.34-.14-1.25-.01-.4-.1.08.15.35.01.4zm3.24-2.35c.76.2 1.24-.46 1.9-.55a11 11 0 01-1.08.7c-.28.1-1.03.4-.82-.15zm-2.77-2.25c.12.55-.56 1.72-.25.53.05-.32-.26-.53.25-.53zm8.85.89c-.3-.04-.62-1.14-.33-.64.17.3.72.25.33.64zm-6.62 5.92c.47.28 1.1 1.27.25.48-.32-.19-.53-.11-.25-.48zm7.8-15.78c-.34-.2-.87.2-.99-.13-.15-.31.66-.05.86.07l.13.06zm-.7 1.88c-.32-.23-.95.35-.86-.23.28-.05.62.08.86.23zm-.4 1.9c-.31-.09-.95.13-.87-.26.31-.09.59.15.87.26zm-.48 1.86c-.38-.05-1.43-.19-.5-.29.17.08.37.15.5.29zm.42.88c.43-3.62 1.61-7.09 2.57-10.59.32-1.11.64-2.23 1.07-3.3-.91 3.18-1.72 6.4-2.62 9.58-.4 1.42-.78 2.85-1.02 4.31zm-.92 1.12c-.32-.24-.86.2-.91-.3.26-.08.7.1.91.3zm2.68-9.64c-.24-.07-.75 0-.85 0-.51-.37.3-.27.55-.14.1.03.2.1.3.14zm2.05-9.11c-.22.5 1.35 1.76.4 1.23-.36-.28-.57-.79-.4-1.23zM94.32 70.99c.27-.41.7-.37 1.1-.38-.22.32-.72.36-1.1.38zm-.92.95c.32-.45.79-.39 1.28-.39-.34.29-.84.3-1.28.39zm-.95.85a1.79 1.79 0 011.67-.46c-.5.24-1.14.34-1.67.46zm2.62-2.89c.16-.36.45-.37.8-.39-.14.3-.5.34-.8.39zm-5.09 11.82c-.18.5-.58.88-.97 1.18.14-.54.52-.92.97-1.18zm-.46 1.4c-.11.82-.34 1.69-.51 2.45-.21-1.02.08-1.65.51-2.45zm-1.15-.11c-.14.58-.21 1.16-.73 1.45.25-.5.3-1.08.73-1.45zm.5.71c-.29.67-.39 1.32-.73 1.92.05-.75.1-1.5.73-1.92zm2.53-3.88c-.2.39-.58.74-.95.94.13-.5.52-.76.95-.94zm-3.41 4.92c-.15.58-.2 1.14-.73 1.45.23-.5.31-1.1.72-1.45zm-3.34-21.83c-.87.35-1.9.76-2.83.8.87-.4 1.84-.64 2.83-.8zm-.42.94c-.38-.13-.9.06-1.19.24.1-.58.99-.67 1.19-.24zm5.08-2c.14 0 .14.2.14.54 0 .35 0 .6-.14.6s-.3-.25-.3-.6c0-.36.16-.55.3-.54zm-.85-.3c.7-.62 1.62-.4 2.13.23a3.52 3.52 0 00-2.13-.23zm4.47 5.33c-.75.35-1.49.64-2.25.33.78-.06 1.54-.46 2.25-.32zm-4.04-2.42c.14-.51.68-.59 1.07-.73-.1.45-.69.58-1.07.73zm-1.28-2.26c.3.21.62.05.89-.13l.15.28c-.4.14-.76.14-1.04-.15zm2.78-.18c.16.25.4.37.64.48-.3 0-.61-.1-.87-.26zm4.57 3.4c.4-.1.6.06.8.29a1.1 1.1 0 01-.8-.29zm-.37.29c.36.05.51.33.58.63-.33-.1-.47-.36-.58-.64zm1.01-1.98c.35-.12.64.02.8.29a.99.99 0 01-.79-.29zm-.34-.64a.6.6 0 01.61.16c-.27.18-.47.08-.61-.16zm-.69 1.26c.36-.04.62 0 .85.21-.37.1-.65.08-.85-.21zm1.41-.02c.28.01.42.14.54.34-.31.09-.48-.07-.54-.34zm19.48 38.03c-2.63 0-5.28-.27-7.58-.5-5.7-.56-8.3-1.13-9.9-2.15a48.63 48.63 0 00-2.35-1.43 11.24 11.24 0 01-2.68-1.94l-.3-.3c-1.4-1.4-2.26-2.25-2.23-4.33.02-1.63 1.47-1.8 2.33-1.89l.36-.04.26-.05c.41-.06.65-.1 1.2-.4l.15.29c-.6.32-.87.36-1.31.43-.08 0-.16.02-.25.04l-.37.04c-.86.1-2.03.23-2.05 1.58-.03 1.94.75 2.7 2.15 4.1l.3.29c.86.88 1.56 1.28 2.6 1.89.62.35 1.38.79 2.37 1.44 1.3.83 3.4 1.46 9.76 2.1 3.61.37 8.1.82 12 .18.1-.03.22-.04.33-.06.92-.14 1.94-.3 2.66-.73.43-.24.68-.54.67-.8 0-.17-.11-.32-.31-.42a.17.17 0 01-.08-.1c-.29-.9-1.48-.94-2-.9h-.01a.16.16 0 01-.16-.16c0-.08.06-.16.15-.17h.02c.4-.02 1.24-.17 1.44-.5.04-.04.08-.14 0-.31a.16.16 0 010-.14c.14-.26-.02-.53-.12-.68-.33-.41-1.03-.79-1.62-.66-.08.02-.15-.02-.19-.09a.16.16 0 01.05-.19s.27-.22.24-.56c.03-.72-.74-1.34-1.76-1.44a.11.11 0 01-.1-.06c-.45-.47-1.9-.89-4-1.14-.05-.01-.1-.05-.13-.1s0-.12.02-.16c.19-.23.17-.7-.03-1.1-.12-.22-.38-.58-.89-.56a.16.16 0 01-.11-.05 4.35 4.35 0 00-2.2-1c-.5-.08-1.44-.19-1.45-.2a.16.16 0 01-.14-.17c.02-.49-.56-.82-1.56-1.23a.55.55 0 01-.17-.13c-.2-.18-.65-.56-1.83-.6-1.14-.04-1.74.2-1.75.2-.04.02-.08.03-.12 0a5.25 5.25 0 00-2.46.1l-.14-.3c.42-.2 1.92-.32 2.64-.12.18-.06.8-.25 1.83-.21 1.3.05 1.8.48 2.03.69l.09.07c.87.36 1.68.74 1.75 1.4.28.03.94.11 1.33.18 1.35.23 2.12.85 2.32 1.04.47 0 .88.26 1.12.73.2.4.25.87.13 1.22 1.48.19 3.26.54 3.92 1.17 1.18.14 2.02.87 2 1.75a1 1 0 01-.12.5c.62.03 1.24.4 1.56.82.25.32.31.65.2.94a.6.6 0 01-.06.55c-.12.2-.35.33-.6.43.48.13.97.4 1.17.97.27.16.42.41.42.67 0 .38-.3.77-.83 1.1-.77.44-1.88.61-2.77.75-.12.02-.24.03-.35.06-1.44.25-2.95.35-4.49.35z" transform="translate(0 5)"/><path d="M95.85 88.38c-.06-.03-.14-.02-.2.01-.42.3-.63.88-.92 1.25l-.2-.26c.4-.35.65-.79 1.1-1.01a.22.22 0 01.22.01z" transform="translate(0 5)"/><path d="M94.64 88.34c.55.16.4.98.1 1.22-.53-.26.48-.69.02-1.1l-.05-.07zm4.01 6.98c.28-.13.89-.41 1.02-.22-.2.32-.75.49-1.02.22zm-1.12.79c.37-.08.75-.17 1.12-.04-.26.31-.85.38-1.12.04zm-2.38-.16c.3.37.75.56 1.18.74-.5.3-1.27-.13-1.18-.74zm4.54-1.69c.17-.23.96-.23.45.14-.16.08-.37.03-.45-.14zm-10.31 1.08c.21.49.51.93.75 1.41-.54-.16-1.01-.86-.75-1.41zm-1.15-.9c.1.42.42 1.3.23 1.46-.38-.36-.51-1-.23-1.46zm-1.03-1c.1.74.22 1.48.29 2.23-.49-.6-.66-1.54-.29-2.23zm-1.05-.42c.22.62.24 1.28.23 1.93a2.07 2.07 0 01-.23-1.93zm5.17 3.06c.23.29.3.67.51.96-.5.12-.73-.6-.51-.96zm2.61-7.01c-.62.5-1.45.28-2.18.29.64-.42 1.46-.27 2.18-.29zm5.79 9.58a3.15 3.15 0 002.05-.42l.15.3c-.35.11-.75.21-1.11.24-.4.05-.73 0-1.09-.12zm3.5-3.32c6.85 1 11.24.94 16.73 1.87-5.6-1-12.07-.63-16.76-1.58l.03-.3zm.93-2.41c5.14-.16 8.81.9 13.21 1.37-4.55-.27-8.62-1.35-13.19-1.03z" transform="translate(0 5)"/><path d="M103.14 90.82c2.99-.5 6.29-.07 9.01.17-3.04-.1-5.96-.46-8.94.17zm-.34-2.26c1.6-.29 3.3-.35 4.96-.12a14.7 14.7 0 00-4.89.44l-.06-.32zm-1.01 9.76l.18.05c.12.03.3.09.53.14l.82.2 1.07.23c2.46.49 4.95.84 7.45 1.05.53.03 1.05.06 1.56.07 1 .05 1.95.06 2.76.07h2.5l.14-.01h.02-.01.01-.16c-.13.02-.31.02-.55.03l-1.95.03h-2.76l-1.56-.05a64.46 64.46 0 01-7.5-.92l-1.07-.22-.84-.18-.53-.13-.2-.04zm22.71 11.71c.15.24.28.5.37.76.3.76.46 1.56.71 2.34.1.31.23.61.35.92.04.03-.1.06-.14.1-.07.05.01-.1.01-.15.17-.7.32-1.4.43-2.12.08-.38.1-.78.17-1.16l.16-1.66c.04.42.01.84.03 1.26a17.24 17.24 0 01-.33 3.05c-.06.3-.12.62-.22.92-.08.15-.29.1-.36-.03-.12-.15-.16-.34-.23-.52-.23-.57-.34-1.19-.47-1.8a16.32 16.32 0 00-.47-1.91zm-2.82-3.83c.29.42.55.86.74 1.34.29.67.49 1.37.8 2.03.09.17.17.35.28.51-.07.02-.11.09-.17.13.1-.56.17-1.12.22-1.68.05-.36.06-.73.08-1.1.01-.48-.02-.96-.06-1.45l-.15-.91c.1.32.21.63.27.96.1.39.12.78.16 1.18.02.3 0 .61.01.92 0 .32-.04.63-.07.95-.03.37-.08.74-.14 1.1 0 .13-.06.3-.21.26-.23-.03-.29-.27-.39-.43-.16-.32-.28-.66-.4-1-.24-.7-.42-1.45-.7-2.15-.09-.22-.2-.44-.27-.66zm5.28 1.98c.17.28.32.58.42.89.22.59.35 1.2.49 1.81.1.4.2.78.34 1.16.04.07.05.17.1.24-.07.01-.12.07-.18.1.15-.54.3-1.09.42-1.64.06-.31.14-.62.18-.93.05-.37.12-.73.13-1.1.03-.39.02-.78.02-1.17l-.03-.28a8.02 8.02 0 01.16 2.57 13.65 13.65 0 01-.49 2.43c-.05.12-.04.3-.2.32-.2 0-.29-.2-.35-.35-.16-.4-.25-.83-.35-1.25-.11-.6-.2-1.19-.32-1.78-.09-.32-.16-.64-.3-.94l-.04-.08z" transform="translate(0 5)"/><path d="M126.97 103.17c.22.27.42.55.56.87.18.39.38.77.5 1.18.13.36.28.7.42 1.05.11.22.21.45.34.66.07.1.06.1-.03.17-.06.08-.08.07-.06-.03.06-.47.14-.94.17-1.41l.07-1.13v-.97c-.05-.51-.1-1.03-.22-1.53a6.04 6.04 0 01.48 2.56c.03.35 0 .7 0 1.05-.04.5-.07.99-.15 1.48-.01.1-.02.25-.16.27-.15.02-.28-.1-.34-.23-.16-.3-.3-.6-.41-.92-.3-.77-.48-1.57-.8-2.33-.05-.16-.14-.31-.2-.47l-.17-.27zm-4.55-.61c.14.13.26.27.37.42.28.31.47.68.68 1.03l.55 1.05c.2.38.43.74.69 1.08.08.03-.05.06-.07.13-.06.11-.03-.05-.04-.1v-1.55c-.04-.6-.07-1.2-.17-1.8-.06-.4-.13-.81-.26-1.2l-.14-.43c.17.3.3.63.41.96.16.4.24.84.33 1.28.06.42.1.85.14 1.27 0 .4.03.78.02 1.17-.01.17 0 .35-.02.53-.11.2-.39.05-.47-.1a9.94 9.94 0 01-1.06-2.03c-.14-.35-.3-.69-.49-1.02-.1-.17-.18-.35-.3-.5a.95.95 0 01-.17-.19z" transform="translate(0 5)"/><path d="M124.4 99.68c.55.24 1.03.6 1.47 1 .43.39.86.77 1.3 1.14.2.16.4.32.63.44l-.08.19a24.64 24.64 0 00-1.18-2.93 9.38 9.38 0 00-.95-1.5l-.17-.18a6.71 6.71 0 011.66 2.2c.17.36.35.7.49 1.08.16.44.4.88.45 1.34-.07.16-.3.14-.41.05a7.5 7.5 0 01-1.11-.93c-.44-.45-.88-.9-1.34-1.33-.24-.2-.48-.42-.77-.57zm4.69 6.05a3.06 3.06 0 01.82 1.59c.09.32.16.66.31.96.2.47.51.9.88 1.25-.07 0-.12.14-.16.14.03-.63.05-1.27.04-1.9a11.84 11.84 0 00-.42-2.91 7.39 7.39 0 00-.45-1.1l-.18-.32a5.87 5.87 0 01.96 1.9c.13.38.2.77.27 1.17.06.31.07.63.11.95.02.51.03 1.02.01 1.53-.02.25-.02.5-.05.76-.08.16-.3.09-.39-.02l-.3-.34c-.33-.44-.6-.92-.73-1.46-.14-.55-.18-1.13-.41-1.65-.08-.19-.2-.37-.31-.55zm-4.01-.61c.23.26.4.56.51.89.12.33.15.69.24 1.03.05.23.1.47.2.68.07.27.22.51.35.76.12.2.28.38.43.56-.04-.03-.12.09-.17.13a28.53 28.53 0 00.2-3.02c-.03-.2-.01-.39-.04-.58-.02-.29-.06-.57-.1-.85a7.9 7.9 0 00-.58-1.85c.21.34.41.7.55 1.08a7 7 0 01.43 1.94c.02.27.05.54.04.81 0 .31 0 .63-.03.94-.03.52-.1 1.04-.17 1.56-.03.2-.29.17-.38.04-.2-.24-.37-.5-.52-.76a4.63 4.63 0 01-.47-1.77 4.03 4.03 0 00-.2-.99c-.04-.22-.18-.4-.29-.6zm-22.39-16.29h-.19c-.12-.03-.25-.1-.37-.15l-.33-.14-.12-.02h-.04.04c.03-.02.08-.02.13-.03.1-.01.25.01.38.03.12.02.25.03.34.02h.05l.04-.02h.05l.02.31zm.28 2.34l-.2-.04a3.88 3.88 0 00-.42-.06c-.16 0-.33 0-.44.02-.12.01-.2.04-.2.04l.19-.08a2.75 2.75 0 01.9-.18l.2-.01-.03.3zm.33 2.7l-.03-.05c-.26-.43-.77-.5-1.21-.66.5.02.96.04 1.38.39l.05.05.05.04zm-.8 2.19h-.55c-.28-.03-.54-.1-.54-.1l.16-.01c.1-.01.23-.02.36-.05l.34-.1.1-.04a.12.12 0 00.05-.03l.08.33zm-.6-8.66l-.03-.02c-.23-.3-.56-.4-.92-.46.39-.09.76.03 1.11.22l.03.02.01.01-.2.24zm10.95 15.74c-.15-.36-.54-.53-.82-.73.45.15.81.25 1.1.59z" transform="translate(0 5)"/><path d="M95.15 64.9c.18.27.43.22.73.22-.1-.37-.42-.32-.73-.22z" color="#000" style="font-feature-settings:normal;font-variant-alternates:normal;font-variant-caps:normal;font-variant-east-asian:normal;font-variant-ligatures:normal;font-variant-numeric:normal;font-variant-position:normal;font-variation-settings:normal;inline-size:0;isolation:auto;mix-blend-mode:normal;shape-margin:0;shape-padding:0;text-decoration-color:#000;text-decoration-line:none;text-decoration-style:solid;text-indent:0;text-orientation:mixed;text-transform:none;white-space:normal" transform="translate(0 5)"/></g></g><pattern id="honeycombed-or-azure" width="0.143" height="0.24514" viewBox="0 0 70 120"><rect width="70" height="120" fill="#ffe066"/><path d="M 70,0 V 20 L 35,40 m 35,80 V 100 L 35,80 M 0,120 V 100 L 35,80 V 40 L 0,20 V 0" stroke="#377cd7" fill="none" stroke-width="3"/></pattern><radialGradient id="backlight" cx="100%" cy="100%" r="150%"><stop stop-color="#fff" stop-opacity=".3" offset="0"/><stop stop-color="#fff" stop-opacity=".15" offset=".25"/><stop stop-color="#000" stop-opacity="0" offset="1"/></radialGradient></defs><g clip-path="url(#polish_coa230782123)"><rect x="0" y="0" width="200" height="200" fill="url(#honeycombed-or-azure)"/><g clip-path="url(#divisionClip_coa230782123)"><rect x="0" y="0" width="200" height="200" fill="#d7374a"/></g><g fill="#522d5b" stroke="#000"><use x:href="#cavalier_coa230782123" transform="translate(7.5 40) scale(0.6)"/></g><g fill="#fafafa" stroke="#000"><use x:href="#heron_coa230782123" transform="translate(72.5 40) scale(0.6)"/></g></g><path d="m 90.3,6.3 c -12.7,0 -20.7,10.9 -40.5,14 0,11.8 -4.9,23.5 -11.4,31.1 0,0 12.7,6 12.7,19.3 C 51.1,90.8 30,90.8 30,90.8 c 0,0 -3.6,7.4 -3.6,22.4 0,34.3 23.1,60.2 40.7,68.2 17.6,8 27.7,11.4 32.9,18.6 5.2,-7.3 15.3,-10.7 32.8,-18.6 17.6,-8 40.7,-33.9 40.7,-68.2 0,-15 -3.6,-22.4 -3.6,-22.4 0,0 -21.1,0 -21.1,-20.1 0,-13.3 12.7,-19.3 12.7,-19.3 C 155.1,43.7 150.2,32.1 150.2,20.3 130.4,17.2 122.5,6.3 109.7,6.3 102.5,6.3 100,10 100,10 c 0,0 -2.5,-3.7 -9.7,-3.7 z" fill="url(#backlight)" stroke="#333"/></svg>