<svg xmlns="http://www.w3.org/2000/svg" xmlns:xlink="http://www.w3.org/1999/xlink" xmlns:dc="http://purl.org/dc/elements/1.1/" xmlns:rdf="http://www.w3.org/1999/02/22-rdf-syntax-ns#" width="1536" height="1784" viewBox="0 10 200 200">
  <defs>
    <clipPath id="shield_102289483">
      <path d="m25,25 h150 v100 a75,75,0,0,1,-150,0 z"/>
    </clipPath>
    <radialGradient id="backlight" cx="100%" cy="100%" r="150%">
      <stop stop-color="#fff" stop-opacity=".3" offset="0"/>
      <stop stop-color="#fff" stop-opacity=".15" offset=".25"/>
      <stop stop-color="#000" stop-opacity="0" offset="1"/>
    </radialGradient>
    <g id="crossFitchy" stroke-width=".5" author="Azgaar" license="https://creativecommons.org/publicdomain/zero/1.0">
      <path d="M 92,92 V 70 l 8,-10 8,10 v 22 h 22 l 10,8 -10,8 h -22 v 22 l -8,10 -8,-10 V 108 H 70 l -10,-8 10,-8 z"/>
    </g>
    <g id="castle" stroke-width=".4" source="http://wappenwiki.org/images/8/82/Alfonso_VIII_of_Castile.svg" license="https://creativecommons.org/licenses/by-nc-sa/3.0">
      <path d="M109.3 63.4H90.8l-.2 1.9 1.4 1.9h16l1.6-1.9zM92 67.2h16V102H92zM90.8 60h3.8v3.4h-3.8zm14.7 0h3.8v3.4h-3.8zM98 60h4.2v3.4H98zm-5.8 13h15.7m-15.7 5.6h15.7m-15.7 5.6h15.7m-15.7 5.7h15.7M92.2 67.2h15.7M92 95.6h16m-8 5.7v-5.7m0-5.7v-5.7m0-5.7v-5.7m3.9 22.9V90m-7.7 5.7V90m7.7-5.8v-5.7m-7.7 5.7v-5.7m7.7-5.7v-5.6m-7.7 5.6v-5.6m13.4-1.9h-19"/>
      <path fill="#0D6793" d="M98 72.7c0-1.2 1-2.4 2-2.4s2 1.2 2 2.4V87h-4V72.7z"/>
      <path d="M115.6 66.6h3.1v3.5h-3.1zm5.4 0h3.6v3.5H121zm5.9 0h3.1v3.5h-3z"/>
      <path d="M130 70h-14.4l-.2 1.9 1.6 2h11.6l1.6-2zm-13 3.9h11.5v26.7h-11.4zm0 5.3h11.6M117 84.6h11.6M117 90h11.6M117 95.5h11.6m-5.8-5.5v-5.4m0-5.3V74m3.8 21.6V90m-7.6 5.6V90m7.6-5.4v-5.4m-7.6 5.4v-5.4m11.2-7.3h-14.8"/>
      <path fill="#0d6793" d="M120.9 79c0-1.3.8-2.5 2-2.5 1 0 1.8 1.2 1.8 2.4v9.2h-3.8z"/>
      <path d="M69.9 66.7H73v3.5h-3.1zm5.4 0h3.6v3.5h-3.6zm5.9 0h3.1v3.5h-3z"/>
      <path d="M84.3 70.1H69.9l-.2 1.9 1.6 2h11.6l1.6-2zm-13 3.9h11.5v26.7H71.4zm0 5.3h11.6m-11.6 5.4h11.6m-11.6 5.4h11.6m-11.6 5.5h11.6m-5.8-5.5v-5.4m0-5.3v-5.3m3.8 21.6v-5.6m-7.6 5.6v-5.6m7.6-5.4v-5.4m-7.6 5.4v-5.4M84.5 72H69.7"/>
      <path fill="#0d6793" d="M75.2 79.1c0-1.3.8-2.5 2-2.5 1 0 1.8 1.2 1.8 2.4v9.2h-3.8z"/>
      <path d="M70.3 99h59.4v34.5H70.3z"/>
      <path d="M126.6 135.4H73.4L69 133l-1.2 3 4.4 3.8h55.6l4.4-3.7-1.2-3.1zm3.1-4.1l-3.5 2.1H73.8l-3.5-2L69 133l4.4 2.4h53.2l4.4-2.4zm-20.4-20.5h16.9m-52.4 16.8H92m15.8.2h18.5M73.8 122H92m15.8.2l18.4.1m-3.4 5.6v-5.7m0-5.7v-5.7m-7.7 17.1v-5.7m0-5.7v-5.7m3.9 22.6V128m0-5.8v-5.7m0-5.7v-5.6m-7.7 5.8v-6m0 28.4V128m0-5.9v-5.7m-41-.1H92m15.8.2h22m-.1 9.6l-3.5 1.8m3.5-6.5l-3.5.9m0-17.3l3.5 1.8m-3.5 4l3.5.8m-59.4 14.3l3.5 1.7m-3.5-6.4l3.5.8m.1-17l-3.6 1.8m3.6 4l-3.6.8m52.5-6.4v-5.8m-7.7 5.8v-5.8m-22.5 0v5.8M77.2 122v5.7M85 122v5.7m-4 .1v5.5m0-17v5.7m0-16.8v5.6m7.7-5.7v5.9m0 16.8v5.4m0-17v5.7M77.2 99.4v5.8m7.8-5.8v5.8m-11.2-4.9v33.1m52.4-33.1v33.1m-26.4-28.2v-5.8m7.7 5.8v-5.8m-33.6 11.4h16.9M73.9 105h52.3"/>
      <path fill="none" d="M126.2 133.4l.4 2m1.2 4.4l-1.2-4.4m-52.8-2l-.4 2m-1.2 4.4l1.2-4.4"/>
      <path d="M107.6 103.7l2.6 1.5v3.2l-2.6-1.5zM92.4 107l-2.6 1.4v-3.2l2.6-1.5zm2.6-3.4h3.6v3.5H95zm6.4 0h3.6v3.5h-3.6zm-10.4 7h17.8v29.2H91z"/>
      <path d="M92.6 109h14.8l2.8 1.5v-2l-2.6-1.6H92.4l-2.6 1.5v2.1z"/>
      <path d="M93.6 127.6h2.1v4.1h-2.1zm2.1 8.1l1.3 4.1h-3.4v0-4zm-.2-19.7a6 6 0 012.5-1.4l.7 2.7-1.7.7-1.9-1.5zm8.8 0a6 6 0 00-2.5-1.4l-.7 2.7 1.6.7 2-1.5zm-12.1 7.7h3.5v3.9h-3.5zm0 8h3.5v4h-3.5zm13.7-16.1l-3.2 2.4.6 1.7h4.3c-.2-1.5-.8-3-1.7-4.1zm-1.9 8.1h3.6v3.9h-3.5zm0 8h3.6v4h-3.5zm-6.4-18.5l1.1 4.1h2.4l1.1-4.1c-.7-.2-1.5-.4-2.3-.4-.8 0-1.6.2-2.3.4zm-3.6 2.4l3 2.4-.5 1.7h-4.3c.2-1.5.8-3 1.7-4.1zm12.2 8.1v-4h-2.9c.1 4.5-1.3 4 2.9 4zm-10.5 0h-2.1v-4h2.9zm8.4 3.9h2.1v4l-2.2.1zm0 8.1l-1.4 4.1h3.5v0-4zm-13-23.7l2-1h13.7l2 1 1.4-1.5-2.8-1.5H92.6l-2.8 1.5z"/>
      <path fill="#0D6793" d="M95.2 120.6c0-3 2-4.8 4.7-4.8s4.8 1.9 4.8 5.3v18.7h-9.5v-19.2z"/>
      <path d="M70.3 102.4l3.5-2.1h52.4l3.5 2 1.3-1.6-4-2.4H73l-4 2.4zm57.5-11.2l3.7 2.5v3.7l-3.7-2.5zm-55.6 0l-3.7 2.5v3.7l3.7-2.5zm46.2 0h5V95h-5zm-41.8 0h5V95h-5zm25.1 0h5V95h-5zm8.3 0h5V95h-5zm-25 0h5V95h-5zm8.4 0h4.9V95h-5z"/>
      <path d="M127 98.3H73l-4 2.4-.5-3.3 3.7-2.5h55.6l3.7 2.5-.5 3.3z"/>
      <path fill="none" d="M73 98.3l.8 2m52.4 0l.9-2"/>
      <path fill="#0d6793" d="M113.2 110.1c0-1.2.9-2.4 2-2.4 1 0 1.8 1.2 1.8 2.4v15.5h-3.8V110v0zm7.4-.1c0-1.2.9-2.3 2-2.3 1 0 2 1.2 2 2.4v15.5h-4zm-45.3.1c0-1.2 1-2.4 2-2.4s2 1.2 2 2.4v15.5h-4V110v0zm7.5 0c0-1.2.9-2.4 2-2.4 1 0 1.9 1.2 1.9 2.4v15.5h-3.9z"/>
    </g>
    <g id="sword" stroke-width=".28" source="http://wappenwiki.org" license="https://creativecommons.org/licenses/by-nc-sa/3.0">
      <path d="M96.6 118.8L98 69.2c0-1.8.7-9.2 2-9.2 1.2 0 2 7.4 2 9.2l1.4 49.6z"/>
      <path d="M98.5 133.8L97 120h5.8l-1.3 13.8z"/>
      <path d="M100 120.9c4.2 0 8.2-.2 12.4-.6l-.8-3.2c-2 .4-3.5 1.3-5.4 1.5-2 .3-4.7-.3-6.2-.6-1.5.3-4.1.9-6.2.6-2-.2-3.5-1-5.4-1.5l-.8 3.2c4.2.4 8.2.6 12.4.6zm0 19.1c2 0 3.6-1.5 3.6-3.5 0-1.5-1-2.7-2.2-3.3-.4.2-1 .3-1.6.3-.5 0-1 0-1.3-.2-1.2.6-2 1.8-2 3.2 0 2 1.5 3.5 3.5 3.5z"/>
      <g fill="none">
        <path d="M99 118.25s.4-39.35.9-39.35.9 39.35.9 39.35"/>
        <path d="M102.7 121.4c-.3.6-1.5.85-2.7.8-1.2-.05-2.4-.2-2.7-.8m5.1 2.5c-.2.5-1.3.7-2.4.7-1 0-2.2-.3-2.4-.7m4.6 2.3c-.2.4-1.2.6-2.2.6s-2-.2-2.2-.6m4.2 2.3c-.2.4-1 .6-2 .6-.9 0-1.8-.2-2-.6m3.7 2.3c-.2.4-1 .5-1.7.5s-1.5-.1-1.7-.5"/>
        <path d="M97.6 137.1a2.4 2.4 0 014.8 0c0 1.3-1 2.3-2.4 2.3-1.3 0-2.4-1-2.4-2.3z"/>
        <path d="M100 118v2.9"/>
      </g>
    </g>
    <g id="mallet" stroke-width="3" source="http://wappenwiki.org" license="https://creativecommons.org/licenses/by-nc-sa/3.0">
      <path d="M639.1-120.9v-123h-40.4v123c0 31.4-11.5 88.2-11.5 111.4 0 23.2 14.2 35.5 31.6 35.5 17.5 0 31.6-12.3 31.6-35.5.2-23.3-11.3-80-11.3-111.4zm-43-255c0-9.5 11.2-12.4 22.9-12.4s22.9 2.8 22.9 12.4l-3.8 51.3H600l-3.9-51.3z" transform="matrix(.1957 0 0 .193 -21 135)"/>
      <path d="M618.9-357.3c-46.4 0-138.5 9.8-135.5 43.1 1.9 21.3 8.7 90.5 8.7 90.5 3.9 23.5 1.1 36.9 26 36.9 0 0 69.2-3 100.9-3 31.6 0 100.9 3 100.9 3 24.9 0 22-13.4 26-36.9 0 0 6.8-69.1 8.7-90.5 2.9-33.3-89.3-43.1-135.7-43.1z" transform="matrix(.1957 0 0 .193 -21 135)"/>
      <path fill="#000" stroke="none" d="M77.1 71.8c14-4.1 33.1-4 46.7 0-13.5-3.2-32.9-3-46.7 0z"/>
    </g>
    <g id="rose" stroke-width=".7" source="http://wappenwiki.org" license="https://creativecommons.org/licenses/by-nc-sa/3.0">
      <path d="M106.1 117.84c-1.17 7.44-2.33 14.72-2.6 15.3-.3.66-2.76 3.33-2.17 6.1-2.65 0-4.91-5.27-5.15-6.08-.12-.4-1.39-8.3-2.62-16.1m21.78-17.67c7.4 3.63 15.32 7.6 15.82 8.05.55.47 2.36 3.65 5.17 3.89-.78 2.53-6.5 3.12-7.34 3.1-.46-.03-9.26-1.29-17.5-2.5m-9.06-25.49c5.85-5.96 12.31-12.46 12.9-12.81.65-.39 4.2-1.1 5.33-3.7 2.15 1.55.93 7.16.62 7.95-.17.42-4.25 8.6-8.02 16.15m-28.84 5.39c-7.38 3.63-15.25 7.56-15.78 8.02-.55.47-2.36 3.65-5.17 3.89.78 2.53 6.51 3.12 7.35 3.1.42-.03 8.4-1.17 16.22-2.32m9.28-26.72c-5.56-5.65-11.3-11.43-11.88-11.76-.64-.39-4.2-1.1-5.32-3.7-2.15 1.55-.93 7.16-.62 7.95.14.38 3.58 7.25 7.04 14.17"/>
      <path d="M101.62 120.59c.98 1.16.33 4.03.2 5.77a7.37 7.37 0 001.88 6.8c2.5 2.98 5.77 3.07 10.97.62 6.01-2.94 8.52.4 9.62-.5 1.1-.9-1.77-3.96 2.2-9.38 3.36-4.68 3.83-7.92 1.33-10.9a7.4 7.4 0 00-6.38-3.06c-1.33 0-4.34.27-5.32-.9-1.42-2.15.03-4.04 2.41-4.04 1.49 0 3.75 1.3 5.16 2a7.46 7.46 0 007.01.75c3.7-1.24 5-4.25 4.58-10-.52-6.68 3.51-7.78 3.06-9.14-.45-1.33-4.34.2-7.92-5.46-3.13-4.85-5.97-6.47-9.66-5.25a7.41 7.41 0 00-5.18 4.8c-.8 1.57-1.72 4.39-3.15 4.86-2.18.6-3.27-.88-3.32-2.72 0-1.53 2.32-3.43 3.55-4.68a7.42 7.42 0 002.92-6.44c0-3.91-2.46-6.08-8.02-7.51-6.51-1.65-6.27-5.82-7.68-5.82-1.43 0-1.2 4.17-7.71 5.8-5.58 1.42-8.02 3.6-8.02 7.5a7.45 7.45 0 002.91 6.45c1.24 1.24 3.56 3.15 3.56 4.68-.05 1.84-1.15 3.31-3.32 2.72-1.43-.48-2.38-3.3-3.15-4.87a7.41 7.41 0 00-5.17-4.8c-3.7-1.24-6.54.4-9.67 5.25-3.58 5.68-7.47 4.13-7.92 5.47-.45 1.33 3.58 2.46 3.06 9.14-.41 5.75.88 8.75 4.58 10a7.33 7.33 0 007-.75c1.42-.71 3.69-2 5.16-2 2.36 0 3.83 1.88 2.41 4.03-.97 1.17-3.96.9-5.32.9-2.46 0-4.48.72-6.37 3.06-2.5 2.98-2.03 6.23 1.34 10.9 3.96 5.42 1.1 8.48 2.2 9.38 1.1.91 3.6-2.43 9.6.5 5.21 2.48 8.48 2.4 10.98-.61a7.38 7.38 0 001.89-6.8c-.14-1.75-.79-4.61.2-5.78.56-.64 1.04-.95 1.78-.95.74.04 1.17.35 1.72.98z"/>
      <path fill="#000" stroke="none" d="M99.64 119.67c.2 5.63.55 9.37.24 14.94-.22-5.63-.51-9.3-.24-14.94zm16-13.14a206.46 206.46 0 0115.85 4.77 182.75 182.75 0 01-15.85-4.77zm-5.55-19.3c3.13-4.74 5.61-8.29 9.11-12.67a180.5 180.5 0 01-9.11 12.67zM80.53 74.56c3.42 4.36 6.22 8.17 9.15 12.75-3.42-4.37-6.12-8.1-9.15-12.75zm-12.3 36.8c5.97-2.06 9.68-3.19 15.74-4.76a196.68 196.68 0 01-15.74 4.77zm30.05-14.35c.68-5.45.83-10.94 1.35-16.4.43-1.47.88.66.75 1.28.36 4.92.54 9.86 1.17 14.76-.45-1.7-.55-3.68-.77-5.5-.43-3.6-.46-7.23-.95-10.82.38.19-.11 1.1-.03 1.6-.37 5.04-.65 10.1-1.52 15.08zm5.58 1.41c5.18-1.1 10.23-2.71 15.39-3.92.64-.44 1.32.4.5.62-3.5 1.7-7.24 2.9-10.78 4.5-1.42.55-2.91 1.36-4.25 1.83 4.83-2.61 10.05-4.38 14.99-6.73.4.16-1.04.24-1.44.38-4.8 1.16-9.54 2.51-14.41 3.32zm.58 6.4c2.69 4.38 5.78 8.5 8.45 12.88.53.59-.13 1.1-.54.45-2.84-2.9-5.34-6.13-8.11-9.1-.62-.76-2.3-2.34-2.21-2.51 3.79 3.54 7 7.61 10.56 11.37.56.59-.1.14-.18-.35-2.62-4.26-5.56-8.38-7.97-12.74zm-8.81-6.45c-5.14-.88-10.15-2.35-15.22-3.51-1.5-.46 1.83.84 2.24 1.05 4.13 1.69 8.27 3.37 12.22 5.44-.91-.29-1.94-.88-2.9-1.25-3.97-1.82-8.14-3.18-12.06-5.07-.86-.91 1.03-.54 1.55-.38 4.62 1.15 9.19 2.48 13.83 3.53l.34.19zm-.05 6.18c-2.45 4.57-5.53 8.75-8.23 13.17-.86 1.41 1.07-1.02 1.44-1.29 3-3.41 5.95-6.89 9.25-10.02-1.07 1.33-2.43 2.64-3.58 4.02-2.44 2.63-4.56 5.58-7.2 8-.87.3-.36-.92-.08-1.22 2.59-4.2 5.57-8.15 8.14-12.37l.26-.3zm17.32-33.84c-1.9-2.57-5.58-1.58-8.02-.42-2.35 1.12-5.15 2.37-7.7 1.02-2.77-.98-5.96-3.17-8.94-1.71-1.44 1.2-1.91 1.2-.15-.24 3.7-2.05 7.5 1.14 11.12 1.84 4 .12 7.58-3.57 11.69-2.15.86.28 1.4 1.09 2 1.66zm19.78 33.48c1.86-2.63-.2-5.77-2.07-7.75-1.83-1.85-3.87-4.14-3.39-6.97.06-2.94 1.1-6.65-1.22-9.02-2.1-1.12-1.24-1.18.22-.19 2.8 2.44 1.68 6.66 1.7 9.9.02 4.24 4.9 6.24 5.72 10.24.35 1.3.05 2.86-.96 3.79zm-25 29.52c3.15.72 5.28-2.3 6.44-4.78 1.16-3.49 4-6 7.69-6.44 2.5-.7 5.78-2.05 5.84-5.13.52-.28-.21 3.38-1.48 3.7-2.66 2.42-6.91 2-9.36 4.65-2.13 2.8-3.06 7.16-6.85 8.24-.72.06-1.69.2-2.28-.24zm-40.66-29.5c-2.16-2.48-.37-5.83 1.46-7.9 1.8-1.95 3.9-4.21 3.34-7.12-.1-2.99-.8-6.68 1.74-8.88 1.93-1.17 1.83-.79.22.19-2.52 2.67-1.1 6.67-1.2 9.93 0 4.15-4.57 6.05-5.87 9.7-.7 1.34-.32 2.81.31 4.08zm25.03 29.54c-3.12 1.04-5.58-1.85-6.85-4.35-1.2-2.22-2.3-4.94-5.05-5.55-2.84-1.02-6.9-1.73-7.97-5.01-.45-2.76.02-1.39.54.42 2.4 3.65 7.77 2.68 10.64 5.66 2.35 2.75 2.89 7.22 6.59 8.64.53.33 1.8-.02 2.1.19z"/>
      <path d="M99.8 109.03c1.2 0 2.2.86 2.44 1.99-.27.43-1.48.69-2.44.69-.95 0-2.02-.34-2.43-.7a2.44 2.44 0 012.43-1.98zm-4.55-2.36a2.47 2.47 0 011.84 4.15c-.39.17-1.53 0-2.48-.52-.96-.53-1.68-1.4-1.68-1.98a2.46 2.46 0 012.32-1.65zm-2.55 1.6a2.47 2.47 0 00-1.91-4.08l-.39.02c-.23.72.07 1.72.39 2.37.33.64 1.28 1.62 1.9 1.7zm7.1-14.31a2.5 2.5 0 01-2.43-1.98c.26-.43 1.48-.7 2.43-.7.96 0 2.03.34 2.44.7a2.5 2.5 0 01-2.44 1.98zm4.54 2.36a2.47 2.47 0 01-1.84-4.13c.36-.17 1.53 0 2.48.52.96.53 1.67 1.41 1.7 1.99a2.56 2.56 0 01-2.34 1.62z"/>
      <path d="M106.9 94.7a2.47 2.47 0 001.9 4.08l.38-.03c.24-.71-.07-1.72-.38-2.36-.3-.64-1.26-1.6-1.9-1.7zm-9.58 6.8a2.48 2.48 0 114.97 0 2.48 2.48 0 01-4.97 0zm9.07 3.65a2.5 2.5 0 012.91-1.17c.24.42-.1 1.62-.55 2.46s-1.26 1.62-1.78 1.78a2.47 2.47 0 01-.58-3.07zm-4.25 2.81a2.46 2.46 0 013.37-.98 2.46 2.46 0 011.17 1.39c-.03.4-.74 1.33-1.65 1.9-.9.58-2.05.8-2.55.53a2.45 2.45 0 01-.34-2.84zM93.2 97.85a2.5 2.5 0 01-2.91 1.17c-.24-.43.1-1.63.55-2.46s1.26-1.62 1.78-1.8a2.47 2.47 0 01.58 3.09zM97.47 95a2.46 2.46 0 01-3.37.97 2.46 2.46 0 01-1.17-1.38c.03-.4.74-1.34 1.65-1.9.9-.58 2.05-.8 2.55-.53a2.49 2.49 0 01.34 2.84z"/>
      <path d="M106.6 102.64a2.47 2.47 0 01.8-3.41 2.48 2.48 0 011.76-.34c.33.22.78 1.32.86 2.39.05 1.07-.34 2.17-.81 2.48a2.5 2.5 0 01-2.6-1.12zM93 100.33a2.47 2.47 0 01-.78 3.41 2.5 2.5 0 01-1.77.33c-.33-.21-.78-1.3-.85-2.38-.05-1.07.33-2.17.8-2.48.98-.2 2.03.21 2.6 1.12zm6.8 3.7a2.48 2.48 0 11-2.48 2.48 2.46 2.46 0 012.48-2.48zm0-10.03c1.36 0 2.49 1.1 2.49 2.48a2.46 2.46 0 01-2.49 2.49 2.48 2.48 0 110-4.97z"/>
      <path d="M95.3 101.62a2.48 2.48 0 110 4.95 2.48 2.48 0 010-4.96zm.12-5.04c1.35 0 2.48 1.1 2.48 2.48a2.46 2.46 0 01-2.48 2.48 2.48 2.48 0 110-4.96zm8.9 4.7a2.48 2.48 0 110-4.96 2.48 2.48 0 010 4.96zm-.08 5.06a2.48 2.48 0 01-2.48-2.48 2.46 2.46 0 012.48-2.48 2.46 2.46 0 012.48 2.48 2.5 2.5 0 01-2.48 2.48z"/>
    </g>
    <g id="hand" stroke-width=".6" source="http://wappenwiki.org" license="https://creativecommons.org/licenses/by-nc-sa/3.0">
      <path d="M84.46 131.34c-1.56-1.7-5.82-8.28-5.82-19.2 0-5.36.24-7.48.44-12.96l.06-1.38c.14-2.86.24-4.94.16-6.54-.54-.8.2-6.32.46-7.94-.38-1.18.54-5.42.54-5.42s.68-4.08 2.92-4.1c2.2-.04 2.82 2.54 2.84 3.58l.04 5.6c.02 2.58.04 5.26.12 6.84.2 3.94 1.08 5.86 1.08 5.86l.34-9.7c-.4-1.54.36-8.26.62-10.58-.32-.8.36-5.78.34-6.5 0-.72.4-4.58 3.24-4.62 2.04-.02 2.92 2.4 2.84 3.44.1 3.04.32 11.28.34 14.68.02 3.44.48 11.32 1.26 11.54 0-6.12.54-10.52.54-10.52s-.1-.36-.1-.98c.02-2.46.2-8.84.42-10.74-.26-2.22.24-5.96.2-6.28-.04-.32.36-4.38 2.92-4.38 3.04 0 3.34 3.6 3.34 3.6l.42 11.68.72 9.7s-.54 8.1.5 8.1c.46 0 1.06-7.58 1.26-8.8-.38-1.3.4-9.04.36-9.5-.4-1.18-.2-6.16-.2-6.92 0-.76.3-3.94 3.04-3.94 2.68 0 3.16 3.96 3.16 3.96s1.3 6.84 1.24 12.6c-.04 4.86-.3 8.88-.44 14.02-.1 3.9-.32 9-.44 11.78.34-.2.76-1.06.88-2.2-.26-.66.18-5.94.42-6.82-.66-3.28 2.6-9.14 2.6-9.14s.92-1.72 3.16-1.54c2.24.18 2.24 2.32 2.24 2.32s-.72 3.54-.72 4.9c0 .68.82 7.98.82 7.98l-.96 6.94c-.38 2.62-.64 5.86-1.52 7.22-3.06 5.16-5.98 10.34-9.08 12.18-1.06 2.5.2 6.52.4 8.16 0 1.76-1.32 2.22-2.62 2.22-2.34.02-6.08-.36-10-.36-3.66-.02-7.48.36-10.4.46-1.98 0-4.34-.5-4.34-3 .12-.82.36-4 .36-5.3z"/>
      <g fill="#000" stroke="none">
        <path d="M265.5 273.4c-5.7 2.9-12.5 3.2-18.7 2 0-5.3 5.1-.6 8.2-1.2 3.5.6 7.1-.3 10.5-.8zm-1.9 48.7c-6 2.3-12.9 2.5-19 .6 1-5.9 8 1.3 12.1-.2 2.3.3 4.6-.2 6.9-.4zm-38.1-7.9c-5.3 4.4-13.6 4.4-19.4.8 6.5-.5 12.9-.2 19.4-.8zm-.9-56c-5.3 4.4-13.6 4.4-19.4.8 6.5-.5 12.9-.2 19.4-.8zm-45.2 17.6c-4.7 4.5-12.9 4.7-18.2 1.1 6-.6 12.2-.8 18.2-1.1zm-2.7 49.9c-4.7 4.5-12.9 4.7-18.2 1.1 6-.6 12.2-.8 18.2-1.1zm-42.4-15.5c-4.4 4.2-12.1 4.7-17 1 5.7-.3 11.4-.8 17-1zm2 40.6c-4.5 4.7-12.4 5.1-17.8 1.7 5.9-.7 11.9-.7 17.8-1.7zm95.3 49.9c-14.2 2.9-27.6 8.6-41.2 13.4-15.1 6.3-31.3 11.6-43.9 22.5-.2-.9 8.1-8.8 12.2-10.8 19.9-11.8 42.1-19.8 64.7-24.4 2.7-.4 5.4-1 8.2-.7zm-5.8 57.5c-15 14.9-28 35.3-25.2 57.2.8 7.9 3.9 15.3 7.7 22.2-11.4-13.3-14-32.8-6.9-48.8 5-12.3 14.1-22.4 24.4-30.6z" transform="matrix(.2 0 0 .2 57.5 21.1)"/>
        <path d="M202.4 590.8l-3-.2 2.7-20.1z" transform="matrix(.2 0 0 .2 57.5 21.1)"/>
        <path d="M248.8 548.2c6.7-1.4 13-4.3 18.6-8.2 2.2 2.1 1.2 3.3-1.4 3.9-5.4 2.4-11.3 3.7-17.2 4.3zm-81.4 6.5c-9 2-18.6 3.2-27.7.9-2-.6-4-1.4-5.7-2.7 1.2-2.2 2.4-2.6 4.2-.7 8.9 4.4 19.6 3.6 29.2 2.5zm75.1-103.1c6.3-6.9 15.9-10.7 25.3-10.3 1.9.2-3.2 1.3-4.3 1.9-7 2.6-14.2 5-21 8.3z" transform="matrix(.2 0 0 .2 57.5 21.1)"/>
        <path d="M224.1 367.1c7.3-4 16.4-2.7 24-.2 1.7.5 8 4.2 5 3.4-8.5-1.9-17.2-3.1-25.9-3.4-1 .1-2.1.1-3.1.2zm79.4 24.8c-6.6 1-14 .1-19-4.6 1.6-2.2 2.9-1.9 4.4.2 4.1 3.2 9.5 4.4 14.6 4.4zm-2 35.2c-6.7 1.8-15 .5-19.2-5.6 2.7-2.7 3.6.1 5.5 2 3.8 3.2 8.9 4 13.7 3.6zm-122.9-58.2c6.6-5.1 15.8-5.3 23.7-3.7 2.1.4 5.9 1.9 6.5 2.6-9.5-.8-19.1-1-28.5.7-.6.1-1.1.3-1.7.4zm-45 17.2c4.8-7.1 13.1-11.3 21.1-13.7 3-.8 6.3-1.2 9.4-.3-8.1 1.4-15.2 5.9-22.5 9.5-2.6 1.5-5.4 2.7-7.7 4.6z" transform="matrix(.2 0 0 .2 57.5 21.1)"/>
      </g>
      <path fill="none" d="M113.66 106.84s-.72 1.34-.96 2.78"/>
      <path stroke-width=".4" d="M121.92 94.9c0-1.36.84-5.44.84-5.44s-1.28-.22-1.28 1.26.44 4.86.44 4.18z"/>
    </g>
  </defs>
  <g clip-path="url(#shield_102289483)">
    <rect class="field" x="0" y="0" width="200" height="200" fill="#377cd7"/>
    <g class="ordinary" i="0" transform="rotate(90 100 100)" fill="#333333" stroke="none" stroke-width="1">
      <path d="m 200,105 h -80 c 0,0 -0.1,-20.1 -20,-20 -19.9,0.1 -20,20 -20,20 H 0 v 10 h 200 z" transform="translate(0 -14.5)"/>
      <path d="m 200,105 h -80 c 0,0 -0.1,-20.1 -20,-20 -19.9,0.1 -20,20 -20,20 H 0 v 10 h 200 z" transform="rotate(180 100 100) translate(0 -14.5)"/>
      <path d="m 200,105 h -80 c 0,0 -0.1,-20.1 -20,-20 -19.9,0.1 -20,20 -20,20 H 0 v 10 h 200 z" transform="rotate(-90 100 100) translate(0 -14.5)"/>
      <path d="m 200,105 h -80 c 0,0 -0.1,-20.1 -20,-20 -19.9,0.1 -20,20 -20,20 H 0 v 10 h 200 z" transform="rotate(-270 100 100) translate(0 -14.5)"/>
    </g>
    <g class="charge" i="0" charge="crossFitchy" fill="#a19d94" stroke="none">
      <use xlink:href="#crossFitchy" transform="translate(-20 -20) scale(1.2)"/>
    </g>
    <g class="charge" i="1" charge="castle" fill="#a19d94" transform="translate(-45 -45)" stroke="#000">
      <use xlink:href="#castle" transform="translate(165 35) scale(-0.65 0.65)"/>
    </g>
    <g class="charge" i="2" charge="sword" fill="#a19d94" transform="translate(-2 10) rotate(45 100 100)" stroke="#000">
      <use xlink:href="#sword" transform="translate(25 75) scale(0.75)"/>
    </g>
    <g class="charge" i="3" charge="mallet" fill="#522d5b" transform="translate(28 46) rotate(-45 100 100)" stroke="#000">
      <use xlink:href="#mallet" transform="translate(-18.75 -25) scale(0.75)"/>
    </g>
    <g class="charge" i="4" charge="rose" fill="#ffe066" transform="translate(0 5)" stroke="#000">
      <use xlink:href="#rose" transform="translate(202.5 72.5) scale(-0.65 0.65)"/>
    </g>
    <g class="charge" i="5" charge="hand" fill="#d7374a" transform="translate(0 5)" stroke="#000">
      <use xlink:href="#hand" transform="translate(78.75 -15) scale(0.65)"/>
    </g>
  </g>
  <path class="grad" d="m25,25 h150 v100 a75,75,0,0,1,-150,0 z" fill="url(#backlight)" stroke="#333333" stroke-width="1" style="pointer-events: none;"/>
</svg>