<svg id="coa907325801" width="500" height="500" viewBox="0 0 200 200" xmlns="http://www.w3.org/2000/svg"><defs><clipPath id="boeotian_coa907325801"><path d="M150 115c-5 0-10-5-10-15s5-15 10-15c10 0 7 10 15 10 10 0 0-30 0-30-10-25-30-55-65-55S45 40 35 65c0 0-10 30 0 30 8 0 5-10 15-10 5 0 10 5 10 15s-5 15-10 15c-10 0-7-10-15-10-10 0 0 30 0 30 10 25 30 55 65 55s55-30 65-55c0 0 10-30 0-30-8 0-5 10-15 10z"/></clipPath><clipPath id="divisionClip_coa907325801"><rect x="100" y="0" width="100" height="200"/></clipPath><pattern id="potent-azure-or" width="0.125" height="0.125" viewBox="0 0 200 200" stroke="#000"><rect width="200" height="100" fill="#377cd7" stroke="none"/><rect y="100" width="200" height="100" fill="#ffe066" stroke="none"/><path d="m25 50h50v-50h50v50h50v50h-150z" fill="#ffe066"/><path d="m25 100v50h50v50h50v-50h50v-50z" fill="#377cd7"/><path d="m0 0h200 M0 100h200" fill="none"/></pattern><radialGradient id="backlight" cx="100%" cy="100%" r="150%"><stop stop-color="#fff" stop-opacity=".3" offset="0"/><stop stop-color="#fff" stop-opacity=".15" offset=".25"/><stop stop-color="#000" stop-opacity="0" offset="1"/></radialGradient></defs><g clip-path="url(#boeotian_coa907325801)"><rect x="0" y="0" width="200" height="200" fill="url(#potent-azure-or)"/><g clip-path="url(#divisionClip_coa907325801)"><rect x="0" y="0" width="200" height="200" fill="#fafafa"/></g><g fill="#d7374a" stroke="none"><polygon points="85,0 85,85 0,85 0,115 85,115 85,200 115,200 115,115 200,115 200,85 115,85 115,0"/></g></g><path d="M150 115c-5 0-10-5-10-15s5-15 10-15c10 0 7 10 15 10 10 0 0-30 0-30-10-25-30-55-65-55S45 40 35 65c0 0-10 30 0 30 8 0 5-10 15-10 5 0 10 5 10 15s-5 15-10 15c-10 0-7-10-15-10-10 0 0 30 0 30 10 25 30 55 65 55s55-30 65-55c0 0 10-30 0-30-8 0-5 10-15 10z" fill="url(#backlight)" stroke="#333"/></svg>