<svg id="coa473526017" width="500" height="500" viewBox="0 10 200 200" xmlns="http://www.w3.org/2000/svg"><defs><clipPath id="spanish_coa473526017"><path d="m25,25 h150 v100 a75,75,0,0,1,-150,0 z"/></clipPath><g id="heart_coa473526017"><path stroke-width=".5" d="M100 84c-.7-1.1-1.4-2.2-2.4-3.2-6.3-6.8-16.6-6.8-23 0-6.3 6.8-5.4 17.8 1 24.6 6.3 6.8 17.7 12.4 24.2 27 7.3-14.4 18.2-20.2 24.5-27 6.3-6.8 7.3-17.8 1-24.6-6.3-6.8-16.6-6.8-23 0-.9 1-1.6 2.1-2.3 3.2z"/></g><pattern id="semy_of_heart-or-vert" width="0.125" height="0.125" viewBox="0 0 200 200" stroke="#000"><rect width="200" height="200" fill="#ffe066" stroke="none"/><g fill="#26c061"><use transform="translate(-100 -50)" href="#heart_coa473526017"/><use transform="translate(100 -50)" href="#heart_coa473526017"/><use transform="translate(0 50)" href="#heart_coa473526017"/></g></pattern><radialGradient id="backlight" cx="100%" cy="100%" r="150%"><stop stop-color="#fff" stop-opacity=".3" offset="0"/><stop stop-color="#fff" stop-opacity=".15" offset=".25"/><stop stop-color="#000" stop-opacity="0" offset="1"/></radialGradient></defs><g clip-path="url(#spanish_coa473526017)"><rect x="0" y="0" width="200" height="200" fill="url(#semy_of_heart-or-vert)"/><g fill="#377cd7" stroke="none"><polygon points="85,0 85,85 0,85 0,115 85,115 85,200 115,200 115,115 200,115 200,85 115,85 115,0"/></g></g><path d="m25,25 h150 v100 a75,75,0,0,1,-150,0 z" fill="url(#backlight)" stroke="#333"/></svg>