<svg id="coa793090410" width="500" height="500" viewBox="0 0 200 200" xmlns="http://www.w3.org/2000/svg" xmlns:x="http://www.w3.org/1999/xlink"><defs><clipPath id="boeotian_coa793090410"><path d="M150 115c-5 0-10-5-10-15s5-15 10-15c10 0 7 10 15 10 10 0 0-30 0-30-10-25-30-55-65-55S45 40 35 65c0 0-10 30 0 30 8 0 5-10 15-10 5 0 10 5 10 15s-5 15-10 15c-10 0-7-10-15-10-10 0 0 30 0 30 10 25 30 55 65 55s55-30 65-55c0 0 10-30 0-30-8 0-5 10-15 10z"/></clipPath><g id="crossCeltic2_coa793090410" stroke-width=".5"><path d="M99.99 59.85c-4.86.02-10.1.95-14.21 2.72.6 2.64 1.27 5.26 1.96 7.87A32 32 0 0070.4 87.87c-2.64-.7-5.28-1.43-7.92-2.18a39.37 39.37 0 00-2.67 14.3c.02 4.85.95 10.1 2.72 14.2 2.65-.6 5.28-1.28 7.9-1.97a32 32 0 0017.43 17.39c-.7 2.63-1.42 5.25-2.17 7.87 4.4 1.76 9.4 2.66 14.3 2.68 4.85-.02 10.1-.96 14.2-2.72-.6-2.64-1.27-5.25-1.96-7.86a32 32 0 0017.38-17.43c2.65.71 5.29 1.43 7.93 2.19 1.76-4.4 2.66-9.4 2.67-14.3-.02-4.86-.95-10.1-2.72-14.2-2.64.6-5.27 1.27-7.9 1.97a32 32 0 00-17.47-17.43c.7-2.62 1.42-5.24 2.17-7.86a39.37 39.37 0 00-14.3-2.67zM110 78.22c5.2 2.4 9.2 6.4 11.77 11.7l-11.37 2.9c.2 3.4-1.79 4.81-4 4.8a4 4 0 01-4-4c-.15-2.43 1.8-4.2 4.6-4zm-20.16.03l2.9 11.37c3.4-.2 4.82 1.79 4.8 4a4 4 0 01-4 4c-2.42.15-4.2-1.8-4-4.6l-11.4-3c2.4-5.2 6.4-9.2 11.7-11.77zm3.75 24.15a4 4 0 014 4c.15 2.43-1.8 4.2-4.6 4l-3 11.4c-5.2-2.4-9.2-6.4-11.77-11.7l11.37-2.9c-.2-3.4 1.78-4.8 4-4.8zm13.01.06c2.31-.02 3.97 1.9 3.78 4.6l11.4 3c-2.4 5.2-6.4 9.2-11.7 11.78l-2.9-11.37c-3.4.2-4.82-1.79-4.8-4a4 4 0 014.22-4z"/></g><radialGradient id="backlight" cx="100%" cy="100%" r="150%"><stop stop-color="#fff" stop-opacity=".3" offset="0"/><stop stop-color="#fff" stop-opacity=".15" offset=".25"/><stop stop-color="#000" stop-opacity="0" offset="1"/></radialGradient></defs><g clip-path="url(#boeotian_coa793090410)"><rect x="0" y="0" width="200" height="200" fill="#fafafa"/><g fill="#26c061" stroke="#000"><use x:href="#crossCeltic2_coa793090410" transform="translate(-13 -13) scale(1.13)"/></g></g><path d="M150 115c-5 0-10-5-10-15s5-15 10-15c10 0 7 10 15 10 10 0 0-30 0-30-10-25-30-55-65-55S45 40 35 65c0 0-10 30 0 30 8 0 5-10 15-10 5 0 10 5 10 15s-5 15-10 15c-10 0-7-10-15-10-10 0 0 30 0 30 10 25 30 55 65 55s55-30 65-55c0 0 10-30 0-30-8 0-5 10-15 10z" fill="url(#backlight)" stroke="#333"/></svg>