<svg id="coa637933249" width="500" height="500" viewBox="0 10 200 200" xmlns="http://www.w3.org/2000/svg" xmlns:x="http://www.w3.org/1999/xlink"><defs><clipPath id="spanish_coa637933249"><path d="m25,25 h150 v100 a75,75,0,0,1,-150,0 z"/></clipPath><clipPath id="divisionClip_coa637933249"><polygon points="0,200 100,100 200,200"/></clipPath><g id="mullet6Pierced_coa637933249"><path d="M100 60l7.64 26.77 27-6.77-19.36 20 19.36 20-27-6.77L100 140l-7.64-26.77-27 6.77 19.36-20-19.36-20 27 6.77z M 108,100 a 8,8 0 0 0 -8,-8 8,8 0 0 0 -8,8 8,8 0 0 0 8,8 8,8 0 0 0 8,-8 z"/></g><pattern id="maily-or-purpure" width="0.167" height="0.167" viewBox="0 0 200 200" stroke="#000" stroke-width="1.2"><path fill="#ffe066" stroke="none" d="M0 0h200v200H0z"/><g fill="#522d5b"><path d="m80-2c-5.27e-4 2.403-0.1094 6.806-0.3262 9.199 5.014-1.109 10.1-1.768 15.19-2.059 0.09325-1.712 0.1401-5.426 0.1406-7.141z"/><path d="m100 5a95 95 0 0 0-95 95 95 95 0 0 0 95 95 95 95 0 0 0 95-95 95 95 0 0 0-95-95zm0 15a80 80 0 0 1 80 80 80 80 0 0 1-80 80 80 80 0 0 1-80-80 80 80 0 0 1 80-80z"/><path d="m92.8 20.33c-5.562 0.4859-11.04 1.603-16.34 3.217-7.793 25.31-27.61 45.12-52.91 52.91-5.321 1.638-10.8 2.716-16.34 3.217-2.394 0.2168-6.796 0.3256-9.199 0.3262v15c1.714-4.79e-4 5.429-0.04737 7.141-0.1406 5.109-0.2761 10.19-0.9646 15.19-2.059 36.24-7.937 64.54-36.24 72.47-72.47z"/><path d="m202 80c-2.403-5.31e-4 -6.806-0.1094-9.199-0.3262 1.109 5.014 1.768 10.1 2.059 15.19 1.712 0.09326 5.426 0.1401 7.141 0.1406z"/><path d="m179.7 92.8c-0.4859-5.562-1.603-11.04-3.217-16.34-25.31-7.793-45.12-27.61-52.91-52.91-1.638-5.321-2.716-10.8-3.217-16.34-0.2168-2.394-0.3256-6.796-0.3262-9.199h-15c4.8e-4 1.714 0.0474 5.429 0.1406 7.141 0.2761 5.109 0.9646 10.19 2.059 15.19 7.937 36.24 36.24 64.54 72.47 72.47z"/><path d="m120 202c5.3e-4 -2.403 0.1094-6.806 0.3262-9.199-5.014 1.109-10.1 1.768-15.19 2.059-0.0933 1.712-0.1402 5.426-0.1406 7.141z"/><path d="m107.2 179.7c5.562-0.4859 11.04-1.603 16.34-3.217 7.793-25.31 27.61-45.12 52.91-52.91 5.321-1.638 10.8-2.716 16.34-3.217 2.394-0.2168 6.796-0.3256 9.199-0.3262v-15c-1.714 4.7e-4 -5.429 0.0474-7.141 0.1406-5.109 0.2761-10.19 0.9646-15.19 2.059-36.24 7.937-64.54 36.24-72.47 72.47z"/><path d="m -2,120 c 2.403,5.4e-4 6.806,0.1094 9.199,0.3262 -1.109,-5.014 -1.768,-10.1 -2.059,-15.19 -1.712,-0.0933 -5.426,-0.1402 -7.141,-0.1406 z"/><path d="m 20.33,107.2 c 0.4859,5.562 1.603,11.04 3.217,16.34 25.31,7.793 45.12,27.61 52.91,52.91 1.638,5.321 2.716,10.8 3.217,16.34 0.2168,2.394 0.3256,6.796 0.3262,9.199 L 95,202 c -4.8e-4,-1.714 -0.0472,-5.44 -0.1404,-7.152 -0.2761,-5.109 -0.9646,-10.19 -2.059,-15.19 -7.937,-36.24 -36.24,-64.54 -72.47,-72.47 z"/></g></pattern><radialGradient id="backlight" cx="100%" cy="100%" r="150%"><stop stop-color="#fff" stop-opacity=".3" offset="0"/><stop stop-color="#fff" stop-opacity=".15" offset=".25"/><stop stop-color="#000" stop-opacity="0" offset="1"/></radialGradient></defs><g clip-path="url(#spanish_coa637933249)"><rect x="0" y="0" width="200" height="200" fill="url(#maily-or-purpure)"/><g clip-path="url(#divisionClip_coa637933249)"><rect x="0" y="0" width="200" height="200" fill="#333333"/></g><g fill="#d7374a" stroke="#000"><use x:href="#mullet6Pierced_coa637933249" transform="translate(6.25 50) scale(0.5)"/><use x:href="#mullet6Pierced_coa637933249" transform="translate(93.75 50) scale(0.5)"/><use x:href="#mullet6Pierced_coa637933249" transform="translate(50 0) scale(0.5)"/><use x:href="#mullet6Pierced_coa637933249" transform="translate(50 100) scale(0.5)"/></g></g><path d="m25,25 h150 v100 a75,75,0,0,1,-150,0 z" fill="url(#backlight)" stroke="#333"/></svg>