<svg id="coa280746698" width="500" height="500" viewBox="0 10 200 200" xmlns="http://www.w3.org/2000/svg" xmlns:x="http://www.w3.org/1999/xlink"><defs><clipPath id="spanish_coa280746698"><path d="m25,25 h150 v100 a75,75,0,0,1,-150,0 z"/></clipPath><g id="crossHummetty_coa280746698" stroke-width=".5"><path d="M90 60h20v30h30v20h-30v30H90v-30H60V90h30z"/></g><radialGradient id="backlight" cx="100%" cy="100%" r="150%"><stop stop-color="#fff" stop-opacity=".3" offset="0"/><stop stop-color="#fff" stop-opacity=".15" offset=".25"/><stop stop-color="#000" stop-opacity="0" offset="1"/></radialGradient></defs><g clip-path="url(#spanish_coa280746698)"><rect x="0" y="0" width="200" height="200" fill="#ffe066"/><g fill="#d7374a" stroke="none"><path d="m25,25 h150 v100 a75,75,0,0,1,-150,0 z" fill="none" stroke="#d7374a" stroke-width="16.7%"/></g><g fill="#ffe066" stroke="#000"><use x:href="#crossHummetty_coa280746698" transform="translate(15.8 15.4) scale(0.18)"/><use x:href="#crossHummetty_coa280746698" transform="translate(60 15.4) scale(0.18)"/><use x:href="#crossHummetty_coa280746698" transform="translate(104 15.4) scale(0.18)"/><use x:href="#crossHummetty_coa280746698" transform="translate(148.2 15.4) scale(0.18)"/><use x:href="#crossHummetty_coa280746698" transform="translate(148.4 62) scale(0.18)"/><use x:href="#crossHummetty_coa280746698" transform="translate(148.4 108) scale(0.18)"/><use x:href="#crossHummetty_coa280746698" transform="translate(131 152) scale(0.18)"/><use x:href="#crossHummetty_coa280746698" transform="translate(82 174) scale(0.18)"/><use x:href="#crossHummetty_coa280746698" transform="translate(33 152) scale(0.18)"/><use x:href="#crossHummetty_coa280746698" transform="translate(15.6 108) scale(0.18)"/><use x:href="#crossHummetty_coa280746698" transform="translate(15.6 62) scale(0.18)"/></g></g><path d="m25,25 h150 v100 a75,75,0,0,1,-150,0 z" fill="url(#backlight)" stroke="#333"/></svg>