<svg id="coa637933249" width="500" height="500" viewBox="0 0 200 200" xmlns="http://www.w3.org/2000/svg" xmlns:x="http://www.w3.org/1999/xlink"><defs><clipPath id="pavise_coa637933249"><path d="M95 7L39.9 37.3a10 10 0 00-5.1 9.5L46 180c.4 5.2 3.7 10 9 10h90c5.3 0 9.6-4.8 10-10l10.6-133.2a10 10 0 00-5-9.5L105 7c-4.2-2.3-6.2-2.3-10 0z"/></clipPath><g id="crossClechy_coa637933249" stroke-width=".5"><path d="M 96.9,103.1 C 97,112 92,122 87,127 c 5.2,2.3 11,8 13,15 2,-7 7.8,-12.7 13,-15 -5,-5 -10,-15 -9.9,-23.9 8.9,-0.1 19.9,4.9 24.9,9.9 2,-5 8,-11 15,-13 -7,-2 -13,-8 -15,-13 -5,5 -16,10 -24.9,9.9 C 103,88 108,78 113,73 108,71 102,65 100,58 98,65 92,71 87,73 92,78 97,88 96.9,96.9 88,97 78,92 73,87 c -2,5 -8,11 -15,13 7,2 13,8 15,13 7,-5 15,-10 23.9,-9.9 z"/></g><radialGradient id="backlight" cx="100%" cy="100%" r="150%"><stop stop-color="#fff" stop-opacity=".3" offset="0"/><stop stop-color="#fff" stop-opacity=".15" offset=".25"/><stop stop-color="#000" stop-opacity="0" offset="1"/></radialGradient></defs><g clip-path="url(#pavise_coa637933249)"><rect x="0" y="0" width="200" height="200" fill="#fafafa"/><g fill="#d7374a" stroke="none"><polygon points="0,0 30,0 100,70 170,0 200,0 200,30 122,109 122,200 78,200 78,109 0,30"/></g><g fill="#fafafa" stroke="#000"><use x:href="#crossClechy_coa637933249" transform="translate(25 20) scale(0.45)"/><use x:href="#crossClechy_coa637933249" transform="translate(85 20) scale(0.45)"/><use x:href="#crossClechy_coa637933249" transform="translate(55 55) scale(0.45)"/><use x:href="#crossClechy_coa637933249" transform="translate(55 107.5) scale(0.45)"/></g></g><path d="M95 7L39.9 37.3a10 10 0 00-5.1 9.5L46 180c.4 5.2 3.7 10 9 10h90c5.3 0 9.6-4.8 10-10l10.6-133.2a10 10 0 00-5-9.5L105 7c-4.2-2.3-6.2-2.3-10 0z" fill="url(#backlight)" stroke="#333"/></svg>