<svg id="coa332519757" width="500" height="500" viewBox="0 0 200 200" xmlns="http://www.w3.org/2000/svg" xmlns:x="http://www.w3.org/1999/xlink"><defs><clipPath id="pavise_coa332519757"><path d="M95 7L39.9 37.3a10 10 0 00-5.1 9.5L46 180c.4 5.2 3.7 10 9 10h90c5.3 0 9.6-4.8 10-10l10.6-133.2a10 10 0 00-5-9.5L105 7c-4.2-2.3-6.2-2.3-10 0z"/></clipPath><g id="inescutcheon_coa332519757"><path transform="translate(66 66) scale(.34)" d="M95 7L39.9 37.3a10 10 0 00-5.1 9.5L46 180c.4 5.2 3.7 10 9 10h90c5.3 0 9.6-4.8 10-10l10.6-133.2a10 10 0 00-5-9.5L105 7c-4.2-2.3-6.2-2.3-10 0z"/></g><pattern id="counterPotent-argent-vert" width="0.125" height="0.125" viewBox="0 0 200 200" stroke="none"><rect width="200" height="200" fill="#fafafa"/><path d="m25 50h50v-50h50v50h50v100h-50v50h-50v-50h-50v-50z" fill="#26c061"/><path d="m0 0h200 M0 100h200 M0 200h200"/></pattern><radialGradient id="backlight" cx="100%" cy="100%" r="150%"><stop stop-color="#fff" stop-opacity=".3" offset="0"/><stop stop-color="#fff" stop-opacity=".15" offset=".25"/><stop stop-color="#000" stop-opacity="0" offset="1"/></radialGradient></defs><g clip-path="url(#pavise_coa332519757)"><rect x="0" y="0" width="200" height="200" fill="url(#counterPotent-argent-vert)"/><g fill="#26c061" stroke="#000"><use x:href="#inescutcheon_coa332519757" transform="translate(-35 -35) scale(1.35)"/></g></g><path d="M95 7L39.9 37.3a10 10 0 00-5.1 9.5L46 180c.4 5.2 3.7 10 9 10h90c5.3 0 9.6-4.8 10-10l10.6-133.2a10 10 0 00-5-9.5L105 7c-4.2-2.3-6.2-2.3-10 0z" fill="url(#backlight)" stroke="#333"/></svg>