<svg id="coa423104709" width="500" height="500" viewBox="0 0 200 200" xmlns="http://www.w3.org/2000/svg" xmlns:x="http://www.w3.org/1999/xlink"><defs><clipPath id="pavise_coa423104709"><path d="M95 7L39.9 37.3a10 10 0 00-5.1 9.5L46 180c.4 5.2 3.7 10 9 10h90c5.3 0 9.6-4.8 10-10l10.6-133.2a10 10 0 00-5-9.5L105 7c-4.2-2.3-6.2-2.3-10 0z"/></clipPath><clipPath id="divisionClip_coa423104709"><polygon points="0,0 100,100 200,0"/></clipPath><g id="mullet6_coa423104709"><polygon points="100 60 107.64 86.77 134.64 80 115.28 100 134.64 120 107.64 113.23 100 140 92.36 113.23 65.36 120 84.72 100 65.36 80 92.36 86.77"/></g><radialGradient id="backlight" cx="100%" cy="100%" r="150%"><stop stop-color="#fff" stop-opacity=".3" offset="0"/><stop stop-color="#fff" stop-opacity=".15" offset=".25"/><stop stop-color="#000" stop-opacity="0" offset="1"/></radialGradient></defs><g clip-path="url(#pavise_coa423104709)"><rect x="0" y="0" width="200" height="200" fill="#fafafa"/><g fill="#333333" stroke="#000"><use x:href="#mullet6_coa423104709" transform="translate(15 55) scale(0.45)"/><use x:href="#mullet6_coa423104709" transform="translate(95 55) scale(0.45)"/><use x:href="#mullet6_coa423104709" transform="translate(55 107.5) scale(0.45)"/></g><g clip-path="url(#divisionClip_coa423104709)"><rect x="0" y="0" width="200" height="200" fill="#333333"/><g fill="#fafafa" stroke="#000"><use x:href="#mullet6_coa423104709" transform="translate(15 55) scale(0.45)"/><use x:href="#mullet6_coa423104709" transform="translate(95 55) scale(0.45)"/><use x:href="#mullet6_coa423104709" transform="translate(55 107.5) scale(0.45)"/></g></g></g><path d="M95 7L39.9 37.3a10 10 0 00-5.1 9.5L46 180c.4 5.2 3.7 10 9 10h90c5.3 0 9.6-4.8 10-10l10.6-133.2a10 10 0 00-5-9.5L105 7c-4.2-2.3-6.2-2.3-10 0z" fill="url(#backlight)" stroke="#333"/></svg>