<svg id="coa19661282" width="500" height="500" viewBox="0 10 200 200" xmlns="http://www.w3.org/2000/svg" xmlns:x="http://www.w3.org/1999/xlink"><defs><clipPath id="french_coa19661282"><path d="m 25,25 h 150 v 139.15 c 0,41.745 -66,18.15 -75,36.3 -9,-18.15 -75,5.445 -75,-36.3 v 0 z"/></clipPath><clipPath id="divisionClip_coa19661282"><path d="m 0,95 a 6.25,6.25 0 0 0 12.5,0 6.25,6.25 0 0 0 12.5,0 6.25,6.25 0 0 0 12.5,0 6.25,6.25 0 0 0 12.5,0 6.25,6.25 0 0 0 12.5,0 6.25,6.25 0 0 0 12.5,0 6.25,6.25 0 0 0 12.5,0 6.25,6.25 0 0 0 12.5,0 6.25,6.25 0 0 0 12.5,0 6.25,6.25 0 0 0 12.5,0 6.25,6.25 0 0 0 12.5,0 6.25,6.25 0 0 0 12.5,0 6.25,6.25 0 0 0 12.5,0 6.25,6.25 0 0 0 12.5,0 6.25,6.25 0 0 0 12.5,0 6.25,6.25 0 0 0 12.5,0 v 20 H 0 Z"/><rect x="0" y="115" width="200" height="85" shape-rendering="crispedges"/></clipPath><g id="heart_coa19661282"><path stroke-width=".5" d="M100 84c-.7-1.1-1.4-2.2-2.4-3.2-6.3-6.8-16.6-6.8-23 0-6.3 6.8-5.4 17.8 1 24.6 6.3 6.8 17.7 12.4 24.2 27 7.3-14.4 18.2-20.2 24.5-27 6.3-6.8 7.3-17.8 1-24.6-6.3-6.8-16.6-6.8-23 0-.9 1-1.6 2.1-2.3 3.2z"/></g><radialGradient id="backlight" cx="100%" cy="100%" r="150%"><stop stop-color="#fff" stop-opacity=".3" offset="0"/><stop stop-color="#fff" stop-opacity=".15" offset=".25"/><stop stop-color="#000" stop-opacity="0" offset="1"/></radialGradient></defs><g clip-path="url(#french_coa19661282)"><rect x="0" y="0" width="200" height="200" fill="#d7374a"/><g clip-path="url(#divisionClip_coa19661282)"><rect x="0" y="0" width="200" height="200" fill="#fafafa"/></g><g fill="#ffe066" stroke="#000"><use x:href="#heart_coa19661282" transform="translate(-50 -50) scale(1.5)"/></g></g><path d="m 25,25 h 150 v 139.15 c 0,41.745 -66,18.15 -75,36.3 -9,-18.15 -75,5.445 -75,-36.3 v 0 z" fill="url(#backlight)" stroke="#333"/></svg>