<svg id="coa275280961" width="500" height="500" viewBox="0 0 200 200" xmlns="http://www.w3.org/2000/svg" xmlns:x="http://www.w3.org/1999/xlink"><defs><clipPath id="boeotian_coa275280961"><path d="M150 115c-5 0-10-5-10-15s5-15 10-15c10 0 7 10 15 10 10 0 0-30 0-30-10-25-30-55-65-55S45 40 35 65c0 0-10 30 0 30 8 0 5-10 15-10 5 0 10 5 10 15s-5 15-10 15c-10 0-7-10-15-10-10 0 0 30 0 30 10 25 30 55 65 55s55-30 65-55c0 0 10-30 0-30-8 0-5 10-15 10z"/></clipPath><clipPath id="divisionClip_coa275280961"><rect x="0" y="100" width="200" height="100"/></clipPath><g id="lozengeFaceted_coa275280961"><polygon points="100 55 130 100 100 145 70 100"/><g fill="#000" stroke="none"><polygon points="100 100 130 100 100 55" opacity=".2"/><polygon points="100 100 70 100 100 145" opacity=".2"/><polygon points="100 100 130 100 100 145" opacity=".3"/></g></g><radialGradient id="backlight" cx="100%" cy="100%" r="150%"><stop stop-color="#fff" stop-opacity=".3" offset="0"/><stop stop-color="#fff" stop-opacity=".15" offset=".25"/><stop stop-color="#000" stop-opacity="0" offset="1"/></radialGradient></defs><g clip-path="url(#boeotian_coa275280961)"><rect x="0" y="0" width="200" height="200" fill="#377cd7"/><g fill="#ffe066" stroke="#000"><use x:href="#lozengeFaceted_coa275280961" transform="translate(62 17) scale(0.38)"/><use x:href="#lozengeFaceted_coa275280961" transform="translate(29.5 99.5) scale(0.38)"/><use x:href="#lozengeFaceted_coa275280961" transform="translate(94.5 99.5) scale(0.38)"/></g><g clip-path="url(#divisionClip_coa275280961)"><rect x="0" y="0" width="200" height="200" fill="#ffe066"/><g fill="#377cd7" stroke="#000"><use x:href="#lozengeFaceted_coa275280961" transform="translate(62 17) scale(0.38)"/><use x:href="#lozengeFaceted_coa275280961" transform="translate(29.5 99.5) scale(0.38)"/><use x:href="#lozengeFaceted_coa275280961" transform="translate(94.5 99.5) scale(0.38)"/></g></g></g><path d="M150 115c-5 0-10-5-10-15s5-15 10-15c10 0 7 10 15 10 10 0 0-30 0-30-10-25-30-55-65-55S45 40 35 65c0 0-10 30 0 30 8 0 5-10 15-10 5 0 10 5 10 15s-5 15-10 15c-10 0-7-10-15-10-10 0 0 30 0 30 10 25 30 55 65 55s55-30 65-55c0 0 10-30 0-30-8 0-5 10-15 10z" fill="url(#backlight)" stroke="#333"/></svg>