<svg id="coa857503856" width="500" height="500" viewBox="0 0 200 200" xmlns="http://www.w3.org/2000/svg" xmlns:x="http://www.w3.org/1999/xlink"><defs><clipPath id="boeotian_coa857503856"><path d="M150 115c-5 0-10-5-10-15s5-15 10-15c10 0 7 10 15 10 10 0 0-30 0-30-10-25-30-55-65-55S45 40 35 65c0 0-10 30 0 30 8 0 5-10 15-10 5 0 10 5 10 15s-5 15-10 15c-10 0-7-10-15-10-10 0 0 30 0 30 10 25 30 55 65 55s55-30 65-55c0 0 10-30 0-30-8 0-5 10-15 10z"/></clipPath><g id="inescutcheon_coa857503856"><path transform="translate(66 66) scale(.34)" d="M150 115c-5 0-10-5-10-15s5-15 10-15c10 0 7 10 15 10 10 0 0-30 0-30-10-25-30-55-65-55S45 40 35 65c0 0-10 30 0 30 8 0 5-10 15-10 5 0 10 5 10 15s-5 15-10 15c-10 0-7-10-15-10-10 0 0 30 0 30 10 25 30 55 65 55s55-30 65-55c0 0 10-30 0-30-8 0-5 10-15 10z"/></g><g id="fountain_coa857503856" stroke-width=".5"><circle cx="100" cy="100" r="30"/><g fill="#fafafa"><path d="M74.54 84.09c3.22.66 4.19 4.61 7.86 4.61 4 0 4.8-4.7 8.8-4.7 4 0 4.8 4.7 8.8 4.7 4 0 4.8-4.7 8.8-4.7 4 0 4.8 4.7 8.8 4.7 3.66 0 4.64-3.94 7.86-4.61a31.66 31.66 0 00-4.49-5.57 4.98 4.98 0 01-3.37 1.38c-4 0-4.8-4.7-8.8-4.7-4 0-4.8 4.7-8.8 4.7-4 0-4.8-4.7-8.8-4.7-4 0-4.8 4.7-8.8 4.7a4.96 4.96 0 01-3.32-1.34 29.18 29.18 0 00-4.54 5.54z"/><path d="M73.6 93c-1.26 0-2.2.47-3.03 1.11a31.28 31.28 0 00-.4 9.05 4.89 4.89 0 013.43-1.46c4 0 4.8 4.7 8.8 4.7 4 0 4.8-4.7 8.8-4.7 4 0 4.8 4.7 8.8 4.7 4 0 4.8-4.7 8.8-4.7 4 0 4.8 4.7 8.8 4.7 4 0 4.8-4.7 8.8-4.7 1.48 0 2.53.65 3.46 1.46.38-3 .32-6.05-.46-9.18a4.74 4.74 0 00-3-1.08c-4 0-4.8 4.7-8.8 4.7-4.1.1-4.9-4.6-8.9-4.6s-4.7 4.7-8.7 4.7c-4.1 0-4.8-4.7-8.8-4.7-4 0-4.8 4.7-8.8 4.7-4 0-4.8-4.7-8.8-4.7z"/><path d="M72.19 111.22c2.24 5.67 5.64 10.07 10.42 13.21 3.7-.27 4.71-4.73 8.59-4.73 4 0 4.8 4.7 8.8 4.7 4 0 4.8-4.7 8.8-4.7 4 0 4.55 4.7 8.55 4.7 4.81-3.3 8.29-7.7 10.51-13.25a3.96 3.96 0 00-1.46-.25c-4 0-4.8 4.7-8.8 4.7-4 0-4.8-4.7-8.8-4.7-4 0-4.8 4.7-8.8 4.7-4 0-4.8-4.7-8.8-4.7-4 0-4.8 4.7-8.8 4.7-5.94-.4-3.88-5.06-10.21-4.38z"/></g></g><pattern id="bendy-azure-argent-small" width="0.4" height="0.4" viewBox="0 0 100 100"><rect width="100" height="100" fill="#377cd7"/><polygon points="0,25 75,100 25,100 0,75" fill="#fafafa"/><polygon points="25,0 75,0 100,25 100,75" fill="#fafafa"/></pattern><radialGradient id="backlight" cx="100%" cy="100%" r="150%"><stop stop-color="#fff" stop-opacity=".3" offset="0"/><stop stop-color="#fff" stop-opacity=".15" offset=".25"/><stop stop-color="#000" stop-opacity="0" offset="1"/></radialGradient></defs><g clip-path="url(#boeotian_coa857503856)"><rect x="0" y="0" width="200" height="200" fill="url(#bendy-azure-argent-small)"/><g fill="#ffe066" stroke="#000"><use x:href="#inescutcheon_coa857503856" transform="translate(-13 -13) scale(1.13)"/></g><g fill="#333333" stroke="#000"><use x:href="#fountain_coa857503856" transform="translate(44 44) scale(0.56)"/></g></g><path d="M150 115c-5 0-10-5-10-15s5-15 10-15c10 0 7 10 15 10 10 0 0-30 0-30-10-25-30-55-65-55S45 40 35 65c0 0-10 30 0 30 8 0 5-10 15-10 5 0 10 5 10 15s-5 15-10 15c-10 0-7-10-15-10-10 0 0 30 0 30 10 25 30 55 65 55s55-30 65-55c0 0 10-30 0-30-8 0-5 10-15 10z" fill="url(#backlight)" stroke="#333"/></svg>