<svg id="coa691408256" width="500" height="500" viewBox="0 0 200 200" xmlns="http://www.w3.org/2000/svg"><defs><clipPath id="boeotian_coa691408256"><path d="M150 115c-5 0-10-5-10-15s5-15 10-15c10 0 7 10 15 10 10 0 0-30 0-30-10-25-30-55-65-55S45 40 35 65c0 0-10 30 0 30 8 0 5-10 15-10 5 0 10 5 10 15s-5 15-10 15c-10 0-7-10-15-10-10 0 0 30 0 30 10 25 30 55 65 55s55-30 65-55c0 0 10-30 0-30-8 0-5 10-15 10z"/></clipPath><clipPath id="divisionClip_coa691408256"><rect x="0" y="100" width="200" height="100"/></clipPath><g id="crossHummetty_coa691408256" stroke-width=".5"><path d="M90 60h20v30h30v20h-30v30H90v-30H60V90h30z"/></g><pattern id="semy_of_crossHummetty-argent-sable" width="0.125" height="0.125" viewBox="0 0 200 200" stroke="#000"><rect width="200" height="200" fill="#fafafa" stroke="none"/><g fill="#333333"><use transform="translate(-100 -50)" href="#crossHummetty_coa691408256"/><use transform="translate(100 -50)" href="#crossHummetty_coa691408256"/><use transform="translate(0 50)" href="#crossHummetty_coa691408256"/></g></pattern><radialGradient id="backlight" cx="100%" cy="100%" r="150%"><stop stop-color="#fff" stop-opacity=".3" offset="0"/><stop stop-color="#fff" stop-opacity=".15" offset=".25"/><stop stop-color="#000" stop-opacity="0" offset="1"/></radialGradient></defs><g clip-path="url(#boeotian_coa691408256)"><rect x="0" y="0" width="200" height="200" fill="#26c061"/><g clip-path="url(#divisionClip_coa691408256)"><rect x="0" y="0" width="200" height="200" fill="url(#semy_of_crossHummetty-argent-sable)"/></g></g><path d="M150 115c-5 0-10-5-10-15s5-15 10-15c10 0 7 10 15 10 10 0 0-30 0-30-10-25-30-55-65-55S45 40 35 65c0 0-10 30 0 30 8 0 5-10 15-10 5 0 10 5 10 15s-5 15-10 15c-10 0-7-10-15-10-10 0 0 30 0 30 10 25 30 55 65 55s55-30 65-55c0 0 10-30 0-30-8 0-5 10-15 10z" fill="url(#backlight)" stroke="#333"/></svg>