<svg xmlns="http://www.w3.org/2000/svg" id="provinceCOA48" width="200" height="200" viewBox="0 0 200 200">
        <defs><clipPath id="boeotian_provinceCOA48"><path d="M150 115c-5 0-10-5-10-15s5-15 10-15c10 0 7 10 15 10 10 0 0-30 0-30-10-25-30-55-65-55S45 40 35 65c0 0-10 30 0 30 8 0 5-10 15-10 5 0 10 5 10 15s-5 15-10 15c-10 0-7-10-15-10-10 0 0 30 0 30 10 25 30 55 65 55s55-30 65-55c0 0 10-30 0-30-8 0-5 10-15 10z"></path></clipPath><clipPath id="divisionClip_provinceCOA48"><polygon points="0,0 0,200 200,0 200,200"></polygon></clipPath><g id="anchor_provinceCOA48" stroke-width=".5"><path d="M135.4 98.45c-2.05-3.35-9.03-10.3-12.27-11.86-.51-.25-1.19-.16-1.47.3-.93 1.52.57 6.37-1.07 13.36-.54 2.3-.04 3.36 1.86 2.82 2.05-.58 5.25-2.47 4.97-4.5.3 1.54.45 3.09.45 4.57 0 16.3-19.22 19.1-23.53 19.26a.39.39 0 01-.39-.39V82.33c0-.64.16-1.1.94-1.16.12 0 .22-.1.22-.23l12.2-.74c.13 0 .23-.1.23-.23v-.33l9.91-.26c.13 0 .23-.1.23-.22v-2.98c0-.13-.1-.23-.23-.23l-9.9-.25v-.34c0-.12-.11-.22-.24-.22l-12.2-.74v-.9c0-.13-.1-.23-.22-.23-1.5-.11-3.22-1.26-3.22-3.01v-.4a6.27 6.27 0 10-3.08 0v.4c0 1.75-1.73 2.9-3.22 3-.12 0-.23.1-.23.23v.9l-12.2.75c-.12 0-.22.1-.22.22v.34l-9.91.25c-.13 0-.23.1-.23.23v2.98c0 .12.1.22.23.22l9.9.26v.33c0 .13.1.23.23.23l12.2.74c0 .13.1.23.23.23.78.07.93.52.93 1.16v39.68c0 .22-.17.39-.38.39-4.31-.17-23.53-2.95-23.53-19.26 0-1.48.16-3.03.45-4.57-.28 2.03 2.92 3.92 4.97 4.5 1.9.54 2.4-.52 1.86-2.82-1.64-7-.15-11.84-1.08-13.36-.28-.46-.95-.55-1.46-.3-3.25 1.55-10.22 8.51-12.26 11.86-.44.7-.49 1.9.23 2.32 1.26.73 4.36.1 5.22-2.13a31 31 0 00-1.74 10.34c0 10.28 8.2 16.1 16.24 19.3 7.27 2.89 13.97 3.51 13.97 5.4v1.03a5.56 5.56 0 102.68 0v-1.04c0-1.88 6.7-2.5 13.97-5.4 8.03-3.19 16.24-9.01 16.24-19.3 0-3.72-.65-7.22-1.74-10.33.86 2.24 3.96 2.86 5.22 2.13.72-.42.66-1.61.23-2.32zm-31.97 41.65a3.3 3.3 0 11-4.64-3.01v1.07c0 .57.78 1.03 1.34 1.03s1.34-.46 1.34-1.03v-1.07a3.3 3.3 0 011.96 3zm-3.3-74.82c-.85 0-1.54.69-1.54 1.54v.35a3.71 3.71 0 113.08 0v-.35c0-.85-.69-1.54-1.54-1.54zm3.82 17.06h-7.64m-1.17-7.94v6.54m9.97-6.54v6.54M82.72 75.7v3.94m34.82-3.94v3.94M98.59 67.17v2.7m3.08-2.7v2.7m-2.88 64.83v2.39m2.68-2.39v2.39"></path><path fill="#000" stroke="none" d="M129.43 103.12a19.23 19.23 0 01-1.32 7.76c-.34.81-.76 1.6-1.2 2.36a19.38 19.38 0 01-3.43 4.02 27.34 27.34 0 01-4.28 3.07 23.25 23.25 0 01-4.77 2.25 59.51 59.51 0 01-5.06 1.47c-1.7.46-3.4.87-5.02 1.46a12.65 12.65 0 00-2.34 1.05c-.38.21-.72.47-1 .76a2.77 2.77 0 00-.67 1 .25.25 0 01-.43 0c-.13-.38-.38-.7-.66-1a4.83 4.83 0 00-.98-.76 12.65 12.65 0 00-2.36-1.05c-1.62-.57-3.32-1-5.02-1.46-1.7-.43-3.4-.88-5.06-1.47a23.23 23.23 0 01-4.77-2.23 27.64 27.64 0 01-4.27-3.1 18.76 18.76 0 01-4.64-6.37 16.46 16.46 0 01-1.27-5.14 22.65 22.65 0 01-.05-2.64.17.17 0 11.32 0v.02a18.91 18.91 0 001.32 7.63c.34.79.75 1.56 1.19 2.3a19.16 19.16 0 003.38 3.92 25.7 25.7 0 004.22 3.02 22.84 22.84 0 004.72 2.2c1.64.56 3.32 1.01 5.02 1.45s3.4.85 5.06 1.43c.83.3 1.66.62 2.45 1.1.38.22.76.49 1.08.83.32.32.6.71.75 1.17h-.43c.15-.46.43-.85.76-1.17a5.28 5.28 0 011.09-.83c.76-.48 1.6-.8 2.44-1.1 1.66-.56 3.35-1 5.05-1.43s3.4-.87 5.02-1.44A22.84 22.84 0 00119 120a24.92 24.92 0 004.23-3.03 18.4 18.4 0 004.57-6.22 16.12 16.12 0 001.24-5.02c.1-.87.1-1.74.08-2.6a.16.16 0 11.32 0z" transform="translate(0 2)"></path><path fill="#000" stroke="none" d="M103 123.32c-.56.45-.95 1.07-1.34 1.68-.57.97-1.05 2-1.35 3.1-.03.32-.5.15-.4-.13a9.91 9.91 0 00-.5-1.45c-.32-.7-.7-1.37-1.13-2-.16-.27-.35-.51-.54-.76-.16-.17-.34-.32-.5-.48-.05-.27.24-.15.33-.03.34.27.58.63.85.96a13.69 13.69 0 011.89 3.79h-.38c.15-.47.33-.92.51-1.37a12.21 12.21 0 011.93-3.07c.16-.16.32-.33.51-.46.13-.04.23.13.13.22z" transform="translate(0 2)"></path><path fill="none" stroke-width=".3" d="M100.14 130.24v-47.9M93.8 79.5l-9.3-.56m-2.78-.53l-7.37-.19m32.11 1.28l9.29-.56m2.79-.53l7.38-.19m-22.54 2.35h-6.5m6.5-6.61h-6.5"></path></g><g id="cancer_provinceCOA48" stroke-width=".3"><path d="M105.3 65.7c-.3 0-1.3 1.4-1.4 4.1-.1 2.2.8 5.9.8 5.9s1.8 6.3 2.6 7.1c.8 1 5-3.2 4.6-4.7-.4-1.5-2.2-1.7-2.9-2.8-.4-.3-.2-1-.3-1.1-.1-.2-.7 0-1-.3-.2-.4-.6-.4-.7-1 0-.6.8-.7.5-1.4-.3-.6-1.5-1-1.7-1.5 0-.6.5-1.2.4-1.5 0-.3-.8-.6-.8-1.2s.4-1 .2-1.4c-.1-.4 0-.2-.3-.2zm-10.5 0c.2 0 1.2 1.4 1.3 4.1.1 2.2-.8 5.9-.8 5.9s-1.8 6.3-2.6 7.1c-.8 1-5-3.2-4.6-4.7.4-1.5 2.2-1.7 3-2.8.3-.3.1-1 .2-1.1.1-.2.8 0 1-.3.2-.4.7-.4.7-1 .1-.6-.8-.7-.5-1.4s1.5-1 1.7-1.5c.1-.6-.5-1.2-.4-1.5 0-.3.9-.6.9-1.2s-.4-1-.3-1.4c.1-.4.1-.2.4-.2zm26.4 22.2s1-1.4 1.7-3.8l.6-2.9c0-1.4-.2-2.5 0-2.6.3 0 .6.9.8 2 .2 1.1.2 2.5.2 2.5s.7-.6 1.3-1.5c.4-.6.6-1.6.7-1.6.2.2 0 2.3-1 4.6a22.3 22.3 0 01-3.3 4.8l-1-1.5zm2.2 6.5s1.2-.8 2.3-2.6c.4-.6 1-1.4 1.2-2 .5-1.2.6-2.1.8-2 .2 0 .2.8 0 1.7 0 1-.5 2-.5 2s.8-.3 1.5-.8c.5-.4.9-1.1 1-1 .1.1-.6 1.7-2 3.3-1.6 1.6-4 3-4 3l-.3-1.6z"></path><path d="M106.9 62.7c1-.2 2.5 0 4 1.3 1.6 1.4 3.3 4 4.4 7.5.3.7 1 2.7 1.6 5.2 1.1 4.3.9 7.6 0 9.2-.5 1-2 2.3-3.4 2.7-1.4.4-1.9-.3-2.2-.3-1.3.4-2.5-1.7-3.4-3.5-.7-1.2-1.5-1.9-1.6-2.4-.2-.7.5-.1 1.8-1 .7-.4.1-.9.9-1.6.8-.7 1-.1.9-1-.8-2.4.3-2.7 0-3.6-.1-1-.8-1.4-.9-1.8-.1-.7.3-.6.1-1.6 0-.4-.3-.8-.4-1.2-.1-.8.5-1.4.4-1.7s-1.2-.6-1.3-1c-.1-.5.6-1.2.3-2.3-.2-.8-.6-1.3-.9-1-.5-.3-.3-.6-.6-.8-.6-.6-1 0-1-.2-.2 0 0-.6 1.3-.9zm18.9 39.1l.8-.7 2.3-1.7c1-.7 3-.4 2.9-.4-.1-.5-2-1.2-3.8-.4-1.7.8-3.4 2.5-3.4 2.5l1.2.7zm-1.3 5.6l.8-.6s1.8-1.2 2.6-2.1c.8-1 2.8-1.3 2.8-1.3-.3-.4-2.3-.3-3.8.9a26.6 26.6 0 01-3.6 2.4l1.2.7zm-21.7-22.9c.1-1.4-.8-5.7-.6-11.4.3-6.2 1.9-12 1.7-12.2a48 48 0 00-2.4 12.1c-.6 5.6 0 10.3 0 11.3s1.2 1.6 1.3.2zm-24 3.4s-1-1.4-1.7-3.8l-.6-2.9c0-1.4.2-2.5 0-2.6-.3 0-.6.9-.8 2-.2 1.1-.2 2.5-.2 2.5s-.7-.6-1.3-1.5c-.4-.6-.6-1.6-.7-1.6-.2.2 0 2.3 1 4.6 1.1 2.4 3.3 4.8 3.3 4.8l1-1.5zm-2.2 6.5s-1.2-.8-2.3-2.6c-.4-.6-1-1.4-1.2-2-.5-1.2-.6-2.1-.8-2-.2 0-.2.8 0 1.7 0 1 .5 2 .5 2s-.8-.3-1.5-.8c-.5-.4-.9-1.1-1-1-.1.1.6 1.7 2 3.3 1.6 1.6 4 3 4 3l.3-1.6zm16.5-31.7c-1-.2-2.5 0-4 1.3-1.6 1.4-3.3 4-4.4 7.5-.3.7-1 2.7-1.6 5.2-1.1 4.3-.9 7.6 0 9.2.5 1 2 2.3 3.4 2.7s1.9-.3 2.2-.3c1.3.4 2.5-1.7 3.4-3.5.7-1.2 1.5-1.9 1.6-2.4.2-.7-.5-.1-1.8-1-.7-.4-.1-.9-.9-1.6-.8-.7-1-.1-.9-1 .8-2.4-.3-2.7 0-3.6.1-1 .8-1.4.9-1.8.1-.7-.3-.6-.1-1.6 0-.4.3-.8.4-1.2.1-.8-.5-1.4-.4-1.7 0-.2 1.2-.6 1.3-1 .1-.5-.6-1.2-.3-2.3.2-.8.6-1.3.9-1 .5-.3.3-.6.6-.8.6-.6 1 0 1-.2.2 0 0-.6-1.3-.9zm-18.9 39.1l-.8-.7-2.3-1.7c-1-.7-3-.4-2.9-.4.1-.5 2-1.2 3.8-.4 1.7.8 3.4 2.5 3.4 2.5l-1.2.7zm1.3 5.6l-.8-.6s-1.8-1.2-2.6-2.1c-.8-1-2.8-1.3-2.8-1.3.3-.4 2.3-.3 3.8.9 1.4 1.2 3.6 2.4 3.6 2.4l-1.2.7zm21.7-22.9c-.1-1.4.8-5.7.6-11.4-.3-6.2-1.9-12-1.7-12.2.4-.2 1.8 6 2.4 12.1.5 5.6 0 10.3 0 11.3s-1.2 1.6-1.3.2zm-.7 45.5s-1.4.5-2.6 1.4c-1.3 1-2.3 2.1-2.6 2.5-.3.4-.4 1 .4 2.1.9 1.1 2.8 2.2 4 2.2 1 0 2-1.3 2-1.3v-4.6l-1.2-2.3zm7.1 0s1.4.5 2.6 1.4c1.4 1 2.3 2.1 2.6 2.5.3.4.4 1-.4 2.1-.9 1.1-2.8 2.2-3.9 2.2s-2-1.3-2-1.3v-4.6l1.1-2.3z"></path><path d="M102.2 128.7s1.1 2.4 1.1 6c0 2-.4 3.2-.7 3.6-.3.4-1.4 1-2.6 1-1.1 0-2.2-.6-2.5-1-.3-.4-.7-1.6-.7-3.7 0-3.5 1.1-5.9 1.1-5.9h4.3zm-7.4-.5c-1 0-.6.2-1.6.2s-2.2-1-3.3-1c-1 0-2.2.9-2.2 2.8s1.5 4.3 3 4.3 5.1-4.6 5.1-4.6 0-1.7-1-1.7zm10.5 0c1 0 .6.2 1.6.2s2.2-1 3.3-1c1 0 2.2.9 2.2 2.8s-1.5 4.3-3 4.3-5-4.6-5-4.6 0-1.7 1-1.7z"></path><path d="M97 128.3s-.3.6-.8 1c-.5.3-1 .5-1 .7-.1.3.1.7.7 1.2.5.5.7.5 1 .4.2-.1.4-.5.7-1.2a8 8 0 00.4-1.4l-1-.7zm6 0s.4.6 1 1c.4.3 1 .5 1 .7 0 .3-.2.7-.8 1.2-.5.5-.7.5-1 .4-.2-.1-.4-.5-.7-1.2a8 8 0 01-.4-1.4l1-.7z"></path><path d="M95.8 127.4c-.2.1-.4.6-1.2.8-.4.1 0 1 .3 1.4.3.5 1.2-.3 1.4-.4l.5-.7c.3-.5-.8-1.2-1-1zm8.5 0c.2.1.4.6 1.2.8.4.1 0 1-.3 1.4-.3.5-1.2-.3-1.4-.4l-.5-.7c-.3-.5.8-1.2 1-1z"></path><path d="M103.4 125c0 .9 1 2.2 1 2.5s-.5.2-.8.6c-.4.4-.6 1-1.1 1.2-1.2.2-1.5.7-2.5.7s-1.2-.5-2.3-.7c-.6-.2-.8-.8-1.2-1.2-.3-.4-.7-.4-.7-.6s.9-1.7.9-2.6 6.7-.9 6.7 0zm19.1-22.8s.2 0 1.5-1c.8-.4 2-1.5 2.1-1.6.7-.4 1.3 1 .6 1.8-.4.4-1.3 1.1-2.5 1.8-1.5.7-1.7.5-1.7.5l-.5-.9.5-.6zm-1.2 5.5l1.5-.8c.8-.4 1.9-1.3 2.1-1.4.7-.3 1.3.8.5 1.6-.3.3-1.4 1-2.6 1.5-1.4.6-1.7.4-1.7.4l-.4-.8.6-.5zm-43.8-5.5s-.2 0-1.6-1c-.7-.4-1.8-1.5-2-1.6-.7-.4-1.4 1-.6 1.8.4.4 1.3 1.1 2.5 1.8 1.5.7 1.7.5 1.7.5l.5-.9-.5-.6zm1.3 5.5l-1.6-.8-2.1-1.4c-.7-.3-1.3.8-.5 1.6.4.3 1.4 1 2.6 1.5 1.5.6 1.7.4 1.7.4l.4-.8-.5-.5z"></path><path d="M103.3 122c0 1 1.3 2.7 1.3 3 0 .2-.5.8-1 .9-.5 0-.4-.2-1 0-.5.2-1 .6-2.5.6s-2-.4-2.6-.6c-.6-.2-.4 0-1 0-.4-.1-1-.7-1-1 0-.2 1.4-2 1.4-2.9 0-.9 6.4-.9 6.4 0zm3.9-29.2c-.5-.5-.6-1.3 0-1.7.6-.4 1.4-.8 2.6-1.8.5-.4.7-1 .7-1l1.1-.6c.7-.2 1.4 0 1.6 0 .5.4 1 0 .9 1.4 0 .7-2.2 4.3-2.2 4.3s-.3.5-1.4.5c-1 0-1.1-.7-1.5-.4-.7.2-1.3-.2-1.8-.7zm9.3-.3s1.6-1.1 3-2.7l1.6-2.3c.7-.7 2.1.7 1.5 2-.5 1.3-5 4.7-5 4.7l-1-1v-.7zm1.3 5.9s1.8-1 3.2-2.2c.8-.6 2-2 2.3-2.1.7-.5 1.7 1 1 2a14 14 0 01-2.9 2.2c-1.5 1-3.1 1.8-3.1 1.8l-.6-1v-.7zm.4 5.7s.6 0 2.2-.7c1-.5 2.3-1.5 2.6-1.7.7-.3 1.3 1.2.4 2a11 11 0 01-3 1.7c-1.8.7-2 .4-2 .4l-.4-1 .2-.7zm-1.2 5.1s.5 0 2.1-.6c1-.3 2.3-1.2 2.6-1.3.8-.3 1.3 1.2.3 1.9-.5.3-1.7.9-3 1.3-1.8.5-2 .2-2 .2l-.4-1 .3-.5zM92.8 92.8c.5-.5.6-1.3 0-1.7-.6-.4-1.4-.8-2.6-1.8-.5-.4-.7-1-.7-1l-1.1-.6c-.7-.2-1.4 0-1.6 0-.5.4-1 0-.9 1.4 0 .7 2.2 4.3 2.2 4.3s.3.5 1.4.5c1 0 1.1-.7 1.5-.4.7.2 1.3-.2 1.8-.7zm-9.3-.3s-1.6-1.1-3-2.7L79 87.5c-.7-.7-2.1.7-1.5 2 .5 1.3 5 4.7 5 4.7l1-1v-.7zm-1.3 5.9s-1.8-1-3.2-2.2c-.8-.6-2-2-2.3-2.1-.7-.5-1.7 1-1 2a14 14 0 002.9 2.2 33 33 0 003.1 1.8l.6-1v-.7zm-.4 5.7s-.6 0-2.2-.7c-1-.5-2.3-1.5-2.6-1.7-.7-.3-1.3 1.2-.4 2a11 11 0 003 1.7c1.8.7 2 .4 2 .4l.4-1-.2-.7zm1.2 5.1s-.5 0-2.1-.6c-1-.3-2.4-1.2-2.6-1.3-.8-.3-1.3 1.2-.3 1.9.5.3 1.7.9 3 1.3 1.8.5 2 .2 2 .2l.4-1-.3-.5z"></path><path d="M100 123.6c1.6 0 3-.8 3.6-1h1c.5 0 1-.7 1-1 0-.3-1.4-2.1-1.4-3 0-1-8.4-1-8.4 0s-1.4 2.7-1.4 3c0 .3.5 1 1 1h1c.7.2 2 1 3.6 1m7.5-31s3.1.2 3.4 1.1c.3 1-.6 1.7-2 2-1.5.3-2.4-2.4-2.4-2.4-.2-1.6 1-.7 1-.7zm2.4 4.8s2.2-1 4-2.5c1.6-1.4 2.8-2.7 3-2.9.2 0 .5.1.8.6.3.5.5 1.2.3 1.4 0 .2-1.8 2-3.7 3.2l-4 2-.4-1.8zm.1 3.9s2.5-.2 4.4-1.2c1.7-.8 3.5-2 3.7-2 .2 0 .5.2.6.7v1.2c-.2.2-2.6 1.5-4.6 2.1-1.9.6-4.2.7-4.2.7v-1.5zm0 4s2.5.3 4.5-.2l4.1-1.3c.2 0 .4.3.5.8 0 .5-.1 1.1-.3 1.3a19.3 19.3 0 01-9.2 1l.4-1.6zm-1.3 4.7s2.5.3 4.5 0l4.1-1c.2 0 .4.3.4.7 0 .5-.1 1-.3 1.1-.2.2-2.8.7-4.8.8-2 .1-4.3-.3-4.3-.3l.4-1.3zM92.5 92.6s-3.1.2-3.4 1.1c-.3 1 .6 1.7 2 2 1.5.3 2.4-2.4 2.4-2.4.2-1.6-1-.7-1-.7zm-2.4 4.8s-2.2-1-4-2.5c-1.6-1.4-2.8-2.7-3-2.9-.2 0-.5.1-.8.6-.2.5-.4 1.2-.3 1.4 0 .2 1.8 2 3.8 3.2 1.9 1.1 3.9 2 3.9 2l.4-1.8zm-.1 3.9s-2.4-.2-4.4-1.2l-3.7-2c-.2 0-.4.2-.6.7v1.2a19 19 0 008.8 2.8v-1.5zm0 4s-2.5.3-4.5-.2l-4.1-1.3c-.2 0-.4.3-.4.8s0 1.1.2 1.3a19.3 19.3 0 009.2 1l-.4-1.6zm1.3 4.7s-2.5.3-4.5 0l-4-1c-.3 0-.5.3-.5.7 0 .5.1 1 .3 1.1.2.2 2.8.7 4.9.8 2 .1 4.2-.3 4.2-.3l-.4-1.3z"></path><path d="M104.8 114.4c0 1.1 1.5 3.1 1.5 3.4 0 .4-.6 1-1.2 1.2-.5 0-.4-.2-1 0s-1.9 1.3-4 1.3c-2.2 0-3.3-1.1-4-1.3s-.5 0-1.1 0c-.6-.1-1.2-.8-1.2-1.2 0-.3 1.5-2.3 1.5-3.4 0-1 9.5-1 9.5 0zm-.8-20.7s.8 0 1.4-.4c.6-.3 1.1-.9 1.1-.9l1 1.3c.6.7 1.4 1.4 1.4 1.6.1.3.2.5-.3.8-.5.3-2.7.4-3.2 1.3-.5.8-1.4-3.7-1.4-3.7zm1.9 4.3s1.5.2 2.7-.2c1-.4 1.7-.8 2-.8.1 0 .8 1.4.2 2-.5.8-4 1-4 1l-1-2zm.3 3s1.3.4 2.4.3c1 0 1.7-.3 1.9-.2.1 0 .4 1.4-.2 1.8-.6.5-3.7 0-3.7 0l-.4-1.9zm.1 3.4s1.2.6 2.3.7l2 .1s.1 1.5-.6 1.8c-.7.4-3.6-.7-3.6-.7v-2zm-1.2 4.6s1.2.6 2.3.7l1.9.2c.1 0 0 1.3-.6 1.6-.7.3-3.5-.8-3.5-.8V109zm-2.4-21.4c-.1-.7.5-3.1.2-3.4-.3-.2-1.4-.3-1.5 0a10 10 0 000 3.5c.3.8 1.5.6 1.3-.1zM96 93.7s-.7 0-1.3-.4c-.7-.3-1.2-.9-1.2-.9l-1 1.3c-.6.7-1.4 1.4-1.4 1.6-.1.3-.2.5.3.8.5.3 2.7.4 3.2 1.3.5.8 1.4-3.7 1.4-3.7zM94.1 98s-1.5.2-2.7-.2c-1-.4-1.7-.8-2-.8-.1 0-.8 1.4-.2 2 .5.8 4 1 4 1l1-2zm-.3 3s-1.2.4-2.4.3c-1 0-1.7-.3-1.8-.2-.2 0-.5 1.4.1 1.8s3.7 0 3.7 0l.4-1.9zm-.1 3.4s-1.2.6-2.4.7l-1.8.1c-.2 0-.2 1.5.5 1.8.7.4 3.6-.7 3.6-.7v-2zm1.1 4.6s-1.1.6-2.2.7l-1.9.2c-.1 0 0 1.3.6 1.6.7.3 3.5-.8 3.5-.8V109zm2.5-21.4c.1-.7-.4-3.1-.2-3.4.3-.2 1.4-.3 1.5 0 .1.1.3 2.8 0 3.5-.3.8-1.5.6-1.3-.1z"></path><path d="M94.8 110.6c0 1.2-1.6 3.3-1.6 3.7 0 .3.6 1 1.2 1.1.7.1.5-.2 1.2 0 .7.3 1.7 1.5 4.4 1.5 2.8 0 3.8-1.2 4.5-1.4.7-.2.5 0 1.2 0 .6-.2 1.2-.9 1.2-1.2 0-.4-1.6-2.5-1.6-3.7 0-1.1-10.5-1.1-10.5 0z"></path><path d="M95.5 91.3c-.5 1.9-.7 4.3-.7 4.3s-2.4 4-2.5 7.7c0 4.2 1.9 8.2 2.2 8.6.4.4 1.5 1.2 5.5 1.2s5-.8 5.4-1.2c.4-.4 2.3-4.4 2.3-8.6 0-3.7-2.6-7.7-2.6-7.7s-.1-2.4-.6-4.3a16 16 0 00-1.3-3.2c-.3-.5-.4-1.3-.3-1.7.2-.7.3-1.8 0-1.8-.2 0-1.5 2.6-2 2.5H99c-.6.1-1.9-2.5-2.1-2.5-.3 0-.1 1 0 1.8.1.4 0 1.2-.3 1.7-.4.7-.7 1.3-1.2 3.2z"></path><path fill="#333" d="M103.7 91s0-.6-.8-1c-.3-.2-1-.2-1.2.6-.2.8.8 1.8.8 1.8l1.8-.2-.6-1.1zm-7.4 0s0-.6.8-1c.3-.2 1-.2 1.2.6.2.8-.8 1.8-.8 1.8l-1.8-.2.6-1.1z"></path><path d="M103.4 103s-1.5 4.9-.7 9.9c0 0-1 .2-2.7.2-1.7 0-2.7-.2-2.7-.2.8-5-.7-10-.7-10l2.6-2.6 4.2 2.7z"></path><path d="M100 80.7s.4 5 1.4 8.2c.5 1.3 1 2.3 1.4 2.9.1.3.4.5.8 0l.1-1.1c.2-.4.6-.3.6-.3s1.4 2.6 1.4 5.2c0 3.4-1.8 5.4-2.3 7.4-.4 0-1.4-.3-3.4-.3s-3 .3-3.3.3c-.5-2-2.3-4-2.3-7.4 0-2.6 1.4-5.2 1.4-5.2s.3-.1.5.3c.2.3 0 .8.2 1 .3.6.6.4.8 0l1.3-2.8c1-3.1 1.3-8.3 1.4-8.2z"></path><path fill="#000" stroke="none" d="M96.5 114.7a7.5 7.5 0 007 0 5.4 5.4 0 01-7 0zm6.8 3.6a5.3 5.3 0 01-6.6 0c2.3 1 4.2 1 6.6 0zm-6.3 3.5a5.1 5.1 0 006.1 0 7 7 0 01-6.1 0zm.4 3.2a7 7 0 005.4 0 4.8 4.8 0 01-5.4 0zm-2.5-56.2a25 25 0 01-2.6 11.8c1.1-3.7 2.4-7.3 2.6-11.8zm-3.9 15c-1.1-.2-1.9-1-1.9-1.9.4 1 .7 1.3 1.9 1.9zm-.3-16.7c-4 4.7-5.4 14.5-5.3 19.5.8-5.5 1-12 5.3-19.5zm14.3 1.7c0 4 1.4 8.2 2.5 11.8-1.4-3.2-3.2-8.3-2.5-11.8zm3.8 15c1.3-.6 1.7-1.2 1.9-1.9 0 1.2-1.3 1.8-1.9 1.9zm5.6 2.7a44.2 44.2 0 00-5.2-19.4c3.8 4.4 5.3 13.5 5.2 19.4z"></path></g><radialGradient id="backlight_provinceCOA48" cx="100%" cy="100%" r="150%"><stop stop-color="#fff" stop-opacity=".3" offset="0"></stop><stop stop-color="#fff" stop-opacity=".15" offset=".25"></stop><stop stop-color="#000" stop-opacity="0" offset="1"></stop></radialGradient></defs>
        <g clip-path="url(#boeotian_provinceCOA48)"><rect x="0" y="0" width="200" height="200" fill="#ffe066"></rect><g clip-path="url(#divisionClip_provinceCOA48)"><rect x="0" y="0" width="200" height="200" fill="#d7374a"></rect></g><g fill="#377cd7" stroke="none"><rect width="37.5%" height="37.5%"></rect></g><g fill="#333333" stroke="#000"><use href="#anchor_provinceCOA48" transform="translate(-4.999999999999982 -4.999999999999982) scale(1.0499999999999998)"></use></g><g fill="#fafafa" stroke="#000"><use href="#cancer_provinceCOA48" transform="translate(14.5 14.5) scale(0.375)"></use></g></g>
        <path d="M150 115c-5 0-10-5-10-15s5-15 10-15c10 0 7 10 15 10 10 0 0-30 0-30-10-25-30-55-65-55S45 40 35 65c0 0-10 30 0 30 8 0 5-10 15-10 5 0 10 5 10 15s-5 15-10 15c-10 0-7-10-15-10-10 0 0 30 0 30 10 25 30 55 65 55s55-30 65-55c0 0 10-30 0-30-8 0-5 10-15 10z" fill="url(#backlight_provinceCOA48)" stroke="#333"></path></svg>