<svg xmlns="http://www.w3.org/2000/svg" id="provinceCOA164" width="200" height="200" viewBox="0 0 200 200">
        <defs><clipPath id="pavise_provinceCOA164"><path d="M95 7L39.9 37.3a10 10 0 00-5.1 9.5L46 180c.4 5.2 3.7 10 9 10h90c5.3 0 9.6-4.8 10-10l10.6-133.2a10 10 0 00-5-9.5L105 7c-4.2-2.3-6.2-2.3-10 0z"></path></clipPath><pattern id="gemelles-argent-gules" width="0.125" height="0.125" viewBox="0 0 50 50"><rect width="50" height="50" fill="#fafafa"></rect><rect y="5" width="50" height="10" fill="#d7374a"></rect><rect y="40" width="50" height="10" fill="#d7374a"></rect></pattern><radialGradient id="backlight_provinceCOA164" cx="100%" cy="100%" r="150%"><stop stop-color="#fff" stop-opacity=".3" offset="0"></stop><stop stop-color="#fff" stop-opacity=".15" offset=".25"></stop><stop stop-color="#000" stop-opacity="0" offset="1"></stop></radialGradient></defs>
        <g clip-path="url(#pavise_provinceCOA164)"><rect x="0" y="0" width="200" height="200" fill="url(#gemelles-argent-gules)"></rect><g fill="#522d5b" stroke="none"><rect x="75" y="0" width="50" height="200"></rect></g></g>
        <path d="M95 7L39.9 37.3a10 10 0 00-5.1 9.5L46 180c.4 5.2 3.7 10 9 10h90c5.3 0 9.6-4.8 10-10l10.6-133.2a10 10 0 00-5-9.5L105 7c-4.2-2.3-6.2-2.3-10 0z" fill="url(#backlight_provinceCOA164)" stroke="#333"></path></svg>