<svg xmlns="http://www.w3.org/2000/svg" id="provinceCOA89" width="200" height="200" viewBox="0 10 200 200">
        <defs><clipPath id="spanish_provinceCOA89"><path d="m25,25 h150 v100 a75,75,0,0,1,-150,0 z"></path></clipPath><clipPath id="divisionClip_provinceCOA89"><path d="m 200,95 h -7 l 4,10 h -14 l 4,-10 h -14 l 4,10 h -14 l 4,-10 h -14 l 4,10 h -14 l 4,-10 h -14 l 4,10 h -14 l 4,-10 h -14 l 4,10 h -14 l 4,-10 H 93 l 4,10 H 83 L 87,95 H 73 l 4,10 H 63 L 67,95 H 53 l 4,10 H 43 L 47,95 H 33 l 4,10 H 23 L 27,95 H 13 l 4,10 H 3 L 7,95 H 0 v 20 h 200" transform="translate(161.66 10) rotate(66.66 -100 100) scale(-1 1)"></path><path d="m 200,95 h -7 l 4,10 h -14 l 4,-10 h -14 l 4,10 h -14 l 4,-10 h -14 l 4,10 h -14 l 4,-10 h -14 l 4,10 h -14 l 4,-10 h -14 l 4,10 h -14 l 4,-10 H 93 l 4,10 H 83 L 87,95 H 73 l 4,10 H 63 L 67,95 H 53 l 4,10 H 43 L 47,95 H 33 l 4,10 H 23 L 27,95 H 13 l 4,10 H 3 L 7,95 H 0 v 20 h 200" transform="translate(38.33 10) rotate(-66.66 100 100)"></path><polygon points="-2.15,0 84.15,200 115.85,200 202.15,0 200,200 0,200"></polygon></clipPath><g id="sword_provinceCOA89" stroke-width=".28"><path d="M96.6 118.8L98 69.2c0-1.8.7-9.2 2-9.2 1.2 0 2 7.4 2 9.2l1.4 49.6z"></path><path d="M98.5 133.8L97 120h5.8l-1.3 13.8z"></path><path d="M100 120.9c4.2 0 8.2-.2 12.4-.6l-.8-3.2c-2 .4-3.5 1.3-5.4 1.5-2 .3-4.7-.3-6.2-.6-1.5.3-4.1.9-6.2.6-2-.2-3.5-1-5.4-1.5l-.8 3.2c4.2.4 8.2.6 12.4.6zm0 19.1c2 0 3.6-1.5 3.6-3.5 0-1.5-1-2.7-2.2-3.3-.4.2-1 .3-1.6.3-.5 0-1 0-1.3-.2-1.2.6-2 1.8-2 3.2 0 2 1.5 3.5 3.5 3.5z"></path><g fill="none"><path d="M99 118.25s.4-39.35.9-39.35.9 39.35.9 39.35"></path><path d="M102.7 121.4c-.3.6-1.5.85-2.7.8-1.2-.05-2.4-.2-2.7-.8m5.1 2.5c-.2.5-1.3.7-2.4.7-1 0-2.2-.3-2.4-.7m4.6 2.3c-.2.4-1.2.6-2.2.6s-2-.2-2.2-.6m4.2 2.3c-.2.4-1 .6-2 .6-.9 0-1.8-.2-2-.6m3.7 2.3c-.2.4-1 .5-1.7.5s-1.5-.1-1.7-.5"></path><path d="M97.6 137.1a2.4 2.4 0 014.8 0c0 1.3-1 2.3-2.4 2.3-1.3 0-2.4-1-2.4-2.3z"></path><path d="M100 118v2.9"></path></g></g><radialGradient id="backlight_provinceCOA89" cx="100%" cy="100%" r="150%"><stop stop-color="#fff" stop-opacity=".3" offset="0"></stop><stop stop-color="#fff" stop-opacity=".15" offset=".25"></stop><stop stop-color="#000" stop-opacity="0" offset="1"></stop></radialGradient></defs>
        <g clip-path="url(#spanish_provinceCOA89)"><rect x="0" y="0" width="200" height="200" fill="#522d5b"></rect><g clip-path="url(#divisionClip_provinceCOA89)"><rect x="0" y="0" width="200" height="200" fill="#ffe066"></rect></g><g fill="#fafafa" stroke="none"><path d="m 3,95 v 5 h 5 v 5 H 0 v 10 h 200 l 0.5,-10 H 193 v -5 h 5 v -5 h -15 v 5 h 5 v 5 h -15 v -5 h 5 v -5 h -15 v 5 h 5 v 5 h -15 v -5 h 5 v -5 h -15 v 5 h 5 v 5 h -15 v -5 h 5 v -5 h -15 v 5 h 5 v 5 h -15 v -5 h 5 v -5 h -15 v 5 h 5 v 5 H 100.5 93 v -5 h 5 V 95 H 83 v 5 h 5 v 5 H 73 v -5 h 5 V 95 H 63 v 5 h 5 v 5 H 53 v -5 h 5 V 95 H 43 v 5 h 5 v 5 H 33 v -5 h 5 V 95 H 23 v 5 h 5 v 5 H 13 v -5 h 5 v -5 z" transform="translate(0 -25)"></path><path d="m 3,95 v 5 h 5 v 5 H 0 v 10 h 200 l 0.5,-10 H 193 v -5 h 5 v -5 h -15 v 5 h 5 v 5 h -15 v -5 h 5 v -5 h -15 v 5 h 5 v 5 h -15 v -5 h 5 v -5 h -15 v 5 h 5 v 5 h -15 v -5 h 5 v -5 h -15 v 5 h 5 v 5 h -15 v -5 h 5 v -5 h -15 v 5 h 5 v 5 H 100.5 93 v -5 h 5 V 95 H 83 v 5 h 5 v 5 H 73 v -5 h 5 V 95 H 63 v 5 h 5 v 5 H 53 v -5 h 5 V 95 H 43 v 5 h 5 v 5 H 33 v -5 h 5 V 95 H 23 v 5 h 5 v 5 H 13 v -5 h 5 v -5 z" transform="translate(0 25) rotate(180 100 100)"></path><rect x="0" y="88" width="200" height="24" stroke="none"></rect></g><g fill="#333333" stroke="#000"><use href="#sword_provinceCOA89" transform="translate(6.25 150) scale(0.5 -0.5)"></use><use href="#sword_provinceCOA89" transform="translate(50 150) scale(0.5 -0.5)"></use><use href="#sword_provinceCOA89" transform="translate(93.75 150) scale(0.5 -0.5)"></use></g></g>
        <path d="m25,25 h150 v100 a75,75,0,0,1,-150,0 z" fill="url(#backlight_provinceCOA89)" stroke="#333"></path></svg>