<svg xmlns="http://www.w3.org/2000/svg" id="provinceCOA78" width="200" height="200" viewBox="0 10 200 200">
        <defs><clipPath id="spanish_provinceCOA78"><path d="m25,25 h150 v100 a75,75,0,0,1,-150,0 z"></path></clipPath><g id="mullet7_provinceCOA78"><polygon points="100 60 106.63 86.23 131.27 75.06 114.9 96.6 139 108.9 111.95 109.53 117.36 136.04 100 115.28 82.64 136.04 88.05 109.53 61 108.9 85.1 96.6 68.73 75.06 93.37 86.23"></polygon></g><radialGradient id="backlight_provinceCOA78" cx="100%" cy="100%" r="150%"><stop stop-color="#fff" stop-opacity=".3" offset="0"></stop><stop stop-color="#fff" stop-opacity=".15" offset=".25"></stop><stop stop-color="#000" stop-opacity="0" offset="1"></stop></radialGradient></defs>
        <g clip-path="url(#spanish_provinceCOA78)"><rect x="0" y="0" width="200" height="200" fill="#fafafa"></rect><g fill="#522d5b" stroke="#000"><use href="#mullet7_provinceCOA78" transform="translate(50 0) scale(0.5)"></use><use href="#mullet7_provinceCOA78" transform="translate(50 100) scale(0.5)"></use><use href="#mullet7_provinceCOA78" transform="translate(6.25 50) scale(0.5)"></use><use href="#mullet7_provinceCOA78" transform="translate(93.75 50) scale(0.5)"></use></g></g>
        <path d="m25,25 h150 v100 a75,75,0,0,1,-150,0 z" fill="url(#backlight_provinceCOA78)" stroke="#333"></path></svg>