<svg xmlns="http://www.w3.org/2000/svg" id="provinceCOA26" width="200" height="200" viewBox="0 10 200 200">
        <defs><clipPath id="wedged_provinceCOA26"><path d="m 51.2,19 h 96.4 c 3.1,12.7 10.7,20.9 26.5,20.8 C 175.7,94.5 165.3,144.3 100,200 43.5,154.2 22.8,102.8 25.1,39.7 37,38.9 47.1,34.7 51.2,19 Z"></path></clipPath><g id="orb_provinceCOA26" stroke-width="3" transform="translate(8.877 101.743) scale(.1125)"><path d="M831.8-33.2v-193h64.4a26.23 26.23 0 0024.1 36.5 26.14 26.14 0 0025.3-32.5c1.1.2 2.3.2 3.5.2 14.4 0 26.2-11.7 26.2-26.2 0-14.4-11.7-26.2-26.2-26.2-1.2 0-2.3.1-3.5.2.5-2 .8-4.1.8-6.3a26.2 26.2 0 00-26.1-26.2 26.23 26.23 0 00-24.1 36.5h-64.4V-326a26.23 26.23 0 0036.5-24.1 26.14 26.14 0 00-32.5-25.3c.2-1.1.2-2.3.2-3.5 0-14.4-11.7-26.2-26.2-26.2-14.4 0-26.2 11.7-26.2 26.2 0 1.2.1 2.3.2 3.5-2-.5-4.1-.8-6.3-.8a26.2 26.2 0 00-26.2 26.1 26.23 26.23 0 0036.5 24.1v56.1h-64.4a26.23 26.23 0 00-24.1-36.5c-14.4 0-26.2 11.7-26.2 26.2 0 2.2.3 4.3.8 6.3-1.1-.1-2.3-.2-3.5-.2a26.14 26.14 0 100 52.3c1.2 0 2.3-.1 3.5-.2-.5 2-.8 4.1-.8 6.3 0 14.4 11.7 26.2 26.2 26.2a26.23 26.23 0 0024.1-36.5h64.4v193"></path><path d="M955.7-26.1c0 54.1-57.8 98-145.8 98-87.9 0-145.8-43.9-145.8-98 0-35.6 57.1-94.4 145.8-94.4 88.7-.1 145.8 53.6 145.8 94.4z"></path><path d="M1029.8 126.2c0 121.4-98.4 219.8-219.8 219.8s-219.8-98.4-219.8-219.8C590.1 4.8 688.5-93.6 810-93.6c121.4 0 219.8 98.4 219.8 219.8z"></path><path d="M809.9 193.5c85.6 0 151.1 18.6 189.8 43.5 0 0 8.9 3.4 14.4-7.1s-1.6-18.4-1.6-18.4c-6.8-4.2-14.2-8.3-22.1-12.2-40.3-19.7-113.5-34.2-180.5-34.2s-140.7 13.3-180.5 34.2c-7.8 4.1-15.3 8-22.1 12.2 0 0-3.6 9.3-.7 17.3 3 8 13.5 8.1 13.5 8.1 38.7-24.8 104.3-43.4 189.8-43.4z"></path><path d="M590.2 123.6c43.5-21.6 95.8-36.4 152.2-43l25-2.9V-89.5s-3.3-5.2-14.2-3.8C742.3-91.9 739-81.9 739-81.9V52.4c-52.8 6.2-102.7 19.3-146 38.5 0 0-8.2 4.2-9.1 16-.8 11.9 6.3 16.7 6.3 16.7z"></path><path d="M1027.9 123.6c-43.5-21.6-95.8-36.4-152.2-43l-25-2.9V-89.5s3.3-5.2 14.2-3.8c10.9 1.4 14.2 11.4 14.2 11.4V52.4c52.9 6.2 102.8 19.3 146.1 38.5 0 0 8.2 4.2 9.1 16 .8 11.9-6.4 16.7-6.4 16.7z"></path><ellipse cx="809.9" cy="114.7" rx="30.1" ry="31.3"></ellipse><ellipse cx="809.9" cy="34.8" rx="26.3" ry="27.3"></ellipse><ellipse cx="893.8" cy="126.2" rx="26.3" ry="27.3"></ellipse><path d="M993.7 146c0 15.1-11.8 27.3-26.3 27.3s-26.3-12.2-26.3-27.3c0-15.1 11.8-27.3 26.3-27.3 14.5-.1 26.3 12.2 26.3 27.3z"></path><ellipse cx="809.9" cy="-45.1" rx="26.3" ry="27.3"></ellipse><path d="M1010.1 190.4c15.5 5.9 25 .4 29.9-12.4 4.9-12.8 3.3-28-12.2-33.9 0 0-7.7-2-14.7 20-7.1 22-3 26.3-3 26.3z"></path><ellipse cx="724.6" cy="126.2" rx="26.3" ry="27.3"></ellipse><path d="M624.7 146c0 15.1 11.8 27.3 26.3 27.3s26.3-12.2 26.3-27.3c0-15.1-11.8-27.3-26.3-27.3-14.6-.1-26.3 12.2-26.3 27.3z"></path><path d="M608.3 190.4c-15.5 5.9-25 .4-29.9-12.4-4.9-12.8-3.3-28 12.2-33.9 0 0 7.7-2 14.7 20 7.1 22 3 26.3 3 26.3z"></path><rect width="73" height="73" x="773.4" y="-286"></rect><rect width="47.5" height="47.5" x="786.2" y="-273.2"></rect></g><radialGradient id="backlight_provinceCOA26" cx="100%" cy="100%" r="150%"><stop stop-color="#fff" stop-opacity=".3" offset="0"></stop><stop stop-color="#fff" stop-opacity=".15" offset=".25"></stop><stop stop-color="#000" stop-opacity="0" offset="1"></stop></radialGradient></defs>
        <g clip-path="url(#wedged_provinceCOA26)"><rect x="0" y="0" width="200" height="200" fill="#ffe066"></rect><g fill="#377cd7" stroke="#000"><use href="#orb_provinceCOA26" transform="translate(-42.499999999999986 -42.499999999999986) scale(1.4249999999999998)"></use></g></g>
        <path d="m 51.2,19 h 96.4 c 3.1,12.7 10.7,20.9 26.5,20.8 C 175.7,94.5 165.3,144.3 100,200 43.5,154.2 22.8,102.8 25.1,39.7 37,38.9 47.1,34.7 51.2,19 Z" fill="url(#backlight_provinceCOA26)" stroke="#333"></path></svg>