<svg xmlns="http://www.w3.org/2000/svg" id="provinceCOA219" width="200" height="200" viewBox="0 5 200 200">
        <defs><clipPath id="renaissance_provinceCOA219"><path d="M 25,33.9 C 33.4,50.3 36.2,72.9 36.2,81.7 36.2,109.9 25,122.6 25,141 c 0,29.4 24.9,44.1 40.2,47.7 15.3,3.7 29.3,0 34.8,11.3 5.5,-11.3 19.6,-7.6 34.8,-11.3 C 150.1,185 175,170.3 175,141 c 0,-18.4 -11.2,-31.1 -11.2,-59.3 0,-8.8 2.8,-31.3 11.2,-47.7 L 155.7,14.4 C 138.2,21.8 119.3,25.7 100,25.7 c -19.3,0 -38.2,-3.9 -55.7,-11.3 z"></path></clipPath><g id="mullet4_provinceCOA219"><polygon points="100 60 109.9 90.1 140 100 109.9 109.9 100 140 90.1 109.9 60 100 90.1 90.1"></polygon></g><g id="annulet_provinceCOA219"><path d="M70 100c0 16.569 13.431 30 30 30 16.569 0 30-13.431 30-30 0-16.569-13.431-30-30-30-16.569 0-30 13.431-30 30m10 0c0-11.046 8.954-20 20-20s20 8.954 20 20-8.954 20-20 20-20-8.954-20-20"></path></g><pattern id="masoned-vert-or" width="0.125" height="0.125" viewBox="0 0 100 100" fill="none"><rect width="100" height="100" fill="#26c061"></rect><rect width="100" height="50" stroke="#ffe066" stroke-width="4"></rect><line x1="50" y1="50" x2="50" y2="100" stroke="#ffe066" stroke-width="5"></line></pattern><radialGradient id="backlight_provinceCOA219" cx="100%" cy="100%" r="150%"><stop stop-color="#fff" stop-opacity=".3" offset="0"></stop><stop stop-color="#fff" stop-opacity=".15" offset=".25"></stop><stop stop-color="#000" stop-opacity="0" offset="1"></stop></radialGradient></defs>
        <g clip-path="url(#renaissance_provinceCOA219)"><rect x="0" y="0" width="200" height="200" fill="url(#masoned-vert-or)"></rect><g fill="#377cd7" stroke="none"><rect width="37.5%" height="37.5%"></rect></g><g fill="#fafafa" stroke="#000"><use href="#mullet4_provinceCOA219" transform="translate(-39.99999999999999 -39.99999999999999) scale(1.4)"></use></g><g fill="#fafafa" stroke="#000"><use href="#annulet_provinceCOA219" transform="translate(0 0) scale(0.5)"></use></g></g>
        <path d="M 25,33.9 C 33.4,50.3 36.2,72.9 36.2,81.7 36.2,109.9 25,122.6 25,141 c 0,29.4 24.9,44.1 40.2,47.7 15.3,3.7 29.3,0 34.8,11.3 5.5,-11.3 19.6,-7.6 34.8,-11.3 C 150.1,185 175,170.3 175,141 c 0,-18.4 -11.2,-31.1 -11.2,-59.3 0,-8.8 2.8,-31.3 11.2,-47.7 L 155.7,14.4 C 138.2,21.8 119.3,25.7 100,25.7 c -19.3,0 -38.2,-3.9 -55.7,-11.3 z" fill="url(#backlight_provinceCOA219)" stroke="#333"></path></svg>