<svg xmlns="http://www.w3.org/2000/svg" id="provinceCOA221" width="200" height="200" viewBox="0 5 200 200">
        <defs><clipPath id="renaissance_provinceCOA221"><path d="M 25,33.9 C 33.4,50.3 36.2,72.9 36.2,81.7 36.2,109.9 25,122.6 25,141 c 0,29.4 24.9,44.1 40.2,47.7 15.3,3.7 29.3,0 34.8,11.3 5.5,-11.3 19.6,-7.6 34.8,-11.3 C 150.1,185 175,170.3 175,141 c 0,-18.4 -11.2,-31.1 -11.2,-59.3 0,-8.8 2.8,-31.3 11.2,-47.7 L 155.7,14.4 C 138.2,21.8 119.3,25.7 100,25.7 c -19.3,0 -38.2,-3.9 -55.7,-11.3 z"></path></clipPath><clipPath id="divisionClip_provinceCOA221"><rect x="0" y="100" width="200" height="100"></rect></clipPath><g id="fusil_provinceCOA221"><polygon points="100 55 130 100 100 145 70 100"></polygon></g><g id="annulet_provinceCOA221"><path d="M70 100c0 16.569 13.431 30 30 30 16.569 0 30-13.431 30-30 0-16.569-13.431-30-30-30-16.569 0-30 13.431-30 30m10 0c0-11.046 8.954-20 20-20s20 8.954 20 20-8.954 20-20 20-20-8.954-20-20"></path></g><radialGradient id="backlight_provinceCOA221" cx="100%" cy="100%" r="150%"><stop stop-color="#fff" stop-opacity=".3" offset="0"></stop><stop stop-color="#fff" stop-opacity=".15" offset=".25"></stop><stop stop-color="#000" stop-opacity="0" offset="1"></stop></radialGradient></defs>
        <g clip-path="url(#renaissance_provinceCOA221)"><rect x="0" y="0" width="200" height="200" fill="#522d5b"></rect><g fill="#fafafa" stroke="#000"><use href="#fusil_provinceCOA221" transform="translate(21 27) scale(0.18)"></use><use href="#fusil_provinceCOA221" transform="translate(59 15) scale(0.18)"></use><use href="#fusil_provinceCOA221" transform="translate(105 15) scale(0.18)"></use><use href="#fusil_provinceCOA221" transform="translate(143 27) scale(0.18)"></use><use href="#fusil_provinceCOA221" transform="translate(137 71) scale(0.18)"></use><use href="#fusil_provinceCOA221" transform="translate(147 113) scale(0.18)"></use><use href="#fusil_provinceCOA221" transform="translate(127 158) scale(0.18)"></use><use href="#fusil_provinceCOA221" transform="translate(82 169) scale(0.18)"></use><use href="#fusil_provinceCOA221" transform="translate(37 158) scale(0.18)"></use><use href="#fusil_provinceCOA221" transform="translate(17 113) scale(0.18)"></use><use href="#fusil_provinceCOA221" transform="translate(27 71) scale(0.18)"></use></g><g clip-path="url(#divisionClip_provinceCOA221)"><rect x="0" y="0" width="200" height="200" fill="#fafafa"></rect><g fill="#522d5b" stroke="#000"><use href="#fusil_provinceCOA221" transform="translate(21 27) scale(0.18)"></use><use href="#fusil_provinceCOA221" transform="translate(59 15) scale(0.18)"></use><use href="#fusil_provinceCOA221" transform="translate(105 15) scale(0.18)"></use><use href="#fusil_provinceCOA221" transform="translate(143 27) scale(0.18)"></use><use href="#fusil_provinceCOA221" transform="translate(137 71) scale(0.18)"></use><use href="#fusil_provinceCOA221" transform="translate(147 113) scale(0.18)"></use><use href="#fusil_provinceCOA221" transform="translate(127 158) scale(0.18)"></use><use href="#fusil_provinceCOA221" transform="translate(82 169) scale(0.18)"></use><use href="#fusil_provinceCOA221" transform="translate(37 158) scale(0.18)"></use><use href="#fusil_provinceCOA221" transform="translate(17 113) scale(0.18)"></use><use href="#fusil_provinceCOA221" transform="translate(27 71) scale(0.18)"></use></g></g><g fill="#ffe066" stroke="none"><rect width="37.5%" height="37.5%"></rect></g><g fill="#377cd7" stroke="#000"><use href="#annulet_provinceCOA221" transform="translate(0 0) scale(0.5)"></use></g></g>
        <path d="M 25,33.9 C 33.4,50.3 36.2,72.9 36.2,81.7 36.2,109.9 25,122.6 25,141 c 0,29.4 24.9,44.1 40.2,47.7 15.3,3.7 29.3,0 34.8,11.3 5.5,-11.3 19.6,-7.6 34.8,-11.3 C 150.1,185 175,170.3 175,141 c 0,-18.4 -11.2,-31.1 -11.2,-59.3 0,-8.8 2.8,-31.3 11.2,-47.7 L 155.7,14.4 C 138.2,21.8 119.3,25.7 100,25.7 c -19.3,0 -38.2,-3.9 -55.7,-11.3 z" fill="url(#backlight_provinceCOA221)" stroke="#333"></path></svg>