<svg xmlns="http://www.w3.org/2000/svg" id="provinceCOA133" width="200" height="200" viewBox="0 0 200 200">
        <defs><clipPath id="polish_provinceCOA133"><path d="m 90.3,6.3 c -12.7,0 -20.7,10.9 -40.5,14 0,11.8 -4.9,23.5 -11.4,31.1 0,0 12.7,6 12.7,19.3 C 51.1,90.8 30,90.8 30,90.8 c 0,0 -3.6,7.4 -3.6,22.4 0,34.3 23.1,60.2 40.7,68.2 17.6,8 27.7,11.4 32.9,18.6 5.2,-7.3 15.3,-10.7 32.8,-18.6 17.6,-8 40.7,-33.9 40.7,-68.2 0,-15 -3.6,-22.4 -3.6,-22.4 0,0 -21.1,0 -21.1,-20.1 0,-13.3 12.7,-19.3 12.7,-19.3 C 155.1,43.7 150.2,32.1 150.2,20.3 130.4,17.2 122.5,6.3 109.7,6.3 102.5,6.3 100,10 100,10 c 0,0 -2.5,-3.7 -9.7,-3.7 z"></path></clipPath><g id="mullet7_provinceCOA133"><polygon points="100 60 106.63 86.23 131.27 75.06 114.9 96.6 139 108.9 111.95 109.53 117.36 136.04 100 115.28 82.64 136.04 88.05 109.53 61 108.9 85.1 96.6 68.73 75.06 93.37 86.23"></polygon></g><radialGradient id="backlight_provinceCOA133" cx="100%" cy="100%" r="150%"><stop stop-color="#fff" stop-opacity=".3" offset="0"></stop><stop stop-color="#fff" stop-opacity=".15" offset=".25"></stop><stop stop-color="#000" stop-opacity="0" offset="1"></stop></radialGradient></defs>
        <g clip-path="url(#polish_provinceCOA133)"><rect x="0" y="0" width="200" height="200" fill="#ffe066"></rect><g fill="#333333" stroke="none"><path d="m 13.1,89.8 c -4.1,0 -7.3,2 -7.3,4.5 0,1.2 0.7,2.3 1.8,3.1 1.2,0.7 1.9,1.8 1.9,3 0,2.5 -3.2,4.5 -7.3,4.5 -0.5,0 -2.2,-0.2 -2.2,-0.2 V 115 h 200 v -10.1 c -3.7,-0.2 -6.7,-2.2 -6.7,-4.5 0,-1.2 0.7,-2.3 1.9,-3 1.2,-0.8 1.8,-1.9 1.8,-3.1 0,-2.5 -3.2,-4.5 -7.2,-4.5 -4.1,0 -7.3,2 -7.3,4.5 0,1.2 0.7,2.3 1.8,3.1 1.2,0.7 1.9,1.8 1.9,3 0,2.5 -3.3,4.5 -7.3,4.5 -4,0 -7.3,-2 -7.3,-4.5 0,-1.2 0.7,-2.3 1.9,-3 1.2,-0.8 1.8,-1.9 1.8,-3.1 0,-2.5 -3.2,-4.5 -7.2,-4.5 -4.1,0 -7.3,2 -7.3,4.5 0,1.2 0.7,2.3 1.8,3.1 1.2,0.7 1.9,1.8 1.9,3 -1.5,4.1 -4.2,4.4 -8.8,4.5 -4.7,-0.1 -8.7,-1.5 -8.9,-4.5 0,-1.2 0.7,-2.3 1.9,-3 1.2,-0.8 1.9,-1.9 1.9,-3.1 0,-2.5 -3.3,-4.5 -7.3,-4.5 -4.1,0 -7.3,2 -7.3,4.5 0,1.2 0.7,2.3 1.8,3.1 1.2,0.7 1.9,1.8 1.9,3 0,2.5 -3.3,4.5 -7.3,4.5 -4,0 -7.3,-2 -7.3,-4.5 0,-1.2 0.7,-2.3 1.9,-3 1.2,-0.8 1.9,-1.9 1.9,-3.1 0,-2.5 -3.3,-4.5 -7.3,-4.5 -4.1,0 -7.3,2 -7.3,4.5 0,1.2 0.7,2.3 1.8,3.1 1.2,0.7 1.9,1.8 1.9,3 0,2.5 -3.3,4.5 -7.3,4.5 -4,0 -7.3,-2 -7.3,-4.5 0,-1.2 0.7,-2.3 1.9,-3 1.2,-0.8 1.9,-1.9 1.9,-3.1 0,-2.5 -3.3,-4.5 -7.3,-4.5 -4.1,0 -7.3,2 -7.3,4.5 0,1.2 0.7,2.3 1.8,3.1 1.2,0.7 1.9,1.8 1.9,3 0,2.5 -3.3,4.5 -7.3,4.5 -4,0 -7.3,-2 -7.3,-4.5 0,-1.2 0.7,-2.3 1.9,-3 1.2,-0.8 1.9,-1.9 1.9,-3.1 0,-2.5 -3.3,-4.5 -7.3,-4.5 -4.1,0 -7.3,2 -7.3,4.5 0,1.2 0.7,2.3 1.8,3.1 1.2,0.7 1.9,1.8 1.9,3 0,2.5 -3.3,4.5 -7.3,4.5 -4,0 -7.3,-2 -7.3,-4.5 0,-1.2 0.7,-2.3 1.9,-3 1.2,-0.8 1.9,-1.9 1.9,-3.1 0,-2.5 -3.3,-4.5 -7.3,-4.5 -4.1,0 -7.3,2 -7.3,4.5 0,1.2 0.7,2.3 1.8,3.1 1.2,0.7 1.9,1.8 1.9,3 0,2.5 -3.3,4.5 -7.3,4.5 -4,0 -7.3,-2 -7.3,-4.5 0,-1.2 0.7,-2.3 1.9,-3 1.2,-0.8 1.9,-1.9 1.9,-3.1 0,-2.5 -3.3,-4.5 -7.3,-4.5 -4.1,0 -7.3,2 -7.3,4.5 0,1.2 0.7,2.3 1.8,3.1 1.2,0.7 1.9,1.8 1.9,3 0,2.5 -3.3,4.5 -7.3,4.5 -4,0 -7.3,-2 -7.3,-4.5 0,-1.2 0.7,-2.3 1.9,-3 1.2,-0.8 1.9,-1.9 1.9,-3.1 0,-2.5 -3.3,-4.5 -7.3,-4.5 z" transform="translate(0 -25)"></path><path d="m 13.1,89.8 c -4.1,0 -7.3,2 -7.3,4.5 0,1.2 0.7,2.3 1.8,3.1 1.2,0.7 1.9,1.8 1.9,3 0,2.5 -3.2,4.5 -7.3,4.5 -0.5,0 -2.2,-0.2 -2.2,-0.2 V 115 h 200 v -10.1 c -3.7,-0.2 -6.7,-2.2 -6.7,-4.5 0,-1.2 0.7,-2.3 1.9,-3 1.2,-0.8 1.8,-1.9 1.8,-3.1 0,-2.5 -3.2,-4.5 -7.2,-4.5 -4.1,0 -7.3,2 -7.3,4.5 0,1.2 0.7,2.3 1.8,3.1 1.2,0.7 1.9,1.8 1.9,3 0,2.5 -3.3,4.5 -7.3,4.5 -4,0 -7.3,-2 -7.3,-4.5 0,-1.2 0.7,-2.3 1.9,-3 1.2,-0.8 1.8,-1.9 1.8,-3.1 0,-2.5 -3.2,-4.5 -7.2,-4.5 -4.1,0 -7.3,2 -7.3,4.5 0,1.2 0.7,2.3 1.8,3.1 1.2,0.7 1.9,1.8 1.9,3 -1.5,4.1 -4.2,4.4 -8.8,4.5 -4.7,-0.1 -8.7,-1.5 -8.9,-4.5 0,-1.2 0.7,-2.3 1.9,-3 1.2,-0.8 1.9,-1.9 1.9,-3.1 0,-2.5 -3.3,-4.5 -7.3,-4.5 -4.1,0 -7.3,2 -7.3,4.5 0,1.2 0.7,2.3 1.8,3.1 1.2,0.7 1.9,1.8 1.9,3 0,2.5 -3.3,4.5 -7.3,4.5 -4,0 -7.3,-2 -7.3,-4.5 0,-1.2 0.7,-2.3 1.9,-3 1.2,-0.8 1.9,-1.9 1.9,-3.1 0,-2.5 -3.3,-4.5 -7.3,-4.5 -4.1,0 -7.3,2 -7.3,4.5 0,1.2 0.7,2.3 1.8,3.1 1.2,0.7 1.9,1.8 1.9,3 0,2.5 -3.3,4.5 -7.3,4.5 -4,0 -7.3,-2 -7.3,-4.5 0,-1.2 0.7,-2.3 1.9,-3 1.2,-0.8 1.9,-1.9 1.9,-3.1 0,-2.5 -3.3,-4.5 -7.3,-4.5 -4.1,0 -7.3,2 -7.3,4.5 0,1.2 0.7,2.3 1.8,3.1 1.2,0.7 1.9,1.8 1.9,3 0,2.5 -3.3,4.5 -7.3,4.5 -4,0 -7.3,-2 -7.3,-4.5 0,-1.2 0.7,-2.3 1.9,-3 1.2,-0.8 1.9,-1.9 1.9,-3.1 0,-2.5 -3.3,-4.5 -7.3,-4.5 -4.1,0 -7.3,2 -7.3,4.5 0,1.2 0.7,2.3 1.8,3.1 1.2,0.7 1.9,1.8 1.9,3 0,2.5 -3.3,4.5 -7.3,4.5 -4,0 -7.3,-2 -7.3,-4.5 0,-1.2 0.7,-2.3 1.9,-3 1.2,-0.8 1.9,-1.9 1.9,-3.1 0,-2.5 -3.3,-4.5 -7.3,-4.5 -4.1,0 -7.3,2 -7.3,4.5 0,1.2 0.7,2.3 1.8,3.1 1.2,0.7 1.9,1.8 1.9,3 0,2.5 -3.3,4.5 -7.3,4.5 -4,0 -7.3,-2 -7.3,-4.5 0,-1.2 0.7,-2.3 1.9,-3 1.2,-0.8 1.9,-1.9 1.9,-3.1 0,-2.5 -3.3,-4.5 -7.3,-4.5 -4.1,0 -7.3,2 -7.3,4.5 0,1.2 0.7,2.3 1.8,3.1 1.2,0.7 1.9,1.8 1.9,3 0,2.5 -3.3,4.5 -7.3,4.5 -4,0 -7.3,-2 -7.3,-4.5 0,-1.2 0.7,-2.3 1.9,-3 1.2,-0.8 1.9,-1.9 1.9,-3.1 0,-2.5 -3.3,-4.5 -7.3,-4.5 z" transform="translate(0 25) rotate(180 100 100)"></path><rect x="0" y="88" width="200" height="24" stroke="none"></rect></g><g fill="#d7374a" stroke="#000"><use href="#mullet7_provinceCOA133" transform="translate(22.499999999999993 7.499999999999993) scale(0.425)"></use><use href="#mullet7_provinceCOA133" transform="translate(57.49999999999999 7.499999999999993) scale(0.425)"></use><use href="#mullet7_provinceCOA133" transform="translate(92.5 7.499999999999993) scale(0.425)"></use></g></g>
        <path d="m 90.3,6.3 c -12.7,0 -20.7,10.9 -40.5,14 0,11.8 -4.9,23.5 -11.4,31.1 0,0 12.7,6 12.7,19.3 C 51.1,90.8 30,90.8 30,90.8 c 0,0 -3.6,7.4 -3.6,22.4 0,34.3 23.1,60.2 40.7,68.2 17.6,8 27.7,11.4 32.9,18.6 5.2,-7.3 15.3,-10.7 32.8,-18.6 17.6,-8 40.7,-33.9 40.7,-68.2 0,-15 -3.6,-22.4 -3.6,-22.4 0,0 -21.1,0 -21.1,-20.1 0,-13.3 12.7,-19.3 12.7,-19.3 C 155.1,43.7 150.2,32.1 150.2,20.3 130.4,17.2 122.5,6.3 109.7,6.3 102.5,6.3 100,10 100,10 c 0,0 -2.5,-3.7 -9.7,-3.7 z" fill="url(#backlight_provinceCOA133)" stroke="#333"></path></svg>