<svg xmlns="http://www.w3.org/2000/svg" id="provinceCOA87" width="200" height="200" viewBox="0 0 200 200">
        <defs><clipPath id="boeotian_provinceCOA87"><path d="M150 115c-5 0-10-5-10-15s5-15 10-15c10 0 7 10 15 10 10 0 0-30 0-30-10-25-30-55-65-55S45 40 35 65c0 0-10 30 0 30 8 0 5-10 15-10 5 0 10 5 10 15s-5 15-10 15c-10 0-7-10-15-10-10 0 0 30 0 30 10 25 30 55 65 55s55-30 65-55c0 0 10-30 0-30-8 0-5 10-15 10z"></path></clipPath><g id="mulletPierced_provinceCOA87">
    <path d="M100 60l8.98 27.64h29.06l-23.51 17.08 8.98 27.64L100 115.28l-23.51 17.08 8.98-27.64-23.51-17.08h29.06z M 108,100 a 8,8 0 0 0 -8,-8 8,8 0 0 0 -8,8 8,8 0 0 0 8,8 8,8 0 0 0 8,-8 z"></path>
  </g><radialGradient id="backlight_provinceCOA87" cx="100%" cy="100%" r="150%"><stop stop-color="#fff" stop-opacity=".3" offset="0"></stop><stop stop-color="#fff" stop-opacity=".15" offset=".25"></stop><stop stop-color="#000" stop-opacity="0" offset="1"></stop></radialGradient></defs>
        <g clip-path="url(#boeotian_provinceCOA87)"><rect x="0" y="0" width="200" height="200" fill="#ffe066"></rect><g fill="#d7374a" stroke="#000"><use href="#mulletPierced_provinceCOA87" transform="translate(40 30) scale(0.22499999999999998)"></use><use href="#mulletPierced_provinceCOA87" transform="translate(77.5 30) scale(0.22499999999999998)"></use><use href="#mulletPierced_provinceCOA87" transform="translate(115 30) scale(0.22499999999999998)"></use><use href="#mulletPierced_provinceCOA87" transform="translate(52.5 77.5) scale(0.22499999999999998)"></use><use href="#mulletPierced_provinceCOA87" transform="translate(77.5 77.5) scale(0.22499999999999998)"></use><use href="#mulletPierced_provinceCOA87" transform="translate(102.5 77.5) scale(0.22499999999999998)"></use><use href="#mulletPierced_provinceCOA87" transform="translate(40 125) scale(0.22499999999999998)"></use><use href="#mulletPierced_provinceCOA87" transform="translate(77.5 137.5) scale(0.22499999999999998)"></use><use href="#mulletPierced_provinceCOA87" transform="translate(115 125) scale(0.22499999999999998)"></use></g></g>
        <path d="M150 115c-5 0-10-5-10-15s5-15 10-15c10 0 7 10 15 10 10 0 0-30 0-30-10-25-30-55-65-55S45 40 35 65c0 0-10 30 0 30 8 0 5-10 15-10 5 0 10 5 10 15s-5 15-10 15c-10 0-7-10-15-10-10 0 0 30 0 30 10 25 30 55 65 55s55-30 65-55c0 0 10-30 0-30-8 0-5 10-15 10z" fill="url(#backlight_provinceCOA87)" stroke="#333"></path></svg>