<svg xmlns="http://www.w3.org/2000/svg" id="provinceCOA95" width="200" height="200" viewBox="0 5 200 200">
        <defs><clipPath id="renaissance_provinceCOA95"><path d="M 25,33.9 C 33.4,50.3 36.2,72.9 36.2,81.7 36.2,109.9 25,122.6 25,141 c 0,29.4 24.9,44.1 40.2,47.7 15.3,3.7 29.3,0 34.8,11.3 5.5,-11.3 19.6,-7.6 34.8,-11.3 C 150.1,185 175,170.3 175,141 c 0,-18.4 -11.2,-31.1 -11.2,-59.3 0,-8.8 2.8,-31.3 11.2,-47.7 L 155.7,14.4 C 138.2,21.8 119.3,25.7 100,25.7 c -19.3,0 -38.2,-3.9 -55.7,-11.3 z"></path></clipPath><clipPath id="divisionClip_provinceCOA95"><rect x="0" y="100" width="200" height="100"></rect></clipPath><g id="dolphin_provinceCOA95" stroke-width=".33">
    <path d="M103.67 125.51c2.53-.85 5.5.3 6.82 2.53.05.08.15.07.2-.01 1.32-2.97 4.18-4.62 7.37-3.85.7.16 1.43.42 2.09.7.07.03.15-.03.15-.1-.01-1.08-.68-2.1-1.2-2.98-1.1-1.87-3.2-6.27-1.22-8.14 1.32-1.32 4.51-1.32 6.27-1.2.19-.72.38-1.44.56-2.2.62-2.32 3.2-3.42 5.28-4.19.14-.05.18-.2.1-.31-.59-.95-2.08-2.42-3.3-5.06-1.04-2.2-2.2-5.28-2.2-5.28.79-2.31 2.54-2.86 4.08-3.74s2.86-2.31 2.86-4.07c-.03-.74-.33-1.43-.21-2.2.1-.62.4-1.1.98-1.98.33-.5 1.87-1.87 1.87-1.87.19-.65-1.87-.54-3.52-1.07-.4-.13-2.53-.85-2.86-2.2-.4-1.54 1.54-2.42 2.3-4.4.33-.9.28-1.65 1.03-3.08.72-1.43 2.64-1.65 3.08-2.42 0 0-1.03-.46-1.2-.5 0 0-1.22-1.33-1.33-3.3-.05-.93.35-2.2 1.06-3.09.6-.73 1.65-1.32 1.54-2.2-8.58 3.41-15.62 3.2-19.91 3.2-5.06 0-11.88-1.88-19.58-1.22l17.93 29.7"></path>
    <path d="M72.87 74.69c.13 5.06 3.74 10.56 2.53 15.07-.73 2.53-2.97 4.51-5.17 3.41 1.1-.67 1.54-2.31 1.32-3.63s-.81-2.64-1.21-3.96c-1.1-3.74-.71-8.03 1.65-11"></path>
    <path d="M73.2 74.8c.66 7.92 7.7 11.88 7.7 17.27 0 2.86-2.86 4.62-4.4 4.07a5.28 5.28 0 00.55-4.95c-.56-1.43-2.31-2.97-3.08-4.18-1.98-3.52-2.31-8.58-1.54-12.32"></path>
    <path d="M106.64 110.11l-3.19-4.4c-.5 3.74-2.75 8.03-6.49 11.22 4.18.8 4.95 3.85 6.05 2.86 2-2.8 2.46-5.65 3.63-9.68z"></path>
    <path d="M106.86 142.23c-.17-.42-1.21 1.76-4.18.81-4.4-1.43-4.73-7.15-3.85-9.9.84-2.64 2.86-3.52 5.28-7.37l-4.73-1.76c-1.87 1.54-2.86 2.86-5.61 2.1-1.65-.46-2.53-1.77-4.62-3.3-.13-.1-.48-.3-.5-.31-2.43-1.43-4.52-1.02-6.39-2.2-3.3-2.1-2.53-5.06-6.16-6.82-1.65-.77-4.29-.39-4.62 1.87.7-.16 2.2-1.04 3.2.3 1.42 1.97.65 3.4 2.08 5.6 1.32 1.98 2.2 2.2 4.62 2.75-.85 2.42 2.42 3.52 1.54 6.16 4.51 0 4.51 3.2 8.14 1.65-2.2 2.42.3 4.3-1.08 7.37 4.29-.78 2.86 3.2 7.26 3.2.7 1.42 2.97 3.07 4.73 3.18 1.87.2 3.08-.26 3.96-1.1.86-.83 1.2-1.65.92-2.42z"></path>
    <path d="M100.22 93.46c.25.93.14 1.9-.14 2.9-.52 1.75-1.87 2.63-1.43 4.61.26 1.21 1.54 1.98 1.87 1.98-.16-.3-.3-.6-.35-.93-.21-1.21 1.5-1.62 2.27-2.17.48-.36 1.03-1.46 1.03-2.56"></path>
    <path d="M114.78 78.65c-5.17-10.01-11.44-15.18-19.47-17.27-2.31-.5-5.72-1.65-11.66-.6a6.27 6.27 0 00-4.18 2.54c-.07.1-.39.26-.44.28-.39.12-.55.45-.6.8-.02.07.01.38-.23.4-1.43.17-1.54 1.1-3.52 1.43-1.32.17-3.19.3-5.5-.13-1.04-.2-.97-.86-1.87-1.1-.97-.3-1.65 0-1.87.23-.44.33-.72.71-.53 1.54.03.19.1.35.15.46 2.09 4.84 14.85 1.43 15.73 5.72.35 1.65-13.42-.99-13.2-.02.19.9 1.76 1.43 3.19 1.76 1.65.22 12.32 2.42 15.18 3.63 18.15 9.35 17.82 30.58 17.82 31.68.07 4.29-.55 9.02-2.75 12.1-.02 0-.4.4-.87.88l3.3 3.52 1.32-1.21s7.26-4.3 11.44-16.61c3.3-11 2.63-22.11-1.44-30.03z"></path>
    <path d="M85.96 78.32c.1 1.43.94 1.32 1.21 4.4.63.2.96-1.87.96-1.87s.43.55.55.75c.25.42.4.92.51 1.43a9.93 9.93 0 010 3.52c-.35 2.2-1.32 2.97-1.54 4.73-.23 1.43.63 3.19 1.65 3.3.17.02 0-1.43.4-2.2.66-1.43 1.65-1.98 2.09-3.52.48-1.43.57-1.65.46-3.52 0 0 1.07.68 1.1 1.65.02.6.16 1.2.46 1.65.48.76 1.1 1.08 1.98.87.07-.02.15-.06.14-.12-.01-.04-.04-.06-.07-.09-1.1-.82-.84-1.98-.88-3.19 0-1.76-1.11-3.45-3.42-4.11a25.97 25.97 0 00-5.6-3.68z"></path>
    <path d="M104.66 125.51s1.32 1.54-.34 3.19c-1.43 1.54-2.86.43-3.08.3-1.43-.82-3.85-3.4-3.85-3.4s-1.1-1.32.4-2.97 3.08-.32 3.08-.33c.97 1.43 3.74 3.19 3.74 3.19z"></path>
    <path fill="#F6F6F6" d="M81.23 65.01c.22.02.5.22.71.46a3 3 0 01.43.62c.17.34-.87.3-1.32.28s-.7-.36-.67-.73c.04-.38.23-.7.8-.63z"></path>
    <g fill="none" stroke-width=".275">
      <path d="M96.69 64.46c4.21 7.51-2.56 14-9.6 12.95 9.15 2.16 15.3-5.94 9.6-12.95z"></path>
      <path d="M104.77 125.4c0-1.32 1.21-2.75 1.76-3.52-.9.54-2.16 1.75-3.99 2.06m4.13-6.18a7.2 7.2 0 00-.14 4.12c2.2-.85 3.15-3.08 3.37-3.52-.18.9-.83 1.87-.76 3.08m4.62-7.04c-.74 1.98-3.3 3.74-3.85 3.96-.37-.63.4-2.97.63-3.85-.64.82-2.45 2.7-3.88 3.25m2.55-7.32c.1 1.76.72 4.18 1.32 4.07 1.76-1.54 2.53-4.29 2.64-4.73.16.9-.06 3.41.59 4.62m2.45-5.94c-.37-.19-.68-1.98-.6-3.85-.13 2.09-2 4.84-2.44 5.17-.72-.65-1.07-2.97-1.07-3.85-.38.98-1.57 3.63-2.89 4.51m.58-8.03c.6 1.65 1.56 3.24 2.3 3.52 1.22-1.98 1.59-4.95 1.48-5.39.42.8.9 3.3 2.05 4.07 1.06-.76 1.36-4.84 1.14-5.72.36.7 1.09 2.28 1.09 2.28m.52-7.89c.08 1.65-1.06 4.95-1.61 5.61-1.1-1.21-1.58-2.97-1.8-4.07.32 2.09-1.03 5.28-1.39 5.72-.67-.5-1.7-2.64-2.02-3.52-.16 1.03-.75 4.29-1.76 5.39m-1.58-8.6c.95 1.42 2.9 3.54 3.34 3.21.71-2.2.99-5.28.87-5.72.57.7 1.1 2.75 2.53 3.52.73-.78.55-5.17.15-5.94.5.6 2.06 3.63 3.27 4.4m-.77-6.6c-1.7-.25-2.72-2.42-3.05-3.08.24 1.21.99 3.96.55 5.28-1.05-.32-2.64-1.98-3.08-3.41.67 1.98.68 5.28.4 5.83-.49.08-2.6-2.09-3.03-2.86.02 1.05-.36 4.04-1.18 5.36m-2.94-7.72c1.2 1.32 3.71 2.8 4.15 2.36.33-2.31-.2-5.28-.38-5.72.68.6 1.66 2.53 2.98 2.75.6-.9-.02-4.51-.53-5.17.6.5 1.74 2.64 3.06 3.3.42-1.76.28-4.14-.43-5.98-1.65.1-3.33-1.72-3.77-2.27.9 1.32 1.6 4.07 1.14 4.95-1.43-.17-3.23-1.76-4.11-2.75.84 1.32 1.99 4.5 1.66 5.17-.43.24-2.98-1.54-3.86-2.2.12.22.78 4.13.09 5.56m-4.82-7.54c.99 1.04 4.5 2.53 4.73 1.98-.26-2.1-1.98-4.73-2.2-5.17.74.57 2.86 2.2 4.4 2.2.47-.86-1.43-4.3-1.98-4.95.64.52 3.19 2.3 4.95 2.75.03-.85-.23-3.74-.85-4.73m-6.96 53.32a28.45 28.45 0 007.15-18.89 42.9 42.9 0 00-9.24-26.51"></path>
      <path d="M117.07 84.2a41.34 41.34 0 017.4 11.39"></path>
      <path d="M115.13 111.62c.59 2.43 1.82 4.47 2.15 5.96"></path>
      <path d="M124.1 66.36c4.16.88 4.05-.8 8.9 1.52"></path>
      <path d="M81.34 124.19c1.07.25 2.64.11 4.73.52"></path>
      <path d="M97.29 142.56c-.84-1.32-1.21-3.96-.62-6.05"></path>
      <path d="M109.5 70.62c9.24 2.97 12.1 7.11 20.79 9.75"></path>
    </g>
    <g fill="#000" stroke="none">
      <path d="M829 8.8c20 10 40 22 58 36s36 29 48 49c-13-17-32-33-50-46-18-14-37-26-57-39z" transform="matrix(.11 0 0 .11 27 77)"></path>
      <path d="M830.2 190c6 23.67 10.77 47.69 20.38 70.24 6.14 15.46 14.33 30 23.24 44.01-19.45-23.86-31.67-52.8-38.88-82.54-2.23-8.8-4.08-17.7-5.88-26.6z" transform="matrix(.11 0 0 .11 27 77)"></path>
      <path d="M755 393.6c.85 3.3 1.74 6.59 1.97 10 1.24 11.46.24 22.98.35 34.47.05 2.6.21 5.24.85 7.79-2.22-4.45-2.58-9.53-3-14.4-.83-11.94-.18-23.98-1.78-35.87l1.61-2z" transform="matrix(.11 0 0 .11 27 77)"></path>
      <path d="M738-88c27-1.4 55 .49 82 6.5 40 7.3 76 32 114 36-32-.51-76-25-114-33-28.53-5.87-57.47-8.57-82-9.5z" transform="matrix(.11 0 0 .11 27 77)"></path>
      <path d="M693 319c-2.7 15.82-15.77 25.8-29.79 30.36 11.9-7.98 24.41-17.37 29.87-30.47l-.05.07z" transform="matrix(.11 0 0 .11 27 77)"></path>
      <path d="M694.8 346.8c-10.87 9.53-24.8 13.76-39.2 13.46 13.63-3.14 27.51-7.96 39.58-16.24z" transform="matrix(.11 0 0 .11 27 77)"></path>
      <path d="M686 365c-7.06 4.01-15.68 5.33-23.6 2.28 7.62-1.08 15.52-2.27 23.6-2.24z" transform="matrix(.11 0 0 .11 27 77)"></path>
      <path d="M679.7 187.5c-9.13 7.71-16.13 15.35-20.26 26.6-.33-13.47 10.12-20.91 19.59-29.34z" transform="matrix(.11 0 0 .11 27 77)"></path>
      <path d="M537.2 432.2c26.03 1.89 45.92 22.62 72.27 25.49-25.11-3.35-46.73-18.54-72.8-22.65.15-.92.36-1.93.53-2.84z" transform="matrix(.11 0 0 .11 27 77)"></path>
      <path d="M632 540.6c5.74-18.85 18.48-34.62 23.28-54.54-3.3 19.33-15.29 36.08-20.43 55.54z" transform="matrix(.11 0 0 .11 27 77)"></path>
      <path d="M623 478c-13.93 7.17-24.8 16.18-40.14 21.81l-1.2-2.75c15.07-3.16 26.75-13.42 41.25-19.13z" transform="matrix(.11 0 0 .11 27 77)"></path>
      <path d="M509 481.4c31.19-19.55 67.03-1.4 100.1-13.12l1.1-.38-1.1.42c-33.19 11.62-67.26-1.93-99.63 15.39z" transform="matrix(.11 0 0 .11 27 77)"></path>
      <path d="M573.5 563.2c34.68-13.22 29.79-59.76 59.54-78.56l.99-.65-.98.67c-28.62 25.16-20.47 66.76-58.34 81.06l-1.5-2.6z" transform="matrix(.11 0 0 .11 27 77)"></path>
      <path d="M547 24c4.07 4.26 4.71 10.89 3.13 16.67-.96-5.39-1.6-10.98-3.14-16.57z" transform="matrix(.11 0 0 .11 27 77)"></path>
      <path d="M580 62c3.72 26.64-13.94 48.98-19.13 74.5 4.64-24.7 17.68-48.68 19.17-74.6z" transform="matrix(.11 0 0 .11 27 77)"></path>
      <path d="M591 57c12.01 5.6 21.07 21.4 21.34 32.2C607.31 76.35 599.42 64.9 591 57z" transform="matrix(.11 0 0 .11 27 77)"></path>
      <path d="M591.5 73.01c.22-5.53-2.6-11.17-5.7-15.66 4.63 5.79 9.11 11.97 9.16 17.96-.8-.38-2.85-1.75-3.46-2.3z" transform="matrix(.11 0 0 .11 27 77)"></path>
      <path d="M476-90c7.95-6.13 19.77-4.7 27.09-.9-8.68-.27-18.24-2.65-26.9.9z" transform="matrix(.11 0 0 .11 27 77)"></path>
      <path d="M513-102c-5.05-3.7-10.57-7.2-16.87-8.1-4.44-.69-8.76.88-12.89 2.29-3.45 1-7.1 2.18-10.72 1.46a4.4 4.4 0 01-3.58-4.5c-.04-.84.4-3.4.44-1.2.13 1.71 1.14 3.61 3.05 3.77 3.25.24 6.3-1.19 9.32-2.2 4.28-1.64 8.8-3.26 13.47-2.67 6.33.73 11.74 4.65 15.99 9.17.62.65 1.2 1.32 1.8 1.98z" transform="matrix(.11 0 0 .11 27 77)"></path>
      <path d="M484-121c2.4-1.42 5.14-2.2 7.89-2.59 9.84-.64 17.2 2.76 21.4 11.2-6.53-6.26-14.81-8.9-23.56-8.83-1.89 0-3.77.12-5.65.28l-.05-.04z" transform="matrix(.11 0 0 .11 27 77)"></path>
      <path d="M492-30c.17 1.8-1.1 3.28-2.5 4.22-2.75 1.75-6.05 2.33-9.23 2.66-4.4.4-8.84.38-13.24-.05-4.24-.38-8.43-1.1-12.6-1.92 5.94-.21 11.88.26 17.82.28a153 153 0 009.33-.23c3.13-.33 6.56-.59 9.1-2.66.75-.59.9-1.57 1.32-2.3z" transform="matrix(.11 0 0 .11 27 77)"></path>
      <path d="M494-109c-1.2-.54-4.2.37-4.8 3.7-.58 3.2 1.2 4.3 2.3 4.6s.47-3.4.87-4.7 2.8-3.2 1.7-3.7z" transform="matrix(.11 0 0 .11 27 77)"></path>
      <path d="M366-100c2.1.66 4.18 1.8 5.48 3.63 2.95 7.15-5.54 6.48-9.64 3.95a13.83 13.83 0 01-3.4-3.05c-.79-1.07-1.47-2.42-1.2-3.79.02-.29.38-.96.48-.93-.28 1 .22 2 .88 2.7a16.77 16.77 0 005.12 3.43c3.87 1.58 8.35 1.97 5.53-2.93a20.86 20.86 0 00-2.99-3.07l-.26.06z" transform="matrix(.11 0 0 .11 27 77)"></path>
      <path d="M492-50a30.55 30.55 0 012.17 7.14c-2.28-1.29-3.18-4.92-2.17-7.1V-50z" transform="matrix(.11 0 0 .11 27 77)"></path>
      <path d="M496-48a16.87 16.87 0 012.13 6.16c-2.9-1.24-3.15-3.73-2.12-6.17z" transform="matrix(.11 0 0 .11 27 77)"></path>
      <path d="M500-45c1.27 1.48 1.7 3.88 1.75 5.04-2.62-1.18-2.8-2.96-1.75-4.99V-45z" transform="matrix(.11 0 0 .11 27 77)"></path>
      <path d="M566-78c3.02 2.5 5.71 4.53 9.5 4.9-4.2 2.87-8.13-1.02-9.44-4.91z" transform="matrix(.11 0 0 .11 27 77)"></path>
      <path d="M563-72c2.1 2.48 6.89 4.04 8.62 4.76-4.14 1.93-7.9-1.34-8.57-4.78L563-72z" transform="matrix(.11 0 0 .11 27 77)"></path>
      <path d="M559-66c1.75 1.74 6.61 3.6 7.58 4.01-3.65 1.6-7.21-.25-7.66-4.07l.08.06z" transform="matrix(.11 0 0 .11 27 77)"></path>
      <path d="M545-58c1.93.6 5.07 2.8 5.85 3.43-3.14.95-5.14-.7-5.86-3.44z" transform="matrix(.11 0 0 .11 27 77)"></path>
      <path d="M552-62a46.13 46.13 0 008.75 3.23c-3.58 2.29-7.14.01-8.75-3.2V-62z" transform="matrix(.11 0 0 .11 27 77)"></path>
      <path d="M513-95c-3.69.47-7.34-1.28-10.66-3.08l1.9-2.3c2.39 2.51 5.2 4.74 8.77 5.42z" transform="matrix(.11 0 0 .11 27 77)"></path>
      <path d="M436-91l.22-.1c.14-.06.36-.15.65-.24.57-.16 1.4-.3 2.5-.22 1 .07 2.2.36 3.4.82s2.4 1.1 3.5 1.7 2.3 1.2 3.3 1.6c.57.2 1.1.37 1.6.52.52.14 1 .26 1.5.37.96.21 1.8.38 2.3.5l.9.22s-.33.08-.91.18a16.27 16.27 0 01-4.1.2c-.57-.05-1.2-.14-1.9-.3-1.3-.31-2.6-.87-3.7-1.5-1.2-.62-2.3-1.3-3.3-1.8-1-.55-2-1-2.9-1.3-.89-.3-1.7-.45-2.2-.51-.56-.06-.91-.06-.91-.06z" transform="matrix(.11 0 0 .11 27 77)"></path>
    </g>
  </g><g id="crown2_provinceCOA95" stroke-width=".57"><path d="M130.07 93.52c-3.3-3-6.9-3.5-11.07-3.55-3.77-.06-7.19 2.56-10.95 1.67-3.11-.72-5.53-3.61-8.68-4.1-3.69-.6-7.03 2.22-10.66 3.1-3.8.9-7.22-1.19-10.87-.73-3.23.4-6.55 1.77-8.99 4.05-3.68 3.44-3.53 9.65-1.8 14.51 1.75 4.87 4.73 9.2 5.95 14.25l26.63-.19 26.64-.19c1.16-5.05 4.1-9.44 5.78-14.32 1.69-4.89 1.76-11.12-1.98-14.5z"></path><path d="M75.18 135.43c2.07-.45 13.47-1.21 24.95-1.21 11.4 0 22.82.74 24.95 1.21-1.32 0-8.2 1.37-24.95 1.37-16.76 0-23.7-1.37-24.95-1.37z"></path><g fill="#f2bc51" stroke-width="3" transform="matrix(.19 0 0 .19 22 46)"><path d="M254.4 356.9c-8.8-11-15.9-23.2-20.9-36.3-5.1-13.1-7.8-27.3-7.8-41.6-.1-14.3 3.5-28.9 10-41.9 1.5-3.3 3.7-6.3 5.5-9.4 2-2.9 4.1-5.7 6.3-8.4 4.4-5.4 9.4-10.5 14.7-15 10.6-9.1 22.8-16.2 35.6-21.4 6.4-2.6 12.9-4.6 19.5-6.3 6.6-1.6 12.9-2.9 19.4-4.1 25.8-4.7 52.1-6.8 78.4-6.1l-.3 16.6c-25-.1-50.1 2.5-74.6 7.5-6.1 1.2-12.3 2.7-18.1 4.3-5.8 1.6-11.5 3.5-16.9 5.9-10.9 4.7-21 11-29.7 18.8-4.3 3.9-8.3 8.2-11.9 12.8-1.8 2.3-3.4 4.7-5.1 7.1-1.3 2.5-2.9 4.7-4 7.3-4.7 10-7.3 21.1-6.9 32.4.3 22.7 10.3 45.3 25.1 63l-18.3 14.8z"></path><path d="M415.3 347s4.7 40 38 40c28 0 50.5-29.7 50.5-29.7s4.7 37.5 37.2 37.5c18.6 0 44.7-36.6 44.7-36.6s-19.7 61.1-25.5 99.3l-149.9-6.7-149.9 6.7c-5.8-38.3-25.5-99.3-25.5-99.3s26.1 36.6 44.7 36.6c32.7 0 37.2-37.5 37.2-37.5s22.5 33.3 50.5 33.3c33.6 0 38-40 38-40l6.9 3.3h0l3.1-6.9z"></path><path d="M410.6 406.1c-81.9 0-142.1 11.1-158.2 13.3-4.4.8-7.2-1.4-7.8-4.4-.6-3.1 2.2-8.9 6.1-9.4 13-2.5 61.6-13.3 160.1-13.3s146.8 10.8 159.8 13.3c3.9.6 6.7 6.1 6.1 9.4-.6 3.1-3.3 5-7.8 4.4-16.5-2.2-76.4-13.3-158.3-13.3z"></path><path d="M309.6 373.2c6-5.7 13.3-8.8 21.2-10.3a229.9 229.9 0 01-7.8-38.8c-2.4-20.5-2.3-41.5 1.4-61.3 2-9.9 4.9-19.2 9.6-27.2 4.9-8.2 11.5-15.6 19-22.1 15.2-12.8 34.1-21.4 53.8-24.2l-2.1-16.7c-23.1 2.6-45.3 12-63.5 26.6-9.1 7.4-17.3 16-23.7 26.2-3.2 5.1-5.9 10.8-8 16.3-2.1 5.6-3.7 11.2-5 16.8-2.5 11.3-3.8 22.6-4.3 33.9-.6 11.3-.2 22.6.8 33.8 1.5 15.9 4.3 31.6 8.6 47z"></path><path d="M566.5 356.9c8.8-11 15.9-23.2 20.9-36.3 5.1-13.1 7.8-27.3 7.8-41.6.1-14.3-3.5-28.9-10-41.9-1.5-3.3-3.7-6.3-5.5-9.4-2-2.9-4.1-5.7-6.3-8.4-4.4-5.4-9.4-10.5-14.7-15-10.6-9.1-22.8-16.2-35.6-21.4-6.4-2.6-12.9-4.6-19.5-6.3-6.6-1.6-12.9-2.9-19.4-4.1-25.8-4.7-52.1-6.8-78.4-6.1l.3 16.6c25-.1 50.1 2.5 74.6 7.5 6.1 1.2 12.3 2.7 18.1 4.3 5.8 1.6 11.5 3.5 16.9 5.9 10.9 4.7 21 11 29.7 18.8 4.3 3.9 8.3 8.2 11.9 12.8 1.8 2.3 3.4 4.7 5.1 7.1 1.3 2.5 2.9 4.7 4 7.3 4.7 10 7.3 21.1 6.9 32.4-.3 22.7-10.3 45.3-25.1 63l18.3 14.8z"></path><path d="M511.3 373.2c-6-5.7-13.3-8.8-21.2-10.3 3.7-12.6 6.3-25.6 7.8-38.8 2.4-20.5 2.3-41.5-1.4-61.3-2-9.9-4.9-19.2-9.6-27.2-4.9-8.2-11.5-15.6-19-22.1a107.84 107.84 0 00-53.8-24.2l2.1-16.7c23.1 2.6 45.3 12 63.5 26.6 9.1 7.4 17.3 16 23.7 26.2 3.2 5.1 5.9 10.8 8 16.3 2.1 5.6 3.7 11.2 5 16.8 2.5 11.3 3.8 22.6 4.3 33.9.6 11.3.2 22.6-.8 33.8-1.4 15.9-4.2 31.6-8.6 47z"></path><polygon points="372.5 104.6 403.7 109.2 399.4 77.2 423.7 77.2 419.7 109.2 451 104.6 451 128.9 419.1 122.8 415.7 159.7 407.4 159.7 404 122.8 372.5 128.9"></polygon><polygon points="391.8 309.1 429.5 309.1 426.7 175.2 394.5 175.2"></polygon><path d="M390.7 167.6c0 10.8 8.9 13.5 20 13.5 10.8 0 20-2.6 20-13.5 0-10.8-8.9-19.7-20-19.7-11.1-.3-20 8.9-20 19.7z"></path><path d="M454.2 393.9c-12.2 0-22.8-5.8-30-15.3-8.9-10.3-13.6-23.6-13.6-23.6s-6.4 15.3-13.3 23.6c-7.2 9.4-17.8 15.3-29.7 15.3-29.7 0-48.3-30.2-48.3-30.2s-5.5 34.7-37.2 34.7c-28 0-42.7-33.9-42.7-33.9l3.9-17.2s14.4 35.8 40 35.8c18.9 0 25.3-22.5 29.1-34.1 2.2-7.5 3.9-8.9 10.5-1.7 8.6 10.3 22.2 31.1 44.4 31.1 29.4 0 33.6-48 33.6-48H420s4.2 48 33.6 48c22.2 0 35.8-20.8 44.4-31.1 6.4-7.5 8-6.1 10.8 1.7 3.6 11.7 10 34.1 29.1 34.1 25.5 0 40-35.8 40-35.8l3.9 17.2s-14.7 33.9-42.7 33.9c-31.1 0-37.2-34.7-37.2-34.7s-18 30.2-47.7 30.2z"></path><path d="M402 336.7c21.1 0 31.6 22.2 46.6 22.2 21.1 0 16.7-20.8 16.7-26.4 0-5.3 4.7-26.4-16.7-26.4-15.3 0-25.5 22.2-46.6 22.2"></path><path d="M420.1 336.7c-21.1 0-31.4 22.2-46.6 22.2-21.1 0-17.5-20.8-17.5-26.4 0-5.3-3.9-26.4 17.5-26.4 15.3 0 25.5 22.2 46.6 22.2"></path><path d="M591 350s5.8-29.4 13-56.9c-5.8-1.7-28.3-10-33.9 10-3.6 14.4 18.6 29.4 13.3 49.1"></path><path d="M596.6 356.1c-20.8-4.4-36.4 14.7-51.1 11.7-20.5-4.4-11.4-23.9-10-29.4 1.4-5.3 2.8-26.4 23.6-22.2 15 3.3 19.4 26.9 40 31.4"></path><path d="M415.6 335.6c0-20.5 25.3-30.2 25.3-45.2 0-20.3-24.1-16.6-30.2-16.6-6.1 0-30.2-3.6-30.2 16.6 0 14.7 25.3 24.7 25.3 45.2"></path><path d="M230.8 350s-5.8-29.4-13-56.9c5.8-1.7 28.3-10 33.9 10 3.6 14.4-18.6 29.4-13.3 49.1"></path><path d="M225.3 356.1c20.8-4.4 36.4 14.7 51.1 11.7 20.5-4.4 11.4-23.9 10-29.4-1.4-5.3-2.8-26.4-23.6-22.2-15 3.3-19.4 26.9-40.2 31.4"></path><path d="M252.1 469.5c.6 5.3 3.7 8.1 7.5 9.3 28.2 11 94.5 14.5 151.4 14.5 56.9 0 122.9-3.1 151.4-14.5 3.7-1.6 6.9-4.5 7.5-9.3.3-4.9-1.4-8.5-5.7-9.3-3.7-1.2-74.7-11.6-153.1-11.6-78.7 0-149.1 10.4-153.1 11.6-4.2.4-6.2 4-5.9 9.3zm27.8 1.2c10.9-2.4 70.9-6.4 131.3-6.4 60 0 120.1 3.9 131.3 6.4-6.9 0-43.1 7.2-131.3 7.2-88.2 0-124.7-7.2-131.3-7.2z"></path></g><g fill="#000" stroke="none"><path d="M74.95 95.44c-.07.6-.13 1.21-.11 1.8a10.9 10.9 0 00.59 3.5c.19.57.43 1.1.72 1.65a5.28 5.28 0 01-1.05-1.52 6.8 6.8 0 01-.63-3.65c.06-.6.22-1.23.48-1.78z"></path><path d="M91.54 94.22c-.23.74-.74 1.39-1.33 1.9s-1.27.93-1.94 1.31c-.66.38-1.33.76-1.94 1.18-.6.44-1.17.95-1.61 1.6.27-.74.78-1.37 1.39-1.86.6-.52 1.27-.92 1.93-1.3.67-.38 1.33-.76 1.94-1.2.61-.43 1.16-.96 1.56-1.63z"></path><path d="M109.13 95.08c-.01.8.38 1.5.88 2.07.51.57 1.14 1.02 1.7 1.63a5.4 5.4 0 011.2 2.11c.27.74.5 1.5.82 2.22-.5-.62-.82-1.36-1.16-2.09a7.2 7.2 0 00-1.2-1.93c-.5-.57-1.13-1.07-1.63-1.73-.25-.33-.44-.7-.57-1.09-.11-.4-.15-.81-.04-1.2z"></path><path d="M124.98 96.14c-.25.8-.68 1.52-1.16 2.2-.47.69-1 1.32-1.52 1.96-.51.63-1.02 1.27-1.46 1.96a7.17 7.17 0 00-.97 2.24 5.4 5.4 0 01.66-2.41c.38-.76.9-1.43 1.41-2.07.53-.65 1.08-1.26 1.6-1.88.53-.63 1.02-1.28 1.44-2z"></path></g><g fill="#f6f6f6"><path d="M118.48 127.89a2.38 2.38 0 01-2.43 2.38 2.38 2.38 0 010-4.76 2.43 2.43 0 012.43 2.38z"></path><path d="M131.23 129.85a2.49 2.49 0 01-2.85 1.9c-.68-.15-.83-1.28-.53-2.53.32-1.31 1-2.26 1.58-2.1a2.21 2.21 0 011.8 2.73z"></path><path d="M81.62 127.89a2.38 2.38 0 002.43 2.38c1.32 0 2.44-1.07 2.44-2.38s-1.07-2.38-2.44-2.38-2.43 1.07-2.43 2.38z"></path><path d="M95.23 127.11c0 1.58 2.16 2.9 4.8 2.9 2.7 0 4.81-1.3 4.81-2.9s-2.17-2.9-4.8-2.9c-2.65.1-4.81 1.36-4.81 2.9z"></path><path d="M68.85 129.85a2.49 2.49 0 002.85 1.9c.69-.15.84-1.28.54-2.53-.33-1.31-1.01-2.26-1.58-2.1a2.19 2.19 0 00-1.8 2.73z"></path><path d="M70.75 86.47c.69.59 1.32.19 1.92-.47.6-.69.93-1.35.3-1.98a1.71 1.71 0 00-2.33.13c-.59.67-.5 1.73.11 2.32z"></path><path d="M75.92 81.9c.32.83 1.08.77 1.94.48.84-.32 1.48-.77 1.16-1.61s-1.24-1.31-2.13-.95a1.67 1.67 0 00-.97 2.07z"></path><path d="M82.74 79.48c.14.9.88 1 1.77.93.9-.13 1.63-.42 1.5-1.31a1.64 1.64 0 00-1.84-1.43c-.88.14-1.54.97-1.43 1.8z"></path><path d="M89.92 78.28c.14.9.88 1 1.77.93.9-.13 1.64-.42 1.5-1.3a1.64 1.64 0 00-1.84-1.43c-.9.13-1.54.96-1.43 1.8z"></path><path d="M66.63 91.73c.78.48 1.37-.07 1.8-.83.48-.78.69-1.5-.1-1.98a1.65 1.65 0 00-2.27.59c-.47.72-.23 1.73.57 2.22z"></path><path d="M65.5 98.46c.88 0 1.13-.72 1.13-1.62s-.2-1.65-1.1-1.67-1.64.7-1.67 1.66c-.02.85.76 1.63 1.63 1.63z"></path><path d="M85.95 85.71c.6.68 1.28.38 1.96-.2.69-.6 1.12-1.2.57-1.93a1.69 1.69 0 00-2.32-.2c-.68.6-.72 1.67-.2 2.33z"></path><path d="M91.9 81.23c.32.83 1.08.77 1.94.49.83-.32 1.48-.78 1.16-1.61a1.64 1.64 0 00-2.13-.95c-.84.32-1.27 1.29-.97 2.07z"></path><path d="M82.13 91.18c.82.44 1.35-.17 1.73-.95.44-.82.57-1.54-.24-1.97-.82-.44-1.79-.06-2.23.76-.4.74-.07 1.74.74 2.16z"></path><path d="M80.39 97.66c.87.12 1.21-.57 1.33-1.46.11-.88 0-1.67-.88-1.79-.87-.11-1.7.5-1.86 1.43-.13.83.53 1.7 1.4 1.82z"></path><path d="M80.18 105.09c.87-.06 1.08-.8 1.02-1.7-.05-.86-.32-1.62-1.21-1.57a1.7 1.7 0 00-1.56 1.77c.04.83.87 1.56 1.75 1.5z"></path><path d="M129.22 86.47c-.69.59-1.31.19-1.92-.47-.6-.69-.93-1.35-.3-1.98a1.71 1.71 0 012.33.13c.6.67.5 1.73-.11 2.32z"></path><path d="M124.05 81.9c-.32.83-1.08.77-1.94.48-.83-.32-1.48-.77-1.16-1.61s1.24-1.31 2.13-.95c.82.3 1.27 1.27.97 2.07z"></path><path d="M117.23 79.48c-.14.9-.88 1-1.77.93-.9-.13-1.63-.42-1.5-1.31.13-.9.91-1.56 1.84-1.43.88.14 1.54.97 1.43 1.8z"></path><path d="M110.06 78.28c-.13.9-.87 1-1.76.93-.9-.13-1.64-.42-1.5-1.3.13-.9.9-1.57 1.84-1.43.87.13 1.54.96 1.43 1.8z"></path><path d="M133.36 91.73c-.78.48-1.37-.07-1.8-.83-.48-.78-.69-1.5.1-1.98a1.65 1.65 0 012.27.59c.45.72.2 1.73-.57 2.22z"></path><path d="M134.48 98.46c-.9 0-1.14-.72-1.14-1.62s.2-1.65 1.1-1.67 1.64.7 1.67 1.66c.02.85-.74 1.63-1.63 1.63z"></path><path d="M114.02 85.71c-.6.68-1.28.38-1.96-.2-.68-.6-1.12-1.2-.57-1.93a1.69 1.69 0 012.32-.2c.68.6.74 1.67.2 2.33z"></path><path d="M108.07 81.23c-.32.83-1.08.77-1.94.49-.83-.32-1.48-.78-1.16-1.61a1.64 1.64 0 012.13-.95c.84.32 1.3 1.29.97 2.07z"></path><path d="M117.84 91.18c-.82.44-1.35-.17-1.73-.95-.44-.82-.57-1.54.24-1.97.82-.44 1.79-.06 2.23.76.4.74.07 1.74-.74 2.16z"></path><path d="M119.58 97.66c-.87.12-1.21-.57-1.33-1.46-.11-.88 0-1.67.88-1.79.87-.11 1.7.5 1.86 1.43.13.83-.53 1.7-1.4 1.82z"></path><path d="M119.8 105.09c-.88-.06-1.09-.8-1.03-1.7.05-.86.32-1.62 1.21-1.57.88.06 1.6.82 1.56 1.77-.04.83-.85 1.56-1.75 1.5z"></path><path d="M101.69 94.83c0 .9-.75 1.14-1.64 1.14-.9 0-1.63-.15-1.69-1.08s.68-1.64 1.63-1.7c.9 0 1.7.75 1.7 1.64z"></path><path d="M101.69 89.76c0 .89-.75 1.14-1.64 1.14-.9 0-1.63-.16-1.69-1.09-.06-.93.68-1.63 1.63-1.69.9 0 1.7.74 1.7 1.64z"></path><path d="M101.69 84.68c0 .9-.75 1.14-1.64 1.14-.9 0-1.63-.15-1.69-1.08-.06-.93.68-1.63 1.63-1.69.9 0 1.7.74 1.7 1.63z"></path><path d="M135.92 113.3a2.95 2.95 0 01-3.47 2.16c-.84-.15-.95-1.52-.53-3.05.36-1.52 1.3-2.7 2.05-2.53a2.78 2.78 0 011.95 3.42z"></path><path d="M96.86 109.02a3.21 3.21 0 006.42 0 3.19 3.19 0 00-3.2-3.17 3.22 3.22 0 00-3.22 3.17z"></path><path d="M64.16 113.3a2.95 2.95 0 003.48 2.16c.83-.15.95-1.52.53-3.05-.36-1.52-1.31-2.7-2.05-2.53a2.74 2.74 0 00-1.96 3.42z"></path><path d="M81.89 108.19c1.82 0 3.3 1.42 3.3 3.19s-1.48 3.2-3.3 3.2a3.25 3.25 0 01-3.3-3.2c0-1.71 1.47-3.2 3.3-3.2z"></path><path d="M118.25 108.19c-1.82 0-3.3 1.42-3.3 3.19s1.48 3.2 3.3 3.2c1.83 0 3.31-1.43 3.31-3.2 0-1.71-1.48-3.2-3.3-3.2z"></path></g></g><radialGradient id="backlight_provinceCOA95" cx="100%" cy="100%" r="150%"><stop stop-color="#fff" stop-opacity=".3" offset="0"></stop><stop stop-color="#fff" stop-opacity=".15" offset=".25"></stop><stop stop-color="#000" stop-opacity="0" offset="1"></stop></radialGradient></defs>
        <g clip-path="url(#renaissance_provinceCOA95)"><rect x="0" y="0" width="200" height="200" fill="#377cd7"></rect><g clip-path="url(#divisionClip_provinceCOA95)"><rect x="0" y="0" width="200" height="200" fill="#fafafa"></rect></g><g fill="#ffe066" stroke="#000"><use href="#dolphin_provinceCOA95" transform="translate(30.000000000000004 -7.4999999999999964) scale(0.7)"></use></g><g fill="#522d5b" stroke="#000"><use href="#crown2_provinceCOA95" transform="translate(30.000000000000004 67.5) scale(0.7)"></use></g></g>
        <path d="M 25,33.9 C 33.4,50.3 36.2,72.9 36.2,81.7 36.2,109.9 25,122.6 25,141 c 0,29.4 24.9,44.1 40.2,47.7 15.3,3.7 29.3,0 34.8,11.3 5.5,-11.3 19.6,-7.6 34.8,-11.3 C 150.1,185 175,170.3 175,141 c 0,-18.4 -11.2,-31.1 -11.2,-59.3 0,-8.8 2.8,-31.3 11.2,-47.7 L 155.7,14.4 C 138.2,21.8 119.3,25.7 100,25.7 c -19.3,0 -38.2,-3.9 -55.7,-11.3 z" fill="url(#backlight_provinceCOA95)" stroke="#333"></path></svg>