<svg xmlns="http://www.w3.org/2000/svg" id="provinceCOA154" width="200" height="200" viewBox="0 10 200 200">
        <defs><clipPath id="french_provinceCOA154"><path d="m 25,25 h 150 v 139.15 c 0,41.745 -66,18.15 -75,36.3 -9,-18.15 -75,5.445 -75,-36.3 v 0 z"></path></clipPath><g id="triangle_provinceCOA154"><polygon points="100 60 135 130 65 130"></polygon></g><radialGradient id="backlight_provinceCOA154" cx="100%" cy="100%" r="150%"><stop stop-color="#fff" stop-opacity=".3" offset="0"></stop><stop stop-color="#fff" stop-opacity=".15" offset=".25"></stop><stop stop-color="#000" stop-opacity="0" offset="1"></stop></radialGradient></defs>
        <g clip-path="url(#french_provinceCOA154)"><rect x="0" y="0" width="200" height="200" fill="#ffe066"></rect><g fill="#d7374a" stroke="none"><polygon points="200,200 200,144 25,25 145,200"></polygon></g><g fill="#fafafa" stroke="#000"><use href="#triangle_provinceCOA154" transform="translate(50 50) scale(0.5)"></use><use href="#triangle_provinceCOA154" transform="translate(87.5 87.5) scale(0.5)"></use></g></g>
        <path d="m 25,25 h 150 v 139.15 c 0,41.745 -66,18.15 -75,36.3 -9,-18.15 -75,5.445 -75,-36.3 v 0 z" fill="url(#backlight_provinceCOA154)" stroke="#333"></path></svg>