<svg xmlns="http://www.w3.org/2000/svg" id="provinceCOA195" width="200" height="200" viewBox="0 10 200 200">
        <defs><clipPath id="french_provinceCOA195"><path d="m 25,25 h 150 v 139.15 c 0,41.745 -66,18.15 -75,36.3 -9,-18.15 -75,5.445 -75,-36.3 v 0 z"></path></clipPath><clipPath id="divisionClip_provinceCOA195"><polygon points="0,0 15,0 100,200 185,0 200,0 200,200 0,200"></polygon></clipPath><pattern id="counterPotent-argent-vert" width="0.125" height="0.125" viewBox="0 0 200 200" stroke="none"><rect width="200" height="200" fill="#fafafa"></rect><path d="m25 50h50v-50h50v50h50v100h-50v50h-50v-50h-50v-50z" fill="#26c061"></path><path d="m0 0h200 M0 100h200 M0 200h200"></path></pattern><radialGradient id="backlight_provinceCOA195" cx="100%" cy="100%" r="150%"><stop stop-color="#fff" stop-opacity=".3" offset="0"></stop><stop stop-color="#fff" stop-opacity=".15" offset=".25"></stop><stop stop-color="#000" stop-opacity="0" offset="1"></stop></radialGradient></defs>
        <g clip-path="url(#french_provinceCOA195)"><rect x="0" y="0" width="200" height="200" fill="url(#counterPotent-argent-vert)"></rect><g clip-path="url(#divisionClip_provinceCOA195)"><rect x="0" y="0" width="200" height="200" fill="#377cd7"></rect></g></g>
        <path d="m 25,25 h 150 v 139.15 c 0,41.745 -66,18.15 -75,36.3 -9,-18.15 -75,5.445 -75,-36.3 v 0 z" fill="url(#backlight_provinceCOA195)" stroke="#333"></path></svg>