<svg xmlns="http://www.w3.org/2000/svg" id="provinceCOA182" width="200" height="200" viewBox="0 0 200 200">
        <defs><clipPath id="boeotian_provinceCOA182"><path d="M150 115c-5 0-10-5-10-15s5-15 10-15c10 0 7 10 15 10 10 0 0-30 0-30-10-25-30-55-65-55S45 40 35 65c0 0-10 30 0 30 8 0 5-10 15-10 5 0 10 5 10 15s-5 15-10 15c-10 0-7-10-15-10-10 0 0 30 0 30 10 25 30 55 65 55s55-30 65-55c0 0 10-30 0-30-8 0-5 10-15 10z"></path></clipPath><g id="stagsAttires_provinceCOA182" stroke-width=".58"><path d="M114.57 128.56a6.53 6.53 0 00-1.72-1.94c-.35-.23-.73-.43-1.1-.64-.95-.61-1.7-1.47-2.62-2.15-.9-.67-2.1-1.22-3.17-.87-1.23-.11-2.15.36-3.03.36s-1.62-.69-2.93-.69-2.07.69-2.93.69c-.88 0-1.8-.45-3.03-.36-1.08-.35-2.27.18-3.17.87-.9.66-1.67 1.54-2.62 2.15-.36.21-.75.4-1.1.64a6.06 6.06 0 00-1.72 1.94c-.27.45-.5 1.11-.1 1.45.14.11.34.15.51.2 4.71 1.07 7.65 2.18 11.38 5.64 1.31 1.21 1.78 2.7 2.78 2.7s1.47-1.49 2.78-2.7c3.73-3.44 6.67-4.57 11.38-5.65.17-.04.35-.08.5-.2.4-.33.18-1-.1-1.44z"></path><path d="M133.75 76.89c.28-.27.26-.68-.25-.6-.5.07-2.56.6-3.7 2.52-1.7 2.87-.68 5.8-2.17 7.72-.54.7-1.56.47-1.62-.76-.12-1.94.66-6.88.2-8.74 0 0 2.26-1.18 3.34-3.46 1.37-2.88-1.4-6.89 1.2-10.8.25-.43.05-.63-.46-.49-.62.04-1.76.74-2.42 1.74-1.92 2.9-.12 4.77-1.25 6.75-.38.6-1.53 2.35-2.76 1.7-3.25-1.94-2.7-6.22-4.48-8.7a6.44 6.44 0 00-3.34-2.07c-1.98-.55-3.02.43-2.66.52 1.7.47 2.64 1.22 3.24 2.13 1.22 1.84.37 4.82 2.23 7.63 1.55 2.33 2.1 2.66 2.62 5.38.6 2.85-.1 5.3-.08 6.92-.13.04-.6.43-1.34-.33-1.35-1.39-.63-3.19-.9-5.57-.38-3.15-1.78-4.78-3.8-5.05-1.25-.17-.58.5-.37.69 2.8 2.46.53 5.31.8 8.6.24 2.7 1.2 4.17 2.92 4.97 1.5.68 1.58 1.52 1.72 2.64.13 2.27-1.14 4.55-2.17 10.36-.79 2.1 1.05 12.1-4.66 13.34 0 0 .69-1.56-.14-2.93-1.19-2.02-.37-3.72.02-4.76 1.16-2.89 1.65-5.75.3-7.04-1.04-.9-.84 0-.8.34.4 2.97-1.69 4.42-3.35 7.5a6.13 6.13 0 00-.4 4.56c.5 1.74.71 3.25 0 5-.77 1.3-.42 2.61-2.41 4.33-.24.08-.94-.23-1.78.41a1.7 1.7 0 00-.6 1.08c-.03.39 0 .82.24 1.15.24.33.94.72 1.31.57-.05.58.04 1.47 1.94 2.33.76.35 2.03.21 2.03.21.1 0 .47.53 1.31.72.67.16 1.31-.17 1.67-.76a2.2 2.2 0 00.02-1.97 2.74 2.74 0 00-.59-.83.68.68 0 01-.2-.21c-.04-.1-.04-.2-.04-.31.02-.57-.03-.75.14-1.3.6-1.91 1.78-1.58 2.8-3.32.74-.39 3.23-1.23 5.8-4.42 1.1-1.13 2.12-3.83 2.22-4.8.13-.85.86-1.34 2.09-1.42 1.76-.1 4.42-1.87 4.95-5.24.27-2.29.29-5.36 1.07-6.96.7-1.45 1.6-2.17 1.72-2.3.18-.2.24-.52-.31-.46a4.4 4.4 0 00-2.68 1.21c-1.92 1.75-1.95 4.37-2.64 6.4-.57 1.7-1.64 2.91-3.03 2.54-1.11-.3-.43-2.85-.23-4.07.39-2.4 1.13-4.45 1.44-6.41.5-1.49 3.52-1.11 5.09-4.2 1.11-2.18 1.15-5.01 1.07-6.7-.21-3.85 1.86-4.7 2.13-4.98zm-67.45 0c-.27-.27-.25-.68.26-.6.5.07 2.56.6 3.7 2.52 1.7 2.87.68 5.8 2.17 7.72.54.7 1.56.47 1.62-.76.12-1.94-.67-6.88-.2-8.74 0 0-2.27-1.18-3.34-3.46-1.37-2.88 1.4-6.89-1.2-10.8-.25-.43-.05-.63.46-.49.62.04 1.76.74 2.42 1.74 1.92 2.9.12 4.77 1.25 6.75.37.6 1.53 2.35 2.76 1.7 3.25-1.94 2.7-6.22 4.48-8.7a6.44 6.44 0 013.34-2.07c1.98-.55 3.01.43 2.66.52-1.7.47-2.64 1.22-3.24 2.13-1.22 1.84-.38 4.82-2.23 7.63-1.55 2.33-2.1 2.66-2.62 5.38-.61 2.85.1 5.3.07 6.92.14.04.61.43 1.35-.33 1.35-1.39.63-3.19.9-5.57.37-3.15 1.78-4.78 3.8-5.05 1.25-.17.58.5.37.69-2.8 2.46-.53 5.31-.8 8.6-.24 2.7-1.2 4.17-2.92 4.97-1.5.68-1.58 1.52-1.72 2.64-.13 2.27 1.14 4.55 2.17 10.36.78 2.1-1.05 12.1 4.66 13.34 0 0-.69-1.56.13-2.93 1.2-2.02.38-3.72-.02-4.76-1.15-2.89-1.64-5.75-.29-7.04 1.04-.9.84 0 .8.34-.4 2.97 1.68 4.42 3.35 7.5.8 1.47.8 3.2.4 4.56-.5 1.74-.72 3.25 0 5 .77 1.3.42 2.61 2.41 4.33.24.08.94-.23 1.78.41.32.24.55.69.59 1.08.04.39 0 .82-.24 1.15-.23.33-.93.72-1.3.57.05.58-.04 1.47-1.94 2.33-.76.35-2.04.21-2.04.21-.1 0-.46.53-1.3.72a1.53 1.53 0 01-1.67-.76 2.2 2.2 0 01-.02-1.97c.14-.32.35-.59.59-.83a.68.68 0 00.2-.21c.03-.1.03-.2.03-.31-.02-.57.04-.75-.13-1.3-.6-1.91-1.78-1.58-2.8-3.32-.74-.39-3.23-1.23-5.8-4.42-1.1-1.13-2.12-3.83-2.22-4.8-.13-.85-.86-1.34-2.09-1.42-1.76-.1-4.42-1.87-4.95-5.24-.27-2.29-.3-5.36-1.07-6.96-.7-1.45-1.6-2.17-1.72-2.3-.18-.2-.24-.52.3-.46.56.06 1.57.2 2.69 1.21 1.91 1.75 1.95 4.37 2.64 6.4.56 1.7 1.64 2.91 3.03 2.54 1.11-.3.43-2.85.23-4.07-.39-2.4-1.13-4.2-1.44-6.41-.5-1.47-3.52-1.13-5.09-4.2-1.11-2.18-1.15-5.01-1.07-6.7.21-3.85-1.86-4.7-2.14-4.98z"></path><g fill="#000" stroke="none"><path d="M110.5 128.89c-.69.2-1.44.14-2.09.53.08-.8 1.06-1.24 1.7-.76l.39.23zm-3.97 1.47c-.22.68-1.32.2-.53-.22.2-.06.47 0 .53.22zm-.83-1.14c-.27.44-1.22.44-.75-.17.22-.27.68-.14.75.17zm-.48-.66c-.15.32-.91.34-.75-.1.15-.34.74-.33.75.1zm-.55-1.04c-.17.59-1.16.14-.5-.27.2-.1.49.04.5.27zm-.43-.8c-.27.75-1.05-.34-.26-.3.12.05.23.17.26.3zm-.33-.8c-.15.24-.47.37-.7.2-.26-.49.62-.74.7-.2zm-14.35 2.97c.44-.31 1.02-.62 1.53-.27.4.16.84 1.14.1.64-.5-.36-1.13-.1-1.63-.37zm3.97 1.47c.6-.92 1.29.83.21.21-.09-.06-.14-.14-.21-.21zm.84-1.14c.1-.5.93-.3.84.19-.32.45-.59.02-.84-.19zm.47-.66c.2-.87 1.31.27.4.27-.16 0-.27-.24-.4-.27zm.54-1.04c.13-.71 1.2.22.44.27-.27.12-.28-.13-.44-.27zm.43-.8c.21-.74 1.04.2.28.29-.17 0-.16-.22-.28-.29zm.34-.8c.13-.75 1.28.28.39.29-.21.07-.25-.2-.39-.29z"></path><path d="M126.36 77.3c-.9.4-2.12.83-.74-.1.47-.46.41-.54.74.1zm-18.52 45.4c-.9-.17-1.68.66-1.57 1.54-1.7.1.85-2.36 1.57-1.54zm2.9 1.2c1.11-.07 1.15 2.33.54 1.83-.16-.61-.28-1.25-.54-1.83zm11.73-46.38c-.23-1.51-1.11-2.8-1.58-4.23 1.16.98 2.18 2.7 1.58 4.23z"></path><path d="M120.85 98.81c.18 1.1-.35 2.21.04 3.28-.05.54-1.13 2.71-.88 1.24.63-.92-.14-1.83.23-2.77.15-.6.35-1.19.61-1.75zm-2.45 10.49c.39.7.14 1.7-.56 2.1-.06-.74.18-1.48.56-2.1zm7.94-21.52c-.94.29-1.4-.86-1.29-1.6.26-1.7.54 1.52 1.29 1.6zm-2.14 19.99c-.5.38-1.05.69-1.61.98-.07-.79.95-1.42 1.61-.98zm-11.21 6.33c-.7.47-1.09 1.2-2.05 1.25-.52.35-1.3.84-.63-.08a4.4 4.4 0 012.68-1.16zm1.83 4.46c.5-.5.78-1.17 1.18-1.76-.01.46-.39 2.86-1.18 1.76z"></path><path d="M74.01 76.81c.45.54 1.9 1.38.47.82-.71-.3-.93-.15-.47-.82zm18.21 45.89c.98-.37 2.08.38 2.17 1.43-1.07.5-.56-2-2.17-1.43zm-2.9 1.2c-.38.3-.35 2.55-.84 1.87-.3-.67.06-1.75.84-1.87zM77.59 77.52c-.62-1.54.44-3.24 1.58-4.23-.47 1.43-1.35 2.71-1.58 4.23z"></path><path d="M79.21 98.81c.54 1.12.91 2.39.52 3.57.35.64.48 2.35-.06.92-.76-.69-.36-1.62-.38-2.45a9.14 9.14 0 01-.08-2.04zm2.45 10.49c.39.37.96 2.77.09 1.68-.32-.49-.42-1.17-.09-1.68zm-7.94-21.52c.87-.14.67-2.4 1.25-1.82.14.79-.15 2.14-1.25 1.82zm2.15 19.99c.66-.44 1.66.2 1.6.98-.56-.27-1.1-.61-1.6-.98zm11.2 6.33c.77-.3 1.11.6 1.87.53.64.1 1.6 1.87.48.92-.51-.54-1.56-.25-1.82-1.06a1.21 1.21 0 00-.53-.39zm-2.3 4.82a3.4 3.4 0 01-.71-2.12c.02.68 1.57 1.5.89 1.99l-.18.13z"></path></g></g><g id="cancer_provinceCOA182" stroke-width=".3"><path d="M105.3 65.7c-.3 0-1.3 1.4-1.4 4.1-.1 2.2.8 5.9.8 5.9s1.8 6.3 2.6 7.1c.8 1 5-3.2 4.6-4.7-.4-1.5-2.2-1.7-2.9-2.8-.4-.3-.2-1-.3-1.1-.1-.2-.7 0-1-.3-.2-.4-.6-.4-.7-1 0-.6.8-.7.5-1.4-.3-.6-1.5-1-1.7-1.5 0-.6.5-1.2.4-1.5 0-.3-.8-.6-.8-1.2s.4-1 .2-1.4c-.1-.4 0-.2-.3-.2zm-10.5 0c.2 0 1.2 1.4 1.3 4.1.1 2.2-.8 5.9-.8 5.9s-1.8 6.3-2.6 7.1c-.8 1-5-3.2-4.6-4.7.4-1.5 2.2-1.7 3-2.8.3-.3.1-1 .2-1.1.1-.2.8 0 1-.3.2-.4.7-.4.7-1 .1-.6-.8-.7-.5-1.4s1.5-1 1.7-1.5c.1-.6-.5-1.2-.4-1.5 0-.3.9-.6.9-1.2s-.4-1-.3-1.4c.1-.4.1-.2.4-.2zm26.4 22.2s1-1.4 1.7-3.8l.6-2.9c0-1.4-.2-2.5 0-2.6.3 0 .6.9.8 2 .2 1.1.2 2.5.2 2.5s.7-.6 1.3-1.5c.4-.6.6-1.6.7-1.6.2.2 0 2.3-1 4.6a22.3 22.3 0 01-3.3 4.8l-1-1.5zm2.2 6.5s1.2-.8 2.3-2.6c.4-.6 1-1.4 1.2-2 .5-1.2.6-2.1.8-2 .2 0 .2.8 0 1.7 0 1-.5 2-.5 2s.8-.3 1.5-.8c.5-.4.9-1.1 1-1 .1.1-.6 1.7-2 3.3-1.6 1.6-4 3-4 3l-.3-1.6z"></path><path d="M106.9 62.7c1-.2 2.5 0 4 1.3 1.6 1.4 3.3 4 4.4 7.5.3.7 1 2.7 1.6 5.2 1.1 4.3.9 7.6 0 9.2-.5 1-2 2.3-3.4 2.7-1.4.4-1.9-.3-2.2-.3-1.3.4-2.5-1.7-3.4-3.5-.7-1.2-1.5-1.9-1.6-2.4-.2-.7.5-.1 1.8-1 .7-.4.1-.9.9-1.6.8-.7 1-.1.9-1-.8-2.4.3-2.7 0-3.6-.1-1-.8-1.4-.9-1.8-.1-.7.3-.6.1-1.6 0-.4-.3-.8-.4-1.2-.1-.8.5-1.4.4-1.7s-1.2-.6-1.3-1c-.1-.5.6-1.2.3-2.3-.2-.8-.6-1.3-.9-1-.5-.3-.3-.6-.6-.8-.6-.6-1 0-1-.2-.2 0 0-.6 1.3-.9zm18.9 39.1l.8-.7 2.3-1.7c1-.7 3-.4 2.9-.4-.1-.5-2-1.2-3.8-.4-1.7.8-3.4 2.5-3.4 2.5l1.2.7zm-1.3 5.6l.8-.6s1.8-1.2 2.6-2.1c.8-1 2.8-1.3 2.8-1.3-.3-.4-2.3-.3-3.8.9a26.6 26.6 0 01-3.6 2.4l1.2.7zm-21.7-22.9c.1-1.4-.8-5.7-.6-11.4.3-6.2 1.9-12 1.7-12.2a48 48 0 00-2.4 12.1c-.6 5.6 0 10.3 0 11.3s1.2 1.6 1.3.2zm-24 3.4s-1-1.4-1.7-3.8l-.6-2.9c0-1.4.2-2.5 0-2.6-.3 0-.6.9-.8 2-.2 1.1-.2 2.5-.2 2.5s-.7-.6-1.3-1.5c-.4-.6-.6-1.6-.7-1.6-.2.2 0 2.3 1 4.6 1.1 2.4 3.3 4.8 3.3 4.8l1-1.5zm-2.2 6.5s-1.2-.8-2.3-2.6c-.4-.6-1-1.4-1.2-2-.5-1.2-.6-2.1-.8-2-.2 0-.2.8 0 1.7 0 1 .5 2 .5 2s-.8-.3-1.5-.8c-.5-.4-.9-1.1-1-1-.1.1.6 1.7 2 3.3 1.6 1.6 4 3 4 3l.3-1.6zm16.5-31.7c-1-.2-2.5 0-4 1.3-1.6 1.4-3.3 4-4.4 7.5-.3.7-1 2.7-1.6 5.2-1.1 4.3-.9 7.6 0 9.2.5 1 2 2.3 3.4 2.7s1.9-.3 2.2-.3c1.3.4 2.5-1.7 3.4-3.5.7-1.2 1.5-1.9 1.6-2.4.2-.7-.5-.1-1.8-1-.7-.4-.1-.9-.9-1.6-.8-.7-1-.1-.9-1 .8-2.4-.3-2.7 0-3.6.1-1 .8-1.4.9-1.8.1-.7-.3-.6-.1-1.6 0-.4.3-.8.4-1.2.1-.8-.5-1.4-.4-1.7 0-.2 1.2-.6 1.3-1 .1-.5-.6-1.2-.3-2.3.2-.8.6-1.3.9-1 .5-.3.3-.6.6-.8.6-.6 1 0 1-.2.2 0 0-.6-1.3-.9zm-18.9 39.1l-.8-.7-2.3-1.7c-1-.7-3-.4-2.9-.4.1-.5 2-1.2 3.8-.4 1.7.8 3.4 2.5 3.4 2.5l-1.2.7zm1.3 5.6l-.8-.6s-1.8-1.2-2.6-2.1c-.8-1-2.8-1.3-2.8-1.3.3-.4 2.3-.3 3.8.9 1.4 1.2 3.6 2.4 3.6 2.4l-1.2.7zm21.7-22.9c-.1-1.4.8-5.7.6-11.4-.3-6.2-1.9-12-1.7-12.2.4-.2 1.8 6 2.4 12.1.5 5.6 0 10.3 0 11.3s-1.2 1.6-1.3.2zm-.7 45.5s-1.4.5-2.6 1.4c-1.3 1-2.3 2.1-2.6 2.5-.3.4-.4 1 .4 2.1.9 1.1 2.8 2.2 4 2.2 1 0 2-1.3 2-1.3v-4.6l-1.2-2.3zm7.1 0s1.4.5 2.6 1.4c1.4 1 2.3 2.1 2.6 2.5.3.4.4 1-.4 2.1-.9 1.1-2.8 2.2-3.9 2.2s-2-1.3-2-1.3v-4.6l1.1-2.3z"></path><path d="M102.2 128.7s1.1 2.4 1.1 6c0 2-.4 3.2-.7 3.6-.3.4-1.4 1-2.6 1-1.1 0-2.2-.6-2.5-1-.3-.4-.7-1.6-.7-3.7 0-3.5 1.1-5.9 1.1-5.9h4.3zm-7.4-.5c-1 0-.6.2-1.6.2s-2.2-1-3.3-1c-1 0-2.2.9-2.2 2.8s1.5 4.3 3 4.3 5.1-4.6 5.1-4.6 0-1.7-1-1.7zm10.5 0c1 0 .6.2 1.6.2s2.2-1 3.3-1c1 0 2.2.9 2.2 2.8s-1.5 4.3-3 4.3-5-4.6-5-4.6 0-1.7 1-1.7z"></path><path d="M97 128.3s-.3.6-.8 1c-.5.3-1 .5-1 .7-.1.3.1.7.7 1.2.5.5.7.5 1 .4.2-.1.4-.5.7-1.2a8 8 0 00.4-1.4l-1-.7zm6 0s.4.6 1 1c.4.3 1 .5 1 .7 0 .3-.2.7-.8 1.2-.5.5-.7.5-1 .4-.2-.1-.4-.5-.7-1.2a8 8 0 01-.4-1.4l1-.7z"></path><path d="M95.8 127.4c-.2.1-.4.6-1.2.8-.4.1 0 1 .3 1.4.3.5 1.2-.3 1.4-.4l.5-.7c.3-.5-.8-1.2-1-1zm8.5 0c.2.1.4.6 1.2.8.4.1 0 1-.3 1.4-.3.5-1.2-.3-1.4-.4l-.5-.7c-.3-.5.8-1.2 1-1z"></path><path d="M103.4 125c0 .9 1 2.2 1 2.5s-.5.2-.8.6c-.4.4-.6 1-1.1 1.2-1.2.2-1.5.7-2.5.7s-1.2-.5-2.3-.7c-.6-.2-.8-.8-1.2-1.2-.3-.4-.7-.4-.7-.6s.9-1.7.9-2.6 6.7-.9 6.7 0zm19.1-22.8s.2 0 1.5-1c.8-.4 2-1.5 2.1-1.6.7-.4 1.3 1 .6 1.8-.4.4-1.3 1.1-2.5 1.8-1.5.7-1.7.5-1.7.5l-.5-.9.5-.6zm-1.2 5.5l1.5-.8c.8-.4 1.9-1.3 2.1-1.4.7-.3 1.3.8.5 1.6-.3.3-1.4 1-2.6 1.5-1.4.6-1.7.4-1.7.4l-.4-.8.6-.5zm-43.8-5.5s-.2 0-1.6-1c-.7-.4-1.8-1.5-2-1.6-.7-.4-1.4 1-.6 1.8.4.4 1.3 1.1 2.5 1.8 1.5.7 1.7.5 1.7.5l.5-.9-.5-.6zm1.3 5.5l-1.6-.8-2.1-1.4c-.7-.3-1.3.8-.5 1.6.4.3 1.4 1 2.6 1.5 1.5.6 1.7.4 1.7.4l.4-.8-.5-.5z"></path><path d="M103.3 122c0 1 1.3 2.7 1.3 3 0 .2-.5.8-1 .9-.5 0-.4-.2-1 0-.5.2-1 .6-2.5.6s-2-.4-2.6-.6c-.6-.2-.4 0-1 0-.4-.1-1-.7-1-1 0-.2 1.4-2 1.4-2.9 0-.9 6.4-.9 6.4 0zm3.9-29.2c-.5-.5-.6-1.3 0-1.7.6-.4 1.4-.8 2.6-1.8.5-.4.7-1 .7-1l1.1-.6c.7-.2 1.4 0 1.6 0 .5.4 1 0 .9 1.4 0 .7-2.2 4.3-2.2 4.3s-.3.5-1.4.5c-1 0-1.1-.7-1.5-.4-.7.2-1.3-.2-1.8-.7zm9.3-.3s1.6-1.1 3-2.7l1.6-2.3c.7-.7 2.1.7 1.5 2-.5 1.3-5 4.7-5 4.7l-1-1v-.7zm1.3 5.9s1.8-1 3.2-2.2c.8-.6 2-2 2.3-2.1.7-.5 1.7 1 1 2a14 14 0 01-2.9 2.2c-1.5 1-3.1 1.8-3.1 1.8l-.6-1v-.7zm.4 5.7s.6 0 2.2-.7c1-.5 2.3-1.5 2.6-1.7.7-.3 1.3 1.2.4 2a11 11 0 01-3 1.7c-1.8.7-2 .4-2 .4l-.4-1 .2-.7zm-1.2 5.1s.5 0 2.1-.6c1-.3 2.3-1.2 2.6-1.3.8-.3 1.3 1.2.3 1.9-.5.3-1.7.9-3 1.3-1.8.5-2 .2-2 .2l-.4-1 .3-.5zM92.8 92.8c.5-.5.6-1.3 0-1.7-.6-.4-1.4-.8-2.6-1.8-.5-.4-.7-1-.7-1l-1.1-.6c-.7-.2-1.4 0-1.6 0-.5.4-1 0-.9 1.4 0 .7 2.2 4.3 2.2 4.3s.3.5 1.4.5c1 0 1.1-.7 1.5-.4.7.2 1.3-.2 1.8-.7zm-9.3-.3s-1.6-1.1-3-2.7L79 87.5c-.7-.7-2.1.7-1.5 2 .5 1.3 5 4.7 5 4.7l1-1v-.7zm-1.3 5.9s-1.8-1-3.2-2.2c-.8-.6-2-2-2.3-2.1-.7-.5-1.7 1-1 2a14 14 0 002.9 2.2 33 33 0 003.1 1.8l.6-1v-.7zm-.4 5.7s-.6 0-2.2-.7c-1-.5-2.3-1.5-2.6-1.7-.7-.3-1.3 1.2-.4 2a11 11 0 003 1.7c1.8.7 2 .4 2 .4l.4-1-.2-.7zm1.2 5.1s-.5 0-2.1-.6c-1-.3-2.4-1.2-2.6-1.3-.8-.3-1.3 1.2-.3 1.9.5.3 1.7.9 3 1.3 1.8.5 2 .2 2 .2l.4-1-.3-.5z"></path><path d="M100 123.6c1.6 0 3-.8 3.6-1h1c.5 0 1-.7 1-1 0-.3-1.4-2.1-1.4-3 0-1-8.4-1-8.4 0s-1.4 2.7-1.4 3c0 .3.5 1 1 1h1c.7.2 2 1 3.6 1m7.5-31s3.1.2 3.4 1.1c.3 1-.6 1.7-2 2-1.5.3-2.4-2.4-2.4-2.4-.2-1.6 1-.7 1-.7zm2.4 4.8s2.2-1 4-2.5c1.6-1.4 2.8-2.7 3-2.9.2 0 .5.1.8.6.3.5.5 1.2.3 1.4 0 .2-1.8 2-3.7 3.2l-4 2-.4-1.8zm.1 3.9s2.5-.2 4.4-1.2c1.7-.8 3.5-2 3.7-2 .2 0 .5.2.6.7v1.2c-.2.2-2.6 1.5-4.6 2.1-1.9.6-4.2.7-4.2.7v-1.5zm0 4s2.5.3 4.5-.2l4.1-1.3c.2 0 .4.3.5.8 0 .5-.1 1.1-.3 1.3a19.3 19.3 0 01-9.2 1l.4-1.6zm-1.3 4.7s2.5.3 4.5 0l4.1-1c.2 0 .4.3.4.7 0 .5-.1 1-.3 1.1-.2.2-2.8.7-4.8.8-2 .1-4.3-.3-4.3-.3l.4-1.3zM92.5 92.6s-3.1.2-3.4 1.1c-.3 1 .6 1.7 2 2 1.5.3 2.4-2.4 2.4-2.4.2-1.6-1-.7-1-.7zm-2.4 4.8s-2.2-1-4-2.5c-1.6-1.4-2.8-2.7-3-2.9-.2 0-.5.1-.8.6-.2.5-.4 1.2-.3 1.4 0 .2 1.8 2 3.8 3.2 1.9 1.1 3.9 2 3.9 2l.4-1.8zm-.1 3.9s-2.4-.2-4.4-1.2l-3.7-2c-.2 0-.4.2-.6.7v1.2a19 19 0 008.8 2.8v-1.5zm0 4s-2.5.3-4.5-.2l-4.1-1.3c-.2 0-.4.3-.4.8s0 1.1.2 1.3a19.3 19.3 0 009.2 1l-.4-1.6zm1.3 4.7s-2.5.3-4.5 0l-4-1c-.3 0-.5.3-.5.7 0 .5.1 1 .3 1.1.2.2 2.8.7 4.9.8 2 .1 4.2-.3 4.2-.3l-.4-1.3z"></path><path d="M104.8 114.4c0 1.1 1.5 3.1 1.5 3.4 0 .4-.6 1-1.2 1.2-.5 0-.4-.2-1 0s-1.9 1.3-4 1.3c-2.2 0-3.3-1.1-4-1.3s-.5 0-1.1 0c-.6-.1-1.2-.8-1.2-1.2 0-.3 1.5-2.3 1.5-3.4 0-1 9.5-1 9.5 0zm-.8-20.7s.8 0 1.4-.4c.6-.3 1.1-.9 1.1-.9l1 1.3c.6.7 1.4 1.4 1.4 1.6.1.3.2.5-.3.8-.5.3-2.7.4-3.2 1.3-.5.8-1.4-3.7-1.4-3.7zm1.9 4.3s1.5.2 2.7-.2c1-.4 1.7-.8 2-.8.1 0 .8 1.4.2 2-.5.8-4 1-4 1l-1-2zm.3 3s1.3.4 2.4.3c1 0 1.7-.3 1.9-.2.1 0 .4 1.4-.2 1.8-.6.5-3.7 0-3.7 0l-.4-1.9zm.1 3.4s1.2.6 2.3.7l2 .1s.1 1.5-.6 1.8c-.7.4-3.6-.7-3.6-.7v-2zm-1.2 4.6s1.2.6 2.3.7l1.9.2c.1 0 0 1.3-.6 1.6-.7.3-3.5-.8-3.5-.8V109zm-2.4-21.4c-.1-.7.5-3.1.2-3.4-.3-.2-1.4-.3-1.5 0a10 10 0 000 3.5c.3.8 1.5.6 1.3-.1zM96 93.7s-.7 0-1.3-.4c-.7-.3-1.2-.9-1.2-.9l-1 1.3c-.6.7-1.4 1.4-1.4 1.6-.1.3-.2.5.3.8.5.3 2.7.4 3.2 1.3.5.8 1.4-3.7 1.4-3.7zM94.1 98s-1.5.2-2.7-.2c-1-.4-1.7-.8-2-.8-.1 0-.8 1.4-.2 2 .5.8 4 1 4 1l1-2zm-.3 3s-1.2.4-2.4.3c-1 0-1.7-.3-1.8-.2-.2 0-.5 1.4.1 1.8s3.7 0 3.7 0l.4-1.9zm-.1 3.4s-1.2.6-2.4.7l-1.8.1c-.2 0-.2 1.5.5 1.8.7.4 3.6-.7 3.6-.7v-2zm1.1 4.6s-1.1.6-2.2.7l-1.9.2c-.1 0 0 1.3.6 1.6.7.3 3.5-.8 3.5-.8V109zm2.5-21.4c.1-.7-.4-3.1-.2-3.4.3-.2 1.4-.3 1.5 0 .1.1.3 2.8 0 3.5-.3.8-1.5.6-1.3-.1z"></path><path d="M94.8 110.6c0 1.2-1.6 3.3-1.6 3.7 0 .3.6 1 1.2 1.1.7.1.5-.2 1.2 0 .7.3 1.7 1.5 4.4 1.5 2.8 0 3.8-1.2 4.5-1.4.7-.2.5 0 1.2 0 .6-.2 1.2-.9 1.2-1.2 0-.4-1.6-2.5-1.6-3.7 0-1.1-10.5-1.1-10.5 0z"></path><path d="M95.5 91.3c-.5 1.9-.7 4.3-.7 4.3s-2.4 4-2.5 7.7c0 4.2 1.9 8.2 2.2 8.6.4.4 1.5 1.2 5.5 1.2s5-.8 5.4-1.2c.4-.4 2.3-4.4 2.3-8.6 0-3.7-2.6-7.7-2.6-7.7s-.1-2.4-.6-4.3a16 16 0 00-1.3-3.2c-.3-.5-.4-1.3-.3-1.7.2-.7.3-1.8 0-1.8-.2 0-1.5 2.6-2 2.5H99c-.6.1-1.9-2.5-2.1-2.5-.3 0-.1 1 0 1.8.1.4 0 1.2-.3 1.7-.4.7-.7 1.3-1.2 3.2z"></path><path fill="#333" d="M103.7 91s0-.6-.8-1c-.3-.2-1-.2-1.2.6-.2.8.8 1.8.8 1.8l1.8-.2-.6-1.1zm-7.4 0s0-.6.8-1c.3-.2 1-.2 1.2.6.2.8-.8 1.8-.8 1.8l-1.8-.2.6-1.1z"></path><path d="M103.4 103s-1.5 4.9-.7 9.9c0 0-1 .2-2.7.2-1.7 0-2.7-.2-2.7-.2.8-5-.7-10-.7-10l2.6-2.6 4.2 2.7z"></path><path d="M100 80.7s.4 5 1.4 8.2c.5 1.3 1 2.3 1.4 2.9.1.3.4.5.8 0l.1-1.1c.2-.4.6-.3.6-.3s1.4 2.6 1.4 5.2c0 3.4-1.8 5.4-2.3 7.4-.4 0-1.4-.3-3.4-.3s-3 .3-3.3.3c-.5-2-2.3-4-2.3-7.4 0-2.6 1.4-5.2 1.4-5.2s.3-.1.5.3c.2.3 0 .8.2 1 .3.6.6.4.8 0l1.3-2.8c1-3.1 1.3-8.3 1.4-8.2z"></path><path fill="#000" stroke="none" d="M96.5 114.7a7.5 7.5 0 007 0 5.4 5.4 0 01-7 0zm6.8 3.6a5.3 5.3 0 01-6.6 0c2.3 1 4.2 1 6.6 0zm-6.3 3.5a5.1 5.1 0 006.1 0 7 7 0 01-6.1 0zm.4 3.2a7 7 0 005.4 0 4.8 4.8 0 01-5.4 0zm-2.5-56.2a25 25 0 01-2.6 11.8c1.1-3.7 2.4-7.3 2.6-11.8zm-3.9 15c-1.1-.2-1.9-1-1.9-1.9.4 1 .7 1.3 1.9 1.9zm-.3-16.7c-4 4.7-5.4 14.5-5.3 19.5.8-5.5 1-12 5.3-19.5zm14.3 1.7c0 4 1.4 8.2 2.5 11.8-1.4-3.2-3.2-8.3-2.5-11.8zm3.8 15c1.3-.6 1.7-1.2 1.9-1.9 0 1.2-1.3 1.8-1.9 1.9zm5.6 2.7a44.2 44.2 0 00-5.2-19.4c3.8 4.4 5.3 13.5 5.2 19.4z"></path></g><radialGradient id="backlight_provinceCOA182" cx="100%" cy="100%" r="150%"><stop stop-color="#fff" stop-opacity=".3" offset="0"></stop><stop stop-color="#fff" stop-opacity=".15" offset=".25"></stop><stop stop-color="#000" stop-opacity="0" offset="1"></stop></radialGradient></defs>
        <g clip-path="url(#boeotian_provinceCOA182)"><rect x="0" y="0" width="200" height="200" fill="#377cd7"></rect><g fill="#ffe066" stroke="none"><path d="m 200,115 v -15 c -8.9,3.5 -16,3.1 -25,0 -8.9,-3.5 -16,-3.1 -25,0 -8.9,3.5 -16,3.2 -25,0 -8.9,-3.5 -16,-3.2 -25,0 -8.9,3.5 -16,3.1 -25,0 -8.9,-3.5 -16,-3.1 -25,0 -8.9,3.5 -16,3.2 -25,0 -8.9,-3.5 -16,-3.2 -25,0 v 15 z" transform="translate(0,-14.5)"></path><path d="m 200,115 v -15 c -8.9,3.5 -16,3.1 -25,0 -8.9,-3.5 -16,-3.1 -25,0 -8.9,3.5 -16,3.2 -25,0 -8.9,-3.5 -16,-3.2 -25,0 -8.9,3.5 -16,3.1 -25,0 -8.9,-3.5 -16,-3.1 -25,0 -8.9,3.5 -16,3.2 -25,0 -8.9,-3.5 -16,-3.2 -25,0 v 15 z" transform="rotate(180 100 100) translate(0,-14.5)"></path><path d="m 200,115 v -15 c -8.9,3.5 -16,3.1 -25,0 -8.9,-3.5 -16,-3.1 -25,0 -8.9,3.5 -16,3.2 -25,0 -8.9,-3.5 -16,-3.2 -25,0 -8.9,3.5 -16,3.1 -25,0 -8.9,-3.5 -16,-3.1 -25,0 -8.9,3.5 -16,3.2 -25,0 -8.9,-3.5 -16,-3.2 -25,0 v 15 z" transform="rotate(-90 100 100) translate(0,-14.5)"></path><path d="m 200,115 v -15 c -8.9,3.5 -16,3.1 -25,0 -8.9,-3.5 -16,-3.1 -25,0 -8.9,3.5 -16,3.2 -25,0 -8.9,-3.5 -16,-3.2 -25,0 -8.9,3.5 -16,3.1 -25,0 -8.9,-3.5 -16,-3.1 -25,0 -8.9,3.5 -16,3.2 -25,0 -8.9,-3.5 -16,-3.2 -25,0 v 15 z" transform="rotate(-270 100 100) translate(0,-14.5)"></path></g><g fill="#fafafa" stroke="none"><rect width="37.5%" height="37.5%"></rect></g><g fill="#377cd7" stroke="#000"><use href="#stagsAttires_provinceCOA182" transform="translate(77.5 30) scale(0.22499999999999998)"></use><use href="#stagsAttires_provinceCOA182" transform="translate(77.5 77.5) scale(0.22499999999999998)"></use><use href="#stagsAttires_provinceCOA182" transform="translate(77.5 125) scale(0.22499999999999998)"></use></g><g fill="#377cd7" stroke="#000"><use href="#cancer_provinceCOA182" transform="translate(14.5 14.5) scale(0.375)"></use></g></g>
        <path d="M150 115c-5 0-10-5-10-15s5-15 10-15c10 0 7 10 15 10 10 0 0-30 0-30-10-25-30-55-65-55S45 40 35 65c0 0-10 30 0 30 8 0 5-10 15-10 5 0 10 5 10 15s-5 15-10 15c-10 0-7-10-15-10-10 0 0 30 0 30 10 25 30 55 65 55s55-30 65-55c0 0 10-30 0-30-8 0-5 10-15 10z" fill="url(#backlight_provinceCOA182)" stroke="#333"></path></svg>