<svg xmlns="http://www.w3.org/2000/svg" id="provinceCOA240" width="200" height="200" viewBox="0 0 200 200">
        <defs><clipPath id="oval_provinceCOA240"><path d="m 32.3,99.5 a 67.7,93.7 0 1 1 0,1.3 z"></path></clipPath><g id="greyhoundSejant_provinceCOA240" stroke-width=".36"><path d="M80.18 136.12c.15 0 .15-.64 1.12-1.11.62-.33 1.53-.15 1.53-.15l.29-1.63-2.86-.67-2.12-.6-1.17.34s-.26.02-.44.87c-.13.6.08 1.59.35 1.59.15 0 .37-.84 1.45-1.36-.03.06-.05.2-.05.2-.18.84-.06 1.8.2 1.8.16 0 .5-.85 1.58-1.36.02-.02-.1.16-.14.4-.18.84-.02 1.68.26 1.68"></path><path d="M100.4 136.12c.15 0 .15-.64 1.12-1.11.62-.33 1.53-.15 1.53-.15l.29-1.63-2.86-.67-2.12-.6-1.17.34s-.26.02-.44.87c-.13.6.08 1.59.35 1.59.15 0 .37-.84 1.45-1.36-.03.06-.05.2-.05.2-.18.84-.06 1.8.2 1.8.16 0 .5-.85 1.58-1.36.02-.02-.1.16-.14.4-.18.84 0 1.68.26 1.68"></path><path d="M98.79 132.79c-.04 0-.53-.3-.91-.45-.82-.14-.88.15-.9.15-.09 0-.33-.36-.2-.7s.33-.61.76-.61c.6-.1.89-.36 1.33-.48.65-.17 1.4.26 1.89.23.49-.04-.69.8-.77 1-.07.2-1.2.86-1.2.86z"></path><path d="M113.4 122.95c.54-1.62.58-3.36.62-5.07.03-1.62.03-3.34-.82-4.72-1.1-1.78-3.26-2.49-5.27-3.08-1.76-.51-3.57-1.03-5.4-.87-2.27.2-2.06 1.08-2.99 2.82-.7 1.32-3.3 2.24-3.6 4.03a8.64 8.64 0 00.12 4.03 18.36 18.36 0 002.37 5.47c.63.93 1.4 1.76 2.17 2.58.37.4 1.24.93 1.76 1.12.45.17.9.23 1.35.42.26.12.55.24.81.14.05 0 .1-.03.15-.02.07.02.1.1.13.16.1.16.34.21.54.21.2-.01.4-.05.6 0 .16.05.29.15.43.24a2 2 0 001.93.05.47.47 0 01.22-.05c.23.03.44.03.67 0a.4.4 0 01.41.25c.1.26.13.6-.28.71-1.2.4-4.17.2-5.26.07-.6-.06-2.22-.57-2.85-.56-.62.01-.96.26-1.49.5-.03 0-.45-.1-.81.42a.85.85 0 00-.16.32.4.4 0 00.42.51c.33-.03.85.07 1.63.69l.08.07.04.03s.38-.25.9-.03l.05.02c.75.45.95 1.03 1.01 1.29.04.15.16.27.31.3.12.03.28.04.5 0 .23-.03.68-.17.87-.4a.4.4 0 01.36-.16c.3.03.54.2.88.28.42.1.97-.25 1.3-.02.15.1.78.2 1.2.15.9-.1 1.65-.48 2.58-.44.6.02 1.2.18 1.8.19.17 0 .34-.04.5-.12.21-.1.34-.22.6-.24.4-.05.76-.17 1.15-.25.48-.1 1.04-.03 1.53-.03.15 0 .3 0 .45-.02.42-.05.9-.32 1-.77.09-.43-.26-.87-.41-1.26-.17-.4-.1-1.02 0-1.51a.4.4 0 01.75-.1"></path><path d="M81.32 75.79s-2.86-1.42-5.33-1.3c-2.6.13-4.08 1.38-5.51 1.45-2.68.16-2.84-.98-3.12-.97-.2.06-.1.8.23 1.07.32.28 1.19 1.07 3.05.98 2.26-.12 3.3-1.18 5.48-1.3a9.18 9.18 0 015.06 1.3"></path><path fill="#F6F6F6" stroke-width=".26" d="M72.24 76.03c-.08-.03-.56.79-.6 1.44l.06-.03c.24-.1.45-.12.65-.1-.08-.48-.03-1.29-.1-1.31z"></path><path fill="#F6F6F6" stroke-width=".26" d="M71.56 74.83c.12-.1-.42-.67-.68-1.37a.95.95 0 01-.08-.35c-.28.03-.56.1-.87.07-.06 0-.27.02-.31 0 .26.5 1.14 1.65 1.94 1.65z"></path><path d="M90.96 66.5c-.62-.9-.96-3.91-2.65-3.68-1.32.19-2.11.2-2.94.8a5.45 5.45 0 00-1.35 1.45"></path><path d="M89.57 109.56a3.3 3.3 0 01.69-3.33c.26-.27.57-.51.75-.85.31-.56.17-1.26.01-1.88-.22-.9-.5-1.78-.8-2.64-.17-.48-.37-1-.8-1.29a1.93 1.93 0 00-1.29-.23c-.87.08-1.71.35-2.55.62-1.84.58-2.63 1.3-3.68 2.92-1.09 1.7-1.82 3.47-1.8 5.32 0 1.78.06 3.52.2 5.3v.02c0 1.57 1 4.46 1 5.64-.04 4.47-.25 5.94-.25 6.8 0 .55-.12 1.63-.12 2.02l-.01.08c-.05.2-.25 1-.56 1.7l-.04.05c-.8 1.25-1.94.2-2.92 1.13a.46.46 0 01-.2.1c-.36.07-.52.44-.65.74-.13.34.11.7.2.7.02 0 .17-.28.83-.16l.11.04.66.32c.11.05.23.05.34.01.25-.1.85-.19 1.88.63l.07.07.05.03s.37-.25.89-.03l.06.02c.72.43.94.99 1 1.25.03.14.15.26.3.3.12.02.27.05.5.05.52 0 .72.08 1.13-.22.61-.45.47-.32.9-1.14 0 0 .49-1.07.49-1.98s-.38-2.39-.47-2.96c0 0-.12-.95-.18-2.25s.83-6.28 1.32-7.72c.41-1.2.99-3.4 2.19-4.3.3-.23.66-1 .85-1.43l.01-.03c.18-.53.4-1.9-.62-2.49l-.04-.02s0 0 0 0c-.36-.3 0-.87.43-.67"></path><path d="M102.11 115.78a4.84 4.84 0 00-1.05-.72c-1.35-.62-3.14-.85-3.14-.85s-.72-.05-.7-.48a.6.6 0 01.33-.53c.78-.37 2.82-.48 2.82-.48"></path><path d="M82.12 137.34c.16 0 .16-.65 1.13-1.12.61-.32 1.52-.14 1.52-.14l.29-1.64-2.86-.67-2.12-.6-1.16.34s-.27.02-.45.87c-.13.6.09 1.59.35 1.59.16 0 .37-.84 1.45-1.36l-.05.2c-.18.85-.06 1.8.2 1.8.16 0 .5-.85 1.58-1.36.02-.01-.1.17-.13.4-.18.85-.01 1.69.25 1.69"></path><path d="M102.82 137.34c.16 0 .16-.65 1.13-1.12.61-.32 1.52-.14 1.52-.14l.29-1.64-2.86-.67-2.12-.6-1.16.34s-.27.02-.45.87c-.13.6.09 1.59.35 1.59.16 0 .37-.84 1.45-1.36l-.05.2c-.18.85-.06 1.8.2 1.8.16 0 .5-.85 1.58-1.36.02-.01-.1.17-.13.4-.18.85-.01 1.69.25 1.69"></path><path d="M101.21 133.99c-.03 0-.53-.3-.91-.45-.82-.14-.88.15-.9.15-.08 0-.32-.36-.2-.7s.33-.61.76-.61c.6-.1.9-.36 1.34-.48.64-.17 1.39.26 1.88.23.5-.04-.68.8-.77 1-.07.21-1.2.86-1.2.86z"></path><path d="M127.14 102.3c-.1-3.58 1.17-6.18.78-6.65-.58-.09-3.18 2.8-3.18 7.9 0 11.33 7.74 15.1 7.74 21.37 0 3.51-1.92 5.8-5.17 5.8-.67 0-1.34-.1-1.97-.32a4.97 4.97 0 01-2.9-3.14 7.83 7.83 0 01-.38-1.97c-.04-.6.02-1.21 0-1.81-.04-.63-.11-1.26-.2-1.88-.45-3.2-1.96-7.34-4.06-9.8-3.56-4.18-8.44-7.21-10.97-9.64-4.67-4.48-6.78-7.02-8.77-12.06-1.25-3.14-1.74-5.73-2.32-7.66-.84-3.46-.12-6.64-.37-8.84s-.43-3.14-1.54-4.8c-1.1-1.65-1.68-1.86-2.36-2.31-1.29-.87-2.76-1.73-4.78-1.72-.73.03-1.27-.18-1.74-.19-.59-.01-1.03-.16-1.94-.02-.63.12-1.4.32-2.15.52a4.8 4.8 0 00-2.2.58c-.56.47-.6.53-.84.77-.27.19-1.17.79-2.83 1.19-1.65.4-2.16.24-3.83.57-1 .2-2.32.66-2.64.7-.32.02-1.41.15-1.76.43-.23.14-.26.5-.31.7-.05.24.1.82.37 1.1.18.26.04.5.34.82.15.18.24.24.75.57.54.35.8.93 1.49.97.25.02.8-.14 1.07-.14.65 0 2.3.4 2.69.5.6.06 1.24-.55 2.12-.56.68-.01 1.25.3 1.52.34.26.02 1.04.27 1.29.33.51.12 1.6.64 2.05.89.23.12 1.4 1.64 1.18 2.06-.22.42-2.67-.33-3.83-.2-1.18.14-1.21 0-1.7.08s-.76.32-1.2.38c-.3.03-.5.07-.8.06-.3-.02-.59.19-.89.18-.28 0-.68-.05-.98-.04-.26.01-.5.06-.74.18-.15.06-.28.2-.2.4.04.12.3.25.41.28.35.11.77.34 1.13.32.31-.05.68-.17 1.08-.18.46-.02.73 0 1.21-.05.3-.03.7.1 1.01.07.65-.06 1.46-.29 1.9-.23.43.06 1 .25 1.42.34.62.12 1.04.1 1.56.19.57.1 1.01-.01 1.5.24.96.5.32.32 1.76.47 0 0 .26 1.6-.39 3.19-1.03 2-2.04 2.2-3.01 3.5-.97 1.52-2.86 3.12-2.93 5.76a7.97 7.97 0 00-.23 6.96c.3 1.13-.08 2.37.5 3.36.49.84.9 1.74 1.45 2.56.55.82 1.04 1.42 1.7 2.14.46.5 1.2.74 1.2.74-.36 2.8-.03 5.87.06 7.12 0 1.57 1.01 4.47 1 5.65-.04 4.47-.24 5.94-.24 6.8 0 .58-.13 1.73-.12 2.05 0 0-.23.99-.59 1.78-.82 1.33-2.02.17-3.01 1.25-.45 0-.63.42-.76.75-.13.34.11.7.2.7.02 0 .19-.29.9-.14l.9.44s.6-.6 2.07.58c.01.03.07.07.07.07s.4-.27.91-.03c1.02.6 1.06 1.44 1.06 1.44s.1.18.78.18c.52 0 .72.09 1.13-.21.61-.46.47-.33.9-1.14 0 0 .49-1.07.49-1.98s-.38-2.39-.47-2.97c0 0-.12-.94-.18-2.24-.06-1.3.83-6.29 1.32-7.73.41-1.2.99-3.4 2.19-4.3.3-.22.67-1.01.85-1.45.18-.51.4-1.93-.64-2.5 0 0-.62-.45-.17-.99 3.27 1.93 7.3.28 10.23 3.18-1.87.93-2.79 1.7-3.03 3.13a9.8 9.8 0 00.48 4.28 18.36 18.36 0 002.37 5.47c.63.92 1.4 1.75 2.17 2.58.37.4 1.24.92 1.76 1.11.45.17.9.23 1.35.42.26.12.55.24.81.15.05-.01.1-.04.15-.03.07.03.1.1.13.16.1.17.34.22.54.22.2-.02.4-.05.6 0 .16.04.29.14.43.24a2 2 0 002.04-.02c.35.06.7.04 1.05-.02 0 0 .54.83-.14 1-1.2.4-4.17.19-5.26.07-.6-.06-2.22-.58-2.85-.57-.62.02-.96.27-1.49.5-.03 0-.45-.1-.81.43-.24.3-.28.95-.13.97 0 0 .6-.6 2.07.58.01.03.07.07.07.07s.4-.27.92-.03c1.02.6 1.05 1.44 1.05 1.44s.11.28.78.18c.29-.04.85-.22.95-.55.44-.1.72.17 1.15.27.42.1.97-.26 1.31-.03.14.1.78.2 1.2.16.89-.1 1.64-.48 2.58-.45.58.03 1.14.17 1.72.18.15 0 .3 0 .45-.06.28-.1.42-.26.72-.3.41-.04.77-.16 1.15-.25.48-.1 1.05-.02 1.54-.02.14 0 .3 0 .44-.03.42-.04.9-.32 1-.76.1-.44-.25-.88-.4-1.26-.3-.72.18-2.25.18-2.25.42.27.41.34.64.78.35.67 1 1.19 1.73 1.33.59.84 1.43.69 1.73.87.1.05.16.12.25.18.9.65 2.07.21 3.08.19a7.82 7.82 0 006.36-3.64 10.15 10.15 0 001.56-5.68c-.1-9.03-8.39-10.73-8.39-22.62z"></path><path d="M92.22 67.68c.6-.17 1.54-.2 1.9-.39.82-.44 1.75-.32 2.34-.65s3.1-.48 3.22-1.22c.13-.73-2.75-1.06-2.75-1.06s-1.67-.37-3.31-.54c-1.34-.14-2.25-.48-3.2-.1-.81.33-1.77.26-2.3 1.23-.17.31-.38.7-.58 1.01"></path><path fill="#F6F6F6" d="M80.85 67.94c-.13.22-.67.4-1.1.44-.44.05-.8-.06-.88-.32-.22-.46.24-1.06.51-1.04.28-.03 1.04.51 1.47.92z"></path><g fill="none"><path d="M80.06 131.38c-.03.03-.88-.1-1.24.44-.24.3-.4.94-.25.97"></path><path d="M98.55 133.4c0-.08.13-.64.36-.76"></path><path d="M101.04 113.9c1.13-.34 1.98-.74 3.8-.8 1.1-.02 2.65.36 4 1"></path><path d="M82 132.6c-.02.02-.88-.1-1.24.43-.24.3-.4.95-.25.97"></path><path d="M82.88 129.22c-.06 1.37-.39 2.81-.88 3.38"></path><path d="M102.71 135.25s.22-.36.65-.61"></path><path d="M100.97 134.61c0-.08.13-.63.36-.75"></path><path d="M82.02 102.7c-.08.68-.18 1.86-.07 2.87.09.8.36 1.25.23 2.03"></path><path d="M90.82 110.72c.76-1.73 1.84-3.61 2.02-6.65v-.27"></path><path d="M82.01 135.25s.22-.36.65-.61"></path><path d="M80.27 134.61c0-.08.13-.63.36-.75"></path></g><g fill="#000" stroke="none"><path d="M88.7 68.6c0-.4-.1-.8.2-1.1.7-.8.9-1.9 1.7-2.7.7-.5 1.6-.2 2.4-.2.8.1 1.5.3 2.3.3.8-.1 1.5.2 2.3.3-.8 0-1.6-.1-2.3-.1h-1.9c-.8-.1-1.6-.4-2.4-.1-.8.5-.9 1.4-1.5 2-.4.5-.9 1-.8 1.6z"></path><path d="M99.75 131.2l.06.02h.07l.1.03.25.06.27.1c.18.07.35.17.47.25.12.08.18.16.18.16l-.02.02-.2-.1a3 3 0 00-.49-.15l-.26-.04h-.44v-.35z"></path><path d="M97.56 130.99l.05.01.13.02c.11.03.26.05.4.1s.28.1.37.17c.05.02.09.06.11.08l.04.04-.03.02-.03-.02c-.03-.01-.06-.04-.11-.05-.1-.04-.23-.05-.37-.05l-.38.01-.13.02h-.05V131z"></path><path d="M100.18 133.54l-.07.06-.09.06a.6.6 0 00-.1.09l-.11.1-.13.1-.14.12c-.04.04-.08.09-.13.12-.05.04-.08.09-.13.12l-.12.12-.2.23-.2.24-.04-.01s0-.13.1-.31c.04-.09.09-.2.16-.3l.12-.14.13-.13.15-.12.15-.1a.65.65 0 01.16-.09l.14-.06c.09-.04.17-.06.22-.07.1-.04.12-.04.13-.03z"></path><path d="M98.3 133.08l-.05.06-.15.13-.19.18-.21.21-.41.41-.2.2-.03-.02s.02-.12.1-.26a2.05 2.05 0 01.62-.68l.13-.08c.04-.02.09-.03.12-.06a.99.99 0 01.2-.07c.03-.02.07-.02.07-.02z"></path><path d="M80.08 131.2l.06.02c.04.02.1 0 .17.03.07.01.15.04.24.07s.17.08.25.12a1.65 1.65 0 01.42.32c.1.1.14.19.14.19l-.03.02-.04-.05-.12-.1-.19-.1c-.07-.04-.16-.06-.24-.08-.08-.03-.17-.04-.24-.05l-.22-.01h-.21l.01-.38z"></path><path d="M77.34 130.84l.05.02c.04 0 .07 0 .13.02.06.01.14.02.2.05l.22.08c.15.06.28.16.36.24l.09.11c.02.02.02.05.02.05l-.03.01-.04-.04a.42.42 0 00-.1-.07.85.85 0 00-.37-.12l-.2-.01h-.18l-.13.01h-.05l.03-.35z"></path><path d="M78.08 133.08l-.05.06-.15.13-.19.18-.21.21-.41.41-.2.2-.03-.02s.02-.12.1-.26a2.05 2.05 0 01.62-.68l.13-.08c.04-.02.09-.03.12-.06a.99.99 0 01.2-.07c.03-.02.05-.02.07-.02z"></path><path d="M81.62 130.34v-.1a4.1 4.1 0 00.07-.46l.03-.2c.03-.14.05-.3.06-.44.03-.14.04-.29.06-.43a.7.7 0 00.03-.2l.02-.19a5.5 5.5 0 01.06-.38l.03.1.04.28c.02.12.03.26.03.4l-.01.23-.03.23c-.01.07-.02.15-.05.22 0 .08-.03.15-.06.22a2.28 2.28 0 01-.26.62c0 .06-.02.1-.02.1z"></path><path d="M119.98 131.04l-.02-.03-.03-.02-.01-.01-.02-.03-.09-.13-.07-.16c-.05-.1-.08-.24-.13-.37a4.3 4.3 0 01-.13-.42l-.15-.4c-.05-.14-.1-.26-.15-.35l-.08-.14-.07-.1-.07-.06.08.06.09.08.1.12c.07.1.14.2.2.32l.2.4.2.4c.05.12.11.24.17.32a1.06 1.06 0 00.12.18l.02.01v.01l.03.03.03.01-.22.28z"></path><path d="M88.28 86.94s.02.1 0 .24c0 .07-.03.14-.05.22l-.06.12c-.03.04-.05.08-.09.11l-.1.1-.1.08-.1.06-.13.04c-.08.01-.15 0-.19-.03-.02 0-.04-.02-.04-.03v-.01l.05-.03c.04-.01.06-.05.1-.1l.05-.07a.36.36 0 01.06-.08c.04-.06.1-.1.14-.17l.3-.3.12-.1c.01-.04.04-.05.04-.05z"></path><path d="M89.63 87.78v.1l-.02.14-.04.16a.57.57 0 01-.07.18l-.1.2-.15.19-.17.18c-.06.06-.12.1-.2.15a.78.78 0 01-.2.14l-.2.1-.2.05-.16.04-.13.01h-.11l.08-.07.23-.17.15-.1c.04-.04.1-.1.15-.13l.16-.13.15-.14.16-.16.14-.16.14-.14.12-.14.18-.22.1-.08z"></path><path d="M77.4 91.76l.09-.16.1-.18.16-.22c.06-.08.13-.17.22-.24.08-.09.17-.16.26-.24l.28-.23.25-.27a5.62 5.62 0 01.98-.98l.5-.4-.46.44c-.13.13-.29.28-.44.46a5.24 5.24 0 00-.45.58c-.07.1-.15.22-.24.31l-.25.27-.23.24c-.07.07-.12.15-.17.22l-.12.22a.64.64 0 00-.07.17l-.06.15-.35-.14z"></path><path d="M108.92 113.94l.15.08.18.1.23.13.26.17.3.2.3.23.28.25.14.13.14.15.24.28.1.15.1.14.16.27c.03.08.08.16.1.24l.06.19.05.17-.06-.17c-.01-.05-.05-.11-.08-.18-.03-.07-.09-.15-.12-.23a1.95 1.95 0 00-.18-.25l-.11-.13-.12-.14-.26-.25-.15-.12-.14-.12-.3-.21-.3-.2-.29-.16-.26-.15-.23-.1-.18-.09-.16-.07.15-.31z"></path><path d="M111.87 131.42l.6-.08.14-.03h.11c.04 0 .07.01.1.03.15.04.24.15.32.22.16.17.32.33.5.47.2.15.4.25.6.31a41.4 41.4 0 001.2.22l-.6-.05c-.18-.01-.4-.02-.62-.07a2.22 2.22 0 01-.68-.28 3.27 3.27 0 01-.58-.44.6.6 0 00-.22-.14h-.1l-.12.03-.6.15-.05-.34z"></path><path d="M110.66 126.22l.07.15.08.17.11.2c.04.07.1.14.14.23l.18.24c.08.07.14.15.22.24l.24.23.26.2.27.18.26.14c.09.04.17.09.25.11l.22.09.18.06.16.04-.17.03-.2.01h-.11l-.14-.01c-.04-.01-.1-.01-.14-.03l-.16-.03-.3-.11c-.12-.05-.22-.1-.32-.17l-.3-.21a2.74 2.74 0 01-.48-.56c-.06-.1-.12-.19-.16-.3-.02-.04-.03-.1-.06-.14 0-.05-.02-.1-.04-.13l-.04-.13-.02-.12-.03-.2.03-.18z"></path><path d="M112.98 127.2l.05.15.11.37c.1.3.22.69.42 1.02.05.09.1.16.17.24l.18.22a1.8 1.8 0 00.4.31l.17.1.16.06.1.03.04.02h-.03l-.11.02h-.18l-.1-.01c-.04-.01-.08-.03-.13-.03a2.16 2.16 0 01-.25-.1c-.08-.04-.18-.09-.26-.16a1.43 1.43 0 01-.24-.23 2.06 2.06 0 01-.46-.89 1.3 1.3 0 01-.05-.3l-.01-.26.02-.4v-.15z"></path><path d="M114.28 128.97c.08.17.18.33.28.47a5.62 5.62 0 00.7.82c.06.06.12.12.2.16l.21.16.22.14a1 1 0 00.23.12c.08.04.15.08.24.11l.24.09c.16.04.33.08.5.1.17.03.35.03.53.04h.01c.06 0 .12.05.13.1l.05.18.07.15a1 1 0 00.1.15c.03.04.07.1.12.13l.07.06.07.06.07.05.09.04.18.08.1.02.09.02c-.06.02-.13.02-.2.02l-.2-.03a.53.53 0 01-.19-.07l-.1-.05-.08-.06c-.06-.03-.1-.08-.15-.13l-.15-.16-.1-.18a.72.72 0 01-.09-.2l.16.1a3.08 3.08 0 01-1.16-.08c-.1-.02-.19-.06-.27-.1l-.27-.11-.25-.15c-.08-.04-.17-.1-.24-.16l-.21-.2c-.08-.07-.15-.13-.2-.2-.14-.14-.25-.3-.36-.46-.22-.3-.37-.66-.44-1.03z"></path><path d="M113.67 117.52l.05.1c0 .04.03.07.03.12l.04.17v.1l-.01.1c0 .07-.03.15-.05.23-.03.07-.05.16-.1.22-.03.07-.08.14-.12.2-.18.26-.4.47-.59.61l-.21.17-.09.06.04-.1a2.1 2.1 0 01.31-.6l.25-.36.12-.16.05-.09.05-.08.08-.17c.03-.06.05-.1.06-.16.03-.04.03-.1.04-.14l.02-.12.03-.1z"></path><path d="M114.71 119.06l.03.08.02.23a1.47 1.47 0 01-.16.65l-.08.16-.1.14c-.07.08-.14.17-.21.23a.7.7 0 01-.2.12l-.08.03.03-.08c0-.05.04-.12.07-.2.06-.16.15-.36.25-.56l.28-.54.1-.18.05-.08z"></path><path d="M93.93 104.25v.12l.01.12c.01.07.02.16.05.23l.08.2.11.2.06.08.07.08.07.08.09.07.18.12.19.08c.06.03.13.04.22.05a.7.7 0 01.28.13.7.7 0 01.18.25l.05.12.04.11.14.46.13.45-.2-.1a.6.6 0 01.29 0 .8.8 0 01.42.27c.05.06.1.12.13.2.04.05.07.13.1.19l.08.19a1.31 1.31 0 00.23.35.83.83 0 01-.33-.3l-.13-.16-.12-.17a1.2 1.2 0 00-.27-.24.4.4 0 00-.16-.05h-.07l-.06.02c-.09.02-.17-.02-.2-.1v-.01l-.16-.45-.16-.44-.03-.1-.04-.1a.37.37 0 00-.08-.14.27.27 0 00-.15-.06l-.24-.08a1.5 1.5 0 01-.24-.12 1.38 1.38 0 01-.29-.26l-.08-.11-.07-.11a1.44 1.44 0 01-.2-.59c0-.08 0-.17.02-.25l.02-.12.04-.1z"></path><path d="M97.58 109.2v.06c0 .03 0 .07.02.12l.08.16.16.18c.13.11.31.22.52.27l.08.02.08.01.17.04.37.06c.14.02.27.05.39.1l.19.07a.2.2 0 01.08.05c.03 0 .06.03.09.04.21.14.38.3.51.44.14.13.24.25.33.32l.13.12s-.06-.01-.17-.06c-.1-.05-.25-.12-.4-.23-.17-.1-.35-.21-.55-.31l-.07-.04-.08-.03-.16-.05-.35-.07-.37-.07-.19-.05c-.04-.01-.06-.03-.1-.03-.03 0-.04-.02-.08-.03-.25-.1-.44-.27-.56-.43a.95.95 0 01-.12-.26c-.03-.08-.03-.15-.03-.21s.01-.11.03-.13v-.05z"></path><path d="M81 104.84v.13l.03.15.03.19.06.21.09.24a4.99 4.99 0 00.98 1.6l.09.1-.28.22-.08-.1-.2-.3a5.37 5.37 0 01-.46-.94l-.17-.54c-.03-.08-.04-.17-.05-.25l-.04-.23v-.34c-.02-.1 0-.14 0-.14z"></path><path d="M119.54 120.43l.03.24a5.52 5.52 0 01.09 1.02l.02.45.01.5v.5l-.01.5-.01.5-.03.45v.4c.02.24.06.44.12.57.03.08.06.12.09.16l.03.05-.04-.04c-.02-.01-.04-.02-.06-.05l-.08-.07a1.5 1.5 0 01-.26-.59 4.42 4.42 0 01-.06-.42l-.02-.46-.02-.5v-.5c0-.17 0-.34.02-.5v-.5l.03-.45.04-.41.07-.61.04-.24z"></path><path d="M118.31 121.3l-.03-.14c-.03-.08-.05-.2-.08-.35l-.22-1-.27-1.01a2.08 2.08 0 00-.1-.34l-.03-.13.1.1.1.11.11.17c.09.12.17.28.24.45l.11.26a2.6 2.6 0 01.14.58l.04.28.01.27-.01.24-.02.2-.04.16-.05.14z"></path><path d="M102.17 132.4l.06.02h.07l.1.03.25.06.28.1c.18.07.35.17.47.25.12.08.18.16.18.16l-.03.02-.2-.1a3 3 0 00-.48-.15l-.27-.04h-.44l.01-.35z"></path><path d="M99.99 132.2l.05.01.13.03c.1.02.25.04.4.1.14.04.27.1.37.16l.1.08.04.04-.02.02-.04-.02-.1-.05a1.4 1.4 0 00-.38-.05c-.13 0-.28 0-.37.02h-.13c-.04 0-.05.02-.05.02v-.36z"></path><path d="M103.1 134.61a.45.45 0 010-.18.7.7 0 01.02-.17 1.06 1.06 0 01.22-.46l.12-.14.13-.1.13-.09a2.2 2.2 0 01.6-.26c.06-.01.1-.03.17-.03h.17a.7.7 0 01.16.03c.06.01.11.02.17.05h-.01l.22.07.2.08.2.1c.08.03.14.07.2.12l.18.14.15.16c.05.06.1.12.13.18.04.06.08.13.1.2l-.04.01-.3-.27-.18-.12a.36.36 0 01-.08-.06l-.08-.05a1.31 1.31 0 00-.18-.1c-.06-.02-.12-.06-.2-.08a1.18 1.18 0 00-.19-.06l-.2-.05h-.01a.43.43 0 00-.12-.02l-.12-.01h-.12l-.12.03c-.17.05-.34.13-.48.23l-.12.08a.6.6 0 00-.1.09l-.08.08c-.03.04-.05.06-.06.1a.74.74 0 00-.09.23l-.01.12v.12l-.38.03z"></path><path d="M104.81 133.2l.16-.05.19-.06.26-.05.32-.04h.34l.36.03c.12 0 .26.03.38.05l.36.07c.12.02.24.06.34.1l.33.1.27.11c.17.07.32.14.4.2l.14.1v.04l-.6-.15a12.66 12.66 0 00-.6-.14l-.34-.07c-.12-.03-.24-.04-.35-.05l-.35-.04-.34-.01-.3.01-.28.04-.23.05c-.07 0-.13.03-.18.04l-.16.05-.12-.33z"></path><path d="M104.81 135.62l-.36.08c-.05.02-.1.04-.17.05l-.18.06a.9.9 0 00-.18.09c-.06.02-.12.06-.18.1l-.16.11-.16.13-.28.24-.27.26-.04-.03s.05-.14.18-.33a2.15 2.15 0 01.42-.46c.06-.05.11-.1.2-.14a.9.9 0 01.21-.11c.07-.04.14-.05.22-.07.07-.03.14-.03.2-.04l.18-.01c.23.02.38.06.37.07z"></path><path d="M102.6 134.76l-.07.06c-.02 0-.05.03-.08.06a.6.6 0 00-.1.08c-.03.04-.07.06-.12.1l-.13.1-.13.12-.13.12-.14.12a.46.46 0 01-.12.12l-.2.23-.2.24-.04-.01s.01-.13.1-.31l.16-.29.12-.14.14-.14.14-.12.16-.1c.04-.04.1-.06.15-.09l.15-.06.21-.07c.1-.04.12-.04.13-.02z"></path><path d="M100.72 134.29l-.05.06-.14.13-.2.18-.21.22c-.14.14-.3.28-.4.4l-.2.2-.04-.02s.03-.12.1-.26c.04-.07.08-.16.16-.24a2.05 2.05 0 01.46-.44l.14-.08.12-.06a.99.99 0 01.19-.07c.03-.02.07-.02.07-.02z"></path><path d="M122.32 133.12l-.04-.06-.08-.16a4.8 4.8 0 01-.2-.52 1.2 1.2 0 01-.04-.29v-.13l.01-.12c0-.04.03-.07.03-.1l.03-.07.04-.06-.01.06c-.02.03-.02.05-.02.07v.1c0 .04 0 .07.02.1 0 .04 0 .1.03.13.03.08.06.17.11.25.08.17.2.32.28.43l.1.13a.2.2 0 01.04.05l-.3.2z"></path><path d="M107 129c1 0 1 1 1 1l-1-1z"></path><path d="M110.32 130.54l.25.16c.16.1.36.22.55.36a1.9 1.9 0 00.56.29c.08.02.15.05.2.05h.07l-.1.36-.09-.04a2.67 2.67 0 01-.48-.28c-.1-.07-.18-.15-.28-.24l-.48-.45-.2-.2z"></path><path d="M112.95 135.45l.08-.01.1-.01c.03-.01.07-.01.1-.03.04 0 .09-.02.14-.04.05-.03.1-.04.14-.08a1 1 0 00.15-.1c.04-.03.1-.06.14-.11l.26-.25.14-.12.12-.11.1-.07.09-.05.08-.04-.07.05a.32.32 0 00-.07.06l-.1.1-.1.12-.09.14-.23.31-.13.16-.14.13c-.05.05-.11.07-.16.1a.9.9 0 01-.14.1.73.73 0 01-.15.05l-.1.04-.08.02-.08-.36z"></path><path d="M115.85 135.38l.05-.04.12-.1a11.47 11.47 0 01.74-.64l.15-.08.06-.03s-.03.01-.05.04l-.1.1c-.1.1-.2.25-.3.4l-.26.42-.1.15-.03.04-.28-.26z"></path><path d="M109.17 135.81v-.02l.01-.03.02-.06c.02 0 .02-.02.03-.03l.02-.03c.01 0 .04-.03.05-.06l.12-.1c.18-.11.42-.18.66-.26l.35-.1c.1-.03.21-.05.29-.09.08-.03.14-.08.19-.12.02-.01.03-.03.05-.03v-.02.03s-.03.02-.04.05l-.17.15c-.07.06-.18.11-.27.16l-.33.15c-.21.11-.43.23-.54.34a.32.32 0 00-.06.07l-.01.03v.06l-.37-.09z"></path><path d="M82.74 99.1l-.02-.08c-.01-.05-.04-.1-.05-.2l-.06-.3c-.01-.12-.03-.26-.03-.41-.02-.15 0-.31 0-.48s.04-.35.08-.53a5.57 5.57 0 01.37-1.12l.15-.26.15-.25a8.38 8.38 0 011.58-1.64l.22-.16-.17.2-.45.54c-.1.11-.2.23-.29.36l-.31.41c-.11.14-.2.3-.3.46l-.15.24-.12.25c-.08.17-.15.33-.21.51l-.17.52c-.05.17-.08.34-.1.5l-.08.45-.04.38v.6z"></path><path d="M89.43 106.77l.1-.1c.08-.05.16-.14.28-.23.23-.2.5-.47.77-.76l.37-.43c.06-.07.11-.15.17-.2l.13-.19c.06-.12.09-.24.11-.32l.02-.14s.03.04.05.14c.01.05.03.1.03.17 0 .06 0 .14-.02.23s-.06.18-.1.25l-.12.25-.17.25a1.6 1.6 0 01-.2.24c-.08.07-.15.16-.23.22l-.24.19-.24.16-.23.12c-.15.07-.27.1-.35.13l-.13.02z"></path><path d="M88.31 107.28l-.08-.03a.94.94 0 01-.42-.31.98.98 0 01-.2-.4c0-.02 0-.06-.02-.08l-.02-.17.01-.3c.01-.09.04-.15.05-.2.01-.05.03-.07.03-.07l.04.07.08.19.09.26c.01.05.02.1.05.15l.02.07.02.07c.06.18.15.36.22.5.04.08.07.14.08.19.04.03.05.06.05.06z"></path><path d="M86.86 106.6h-.07a.27.27 0 01-.18-.1 1.06 1.06 0 01-.28-.44c-.06-.16-.1-.34-.1-.48 0-.07 0-.13.02-.16l.01-.08.06.05.12.13c.08.11.18.27.24.44l.07.25a6.85 6.85 0 00.09.35l.02.03z"></path><path d="M85.62 106.16l-.06-.06c-.03-.04-.1-.1-.14-.17a1.1 1.1 0 01-.16-.26l-.12-.33c0-.06-.02-.12-.03-.16l-.01-.17v-.3c0-.08.04-.17.06-.22l.03-.08.04.07.08.2c.06.15.12.36.18.58.05.22.1.43.12.6.01.08.01.16.03.22l-.02.08z"></path><path d="M84.28 104.82a.93.93 0 01-.2-.3l-.04-.16-.02-.17a1.14 1.14 0 01.07-.51l.07-.16v.08a.36.36 0 01.02-.25c.04-.07.09-.14.16-.17v.11l.01.09c.01.06.04.1.06.13l.01.01v.07l-.06.59c0 .1 0 .2-.02.3a.7.7 0 01-.02.16c-.03.06-.03.12-.04.18z"></path><path d="M82.97 99.8l-.06.12-.14.31a8.05 8.05 0 00-.54 2l-.04.34a.6.6 0 01-.01.13l-.36-.03.02-.13.08-.35a8.13 8.13 0 01.78-1.98l.18-.3c.07-.06.1-.11.1-.11z"></path><path d="M92.67 103.8l.01-.17.02-.43a12.4 12.4 0 00-.16-2.62l-.11-.59s.07.23.15.58a16.86 16.86 0 01.4 2.62l.04.44v.17h-.35z"></path><path d="M90.23 114.13v-.1l-.01-.1-.02-.14-.1-.3-.13-.36a1.68 1.68 0 00-.15-.3l-.08-.1h-.04c.02 0 0 0 0 0l-.02-.02a.1.1 0 00-.06-.02.74.74 0 01-.24-.13c-.05-.05-.05-.1-.05-.1l.03.01.06.03c.06 0 .13 0 .24-.02h.13l.06.02a.7.7 0 01.2.12c.12.1.2.25.25.4l.04.1.02.1c.02.07.04.13.04.2.02.13.02.26 0 .38a.4.4 0 01-.05.15c-.01.05-.03.07-.06.1-.03.07-.06.08-.06.08z"></path><path d="M87.04 122.88l-.02-.06-.06-.2c-.05-.16-.1-.4-.1-.7 0-.15 0-.32.02-.48.02-.17.04-.35.08-.53a9.87 9.87 0 01.28-1.12l.16-.55.16-.53c.04-.17.1-.33.13-.5l.1-.46.08-.68v-.27l.07.27a3.61 3.61 0 01.02 1.19c-.02.16-.04.34-.08.52s-.07.36-.13.56l-.16.56c-.06.18-.1.37-.17.55l-.14.53-.12.5c-.04.16-.06.32-.08.46a3.65 3.65 0 00-.03.88l-.01.06z"></path><path d="M82.02 132.42h.06l.17.04c.07.02.16.04.24.08l.25.12a1.65 1.65 0 01.42.3l.15.2-.04.02-.03-.04-.12-.1-.2-.1-.24-.1-.24-.04-.21-.01H82l.01-.37z"></path><path d="M79.29 132.06h.05c.03.02.07.02.13.03l.2.05.22.08c.14.06.27.16.36.24l.08.11c.03.03.03.05.03.05l-.04.01-.04-.03a.42.42 0 00-.1-.08.85.85 0 00-.36-.12h-.57l.04-.34z"></path><path d="M82.4 134.61a.45.45 0 010-.18.7.7 0 01.02-.17 1.06 1.06 0 01.22-.46l.12-.14.13-.1.13-.09a2.2 2.2 0 01.6-.26c.06-.01.1-.03.17-.03h.17a.7.7 0 01.16.03c.06.01.11.02.17.05h-.01l.2.06a.6.6 0 01.2.08l.1.05.1.05.1.06.08.06.08.07.09.07c.05.05.1.1.14.17a.6.6 0 01.11.19c.02.06.06.13.06.2l-.04.02c-.08-.11-.16-.2-.26-.3l-.07-.05-.07-.06-.16-.11-.08-.05a.2.2 0 01-.09-.05l-.08-.03-.09-.04-.18-.06-.19-.05h-.01a.43.43 0 00-.12-.02l-.12-.01-.12.01-.12.02c-.17.05-.34.14-.48.23l-.12.09a.6.6 0 00-.1.08l-.08.08c-.02.04-.05.06-.06.1a.74.74 0 00-.08.23c-.02.03-.02.08-.02.12v.12l-.4.02z"></path><path d="M84 133.3l.04-.07c.01-.02.02-.05.05-.07l.06-.08.31-.41.13-.23a.85.85 0 00.09-.22c0-.03 0-.06.02-.1l.01-.06V132l.01.06.02.07v.1c0 .07-.02.15-.04.25l-.08.27c-.08.18-.16.35-.2.48a.59.59 0 01-.04.09l-.03.06-.02.06-.33-.15z"></path><path d="M84.11 135.62l-.36.08c-.05.02-.1.04-.17.05l-.18.06a.9.9 0 00-.18.09c-.06.02-.12.06-.18.1l-.16.11-.16.13-.28.24-.27.26-.04-.03s.05-.14.18-.33a2.15 2.15 0 01.42-.46c.06-.05.11-.1.2-.14a.9.9 0 01.21-.11c.07-.04.14-.05.22-.07.07-.03.14-.03.2-.04l.18-.01c.23.02.37.06.37.07z"></path><path d="M81.9 134.88l-.06.06-.16.13-.11.08c-.04.04-.09.06-.12.1l-.13.1-.14.11-.13.11-.12.11a.4.4 0 01-.12.1l-.1.1-.15.16-.06.06-.04-.01.03-.09.1-.2c.04-.08.1-.17.17-.26l.27-.26.14-.1.16-.1c.1-.06.2-.1.29-.13.08-.04.15-.05.21-.06l.07-.01z"></path><path d="M80.02 134.29l-.05.06-.14.13-.2.18-.21.22c-.14.14-.3.28-.4.4l-.2.2-.04-.02s.03-.12.1-.26c.04-.07.08-.16.16-.24a2.05 2.05 0 01.46-.44l.14-.08.12-.06a.99.99 0 01.19-.07c.03-.02.07-.02.07-.02z"></path><path d="M79.94 93.4l-.08.04a.79.79 0 00-.19.14 1.5 1.5 0 00-.23.3c-.07.11-.14.26-.2.41-.07.17-.12.34-.18.54-.04.1-.06.2-.08.3l-.09.31a17.3 17.3 0 00-.23 1.01l-.06.35-.06.35c0 .12-.02.23-.04.35-.03.22-.05.45-.06.68-.02.1-.02.22-.03.32l-.01.32-.01.57.01.5.01.37.01.32-.08-.32a9.12 9.12 0 01-.22-1.46v-.66c0-.22 0-.46.03-.7l.03-.35.05-.36.07-.36c.03-.12.05-.24.09-.35.06-.23.12-.46.19-.67l.1-.31.13-.3a3.72 3.72 0 01.54-.96c.1-.12.2-.2.3-.26.1-.06.17-.08.23-.1l.06-.02z"></path><path d="M83.57 131.55l.01-.1a4.1 4.1 0 00.06-.46l.04-.2.06-.44.06-.43.02-.2.03-.18a5.5 5.5 0 01.06-.39l.02.11c.01.06.04.16.05.28l.02.4v.22l-.03.23-.05.23-.06.21a2.28 2.28 0 01-.26.63.88.88 0 01-.03.1z"></path><path d="M79.43 67.15c.12 0 .13.29.15.61 0 .32.02.55-.1.55s-.31-.23-.32-.55c-.03-.31.14-.61.27-.61z"></path><path d="M71.8 70.9c.7 0 1.3.2 1.8.7a4 4 0 01-1.8-.7z"></path><path d="M78.71 71.89l.03.02.04.06.09.09.1.08c.17.12.43.24.7.37l.2.11.2.12c.12.08.23.18.3.26l.18.22.06.1-.11-.04-.26-.1-.35-.16-.2-.1-.2-.1c-.13-.07-.27-.14-.4-.24a1.06 1.06 0 01-.35-.46c-.03-.05-.03-.1-.04-.14v-.08l.01-.01z"></path><path d="M85.2 75.1c.9.1 1.4.6 1.8 1.4-.6-.5-1.2-.9-1.8-1.4z"></path><path d="M81.7 67.8c.6-.1.9.3 1.2.6-.5 0-1-.3-1.2-.6z"></path><path d="M81.3 69c-.2.3-.3.5-.5 1.2-.2-.8 0-1 .5-1.2z"></path><path d="M80.94 67.78l.04.04a5.04 5.04 0 00.42.29l.34.2c.1.06.14.11.14.11l-.17-.06a8.95 8.95 0 01-.78-.22l-.13-.04-.05-.03.2-.29z"></path><path d="M78.7 66.2c-.1.3.5.6.9.4.6-.2 1.3-.3 1.8.2-.4-.1-1-.2-1.5.1-.4.1-1.1.4-1.3-.2-.1-.2.2-.7.1-.5z"></path><path d="M78.3 68c.3.9-.2 1.2-.7 1.4.3-.4.6-.8.7-1.4z"></path><path d="M66.8 71.1c.2 0 .4-.2.5-.4.1-.2.1-.4.2-.5.2-.2.3-.2.6-.1-.2.1-.4-.1-.5.1-.1.1-.1.4-.1.6 0 .3-.2.5-.4.6-.2.1-.3-.1-.3-.3z"></path><path d="M67.9 71.2c0-.3.2-.5.4-.5.2.3-.4.6-.4.5z"></path><path d="M87.71 66.06l-.03.04-.1.15a1.8 1.8 0 01-.14.24c-.04.05-.06.1-.11.14l-.12.12a1.3 1.3 0 01-.55.28l-.2.03h-.07l.07-.02.18-.07c.15-.06.32-.2.45-.35l.08-.12.06-.12c.04-.08.06-.18.09-.25.02-.09.06-.15.08-.2l.05-.08.26.2z"></path><path d="M89.7 68.9c.2-.4.4-.9.6-1.4.2.9.1 1.2-.6 1.4z"></path><path d="M92.3 67.84l-.11.04-.1.04c-.03.02-.08.03-.13.07a.9.9 0 00-.28.24c-.1.1-.16.23-.24.37a2.8 2.8 0 00-.23.83l-.03.4-.02-.41V69a2.21 2.21 0 01.3-.94c.1-.13.2-.25.3-.34l.15-.1.13-.08.1-.04.16.34z"></path><path d="M83.93 79.18l.07.02.17.03a4.7 4.7 0 001.35.1l-.24.07a5.08 5.08 0 01-1.12.14h-.26l.03-.36z"></path></g></g><g id="lionHeadCaboshed_provinceCOA240" stroke-width=".45"><path d="M119.14 65.59s-.18-.14-1.36-.87a4.44 4.44 0 00-1.98-.75s-.05-.92-2.05-1.74c-2-.83-2.88-.22-2.88-.22s-.28-.7-2.61-1.28c-2.04-.55-2.87-.02-2.87-.02s-1.07-.77-3.49-.54c-2.41.22-2.04.78-2.04.78s.33-.55-2.08-.78c-2.42-.23-3.5.54-3.5.54s-.82-.68-2.86-.13c-2.33.6-2.61 1.29-2.61 1.29s-.87-.47-2.88.36c-2 .82-2.05 1.74-2.05 1.74s-.8.02-1.98.75-1.36.87-1.36.87-2.88-1.74-7.46-.21c-2.07 2.07-1.85 7.84-.6 11.03.06.15-1.24 1.25-1.65 2.86-.37 1.46.43 4.03-.67 5.3-1.8 1.8-3.12.07-3.12 1.09 0 3.2 3.69 2.91 3.69 2.91s.55 2.37-.97 3.7c-.8.66-1.91.81-2.36.72-.4-.07-.81-.24-.63.49a3.4 3.4 0 004.16 2.79c-1.18 1.37-.65 3.14-1.05 3.98-.87 1.94-2.65 1.92-2.65 2.26 0 .34 1.15 1.39 2.43 1.52 1.2.14 1.8-.36 2.25-.47-1.1 1.85-.03 2.77-.68 4.44-.78 2.03-2.48 2.63-2.37 2.97.12.34 1.33.91 2.73.87 1.4-.05 2.41-1 2.86-1.05-.45 1.07.22 2.63-.6 4.48-.85 1.93-2.78 2.74-2.73 3.08.06.34 1.64.88 3.17.92 1.33.05 2.26-.34 2.82-1.13-.5 2.08.74 2.38.25 4.27-.54 2.04-2.16 3.37-1.94 3.6.23.22 1.68.44 3.2.04 1.35-.36 3.01-2.03 3.01-2.03s-.68 3.42 0 5.46c.68 2.01 2.07 3.54 2.4 3.54.35 0 .17-1.91.9-2.95a7.5 7.5 0 012.07-1.9c.11 1.23 1.89 1.85 2.63 3.57.95 2.22-.26 4.54.02 4.88.28.34 2.08-.11 3.43-1.26 1.26-1.06 2.25-3.16 2.25-3.16-.04.01 1.92.3 2.46 2.01.27.86-.1 1.84.48 2.99.92 1.83 2.2 2.95 3.14 2.6.67-.16-.36-1.85 1.36-3.85 2.03-2.34 1.78-3.75 1.73-3.76 0 0 1 2.1 2.25 3.16 1.35 1.14 3.15 1.6 3.43 1.26.29-.34-.92-2.67.03-4.88.74-1.73 2.52-2.34 2.63-3.58.4.23 1.4.98 2.07 1.91.73 1.05.55 2.95.89 2.95.34 0 1.73-1.53 2.4-3.54.68-2.04 0-5.46 0-5.46s1.67 1.67 3.02 2.03c1.52.4 2.97.18 3.2-.05.22-.22-1.41-1.55-1.94-3.59-.5-1.89.75-2.2.25-4.27.56.78 1.48 1.18 2.82 1.13 1.53-.04 3.1-.58 3.16-.92.06-.34-1.88-1.15-2.73-3.08-.81-1.85-.15-3.41-.6-4.48.45.06 1.47 1 2.87 1.05 1.4.04 2.61-.53 2.72-.87.12-.34-1.58-.94-2.36-2.97-.65-1.69.43-2.59-.68-4.44.45.1 1.04.6 2.25.47 1.27-.14 2.43-1.18 2.43-1.52 0-.34-1.78-.33-2.65-2.26-.4-.84.13-2.61-1.06-3.98.97.27 3.63.09 4.17-2.8.18-.72-.23-.56-.63-.48a3.38 3.38 0 01-2.37-.72c-1.51-1.34-.96-3.7-.96-3.7s3.69.27 3.69-2.91c0-1.03-1.32.7-3.12-1.08-1.1-1.28-.3-3.85-.67-5.31-.41-1.61-1.71-2.71-1.66-2.86 1.26-3.2 1.48-8.97-.6-11.04-4.63-1.51-7.61.23-7.61.23z"></path><path fill="#f8f8fa" d="M109.53 106.06a7.8 7.8 0 01-.08 4.35c-.48 1.68-1.4 2.1-1.4 2.1s0 0 0 0 0 0 0 0c-.3-.09.1-.46-.3-2.38-.64-2.85-1.19-3.52-1.72-4.42m.13 16.2s.66-1.04.94-3.03c.17-1.33-.04-2.33.05-2.35 0 0 0 0 0 0l.15-.01c.38.05.81.5 1.1 1.06.28.56.4 1.18.49 2.13"></path><path fill="#f8f8fa" d="M90.27 106.06a7.8 7.8 0 00.08 4.35c.48 1.68 1.4 2.1 1.4 2.1v0c.31-.09-.1-.46.3-2.38.64-2.85 1.2-3.52 1.72-4.42m-.2 16.09s-.6-.93-.88-2.92c-.17-1.33.05-2.33-.04-2.35h-.02l-.14-.01c-.37.05-.84.48-1.1 1.06-.24.56-.3 1.22-.39 2.18"></path><path fill="#f8f8fa" d="M113.48 80.21c-1.54.05-4.93 2.1-4.9 3.04.07.65 1.35 1.94 3.43 1.87 2.08-.07 4.18-3.93 4.17-4.33-.01-.1-1.63-.61-2.7-.58z"></path><path fill="#f8f8fa" d="M86.31 80.21c1.54.05 4.93 2.1 4.9 3.04-.07.65-1.34 1.94-3.42 1.87-2.09-.07-4.19-3.93-4.18-4.33.01-.1 1.63-.61 2.7-.58z"></path><path fill="#1d1d1b" stroke-width=".113" d="M112.52 81.35c-.43-.16-.83-.03-1.08.34-.22.58.15.53 0 1.4-.07.52-.31 1.24.4 1.4 0 0 .63.37 1.21-.88.4-.84.07-2.1-.53-2.26z"></path><path fill="#1d1d1b" stroke-width=".113" d="M87.27 81.35c.44-.16.83-.03 1.08.34.22.58-.15.53 0 1.4.08.52.31 1.24-.4 1.4 0 0-.63.37-1.21-.88-.4-.84-.07-2.1.53-2.26z"></path><path fill="none" d="M99.89 102.58l-.01 1.6"></path><path d="M93.22 109v6.41c0 5.46 4.37 8.96 6.63 8.96s6.62-3.48 6.62-8.96V109c0-1.19-.81-2.45-2.63-2.45-1.82 0-3.05.82-4 .82-.95 0-2.17-.82-4-.82-1.8 0-2.62 1.26-2.62 2.45z"></path><path fill="none" d="M94.4 97.87c.48.02.81-.54 1.23-.34.38.18.6.58.6.9 0 .26-.22.46-.06.55 1.6.8 3.74 2.65 3.74 3.6 0-.95 2.14-2.8 3.74-3.6.14-.1-.06-.3-.06-.54 0-.34.22-.73.6-.91.41-.2.74.37 1.22.34"></path><g fill="#000" stroke="none"><path fill="#1d1d1b" d="M109.81 106.3c-4.06 0-6.81-.93-8.47-1.5-.65-.2-1.16-.39-1.43-.39s-.78.17-1.44.4c-1.65.56-4.42 1.5-8.48 1.5-.6 0-1.15-.15-1.65-.46-2.33-1.37-2.94-5.66-2.94-7.73h.45c0 1.98.56 6.08 2.71 7.35.43.26.91.38 1.42.38 4 0 6.72-.92 8.34-1.47.74-.25 1.22-.42 1.57-.42.35 0 .83.17 1.58.42 1.62.55 4.34 1.47 8.32 1.47.52 0 .99-.12 1.42-.38 2.15-1.27 2.7-5.35 2.7-7.35h.46c0 2.07-.62 6.36-2.94 7.73-.47.3-1.03.45-1.62.45z"></path><path d="M110.26 115.21c0 1.33-.26 2.67-.8 3.88-.33.7-.9 1.28-1.46 1.8a7.97 7.97 0 01-2.77 1.58c-.68.23-1.37.4-2.07.53.08-.14.07-.36.28-.35 1.46-.44 2.9-1.01 4.13-1.92a6.3 6.3 0 001.93-2.6c.37-.93.62-1.91.77-2.9z"></path><path d="M89.54 115.21c.24 1.47.65 2.94 1.43 4.22.32.5.7.87 1.16 1.25 1.1.86 2.45 1.39 3.76 1.82.2.13.68.03.66.35.1.32-.37 0-.54.01-1.37-.33-2.7-.85-3.86-1.66a5 5 0 01-1.13-1 8.52 8.52 0 01-1.47-4.67c0-.09.02-.27-.01-.32z"></path><path d="M105.14 124c-.73.2-1.44.49-2.13.8a8.07 8.07 0 01-4 .56 7.67 7.67 0 01-2.8-.8c-.5-.23-1.01-.4-1.53-.55.16-.17.61.06.87.06 1.02.22 1.98.71 3.03.8.78.07 1.56.08 2.35.04.8-.04 1.58-.25 2.33-.52a8.02 8.02 0 011.92-.44l-.04.05z"></path><path d="M113.94 98.12c0-.33.01-.66-.01-.99a8.7 8.7 0 00-.4-2.03c-.06-.2-.16-.38-.24-.57-.1-.19-.2-.36-.32-.53.08-.08.15.14.22.19a6.78 6.78 0 011.13 3.08c.03.24.06.5.07.74.04.1-.07.08-.13.09l-.32.02z"></path><path d="M86.82 94.02a4.99 4.99 0 00-.83 2.15c-.06.37-.12.75-.14 1.13v.85h-.45c.01-.25.02-.49.06-.73.03-.29.1-.58.15-.86.15-.66.39-1.3.72-1.9.13-.23.28-.44.45-.64h.04z"></path><path d="M78.17 101.51a8.7 8.7 0 00-.37-.87 2.74 2.74 0 00-.42-.6c-.44-.52-1.03-.88-1.46-1.4-.2-.22-.36-.48-.52-.74-.01-.1-.2-.23-.08-.3.32.28.63.6.98.88.3.26.62.5.92.78.32.29.61.63.78 1.04a3.25 3.25 0 01.2 1.22l-.03-.01z"></path><path d="M76.54 104.98c.37.43.78.85 1.2 1.24.4.4.82.77 1.18 1.2.3.36.55.77.72 1.21.11.32.2.65.2.99 0 .22-.14-.1-.15-.19-.18-.43-.4-.85-.7-1.22-.55-.76-1.3-1.37-1.85-2.13-.25-.33-.48-.69-.63-1.08l.03-.02z"></path><path d="M78.73 112.87c.33.22.58.53.77.88.3.56.44 1.19.61 1.8.13.49.28.97.47 1.44.12.28.26.55.39.83-.11.12-.2-.14-.29-.19a4.76 4.76 0 01-.94-1.78c-.21-.66-.31-1.34-.52-2a3.9 3.9 0 00-.35-.74c-.04-.07-.14-.16-.14-.24z"></path><path d="M85.1 103.85a16.3 16.3 0 011.25 3.57c.44 1.8.64 3.66.66 5.51.01.37.02.74.06 1.11-.22-.05-.16-.56-.25-.78-.2-1.54-.38-3.09-.65-4.62a48.99 48.99 0 00-1.04-4.64l-.03-.15z"></path><path d="M89.26 120.34c-.05 1.76 1.22 3.1 1.92 4.61.4.41.11 1.5.5 1.37.63-.1 1.4-.71 1.23-1.4.24-.06.9.42 1.15.71.53.55.7 1.31 1.02 1.98-.16-.02.67-.26.56-.64.11-.55.33-1.08.86-1.34.06.38.05.93.23 1.34.2.62.75 1.3 1.26 1.53-.17.08.05-1.04.43-1.2.33-.58 1.23-1.17 1.73-.45.3.72 1.33.4 1.54 1.2.33.3 0 1.28.3.74a4.52 4.52 0 001.3-3.22c.47.27.79.7.86 1.23-.1.4.68.76.62.74l.41-1.04c.32-.8.98-1.4 1.76-1.74-.2.65.4 1.22.96 1.44.75.37.26-.49.63-1.02.63-1.62 2.05-2.98 2.02-4.81.15-.15.06.73.01.93-.34 1.81-1.92 3.18-1.97 5.08-.81.46-1.76-.4-2-1.16-.03-.44.47.17-.1.17-.8.55-1.03 1.53-1.38 2.37-.27.36-.81 0-1.03-.25-.17-.41-.7-1.23-.53-1.46.37 0-.09 1.14-.22 1.52-.34.69-.74 1.51-1.52 1.78-.58-.19-.27-1.04-.7-1.4a3.37 3.37 0 01-1.6-1.02 2.01 2.01 0 00-1.23 1.78c-.4.48-1-.22-1.3-.51a3.69 3.69 0 01-.86-2.24c.6.16-.25.77-.2 1.23-.23.36-.54.83-1.02.77-.41-.35-.4-.98-.67-1.43-.21-.56-.8-1.03-1.18-1.31.48-.35-.1.8-.37.88-.39.53-1.68.76-1.47-.22-.36-1.95-2.17-3.45-1.97-5.55z"></path><path d="M92.44 94.84c.32.46.82.85 1.4.67.48-.11.83-.57 1.36-.54.77-.06 1.43.4 2.06.75 1.2.6 2.61.61 3.92.41.8-.1 1.49-.53 2.19-.9.64-.31 1.49-.44 2.09.04.46.36 1.24.35 1.6-.15.16-.27.48-.38.16-.02-.37.7-1.38.83-2 .37-.62-.4-1.42-.1-1.98.26a5.7 5.7 0 01-2.98.93 5.87 5.87 0 01-3.58-.85c-.57-.37-1.3-.72-2-.46-.34.18-.68.43-1.09.36-.53.05-1.08-.54-1.15-.87z"></path><path d="M105.4 97.64c.42.01.86-.13 1.22-.36a5 5 0 001.05-1.01c.28-.36.54-.77.51-1.24 0-.48.01-1-.3-1.4-.03-.1-.34-.2-.23-.25.36.15.54.53.63.9.07.34.1.71.08 1.07-.1.66-.55 1.2-.95 1.7a2.8 2.8 0 01-1.67 1c-.1 0-.32.12-.32-.02l-.03-.39z"></path><path d="M92.2 93.41c-.39.2-.54.65-.57 1.05-.02.27-.03.54 0 .8.06.4.3.74.55 1.05.2.23.4.45.6.65.43.4 1 .68 1.59.67.07 0 .01.12.03.17v.28c-.6 0-1.2-.28-1.65-.68-.27-.22-.46-.52-.68-.79-.31-.4-.6-.87-.63-1.4.01-.49.04-1.01.3-1.44.1-.18.25-.33.44-.42l.02.06z"></path><path d="M97.42 121.07c.28-.04.57.05.85.08.43.07.86.17 1.3.2.23 0 .47 0 .7-.04.35-.03.7-.12 1.04-.2.3-.05.6-.13.9-.11.15 0 .01.17-.1.14l-.75.32c-.52.2-1.08.36-1.65.35a5.31 5.31 0 01-1.66-.43c-.23-.09-.44-.22-.68-.28l.05-.03z"></path><path d="M101.8 90.11c.13.06-.1.15-.15.17-.5.2-1.06.24-1.6.26a4.4 4.4 0 01-1.53-.2c-.18-.05-.34-.14-.52-.17-.07-.05.01-.12.09-.1.34-.03.67.02 1.01.02.24 0 .48.02.72.01.62 0 1.23.04 1.84.07.07-.02.19.04.14-.05z"></path><path d="M100.28 78.6c-.1-.12-.15-.28-.2-.42l-.14-.44a12.7 12.7 0 01-.28-1.66h.46c-.06.58-.16 1.16-.3 1.72a3.87 3.87 0 01-.32.82c-.06-.02-.1-.05-.06-.12.03-.19.06-.38.06-.58.03-.42.05-.84.1-1.26l.05-.6h.45l.08 1.19.05.9c.01.14.01.28.04.41l.01.05z"></path><path d="M92.5 88.76c-.06-.09-.08-.2-.13-.3l-.1-.36c-.04-.11-.06-.23-.08-.34-.02-.12-.06-.24-.07-.35l-.05-.33c0-.05-.04-.11 0-.15.02-.02.05-.05.08-.01.09.07.17.15.24.25.13.18.22.4.25.63.02.1.02.2.02.3-.01.1-.01.21-.04.31a1.2 1.2 0 01-.12.34s-.03.02 0 .01z"></path><path d="M98.98 86.66c.09-.06.2-.08.3-.1.16-.02.31-.02.47-.02h.66a.8.8 0 01.36.09c.04.01.03.04.02.07-.02.04-.1.05-.13.08-.13.06-.26.13-.4.16l-.3.05c-.12 0-.23 0-.34-.03a1.23 1.23 0 01-.46-.18 1.08 1.08 0 00-.18-.09v-.03z"></path><path d="M98.6 88.31c.16-.08.33-.1.5-.08l.6.06h.38c.11-.03.23-.02.34-.05.22-.03.45-.08.65.01.05.02.14.02.1.1-.03.04-.13.04-.19.07-.1.03-.2.1-.3.14a1.59 1.59 0 01-1.05.14c-.24-.04-.45-.15-.66-.26-.1-.04-.2-.1-.3-.12-.02 0-.05-.03-.06 0z"></path><path d="M97.4 91.88c.22-.08.46-.04.68-.03a18.15 18.15 0 002.45.04c.55-.01 1.09-.1 1.64-.1.07-.02.28.06.15.11-.2.02-.4.12-.6.17a6.43 6.43 0 01-3.98-.12c-.1-.02-.29-.12-.34-.07z"></path><path d="M90.78 89.16c.02.06.04.13.09.18.08.13.14.27.2.4.14.31.22.65.18.99a.84.84 0 01-.13.36c-.01.05-.05.03-.08.02-.05-.03-.03-.11-.05-.16-.03-.1-.05-.2-.1-.3a4.6 4.6 0 01-.14-.54c-.06-.24-.1-.5-.06-.74 0-.08.04-.15.08-.22z"></path><path d="M89.15 91.35c.04.05.09.1.12.16.06.1.1.2.13.3.05.14.06.29.06.43a1.44 1.44 0 01-.25.87c-.03.03-.06.08-.1.05-.05 0-.04-.06-.05-.1-.07-.3-.06-.6-.04-.91l.01-.23c0-.09.04-.17.04-.26l.04-.22c0-.02.01-.11.03-.1v.01z"></path><path d="M78.17 82.71a6.49 6.49 0 00-1.94 3.95c-.26 2 0 4.07.8 5.92.38.82.88 1.57 1.49 2.24-.27 0-.57-.5-.8-.7a8.43 8.43 0 01-1.91-4.52 8.89 8.89 0 01.55-4.62c.41-.9 1-1.74 1.84-2.28h-.02z"></path><path d="M95.47 75.82a5.66 5.66 0 00-2.03-1.84c-1.25-.65-2.73-.69-4-1.35a4.4 4.4 0 01-1.46-1.16c.2-.04.43.31.66.39.95.61 2.09.85 3.18 1.1.92.24 1.86.57 2.55 1.25.49.45.83 1.04 1.11 1.64l-.01-.03z"></path><path d="M93.75 71.53c.3-.05.59-.04.88-.02a4.1 4.1 0 011.61.55 3.15 3.15 0 011.04 1.06c.02.08.16.21.06.27-.08-.03-.16-.14-.24-.2a7.44 7.44 0 00-1.6-1.01c-.23-.12-.48-.2-.73-.3l-.57-.2a2.2 2.2 0 01-.45-.15z"></path><path d="M79.96 99.1c1.64 3.33 2.2 7.06 2.59 10.72.33 2.92.7 5.98 2.4 8.46.64.96 1.42 1.82 2.28 2.58-.55-.21-1.15-.94-1.65-1.4-2.03-2.08-2.9-4.98-3.25-7.8-.4-3.26-.61-6.56-1.49-9.74-.24-.95-.55-1.95-.88-2.83z"></path><path d="M121.61 101.51c0-.28.02-.56.1-.83.05-.21.1-.43.22-.62.17-.33.43-.6.7-.86.55-.47 1.13-.9 1.64-1.41.1-.04.18-.27.28-.16-.1.22-.24.43-.38.64-.38.56-.91.99-1.42 1.43a3.4 3.4 0 00-.72.91c-.1.17-.16.37-.26.55-.05.1-.06.3-.16.35z"></path><path d="M123.27 104.99c-.22.57-.6 1.07-1 1.54-.55.62-1.17 1.19-1.64 1.88-.27.4-.47.83-.64 1.28-.16-.02 0-.29-.03-.4.04-.25.11-.49.2-.72.15-.39.37-.75.63-1.08.44-.53.95-1 1.45-1.46.3-.32.64-.61.9-.96.04 0 .1-.15.13-.08z"></path><path d="M121.09 112.88a3.92 3.92 0 00-.66 1.53c-.14.57-.26 1.16-.46 1.72a4.47 4.47 0 01-1.08 1.74c-.13-.08.07-.24.09-.34.3-.6.5-1.22.68-1.86.19-.68.33-1.38.69-1.98.16-.3.37-.57.65-.76.02 0 .06-.08.09-.05z"></path><path d="M115.54 78.52c-.82.06-1.65.24-2.38.64-1.14.58-1.95 1.63-3.03 2.31-.23.13-.49.27-.76.32-.65.12-1.33.2-2 .08a4.2 4.2 0 01-2.16-.83c.23-.09.57.26.86.28 1.05.34 2.18.3 3.25.04.24-.07.58-.23.8-.41 1.03-.78 1.95-1.76 3.18-2.2a4.71 4.71 0 012.24-.28v.05z"></path><path d="M107.27 88.76a1.5 1.5 0 01-.16-.92c.05-.32.18-.66.45-.87.04-.04.1-.11.14-.03.02.08-.02.16-.02.24l-.13.68c-.05.28-.14.54-.24.8l-.04.1z"></path><path d="M109.04 89.16c.14.23.09.52.05.78-.06.35-.17.68-.27 1.02.01.12-.13.24-.18.07-.19-.41-.08-.9.09-1.3.09-.2.22-.37.3-.57z"></path><path d="M110.67 91.35c.11.58.19 1.17.07 1.75-.06.2-.24-.07-.25-.18a1.57 1.57 0 01-.03-1.25c.05-.12.13-.22.2-.32z"></path><path d="M116.55 75.92a9.12 9.12 0 00-2.26-.02c-1.26.14-2.4.75-3.43 1.44-.62.38-1.24.85-1.98.93-.26 0 .03-.15.15-.15.58-.24 1.02-.69 1.53-1.04a5.9 5.9 0 016-1.19v.02z"></path><path d="M121.64 82.69a5.67 5.67 0 012.17 3.21c.44 1.61.38 3.32-.02 4.93a7.61 7.61 0 01-2.36 3.97c-.27.1.24-.36.3-.49a9.36 9.36 0 001.89-4.78c.14-1.19.14-2.42-.15-3.59a6.18 6.18 0 00-1.8-3.24h-.02z"></path><path d="M104.31 75.8c.38-.85.95-1.65 1.76-2.14 1.08-.67 2.37-.79 3.55-1.16a6.53 6.53 0 002.15-1.12c.05.2-.32.4-.45.56a6.72 6.72 0 01-2.94 1.32c-1 .23-2.04.53-2.85 1.2-.47.38-.86.85-1.21 1.33v.01z"></path><path d="M117.22 70.04c.33-1.07 1-2.02 1.81-2.78a6.08 6.08 0 015.91-1.3c-.12.18-.52-.03-.74.03a8.09 8.09 0 00-3.02.46 7.2 7.2 0 00-1.98 1.2 8.9 8.9 0 00-1.98 2.4z"></path><path d="M127.07 69.31a8.71 8.71 0 01-.33 5.44c-.16.36-.34.71-.6 1-.12-.09.1-.32.1-.46.13-.37.2-.76.3-1.13.18-.8.3-1.59.36-2.4l.07-.97c.02-.42.05-.84.06-1.27.02-.06-.01-.16.04-.2z"></path><path d="M106.04 71.54c-.22.1-.45.16-.68.23a7.6 7.6 0 00-2.74 1.5c-.06.04-.16.2-.2.1.06-.24.2-.44.34-.62.19-.23.42-.43.66-.6a3.88 3.88 0 012.17-.65c.15.01.3.01.45.04z"></path><path d="M109.42 85.16c.7.35 1.48.56 2.26.57h.31c.15 0 .4-.02.58-.08a5.85 5.85 0 002.53-1.86c.15-.1.24-.43.4-.41-.05.2-.19.42-.3.62a4.65 4.65 0 01-2.2 1.98c-.6.23-1.25.23-1.86.08a3.81 3.81 0 01-1.74-.86l.02-.04z"></path><path d="M120.22 99.1c-1.27 3.37-1.8 6.96-2.14 10.53-.3 2.97-.7 6.08-2.46 8.59a12.9 12.9 0 01-2.63 2.72c.3-.52 1.07-1.01 1.46-1.6a13.25 13.25 0 002.82-6.78c.5-3.45.68-6.97 1.72-10.31.33-1.08.75-2.13 1.23-3.15z"></path><path d="M120.53 72.23c.2-.6.79-1.02 1.4-1.1.53-.1 1.07-.04 1.58-.2.1-.08.56-.27.35 0-.38.44-1 .53-1.55.6-.5.04-1 .12-1.41.42-.13.08-.24.19-.37.28z"></path><path d="M84.25 78.5a4.95 4.95 0 013.52.96c.86.57 1.54 1.4 2.48 1.86a5.63 5.63 0 004.1-.22c.47-.21-.04.22-.23.28-1.11.6-2.44.7-3.67.44-.35-.02-.67-.25-.97-.43-.9-.64-1.65-1.49-2.6-2.06a5.75 5.75 0 00-2.63-.78v-.05z"></path><path d="M83.23 75.9c1.4-.51 3-.47 4.36.17 1.03.45 1.86 1.24 2.79 1.86.16.16.52.18.63.32-.16.06-.4-.04-.57-.08-.98-.36-1.77-1.08-2.7-1.55a6.6 6.6 0 00-3.02-.78c-.5-.02-1 .02-1.5.08v-.02z"></path><path d="M90.38 85.18c-.67.6-1.58.91-2.48.96a3.32 3.32 0 01-2.3-.91 5.5 5.5 0 01-1.34-1.87c.16-.05.25.29.39.37a5.99 5.99 0 002.48 1.87c.22.06.44.12.67.12h.22c.57-.02 1.14-.11 1.68-.3.23-.07.47-.2.67-.27l.01.03z"></path><path d="M94.7 62.08c.5-.08 1.02.05 1.4.38.43.33.73.86.74 1.4 0 .25-.2 0-.22-.1a3.88 3.88 0 00-1.3-1.33c-.2-.13-.42-.23-.63-.35z"></path><path d="M89.57 62.95c.6-.08 1.23.15 1.66.58.44.4.72.98 1.24 1.3.07.17-.24.07-.33.04-.46-.14-.78-.54-1.1-.88a3 3 0 00-1.04-.8c-.12-.1-.35-.1-.43-.24z"></path><path d="M84.55 64.75c.3-.24.74-.15 1.03.07.42.32.66.81.96 1.24.2.3.47.6.84.67.2.12-.22.15-.32.12-.51-.1-.86-.52-1.13-.93-.2-.29-.36-.6-.6-.87-.2-.22-.5-.31-.78-.3z"></path><path d="M105 62.09c-.26.15-.54.28-.79.46-.36.23-.66.55-.9.89-.14.18-.26.37-.37.56-.18-.13-.02-.42 0-.6.25-.75.98-1.34 1.77-1.34l.3.03z"></path><path d="M110.12 63.1c-.5.2-.98.46-1.33.86-.39.42-.76.94-1.36 1.05-.19.1-.26-.12-.06-.16.47-.35.73-.9 1.18-1.28.42-.4 1.01-.59 1.58-.52.01.02-.02.03-.01.05z"></path><path d="M86.63 68.98c1.93 0 3.22-1.8 5.1-1.98 1.37-.18 2.74.04 4.1.2 1.51.17 2.63-1.3 4.14-1.22 1.48-.13 2.53 1.4 4.03 1.2 1.6-.16 3.28-.51 4.87-.02 1.49.48 2.66 1.8 4.3 1.78-.45.21-1.28-.09-1.8-.28-1.25-.58-2.47-1.49-3.92-1.4-1.16-.02-2.3.2-3.45.34-1.13.17-2.07-.6-3.06-1-1.14-.5-2.35.07-3.34.64-1.42.8-2.99.03-4.48.04a5.56 5.56 0 00-3.46.76 5.55 5.55 0 01-3.02.97z"></path><path d="M82.57 70.06a8.36 8.36 0 00-3.19-3.21c-.98-.55-2.1-.8-3.22-.81-.43-.03-.87 0-1.3.02.07-.19.5-.15.71-.23 1.4-.27 2.9-.02 4.14.7a6.53 6.53 0 012.75 3.21c.02.08.12.31.1.32z"></path><path d="M72.73 69.31c.06.86.08 1.71.17 2.56.07.87.2 1.74.41 2.6.1.39.21.77.35 1.15 0 .25-.23-.17-.29-.25a7.3 7.3 0 01-.91-3.27c-.06-.83 0-1.65.17-2.46.03-.08.04-.34.1-.33z"></path><path d="M79.25 72.24a2.52 2.52 0 00-1.17-.62c-.63-.12-1.33-.09-1.9-.45-.1-.08-.44-.3-.28-.4.36.2.78.3 1.19.3.62.03 1.32.09 1.78.57.17.17.3.37.38.6z"></path><path d="M115.15 64.76c-.33-.01-.65.13-.85.39-.22.25-.37.56-.56.83-.24.37-.56.74-1 .86-.16.03-.35.06-.49-.04.12-.13.4-.1.53-.29.53-.48.75-1.21 1.32-1.65.28-.24.71-.33 1.03-.12l.02.02z"></path><path d="M111.53 105.65c-.1.89-.15 1.78-.18 2.68a9.12 9.12 0 01-.34 2.6c-.1.04.02-.22.01-.3.17-.88.1-1.79.08-2.68-.02-.75-.04-1.5-.02-2.26-.03-.1.07-.07.13-.06l.32.02z"></path><path d="M88.7 105.63c.01.52.03 1.05.01 1.57 0 .9-.08 1.78-.03 2.67.01.26.04.52.1.77 0 .07.1.38 0 .29-.33-.98-.31-2.01-.36-3.03a35.7 35.7 0 00-.16-2.24l.45-.03z"></path><path d="M95.29 129.88c.06.14.13.26.18.4.06.17.12.33.16.5.03.13.04.26.06.4.02.19 0 .39-.01.59-.03.18-.07.37-.15.55-.02.04-.06-.02-.09-.03l-.3-.2c.05-.05.07-.14.11-.21a2.46 2.46 0 00.15-1.4c0-.17-.06-.35-.1-.52 0-.02-.04-.07-.02-.08z"></path><path d="M104.26 132.2c.02-.13.07-.26.1-.38l.21-.53.14-.29c.05-.05.07.03.05.06-.04.21-.06.42-.07.63v.47c.03.04.02.1-.05.08l-.39-.04z"></path><path d="M86.85 128c.18-.12.33-.29.46-.45a1.35 1.35 0 00.05-1.43c-.03-.1-.19-.21-.13-.29a1.63 1.63 0 01.52.88c.06.28.02.58-.07.85-.13.3-.3.58-.55.8l-.28-.37z"></path><path d="M81.49 123.85c.2-.12.3-.34.4-.54.09-.19.12-.39.14-.59.03-.35-.04-.71-.14-1.05.08-.1.1.12.15.17a2.4 2.4 0 01.18 1.5c-.08.3-.24.6-.46.83-.1-.1-.19-.21-.27-.32z"></path><path d="M76.99 117.96c.34-.25.45-.68.53-1.08.05-.3.05-.6.05-.9.13.1.08.32.13.46.07.47.05.97-.13 1.42-.09.14-.17.44-.35.43-.09-.1-.15-.23-.23-.33z"></path><path d="M74.98 108.7c-.07.18-.15.35-.2.53a2.95 2.95 0 00-.11 1.52c-.05.03-.11.03-.17.05l-.27.06c-.02-.16-.01-.32 0-.48a3.25 3.25 0 01.66-1.6c.02-.04.04-.1.1-.08z"></path><path d="M71.81 103.36c.13-.05.25-.1.36-.18.21-.1.37-.3.5-.5s.24-.42.27-.66c.01-.05.02-.27.08-.14.04.42-.05.86-.28 1.23-.12.2-.3.37-.49.51-.07.02-.17.17-.22.1l-.22-.36z"></path><path d="M72.71 76.33c.09.46.16.93.22 1.39l.13.9c-.1.01-.08-.2-.14-.27-.2-.64-.4-1.28-.64-1.9l.43-.12z"></path><path d="M70.74 88.35c.28 0 .56 0 .82-.13.46-.2.85-.54 1.16-.93.1-.09.04.09 0 .13-.23.37-.5.71-.86.95-.24.17-.5.3-.78.37-.09 0-.27.1-.3 0l-.04-.4z"></path><path d="M70.76 96.14c.07-.1.17-.19.25-.28.29-.28.61-.51.96-.7.15-.08.3-.15.45-.2.07-.07.12.04.02.05-.5.3-.91.75-1.23 1.23-.04.07-.1.2-.18.09l-.27-.19z"></path><path d="M112.67 128.35a2.24 2.24 0 01-.57-.86c-.11-.35-.1-.76.06-1.1.07-.14.16-.27.25-.4.06-.02.16-.23.18-.12-.1.17-.2.33-.25.52-.06.16-.1.32-.07.5 0 .26.11.5.27.72.08.12.2.21.3.31.21.1-.07.25-.12.37l-.05.06z"></path><path d="M118.03 124.2c-.2-.2-.34-.43-.43-.7-.08-.24-.09-.52-.07-.78.01-.27.1-.54.2-.8.03-.08.07-.22.14-.25.03.12-.06.26-.07.38-.08.39-.09.8.04 1.18.05.17.16.33.27.48.02.1.25.15.13.24l-.21.25z"></path><path d="M122.55 118.33c-.14-.1-.22-.26-.3-.4a2.25 2.25 0 01-.19-.8c-.02-.19 0-.37.02-.55.02-.2.04-.39.09-.58.1-.06.04.15.05.21 0 .21.01.42.04.62.07.37.16.76.43 1.03.07.05.16.1.06.18l-.2.29z"></path><path d="M124.85 108.68a3.27 3.27 0 01.72 1.93c0 .08.04.28-.1.2-.1-.03-.28-.03-.34-.1.1-.48.05-1-.1-1.46a3.7 3.7 0 00-.2-.53c-.03-.05-.02-.05.02-.04z"></path><path d="M127.76 103.75c-.16-.1-.32-.2-.45-.34a1.95 1.95 0 01-.53-1.4c0-.06.01-.24.07-.14.03.2.07.42.16.6.05.11.13.2.19.3.12.17.28.32.46.43.11.05.2.11.32.15 0 .12-.15.25-.21.38l-.01.02z"></path><path d="M127.5 76.47c-.26.72-.5 1.45-.72 2.2-.1-.05 0-.2-.01-.3.08-.66.19-1.32.3-1.98 0-.07.09 0 .13 0l.3.08z"></path><path d="M129.03 88.8a2.36 2.36 0 01-.56-.13c-.25-.1-.48-.25-.7-.42-.3-.26-.55-.6-.74-.96.1-.03.16.18.25.23.25.27.54.5.86.66.2.1.42.17.65.18.08.02.25-.04.28.03l-.04.4z"></path><path d="M128.66 96.4a4.3 4.3 0 00-1.4-1.43c.05-.09.17.04.25.05.26.11.51.23.73.4.27.21.53.44.75.7-.03.1-.2.15-.28.23l-.05.04z"></path><path d="M84.64 64.16l-.15-.03c-.16-.01-.33.02-.48.04-.04 0-.1.03-.13.02l.02-.45.24.08c.11.06.23.1.33.16l.19.13c.02.02-.02.04-.02.05z"></path><path d="M89.77 62.17c-.06-.01-.11-.04-.17-.04a3.52 3.52 0 00-.7-.05c-.03-.01-.1.03-.11 0l.05-.44c.08.01.15.06.23.08.18.08.36.18.53.28l.18.12-.01.05z"></path><path d="M94.36 60.47c.08.04.17.08.25.14.15.1.31.2.42.36a.4.4 0 01.08.22c0 .05-.07.01-.06-.03a.4.4 0 00-.17-.14c-.07-.02-.13-.05-.2-.06a2.4 2.4 0 00-.36-.07c-.04 0-.07 0-.05-.05l.09-.37z"></path><path d="M80.65 65.39c.94.6 1.8 1.38 2.3 2.39.02.1.16.28.1.33-.12-.14-.18-.33-.3-.47a5.88 5.88 0 00-2.3-1.82c0-.14.14-.27.2-.41z"></path><path d="M115.03 64.12c.06-.06.13-.1.2-.14.14-.09.3-.15.45-.2.04-.02.08-.04.12-.04l.02.44-.45-.06c-.1 0-.2 0-.3.02-.01.02-.02-.02-.04-.02z"></path><path d="M109.9 62.27c.15-.11.3-.2.47-.28l.44-.2c.05 0 .03.08.04.12l.04.33c-.08 0-.17-.02-.26-.01-.18 0-.36.01-.54.05-.06 0-.12.04-.18.03v-.04z"></path><path d="M105.4 60.72c-.15.08-.3.17-.42.28-.06.05-.12.1-.15.17-.02.02.02.07 0 .07h-.43c.01-.08.04-.14.07-.2a.4.4 0 01.15-.15c.1-.08.24-.1.37-.15.13-.04.27-.04.41-.07v.05z"></path><path d="M119.25 65.78c-.4.18-.78.42-1.14.67-.5.39-.98.83-1.32 1.37-.04.07-.2.4-.17.18.1-.22.19-.45.33-.65a6.89 6.89 0 012.08-2l.22.43z"></path><path fill="#1d1d1b" d="M99.63 60.93h.45l-.2 1.72c-.02 0-.05.01-.05-.02l-.2-1.7z"></path><path d="M106.52 85.19c.04-.11.07-.23.13-.33.08-.2.21-.36.35-.5.15-.16.33-.28.5-.4.27-.18.57-.34.78-.6.07-.03.07-.2.14-.14l.36.19c-.07.1-.13.2-.22.26-.11.1-.23.2-.37.26l-.51.24c-.22.1-.44.22-.63.38a1.85 1.85 0 00-.47.62c-.02.07-.02.05-.06.02z"></path><path d="M117.55 81.59a3.13 3.13 0 00-1.28-.55c-.04-.02-.12-.02-.14-.05l.15-.42.35.2.35.23a5.01 5.01 0 01.62.55l-.05.04z"></path><path d="M93.23 85.2c-.06-.11-.1-.23-.19-.33-.05-.08-.12-.15-.18-.22-.1-.1-.22-.21-.35-.29-.22-.14-.47-.23-.7-.35a2.8 2.8 0 01-.47-.27 1.2 1.2 0 01-.28-.3c-.07-.05-.03-.07.03-.1l.32-.17c.04.1.1.18.17.25.18.2.41.32.62.46.22.14.43.3.61.47.13.12.2.27.3.41.06.11.1.22.14.34.03.06.03.06-.02.1z"></path><path d="M82.2 81.56c.09-.12.2-.22.32-.32.18-.16.38-.29.58-.42l.35-.2c.04-.02.08-.06.08 0l.15.4c-.12.02-.25.05-.37.09a3.2 3.2 0 00-1.06.49l-.04-.04z"></path><path fill="#1d1d1b" d="M99.67 107.54l.45.01-.25 8.42c-.1-.01-.03-.2-.05-.27l-.15-8.16z"></path></g></g><pattern id="masoned-argent-sable" width="0.125" height="0.125" viewBox="0 0 100 100" fill="none"><rect width="100" height="100" fill="#fafafa"></rect><rect width="100" height="50" stroke="#333333" stroke-width="4"></rect><line x1="50" y1="50" x2="50" y2="100" stroke="#333333" stroke-width="5"></line></pattern><radialGradient id="backlight_provinceCOA240" cx="100%" cy="100%" r="150%"><stop stop-color="#fff" stop-opacity=".3" offset="0"></stop><stop stop-color="#fff" stop-opacity=".15" offset=".25"></stop><stop stop-color="#000" stop-opacity="0" offset="1"></stop></radialGradient></defs>
        <g clip-path="url(#oval_provinceCOA240)"><rect x="0" y="0" width="200" height="200" fill="#ffe066"></rect><g fill="url(#masoned-argent-sable)" stroke="none"><rect width="37.5%" height="37.5%"></rect></g><g fill="#522d5b" stroke="#000"><use href="#greyhoundSejant_provinceCOA240" transform="translate(-32.999999999999986 -32.999999999999986) scale(1.3299999999999998)"></use></g><g fill="#fafafa" stroke="#000"><use href="#lionHeadCaboshed_provinceCOA240" transform="translate(4.5 4.5) scale(0.475)"></use></g></g>
        <path d="m 32.3,99.5 a 67.7,93.7 0 1 1 0,1.3 z" fill="url(#backlight_provinceCOA240)" stroke="#333"></path></svg>