<svg xmlns="http://www.w3.org/2000/svg" id="provinceCOA106" width="200" height="200" viewBox="0 5 200 200">
        <defs><clipPath id="renaissance_provinceCOA106"><path d="M 25,33.9 C 33.4,50.3 36.2,72.9 36.2,81.7 36.2,109.9 25,122.6 25,141 c 0,29.4 24.9,44.1 40.2,47.7 15.3,3.7 29.3,0 34.8,11.3 5.5,-11.3 19.6,-7.6 34.8,-11.3 C 150.1,185 175,170.3 175,141 c 0,-18.4 -11.2,-31.1 -11.2,-59.3 0,-8.8 2.8,-31.3 11.2,-47.7 L 155.7,14.4 C 138.2,21.8 119.3,25.7 100,25.7 c -19.3,0 -38.2,-3.9 -55.7,-11.3 z"></path></clipPath><g id="mullet6Faceted_provinceCOA106"><path d="M100 60l7.64 26.77 26-6.77-18.36 20 19.36 20-27-6.77L100 140l-7.64-26.77-27 6.77 19.36-20-19.36-20 27 6.77z"></path><path fill="#000" fill-opacity=".2" stroke-width=".2" d="M100 100l34-20-18.72 20H100l34.64 20-27-6.77L100 100v40l-7.64-26.77L100 100l-34.64 20 19.36-20H100L65.36 80l27 6.77L100 100V60l7.64 26.77z"></path></g><radialGradient id="backlight_provinceCOA106" cx="100%" cy="100%" r="150%"><stop stop-color="#fff" stop-opacity=".3" offset="0"></stop><stop stop-color="#fff" stop-opacity=".15" offset=".25"></stop><stop stop-color="#000" stop-opacity="0" offset="1"></stop></radialGradient></defs>
        <g clip-path="url(#renaissance_provinceCOA106)"><rect x="0" y="0" width="200" height="200" fill="#377cd7"></rect><g fill="#fafafa" stroke="none"><polygon points="0,200 0,144 175,25 55,200"></polygon></g><g fill="#d7374a" stroke="#000"><use href="#mullet6Faceted_provinceCOA106" transform="translate(50 50) scale(0.5)"></use><use href="#mullet6Faceted_provinceCOA106" transform="translate(12.5 87.5) scale(0.5)"></use></g></g>
        <path d="M 25,33.9 C 33.4,50.3 36.2,72.9 36.2,81.7 36.2,109.9 25,122.6 25,141 c 0,29.4 24.9,44.1 40.2,47.7 15.3,3.7 29.3,0 34.8,11.3 5.5,-11.3 19.6,-7.6 34.8,-11.3 C 150.1,185 175,170.3 175,141 c 0,-18.4 -11.2,-31.1 -11.2,-59.3 0,-8.8 2.8,-31.3 11.2,-47.7 L 155.7,14.4 C 138.2,21.8 119.3,25.7 100,25.7 c -19.3,0 -38.2,-3.9 -55.7,-11.3 z" fill="url(#backlight_provinceCOA106)" stroke="#333"></path></svg>