<svg xmlns="http://www.w3.org/2000/svg" id="provinceCOA83" width="200" height="200" viewBox="0 10 200 200">
        <defs><clipPath id="spanish_provinceCOA83"><path d="m25,25 h150 v100 a75,75,0,0,1,-150,0 z"></path></clipPath><g id="billet_provinceCOA83"><polygon points="80 65 120 65 120 135 80 135"></polygon></g><radialGradient id="backlight_provinceCOA83" cx="100%" cy="100%" r="150%"><stop stop-color="#fff" stop-opacity=".3" offset="0"></stop><stop stop-color="#fff" stop-opacity=".15" offset=".25"></stop><stop stop-color="#000" stop-opacity="0" offset="1"></stop></radialGradient></defs>
        <g clip-path="url(#spanish_provinceCOA83)"><rect x="0" y="0" width="200" height="200" fill="#ffe066"></rect><g fill="#522d5b" stroke="none"><path d="m 0,95 a 6.25,6.25 0 0 0 12.5,0 6.25,6.25 0 0 0 12.5,0 6.25,6.25 0 0 0 12.5,0 6.25,6.25 0 0 0 12.5,0 6.25,6.25 0 0 0 12.5,0 6.25,6.25 0 0 0 12.5,0 6.25,6.25 0 0 0 12.5,0 6.25,6.25 0 0 0 12.5,0 6.25,6.25 0 0 0 12.5,0 6.25,6.25 0 0 0 12.5,0 6.25,6.25 0 0 0 12.5,0 6.25,6.25 0 0 0 12.5,0 6.25,6.25 0 0 0 12.5,0 6.25,6.25 0 0 0 12.5,0 6.25,6.25 0 0 0 12.5,0 6.25,6.25 0 0 0 12.5,0 v 20 H 0 Z" transform="translate(0,-20)"></path><path d="m 0,95 a 6.25,6.25 0 0 0 12.5,0 6.25,6.25 0 0 0 12.5,0 6.25,6.25 0 0 0 12.5,0 6.25,6.25 0 0 0 12.5,0 6.25,6.25 0 0 0 12.5,0 6.25,6.25 0 0 0 12.5,0 6.25,6.25 0 0 0 12.5,0 6.25,6.25 0 0 0 12.5,0 6.25,6.25 0 0 0 12.5,0 6.25,6.25 0 0 0 12.5,0 6.25,6.25 0 0 0 12.5,0 6.25,6.25 0 0 0 12.5,0 6.25,6.25 0 0 0 12.5,0 6.25,6.25 0 0 0 12.5,0 6.25,6.25 0 0 0 12.5,0 6.25,6.25 0 0 0 12.5,0 v 20 H 0 Z" transform="rotate(180 100 100) translate(0,-20)"></path><path d="m 0,95 a 6.25,6.25 0 0 0 12.5,0 6.25,6.25 0 0 0 12.5,0 6.25,6.25 0 0 0 12.5,0 6.25,6.25 0 0 0 12.5,0 6.25,6.25 0 0 0 12.5,0 6.25,6.25 0 0 0 12.5,0 6.25,6.25 0 0 0 12.5,0 6.25,6.25 0 0 0 12.5,0 6.25,6.25 0 0 0 12.5,0 6.25,6.25 0 0 0 12.5,0 6.25,6.25 0 0 0 12.5,0 6.25,6.25 0 0 0 12.5,0 6.25,6.25 0 0 0 12.5,0 6.25,6.25 0 0 0 12.5,0 6.25,6.25 0 0 0 12.5,0 6.25,6.25 0 0 0 12.5,0 v 20 H 0 Z" transform="rotate(-90 100 100) translate(0,-20)"></path><path d="m 0,95 a 6.25,6.25 0 0 0 12.5,0 6.25,6.25 0 0 0 12.5,0 6.25,6.25 0 0 0 12.5,0 6.25,6.25 0 0 0 12.5,0 6.25,6.25 0 0 0 12.5,0 6.25,6.25 0 0 0 12.5,0 6.25,6.25 0 0 0 12.5,0 6.25,6.25 0 0 0 12.5,0 6.25,6.25 0 0 0 12.5,0 6.25,6.25 0 0 0 12.5,0 6.25,6.25 0 0 0 12.5,0 6.25,6.25 0 0 0 12.5,0 6.25,6.25 0 0 0 12.5,0 6.25,6.25 0 0 0 12.5,0 6.25,6.25 0 0 0 12.5,0 6.25,6.25 0 0 0 12.5,0 v 20 H 0 Z" transform="rotate(-270 100 100) translate(0,-20)"></path></g><g fill="#333333" stroke="#000"><use href="#billet_provinceCOA83" transform="translate(-7.4999999999999964 -7.4999999999999964) scale(0.7)"></use><use href="#billet_provinceCOA83" transform="translate(67.5 -7.4999999999999964) scale(0.7)"></use><use href="#billet_provinceCOA83" transform="translate(30.000000000000004 67.5) scale(0.7)"></use></g></g>
        <path d="m25,25 h150 v100 a75,75,0,0,1,-150,0 z" fill="url(#backlight_provinceCOA83)" stroke="#333"></path></svg>