<svg xmlns="http://www.w3.org/2000/svg" id="provinceCOA200" width="200" height="200" viewBox="0 0 200 200">
        <defs><clipPath id="pavise_provinceCOA200"><path d="M95 7L39.9 37.3a10 10 0 00-5.1 9.5L46 180c.4 5.2 3.7 10 9 10h90c5.3 0 9.6-4.8 10-10l10.6-133.2a10 10 0 00-5-9.5L105 7c-4.2-2.3-6.2-2.3-10 0z"></path></clipPath><g id="crossLatin_provinceCOA200" stroke-width=".5"><path d="m 95,60 h 10 v 20 h 25 v 10 h -25 v 50 H 95 V 90 H 70 V 80 h 25 z"></path></g><radialGradient id="backlight_provinceCOA200" cx="100%" cy="100%" r="150%"><stop stop-color="#fff" stop-opacity=".3" offset="0"></stop><stop stop-color="#fff" stop-opacity=".15" offset=".25"></stop><stop stop-color="#000" stop-opacity="0" offset="1"></stop></radialGradient></defs>
        <g clip-path="url(#pavise_provinceCOA200)"><rect x="0" y="0" width="200" height="200" fill="#ffe066"></rect><g fill="#26c061" stroke="none"><polygon points="85,0 85,85 0,85 0,115 85,115 85,200 115,200 115,115 200,115 200,85 115,85 115,0"></polygon></g><g fill="#26c061" stroke="#000"><use href="#crossLatin_provinceCOA200" transform="translate(15.000000000000007 92.5) scale(0.45 -0.45)"></use><use href="#crossLatin_provinceCOA200" transform="translate(95 92.5) scale(0.45 -0.45)"></use><use href="#crossLatin_provinceCOA200" transform="translate(15.000000000000007 197.5) scale(0.45 -0.45)"></use><use href="#crossLatin_provinceCOA200" transform="translate(95 197.5) scale(0.45 -0.45)"></use></g></g>
        <path d="M95 7L39.9 37.3a10 10 0 00-5.1 9.5L46 180c.4 5.2 3.7 10 9 10h90c5.3 0 9.6-4.8 10-10l10.6-133.2a10 10 0 00-5-9.5L105 7c-4.2-2.3-6.2-2.3-10 0z" fill="url(#backlight_provinceCOA200)" stroke="#333"></path></svg>