<svg xmlns="http://www.w3.org/2000/svg" id="provinceCOA146" width="200" height="200" viewBox="0 0 200 200">
        <defs><clipPath id="polish_provinceCOA146"><path d="m 90.3,6.3 c -12.7,0 -20.7,10.9 -40.5,14 0,11.8 -4.9,23.5 -11.4,31.1 0,0 12.7,6 12.7,19.3 C 51.1,90.8 30,90.8 30,90.8 c 0,0 -3.6,7.4 -3.6,22.4 0,34.3 23.1,60.2 40.7,68.2 17.6,8 27.7,11.4 32.9,18.6 5.2,-7.3 15.3,-10.7 32.8,-18.6 17.6,-8 40.7,-33.9 40.7,-68.2 0,-15 -3.6,-22.4 -3.6,-22.4 0,0 -21.1,0 -21.1,-20.1 0,-13.3 12.7,-19.3 12.7,-19.3 C 155.1,43.7 150.2,32.1 150.2,20.3 130.4,17.2 122.5,6.3 109.7,6.3 102.5,6.3 100,10 100,10 c 0,0 -2.5,-3.7 -9.7,-3.7 z"></path></clipPath><g id="inescutcheon_provinceCOA146"><path transform="translate(66 66) scale(.34)" d="m 90.3,6.3 c -12.7,0 -20.7,10.9 -40.5,14 0,11.8 -4.9,23.5 -11.4,31.1 0,0 12.7,6 12.7,19.3 C 51.1,90.8 30,90.8 30,90.8 c 0,0 -3.6,7.4 -3.6,22.4 0,34.3 23.1,60.2 40.7,68.2 17.6,8 27.7,11.4 32.9,18.6 5.2,-7.3 15.3,-10.7 32.8,-18.6 17.6,-8 40.7,-33.9 40.7,-68.2 0,-15 -3.6,-22.4 -3.6,-22.4 0,0 -21.1,0 -21.1,-20.1 0,-13.3 12.7,-19.3 12.7,-19.3 C 155.1,43.7 150.2,32.1 150.2,20.3 130.4,17.2 122.5,6.3 109.7,6.3 102.5,6.3 100,10 100,10 c 0,0 -2.5,-3.7 -9.7,-3.7 z"></path></g><g id="hatchet_provinceCOA146" stroke-width=".615"><path d="M114.4 137.8c0 2.5 9.5 2.5 9.5 0l-.3-65.4c0-2.5-9-2.5-9-.1z"></path><path d="M124.2 75.2c0-3-7.3-3-9.4-1.4-.5.4-.6 1-1.1 1.4-.6.3-4.3.3-5.4.3-11.1 0-23.9-13.3-26.4-14.8 0 0-6.4 10.4-6.4 29.6a72.4 72.4 0 0014.3 41.4s5.6-2.6 6.8-8.8c.9-4.1.5-9.9 1.5-14 2-8 10.6-8.8 10.6-8.8 0-.3-1.6-4-1.6-6.9 0-3.3 3.2-3.8 4.8-2.5.5.4.8 1.5.9 2.3v3.4c0 3 9.5 3 11.4 1.1V75.2z"></path><path fill="#000" stroke="none" d="M83.5 68.7c-2.9 19.6-3.6 34.2 7.1 56-10.2-14.6-11.8-41.2-7.1-56zm30.7 8c.3 5.7.5 11.6 0 17.4-.3-5.3-.5-11.7 0-17.3z" opacity=".6"></path></g><radialGradient id="backlight_provinceCOA146" cx="100%" cy="100%" r="150%"><stop stop-color="#fff" stop-opacity=".3" offset="0"></stop><stop stop-color="#fff" stop-opacity=".15" offset=".25"></stop><stop stop-color="#000" stop-opacity="0" offset="1"></stop></radialGradient></defs>
        <g clip-path="url(#polish_provinceCOA146)"><rect x="0" y="0" width="200" height="200" fill="#fafafa"></rect><g fill="#377cd7" stroke="none"><path d="m 90.3,6.3 c -12.7,0 -20.7,10.9 -40.5,14 0,11.8 -4.9,23.5 -11.4,31.1 0,0 12.7,6 12.7,19.3 C 51.1,90.8 30,90.8 30,90.8 c 0,0 -3.6,7.4 -3.6,22.4 0,34.3 23.1,60.2 40.7,68.2 17.6,8 27.7,11.4 32.9,18.6 5.2,-7.3 15.3,-10.7 32.8,-18.6 17.6,-8 40.7,-33.9 40.7,-68.2 0,-15 -3.6,-22.4 -3.6,-22.4 0,0 -21.1,0 -21.1,-20.1 0,-13.3 12.7,-19.3 12.7,-19.3 C 155.1,43.7 150.2,32.1 150.2,20.3 130.4,17.2 122.5,6.3 109.7,6.3 102.5,6.3 100,10 100,10 c 0,0 -2.5,-3.7 -9.7,-3.7 z" fill="none" stroke="#377cd7" stroke-width="16.7%"></path></g><g fill="#ffe066" stroke="#000"><use href="#inescutcheon_provinceCOA146" transform="translate(36.7 32.7) scale(0.153)"></use><use href="#inescutcheon_provinceCOA146" transform="translate(61.7 4.700000000000003) scale(0.153)"></use><use href="#inescutcheon_provinceCOA146" transform="translate(107.7 4.700000000000003) scale(0.153)"></use><use href="#inescutcheon_provinceCOA146" transform="translate(132.7 32.7) scale(0.153)"></use><use href="#inescutcheon_provinceCOA146" transform="translate(131.7 74.7) scale(0.153)"></use><use href="#inescutcheon_provinceCOA146" transform="translate(146.7 116.7) scale(0.153)"></use><use href="#inescutcheon_provinceCOA146" transform="translate(121.7 152.7) scale(0.153)"></use><use href="#inescutcheon_provinceCOA146" transform="translate(84.7 170.7) scale(0.153)"></use><use href="#inescutcheon_provinceCOA146" transform="translate(47.7 152.7) scale(0.153)"></use><use href="#inescutcheon_provinceCOA146" transform="translate(22.700000000000003 116.7) scale(0.153)"></use><use href="#inescutcheon_provinceCOA146" transform="translate(37.7 74.7) scale(0.153)"></use></g><g fill="#522d5b" stroke="#000"><use href="#hatchet_provinceCOA146" transform="translate(44.349999999999994 40.349999999999994) scale(0.0765)"></use><use href="#hatchet_provinceCOA146" transform="translate(69.35 12.349999999999994) scale(0.0765)"></use><use href="#hatchet_provinceCOA146" transform="translate(115.35 12.349999999999994) scale(0.0765)"></use><use href="#hatchet_provinceCOA146" transform="translate(140.35 40.349999999999994) scale(0.0765)"></use><use href="#hatchet_provinceCOA146" transform="translate(139.35 82.35) scale(0.0765)"></use><use href="#hatchet_provinceCOA146" transform="translate(154.35 124.35) scale(0.0765)"></use><use href="#hatchet_provinceCOA146" transform="translate(129.35 160.35) scale(0.0765)"></use><use href="#hatchet_provinceCOA146" transform="translate(92.35 178.35) scale(0.0765)"></use><use href="#hatchet_provinceCOA146" transform="translate(55.349999999999994 160.35) scale(0.0765)"></use><use href="#hatchet_provinceCOA146" transform="translate(30.349999999999994 124.35) scale(0.0765)"></use><use href="#hatchet_provinceCOA146" transform="translate(45.349999999999994 82.35) scale(0.0765)"></use></g></g>
        <path d="m 90.3,6.3 c -12.7,0 -20.7,10.9 -40.5,14 0,11.8 -4.9,23.5 -11.4,31.1 0,0 12.7,6 12.7,19.3 C 51.1,90.8 30,90.8 30,90.8 c 0,0 -3.6,7.4 -3.6,22.4 0,34.3 23.1,60.2 40.7,68.2 17.6,8 27.7,11.4 32.9,18.6 5.2,-7.3 15.3,-10.7 32.8,-18.6 17.6,-8 40.7,-33.9 40.7,-68.2 0,-15 -3.6,-22.4 -3.6,-22.4 0,0 -21.1,0 -21.1,-20.1 0,-13.3 12.7,-19.3 12.7,-19.3 C 155.1,43.7 150.2,32.1 150.2,20.3 130.4,17.2 122.5,6.3 109.7,6.3 102.5,6.3 100,10 100,10 c 0,0 -2.5,-3.7 -9.7,-3.7 z" fill="url(#backlight_provinceCOA146)" stroke="#333"></path></svg>