<svg xmlns="http://www.w3.org/2000/svg" id="provinceCOA114" width="200" height="200" viewBox="0 0 200 200">
        <defs><clipPath id="polish_provinceCOA114"><path d="m 90.3,6.3 c -12.7,0 -20.7,10.9 -40.5,14 0,11.8 -4.9,23.5 -11.4,31.1 0,0 12.7,6 12.7,19.3 C 51.1,90.8 30,90.8 30,90.8 c 0,0 -3.6,7.4 -3.6,22.4 0,34.3 23.1,60.2 40.7,68.2 17.6,8 27.7,11.4 32.9,18.6 5.2,-7.3 15.3,-10.7 32.8,-18.6 17.6,-8 40.7,-33.9 40.7,-68.2 0,-15 -3.6,-22.4 -3.6,-22.4 0,0 -21.1,0 -21.1,-20.1 0,-13.3 12.7,-19.3 12.7,-19.3 C 155.1,43.7 150.2,32.1 150.2,20.3 130.4,17.2 122.5,6.3 109.7,6.3 102.5,6.3 100,10 100,10 c 0,0 -2.5,-3.7 -9.7,-3.7 z"></path></clipPath><g id="triangle_provinceCOA114"><polygon points="100 60 135 130 65 130"></polygon></g><radialGradient id="backlight_provinceCOA114" cx="100%" cy="100%" r="150%"><stop stop-color="#fff" stop-opacity=".3" offset="0"></stop><stop stop-color="#fff" stop-opacity=".15" offset=".25"></stop><stop stop-color="#000" stop-opacity="0" offset="1"></stop></radialGradient></defs>
        <g clip-path="url(#polish_provinceCOA114)"><rect x="0" y="0" width="200" height="200" fill="#fafafa"></rect><g fill="#d7374a" stroke="none"><path d="M 9.4,85 C 6.5,88.1 4.1,92.9 3,98.8 1.9,104.6 2.3,110.4 3.8,115 2.4,113.5 0,106.6 0,109.3 v 5.7 h 200 v -5.7 c -1.1,-2.4 -2,-5.1 -2.6,-8 -1.1,-5.9 -0.7,-11.6 0.8,-16.2 -2.9,3.1 -5.3,7.9 -6.4,13.8 -1.1,5.9 -0.7,11.6 0.8,16.2 -2.9,-3.1 -5.3,-7.9 -6.4,-13.8 -1.1,-5.9 -0.7,-11.6 0.8,-16.2 -2.9,3.1 -5.3,7.9 -6.4,13.8 -1.1,5.9 -0.7,11.6 0.8,16.2 -2.9,-3.1 -5.3,-7.9 -6.4,-13.8 -1.1,-5.9 -0.7,-11.6 0.8,-16.2 -2.9,3.1 -5.3,7.9 -6.4,13.8 -1.1,5.9 -0.7,11.6 0.8,16.2 -2.9,-3.1 -5.3,-7.9 -6.4,-13.8 -1.1,-5.9 -0.7,-11.6 0.8,-16.2 -2.9,3.1 -5.3,7.9 -6.4,13.8 -1.1,5.9 -0.7,11.6 0.8,16.2 -2.9,-3.1 -5.3,-7.9 -6.4,-13.8 -1.1,-5.9 -0.7,-11.6 0.8,-16.2 -2.9,3.1 -5.3,7.9 -6.4,13.8 -1.1,5.9 -0.7,11.6 0.8,16.2 -2.9,-3.1 -5.3,-7.9 -6.4,-13.8 -1.1,-5.9 -0.7,-11.6 0.8,-16.2 -2.9,3.1 -5.3,7.9 -6.4,13.8 -1.1,5.9 -0.7,11.6 0.8,16.2 -2.9,-3.1 -5.3,-7.9 -6.4,-13.8 -1.1,-5.9 -0.7,-11.6 0.8,-16.2 -2.9,3.1 -5.3,7.9 -6.4,13.8 -1.1,5.9 -0.7,11.6 0.8,16.2 -2.9,-3.1 -5.3,-7.9 -6.4,-13.8 -1.1,-5.9 -0.7,-11.6 0.8,-16.2 -2.9,3.1 -5.3,7.9 -6.4,13.8 -1.1,5.9 -0.7,11.6 0.8,16.2 -2.9,-3.1 -5.3,-7.9 -6.4,-13.8 -1.1,-5.9 -0.7,-11.6 0.8,-16.2 -2.9,3.1 -5.3,7.9 -6.4,13.8 -1.1,5.9 -0.7,11.6 0.8,16.2 -1.4,-1.5 -2.8,-3.9 -3.8,-6.1 -1.1,-2.4 -2.3,-6.1 -2.6,-7.7 -0.2,-5.9 0.2,-11.7 1.7,-16.3 -3,3.1 -5.3,7.9 -6.4,13.8 -1.1,5.8 -0.7,11.6 0.8,16.2 -2.9,-3.1 -5.3,-7.9 -6.4,-13.8 -1,-5.8 -0.7,-11.6 0.9,-16.2 -3,3.1 -5.3,7.9 -6.4,13.8 -1.1,5.8 -0.7,11.6 0.8,16.2 -2.9,-3.1 -5.3,-7.9 -6.4,-13.8 -1.1,-5.8 -0.7,-11.6 0.9,-16.2 -3,3.1 -5.3,7.9 -6.4,13.8 -1.1,5.8 -0.7,11.6 0.8,16.2 -2.9,-3.1 -5.3,-7.9 -6.4,-13.8 C 63,95.4 63.4,89.6 64.9,85 c -2.9,3.1 -5.3,7.9 -6.3,13.8 -1.1,5.8 -0.7,11.6 0.8,16.2 -3,-3.1 -5.3,-7.9 -6.4,-13.8 -1.1,-5.8 -0.7,-11.6 0.8,-16.2 -2.9,3.1 -5.3,7.9 -6.4,13.8 -1,5.8 -0.6,11.6 0.9,16.2 -3,-3.1 -5.3,-7.9 -6.4,-13.8 -1.1,-5.8 -0.7,-11.6 0.8,-16.2 -2.9,3.1 -5.3,7.9 -6.4,13.8 -1,5.8 -0.7,11.6 0.9,16.2 -3,-3.1 -5.3,-7.9 -6.4,-13.8 -1.1,-5.8 -0.7,-11.6 0.8,-16.2 -2.9,3.1 -5.3,7.9 -6.4,13.8 -1.1,5.8 -0.7,11.6 0.9,16.2 -3,-3.1 -5.3,-7.9 -6.4,-13.8 C 18.6,95.4 19,89.6 20.5,85 17.6,88.1 15.2,92.9 14.1,98.8 13,104.6 13.4,110.4 14.9,115 12,111.9 9.6,107.1 8.6,101.2 7.5,95.4 7.9,89.6 9.4,85 Z" transform="translate(0,-20)"></path><path d="M 9.4,85 C 6.5,88.1 4.1,92.9 3,98.8 1.9,104.6 2.3,110.4 3.8,115 2.4,113.5 0,106.6 0,109.3 v 5.7 h 200 v -5.7 c -1.1,-2.4 -2,-5.1 -2.6,-8 -1.1,-5.9 -0.7,-11.6 0.8,-16.2 -2.9,3.1 -5.3,7.9 -6.4,13.8 -1.1,5.9 -0.7,11.6 0.8,16.2 -2.9,-3.1 -5.3,-7.9 -6.4,-13.8 -1.1,-5.9 -0.7,-11.6 0.8,-16.2 -2.9,3.1 -5.3,7.9 -6.4,13.8 -1.1,5.9 -0.7,11.6 0.8,16.2 -2.9,-3.1 -5.3,-7.9 -6.4,-13.8 -1.1,-5.9 -0.7,-11.6 0.8,-16.2 -2.9,3.1 -5.3,7.9 -6.4,13.8 -1.1,5.9 -0.7,11.6 0.8,16.2 -2.9,-3.1 -5.3,-7.9 -6.4,-13.8 -1.1,-5.9 -0.7,-11.6 0.8,-16.2 -2.9,3.1 -5.3,7.9 -6.4,13.8 -1.1,5.9 -0.7,11.6 0.8,16.2 -2.9,-3.1 -5.3,-7.9 -6.4,-13.8 -1.1,-5.9 -0.7,-11.6 0.8,-16.2 -2.9,3.1 -5.3,7.9 -6.4,13.8 -1.1,5.9 -0.7,11.6 0.8,16.2 -2.9,-3.1 -5.3,-7.9 -6.4,-13.8 -1.1,-5.9 -0.7,-11.6 0.8,-16.2 -2.9,3.1 -5.3,7.9 -6.4,13.8 -1.1,5.9 -0.7,11.6 0.8,16.2 -2.9,-3.1 -5.3,-7.9 -6.4,-13.8 -1.1,-5.9 -0.7,-11.6 0.8,-16.2 -2.9,3.1 -5.3,7.9 -6.4,13.8 -1.1,5.9 -0.7,11.6 0.8,16.2 -2.9,-3.1 -5.3,-7.9 -6.4,-13.8 -1.1,-5.9 -0.7,-11.6 0.8,-16.2 -2.9,3.1 -5.3,7.9 -6.4,13.8 -1.1,5.9 -0.7,11.6 0.8,16.2 -2.9,-3.1 -5.3,-7.9 -6.4,-13.8 -1.1,-5.9 -0.7,-11.6 0.8,-16.2 -2.9,3.1 -5.3,7.9 -6.4,13.8 -1.1,5.9 -0.7,11.6 0.8,16.2 -1.4,-1.5 -2.8,-3.9 -3.8,-6.1 -1.1,-2.4 -2.3,-6.1 -2.6,-7.7 -0.2,-5.9 0.2,-11.7 1.7,-16.3 -3,3.1 -5.3,7.9 -6.4,13.8 -1.1,5.8 -0.7,11.6 0.8,16.2 -2.9,-3.1 -5.3,-7.9 -6.4,-13.8 -1,-5.8 -0.7,-11.6 0.9,-16.2 -3,3.1 -5.3,7.9 -6.4,13.8 -1.1,5.8 -0.7,11.6 0.8,16.2 -2.9,-3.1 -5.3,-7.9 -6.4,-13.8 -1.1,-5.8 -0.7,-11.6 0.9,-16.2 -3,3.1 -5.3,7.9 -6.4,13.8 -1.1,5.8 -0.7,11.6 0.8,16.2 -2.9,-3.1 -5.3,-7.9 -6.4,-13.8 C 63,95.4 63.4,89.6 64.9,85 c -2.9,3.1 -5.3,7.9 -6.3,13.8 -1.1,5.8 -0.7,11.6 0.8,16.2 -3,-3.1 -5.3,-7.9 -6.4,-13.8 -1.1,-5.8 -0.7,-11.6 0.8,-16.2 -2.9,3.1 -5.3,7.9 -6.4,13.8 -1,5.8 -0.6,11.6 0.9,16.2 -3,-3.1 -5.3,-7.9 -6.4,-13.8 -1.1,-5.8 -0.7,-11.6 0.8,-16.2 -2.9,3.1 -5.3,7.9 -6.4,13.8 -1,5.8 -0.7,11.6 0.9,16.2 -3,-3.1 -5.3,-7.9 -6.4,-13.8 -1.1,-5.8 -0.7,-11.6 0.8,-16.2 -2.9,3.1 -5.3,7.9 -6.4,13.8 -1.1,5.8 -0.7,11.6 0.9,16.2 -3,-3.1 -5.3,-7.9 -6.4,-13.8 C 18.6,95.4 19,89.6 20.5,85 17.6,88.1 15.2,92.9 14.1,98.8 13,104.6 13.4,110.4 14.9,115 12,111.9 9.6,107.1 8.6,101.2 7.5,95.4 7.9,89.6 9.4,85 Z" transform="rotate(180 100 100) translate(0,-20)"></path><path d="M 9.4,85 C 6.5,88.1 4.1,92.9 3,98.8 1.9,104.6 2.3,110.4 3.8,115 2.4,113.5 0,106.6 0,109.3 v 5.7 h 200 v -5.7 c -1.1,-2.4 -2,-5.1 -2.6,-8 -1.1,-5.9 -0.7,-11.6 0.8,-16.2 -2.9,3.1 -5.3,7.9 -6.4,13.8 -1.1,5.9 -0.7,11.6 0.8,16.2 -2.9,-3.1 -5.3,-7.9 -6.4,-13.8 -1.1,-5.9 -0.7,-11.6 0.8,-16.2 -2.9,3.1 -5.3,7.9 -6.4,13.8 -1.1,5.9 -0.7,11.6 0.8,16.2 -2.9,-3.1 -5.3,-7.9 -6.4,-13.8 -1.1,-5.9 -0.7,-11.6 0.8,-16.2 -2.9,3.1 -5.3,7.9 -6.4,13.8 -1.1,5.9 -0.7,11.6 0.8,16.2 -2.9,-3.1 -5.3,-7.9 -6.4,-13.8 -1.1,-5.9 -0.7,-11.6 0.8,-16.2 -2.9,3.1 -5.3,7.9 -6.4,13.8 -1.1,5.9 -0.7,11.6 0.8,16.2 -2.9,-3.1 -5.3,-7.9 -6.4,-13.8 -1.1,-5.9 -0.7,-11.6 0.8,-16.2 -2.9,3.1 -5.3,7.9 -6.4,13.8 -1.1,5.9 -0.7,11.6 0.8,16.2 -2.9,-3.1 -5.3,-7.9 -6.4,-13.8 -1.1,-5.9 -0.7,-11.6 0.8,-16.2 -2.9,3.1 -5.3,7.9 -6.4,13.8 -1.1,5.9 -0.7,11.6 0.8,16.2 -2.9,-3.1 -5.3,-7.9 -6.4,-13.8 -1.1,-5.9 -0.7,-11.6 0.8,-16.2 -2.9,3.1 -5.3,7.9 -6.4,13.8 -1.1,5.9 -0.7,11.6 0.8,16.2 -2.9,-3.1 -5.3,-7.9 -6.4,-13.8 -1.1,-5.9 -0.7,-11.6 0.8,-16.2 -2.9,3.1 -5.3,7.9 -6.4,13.8 -1.1,5.9 -0.7,11.6 0.8,16.2 -2.9,-3.1 -5.3,-7.9 -6.4,-13.8 -1.1,-5.9 -0.7,-11.6 0.8,-16.2 -2.9,3.1 -5.3,7.9 -6.4,13.8 -1.1,5.9 -0.7,11.6 0.8,16.2 -1.4,-1.5 -2.8,-3.9 -3.8,-6.1 -1.1,-2.4 -2.3,-6.1 -2.6,-7.7 -0.2,-5.9 0.2,-11.7 1.7,-16.3 -3,3.1 -5.3,7.9 -6.4,13.8 -1.1,5.8 -0.7,11.6 0.8,16.2 -2.9,-3.1 -5.3,-7.9 -6.4,-13.8 -1,-5.8 -0.7,-11.6 0.9,-16.2 -3,3.1 -5.3,7.9 -6.4,13.8 -1.1,5.8 -0.7,11.6 0.8,16.2 -2.9,-3.1 -5.3,-7.9 -6.4,-13.8 -1.1,-5.8 -0.7,-11.6 0.9,-16.2 -3,3.1 -5.3,7.9 -6.4,13.8 -1.1,5.8 -0.7,11.6 0.8,16.2 -2.9,-3.1 -5.3,-7.9 -6.4,-13.8 C 63,95.4 63.4,89.6 64.9,85 c -2.9,3.1 -5.3,7.9 -6.3,13.8 -1.1,5.8 -0.7,11.6 0.8,16.2 -3,-3.1 -5.3,-7.9 -6.4,-13.8 -1.1,-5.8 -0.7,-11.6 0.8,-16.2 -2.9,3.1 -5.3,7.9 -6.4,13.8 -1,5.8 -0.6,11.6 0.9,16.2 -3,-3.1 -5.3,-7.9 -6.4,-13.8 -1.1,-5.8 -0.7,-11.6 0.8,-16.2 -2.9,3.1 -5.3,7.9 -6.4,13.8 -1,5.8 -0.7,11.6 0.9,16.2 -3,-3.1 -5.3,-7.9 -6.4,-13.8 -1.1,-5.8 -0.7,-11.6 0.8,-16.2 -2.9,3.1 -5.3,7.9 -6.4,13.8 -1.1,5.8 -0.7,11.6 0.9,16.2 -3,-3.1 -5.3,-7.9 -6.4,-13.8 C 18.6,95.4 19,89.6 20.5,85 17.6,88.1 15.2,92.9 14.1,98.8 13,104.6 13.4,110.4 14.9,115 12,111.9 9.6,107.1 8.6,101.2 7.5,95.4 7.9,89.6 9.4,85 Z" transform="rotate(-90 100 100) translate(0,-20)"></path><path d="M 9.4,85 C 6.5,88.1 4.1,92.9 3,98.8 1.9,104.6 2.3,110.4 3.8,115 2.4,113.5 0,106.6 0,109.3 v 5.7 h 200 v -5.7 c -1.1,-2.4 -2,-5.1 -2.6,-8 -1.1,-5.9 -0.7,-11.6 0.8,-16.2 -2.9,3.1 -5.3,7.9 -6.4,13.8 -1.1,5.9 -0.7,11.6 0.8,16.2 -2.9,-3.1 -5.3,-7.9 -6.4,-13.8 -1.1,-5.9 -0.7,-11.6 0.8,-16.2 -2.9,3.1 -5.3,7.9 -6.4,13.8 -1.1,5.9 -0.7,11.6 0.8,16.2 -2.9,-3.1 -5.3,-7.9 -6.4,-13.8 -1.1,-5.9 -0.7,-11.6 0.8,-16.2 -2.9,3.1 -5.3,7.9 -6.4,13.8 -1.1,5.9 -0.7,11.6 0.8,16.2 -2.9,-3.1 -5.3,-7.9 -6.4,-13.8 -1.1,-5.9 -0.7,-11.6 0.8,-16.2 -2.9,3.1 -5.3,7.9 -6.4,13.8 -1.1,5.9 -0.7,11.6 0.8,16.2 -2.9,-3.1 -5.3,-7.9 -6.4,-13.8 -1.1,-5.9 -0.7,-11.6 0.8,-16.2 -2.9,3.1 -5.3,7.9 -6.4,13.8 -1.1,5.9 -0.7,11.6 0.8,16.2 -2.9,-3.1 -5.3,-7.9 -6.4,-13.8 -1.1,-5.9 -0.7,-11.6 0.8,-16.2 -2.9,3.1 -5.3,7.9 -6.4,13.8 -1.1,5.9 -0.7,11.6 0.8,16.2 -2.9,-3.1 -5.3,-7.9 -6.4,-13.8 -1.1,-5.9 -0.7,-11.6 0.8,-16.2 -2.9,3.1 -5.3,7.9 -6.4,13.8 -1.1,5.9 -0.7,11.6 0.8,16.2 -2.9,-3.1 -5.3,-7.9 -6.4,-13.8 -1.1,-5.9 -0.7,-11.6 0.8,-16.2 -2.9,3.1 -5.3,7.9 -6.4,13.8 -1.1,5.9 -0.7,11.6 0.8,16.2 -2.9,-3.1 -5.3,-7.9 -6.4,-13.8 -1.1,-5.9 -0.7,-11.6 0.8,-16.2 -2.9,3.1 -5.3,7.9 -6.4,13.8 -1.1,5.9 -0.7,11.6 0.8,16.2 -1.4,-1.5 -2.8,-3.9 -3.8,-6.1 -1.1,-2.4 -2.3,-6.1 -2.6,-7.7 -0.2,-5.9 0.2,-11.7 1.7,-16.3 -3,3.1 -5.3,7.9 -6.4,13.8 -1.1,5.8 -0.7,11.6 0.8,16.2 -2.9,-3.1 -5.3,-7.9 -6.4,-13.8 -1,-5.8 -0.7,-11.6 0.9,-16.2 -3,3.1 -5.3,7.9 -6.4,13.8 -1.1,5.8 -0.7,11.6 0.8,16.2 -2.9,-3.1 -5.3,-7.9 -6.4,-13.8 -1.1,-5.8 -0.7,-11.6 0.9,-16.2 -3,3.1 -5.3,7.9 -6.4,13.8 -1.1,5.8 -0.7,11.6 0.8,16.2 -2.9,-3.1 -5.3,-7.9 -6.4,-13.8 C 63,95.4 63.4,89.6 64.9,85 c -2.9,3.1 -5.3,7.9 -6.3,13.8 -1.1,5.8 -0.7,11.6 0.8,16.2 -3,-3.1 -5.3,-7.9 -6.4,-13.8 -1.1,-5.8 -0.7,-11.6 0.8,-16.2 -2.9,3.1 -5.3,7.9 -6.4,13.8 -1,5.8 -0.6,11.6 0.9,16.2 -3,-3.1 -5.3,-7.9 -6.4,-13.8 -1.1,-5.8 -0.7,-11.6 0.8,-16.2 -2.9,3.1 -5.3,7.9 -6.4,13.8 -1,5.8 -0.7,11.6 0.9,16.2 -3,-3.1 -5.3,-7.9 -6.4,-13.8 -1.1,-5.8 -0.7,-11.6 0.8,-16.2 -2.9,3.1 -5.3,7.9 -6.4,13.8 -1.1,5.8 -0.7,11.6 0.9,16.2 -3,-3.1 -5.3,-7.9 -6.4,-13.8 C 18.6,95.4 19,89.6 20.5,85 17.6,88.1 15.2,92.9 14.1,98.8 13,104.6 13.4,110.4 14.9,115 12,111.9 9.6,107.1 8.6,101.2 7.5,95.4 7.9,89.6 9.4,85 Z" transform="rotate(-270 100 100) translate(0,-20)"></path></g><g fill="#fafafa" stroke="#000"><use href="#triangle_provinceCOA114" transform="translate(-27.499999999999993 -27.499999999999993) scale(1.275)"></use></g></g>
        <path d="m 90.3,6.3 c -12.7,0 -20.7,10.9 -40.5,14 0,11.8 -4.9,23.5 -11.4,31.1 0,0 12.7,6 12.7,19.3 C 51.1,90.8 30,90.8 30,90.8 c 0,0 -3.6,7.4 -3.6,22.4 0,34.3 23.1,60.2 40.7,68.2 17.6,8 27.7,11.4 32.9,18.6 5.2,-7.3 15.3,-10.7 32.8,-18.6 17.6,-8 40.7,-33.9 40.7,-68.2 0,-15 -3.6,-22.4 -3.6,-22.4 0,0 -21.1,0 -21.1,-20.1 0,-13.3 12.7,-19.3 12.7,-19.3 C 155.1,43.7 150.2,32.1 150.2,20.3 130.4,17.2 122.5,6.3 109.7,6.3 102.5,6.3 100,10 100,10 c 0,0 -2.5,-3.7 -9.7,-3.7 z" fill="url(#backlight_provinceCOA114)" stroke="#333"></path></svg>