<svg xmlns="http://www.w3.org/2000/svg" id="provinceCOA148" width="200" height="200" viewBox="0 0 200 200">
        <defs><clipPath id="polish_provinceCOA148"><path d="m 90.3,6.3 c -12.7,0 -20.7,10.9 -40.5,14 0,11.8 -4.9,23.5 -11.4,31.1 0,0 12.7,6 12.7,19.3 C 51.1,90.8 30,90.8 30,90.8 c 0,0 -3.6,7.4 -3.6,22.4 0,34.3 23.1,60.2 40.7,68.2 17.6,8 27.7,11.4 32.9,18.6 5.2,-7.3 15.3,-10.7 32.8,-18.6 17.6,-8 40.7,-33.9 40.7,-68.2 0,-15 -3.6,-22.4 -3.6,-22.4 0,0 -21.1,0 -21.1,-20.1 0,-13.3 12.7,-19.3 12.7,-19.3 C 155.1,43.7 150.2,32.1 150.2,20.3 130.4,17.2 122.5,6.3 109.7,6.3 102.5,6.3 100,10 100,10 c 0,0 -2.5,-3.7 -9.7,-3.7 z"></path></clipPath><g id="attire_provinceCOA148" stroke-width=".3"><path d="M91.4 134c-.53.07-1.3-.71-1.46-1.22a2.3 2.3 0 01.13-1.57c.2-.5.66-.97 1.15-1.16 1.3-.51 2.09.16 2.42.14 0 0 2.13-.57 3.49-3.6.59-1.3 4.23-6.22 5.35-8.03 2.65-4.28 4.55-12.2 4.75-13 .99-8.35-.31-11-3.3-15.5-.3-.5-1.05-1.18-2.93-3.34-.71-.81-3.7-3.4-5.66-4.11-3.36-1.54-3.72-.25-7.45-.37-4.5-.15-9.65-7.8-12.4-8.9-1.35-.55-2.94-.66-5.16.1-.44.16-.06-1.68 2.54-2.58 1.97-.68 4.03-.7 5.25-.25 2.5.9 4.83 4.16 8.09 5.66 1.73.8 4.44 1.1 6 .29 2.32-1.21 2.3-2.57 2.29-3.51-.18-3.03-4.72-4.24-4.65-8.85.03-1.62.82-3.22 1.48-3.71.46-.52.82-.43.85.23-.11 6.27 6.25 6.86 7.17 11.1.54 2.49.39 3.53.38 3.99.1.92 1.5 2.69 3.6 4.46 2.36 1.98 3.26 3.3 4.58 3.82 1.28.44 3.65-1.18 4.1-2.37 1.27-3.25-.78-6.7.93-11.1a8.05 8.05 0 014.6-4.43c.7-.23.82.34.49.79-.32.45-3.03 2.14-1.84 7.59.5 2.35 1.35 6.26.09 9.52-1.52 3.93-3.43 3.36-4.23 6.76-.1.83 2.2 5.87 1.84 8.5-.23 1.73-.15 4.19 1.49 4.44 2.77.4 5.15-2.1 6.03-4.52 1.05-2.87 1.77-5.95 4-7.75a7.33 7.33 0 013.88-1.75c.77-.06.68.38.42.65-.18.19-1.61 1.2-2.66 3.23-1.18 2.26-1.21 5.2-1.7 8.45-.88 4.78-5.3 7.47-7.77 7.86-2.18.34-4.08-.17-4.77 1.45a91 91 0 01-2.66 6.84c-.82 1.67.94 3.77 2.8 4.4 3.37 1.4 5.38-1.52 6.67-2.44 3.22-2.27 7.65-2.97 9.58-1.13 1.34 1.4.05 1.2-.42 1.17-4.25-.4-6.21 3.9-10.5 6.5a10 10 0 01-8.3.77c-1.22-.42-1.65-1.12-2.92-1.2-1.13-.05-1.83.9-3.1 2.55-1.34 1.73-2.91 3.66-3.38 4.3-.44.62-.81 1.3-1.06 2.02a.81.81 0 00-.07.4c.02.13.09.24.16.36.23.39.38.83.44 1.27.13.9-.11 1.89-.77 2.52-.66.63-1.61.8-2.41.36-1.01-.56-1.28-1.37-1.4-1.41 0 0-1.7-.31-2.53-1.04-1.3-1.01-1.97-2.22-1.54-3.65z"></path><g fill="#000" stroke="none"><path d="M99.86 75.8c-.12.85-.4 1.74-.65 2.43.24-.86.32-1.68.38-2.45z"></path><path d="M94.3 133c-.86-.4-2.3.02-2.88 1.27l-.26-.13c.76-1.37 2.12-1.66 3.14-1.14-.01-.01 0 0 0 0z"></path><path d="M97.6 135c.82.88.7 2.13.02 2.99.32-.99.33-1.98-.02-2.99z"></path><path d="M111 99.3a37.6 37.6 0 01-.35 3.13c-.03.23-.05.46-.01.67.02.1.06.2.1.31.33.62.16 1.09-.09 1.73-.11.26-.47.97-.48 1.58-.17-.77.08-1.17.28-1.68.34-.78.17-1.2-.11-1.91a2.2 2.2 0 01.02-.77c.16-1.04.38-2 .64-3.06z"></path><path d="M107 112c-.1 1.1-.6 2.08-1.57 2.66.54-.84 1.07-1.74 1.57-2.66z"></path><path d="M108 85.2c-.19.1-.42.1-.62.05-.36-.1-.66-.32-.98-.5a8.47 8.47 0 01-1.37-1.1c.32.13.64.3.94.47.4.24.78.51 1.16.78.23.16.5.32.79.31l.08-.01z"></path><path d="M114 109c-.86.33-1.5.96-2.07 1.71.22-1.08.72-1.7 2.07-1.71z"></path><path d="M107 125c-.85.28-1.52.88-2.14 1.54.3-1.06 1-1.55 2.14-1.54z"></path><path d="M102 123c-.25.24-.6.4-.77.71-.08.2-.02.43-.07.64-.07.3-.31.52-.54.7-.18.17-.37.33-.5.55-.34.5-.52 1.09-.73 1.65l-.07.18c.03-.36.09-.71.17-1.06a2.9 2.9 0 01.79-1.4c.2-.2.5-.35.6-.64.06-.27.02-.6.25-.81.24-.25.57-.36.87-.52z"></path><path d="M96.3 81.8c-1.65-1-3.67-1.3-5.64-1.59 2.02-.21 4.13.04 5.64 1.59z"></path></g></g><g id="anvil_provinceCOA148" stroke-width=".5">
  <path d="m 111,116 6,5 v 9 c 0,0 0,1 -1,1 h -11 v -1 c -1,-1 -5.1,-4 -10,-4 -5,0 -10,3 -11,4 0,1 -0.5,1 -0.5,1 h -10 c -0.5,0 -1,-1 -1,-1 v -9 l 5.1,-5 7.9,-3 c 1.2,-2 1,-3 1,-6 0,-11 -12,-15 -22,-16 C 63,91 62,89.4 62,87.9 v -6.2 c 0,-0.9 0.5,-1.5 1.6,-1.5 H 108 c 1,0 2,0.6 2,1.5 v 0.6 c 0,1 0,1.5 1,1.5 h 2 c 1,0 1,0 1,0.5 v 1 c 4,0 26,0 26,0.6 0,5.6 -7,13 -18,14 -10,2.1 -19,3.1 -19,10.1 0,4 4,4 8,6 z"></path>
    <g fill="#000" stroke="none">
    <path d="m 107,87 c 0,-2.2 -1,-3.6 -3,-3.6 H 86 v 16.5 c -0.6,-1.6 -0.6,-3 -0.6,-4 v -13 H 104 c 3,0.1 3,2 3,4.1 z"></path>
    <path d="m113 96c0-3-1-8.3 3-8.7l20-.5-20 1c-3 .2-3 5.2-3 8.2z"></path>
    <path d="m105 127c-8-5-14-4-22 0 7-5 16-5 22 0z"></path>
    <path d="m 79,118 c 2.8,-2 6.5,-4 7.2,-7 h 0.4 c -0.3,3 -5,6 -7.6,7 z"></path>
    <path d="m 110,118 c -4,-2 -6,-4 -7,-7 h 0 c 0,3 3,6 7,7 z"></path>
    </g>
  </g><radialGradient id="backlight_provinceCOA148" cx="100%" cy="100%" r="150%"><stop stop-color="#fff" stop-opacity=".3" offset="0"></stop><stop stop-color="#fff" stop-opacity=".15" offset=".25"></stop><stop stop-color="#000" stop-opacity="0" offset="1"></stop></radialGradient></defs>
        <g clip-path="url(#polish_provinceCOA148)"><rect x="0" y="0" width="200" height="200" fill="#ffe066"></rect><g fill="#333333" stroke="none"><rect width="37.5%" height="37.5%"></rect></g><g fill="#333333" stroke="#000"><use href="#attire_provinceCOA148" transform="translate(-18.999999999999993 -18.999999999999993) scale(1.19)"></use></g><g fill="#fafafa" stroke="#000"><use href="#anvil_provinceCOA148" transform="translate(7.499999999999993 7.499999999999993) scale(0.425)"></use></g></g>
        <path d="m 90.3,6.3 c -12.7,0 -20.7,10.9 -40.5,14 0,11.8 -4.9,23.5 -11.4,31.1 0,0 12.7,6 12.7,19.3 C 51.1,90.8 30,90.8 30,90.8 c 0,0 -3.6,7.4 -3.6,22.4 0,34.3 23.1,60.2 40.7,68.2 17.6,8 27.7,11.4 32.9,18.6 5.2,-7.3 15.3,-10.7 32.8,-18.6 17.6,-8 40.7,-33.9 40.7,-68.2 0,-15 -3.6,-22.4 -3.6,-22.4 0,0 -21.1,0 -21.1,-20.1 0,-13.3 12.7,-19.3 12.7,-19.3 C 155.1,43.7 150.2,32.1 150.2,20.3 130.4,17.2 122.5,6.3 109.7,6.3 102.5,6.3 100,10 100,10 c 0,0 -2.5,-3.7 -9.7,-3.7 z" fill="url(#backlight_provinceCOA148)" stroke="#333"></path></svg>