<svg xmlns="http://www.w3.org/2000/svg" id="provinceCOA162" width="200" height="200" viewBox="0 0 200 200">
        <defs><clipPath id="pavise_provinceCOA162"><path d="M95 7L39.9 37.3a10 10 0 00-5.1 9.5L46 180c.4 5.2 3.7 10 9 10h90c5.3 0 9.6-4.8 10-10l10.6-133.2a10 10 0 00-5-9.5L105 7c-4.2-2.3-6.2-2.3-10 0z"></path></clipPath><g id="crossFourchy_provinceCOA162" stroke-width=".5">
    <path d="M95 105H76c-1 0-3 0-4 1l-7 5-3-5 9-6-9-6 3-5 7 5c1 1 3 1 4 1h19V75c0-1 0-3-1-4l-5-8 5-3 6 9 6-9 5 4-5 8c-1 1-1 3-1 4v20h20c1 0 3 0 4-1l7-5 3 5-9 6 9 6-3 5-7-5c-1-1-3-1-4-1h-20v18c0 1 0 3 1 4l5 8-5 4-6-9-6 9-5-4 5-8c1-1 1-3 1-4z"></path>
  </g><radialGradient id="backlight_provinceCOA162" cx="100%" cy="100%" r="150%"><stop stop-color="#fff" stop-opacity=".3" offset="0"></stop><stop stop-color="#fff" stop-opacity=".15" offset=".25"></stop><stop stop-color="#000" stop-opacity="0" offset="1"></stop></radialGradient></defs>
        <g clip-path="url(#pavise_provinceCOA162)"><rect x="0" y="0" width="200" height="200" fill="#d7374a"></rect><g fill="#fafafa" stroke="#000"><use href="#crossFourchy_provinceCOA162" transform="translate(7 2) scale(0.63)"></use><use href="#crossFourchy_provinceCOA162" transform="translate(67 2) scale(0.63)"></use><use href="#crossFourchy_provinceCOA162" transform="translate(37 74.5) scale(0.63)"></use></g></g>
        <path d="M95 7L39.9 37.3a10 10 0 00-5.1 9.5L46 180c.4 5.2 3.7 10 9 10h90c5.3 0 9.6-4.8 10-10l10.6-133.2a10 10 0 00-5-9.5L105 7c-4.2-2.3-6.2-2.3-10 0z" fill="url(#backlight_provinceCOA162)" stroke="#333"></path></svg>