<svg xmlns="http://www.w3.org/2000/svg" id="provinceCOA67" width="200" height="200" viewBox="0 0 200 200">
        <defs><clipPath id="pavise_provinceCOA67"><path d="M95 7L39.9 37.3a10 10 0 00-5.1 9.5L46 180c.4 5.2 3.7 10 9 10h90c5.3 0 9.6-4.8 10-10l10.6-133.2a10 10 0 00-5-9.5L105 7c-4.2-2.3-6.2-2.3-10 0z"></path></clipPath><g id="mullet4_provinceCOA67"><polygon points="100 60 109.9 90.1 140 100 109.9 109.9 100 140 90.1 109.9 60 100 90.1 90.1"></polygon></g><radialGradient id="backlight_provinceCOA67" cx="100%" cy="100%" r="150%"><stop stop-color="#fff" stop-opacity=".3" offset="0"></stop><stop stop-color="#fff" stop-opacity=".15" offset=".25"></stop><stop stop-color="#000" stop-opacity="0" offset="1"></stop></radialGradient></defs>
        <g clip-path="url(#pavise_provinceCOA67)"><rect x="0" y="0" width="200" height="200" fill="#fafafa"></rect><g fill="#377cd7" stroke="#000"><use href="#mullet4_provinceCOA67" transform="translate(33 20.5) scale(0.27)"></use><use href="#mullet4_provinceCOA67" transform="translate(73 20.5) scale(0.27)"></use><use href="#mullet4_provinceCOA67" transform="translate(113 20.5) scale(0.27)"></use><use href="#mullet4_provinceCOA67" transform="translate(33 73) scale(0.27)"></use><use href="#mullet4_provinceCOA67" transform="translate(73 73) scale(0.27)"></use><use href="#mullet4_provinceCOA67" transform="translate(113 73) scale(0.27)"></use><use href="#mullet4_provinceCOA67" transform="translate(33 125.5) scale(0.27)"></use><use href="#mullet4_provinceCOA67" transform="translate(73 133) scale(0.27)"></use><use href="#mullet4_provinceCOA67" transform="translate(113 125.5) scale(0.27)"></use></g></g>
        <path d="M95 7L39.9 37.3a10 10 0 00-5.1 9.5L46 180c.4 5.2 3.7 10 9 10h90c5.3 0 9.6-4.8 10-10l10.6-133.2a10 10 0 00-5-9.5L105 7c-4.2-2.3-6.2-2.3-10 0z" fill="url(#backlight_provinceCOA67)" stroke="#333"></path></svg>