<svg xmlns="http://www.w3.org/2000/svg" id="provinceCOA62" width="200" height="200" viewBox="0 0 200 200">
        <defs><clipPath id="pavise_provinceCOA62"><path d="M95 7L39.9 37.3a10 10 0 00-5.1 9.5L46 180c.4 5.2 3.7 10 9 10h90c5.3 0 9.6-4.8 10-10l10.6-133.2a10 10 0 00-5-9.5L105 7c-4.2-2.3-6.2-2.3-10 0z"></path></clipPath><g id="fleurDeLis_provinceCOA62"><path d="M104.2 113.2c.1-5.4 1.5-10.5 4-15.3 6.6-13.8 26.6-13.5 22.2 3.4-1.6 6.2-7.2 9.9-13.7 10.5.5-1.6 3.1-7.4 1-8.6-3.4.1-7.6 6-8.6 8.7-.1.4-.1.9-.3 1.3"></path><path d="M95.8 113.2c-.1-5.4-1.5-10.5-4-15.3-6.5-13.8-26.6-13.4-22.2 3.5 1.6 6.2 7.2 9.9 13.7 10.5-.5-1.6-3.1-7.4-1-8.6 3.4.1 7.6 6 8.6 8.7.1.4.1.9.3 1.3"></path><path d="M99.6 60.5C92.7 68 88 76.6 90 86.7c1.1 5.6 3.8 10.7 5.7 16.1 1.2 3.4 1.5 6.9 1.3 10.4h5.9c-.3-3.6.4-7 1.3-10.4 1.8-5.4 4.5-10.5 5.7-16.1 2.1-10.4-2.9-18.3-9.5-26.2l-.4-.5z"></path><path d="M92 117.4c-1.7 3.4-8.5 9.7-12.2 11.5-.9.5 4.5-.3 6.9-.7 3.2-.5 7.4-3 7.3-2.1 0 4 1.5 10.7 5.6 13.8l.4.3.4-.3c4-3.4 5.6-9.5 5.6-13.8-.1-.9 4.1 1.6 7.3 2.1 2.4.4 7.9 1.1 6.9.7-3.6-1.8-10.5-8.1-12.2-11.5z"></path><rect width="28" height="5" x="86.4" y="112.6"></rect></g><radialGradient id="backlight_provinceCOA62" cx="100%" cy="100%" r="150%"><stop stop-color="#fff" stop-opacity=".3" offset="0"></stop><stop stop-color="#fff" stop-opacity=".15" offset=".25"></stop><stop stop-color="#000" stop-opacity="0" offset="1"></stop></radialGradient></defs>
        <g clip-path="url(#pavise_provinceCOA62)"><rect x="0" y="0" width="200" height="200" fill="#333333"></rect><g fill="#ffe066" stroke="#000"><use href="#fleurDeLis_provinceCOA62" transform="translate(7 2) scale(0.63)"></use><use href="#fleurDeLis_provinceCOA62" transform="translate(67 2) scale(0.63)"></use><use href="#fleurDeLis_provinceCOA62" transform="translate(37 74.5) scale(0.63)"></use></g></g>
        <path d="M95 7L39.9 37.3a10 10 0 00-5.1 9.5L46 180c.4 5.2 3.7 10 9 10h90c5.3 0 9.6-4.8 10-10l10.6-133.2a10 10 0 00-5-9.5L105 7c-4.2-2.3-6.2-2.3-10 0z" fill="url(#backlight_provinceCOA62)" stroke="#333"></path></svg>