<svg xmlns="http://www.w3.org/2000/svg" id="provinceCOA131" width="200" height="200" viewBox="0 0 200 200">
        <defs><clipPath id="polish_provinceCOA131"><path d="m 90.3,6.3 c -12.7,0 -20.7,10.9 -40.5,14 0,11.8 -4.9,23.5 -11.4,31.1 0,0 12.7,6 12.7,19.3 C 51.1,90.8 30,90.8 30,90.8 c 0,0 -3.6,7.4 -3.6,22.4 0,34.3 23.1,60.2 40.7,68.2 17.6,8 27.7,11.4 32.9,18.6 5.2,-7.3 15.3,-10.7 32.8,-18.6 17.6,-8 40.7,-33.9 40.7,-68.2 0,-15 -3.6,-22.4 -3.6,-22.4 0,0 -21.1,0 -21.1,-20.1 0,-13.3 12.7,-19.3 12.7,-19.3 C 155.1,43.7 150.2,32.1 150.2,20.3 130.4,17.2 122.5,6.3 109.7,6.3 102.5,6.3 100,10 100,10 c 0,0 -2.5,-3.7 -9.7,-3.7 z"></path></clipPath><clipPath id="divisionClip_provinceCOA131"><rect x="0" y="100" width="200" height="100"></rect></clipPath><pattern id="masoned-gules-argent" width="0.125" height="0.125" viewBox="0 0 100 100" fill="none"><rect width="100" height="100" fill="#d7374a"></rect><rect width="100" height="50" stroke="#fafafa" stroke-width="4"></rect><line x1="50" y1="50" x2="50" y2="100" stroke="#fafafa" stroke-width="5"></line></pattern><radialGradient id="backlight_provinceCOA131" cx="100%" cy="100%" r="150%"><stop stop-color="#fff" stop-opacity=".3" offset="0"></stop><stop stop-color="#fff" stop-opacity=".15" offset=".25"></stop><stop stop-color="#000" stop-opacity="0" offset="1"></stop></radialGradient></defs>
        <g clip-path="url(#polish_provinceCOA131)"><rect x="0" y="0" width="200" height="200" fill="#fafafa"></rect><g clip-path="url(#divisionClip_provinceCOA131)"><rect x="0" y="0" width="200" height="200" fill="url(#masoned-gules-argent)"></rect></g></g>
        <path d="m 90.3,6.3 c -12.7,0 -20.7,10.9 -40.5,14 0,11.8 -4.9,23.5 -11.4,31.1 0,0 12.7,6 12.7,19.3 C 51.1,90.8 30,90.8 30,90.8 c 0,0 -3.6,7.4 -3.6,22.4 0,34.3 23.1,60.2 40.7,68.2 17.6,8 27.7,11.4 32.9,18.6 5.2,-7.3 15.3,-10.7 32.8,-18.6 17.6,-8 40.7,-33.9 40.7,-68.2 0,-15 -3.6,-22.4 -3.6,-22.4 0,0 -21.1,0 -21.1,-20.1 0,-13.3 12.7,-19.3 12.7,-19.3 C 155.1,43.7 150.2,32.1 150.2,20.3 130.4,17.2 122.5,6.3 109.7,6.3 102.5,6.3 100,10 100,10 c 0,0 -2.5,-3.7 -9.7,-3.7 z" fill="url(#backlight_provinceCOA131)" stroke="#333"></path></svg>