<svg xmlns="http://www.w3.org/2000/svg" id="provinceCOA29" width="200" height="200" viewBox="0 10 200 200">
        <defs><clipPath id="french_provinceCOA29"><path d="m 25,25 h 150 v 139.15 c 0,41.745 -66,18.15 -75,36.3 -9,-18.15 -75,5.445 -75,-36.3 v 0 z"></path></clipPath><g id="inescutcheon_provinceCOA29"><path transform="translate(66 66) scale(.34)" d="m 25,25 h 150 v 139.15 c 0,41.745 -66,18.15 -75,36.3 -9,-18.15 -75,5.445 -75,-36.3 v 0 z"></path></g><g id="crossClechy_provinceCOA29" stroke-width=".5"><path d="M 96.9,103.1 C 97,112 92,122 87,127 c 5.2,2.3 11,8 13,15 2,-7 7.8,-12.7 13,-15 -5,-5 -10,-15 -9.9,-23.9 8.9,-0.1 19.9,4.9 24.9,9.9 2,-5 8,-11 15,-13 -7,-2 -13,-8 -15,-13 -5,5 -16,10 -24.9,9.9 C 103,88 108,78 113,73 108,71 102,65 100,58 98,65 92,71 87,73 92,78 97,88 96.9,96.9 88,97 78,92 73,87 c -2,5 -8,11 -15,13 7,2 13,8 15,13 7,-5 15,-10 23.9,-9.9 z"></path></g><radialGradient id="backlight_provinceCOA29" cx="100%" cy="100%" r="150%"><stop stop-color="#fff" stop-opacity=".3" offset="0"></stop><stop stop-color="#fff" stop-opacity=".15" offset=".25"></stop><stop stop-color="#000" stop-opacity="0" offset="1"></stop></radialGradient></defs>
        <g clip-path="url(#french_provinceCOA29)"><rect x="0" y="0" width="200" height="200" fill="#333333"></rect><g fill="#ffe066" stroke="none"><path d="m 200,100 -7,-5 4,10 -7,-5 -7,5 4,-10 -7,5 -7,-5 4,10 -7,-5 -7,5 4,-10 -7,5 -7,-5 4,10 -7,-5 -7,5 4,-10 -7,5 -7,-5 4,10 -7,-5 -7,5 4,-10 -7,5 -7,-5 4,10 -7,-5 -7,5 4,-10 -7,5 -7,-5 4,10 -7,-5 -7,5 4,-10 -7,5 -7,-5 4,10 -7,-5 -7,5 4,-10 -7,5 -7,-5 4,10 -7,-5 -7,5 4,-10 -7,5 -7,-5 4,10 -7,-5 -7,5 4,-10 -7,5 -7,-5 4,10 -7,-5 -7,5 4,-10 -7,5 v 15 h 200" transform="translate(0,-14.5)"></path><path d="m 200,100 -7,-5 4,10 -7,-5 -7,5 4,-10 -7,5 -7,-5 4,10 -7,-5 -7,5 4,-10 -7,5 -7,-5 4,10 -7,-5 -7,5 4,-10 -7,5 -7,-5 4,10 -7,-5 -7,5 4,-10 -7,5 -7,-5 4,10 -7,-5 -7,5 4,-10 -7,5 -7,-5 4,10 -7,-5 -7,5 4,-10 -7,5 -7,-5 4,10 -7,-5 -7,5 4,-10 -7,5 -7,-5 4,10 -7,-5 -7,5 4,-10 -7,5 -7,-5 4,10 -7,-5 -7,5 4,-10 -7,5 -7,-5 4,10 -7,-5 -7,5 4,-10 -7,5 v 15 h 200" transform="rotate(180 100 100) translate(0,-14.5)"></path><path d="m 200,100 -7,-5 4,10 -7,-5 -7,5 4,-10 -7,5 -7,-5 4,10 -7,-5 -7,5 4,-10 -7,5 -7,-5 4,10 -7,-5 -7,5 4,-10 -7,5 -7,-5 4,10 -7,-5 -7,5 4,-10 -7,5 -7,-5 4,10 -7,-5 -7,5 4,-10 -7,5 -7,-5 4,10 -7,-5 -7,5 4,-10 -7,5 -7,-5 4,10 -7,-5 -7,5 4,-10 -7,5 -7,-5 4,10 -7,-5 -7,5 4,-10 -7,5 -7,-5 4,10 -7,-5 -7,5 4,-10 -7,5 -7,-5 4,10 -7,-5 -7,5 4,-10 -7,5 v 15 h 200" transform="rotate(-90 100 100) translate(0,-14.5)"></path><path d="m 200,100 -7,-5 4,10 -7,-5 -7,5 4,-10 -7,5 -7,-5 4,10 -7,-5 -7,5 4,-10 -7,5 -7,-5 4,10 -7,-5 -7,5 4,-10 -7,5 -7,-5 4,10 -7,-5 -7,5 4,-10 -7,5 -7,-5 4,10 -7,-5 -7,5 4,-10 -7,5 -7,-5 4,10 -7,-5 -7,5 4,-10 -7,5 -7,-5 4,10 -7,-5 -7,5 4,-10 -7,5 -7,-5 4,10 -7,-5 -7,5 4,-10 -7,5 -7,-5 4,10 -7,-5 -7,5 4,-10 -7,5 -7,-5 4,10 -7,-5 -7,5 4,-10 -7,5 v 15 h 200" transform="rotate(-270 100 100) translate(0,-14.5)"></path></g><g fill="#333333" stroke="#000"><use href="#inescutcheon_provinceCOA29" transform="translate(70 20) scale(0.3)"></use><use href="#inescutcheon_provinceCOA29" transform="translate(70 70) scale(0.3)"></use><use href="#inescutcheon_provinceCOA29" transform="translate(70 120) scale(0.3)"></use><use href="#inescutcheon_provinceCOA29" transform="translate(26.25 70) scale(0.3)"></use><use href="#inescutcheon_provinceCOA29" transform="translate(113.75 70) scale(0.3)"></use></g><g fill="#fafafa" stroke="#000"><use href="#crossClechy_provinceCOA29" transform="translate(85 35) scale(0.15)"></use><use href="#crossClechy_provinceCOA29" transform="translate(85 85) scale(0.15)"></use><use href="#crossClechy_provinceCOA29" transform="translate(85 135) scale(0.15)"></use><use href="#crossClechy_provinceCOA29" transform="translate(41.25 85) scale(0.15)"></use><use href="#crossClechy_provinceCOA29" transform="translate(128.75 85) scale(0.15)"></use></g></g>
        <path d="m 25,25 h 150 v 139.15 c 0,41.745 -66,18.15 -75,36.3 -9,-18.15 -75,5.445 -75,-36.3 v 0 z" fill="url(#backlight_provinceCOA29)" stroke="#333"></path></svg>