<svg xmlns="http://www.w3.org/2000/svg" id="provinceCOA212" width="200" height="200" viewBox="0 10 200 200">
        <defs><clipPath id="spanish_provinceCOA212"><path d="m25,25 h150 v100 a75,75,0,0,1,-150,0 z"></path></clipPath><clipPath id="divisionClip_provinceCOA212"><polygon points="0,0 200,200 0,200"></polygon></clipPath><g id="hatchet_provinceCOA212" stroke-width=".615"><path d="M114.4 137.8c0 2.5 9.5 2.5 9.5 0l-.3-65.4c0-2.5-9-2.5-9-.1z"></path><path d="M124.2 75.2c0-3-7.3-3-9.4-1.4-.5.4-.6 1-1.1 1.4-.6.3-4.3.3-5.4.3-11.1 0-23.9-13.3-26.4-14.8 0 0-6.4 10.4-6.4 29.6a72.4 72.4 0 0014.3 41.4s5.6-2.6 6.8-8.8c.9-4.1.5-9.9 1.5-14 2-8 10.6-8.8 10.6-8.8 0-.3-1.6-4-1.6-6.9 0-3.3 3.2-3.8 4.8-2.5.5.4.8 1.5.9 2.3v3.4c0 3 9.5 3 11.4 1.1V75.2z"></path><path fill="#000" stroke="none" d="M83.5 68.7c-2.9 19.6-3.6 34.2 7.1 56-10.2-14.6-11.8-41.2-7.1-56zm30.7 8c.3 5.7.5 11.6 0 17.4-.3-5.3-.5-11.7 0-17.3z" opacity=".6"></path></g><g id="mullet6_provinceCOA212"><polygon points="100 60 107.64 86.77 134.64 80 115.28 100 134.64 120 107.64 113.23 100 140 92.36 113.23 65.36 120 84.72 100 65.36 80 92.36 86.77"></polygon></g><g id="sword_provinceCOA212" stroke-width=".28"><path d="M96.6 118.8L98 69.2c0-1.8.7-9.2 2-9.2 1.2 0 2 7.4 2 9.2l1.4 49.6z"></path><path d="M98.5 133.8L97 120h5.8l-1.3 13.8z"></path><path d="M100 120.9c4.2 0 8.2-.2 12.4-.6l-.8-3.2c-2 .4-3.5 1.3-5.4 1.5-2 .3-4.7-.3-6.2-.6-1.5.3-4.1.9-6.2.6-2-.2-3.5-1-5.4-1.5l-.8 3.2c4.2.4 8.2.6 12.4.6zm0 19.1c2 0 3.6-1.5 3.6-3.5 0-1.5-1-2.7-2.2-3.3-.4.2-1 .3-1.6.3-.5 0-1 0-1.3-.2-1.2.6-2 1.8-2 3.2 0 2 1.5 3.5 3.5 3.5z"></path><g fill="none"><path d="M99 118.25s.4-39.35.9-39.35.9 39.35.9 39.35"></path><path d="M102.7 121.4c-.3.6-1.5.85-2.7.8-1.2-.05-2.4-.2-2.7-.8m5.1 2.5c-.2.5-1.3.7-2.4.7-1 0-2.2-.3-2.4-.7m4.6 2.3c-.2.4-1.2.6-2.2.6s-2-.2-2.2-.6m4.2 2.3c-.2.4-1 .6-2 .6-.9 0-1.8-.2-2-.6m3.7 2.3c-.2.4-1 .5-1.7.5s-1.5-.1-1.7-.5"></path><path d="M97.6 137.1a2.4 2.4 0 014.8 0c0 1.3-1 2.3-2.4 2.3-1.3 0-2.4-1-2.4-2.3z"></path><path d="M100 118v2.9"></path></g></g><pattern id="chequy-sable-argent" width="0.25" height="0.25" viewBox="0 0 50 50" fill="#fafafa"><rect width="50" height="50"></rect><rect width="25" height="25" fill="#333333"></rect><rect x="25" y="25" width="25" height="25" fill="#333333"></rect></pattern><radialGradient id="backlight_provinceCOA212" cx="100%" cy="100%" r="150%"><stop stop-color="#fff" stop-opacity=".3" offset="0"></stop><stop stop-color="#fff" stop-opacity=".15" offset=".25"></stop><stop stop-color="#000" stop-opacity="0" offset="1"></stop></radialGradient></defs>
        <g clip-path="url(#spanish_provinceCOA212)"><rect x="0" y="0" width="200" height="200" fill="#d7374a"></rect><g clip-path="url(#divisionClip_provinceCOA212)"><rect x="0" y="0" width="200" height="200" fill="url(#chequy-sable-argent)"></rect></g><g fill="#ffe066" stroke="none"><rect width="37.5%" height="37.5%"></rect></g><g fill="#ffe066" stroke="#000"><use href="#hatchet_provinceCOA212" transform="translate(67.5 -7.4999999999999964) scale(0.7)"></use></g><g fill="#ffe066" stroke="#000"><use href="#mullet6_provinceCOA212" transform="translate(-7.4999999999999964 67.5) scale(0.7)"></use></g><g fill="#522d5b" stroke="#000"><use href="#sword_provinceCOA212" transform="translate(0 0) scale(0.5)"></use></g></g>
        <path d="m25,25 h150 v100 a75,75,0,0,1,-150,0 z" fill="url(#backlight_provinceCOA212)" stroke="#333"></path></svg>