<svg xmlns="http://www.w3.org/2000/svg" id="provinceCOA157" width="200" height="200" viewBox="0 0 200 200">
        <defs><clipPath id="pavise_provinceCOA157"><path d="M95 7L39.9 37.3a10 10 0 00-5.1 9.5L46 180c.4 5.2 3.7 10 9 10h90c5.3 0 9.6-4.8 10-10l10.6-133.2a10 10 0 00-5-9.5L105 7c-4.2-2.3-6.2-2.3-10 0z"></path></clipPath><g id="crosslet_provinceCOA157" stroke-width=".5"><path d="M95 60h10v10h12v10h-12v15h15V83h10v12h10v10h-10v12h-10v-12h-15v15h12v10h-12v10H95v-10H83v-10h12v-15H80v12H70v-12H60V95h10V83h10v12h15V80H83V70h12z"></path></g><pattern id="fretty-sable-or" width="0.2" height="0.2" viewBox="0 0 140 140" stroke="#000" stroke-width="2"><rect width="140" height="140" fill="#333333" stroke="none"></rect><path d="m-15 5 150 150 20-20-150-150z" fill="#ffe066"></path><path d="m10 150 140-140-20-20-140 140z" fill="#ffe066" stroke="none"></path><path d="m0 120 20 20 120-120-20-20z" fill="none"></path></pattern><radialGradient id="backlight_provinceCOA157" cx="100%" cy="100%" r="150%"><stop stop-color="#fff" stop-opacity=".3" offset="0"></stop><stop stop-color="#fff" stop-opacity=".15" offset=".25"></stop><stop stop-color="#000" stop-opacity="0" offset="1"></stop></radialGradient></defs>
        <g clip-path="url(#pavise_provinceCOA157)"><rect x="0" y="0" width="200" height="200" fill="url(#fretty-sable-or)"></rect><g fill="#ffe066" stroke="#000"><use href="#crosslet_provinceCOA157" transform="translate(-35.00000000000001 -35.00000000000001) scale(1.35)"></use></g></g>
        <path d="M95 7L39.9 37.3a10 10 0 00-5.1 9.5L46 180c.4 5.2 3.7 10 9 10h90c5.3 0 9.6-4.8 10-10l10.6-133.2a10 10 0 00-5-9.5L105 7c-4.2-2.3-6.2-2.3-10 0z" fill="url(#backlight_provinceCOA157)" stroke="#333"></path></svg>