<svg xmlns="http://www.w3.org/2000/svg" id="provinceCOA170" width="200" height="200" viewBox="0 10 200 200">
        <defs><clipPath id="heater_provinceCOA170"><path d="m25,25 h150 v50 a150,150,0,0,1,-75,125 a150,150,0,0,1,-75,-125 z"></path></clipPath><clipPath id="divisionClip_provinceCOA170"><rect x="100" y="0" width="100" height="200"></rect></clipPath><pattern id="barry-argent-vert" width="0.125" height="0.5" viewBox="0 0 25 100"><rect width="25" height="100" fill="#26c061"></rect><rect x="0" y="25" width="25" height="25" fill="#fafafa"></rect><rect x="0" y="75" width="25" height="25" fill="#fafafa"></rect></pattern><radialGradient id="backlight_provinceCOA170" cx="100%" cy="100%" r="150%"><stop stop-color="#fff" stop-opacity=".3" offset="0"></stop><stop stop-color="#fff" stop-opacity=".15" offset=".25"></stop><stop stop-color="#000" stop-opacity="0" offset="1"></stop></radialGradient></defs>
        <g clip-path="url(#heater_provinceCOA170)"><rect x="0" y="0" width="200" height="200" fill="url(#barry-argent-vert)"></rect><g clip-path="url(#divisionClip_provinceCOA170)"><rect x="0" y="0" width="200" height="200" fill="#d7374a"></rect></g><g fill="#377cd7" stroke="none"><path d="M0,200 Q80,180 100,135 Q120,180 200,200"></path></g></g>
        <path d="m25,25 h150 v50 a150,150,0,0,1,-75,125 a150,150,0,0,1,-75,-125 z" fill="url(#backlight_provinceCOA170)" stroke="#333"></path></svg>