<svg xmlns="http://www.w3.org/2000/svg" id="provinceCOA166" width="200" height="200" viewBox="0 10 200 200">
        <defs><clipPath id="heater_provinceCOA166"><path d="m25,25 h150 v50 a150,150,0,0,1,-75,125 a150,150,0,0,1,-75,-125 z"></path></clipPath><clipPath id="divisionClip_provinceCOA166"><polygon points="0,0 200,200 0,200"></polygon></clipPath><g id="sunInSplendour_provinceCOA166" stroke-width=".5"><path d="M84.7 63c-1 3.9.1 7.1 2 10.1 1.5 2.3 2.4 4.8 2.4 7.5-.7.4-1.3.8-1.9 1.2L71.8 71.7l10.4 15.2c-.2.3-.4.5-.5.8-2.9-1.3-5.7-1.6-8.3-1.1-3.7.7-6.9-.1-10.2-2 2.1 3.5 5.1 5 8.6 5.7 2.7.6 5.1 1.7 7 3.6-.2.7-.4 1.5-.5 2.2l-18.1 3.7 18.1 3.5c0 .3.1.6.2.9-3 1.1-5.2 2.9-6.6 5.1-2.1 3.1-4.9 4.8-8.6 5.8 3.9 1 7.1-.1 10.1-2 2.3-1.5 4.8-2.4 7.5-2.4.4.7.8 1.3 1.2 1.9l-10.3 15.5 15.3-10.4c.3.2.5.4.8.5-1.3 2.9-1.6 5.7-1.1 8.3.7 3.7-.1 6.8-2 10.1 3.5-2.1 5-5.1 5.7-8.6.6-2.7 1.7-5.1 3.6-7 .7.2 1.5.4 2.2.5l3.7 18.1 3.5-18.1c.3 0 .6-.1.9-.2 1.1 3 2.9 5.2 5.1 6.6 3.1 2.1 4.8 4.9 5.8 8.6 1-3.9-.1-7.1-2-10.1-1.5-2.3-2.4-4.8-2.4-7.5.7-.4 1.3-.8 1.9-1.2l15.4 10.2-10.4-15.3c.2-.3.4-.5.5-.8 2.9 1.3 5.7 1.6 8.3 1.1 3.7-.7 6.8.1 10.1 2-2.1-3.5-5.1-4.9-8.6-5.7-2.7-.6-5.1-1.7-7-3.6.2-.7.4-1.5.5-2.2l18.1-3.7-18.1-3.5c0-.3-.1-.6-.2-.9 3-1.1 5.2-2.9 6.6-5.1 2.1-3.1 4.9-4.8 8.6-5.7-3.9-1-7.1.1-10.1 2-2.3 1.5-4.8 2.4-7.5 2.4-.4-.7-.8-1.3-1.2-1.9L128 71.6l-15.3 10.3c-.3-.2-.5-.4-.8-.5 1.3-2.9 1.6-5.7 1.1-8.3-.7-3.7.1-6.9 2-10.2-3.5 2.1-4.9 5.1-5.7 8.6-.6 2.7-1.7 5.2-3.7 7-.7-.2-1.5-.4-2.2-.5L100 60l-3.5 18.1c-.3 0-.6.1-.9.2-1.1-3-2.9-5.2-5.1-6.6-3.1-2.1-4.8-4.9-5.7-8.6z"></path><g fill="#000" stroke="none"><path d="M96.2 110.6c2.4 1.9 4.2 2.1 6.6-.1-2.5-2.1-4-2.3-6.6.1z"></path><path d="M90.4 100.4c.5-1.6-1.3-2.1-1.9-.9l-1-.5c2.1-2.4 4.5-2.6 6.9-1.4.8.2.8 1.3-1.1 1.5-1.2-.4.2 2.3-2.8 1.2z"></path><path d="M89.3 95.1c1.8 0 3.4-1 5.8.8.4-1-2.9-2.8-5.8-.8z"></path><path d="M103.3 96.1c1.7-.6 2.9-2 5.8-1.1.1-1.1-3.7-1.7-5.8 1.1z"></path><path d="M106 99.2c-.5-.6-1.1-.3-1.6-.2-.7-1.8 1.1-1.5 2-1.9 2.5-.3 3 .9 4.7 1.6l-2.1.3c-.3 2.5-2.8 1.5-3 .2z"></path><path d="M101.2 105.7c1.2-.1 1.8 1.3.5 1.7-1.9 0-1.6-1-.5-1.7z"></path><path d="M98 105.8c1.2-.1 1.8 1.3.5 1.7-1.9 0-1.6-1-.5-1.7z"></path></g></g><radialGradient id="backlight_provinceCOA166" cx="100%" cy="100%" r="150%"><stop stop-color="#fff" stop-opacity=".3" offset="0"></stop><stop stop-color="#fff" stop-opacity=".15" offset=".25"></stop><stop stop-color="#000" stop-opacity="0" offset="1"></stop></radialGradient></defs>
        <g clip-path="url(#heater_provinceCOA166)"><rect x="0" y="0" width="200" height="200" fill="#fafafa"></rect><g fill="#333333" stroke="#000"><use href="#sunInSplendour_provinceCOA166" transform="translate(-50 -50) scale(1.5)"></use></g><g clip-path="url(#divisionClip_provinceCOA166)"><rect x="0" y="0" width="200" height="200" fill="#333333"></rect><g fill="#fafafa" stroke="#000"><use href="#sunInSplendour_provinceCOA166" transform="translate(-50 -50) scale(1.5)"></use></g></g></g>
        <path d="m25,25 h150 v50 a150,150,0,0,1,-75,125 a150,150,0,0,1,-75,-125 z" fill="url(#backlight_provinceCOA166)" stroke="#333"></path></svg>