<svg xmlns="http://www.w3.org/2000/svg" id="provinceCOA206" width="200" height="200" viewBox="0 0 200 200">
        <defs><clipPath id="round_provinceCOA206"><path d="m 185,100 a 85,85 0 0 1 -85,85 85,85 0 0 1 -85,-85 85,85 0 0 1 85,-85 85,85 0 0 1 85,85"></path></clipPath><g id="roundel2_provinceCOA206"><circle cx="100" cy="100" r="30"></circle><path fill="none" stroke-width=".5" d="M124 95a23 23 0 01-25 30"></path></g><radialGradient id="backlight_provinceCOA206" cx="100%" cy="100%" r="150%"><stop stop-color="#fff" stop-opacity=".3" offset="0"></stop><stop stop-color="#fff" stop-opacity=".15" offset=".25"></stop><stop stop-color="#000" stop-opacity="0" offset="1"></stop></radialGradient></defs>
        <g clip-path="url(#round_provinceCOA206)"><rect x="0" y="0" width="200" height="200" fill="#ffe066"></rect><g fill="#377cd7" stroke="none"><path d="m 200,90 -5,5 v 10 l -5,5 -5,-5 V 95 l -5,-5 -5,5 v 10 l -5,5 -5,-5 V 95 l -5,-5 -5,5 v 10 l -5,5 -5,-5 V 95 l -5,-5 -5,5 v 10 l -5,6 -5,-6 V 95 l -5,-5 -5,5 v 10 l -5,5 -5,-5 V 95 l -5,-5 -5,5 v 10 l -5,5 -5,-5 V 95 l -5,-5 -5,5 v 10 l -5,6 -5,-6 V 95 l -5,-5 -5,5 v 10 l -5,5 -5,-5 V 95 l -5,-5 -5,5 v 10 l -5,5 -5,-5 V 95 l -5,-5 -5,5 v 10 l -5,5 -5,-5 V 95 L 0,90 v 25 h 200" transform="translate(-28 -18) rotate(-45 110 100) scale(1.1 1)"></path><path d="m 200,90 -5,5 v 10 l -5,5 -5,-5 V 95 l -5,-5 -5,5 v 10 l -5,5 -5,-5 V 95 l -5,-5 -5,5 v 10 l -5,5 -5,-5 V 95 l -5,-5 -5,5 v 10 l -5,6 -5,-6 V 95 l -5,-5 -5,5 v 10 l -5,5 -5,-5 V 95 l -5,-5 -5,5 v 10 l -5,5 -5,-5 V 95 l -5,-5 -5,5 v 10 l -5,6 -5,-6 V 95 l -5,-5 -5,5 v 10 l -5,5 -5,-5 V 95 l -5,-5 -5,5 v 10 l -5,5 -5,-5 V 95 l -5,-5 -5,5 v 10 l -5,5 -5,-5 V 95 L 0,90 v 25 h 200" transform="translate(8 18) rotate(-225 110 100) scale(1.1 1)"></path><rect x="0" y="88" width="200" height="24" transform="translate(-10 0) rotate(-45 110 100) scale(1.1 1)" stroke="none"></rect></g><g fill="#d7374a" stroke="#000"><use href="#roundel2_provinceCOA206" transform="translate(-50 -50) scale(1.5)"></use></g></g>
        <path d="m 185,100 a 85,85 0 0 1 -85,85 85,85 0 0 1 -85,-85 85,85 0 0 1 85,-85 85,85 0 0 1 85,85" fill="url(#backlight_provinceCOA206)" stroke="#333"></path></svg>