<svg xmlns="http://www.w3.org/2000/svg" id="provinceCOA211" width="200" height="200" viewBox="0 0 200 200">
        <defs><clipPath id="boeotian_provinceCOA211"><path d="M150 115c-5 0-10-5-10-15s5-15 10-15c10 0 7 10 15 10 10 0 0-30 0-30-10-25-30-55-65-55S45 40 35 65c0 0-10 30 0 30 8 0 5-10 15-10 5 0 10 5 10 15s-5 15-10 15c-10 0-7-10-15-10-10 0 0 30 0 30 10 25 30 55 65 55s55-30 65-55c0 0 10-30 0-30-8 0-5 10-15 10z"></path></clipPath><clipPath id="divisionClip_provinceCOA211"><rect x="100" y="0" width="100" height="200"></rect></clipPath><g id="crossCeltic_provinceCOA211" stroke-width=".5"><path d="m 95,60 v 7 C 80,70 70,80 67,95 h -7 v 10 h 7 c 3,15 13,25 28,28 v 7 h 10 v -7 c 15,-3 25,-13 28,-28 h 7 V 95 h -7 C 130,80 120,70 105,67 v -7 z m 0,15 V 95 H 75 C 77,85 85,77 95,75 Z m 10,0 c 10,2 18,10 20,20 h -20 z m -30,30 h 20 v 20 C 85,123 77,115 75,105 Z m 30,0 h 20 c -2,10 -10,18 -20,20 z"></path></g><g id="sword_provinceCOA211" stroke-width=".28"><path d="M96.6 118.8L98 69.2c0-1.8.7-9.2 2-9.2 1.2 0 2 7.4 2 9.2l1.4 49.6z"></path><path d="M98.5 133.8L97 120h5.8l-1.3 13.8z"></path><path d="M100 120.9c4.2 0 8.2-.2 12.4-.6l-.8-3.2c-2 .4-3.5 1.3-5.4 1.5-2 .3-4.7-.3-6.2-.6-1.5.3-4.1.9-6.2.6-2-.2-3.5-1-5.4-1.5l-.8 3.2c4.2.4 8.2.6 12.4.6zm0 19.1c2 0 3.6-1.5 3.6-3.5 0-1.5-1-2.7-2.2-3.3-.4.2-1 .3-1.6.3-.5 0-1 0-1.3-.2-1.2.6-2 1.8-2 3.2 0 2 1.5 3.5 3.5 3.5z"></path><g fill="none"><path d="M99 118.25s.4-39.35.9-39.35.9 39.35.9 39.35"></path><path d="M102.7 121.4c-.3.6-1.5.85-2.7.8-1.2-.05-2.4-.2-2.7-.8m5.1 2.5c-.2.5-1.3.7-2.4.7-1 0-2.2-.3-2.4-.7m4.6 2.3c-.2.4-1.2.6-2.2.6s-2-.2-2.2-.6m4.2 2.3c-.2.4-1 .6-2 .6-.9 0-1.8-.2-2-.6m3.7 2.3c-.2.4-1 .5-1.7.5s-1.5-.1-1.7-.5"></path><path d="M97.6 137.1a2.4 2.4 0 014.8 0c0 1.3-1 2.3-2.4 2.3-1.3 0-2.4-1-2.4-2.3z"></path><path d="M100 118v2.9"></path></g></g><radialGradient id="backlight_provinceCOA211" cx="100%" cy="100%" r="150%"><stop stop-color="#fff" stop-opacity=".3" offset="0"></stop><stop stop-color="#fff" stop-opacity=".15" offset=".25"></stop><stop stop-color="#000" stop-opacity="0" offset="1"></stop></radialGradient></defs>
        <g clip-path="url(#boeotian_provinceCOA211)"><rect x="0" y="0" width="200" height="200" fill="#d7374a"></rect><g clip-path="url(#divisionClip_provinceCOA211)"><rect x="0" y="0" width="200" height="200" fill="#fafafa"></rect></g><g fill="#ffe066" stroke="none"><rect width="37.5%" height="37.5%"></rect></g><g fill="#ffe066" stroke="#000"><use href="#crossCeltic_provinceCOA211" transform="translate(27.500000000000007 47.50000000000001) scale(0.5249999999999999)"></use></g><g fill="#333333" stroke="#000"><use href="#sword_provinceCOA211" transform="translate(67.5 47.50000000000001) scale(0.5249999999999999)"></use></g><g fill="#522d5b" stroke="#000"><use href="#sword_provinceCOA211" transform="translate(14.5 14.5) scale(0.375)"></use></g></g>
        <path d="M150 115c-5 0-10-5-10-15s5-15 10-15c10 0 7 10 15 10 10 0 0-30 0-30-10-25-30-55-65-55S45 40 35 65c0 0-10 30 0 30 8 0 5-10 15-10 5 0 10 5 10 15s-5 15-10 15c-10 0-7-10-15-10-10 0 0 30 0 30 10 25 30 55 65 55s55-30 65-55c0 0 10-30 0-30-8 0-5 10-15 10z" fill="url(#backlight_provinceCOA211)" stroke="#333"></path></svg>