<svg xmlns="http://www.w3.org/2000/svg" id="provinceCOA197" width="200" height="200" viewBox="0 5 200 200">
        <defs><clipPath id="renaissance_provinceCOA197"><path d="M 25,33.9 C 33.4,50.3 36.2,72.9 36.2,81.7 36.2,109.9 25,122.6 25,141 c 0,29.4 24.9,44.1 40.2,47.7 15.3,3.7 29.3,0 34.8,11.3 5.5,-11.3 19.6,-7.6 34.8,-11.3 C 150.1,185 175,170.3 175,141 c 0,-18.4 -11.2,-31.1 -11.2,-59.3 0,-8.8 2.8,-31.3 11.2,-47.7 L 155.7,14.4 C 138.2,21.8 119.3,25.7 100,25.7 c -19.3,0 -38.2,-3.9 -55.7,-11.3 z"></path></clipPath><clipPath id="divisionClip_provinceCOA197"><polygon points="0,200 100,100 200,200"></polygon></clipPath><pattern id="counterPotent-argent-vert" width="0.125" height="0.125" viewBox="0 0 200 200" stroke="none"><rect width="200" height="200" fill="#fafafa"></rect><path d="m25 50h50v-50h50v50h50v100h-50v50h-50v-50h-50v-50z" fill="#26c061"></path><path d="m0 0h200 M0 100h200 M0 200h200"></path></pattern><radialGradient id="backlight_provinceCOA197" cx="100%" cy="100%" r="150%"><stop stop-color="#fff" stop-opacity=".3" offset="0"></stop><stop stop-color="#fff" stop-opacity=".15" offset=".25"></stop><stop stop-color="#000" stop-opacity="0" offset="1"></stop></radialGradient></defs>
        <g clip-path="url(#renaissance_provinceCOA197)"><rect x="0" y="0" width="200" height="200" fill="url(#counterPotent-argent-vert)"></rect><g clip-path="url(#divisionClip_provinceCOA197)"><rect x="0" y="0" width="200" height="200" fill="#d7374a"></rect></g></g>
        <path d="M 25,33.9 C 33.4,50.3 36.2,72.9 36.2,81.7 36.2,109.9 25,122.6 25,141 c 0,29.4 24.9,44.1 40.2,47.7 15.3,3.7 29.3,0 34.8,11.3 5.5,-11.3 19.6,-7.6 34.8,-11.3 C 150.1,185 175,170.3 175,141 c 0,-18.4 -11.2,-31.1 -11.2,-59.3 0,-8.8 2.8,-31.3 11.2,-47.7 L 155.7,14.4 C 138.2,21.8 119.3,25.7 100,25.7 c -19.3,0 -38.2,-3.9 -55.7,-11.3 z" fill="url(#backlight_provinceCOA197)" stroke="#333"></path></svg>