<svg xmlns="http://www.w3.org/2000/svg" id="provinceCOA69" width="200" height="200" viewBox="0 0 200 200">
        <defs><clipPath id="pavise_provinceCOA69"><path d="M95 7L39.9 37.3a10 10 0 00-5.1 9.5L46 180c.4 5.2 3.7 10 9 10h90c5.3 0 9.6-4.8 10-10l10.6-133.2a10 10 0 00-5-9.5L105 7c-4.2-2.3-6.2-2.3-10 0z"></path></clipPath><g id="crossTau_provinceCOA69" stroke-width=".5">
    <path d="M83.1 140c13.2-23.1 9.8-58.2 9.8-58.2-12-1.7-32.9 8.5-32.9 8.5s7.1-12.7 7.1-30.3c16 10.1 49.8 10.1 65.8 0 0 17.6 7.1 30.3 7.1 30.3s-20.9-10.2-32.9-8.5c0 0-3.4 35.1 9.9 58.2-11.4-5.3-24-4.8-33.9 0z"></path>
  </g><pattern id="counterPotent-argent-vert" width="0.125" height="0.125" viewBox="0 0 200 200" stroke="none"><rect width="200" height="200" fill="#fafafa"></rect><path d="m25 50h50v-50h50v50h50v100h-50v50h-50v-50h-50v-50z" fill="#26c061"></path><path d="m0 0h200 M0 100h200 M0 200h200"></path></pattern><radialGradient id="backlight_provinceCOA69" cx="100%" cy="100%" r="150%"><stop stop-color="#fff" stop-opacity=".3" offset="0"></stop><stop stop-color="#fff" stop-opacity=".15" offset=".25"></stop><stop stop-color="#000" stop-opacity="0" offset="1"></stop></radialGradient></defs>
        <g clip-path="url(#pavise_provinceCOA69)"><rect x="0" y="0" width="200" height="200" fill="url(#counterPotent-argent-vert)"></rect><g fill="#26c061" stroke="#000"><use href="#crossTau_provinceCOA69" transform="translate(-35.00000000000001 -35.00000000000001) scale(1.35)"></use></g></g>
        <path d="M95 7L39.9 37.3a10 10 0 00-5.1 9.5L46 180c.4 5.2 3.7 10 9 10h90c5.3 0 9.6-4.8 10-10l10.6-133.2a10 10 0 00-5-9.5L105 7c-4.2-2.3-6.2-2.3-10 0z" fill="url(#backlight_provinceCOA69)" stroke="#333"></path></svg>