<svg xmlns="http://www.w3.org/2000/svg" id="provinceCOA8" width="200" height="200" viewBox="0 0 200 200">
        <defs><clipPath id="pavise_provinceCOA8"><path d="M95 7L39.9 37.3a10 10 0 00-5.1 9.5L46 180c.4 5.2 3.7 10 9 10h90c5.3 0 9.6-4.8 10-10l10.6-133.2a10 10 0 00-5-9.5L105 7c-4.2-2.3-6.2-2.3-10 0z"></path></clipPath><clipPath id="divisionClip_provinceCOA8"><rect x="100" y="0" width="100" height="200"></rect></clipPath><radialGradient id="backlight_provinceCOA8" cx="100%" cy="100%" r="150%"><stop stop-color="#fff" stop-opacity=".3" offset="0"></stop><stop stop-color="#fff" stop-opacity=".15" offset=".25"></stop><stop stop-color="#000" stop-opacity="0" offset="1"></stop></radialGradient></defs>
        <g clip-path="url(#pavise_provinceCOA8)"><rect x="0" y="0" width="200" height="200" fill="#522d5b"></rect><g clip-path="url(#divisionClip_provinceCOA8)"><rect x="0" y="0" width="200" height="200" fill="#fafafa"></rect></g><g fill="#ffe066" stroke="none"><path d="M15,0 100,200 60,0Z M80,0 100,200 120,0Z M140,0 100,200 185,0Z"></path></g></g>
        <path d="M95 7L39.9 37.3a10 10 0 00-5.1 9.5L46 180c.4 5.2 3.7 10 9 10h90c5.3 0 9.6-4.8 10-10l10.6-133.2a10 10 0 00-5-9.5L105 7c-4.2-2.3-6.2-2.3-10 0z" fill="url(#backlight_provinceCOA8)" stroke="#333"></path></svg>