<svg xmlns="http://www.w3.org/2000/svg" id="provinceCOA203" width="200" height="200" viewBox="0 0 200 200">
        <defs><clipPath id="round_provinceCOA203"><path d="m 185,100 a 85,85 0 0 1 -85,85 85,85 0 0 1 -85,-85 85,85 0 0 1 85,-85 85,85 0 0 1 85,85"></path></clipPath><g id="billet_provinceCOA203"><polygon points="80 65 120 65 120 135 80 135"></polygon></g><radialGradient id="backlight_provinceCOA203" cx="100%" cy="100%" r="150%"><stop stop-color="#fff" stop-opacity=".3" offset="0"></stop><stop stop-color="#fff" stop-opacity=".15" offset=".25"></stop><stop stop-color="#000" stop-opacity="0" offset="1"></stop></radialGradient></defs>
        <g clip-path="url(#round_provinceCOA203)"><rect x="0" y="0" width="200" height="200" fill="#ffe066"></rect><g fill="#26c061" stroke="#000"><use href="#billet_provinceCOA203" transform="translate(-50 -50) scale(1.5)"></use></g></g>
        <path d="m 185,100 a 85,85 0 0 1 -85,85 85,85 0 0 1 -85,-85 85,85 0 0 1 85,-85 85,85 0 0 1 85,85" fill="url(#backlight_provinceCOA203)" stroke="#333"></path></svg>