<svg xmlns="http://www.w3.org/2000/svg" id="provinceCOA76" width="200" height="200" viewBox="0 0 200 200">
        <defs><clipPath id="boeotian_provinceCOA76"><path d="M150 115c-5 0-10-5-10-15s5-15 10-15c10 0 7 10 15 10 10 0 0-30 0-30-10-25-30-55-65-55S45 40 35 65c0 0-10 30 0 30 8 0 5-10 15-10 5 0 10 5 10 15s-5 15-10 15c-10 0-7-10-15-10-10 0 0 30 0 30 10 25 30 55 65 55s55-30 65-55c0 0 10-30 0-30-8 0-5 10-15 10z"></path></clipPath><clipPath id="divisionClip_provinceCOA76"><polygon points="0,0 200,200 200,100 0,100"></polygon><polygon points="200,0 0,200 100,200 100,0"></polygon></clipPath><pattern id="masoned-argent-sable" width="0.125" height="0.125" viewBox="0 0 100 100" fill="none"><rect width="100" height="100" fill="#fafafa"></rect><rect width="100" height="50" stroke="#333333" stroke-width="4"></rect><line x1="50" y1="50" x2="50" y2="100" stroke="#333333" stroke-width="5"></line></pattern><radialGradient id="backlight_provinceCOA76" cx="100%" cy="100%" r="150%"><stop stop-color="#fff" stop-opacity=".3" offset="0"></stop><stop stop-color="#fff" stop-opacity=".15" offset=".25"></stop><stop stop-color="#000" stop-opacity="0" offset="1"></stop></radialGradient></defs>
        <g clip-path="url(#boeotian_provinceCOA76)"><rect x="0" y="0" width="200" height="200" fill="url(#masoned-argent-sable)"></rect><g clip-path="url(#divisionClip_provinceCOA76)"><rect x="0" y="0" width="200" height="200" fill="#377cd7"></rect></g><g fill="#522d5b" stroke="none"><path d="M15,0 100,200 60,0Z M80,0 100,200 120,0Z M140,0 100,200 185,0Z"></path></g></g>
        <path d="M150 115c-5 0-10-5-10-15s5-15 10-15c10 0 7 10 15 10 10 0 0-30 0-30-10-25-30-55-65-55S45 40 35 65c0 0-10 30 0 30 8 0 5-10 15-10 5 0 10 5 10 15s-5 15-10 15c-10 0-7-10-15-10-10 0 0 30 0 30 10 25 30 55 65 55s55-30 65-55c0 0 10-30 0-30-8 0-5 10-15 10z" fill="url(#backlight_provinceCOA76)" stroke="#333"></path></svg>