<svg xmlns="http://www.w3.org/2000/svg" id="provinceCOA79" width="200" height="200" viewBox="0 10 200 200">
        <defs><clipPath id="spanish_provinceCOA79"><path d="m25,25 h150 v100 a75,75,0,0,1,-150,0 z"></path></clipPath><clipPath id="divisionClip_provinceCOA79"><path d="M0,102.5 a6.25,6.25,0,0,1,12.5,0 a6.25,6.25,0,0,1,12.5,0 a6.25,6.25,0,0,1,12.5,0 a6.25,6.25,0,0,1,12.5,0 a6.25,6.25,0,0,1,12.5,0 a6.25,6.25,0,0,1,12.5,0 a6.25,6.25,0,0,1,12.5,0 a6.25,6.25,0,0,1,12.5,0 a6.25,6.25,0,0,1,12.5,0 a6.25,6.25,0,0,1,12.5,0 a6.25,6.25,0,0,1,12.5,0 a6.25,6.25,0,0,1,12.5,0 a6.25,6.25,0,0,1,12.5,0 a6.25,6.25,0,0,1,12.5,0 a6.25,6.25,0,0,1,12.5,0 a6.25,6.25,0,0,1,12.5,0 v12.5 H0 z" transform="rotate(-90 100 100)"></path><rect x="115" y="0" width="85" height="200" shape-rendering="crispedges"></rect></clipPath><g id="mullet4_provinceCOA79"><polygon points="100 60 109.9 90.1 140 100 109.9 109.9 100 140 90.1 109.9 60 100 90.1 90.1"></polygon></g><radialGradient id="backlight_provinceCOA79" cx="100%" cy="100%" r="150%"><stop stop-color="#fff" stop-opacity=".3" offset="0"></stop><stop stop-color="#fff" stop-opacity=".15" offset=".25"></stop><stop stop-color="#000" stop-opacity="0" offset="1"></stop></radialGradient></defs>
        <g clip-path="url(#spanish_provinceCOA79)"><rect x="0" y="0" width="200" height="200" fill="#377cd7"></rect><g fill="#fafafa" stroke="#000"><use href="#mullet4_provinceCOA79" transform="translate(-7.4999999999999964 -7.4999999999999964) scale(0.7)"></use><use href="#mullet4_provinceCOA79" transform="translate(67.5 -7.4999999999999964) scale(0.7)"></use></g><g clip-path="url(#divisionClip_provinceCOA79)"><rect x="0" y="0" width="200" height="200" fill="#fafafa"></rect><g fill="#377cd7" stroke="#000"><use href="#mullet4_provinceCOA79" transform="translate(-7.4999999999999964 -7.4999999999999964) scale(0.7)"></use><use href="#mullet4_provinceCOA79" transform="translate(67.5 -7.4999999999999964) scale(0.7)"></use></g></g></g>
        <path d="m25,25 h150 v100 a75,75,0,0,1,-150,0 z" fill="url(#backlight_provinceCOA79)" stroke="#333"></path></svg>