<svg xmlns="http://www.w3.org/2000/svg" id="provinceCOA15" width="200" height="200" viewBox="0 10 200 200">
        <defs><clipPath id="heater_provinceCOA15"><path d="m25,25 h150 v50 a150,150,0,0,1,-75,125 a150,150,0,0,1,-75,-125 z"></path></clipPath><g id="crossClechy_provinceCOA15" stroke-width=".5"><path d="M 96.9,103.1 C 97,112 92,122 87,127 c 5.2,2.3 11,8 13,15 2,-7 7.8,-12.7 13,-15 -5,-5 -10,-15 -9.9,-23.9 8.9,-0.1 19.9,4.9 24.9,9.9 2,-5 8,-11 15,-13 -7,-2 -13,-8 -15,-13 -5,5 -16,10 -24.9,9.9 C 103,88 108,78 113,73 108,71 102,65 100,58 98,65 92,71 87,73 92,78 97,88 96.9,96.9 88,97 78,92 73,87 c -2,5 -8,11 -15,13 7,2 13,8 15,13 7,-5 15,-10 23.9,-9.9 z"></path></g><pattern id="fretty-sable-or" width="0.2" height="0.2" viewBox="0 0 140 140" stroke="#000" stroke-width="2"><rect width="140" height="140" fill="#333333" stroke="none"></rect><path d="m-15 5 150 150 20-20-150-150z" fill="#ffe066"></path><path d="m10 150 140-140-20-20-140 140z" fill="#ffe066" stroke="none"></path><path d="m0 120 20 20 120-120-20-20z" fill="none"></path></pattern><radialGradient id="backlight_provinceCOA15" cx="100%" cy="100%" r="150%"><stop stop-color="#fff" stop-opacity=".3" offset="0"></stop><stop stop-color="#fff" stop-opacity=".15" offset=".25"></stop><stop stop-color="#000" stop-opacity="0" offset="1"></stop></radialGradient></defs>
        <g clip-path="url(#heater_provinceCOA15)"><rect x="0" y="0" width="200" height="200" fill="url(#fretty-sable-or)"></rect><g fill="#ffe066" stroke="none"><rect x="75" y="0" width="50" height="200"></rect></g><g fill="#522d5b" stroke="#000"><use href="#crossClechy_provinceCOA15" transform="translate(50 0) scale(0.5)"></use><use href="#crossClechy_provinceCOA15" transform="translate(50 50) scale(0.5)"></use><use href="#crossClechy_provinceCOA15" transform="translate(50 100) scale(0.5)"></use></g></g>
        <path d="m25,25 h150 v50 a150,150,0,0,1,-75,125 a150,150,0,0,1,-75,-125 z" fill="url(#backlight_provinceCOA15)" stroke="#333"></path></svg>