<svg xmlns="http://www.w3.org/2000/svg" id="provinceCOA1" width="200" height="200" viewBox="0 5 200 200">
        <defs><clipPath id="renaissance_provinceCOA1"><path d="M 25,33.9 C 33.4,50.3 36.2,72.9 36.2,81.7 36.2,109.9 25,122.6 25,141 c 0,29.4 24.9,44.1 40.2,47.7 15.3,3.7 29.3,0 34.8,11.3 5.5,-11.3 19.6,-7.6 34.8,-11.3 C 150.1,185 175,170.3 175,141 c 0,-18.4 -11.2,-31.1 -11.2,-59.3 0,-8.8 2.8,-31.3 11.2,-47.7 L 155.7,14.4 C 138.2,21.8 119.3,25.7 100,25.7 c -19.3,0 -38.2,-3.9 -55.7,-11.3 z"></path></clipPath><g id="inescutcheon_provinceCOA1"><path transform="translate(66 66) scale(.34)" d="M 25,33.9 C 33.4,50.3 36.2,72.9 36.2,81.7 36.2,109.9 25,122.6 25,141 c 0,29.4 24.9,44.1 40.2,47.7 15.3,3.7 29.3,0 34.8,11.3 5.5,-11.3 19.6,-7.6 34.8,-11.3 C 150.1,185 175,170.3 175,141 c 0,-18.4 -11.2,-31.1 -11.2,-59.3 0,-8.8 2.8,-31.3 11.2,-47.7 L 155.7,14.4 C 138.2,21.8 119.3,25.7 100,25.7 c -19.3,0 -38.2,-3.9 -55.7,-11.3 z"></path></g><g id="crossOccitan_provinceCOA1" stroke-width=".5"><path d="M100 60a3 3 0 00-3 3 3 3 0 001.8 2.7c-1.9 2.4-5.9 6.4-12.7 7.4a3 3 0 000-.1 3 3 0 00-3-3 3 3 0 00-3 3 3 3 0 003 3 3 3 0 002.4-1.2 39 39 0 018.8 19.3A39 39 0 0175 85.3a3 3 0 001.2-2.4 3 3 0 00-3-3 3 3 0 00-3 3 3 3 0 003 3 3 3 0 00.1 0c-1.1 6.8-5 10.9-7.4 12.8a3 3 0 00-2.7-1.8 3 3 0 00-3 3 3 3 0 003 3 3 3 0 002.7-1.8c2.4 1.9 6.3 5.9 7.4 12.8a3 3 0 00-.1 0 3 3 0 00-3 3 3 3 0 003 3 3 3 0 003-3 3 3 0 00-1.2-2.4 39 39 0 0119.2-8.8 37.3 37.3 0 01-8.8 19.3 3 3 0 00-2.4-1.2 3 3 0 00-3 3 3 3 0 003 3 3 3 0 003-3 3 3 0 000-.1c6.8 1.1 10.8 5 12.7 7.4a3 3 0 00-1.8 2.7 3 3 0 003 3 3 3 0 003-3 3 3 0 00-1.8-2.8c1.9-2.4 5.9-6.4 12.7-7.4a3 3 0 000 .1 3 3 0 003 3 3 3 0 003-3 3 3 0 00-3-3 3 3 0 00-2.4 1.2 39 39 0 01-8.8-19.3 39 39 0 0119.2 8.8 3 3 0 00-1.2 2.4 3 3 0 003 3 3 3 0 003-3 3 3 0 00-3-3 3 3 0 00-.1 0c1.1-6.8 5-10.9 7.4-12.8a3 3 0 002.7 1.8 3 3 0 003-3 3 3 0 00-3-3 3 3 0 00-2.6 1.9c-2.4-1.9-6.3-5.9-7.4-12.8a3 3 0 00.1 0 3 3 0 003-3 3 3 0 00-3-3 3 3 0 00-3 3 3 3 0 001.2 2.4 39 39 0 01-19.2 8.8c1.4-10.1 6.7-17 8.8-19.3a3 3 0 002.4 1.2 3 3 0 003-3 3 3 0 00-3-3 3 3 0 00-3 3 3 3 0 000 .1c-6.8-1.1-10.8-5-12.7-7.4a3 3 0 001.7-2.7 3 3 0 00-2.9-3zm0 10c4.2 4.6 9 5.7 9 5.7-5.6 6.7-6.9 17.2-7.2 22.4 5.2-.3 15.6-1.6 22.3-7.2 0 0 1.1 4.7 5.6 9-4.6 4.3-5.6 9-5.6 9-6.7-5.7-17.1-6.9-22.3-7.2.3 5.2 1.6 15.7 7.2 22.4 0 0-4.7 1.1-9 5.7-4.2-4.6-9-5.7-9-5.7 5.6-6.7 6.9-17.2 7.2-22.4-5.2.3-15.6 1.6-22.3 7.2 0 0-1.1-4.7-5.6-9 4.6-4.3 5.6-9 5.6-9 6.7 5.7 17.1 6.9 22.3 7.2-.3-5.2-1.6-15.7-7.2-22.4 0 0 4.7-1.1 9-5.7z"></path></g><radialGradient id="backlight_provinceCOA1" cx="100%" cy="100%" r="150%"><stop stop-color="#fff" stop-opacity=".3" offset="0"></stop><stop stop-color="#fff" stop-opacity=".15" offset=".25"></stop><stop stop-color="#000" stop-opacity="0" offset="1"></stop></radialGradient></defs>
        <g clip-path="url(#renaissance_provinceCOA1)"><rect x="0" y="0" width="200" height="200" fill="#ffe066"></rect><g fill="#333333" stroke="#000"><use href="#inescutcheon_provinceCOA1" transform="translate(-50 -50) scale(1.5)"></use></g><g fill="#ffe066" stroke="#000"><use href="#crossOccitan_provinceCOA1" transform="translate(25 25) scale(0.75)"></use></g></g>
        <path d="M 25,33.9 C 33.4,50.3 36.2,72.9 36.2,81.7 36.2,109.9 25,122.6 25,141 c 0,29.4 24.9,44.1 40.2,47.7 15.3,3.7 29.3,0 34.8,11.3 5.5,-11.3 19.6,-7.6 34.8,-11.3 C 150.1,185 175,170.3 175,141 c 0,-18.4 -11.2,-31.1 -11.2,-59.3 0,-8.8 2.8,-31.3 11.2,-47.7 L 155.7,14.4 C 138.2,21.8 119.3,25.7 100,25.7 c -19.3,0 -38.2,-3.9 -55.7,-11.3 z" fill="url(#backlight_provinceCOA1)" stroke="#333"></path></svg>