<svg xmlns="http://www.w3.org/2000/svg" id="provinceCOA55" width="200" height="200" viewBox="0 0 200 200">
        <defs><clipPath id="boeotian_provinceCOA55"><path d="M150 115c-5 0-10-5-10-15s5-15 10-15c10 0 7 10 15 10 10 0 0-30 0-30-10-25-30-55-65-55S45 40 35 65c0 0-10 30 0 30 8 0 5-10 15-10 5 0 10 5 10 15s-5 15-10 15c-10 0-7-10-15-10-10 0 0 30 0 30 10 25 30 55 65 55s55-30 65-55c0 0 10-30 0-30-8 0-5 10-15 10z"></path></clipPath><g id="bearRampant_provinceCOA55" stroke-width=".3"><path d="M79.7 90.4s-1 2.1.2 3.3c0-1.8 1.3-2.6 1.3-2.6s-.2-.6-.6-.7c-.5-.3-1 0-1 0z"></path><path d="M79.5 90.3s-2.5.9-2 2.7c-.5-.4-.7-1-.6-1.8 0-1.2 1.2-2 1.2-2s.6-.2 1 .2c.2.1.4.9.4.9z"></path><path d="M77 87.5s-2 .7-2 2c0 1 .7 2 .7 2 .2-.2-.2-1 .2-1.7.4-.9 1.7-.7 1.7-.7"></path><path d="M76.9 85.5s-2 0-2.6 1.1c-.4 1 0 2.2 0 2.1.2 0 .2-.9.8-1.4.7-.7 1.8 0 1.8 0"></path><path d="M82.2 117.9s-2 1-2 2.6c1.2-1.3 2.7-1 2.7-1s.3-.7 0-1c-.2-.6-.7-.6-.7-.6z"></path><path d="M82.1 117.7s-2.4-1-3.2.7c-.2-.5 0-1 .6-1.7.8-.9 2.3-.8 2.3-.8s.5.3.6.8l-.3 1z"></path><path d="M82 114s-2-.8-2.8.1c-.7.7-.8 2-.6 2 .1 0 .4-.8 1.1-1.1 1-.4 1.8.6 1.8.6"></path><path d="M83.2 112.3s-1.5-1.3-2.6-.8c-1 .5-1.5 1.6-1.4 1.7.2 0 .7-.6 1.5-.7 1 0 1.5 1.2 1.5 1.2"></path><path d="M83.3 68.1s-2.2.5-2.4 2.2c1.3-1.1 2.8-.6 2.8-.6s.4-.5.2-1a.9.9 0 00-.6-.6z"></path><path d="M83.3 67.9s-2.3-1.4-3.4 0c0-.5.3-1 1-1.5 1-.7 2.4-.3 2.4-.3s.4.3.4.9c0 .3-.4.9-.4.9z"></path><path d="M83.8 64.2s-1.7-1.1-2.7-.4c-.8.6-1.2 1.8-1 1.8.1 0 .5-.7 1.3-.9 1-.2 1.6 1 1.6 1"></path><path d="M85.4 62.8s-1.2-1.6-2.5-1.3c-1 .3-1.7 1.3-1.6 1.4.1 0 .8-.5 1.6-.4 1 .2 1.2 1.4 1.2 1.4"></path><path d="M105.9 136.9s-.8 2.2.4 3.3c-.1-1.8 1.1-2.7 1.1-2.7s-.2-.6-.6-.7a.9.9 0 00-1 .1z"></path><path d="M105.7 136.8s-2.4 1-1.8 2.8c-.5-.3-.7-.8-.8-1.7 0-1.2 1.1-2.2 1.1-2.2s.6-.1 1 .2c.3.2.5 1 .5 1z"></path><path d="M103 134.2s-2 .8-1.9 2c0 1 .9 2.1 1 2 0-.1-.3-.9 0-1.6.3-1 1.6-.8 1.6-.8"></path><path d="M102.7 132.2s-2 0-2.4 1.3c-.4 1 0 2.2.2 2 0 0 0-.8.6-1.4.6-.7 1.8-.2 1.8-.2"></path><path d="M102.3 69s-1.1-.3-2.6 0c-1.5.2-2.3.9-3.1 1-.9.2-1.5 0-2-.1-.8-.4-.7-1-1-.8 0 .3.5 1.3 1 1.5a3.8 3.8 0 002.9.3c.8-.1 1.2-.5 2.2-.7h1.8"></path><path fill="#f2f2f2" stroke-width=".2" d="M96.7 67.8s.4 1 1.1 1.4V68"></path><path fill="#f2f2f2" stroke-width=".2" d="M100.4 70.8a3 3 0 01-.5-.4c-.2.3-.1.6 0 1m-.5.2a1.8 1.8 0 01-.5-.7c-.3.3-.2.8 0 1.1"></path><path d="M103 101.4c-1.3 0-6 0-8.3 1-2.4 1-4 3.7-4.7 6-.3 1.8 2 4 1.7 6-.3 1.7-.8 2-1.6 2.6-.6.5-2.4-.5-2.5-.8-.6-1.2-1.9-1.3-2.3-2-.1-.3-1.1-1-1.5-2-.2-1-1.4-1.1-1.7-.7 0 0 .3.3 0 1l-.3.7s-.7-.1-1 .3l.4.7v1c-.6 0-.6.2-.7.3s-.2.5-.1.6c.3-.1.7.1.9.5.3.7-.4.7.4 1.5.5-.2 1.4.3.8 1.3.2.5.7.7 1.2.9l1.3-.2c.5 0 1 .3 1.1.3 1.2.4 2.3 1.9 4 1.9.8 0 1.3 0 2.4-.2 1.3-.3 2.3.1 2.7-.2 1.9-1.8.9-2.7 2.7-5 .5-1 1.9-.9 4.5-2.2"></path><path d="M101.1 79.5c-.8-.5-1.3 0-2.7-1-.7-.6-1-1.5-1.6-2.1l-1.9-1.7c-2.2-2.1-2.5-3-3.2-4.2-.7-1-.6-.8-1.7-2a14 14 0 01-2.9-3.5c-.1-.3-1-1.2-1.1-2.2 0-1-1.2-1.4-1.5-1 0 0 .1.4-.2 1 0 .2-.5.6-.5.6s-.7-.3-1 .1c-.1.2.2.5.2.8 0 .3 0 .7-.2.9-.5 0-.5 0-.7.2-.2.1-.3.4-.2.5.3 0 .6.3.8.8.1.7-.5.6 0 1.5.6-.2 1.4.5.7 1.4 0 .5.4.8 1 1 .2.3.7.1 1.2.2s.7.5 1 .7c.4.4.8 1.9 1.6 2.6.7 1 2.3 6.8 3.7 8.6.8 1 2 3.5 2.8 4.3a5.2 5.2 0 003.3 1.5c1.7.2 3.5 0 5-.7 1.8-.7 3.5-1.9 5.4-2"></path><path d="M108.4 60.4s.2-.4.7-.5c.3 0 1-.1 1.7.2.6.3 1 1 1.2 1.2"></path><path d="M87.6 90.2c1.2 0 7 2.2 9.1 2 .7 3.7 7 4.6 6.2 11.6 0 .3-.4 1-.5 1.3-.3.4-.2.7-.4 1.1-1 .8-.3 1.8-.5 2.6-.1.6-1.2 1.2 0 1.3 0 .5-.8.7-.8 1 0 .2.1.6.5.5-.2 1-.3 1.4-.3 2.2 0 1 .1 2 .6 3 1 1.5.8 2 1.5 3.1.3 1.2.8 1.2 1.9 2.4l2.7 2.6c1.3 1.2 1.3 3.6 1.4 4l-.4 2c-.2.5-.6 1.1-.9 1-1.2-.4-1.4.4-2.2.1-.3 0-1.6.1-2.5-.3-.8-.6-1.8.2-1.7.7 0 0 .5 0 .8.7l.2.7s-.6.4-.5 1c0 .1.5 0 .8.2.3.1.5.5.6.7-.3.4-.2.5-.2.7s.2.5.3.4c.2-.2.6-.3 1-.2.7.3.3.8 1.3.8.2-.6 1.2-.8 1.5.3.5.3 1 .1 1.5-.2.3-.1.5-.6.8-1 .4-.4 1-.5 1-.6 1.2-.5 2.2-.3 3.3-1.3l1-.9c.3-.5 0-1.3.4-2.6.4-1.4 0-1-.4-3.4-.5-2.5-2-3.3-1.6-7.5.3-2 3.2-3.7 2.9-8.8 0-.6 1.5 1.4 2.8 0 0 0-.8-.1-1-1-.5-2.3-1.2-4-1.4-4.7 0-.2-2-6-2-12 0-2.2.1-4.6.7-7 .3-1.3.6-3 1.7-5.3.7-1.4 1.6-2.2 1.4-4-.3-1.8-.7-1.8-1.2-3.7-.5-1.4-.2-2.4-.2-2.8 0-.1.6.1.7-.7-.5 0-1-.4-1.4-.8-.3-.3-.4-1.3-.4-1.3s.6 0 .6-.5c-.3-.1-.9-.2-1.1-.7 0-.7-.3-1.4-.6-2-.4-.7-1-1-1-1s.3-.4.3-1.1c0-.4-.3-1.1-.8-1.5-.6-.5-1.3-.6-1.6-.6-.5 0-.8.3-.8.3s-.9-1-3-1c-3.4 0-4.4 1.2-5 1.3-.5.1-.5 0-.8 0s-.7.7-.8.8c-.8.4-.3.7-.5 1-.2.1-.7 0-1 .2-.4.1-.5.3-1 .3-.4.1-.2.5-1.2.9-.2 0-1.5 0-1.7.4-.2.2 0 .7.2.9.2.6.2.8 0 1v.8c.2.2.6.2 1 .3l1.2.2 1.8-.1c1 0 1.7.5 1.8 1.8 0 .7-1 .6-1.2.9-.2.2-.5.6-.7.6s-.3.3-.5.4c-.1 0-.5 0-.8.3l-.4.2c-.1 0-.3.3 0 .4.2.2.2.3.7.3s.9.7 1.2.7.5-.4 1-.4 1-.6 1.6.1c.4.5.6.5.7.8.2.4 0 .8-.3 1-.5.5-2 .2-2.6 1-.3 0-.6-1.4-1.8-.8-.1 0 1 .3.3 1.2-.1.2-.8.1-1 .5-.4.4-1.1.2-1.1 1-.4.4-1 .1-.7 1-.2.5-.9.7-1 .9 0 .1.1.2.4.3-.3.6-.8.8-.9 1 0 .2.4.3.4.3-.3.7-1.2.8-.5 1.4-.5.5-.2.6-.3 1.1-.1.6-.4.6-.4 1-4.4 1.7-5.9.3-7.2.3l-2.4.1c-2.3.2-3.8.4-4.6.1-.3 0-1.5 0-2.4-.5-.8-.7-1.8 0-1.7.5 0 .1.4.2.7.8v.8s-.5.4-.5.9c.1.2.5.1.8.2s.5.6.6.8c-.3.4-.3.5-.3.7s.2.5.3.5c.2-.3.6-.4 1-.2.7.3.2.8 1.3 1 .2-.6 1.2-.8 1.5.3.4.3 1 .2 1.4-.1.4-.1.6-.6 1-1 .3-.3.7-.2 1-.3.6 0 2.2.6 3.3.3z"></path><path fill="#f2f2f2" stroke-width=".2" d="M102.8 63.4c.3 0 .6.2.9.6-.1.1-.2.4-.8.4-.5 0-.8-.2-.8-.4s.5-.5.7-.6z"></path><g fill="none" stroke-width=".2"><path d="M110.1 68v1.2l-.4-.3s0 1-.9 1.8c0-.3 0-.5-.2-.7-.4.7-.6 1.6-1.2 2v-1.1m-3 3s.4 0 .3.7l.6-1-.2 1.4c.2 0 1-1.3 1-1.3l-.1.8a5 5 0 001.2-1.1v.8l.7-.9c0 .3.3.5.3.5.4-.6.6-1.1.7-1.7"></path><path d="M104 119.9v-.5l.9.4c0-.3 0-.5.4-.8.3.1.5.3.8.3.2 0 .3-.4.6-.4l.8.3c0-.5 0-.9.3-1.4.2.1.4.2.9.1.1-.4.4-.7.6-1"></path><path d="M96.7 92.2c1 0 2.1.4 3.1-.1.7-.3 1.4-.6 2 0 .6.3 1.2-.1 1.7-.5.5-.6.3-1.5.9-2 .8-1.3.6-1 1.6-1.6"></path></g><g fill="#000" stroke="none"><path d="M82.5 67.8c.3-.6 1.6-1 2.1-.2.4.2 2 1 1.2.8-1-.3-1.5-1.2-2.6-1-.4 0-.4 1-.7.4z"></path><path d="M82.5 65c1-.2 1.3.6 2.1.8.3.5 1.3 1.3 1.2 1.3-.8-.4-1.3-1.3-2.2-1.5-.2-.5-1.3 0-1.1-.6z"></path><path d="M83.8 63.2c.7.1.6 1 1.3 1.3.2.4 1.3 1.9.8 1.4-.6-.5-.7-1.3-1.3-1.5l-.8-1.2z"></path><path d="M84.3 65c-.2-1.3.7-.3 0 0z"></path><path d="M84 66.6c-.4-1 0-1.7 0 0z"></path><path d="M86.1 62.8c.1.4-.7 1.3-.5.8.2-.3 0-1 .5-.8z"></path><path d="M84.7 67.6c.5.6.2 2.2.1.6 0-.2-.7-.4-.1-.6z"></path><path d="M95.5 81c-.3.4-1.6.5-1.6-.1 0 .2 1.2.3 1.6.1z"></path><path d="M94.8 80c-.7.3-2.3-.5-.8-.4.2.2.6 0 .8.4z"></path><path d="M93.5 77.5c-.4.6-1.7-.6-.9-.2.2.3.9 0 .9.2z"></path><path d="M93.9 78.5c-1 .3-1.2-.5 0-.1z"></path><path d="M92 76c1-.4 1.7.9.6.2-.1-.2-.2-.3-.6-.2z"></path><path d="M82.6 114.7c-.2-1.7.3-.3 0 0z"></path><path d="M82.6 116.3c-.4-.6-.5-1.4 0-.4v.4z"></path><path d="M84 112.2c0 1-.8 1.2-.3.1 0-.2.2 0 .3-.1z"></path><path d="M83.4 117.1c.5 0 .7 1.6.6 1.3 0-.4-.7-.9-.6-1.3z"></path><path d="M93.6 84.9c.8-.9 2.1-.7 2.9-1.5.2-.5 1.9-1 .8-.8-.1-.6 1.4-1.3 1-1-1.2.1-.5-.7.2-.9.3-.4 2.7-.5 1.1-.3-.7 0-1.4.8-1.9.9 1.5-.1.3.5-.1 1.1.4-.1-.2.9-.9 1.1-.6.8-2 .7-2.8 1.5-.2.2-.2.1-.3-.1z"></path><path d="M79 90.9c-.3-.8 0-1.9 1.1-1.8.4-.3 1.5-.6 1.7-.7-.7.4-1.4.8-2.2.9-.5.4-.4 1-.6 1.6z"></path><path d="M76.8 89.1c.6-.7 1.1-.6 1.8-1 .4 0 2.6-.4 1.6-.1-.8.1-1.8.1-2.2.6-.6-.3-.9 1-1.2.5z"></path><path d="M76.2 87c1-.4 1 0 2-.2 1.2 0 2.1.3.3.2l-2.1.1h-.2z"></path><path d="M78 87.8c-.9-.5-.4-1.2-.1-.1z"></path><path d="M79 89c-.5 0-1.5-.7-.6-.5.4 0 .3.4.6.5z"></path><path d="M77.3 85c.7.6.4 1.4-.1.2 0 0-.1-.3.1-.2z"></path><path d="M80.1 89c.7-.4 2 1.2.9.5-.2-.4-1.3 0-.9-.5z"></path><path d="M111.8 130.6c.4-.4 1 .2 1 .4a3 3 0 00-1-.4z"></path><path d="M86.8 116.2c.6-.4 2.3.6 1.6.7-.4-.4-1.2-.4-1.6-.7z"></path><path d="M109.7 99.3c2.1 2.8 2.5 9 1 12.7 1.2-3.7 1-9.4-1-12.7z"></path><path d="M94.5 113.7c.4.2.4.8.2 1.5 0-.5 0-1.1-.2-1.5z"></path><path d="M95 111.7c.9.4 1 1.8.5 2.6.1-1 .3-2-.5-2.6z"></path><path d="M96.2 109.7c1.2.5 1.4 2.6 1 3.7.2-1 .2-3-1-3.7z"></path><path d="M97 107.5c1.2 1 1.6 2.3 1.6 3.8a6.9 6.9 0 00-1.6-3.8z"></path><path d="M98.9 88.3c.2.6.3 1.5-.5 1.6-.3.2.8-.8.4-1.5 0 0 0-.4.1-.1z"></path><path d="M96.2 89.8c.1-.3 1-1.1 1-.9-.4.2-.6.8-1 .9z"></path><path d="M94.2 89c.4.8-1.6.8-.5.6.2 0 .3-.5.5-.6z"></path><path d="M95.8 89c0 1-1.2 1 0 .2V89z"></path><path d="M92 89.6c-.3-.9 1.7-1 .4-.4 0 .4-.5 0-.4.4z"></path><path d="M100 88c.8.4-.1 1.8.2.4-.1 0 0-.4-.2-.4z"></path><path d="M101 86.9c.8.1.1 2.3.2.7l-.2-.7z"></path><path d="M101.6 86.3c1-.4.7 2 .5.8 0-.3 0-.9-.5-.8z"></path><path d="M109.8 85c.6-1.6.5-4.3-1.6-4.7-2-.3.1-1-2.7-.8-.3 0 1.6-.5 1.9.1.2.6.6.2 1.8.8 1.4 1 1.2 3.5.6 4.6z"></path><path d="M99.5 83.8c-1.2 0-1-.8-.2 0h.2z"></path><path d="M97.7 80c.3.6-1.5 2.3-.7 1.1.2-.4.7-.6.7-1.1z"></path><path d="M99.2 78.4c.2.6-.8 1-.7.6.3-.1.7-.6.7-.6z"></path><path d="M100.6 77.8c-.1 1-1 1-.1.1l.1-.1z"></path><path d="M102 77.4c.8.4-.8 1.2-.4.6.4-.1.5-.1.4-.6z"></path><path d="M103.3 77.2c-.6-.2.3-2 .1-.8-.2.3 0 .5-.1.8z"></path><path d="M104.5 76c.3.9-.9 1 0 0z"></path><path d="M95.5 80.3c.2-.8 1-.6.1-.2-.2.2-.3-.2-.1.2z"></path><path d="M87.4 90.2c1-.5 1.6.1.1 0z"></path><path d="M102.7 104.4c.2-1.2 1.3-2.1 1.1-3.4.5 1.1-.7 2-.8 3.1-.3-.1.1.5-.3.3z"></path><path d="M101.8 63.6c-1 .1-.8-1.2-.4-1.5.7-.6 2-.6 2.5.3.9 1.2-.3-.3-.7-.4-1.5-.7-2.8 1-1.4 1.6z"></path><path d="M102.3 69.8c.5.6.6 1.3.8 2l-.8-2z"></path><path d="M104.2 71.9c-.2-1.5-1.8-2.5-1.9-4.1.6 1.5 1.8 2.7 1.9 4.1z"></path><path d="M101.5 65.6c.1 1.3 1.1 2.3 1.8 3a10 10 0 01-1.8-3z"></path><path d="M103.1 67.5a3.4 3.4 0 01-1.5-2.3c.2.7 1.3 2.2 1.5 2.3z"></path><path d="M102.8 66c-.6.2-1-1-1-1 .3.5.7 1 1 1z"></path><path d="M101.9 64.6l.4.4c-.3-.1-.4-.3-.4-.4z"></path><path d="M106.7 67.8c-.7-.3-2.1.3-2.6-.5 1.2.6 2.1 0 2.6.5z"></path><path d="M104.4 64c.7.5 1.6-.5 1.5.1l-.8.1c-.5.1-.5 0-.7-.2z"></path><path d="M98.6 64.4c.3-.5 1.8-.7.6-.3-.1.3-.4 0-.6.3z"></path><path d="M95.8 65.8c.6-.8.7 1 .8.1.7-.6.5-.5 0 .2-.5.2.1-.4-.8-.3z"></path><path d="M102.9 64.2c.5-1.5-1-.3 0 0z"></path><path d="M103.7 64.5c-.4.3-.7.3-1 .2l1-.2z"></path><path d="M116.8 71c-.6-.1-1-1-.2-.2l.2.2z"></path><path d="M115.7 68.1c-.7-.1-.6-.7 0 0z"></path><path d="M99.3 72.6c0 .7-.7.5 0 0z"></path><path d="M104.1 63.9c-.4.2-.4.2-.5-.1h.5z"></path><path d="M102.1 63.9c.2.1-.7.4-1.4.3.5 0 1.2-.2 1.4-.3z"></path><path d="M109.4 130.6c.5.7-.6 2-.6 1.8.3-.6.6-1.2.6-1.8z"></path><path d="M102 63.7c0-.8 1.3-.9 1.8-.5-.9 0-1.3 0-1.8.5z"></path><path d="M110.2 62.9c1-1.9 3.7-1 1.7 1.4-.1 0 .9-1 .5-1.7-.4-1.2-1.6-.2-2.2.3z"></path><path d="M111.1 63.6c0-1-.2-1.5.2-.3 0 .2-.1.3-.2.3z"></path><path d="M112 63.4c-.2-.6-.6-.8 0-1.4-.4.6.4.7 0 1.4z"></path><path d="M99.2 72.4c.7-.2 1.2-.6 1.6-1.2-.6.6-1 .8-1.6 1.2z"></path><path d="M109.7 128.8c.5-.1.6.6.4.6 0-.2-.2-.4-.4-.6z"></path><path d="M110.6 128.2c.3.4.4 1 .4 1-.3-.3-.4-.8-.4-1z"></path><path d="M111 127.7c.6.2.6 1.2.4 1.2 0-.4-.2-.8-.4-1.2z"></path><path d="M112 128.2c-.3-.5-.2-.9-.1-1l.1 1z"></path><path d="M96.8 65.9c-.4.6-.8 0 0 0z"></path><path d="M112.5 64.9c.3-.7 1.5-1.4 1.1-.9l-1.1.9z"></path><path d="M110 61.8c-.2-.6.9-1.2.7-.7 0 .3-.5.4-.7.7z"></path><path d="M100 76.6c.1-.9 1-.8 0 0z"></path><path d="M105.2 137.4c-.3-.8 0-1.8 1-1.9.5-.2 1.8-1 1.5-.5-.6.2-1.5.6-2.1 1-.4.3-.1 1.2-.4 1.4z"></path><path d="M103 135.8c.5-.7 1-.8 1.8-1.2l1.5-.3c-.4.4-1.8.1-2.1.9-.6-.3-.9 1-1.2.6z"></path><path d="M102.2 133.7c.6-.4 1.2 0 1.8-.2.8 0 2.7 0 .9.1-1-.1-1.5.3-2.5.2 0 .3-.1 0-.2-.1z"></path><path d="M105 135.5c-.3 0-1-.3-.9-.4.4 0 .6.2.9.4z"></path><path d="M103 131.7c.3 0 .5.7.5.8-.2-.5-.6-.7-.5-.8z"></path><path d="M106.2 135.5c.8-.4 2 1 .8.4-.2-.2-.7 0-.8-.4z"></path><path d="M81.3 117.8c.4-1 1.6-1 2.5-.6.8.2 1.8.7.5.4-.8-.3-2-1-2.5-.1 0 .3-.2.5-.5.3z"></path><path d="M80.9 115c1 0 1.3.1 2.1.4.3.2 2 1.3 1.2.9-.8-.5-1.7-.8-2.5-1-.2-.3-.7.1-.8-.3z"></path><path d="M81.8 113c.6.3 1 .8 1.6 1.2.3.3 1.6 1.7.7 1-.4-.7-1.2-1.1-1.6-1.4 0-.6-.8-.2-.7-.8z"></path><path d="M95.3 82.7c-.5.5-1.3 0-.1.1z"></path><path d="M104 134.4l-.7-.7c.7.1.8.7.7.7z"></path></g></g><g id="cancer_provinceCOA55" stroke-width=".3"><path d="M105.3 65.7c-.3 0-1.3 1.4-1.4 4.1-.1 2.2.8 5.9.8 5.9s1.8 6.3 2.6 7.1c.8 1 5-3.2 4.6-4.7-.4-1.5-2.2-1.7-2.9-2.8-.4-.3-.2-1-.3-1.1-.1-.2-.7 0-1-.3-.2-.4-.6-.4-.7-1 0-.6.8-.7.5-1.4-.3-.6-1.5-1-1.7-1.5 0-.6.5-1.2.4-1.5 0-.3-.8-.6-.8-1.2s.4-1 .2-1.4c-.1-.4 0-.2-.3-.2zm-10.5 0c.2 0 1.2 1.4 1.3 4.1.1 2.2-.8 5.9-.8 5.9s-1.8 6.3-2.6 7.1c-.8 1-5-3.2-4.6-4.7.4-1.5 2.2-1.7 3-2.8.3-.3.1-1 .2-1.1.1-.2.8 0 1-.3.2-.4.7-.4.7-1 .1-.6-.8-.7-.5-1.4s1.5-1 1.7-1.5c.1-.6-.5-1.2-.4-1.5 0-.3.9-.6.9-1.2s-.4-1-.3-1.4c.1-.4.1-.2.4-.2zm26.4 22.2s1-1.4 1.7-3.8l.6-2.9c0-1.4-.2-2.5 0-2.6.3 0 .6.9.8 2 .2 1.1.2 2.5.2 2.5s.7-.6 1.3-1.5c.4-.6.6-1.6.7-1.6.2.2 0 2.3-1 4.6a22.3 22.3 0 01-3.3 4.8l-1-1.5zm2.2 6.5s1.2-.8 2.3-2.6c.4-.6 1-1.4 1.2-2 .5-1.2.6-2.1.8-2 .2 0 .2.8 0 1.7 0 1-.5 2-.5 2s.8-.3 1.5-.8c.5-.4.9-1.1 1-1 .1.1-.6 1.7-2 3.3-1.6 1.6-4 3-4 3l-.3-1.6z"></path><path d="M106.9 62.7c1-.2 2.5 0 4 1.3 1.6 1.4 3.3 4 4.4 7.5.3.7 1 2.7 1.6 5.2 1.1 4.3.9 7.6 0 9.2-.5 1-2 2.3-3.4 2.7-1.4.4-1.9-.3-2.2-.3-1.3.4-2.5-1.7-3.4-3.5-.7-1.2-1.5-1.9-1.6-2.4-.2-.7.5-.1 1.8-1 .7-.4.1-.9.9-1.6.8-.7 1-.1.9-1-.8-2.4.3-2.7 0-3.6-.1-1-.8-1.4-.9-1.8-.1-.7.3-.6.1-1.6 0-.4-.3-.8-.4-1.2-.1-.8.5-1.4.4-1.7s-1.2-.6-1.3-1c-.1-.5.6-1.2.3-2.3-.2-.8-.6-1.3-.9-1-.5-.3-.3-.6-.6-.8-.6-.6-1 0-1-.2-.2 0 0-.6 1.3-.9zm18.9 39.1l.8-.7 2.3-1.7c1-.7 3-.4 2.9-.4-.1-.5-2-1.2-3.8-.4-1.7.8-3.4 2.5-3.4 2.5l1.2.7zm-1.3 5.6l.8-.6s1.8-1.2 2.6-2.1c.8-1 2.8-1.3 2.8-1.3-.3-.4-2.3-.3-3.8.9a26.6 26.6 0 01-3.6 2.4l1.2.7zm-21.7-22.9c.1-1.4-.8-5.7-.6-11.4.3-6.2 1.9-12 1.7-12.2a48 48 0 00-2.4 12.1c-.6 5.6 0 10.3 0 11.3s1.2 1.6 1.3.2zm-24 3.4s-1-1.4-1.7-3.8l-.6-2.9c0-1.4.2-2.5 0-2.6-.3 0-.6.9-.8 2-.2 1.1-.2 2.5-.2 2.5s-.7-.6-1.3-1.5c-.4-.6-.6-1.6-.7-1.6-.2.2 0 2.3 1 4.6 1.1 2.4 3.3 4.8 3.3 4.8l1-1.5zm-2.2 6.5s-1.2-.8-2.3-2.6c-.4-.6-1-1.4-1.2-2-.5-1.2-.6-2.1-.8-2-.2 0-.2.8 0 1.7 0 1 .5 2 .5 2s-.8-.3-1.5-.8c-.5-.4-.9-1.1-1-1-.1.1.6 1.7 2 3.3 1.6 1.6 4 3 4 3l.3-1.6zm16.5-31.7c-1-.2-2.5 0-4 1.3-1.6 1.4-3.3 4-4.4 7.5-.3.7-1 2.7-1.6 5.2-1.1 4.3-.9 7.6 0 9.2.5 1 2 2.3 3.4 2.7s1.9-.3 2.2-.3c1.3.4 2.5-1.7 3.4-3.5.7-1.2 1.5-1.9 1.6-2.4.2-.7-.5-.1-1.8-1-.7-.4-.1-.9-.9-1.6-.8-.7-1-.1-.9-1 .8-2.4-.3-2.7 0-3.6.1-1 .8-1.4.9-1.8.1-.7-.3-.6-.1-1.6 0-.4.3-.8.4-1.2.1-.8-.5-1.4-.4-1.7 0-.2 1.2-.6 1.3-1 .1-.5-.6-1.2-.3-2.3.2-.8.6-1.3.9-1 .5-.3.3-.6.6-.8.6-.6 1 0 1-.2.2 0 0-.6-1.3-.9zm-18.9 39.1l-.8-.7-2.3-1.7c-1-.7-3-.4-2.9-.4.1-.5 2-1.2 3.8-.4 1.7.8 3.4 2.5 3.4 2.5l-1.2.7zm1.3 5.6l-.8-.6s-1.8-1.2-2.6-2.1c-.8-1-2.8-1.3-2.8-1.3.3-.4 2.3-.3 3.8.9 1.4 1.2 3.6 2.4 3.6 2.4l-1.2.7zm21.7-22.9c-.1-1.4.8-5.7.6-11.4-.3-6.2-1.9-12-1.7-12.2.4-.2 1.8 6 2.4 12.1.5 5.6 0 10.3 0 11.3s-1.2 1.6-1.3.2zm-.7 45.5s-1.4.5-2.6 1.4c-1.3 1-2.3 2.1-2.6 2.5-.3.4-.4 1 .4 2.1.9 1.1 2.8 2.2 4 2.2 1 0 2-1.3 2-1.3v-4.6l-1.2-2.3zm7.1 0s1.4.5 2.6 1.4c1.4 1 2.3 2.1 2.6 2.5.3.4.4 1-.4 2.1-.9 1.1-2.8 2.2-3.9 2.2s-2-1.3-2-1.3v-4.6l1.1-2.3z"></path><path d="M102.2 128.7s1.1 2.4 1.1 6c0 2-.4 3.2-.7 3.6-.3.4-1.4 1-2.6 1-1.1 0-2.2-.6-2.5-1-.3-.4-.7-1.6-.7-3.7 0-3.5 1.1-5.9 1.1-5.9h4.3zm-7.4-.5c-1 0-.6.2-1.6.2s-2.2-1-3.3-1c-1 0-2.2.9-2.2 2.8s1.5 4.3 3 4.3 5.1-4.6 5.1-4.6 0-1.7-1-1.7zm10.5 0c1 0 .6.2 1.6.2s2.2-1 3.3-1c1 0 2.2.9 2.2 2.8s-1.5 4.3-3 4.3-5-4.6-5-4.6 0-1.7 1-1.7z"></path><path d="M97 128.3s-.3.6-.8 1c-.5.3-1 .5-1 .7-.1.3.1.7.7 1.2.5.5.7.5 1 .4.2-.1.4-.5.7-1.2a8 8 0 00.4-1.4l-1-.7zm6 0s.4.6 1 1c.4.3 1 .5 1 .7 0 .3-.2.7-.8 1.2-.5.5-.7.5-1 .4-.2-.1-.4-.5-.7-1.2a8 8 0 01-.4-1.4l1-.7z"></path><path d="M95.8 127.4c-.2.1-.4.6-1.2.8-.4.1 0 1 .3 1.4.3.5 1.2-.3 1.4-.4l.5-.7c.3-.5-.8-1.2-1-1zm8.5 0c.2.1.4.6 1.2.8.4.1 0 1-.3 1.4-.3.5-1.2-.3-1.4-.4l-.5-.7c-.3-.5.8-1.2 1-1z"></path><path d="M103.4 125c0 .9 1 2.2 1 2.5s-.5.2-.8.6c-.4.4-.6 1-1.1 1.2-1.2.2-1.5.7-2.5.7s-1.2-.5-2.3-.7c-.6-.2-.8-.8-1.2-1.2-.3-.4-.7-.4-.7-.6s.9-1.7.9-2.6 6.7-.9 6.7 0zm19.1-22.8s.2 0 1.5-1c.8-.4 2-1.5 2.1-1.6.7-.4 1.3 1 .6 1.8-.4.4-1.3 1.1-2.5 1.8-1.5.7-1.7.5-1.7.5l-.5-.9.5-.6zm-1.2 5.5l1.5-.8c.8-.4 1.9-1.3 2.1-1.4.7-.3 1.3.8.5 1.6-.3.3-1.4 1-2.6 1.5-1.4.6-1.7.4-1.7.4l-.4-.8.6-.5zm-43.8-5.5s-.2 0-1.6-1c-.7-.4-1.8-1.5-2-1.6-.7-.4-1.4 1-.6 1.8.4.4 1.3 1.1 2.5 1.8 1.5.7 1.7.5 1.7.5l.5-.9-.5-.6zm1.3 5.5l-1.6-.8-2.1-1.4c-.7-.3-1.3.8-.5 1.6.4.3 1.4 1 2.6 1.5 1.5.6 1.7.4 1.7.4l.4-.8-.5-.5z"></path><path d="M103.3 122c0 1 1.3 2.7 1.3 3 0 .2-.5.8-1 .9-.5 0-.4-.2-1 0-.5.2-1 .6-2.5.6s-2-.4-2.6-.6c-.6-.2-.4 0-1 0-.4-.1-1-.7-1-1 0-.2 1.4-2 1.4-2.9 0-.9 6.4-.9 6.4 0zm3.9-29.2c-.5-.5-.6-1.3 0-1.7.6-.4 1.4-.8 2.6-1.8.5-.4.7-1 .7-1l1.1-.6c.7-.2 1.4 0 1.6 0 .5.4 1 0 .9 1.4 0 .7-2.2 4.3-2.2 4.3s-.3.5-1.4.5c-1 0-1.1-.7-1.5-.4-.7.2-1.3-.2-1.8-.7zm9.3-.3s1.6-1.1 3-2.7l1.6-2.3c.7-.7 2.1.7 1.5 2-.5 1.3-5 4.7-5 4.7l-1-1v-.7zm1.3 5.9s1.8-1 3.2-2.2c.8-.6 2-2 2.3-2.1.7-.5 1.7 1 1 2a14 14 0 01-2.9 2.2c-1.5 1-3.1 1.8-3.1 1.8l-.6-1v-.7zm.4 5.7s.6 0 2.2-.7c1-.5 2.3-1.5 2.6-1.7.7-.3 1.3 1.2.4 2a11 11 0 01-3 1.7c-1.8.7-2 .4-2 .4l-.4-1 .2-.7zm-1.2 5.1s.5 0 2.1-.6c1-.3 2.3-1.2 2.6-1.3.8-.3 1.3 1.2.3 1.9-.5.3-1.7.9-3 1.3-1.8.5-2 .2-2 .2l-.4-1 .3-.5zM92.8 92.8c.5-.5.6-1.3 0-1.7-.6-.4-1.4-.8-2.6-1.8-.5-.4-.7-1-.7-1l-1.1-.6c-.7-.2-1.4 0-1.6 0-.5.4-1 0-.9 1.4 0 .7 2.2 4.3 2.2 4.3s.3.5 1.4.5c1 0 1.1-.7 1.5-.4.7.2 1.3-.2 1.8-.7zm-9.3-.3s-1.6-1.1-3-2.7L79 87.5c-.7-.7-2.1.7-1.5 2 .5 1.3 5 4.7 5 4.7l1-1v-.7zm-1.3 5.9s-1.8-1-3.2-2.2c-.8-.6-2-2-2.3-2.1-.7-.5-1.7 1-1 2a14 14 0 002.9 2.2 33 33 0 003.1 1.8l.6-1v-.7zm-.4 5.7s-.6 0-2.2-.7c-1-.5-2.3-1.5-2.6-1.7-.7-.3-1.3 1.2-.4 2a11 11 0 003 1.7c1.8.7 2 .4 2 .4l.4-1-.2-.7zm1.2 5.1s-.5 0-2.1-.6c-1-.3-2.4-1.2-2.6-1.3-.8-.3-1.3 1.2-.3 1.9.5.3 1.7.9 3 1.3 1.8.5 2 .2 2 .2l.4-1-.3-.5z"></path><path d="M100 123.6c1.6 0 3-.8 3.6-1h1c.5 0 1-.7 1-1 0-.3-1.4-2.1-1.4-3 0-1-8.4-1-8.4 0s-1.4 2.7-1.4 3c0 .3.5 1 1 1h1c.7.2 2 1 3.6 1m7.5-31s3.1.2 3.4 1.1c.3 1-.6 1.7-2 2-1.5.3-2.4-2.4-2.4-2.4-.2-1.6 1-.7 1-.7zm2.4 4.8s2.2-1 4-2.5c1.6-1.4 2.8-2.7 3-2.9.2 0 .5.1.8.6.3.5.5 1.2.3 1.4 0 .2-1.8 2-3.7 3.2l-4 2-.4-1.8zm.1 3.9s2.5-.2 4.4-1.2c1.7-.8 3.5-2 3.7-2 .2 0 .5.2.6.7v1.2c-.2.2-2.6 1.5-4.6 2.1-1.9.6-4.2.7-4.2.7v-1.5zm0 4s2.5.3 4.5-.2l4.1-1.3c.2 0 .4.3.5.8 0 .5-.1 1.1-.3 1.3a19.3 19.3 0 01-9.2 1l.4-1.6zm-1.3 4.7s2.5.3 4.5 0l4.1-1c.2 0 .4.3.4.7 0 .5-.1 1-.3 1.1-.2.2-2.8.7-4.8.8-2 .1-4.3-.3-4.3-.3l.4-1.3zM92.5 92.6s-3.1.2-3.4 1.1c-.3 1 .6 1.7 2 2 1.5.3 2.4-2.4 2.4-2.4.2-1.6-1-.7-1-.7zm-2.4 4.8s-2.2-1-4-2.5c-1.6-1.4-2.8-2.7-3-2.9-.2 0-.5.1-.8.6-.2.5-.4 1.2-.3 1.4 0 .2 1.8 2 3.8 3.2 1.9 1.1 3.9 2 3.9 2l.4-1.8zm-.1 3.9s-2.4-.2-4.4-1.2l-3.7-2c-.2 0-.4.2-.6.7v1.2a19 19 0 008.8 2.8v-1.5zm0 4s-2.5.3-4.5-.2l-4.1-1.3c-.2 0-.4.3-.4.8s0 1.1.2 1.3a19.3 19.3 0 009.2 1l-.4-1.6zm1.3 4.7s-2.5.3-4.5 0l-4-1c-.3 0-.5.3-.5.7 0 .5.1 1 .3 1.1.2.2 2.8.7 4.9.8 2 .1 4.2-.3 4.2-.3l-.4-1.3z"></path><path d="M104.8 114.4c0 1.1 1.5 3.1 1.5 3.4 0 .4-.6 1-1.2 1.2-.5 0-.4-.2-1 0s-1.9 1.3-4 1.3c-2.2 0-3.3-1.1-4-1.3s-.5 0-1.1 0c-.6-.1-1.2-.8-1.2-1.2 0-.3 1.5-2.3 1.5-3.4 0-1 9.5-1 9.5 0zm-.8-20.7s.8 0 1.4-.4c.6-.3 1.1-.9 1.1-.9l1 1.3c.6.7 1.4 1.4 1.4 1.6.1.3.2.5-.3.8-.5.3-2.7.4-3.2 1.3-.5.8-1.4-3.7-1.4-3.7zm1.9 4.3s1.5.2 2.7-.2c1-.4 1.7-.8 2-.8.1 0 .8 1.4.2 2-.5.8-4 1-4 1l-1-2zm.3 3s1.3.4 2.4.3c1 0 1.7-.3 1.9-.2.1 0 .4 1.4-.2 1.8-.6.5-3.7 0-3.7 0l-.4-1.9zm.1 3.4s1.2.6 2.3.7l2 .1s.1 1.5-.6 1.8c-.7.4-3.6-.7-3.6-.7v-2zm-1.2 4.6s1.2.6 2.3.7l1.9.2c.1 0 0 1.3-.6 1.6-.7.3-3.5-.8-3.5-.8V109zm-2.4-21.4c-.1-.7.5-3.1.2-3.4-.3-.2-1.4-.3-1.5 0a10 10 0 000 3.5c.3.8 1.5.6 1.3-.1zM96 93.7s-.7 0-1.3-.4c-.7-.3-1.2-.9-1.2-.9l-1 1.3c-.6.7-1.4 1.4-1.4 1.6-.1.3-.2.5.3.8.5.3 2.7.4 3.2 1.3.5.8 1.4-3.7 1.4-3.7zM94.1 98s-1.5.2-2.7-.2c-1-.4-1.7-.8-2-.8-.1 0-.8 1.4-.2 2 .5.8 4 1 4 1l1-2zm-.3 3s-1.2.4-2.4.3c-1 0-1.7-.3-1.8-.2-.2 0-.5 1.4.1 1.8s3.7 0 3.7 0l.4-1.9zm-.1 3.4s-1.2.6-2.4.7l-1.8.1c-.2 0-.2 1.5.5 1.8.7.4 3.6-.7 3.6-.7v-2zm1.1 4.6s-1.1.6-2.2.7l-1.9.2c-.1 0 0 1.3.6 1.6.7.3 3.5-.8 3.5-.8V109zm2.5-21.4c.1-.7-.4-3.1-.2-3.4.3-.2 1.4-.3 1.5 0 .1.1.3 2.8 0 3.5-.3.8-1.5.6-1.3-.1z"></path><path d="M94.8 110.6c0 1.2-1.6 3.3-1.6 3.7 0 .3.6 1 1.2 1.1.7.1.5-.2 1.2 0 .7.3 1.7 1.5 4.4 1.5 2.8 0 3.8-1.2 4.5-1.4.7-.2.5 0 1.2 0 .6-.2 1.2-.9 1.2-1.2 0-.4-1.6-2.5-1.6-3.7 0-1.1-10.5-1.1-10.5 0z"></path><path d="M95.5 91.3c-.5 1.9-.7 4.3-.7 4.3s-2.4 4-2.5 7.7c0 4.2 1.9 8.2 2.2 8.6.4.4 1.5 1.2 5.5 1.2s5-.8 5.4-1.2c.4-.4 2.3-4.4 2.3-8.6 0-3.7-2.6-7.7-2.6-7.7s-.1-2.4-.6-4.3a16 16 0 00-1.3-3.2c-.3-.5-.4-1.3-.3-1.7.2-.7.3-1.8 0-1.8-.2 0-1.5 2.6-2 2.5H99c-.6.1-1.9-2.5-2.1-2.5-.3 0-.1 1 0 1.8.1.4 0 1.2-.3 1.7-.4.7-.7 1.3-1.2 3.2z"></path><path fill="#333" d="M103.7 91s0-.6-.8-1c-.3-.2-1-.2-1.2.6-.2.8.8 1.8.8 1.8l1.8-.2-.6-1.1zm-7.4 0s0-.6.8-1c.3-.2 1-.2 1.2.6.2.8-.8 1.8-.8 1.8l-1.8-.2.6-1.1z"></path><path d="M103.4 103s-1.5 4.9-.7 9.9c0 0-1 .2-2.7.2-1.7 0-2.7-.2-2.7-.2.8-5-.7-10-.7-10l2.6-2.6 4.2 2.7z"></path><path d="M100 80.7s.4 5 1.4 8.2c.5 1.3 1 2.3 1.4 2.9.1.3.4.5.8 0l.1-1.1c.2-.4.6-.3.6-.3s1.4 2.6 1.4 5.2c0 3.4-1.8 5.4-2.3 7.4-.4 0-1.4-.3-3.4-.3s-3 .3-3.3.3c-.5-2-2.3-4-2.3-7.4 0-2.6 1.4-5.2 1.4-5.2s.3-.1.5.3c.2.3 0 .8.2 1 .3.6.6.4.8 0l1.3-2.8c1-3.1 1.3-8.3 1.4-8.2z"></path><path fill="#000" stroke="none" d="M96.5 114.7a7.5 7.5 0 007 0 5.4 5.4 0 01-7 0zm6.8 3.6a5.3 5.3 0 01-6.6 0c2.3 1 4.2 1 6.6 0zm-6.3 3.5a5.1 5.1 0 006.1 0 7 7 0 01-6.1 0zm.4 3.2a7 7 0 005.4 0 4.8 4.8 0 01-5.4 0zm-2.5-56.2a25 25 0 01-2.6 11.8c1.1-3.7 2.4-7.3 2.6-11.8zm-3.9 15c-1.1-.2-1.9-1-1.9-1.9.4 1 .7 1.3 1.9 1.9zm-.3-16.7c-4 4.7-5.4 14.5-5.3 19.5.8-5.5 1-12 5.3-19.5zm14.3 1.7c0 4 1.4 8.2 2.5 11.8-1.4-3.2-3.2-8.3-2.5-11.8zm3.8 15c1.3-.6 1.7-1.2 1.9-1.9 0 1.2-1.3 1.8-1.9 1.9zm5.6 2.7a44.2 44.2 0 00-5.2-19.4c3.8 4.4 5.3 13.5 5.2 19.4z"></path></g><radialGradient id="backlight_provinceCOA55" cx="100%" cy="100%" r="150%"><stop stop-color="#fff" stop-opacity=".3" offset="0"></stop><stop stop-color="#fff" stop-opacity=".15" offset=".25"></stop><stop stop-color="#000" stop-opacity="0" offset="1"></stop></radialGradient></defs>
        <g clip-path="url(#boeotian_provinceCOA55)"><rect x="0" y="0" width="200" height="200" fill="#fafafa"></rect><g fill="#377cd7" stroke="none"><rect width="37.5%" height="37.5%"></rect></g><g fill="#d7374a" stroke="#000"><use href="#bearRampant_provinceCOA55" transform="translate(-4.999999999999982 -4.999999999999982) scale(1.0499999999999998)"></use></g><g fill="#fafafa" stroke="#000"><use href="#cancer_provinceCOA55" transform="translate(14.5 14.5) scale(0.375)"></use></g></g>
        <path d="M150 115c-5 0-10-5-10-15s5-15 10-15c10 0 7 10 15 10 10 0 0-30 0-30-10-25-30-55-65-55S45 40 35 65c0 0-10 30 0 30 8 0 5-10 15-10 5 0 10 5 10 15s-5 15-10 15c-10 0-7-10-15-10-10 0 0 30 0 30 10 25 30 55 65 55s55-30 65-55c0 0 10-30 0-30-8 0-5 10-15 10z" fill="url(#backlight_provinceCOA55)" stroke="#333"></path></svg>