<svg xmlns="http://www.w3.org/2000/svg" id="provinceCOA9" width="200" height="200" viewBox="0 10 200 200">
        <defs><clipPath id="french_provinceCOA9"><path d="m 25,25 h 150 v 139.15 c 0,41.745 -66,18.15 -75,36.3 -9,-18.15 -75,5.445 -75,-36.3 v 0 z"></path></clipPath><g id="crossPotent_provinceCOA9" stroke-width=".5"><path d="M83 60v10h12v25H70V83H60v34h10v-12h25v25H83v10h34v-10h-12v-25h25v12h10V83h-10v12h-25V70h12V60z"></path></g><radialGradient id="backlight_provinceCOA9" cx="100%" cy="100%" r="150%"><stop stop-color="#fff" stop-opacity=".3" offset="0"></stop><stop stop-color="#fff" stop-opacity=".15" offset=".25"></stop><stop stop-color="#000" stop-opacity="0" offset="1"></stop></radialGradient></defs>
        <g clip-path="url(#french_provinceCOA9)"><rect x="0" y="0" width="200" height="200" fill="#ffe066"></rect><g fill="#377cd7" stroke="none"><polygon points="0,75 100,140 200,75 200,35 100,100 0,35"></polygon></g><g fill="#377cd7" stroke="#000"><use href="#crossPotent_provinceCOA9" transform="translate(50 0) scale(0.5)"></use></g></g>
        <path d="m 25,25 h 150 v 139.15 c 0,41.745 -66,18.15 -75,36.3 -9,-18.15 -75,5.445 -75,-36.3 v 0 z" fill="url(#backlight_provinceCOA9)" stroke="#333"></path></svg>