<svg xmlns="http://www.w3.org/2000/svg" id="provinceCOA177" width="200" height="200" viewBox="0 0 200 200">
        <defs><clipPath id="boeotian_provinceCOA177"><path d="M150 115c-5 0-10-5-10-15s5-15 10-15c10 0 7 10 15 10 10 0 0-30 0-30-10-25-30-55-65-55S45 40 35 65c0 0-10 30 0 30 8 0 5-10 15-10 5 0 10 5 10 15s-5 15-10 15c-10 0-7-10-15-10-10 0 0 30 0 30 10 25 30 55 65 55s55-30 65-55c0 0 10-30 0-30-8 0-5 10-15 10z"></path></clipPath><g id="inescutcheon_provinceCOA177"><path transform="translate(66 66) scale(.34)" d="M150 115c-5 0-10-5-10-15s5-15 10-15c10 0 7 10 15 10 10 0 0-30 0-30-10-25-30-55-65-55S45 40 35 65c0 0-10 30 0 30 8 0 5-10 15-10 5 0 10 5 10 15s-5 15-10 15c-10 0-7-10-15-10-10 0 0 30 0 30 10 25 30 55 65 55s55-30 65-55c0 0 10-30 0-30-8 0-5 10-15 10z"></path></g><g id="basilisk_provinceCOA177" stroke-width=".33"><path d="M85.99 134.15c.15.02.7.06.82.14.38.29.74 1.14.6 2.04-.17 1.04-.85 2.05-1.06 2.03-.28-.04-.28-.44-.28-.65.02-.56.26-.92-.34-1.68-.22-.28-.59-.44-.72-.77-.02-.05.04-.19.05-.24 0-.1.06-.2.11-.29.19-.28.47-.61.82-.58z"></path><path d="M76.82 127.7a1.38 1.38 0 00-.8-.47 2.95 2.95 0 00-1.56.27c-.57.24-1.5.94-1.5 1.54-.02.55.27.31.59.15.41-.22.88-.4 1.67-.19.53.14.7.5.89.62h.22"></path><path d="M77.12 123.67c.02-.16.14-.69.09-.84-.18-.44-.88-1.02-1.8-1.13-1.05-.13-2.2.25-2.24.46-.03.28.34.39.55.44.55.14.96.01 1.53.78.21.29.25.7.54.91.04.04.19 0 .24.03.1.02.21 0 .31-.04.32-.1.73-.26.78-.61z"></path><path d="M76.48 125.88c-.16-.05-.25.04-.4 0-.34-.09-.56-.36-.75-.68-.11-.2-.28-.87.15-1 .23-.07 1 .04 1.52-.83.13-.23.17-.64.17-.64s.27-.36.74.13c.53.56.38 1.25.38 1.25.35.28.41.9.62 1.07.1.08.2.13.31.2.54.31.78.74 1.17 1.2.14.14.88.85 1.08.93.16.05.57.34.74.35.3.03.17-.12.49-.06-.05.5-.82.39-1.21.7-.25.2-.54.37-.86.4-.4.05-.8-.16-1.15-.38a8.98 8.98 0 01-1.87-1.6c-.11-.14-.24-.26-.21-.44-.32-.23-.49-.67-1.16-.78"></path><path d="M74.81 124.55c-.01-.16-.02-.7-.12-.83-.27-.38-1.1-.78-2.01-.67-1.06.12-2.1.77-2.07.98.03.27.43.3.64.3.56 0 .93-.22 1.67.4.27.22.42.6.74.75.04.02.18-.04.24-.04.1 0 .2-.06.28-.1.31-.18.65-.44.63-.8z"></path><path d="M85.32 131.47c-.14-1.3-.25-1.2.5-1.96 4.97-5.02 8.8-7.36 8.37-6.91l-4.07-2.25c-.75 1.36-1.47 3.79-5.57 6.7-.54.39-.84.3-1.23.57-.97.35-1.66-.29-2.47-.6-.48-.2-1.16-.1-1.33-.13-.21-.02-.42-.1-.58-.22-.49-.35-.82-.73-1.41-.9l-.34-.11c-.26-.12-.73-.73-1.17-.95 0 0-.02-.7-.66-1.1-.57-.38-.75.05-.75.05s.08.4 0 .66c-.3.96-1.06 1.04-1.27 1.16-.39.23-.07.86.08 1.01.27.27.54.48.9.49.16 0 .32-.18.48-.18.68-.03.86.31 1.22.46.4.18.84.37.78.94-.06.67-.6 1.09-.75 1.3-.2.32-.2.79.53 1.04.54.19 1-.02 1.22-.27.07-.07.18-.08.27-.1.12-.02.24 0 .37 0 .73.12 1.45-.27 2.12.1.16.1.29.2.44.28.18.1.39.15.57.22l.25.13c.3.25.37.7.55 1.04.13.23.36.38.56.57.43.4.77 1.08.75 1.68 0 .17-.11.23-.11.4-.01.35.18.64.45.91.15.17.76.5 1 .13.13-.2.23-.96 1.2-1.23.26-.06.67.02.67.02s.43-.16.08-.74c-.4-.66-1.1-.7-1.1-.7a5.34 5.34 0 01-.55-1.51z"></path><path fill="none" d="M76.01 127.24c1.09-.93 1.93.16 1.97.55.01.09.22.09.3.08.18-.05.36-.02.54-.01"></path><path d="M101.3 118.29a5.39 5.39 0 01-1.34 2.04c-.27.24-.8.83-1.07 1.05a6.02 6.02 0 00-1.4 2.09c-.22.46-.52.9-.85 1.3-.37.43-.8.79-1.1 1.27-.21.38-.33.82-.33 1.25-.63-.15-1.3-.8-1.38-1.36-.78.6-1.29 1.66-2.11 2.04-.06.02-.13-.05-.08-.08a5.23 5.23 0 01.35-2.54c.21-.42.54-.77.73-1.2s.2-.98-.13-1.3a4.31 4.31 0 01-3.21 1.85c.44-.96.73-2.09.68-3.14 0-.1-.04-.21-.12-.22-.05-.02-.08 0-.12.02-.36.15-.74.24-1.08.42-.7.37-1.8.68-2.5.41.46-.27.86-.57 1.18-1.1.2-.35.26-1 .55-1.3s.55-.68.61-1.08a2.21 2.21 0 01-1.88.08c.5-.45.93-1 1.22-1.62.1-.22.64-2.45 1.18-3.16.5-1.43 2.01-2.49 3.43-3.47"></path><path d="M106.41 64.41c.21-1.04-.9-.92-.41-2.77-.11-.04-1.85.43-1.46 2.76"></path><path d="M111.81 75c1-.41.28-1.27 2.08-1.89-.03-.1-1.37-1.3-3.1.3"></path><path d="M114.03 84.2c1.04-.25.47-1.21 2.34-1.54-.02-.12-1.16-1.5-3.11-.18"></path><path d="M96.25 98.4c.66-.44 1.32-.99 1.43-1.76 0-.55-.11-1.1-.44-1.54-.11-.33-.44-.55-.55-.88-.33-.77.22-1.54 0-2.2-.88-1.32-1.76-1.1-1.87-1.98s-.33-.99-.66-1.76c-.11-.44-.33-.66-.44-1.21 0-.55.11-1.54.66-2.09 1.1-1.32 2.31-1.21 3.96-3.19 1.98-2.37 2.97-5.46 3.85-8.42.66-1.9.99-3.83 1.1-5.8.11-1.07.55-2.95 1.1-3.6.66.1 1.32.14 2.09-.28.33.65.33 1.46.33 2.2 5.5 15.3 10.56 24.48-.55 40.43-18.26-3.63-19.91-.88-10.01-7.92z"></path><path d="M87.09 75.93c-1.21-.27-2.41.2-3.58-.2-1.18-.43-1.88-1.53-3.09-1.85-.85-.23-1.77-.08-2.73-.46-1.06-.44-1.6-.8-2.63-1.45-.79-.64-1.89-.77-2.9-.7-.34.02-.67.05-1.01.02-.59-.07-1.14-.35-1.7-.49-.76-.2-1.54-.16-2.3-.2s-1.58-.2-2.18-.67c-.63-.5-.82-1.35-2-1.53.94 1.02.82 2.25 1.61 3.08.8.85 1.87 1.06 3.01 1.2 1.73.2 3.47-.1 3.73 1.23-.59 1.56-3.07.93-3.5.88-1.31-.14-2 .04-2.5.46-.5.4-.75 1.15-.75 1.77.6-.56 1.22-.78 2.13-.6.66.11 1.28.39 1.94.53.57.12 1.03.25 1.62.25.79 0 1.5-.33 2.19-.7.58-.32.81-.58 1.35-1 .83-.63 1.64-.43 2.14 0 .36.33.49.8.25 1.23-.24.43-.68.7-1.12.9-.45.18-1.82.56-2.36 1.63-.96 1.91.04 3.1-1.29 4.53 3.86-.89 3.16-3.86 4.97-4.4 1.45-.5 1.89-1.89 2.86-1.82.6.04 1.21-.3 1.79-.14.2.06.4.16.6.22 1.05.35 3.36-.05 4.35.44l1.34.55-.24-2.71z"></path><path d="M82.34 71.53c-1.15-.38-2.55.46-3.68.15-.66-.18-1.03-1.35-1.8-1.56-1.03-.29-1.7.33-1.9.8-.1.2-.34.17-.38-.08-.01-.03-.28-1 .9-2.42 1.6-1.93 4.51-1.8 5.67-1.4.77-.63 1.95-.16 2.08.05-.1.2-.77 2.38-.11 2.82 1.69 1.14 1.3 2.07 3.71 3.39.9.48 1 1.36 1.2 2.37.15 1.12-.27 1.58.01 2.77.12.6-.25.83-.82.97-.66.16-1.22-.12-1.92.05-2.1.4-2.13 1.56-4.38 2.02-.8.11-1.63-.14-2.02-.68-.37-.57-.4-1-.4-1 .03-.12 0-.26.18-.01.73.94 2.62.41 3.3-.05.9-.45 1.7-1.43 2.9-1.7 1.02-.3 2.03-.02 2.03-.21 0-.12.04-.53-.1-.94-.05-.15-.1-.3-.13-.46-.02-.2.02-.99-.01-1.19-.19-1.14-1.05-.87-2.26-2-.66-.55-1.18-1.4-2.08-1.7z"></path><path d="M124.32 96.3c.33-2.06 1.66-3.8 2.92-5.46s2.1-3.37 2.66-5.55c1.73 2.18 1.23 5.28 1.23 5.28 2.29-1.35 3.03-3.68 2.9-6.61-.05-1.3-.57-3.41-.26-5.68a15.9 15.9 0 013.1-7.84 15.1 15.1 0 00-8.5 6.6c-.58 1-1.04 2.04-1.64 3.02-1.25 2.03-3.05 3.63-4.83 5.2 1.78.66 4.26.56 6.04-.1-.71 1.8-2.5 2.66-4.13 4.13s-3.25 3.16-3.73 5.3"></path><path d="M132.77 99.72a3.35 3.35 0 00-.88-1.76v-.11c-.11-1.1-.99-2.53-2.2-3.52-.66-.44-2.31-1.54-3.08-1.32-1.32-.77-5.61-1.1-7.15.11-2.2-.11-4.07 1.1-5.94 2.2-4.51 1.76-10.23 2.97-15.18 4.29-.33-1.43-4.18-2.64-5.28-2.42-.77-1.1-1.87-1.21-3.08-1.87.88-1.32-.22-3.19-.44-5.06-.22-1.21-.44-2.53.33-3.63.55-.77 1.54-2.31 1.54-3.41.55.44 1.65.55 2.09 0-.66-.25-1.21-1.25-.77-2.06.99-1.76.77-2.54.66-3.62a3 3 0 01.77.8c.44-.56.77-1.68.66-2.56.88.69 1.98.54 2.31.37-1.65-1.25-.33-2.79-.22-3.95.22-1.35 0-2.1-.22-2.42a2.05 2.05 0 001.54-1.34c.22-.7 0-1.46-.11-1.62-.66.6-1.87.8-2.64.5-.88-.32-1.54-1.12-2.53-1.31l-8.14-.26c-.33.02-.66.3-.88.59-.22.28-.55.48-.66.74-.11.2-.77 2.38-.11 2.82 1.65 1.13 1.21 2.06 3.63 3.38.99.48 1.1 1.36 1.21 2.37.22 1.12-.22 1.58 0 2.77.22.6-.22.83-.77.97-.66.16-1.21-.12-1.87.05-.22.78-.66 1.1-1.32 1.57-1.32.99-2.53 3.09-4.62 2.32-.11.44.11 1.21.77 1.54-.55.22-1.32.44-1.76.88a6.3 6.3 0 00-1.21 1.21c-.33.55-.55 1.1-.44 1.65-.77.44-1.65.99-2.2 1.76-.66.77-1.32 1.65-1.21 2.75-.22.22-.66.55-.77.88a6.11 6.11 0 00-.99 1.87c-.22.77-.33 3.19.11 3.96.33.55-.33 3.19.77 4.51 0 .44.55 3.63 1.98 4.62a5.2 5.2 0 003.85 3.52 5.1 5.1 0 001.76 1.98c.66.44 1.65.88 2.42 1.21 1.32 1.43 3.08 1.98 5.06 2.2 2.2.88 4.73.88 6.93.11 1.98.55 4.07.33 6.05-.22 2.09 0 4.18-.99 5.72-2.09 1.43-.88 2.97-1.54 4.07-2.75 1.21-1.32 3.08-1.76 4.07-3.19a5.9 5.9 0 001.65-1.65 5.15 5.15 0 001.98 2.42c.77.22 2.31.77 2.86.66.22.33.77.55 1.1.66s1.1 0 1.43 0c.44.11.99.11 1.54.11.33 0 .66 0 .99-.11.22-.11.33-.22.55-.33s.44-.22.77-.33c.55-.33 1.21-.33 1.76-.77s1.1-1.32 1.54-1.65c.33-.33.66-.66.88-.99.33-.44.55-1.32.77-1.87a8.02 8.02 0 00.55-6.16zM124.3 105c-.55-.33-1.76-.44-2.31-.33a2.68 2.68 0 00-1.43-1.87c.11-.22.22-.44.33-.77a4.51 4.51 0 001.76-1.76c.55 0 1.1-.22 1.65-.44 0 .77.55 1.54 1.32 1.65-.11.44 0 .99.33 1.32a4.07 4.07 0 00-1.65 2.2z"></path><g stroke-width=".24"><path d="M91 62.3c0 .03 0 .04-.03.04-.28.46-.85 1.21-1.74 1.08-1.1-.14-1.78-1.3-1.78-1.3s-.39 1.14-1.66.96c-.72-.11-1.52-1.42-1.52-1.42s.44 2.55.45 3.77c1.05.42-.17-.36 5.74.47 5.92.83 4.61 1.32 5.64 1.13.44-1.17 1.82-3.44 1.82-3.44s-1.2 1-1.93.9c-1.28-.19-1.26-1.5-1.26-1.5s-1.04 1.05-2.14.88c-.94-.14-1.21-1.09-1.29-1.6l-.3.04z"></path><path d="M97.06 65.6l-.2-.02c-.07-.04-.16-.05-.28-.07-.9-.25-2.98-.83-5.79-1.2-2.79-.38-4.98-.42-5.9-.44l-.31-.01c-.3-.01-.4-.18-.4-.3.01-.15.13-.26.34-.27l.1-.01h.06c.64-.01 2.57-.07 6.23.45s5.5 1.1 6.09 1.28l.09.04a.4.4 0 01.28.19c.05.06.05.13.01.2a.49.49 0 01-.32.16z"></path><path d="M96.27 67.4h-.12c-.19 0-.7-.16-.89-.22a58.4 58.4 0 00-9.99-1.4H84.37c-.15-.05-.29-.1-.28-.3.02-.13.1-.28.31-.29l.1-.01a51.14 51.14 0 0111.67 1.65c.15.02.21.09.27.18.04.06.04.15 0 .22 0 .07-.04.16-.17.17z"></path><path d="M87.3 64.98h-.1c-.22-.04-.39-.2-.34-.4.02-.15.18-.27.36-.28a.3.3 0 01.1.01c.23.03.4.2.35.39-.01.14-.15.26-.36.28z"></path><path d="M84.77 64.84c-.25 0-.44-.14-.48-.33a.24.24 0 01.08-.21.4.4 0 01.26-.12h.04c.06 0 .16.14.2.33 0 .13-.03.26-.07.3.02.02 0 .02-.03.03z"></path><path d="M93.88 65.9h-.1c-.23-.04-.39-.2-.35-.39.03-.15.2-.28.37-.29a.3.3 0 01.1.02c.23.03.4.2.35.38-.02.17-.18.28-.37.29z"></path><path d="M90.88 65.4c-.12.01-.25 0-.37-.01a1.46 1.46 0 01-.64-.23c-.14-.1-.22-.21-.2-.31.01-.15.27-.27.6-.3l.37.01c.26.04.47.13.64.24.14.1.22.2.2.3-.03.16-.28.28-.6.3z"></path><path d="M96.46 66.51a.87.87 0 01-.19-.02c-.03-.01-.03-.03-.03-.03-.04-.07-.01-.18.04-.31.08-.17.21-.28.28-.28h.03c.12.02.21.11.25.19.05.09.05.15 0 .22a.48.48 0 01-.38.23z"></path><path d="M96.2 64.56c-.13.02-.25 0-.37 0-.93-.15-1.24-.8-1.32-1.17-.26.2-.82.55-1.5.6-.16 0-.31 0-.47-.03-.96-.12-1.4-.9-1.55-1.34-.25.3-.76.82-1.5.87l-.33-.01a2.63 2.63 0 01-1.69-1.1c-.16.3-.57.73-1.27.78l-.4-.01c-1.17-.17-1.7-1.46-1.73-1.51-.02-.03-.02-.06 0-.07l.06-.42c0-.05.04-.08.1-.1h.03c.06 0 .11.03.12.07 0 .02.63 1.23 1.55 1.37l.19.02c.52-.04.8-.54.99-.84l.01-.03c.08-.12.14-.23.28-.24s.23.08.34.25l.13.16c.28.38.65.9 1.34 1l.22.03c.87-.06 1.33-1.21 1.35-1.22.04-.06.07-.1.11-.1h.04l.48.07c.07.02.11.07.11.14 0 .02.04 1.43 1.07 1.56.1.03.2.02.33 0 .55-.02.99-.34 1.3-.57l.17-.14c.15-.1.23-.13.32-.14.22-.01.28.22.3.33v.03c.07.38.2 1.03.81 1.1.09.02.16.03.27.03.85-.06 1.79-.92 1.81-.92.03-.02.04-.03.09-.04l.06.01c.06.03.1.08.08.13l-.03.49c0 .03-.04.06-.04.08-.02.02-.86.82-1.85.88z"></path><path d="M86.34 61.19c-.03-.17.03-.86-.8-.85-.4.01-.68.37-1.07.58.2-.43.76-.73.71-1.1-.1-.68-1-.51-1.25-.51.1.71.16 1.45.19 1.76-.1.02.05.34.05.34.83-.03 1.02.67 1.63.65.81-.02.56-.69.54-.87z"></path><path d="M91.25 61.75c.53.27.8.8 1.3.89.8.13.76-.6.79-.77.02-.18.31-.85-.5-.97-.42-.05-.8.24-1.24.4.34-.39.98-.56 1.03-.95.11-.68-.86-.7-1.1-.74s-1.15-.3-1.26.38c-.07.38.48.75.68 1.2-.4-.28-.65-.67-1.05-.73-.81-.13-.79.58-.81.77-.02.18-.29.85.53.98.48.07.92-.37 1.54-.44l.09-.01v-.01z"></path><path d="M98.93 61.36c-.23-.06-1.06-.51-1.36.12-.19.36.26.85.3 1.32-.29-.36-.42-.79-.83-.92-.77-.28-.96.44-1.02.6-.08.17-.54.78.22 1.07.56.21 1.26-.4 1.81-.15 0 0 .2-.29.14-.33l.74-1.7z"></path><path d="M98.26 62.84c-.14-.06-.37.1-.5.36-.14.25-.14.47.03.53.32.1.67-.01.8-.25.12-.27-.02-.54-.33-.64z"></path><path d="M84.15 60.93c.15 0 .3.21.36.48.04.27-.03.5-.2.5-.34 0-.63-.2-.68-.48-.05-.25.19-.5.52-.5z"></path><path d="M91.26 61.24c-.37-.06-.7.13-.75.43-.05.3.18.57.56.62.36.06.7-.13.75-.43.06-.28-.2-.55-.56-.62z"></path></g><path fill="none" d="M116.04 108.1c.56-.67 1.08-1.37 1.52-2.11a7.64 7.64 0 002.94-3.19"></path><path fill="#F6F6F6" d="M86.17 69.95c-1.98.22-1.92-1.6-1.89-1.78.22.02 1.84-.5 2.4-.24.32.22.71 1.85-.5 2.02z"></path><path d="M112.09 65.96c.32-1.02-.8-1.01-.13-2.8-.11-.05-1.88.23-1.73 2.6"></path><path d="M116.37 77.05c1.02-.3.4-1.23 2.26-1.65-.02-.11-1.23-1.44-3.1-.01"></path><path d="M117.62 86.44c1.07-.14.6-1.15 2.5-1.28-.01-.13-.99-1.62-3.08-.5"></path><path d="M115.9 97.06c.92.53 1.16-.56 2.76.5.06-.1.18-1.89-2.15-2.26"></path><path d="M111.8 102.75c.53.93 1.3.12 2.12 1.83.1-.05 1.13-1.52-.69-3.03"></path><path d="M106.97 106.7c.18 1.05 1.17.55 1.37 2.45.12-.01 1.58-1.05.4-3.1"></path><path d="M100.78 107.64c-.2 1.06.91.92.45 2.77.11.04 1.84-.44 1.42-2.77"></path><path d="M96.54 107.21c-.44.86.56 1.04-.32 2.52.08.06 1.71.09 1.93-2.05"></path><path d="M92.23 105.56c-.56.8.41 1.1-.68 2.44.1.07 1.69.33 2.21-1.73"></path><path d="M91.87 106.43c.18-.71-.36-1.26-.98-1.72-.4-.04-.77.25-1.14.41a.19.19 0 01-.13.02c-.07-.02-.1-.1-.11-.16-.23-1.1.07-2.31.82-3.15-.23-.2-.38-.7-.42-1-.17-1.4.7-2.67 2.67-2.67.1-.06.4.15.5.1.52-.19 1.1-.04 1.6.2s.96.53 1.5.68c.75.2 1.59.03 2.27-.37s1.42-.9 1.6-1.67a2.3 2.3 0 00-.21-1.57c-.17-.32-.41-.6-.52-.94-.23-.75.44-1.44.23-2.2-.67-1.34-1.66-1.2-1.67-2.13 0-.86-.15-1.02-.4-1.84-.14-.47-.33-.69-.33-1.2 0-.6.27-1.55.82-2.03 1.3-1.14 2.46-.98 4.3-2.76 2.24-2.15 3.56-5.12 4.77-7.98a24.71 24.71 0 001.68-5.65c.18-1.07.84-2.88 1.38-3.48.7.17 1.4.29 2.13-.05.3.7.18 1.48.15 2.23-.52 4.62.26 8 3.37 7.51a2.9 2.9 0 001.11 2.03 8.32 8.32 0 00-1.71 2.94c-.31.9-.4 2.45.2 3.3a2.59 2.59 0 002.05 1.13c-.06.63.33 1.54.93 1.77-2.68 1.46-3.16 7.26-1.43 9-.38.53-.5 1.47-.32 2.09-2.88.12-3.47 3.15-2.66 4.83-.63 0-1.18.88-1.31 1.34-3.46-.03-3.67 3.19-3.53 3.74-.5-.11-1.17.1-1.49.5-.56-.97-1.7-1.28-2.8-1-.94.22-1.86.95-2.06 2.53-.35-.25-1.21-.26-1.64-.25-.09-.45-.46-.91-.9-1.07s-1.48-.18-2.18.67c-.44-.33-.92-.35-1.45-.28a1.59 1.59 0 00-1.25-1.29c-1.02-.2-1.85.27-1.85.27a1.84 1.84 0 00-1.59-.83z"></path><path d="M113.32 136.72c.12-.1.52-.46.68-.5.48-.06 1.34.26 1.89.99.64.84.9 2.03.72 2.18-.22.16-.5-.1-.66-.26-.4-.4-.5-.82-1.44-.92-.35-.03-.73.13-1.06-.01-.05-.02-.1-.17-.13-.2-.07-.08-.1-.18-.12-.28-.09-.35-.15-.78.12-1z"></path><path d="M102.32 138.85a1.4 1.4 0 00-.9.25c-.44.35-.68.78-.9 1.3-.22.6-.35 1.74.08 2.16.4.4.42.03.51-.31.13-.47.32-.92 1.02-1.33.48-.3.85-.15 1.07-.21"></path><path d="M99.62 135.82c-.1-.13-.4-.58-.54-.64-.44-.17-1.36-.06-2.06.51-.82.67-1.35 1.77-1.23 1.94.17.22.51.02.7-.1.49-.29.67-.67 1.63-.54.35.04.68.3 1.03.24.06-.01.14-.13.18-.17a.58.58 0 00.19-.24c.16-.3.32-.71.1-1z"></path><path d="M100.77 137.82c-.14.1-.14.21-.28.3-.3.18-.65.16-1.02.07-.2-.06-.82-.41-.61-.8.1-.23.72-.69.45-1.67-.07-.25-.34-.56-.34-.56s-.08-.45.6-.45c.77.01 1.16.6 1.16.6.44-.06.93.33 1.22.3.12-.02.23-.06.35-.1.6-.17 1.08-.04 1.67 0 .21 0 1.23-.04 1.42-.14.16-.08.65-.17.78-.3.23-.18.04-.2.3-.38.32.37-.29.86-.34 1.35-.03.32-.1.65-.3.9-.25.33-.67.47-1.08.57a9.2 9.2 0 01-2.45.23c-.18-.01-.34-.01-.45-.15-.39.07-.81-.12-1.36.29"></path><path d="M98.66 138.1c-.12-.1-.52-.46-.68-.5-.48-.06-1.33.26-1.88.98-.65.85-.9 2.04-.73 2.18.22.17.5-.1.66-.25.4-.4.5-.83 1.44-.93.35-.03.73.14 1.06 0 .05-.03.1-.17.13-.2.08-.08.1-.18.12-.28.09-.34.15-.77-.12-1z"></path><path d="M110.92 135.34c-1.03-.8-1-1.36-1.2-2.4-1.4-6.92-1.2-11.4-1.06-10.8l-4.15 2.11c.72 1.38 2.32 3.34 2.44 8.37.01.66-.1 1.01-.18 1.48-.43.94-1.37 1-2.16 1.35-.47.2-.88.76-1.01.87-.17.13-.36.23-.57.26-.6.1-1.08.09-1.63.39-.11.05-.21.12-.32.16-.26.1-1.02.02-1.49.19 0 0-.51-.47-1.26-.3-.66.16-.48.58-.48.58s.34.24.47.47c.5.89 0 1.48-.05 1.72-.1.44.58.64.8.64.37 0 .71-.06.96-.3.13-.13.1-.36.21-.48.44-.52.82-.4 1.18-.55.4-.17.84-.35 1.21.09.44.51.36 1.19.42 1.45.08.35.42.68 1.1.33.52-.26.68-.74.66-1.07-.01-.1.06-.17.12-.25.07-.1.16-.18.26-.25.59-.45.82-1.25 1.55-1.47.17-.05.35-.07.51-.12.19-.05.36-.17.55-.25a.8.8 0 01.28-.09c.38-.05.75.22 1.12.32.26.07.53 0 .8-.01.6-.02 1.3.2 1.74.63.1.12.09.24.2.35.25.24.6.3.98.3.22 0 .89-.2.79-.63-.06-.23-.54-.84-.05-1.73.14-.23.48-.46.48-.46s.17-.43-.49-.58c-.75-.18-1.26.3-1.26.3a4.8 4.8 0 01-1.47-.62z"></path><path fill="none" d="M101.42 139.1c.08-1.43 1.44-1.28 1.76-1.04.08.05.22-.1.26-.17.1-.15.22-.26.37-.38"></path><path d="M109.04 113.83c.41.44.88 1.66.96 2.26.04.34.23 1.12.28 1.47.08.84.52 1.6.95 2.33.27.44.45.94.6 1.43.15.54.2 1.12.45 1.62.18.4.48.74.84.98-.46.44-1.38.63-1.89.39.07.99.66 2 .5 2.89 0 .06-.1.09-.1.02a5.28 5.28 0 01-1.9-1.7c-.24-.41-.35-.88-.59-1.28s-.7-.72-1.15-.62a4.32 4.32 0 01-.26 3.7 6.94 6.94 0 00-2.23-2.32c-.08-.05-.19-.09-.25-.02-.04.03-.04.07-.05.1-.06.38-.2.75-.25 1.13-.08.78-.44 1.87-1.04 2.3.03-.52 0-1.03-.26-1.58-.17-.37-.68-.78-.77-1.17-.09-.41-.26-.84-.56-1.13a2.18 2.18 0 01-.98 1.61 5.1 5.1 0 00-.67-1.92c-.12-.21-1.67-1.9-1.96-2.74-.9-1.22-.93-3.06-.95-4.79"></path><g fill="#000" stroke="none"><path d="M78.42 124.15c-.09.17-.19.32-.33.44a.82.82 0 01-.23.14 2.2 2.2 0 00-.23.11l.17-.17.16-.19c.07-.13.12-.28.14-.44l.32.11z"></path><path d="M76.19 124.71c-.05.18-.11.35-.22.5-.06.08-.12.15-.2.2s-.13.1-.19.17c.03-.08.09-.15.13-.22s.08-.14.1-.22c.05-.14.05-.3.04-.46l.34.03z"></path><path d="M78.14 127.72a2.13 2.13 0 01.04 1.03.99.99 0 01-.15.3c.05-.1.06-.2.06-.31s-.01-.21-.03-.32c-.05-.21-.12-.4-.22-.58l.3-.12z"></path><path d="M78.83 127.68c.24.03.48.11.69.21l.32.14.32.16.3.16.3.15c.1.04.21.03.32.04.12.01.23.03.34.07-.1-.03-.23-.03-.34-.03-.1.01-.23.03-.35 0l-.34-.1-.32-.14c-.21-.09-.43-.14-.65-.2s-.42-.12-.64-.12l.05-.34z"></path><path d="M83.27 131.44c0 .3.01.6.06.9s.13.56.26.8l-.3.13c-.1-.3-.14-.62-.14-.92.02-.31.08-.6.12-.9z"></path><path d="M85.89 133.1a1.1 1.1 0 00-.46.03l-.22.08-.22.13.17-.2a.76.76 0 01.2-.17c.15-.1.33-.15.52-.2v.33z"></path><path d="M87.56 125.91c-.13.38-.32.74-.57 1.06-.24.32-.55.6-.87.83s-.66.44-1 .64c-.32.21-.63.42-.88.73.06-.19.16-.38.3-.52.14-.15.3-.29.45-.42.3-.25.63-.46.94-.7s.6-.46.88-.73c.27-.28.5-.58.75-.89z"></path><path d="M89.88 121.18a3.35 3.35 0 001.52-1l.6-.74c.2-.24.43-.47.7-.66-.25.21-.44.45-.63.7s-.35.54-.54.8a3.6 3.6 0 01-1.53 1.2l-.12-.3z"></path><path d="M88.44 118.64c0-.11.11-.33.22-.44l.22.11c0 .11-.11.33-.11.44z"></path><path d="M92.44 122.77a13.04 13.04 0 011.58-1.74c.2-.16.41-.32.51-.58-.07.26-.26.46-.45.63s-.34.38-.5.58-.29.42-.44.63a8 8 0 00-.41.65l-.29-.18z"></path><path d="M93.66 125.94a1.8 1.8 0 01.2-.89c.13-.26.3-.51.48-.73.17-.24.36-.44.55-.66l.55-.66-.49.7c-.16.24-.33.47-.47.71a3.4 3.4 0 00-.38.75c-.1.26-.12.52-.08.78h-.36z"></path><path d="M94.93 118.09c-.11.33-.33.55-.44.77-.22.22-.33.55-.55.66-.22.22-.44.44-.77.66.22-.33.33-.55.55-.77.11-.22.33-.44.44-.66l.55-.77z"></path><path d="M96.2 120.17l-.36.55c-.1.18-.18.35-.26.55-.07.2-.14.4-.24.61-.1.2-.28.41-.49.49.14-.19.2-.38.25-.58.05-.2.1-.41.17-.63.05-.11.09-.22.16-.32s.13-.2.21-.28c.17-.16.35-.28.55-.4z"></path><path d="M98.1 120.27c-.06.23-.14.44-.22.65a34.55 34.55 0 01-.86 1.84 2.4 2.4 0 01.08-.69 4.22 4.22 0 01.55-1.26c.13-.21.27-.39.46-.54z"></path><path d="M91.41 118.64c-.11.22-.66.77-.88.88-.22.22-.44.33-.66.22a.86.86 0 00.44-.44c.22-.11.44-.55.55-.77z"></path><path d="M105.93 70.04c-.66 4.2-3.3 9.56-4.29 13.18l-.33-.11c1.32-4.07 3.63-9.12 4.62-13.07z"></path><path d="M131.02 80.26c-.17.4-.32.8-.42 1.22s-.16.84-.22 1.27l-.13 1.28a13 13 0 01-.2 1.3l-.32-.09c.11-.4.2-.82.28-1.24s.13-.85.2-1.27.18-.85.3-1.27c.15-.42.31-.81.51-1.2z"></path><path d="M130.44 78.63a7.54 7.54 0 00-1.54 3.14c-.31 1.13-.44 2.3-.82 3.45l-.3-.1c.4-1.1.6-2.26.96-3.4.18-.56.4-1.12.69-1.64.27-.53.61-1 1-1.45z"></path><path d="M89.02 67.9c-.27-.2-.56-.34-.87-.47a9.46 9.46 0 00-1.9-.51c-.33-.06-.65-.11-.99-.14.33-.1.68-.13 1.02-.11s.69.06 1.03.15c.33.09.66.2.95.4.3.16.59.4.76.69z"></path><path d="M85.2 68.18c.22-.06.36.01.42.17.11.3-.33.24-.27.55.07.3.45.4.14.5 0 0-.48 0-.6-.5-.05-.2-.01-.6.32-.72z"></path><path d="M84.24 68.33c-.11-.03-.23-.06-.33-.14s-.16-.17-.19-.27a1.02 1.02 0 01-.01-.57c.01.08.02.18.06.26.02.09.06.17.1.23s.12.11.17.13a.4.4 0 00.2.01v.35z"></path><path d="M87.8 68.27c-.1-.09-.23-.14-.35-.19s-.25-.06-.39-.07c-.26-.03-.52 0-.79.02v-.33c.28.02.56.07.84.14.13.05.26.09.4.17.1.06.2.15.3.26z"></path><path d="M94.7 75.9c-.18-.24-.3-.51-.38-.79s-.1-.56-.12-.83c.07.27.16.54.28.78s.29.46.47.64l-.25.2z"></path><path d="M96.69 69.95a4.6 4.6 0 01-2.27-.32 4 4 0 002.2 0l.07.32z"></path><path d="M93.28 77.67a1.9 1.9 0 01-.25-.43c-.07-.16-.11-.31-.16-.45s-.1-.3-.17-.41-.21-.22-.36-.28c.16.04.3.11.42.23.11.13.2.27.27.4.07.14.14.28.22.4s.17.23.27.32l-.24.22z"></path><path d="M91.3 83.4a2.05 2.05 0 01-.97-1.41c.11.26.27.5.45.7s.42.32.66.4l-.14.3z"></path><path d="M80.18 84.68c.19.08.4.12.63.13s.44 0 .67-.04c.22-.03.45-.09.67-.14s.45-.12.67-.16c-.22.06-.44.16-.65.24-.22.07-.44.16-.66.22-.23.06-.46.1-.7.13s-.5 0-.74-.07l.1-.3z"></path><path d="M82.07 67.24c.05 0 .09.04.12.07l.08.12c.03.1.04.2.04.3l-.03.14-.07.14a.7.7 0 01-.22.22c-.04.03-.1.05-.16.06s-.13.01-.19 0c-.06 0-.12-.04-.16-.07s-.1-.08-.12-.15a.32.32 0 010-.33l.1-.1.07-.04c.02-.01.06 0 .07.01-.02 0-.04.01-.05.03a.08.08 0 00-.02.05l-.02.1c0 .06.02.12.05.14s.1.04.13.04.07 0 .12-.04a.69.69 0 00.3-.48v-.11a.19.19 0 00-.04-.1z"></path><path d="M81.27 67.15a1.95 1.95 0 00-.63 1.1c-.02.14-.03.3.06.43-.1-.11-.14-.29-.14-.44s.03-.31.06-.46c.08-.31.2-.6.42-.86l.23.23z"></path><path d="M79.31 69.35v.15c-.11.21-.22.19-.33.06 0-.14.11-.17.33-.21z"></path><path d="M78.65 69.3c.11.26-.11.39-.33.27.11-.19.22-.24.33-.28z"></path><path d="M78.1 69.3c-.11.2-.22.21-.44.21 0-.28.22-.35.44-.22z"></path><path d="M77.44 69.3v.16c-.11.14-.22.08-.33-.01 0-.19.11-.18.33-.14z"></path><path d="M70 75.92c.59.06 1.17 0 1.7-.18a3.75 3.75 0 001.43-.91c.22-.2.43-.41.67-.6s.52-.34.8-.45a3.1 3.1 0 011.77-.18 3.92 3.92 0 00-2.04.63l-.34.26c-.22.17-.43.38-.64.59a3.36 3.36 0 01-1.57.91 3.17 3.17 0 01-1.79-.07z"></path><path d="M73.66 81.03c-.01-.26.02-.53.06-.8.06-.25.11-.52.26-.77s.37-.45.61-.58c.24-.15.5-.22.75-.32s.48-.17.7-.29c.22-.11.43-.26.62-.43s.35-.36.46-.58c.12-.22.18-.48.16-.74.04.12.06.27.06.4s-.03.27-.06.4c-.05.14-.11.26-.18.38a2.6 2.6 0 01-.9.84c-.25.15-.5.25-.75.33s-.5.17-.72.28-.4.25-.55.45c-.13.2-.23.44-.32.68-.07.23-.15.49-.2.75z"></path><path d="M78.7 75.8a3.2 3.2 0 001.36.38c.15 0 .3 0 .46-.02.32-.03.64-.09.99-.1.18 0 .34.01.52.05.16.05.33.13.46.24-.33-.1-.64-.08-.95-.03-.32.06-.63.14-.96.17-.17 0-.35.02-.52 0s-.35-.06-.5-.12a1.8 1.8 0 01-.87-.58z"></path><path d="M65.93 71.42c.64.27 1.3.43 1.97.5.34.03.67.04 1.01.04l1.03-.01c.68-.02 1.37-.05 2.08.06l.51.11c.17.06.34.11.5.2.32.16.6.38.8.67a2.78 2.78 0 00-1.85-.73c-.33-.02-.67-.03-1-.02-.35 0-.69.02-1.03.04-.68 0-1.39 0-2.08-.11a4.63 4.63 0 01-1.94-.75z"></path><path d="M75.63 74.33c.17-.06.37-.08.57-.05.18.02.37.07.56.14.35.12.68.3 1.01.38a1.92 1.92 0 00.52.1c.18.01.37.04.56.08s.37.1.54.2.32.22.43.37a2.1 2.1 0 00-1.02-.32l-.53-.03-.3-.02-.29-.06c-.38-.1-.7-.3-1.02-.47-.33-.16-.65-.3-1.03-.32z"></path><path d="M88.6 71.7a3.42 3.42 0 01.98.94 3.28 3.28 0 01.6 1.23c-.17-.17-.31-.33-.45-.5l-.41-.53c-.13-.17-.25-.37-.37-.55s-.25-.39-.35-.6z"></path><path d="M90.7 71.1c.2-.02.37-.07.56-.1s.37-.06.58-.03a.81.81 0 01.56.31c.13.18.18.37.2.57-.14-.14-.27-.29-.39-.39s-.26-.14-.41-.16-.35-.03-.53-.04a1.32 1.32 0 01-.56-.16z"></path><path d="M93.83 71.4c.2-.03.4.02.58.1s.37.18.5.32.27.31.35.5.11.38.09.58c-.11-.16-.21-.32-.32-.46a4.4 4.4 0 00-.74-.74l-.46-.3z"></path><path d="M92.04 73.58l.12.3.06.28.05.27v.32a.61.61 0 01-.24-.23c-.06-.1-.1-.2-.13-.3s-.02-.23 0-.34c.02-.1.06-.2.14-.3z"></path><path d="M90.53 76.64c-.01.34.04.67.17.96.06.14.14.27.24.4l.3.41.13.25a2.24 2.24 0 01.1.81c-.04.35-.11.67-.14 1.01-.1-.33-.1-.68-.12-1.01a1.5 1.5 0 00-.25-.87c-.09-.13-.19-.26-.28-.42-.1-.14-.18-.32-.23-.5-.1-.36-.07-.73.08-1.04z"></path><path d="M89.27 79.35c.04.2.03.4-.02.6-.04.19-.1.37-.15.54l-.15.52c-.04.18-.07.35-.07.55a.97.97 0 01-.2-.57c0-.21.04-.41.1-.6s.14-.36.22-.53l.27-.51z"></path><path d="M86.99 81.77c.02.13 0 .25-.03.37a1.1 1.1 0 01-.2.31c-.08.09-.18.17-.29.22s-.23.08-.36.07l.2-.28.22-.23.2-.22c.07-.09.15-.17.26-.24z"></path><path d="M87.92 84.32a.8.8 0 01.12.39c0 .14-.02.27-.05.4-.08.27-.2.49-.29.7s-.16.46-.22.7-.1.48-.14.75a2.17 2.17 0 01.06-1.56c.1-.26.24-.47.35-.69s.2-.43.17-.69z"></path><path d="M84.59 85.14c.01.21-.03.43-.12.63a1.79 1.79 0 01-.91.9c-.2.08-.42.12-.63.1.18-.1.34-.22.5-.33s.3-.24.42-.37.27-.28.38-.43c.13-.15.24-.3.36-.5z"></path><path d="M80.62 87.59c-.18.16-.35.3-.54.43l-.54.38-.5.4c-.19.14-.31.32-.47.5.03-.24.14-.47.27-.67.14-.2.3-.36.5-.5.19-.15.4-.26.6-.36.22-.06.44-.14.68-.18z"></path><path d="M85.2 89.8c.02.15 0 .3-.06.44l-.19.38a4.56 4.56 0 00-.56 1.44c-.05.26-.08.53-.09.8a2.26 2.26 0 010-1.67c.1-.26.27-.51.45-.72.17-.21.36-.4.44-.66z"></path><path d="M86.99 91.66a3.97 3.97 0 01.03 1.6c-.05.27-.13.5-.18.75s-.05.48.07.73a.59.59 0 01-.25-.33 1.1 1.1 0 01-.07-.42c0-.29.07-.55.11-.8.06-.25.1-.5.14-.75l.15-.78z"></path><path d="M88.4 96.21c.03.18.06.33.13.47s.13.26.24.37c.1.1.23.22.34.36.06.08.11.15.14.24s.06.19.04.28a1.1 1.1 0 00-.36-.33c-.13-.1-.27-.19-.4-.33s-.23-.33-.24-.53a.64.64 0 01.12-.53z"></path><path d="M85.1 94.55c0 .3-.05.58-.1.86-.04.28-.1.56-.15.83l-.08.42a.65.65 0 00-.01.35c.02.11.1.22.18.35s.18.26.17.41c-.13-.26-.43-.33-.6-.66a.88.88 0 01-.06-.5l.07-.42a5.54 5.54 0 01.59-1.64z"></path><path d="M87.45 89.28c.17.22.3.44.43.67s.23.49.3.74.13.52.16.78c.02.26.03.53.01.8-.1-.25-.18-.5-.26-.76l-.21-.73c-.07-.24-.14-.49-.23-.74a3.5 3.5 0 01-.2-.76z"></path><path d="M82.62 88.97c.07.17.04.38-.02.54-.07.18-.19.33-.3.46s-.26.26-.38.38a5.52 5.52 0 00-.93 1.2c-.17.3-.33.6-.47.92.01-.35.11-.71.24-1.04a3.77 3.77 0 011.34-1.64c.14-.11.26-.22.35-.36.1-.12.16-.28.17-.46z"></path><path d="M82.37 94.77c-.02.39-.22.75-.35 1.08a5.9 5.9 0 00-.42 2.13c0 .36.02.73.22 1.07-.16-.12-.27-.3-.34-.47a2.08 2.08 0 01-.15-.58 3.78 3.78 0 01.44-2.26c.21-.34.44-.62.6-.97z"></path><path d="M86.28 100.33c.06.28.08.58.1.86s0 .58-.02.87l-.03.43-.05.42c0 .13 0 .26.05.39s.1.24.23.33c-.16-.02-.29-.13-.38-.26s-.13-.3-.15-.45-.01-.3-.01-.45l.01-.43a6.96 6.96 0 01.25-1.72z"></path><path d="M79.36 95.48c0 .3-.16.59-.34.82-.18.23-.4.43-.62.62s-.44.35-.64.53-.38.4-.5.66c-.02-.3.12-.59.3-.83.19-.24.4-.44.63-.62.22-.18.45-.35.65-.54s.38-.38.52-.63z"></path><path d="M78.45 91.48c.03.14 0 .3-.06.45s-.16.28-.25.39l-.3.33a10.8 10.8 0 00-.82.96l-.52.7a3.8 3.8 0 011.12-1.9c.12-.08.23-.17.34-.27.2-.19.4-.37.5-.66z"></path><path d="M75.3 93.16a8.1 8.1 0 00-.82 1.39 8.37 8.37 0 00-.45 1.53c-.09-.28-.1-.56-.08-.84a2.76 2.76 0 01.67-1.55c.2-.2.42-.4.68-.53z"></path><path d="M74.65 97.58l-.39.86c-.12.28-.23.59-.33.87-.04.15-.1.3-.13.44-.05.16-.08.3-.1.44s-.02.29.02.43.12.28.25.36c-.16-.02-.3-.14-.4-.3-.09-.15-.13-.32-.13-.5s.02-.34.05-.5c.03-.16.08-.31.12-.47a3.77 3.77 0 011.03-1.64z"></path><path d="M76.65 100.22a2.3 2.3 0 01-.1 1.73l-.36.75c-.11.24-.2.5-.2.8-.13-.27-.12-.6-.05-.89s.2-.55.31-.8.21-.5.27-.76c.06-.27.1-.55.13-.83z"></path><path d="M79.76 99.49c.09.15.13.32.15.5s0 .36-.06.53c-.08.19-.2.31-.3.42-.1.12-.22.21-.2.39-.07-.06-.1-.17-.1-.27s.05-.18.08-.26c.08-.16.18-.29.22-.4.06-.13.09-.27.11-.43s.05-.3.1-.48z"></path><path d="M83.27 101.07c-.09.27-.19.5-.26.76s-.16.5-.21.75-.08.5-.05.75.1.5.25.74a1.2 1.2 0 01-.5-.69 1.75 1.75 0 01-.02-.85c.05-.3.16-.54.3-.79.12-.25.28-.48.49-.67z"></path><path d="M80.52 103.33c.04.23.01.46-.06.68s-.15.42-.25.62l-.3.57c-.1.19-.18.37-.27.58-.04-.22-.02-.46.03-.68s.16-.43.24-.62l.31-.57.3-.58z"></path><path d="M77.84 104.78c.04.3.02.62-.03.92s-.14.6-.22.9c-.07.27-.13.55-.06.8.03.13.09.25.17.36s.2.2.36.23c-.16.04-.33 0-.47-.1a.93.93 0 01-.37-.66l-.01-.25c.01-.17.04-.33.08-.47.08-.31.2-.58.28-.86l.27-.87z"></path><path d="M75.54 105.95c.03.22.03.41.04.62.01.2.02.4.05.59s.07.36.14.53c.08.18.16.35.32.51-.22-.04-.41-.19-.54-.37s-.22-.4-.24-.63a2.19 2.19 0 01.23-1.25z"></path><path d="M87.93 102.5c.05.32.06.64.08.96l.03.95c.01.31.04.62.07.93s.09.63.14.95a3.59 3.59 0 01-.54-1.87c0-.33 0-.65.04-.98.03-.31.08-.63.18-.95z"></path><path d="M84.77 104.44c.12.32.13.68.13 1.01s0 .66.08.95.26.54.47.8l.3.43c.1.16.15.32.16.5-.16-.31-.4-.51-.65-.75a3.95 3.95 0 01-.35-.39l-.14-.23a1.29 1.29 0 01-.1-.26c-.1-.37-.07-.73-.03-1.06.05-.34.11-.66.13-1z"></path><path d="M82.11 106.39c.05.2.07.4.1.59l.16 1.14c.02.2.05.39.06.6-.14-.16-.23-.34-.3-.53a2.6 2.6 0 01-.17-1.21c.01-.2.07-.4.16-.6z"></path><path d="M111.58 106.66l.83-.14a8.1 8.1 0 001.54-.53c.25-.11.5-.25.75-.39-.17.25-.38.44-.62.62-.24.17-.5.3-.78.4s-.57.15-.86.16c-.3 0-.58-.03-.86-.12z"></path><path d="M111.4 109.83c.18-.1.36-.18.54-.25l.51-.22c.18-.07.35-.15.53-.21s.36-.14.56-.18c-.12.17-.27.3-.44.4s-.34.22-.53.3-.37.13-.57.15c-.19.03-.38.04-.6 0z"></path><path d="M115.83 103.35c.11-.88.88-1.65 1.76-1.65-.66.44-1.21 1.1-1.76 1.65z"></path><path d="M118.36 102.69c.77-.66.99-1.87 1.87-1.98-.77.55-.99 1.98-1.87 1.98z"></path><path d="M116.73 100.38c0-.06.01-.12.05-.18s.07-.1.12-.13c.07-.08.16-.15.25-.22.18-.14.37-.26.57-.36.21-.1.43-.18.66-.21s.47-.02.7.07c-.24.05-.43.1-.63.18l-.59.26-.58.28c-.1.05-.2.1-.3.13-.1.05-.2.08-.25.18z"></path><path d="M120.3 97.49c.28-.07.56-.1.83-.12l.82-.04c.27 0 .5-.04.74-.13l.76-.3c-.18.2-.4.39-.65.53a1.56 1.56 0 01-.84.22c-.28.01-.54 0-.82-.03a5.3 5.3 0 01-.83-.13z"></path><path d="M122.2 95.03c.34-.03.67-.08 1.01-.13s.7-.06 1.06.02c.36.08.68.28.94.5.28.22.5.45.77.68-.33-.1-.62-.3-.91-.47a3.19 3.19 0 00-.87-.39c-.3-.06-.64-.07-.97-.08-.34 0-.7-.02-1.03-.13z"></path><path d="M126.75 98.72a4.03 4.03 0 011.44.75c.21.17.41.38.55.62s.26.51.28.78a5.83 5.83 0 00-.47-.62c-.18-.19-.37-.37-.57-.53l-.6-.48a7.11 7.11 0 01-.63-.52z"></path><path d="M127.4 101.14c.2.16.34.38.46.61.11.24.2.49.24.74.03.25.03.52 0 .78-.05.26-.13.5-.27.73l.01-.74a7.85 7.85 0 00-.2-1.4l-.24-.72z"></path><path d="M129.72 103.71c.1.23.11.48.1.72a2.48 2.48 0 01-.5 1.34c-.15.19-.32.36-.53.47l.32-.61a6.1 6.1 0 00.46-1.26l.15-.66z"></path><path d="M126.36 105.54c.04.24-.05.5-.18.71-.13.22-.32.4-.53.53a6.4 6.4 0 01-1.32.56c.17-.18.37-.33.55-.46l.59-.37c.19-.12.35-.27.5-.42.16-.14.29-.32.39-.55z"></path><path d="M123.14 106.14c-.16.1-.33.15-.48.2-.16.06-.32.1-.48.13a3.94 3.94 0 01-1.03.15c.14-.12.29-.22.45-.3a2.65 2.65 0 011.02-.24c.17 0 .35 0 .52.06z"></path><path d="M125.21 108.97c-.2.17-.41.29-.66.39a3.33 3.33 0 01-1.5.24c-.26-.02-.51-.07-.75-.18.25-.03.5-.05.73-.09s.49-.05.72-.1c.24-.03.47-.07.71-.12.27-.04.5-.1.75-.14z"></path><path d="M127 109.31c.2-.16.46-.27.72-.34s.54-.08.77-.09c.24-.02.45-.06.65-.18s.36-.3.5-.53a1 1 0 01-.33.74 1.35 1.35 0 01-.8.32c-.27.02-.51 0-.76.02a3.6 3.6 0 00-.75.06z"></path><path d="M131.05 102.61c-.03-.24-.03-.47-.04-.7l-.01-.68c-.01-.22-.02-.44-.06-.66s-.08-.44-.16-.67c.19.15.32.37.42.59a2.59 2.59 0 01.07 1.43c-.04.25-.1.47-.22.7z"></path><path d="M129.67 98.3a.5.5 0 01-.32-.12.93.93 0 01-.23-.28c-.12-.2-.16-.44-.19-.63-.03-.21-.06-.39-.14-.55-.09-.17-.21-.32-.42-.38.1-.04.23-.03.34.01s.21.13.29.21.14.21.17.32c.05.11.07.22.08.33.03.21.04.4.1.6s.13.36.32.5z"></path><path d="M120.36 94.64c-.15.09-.3.14-.46.19a3.8 3.8 0 01-.94.11 1.85 1.85 0 01-.48-.08c.16-.09.3-.14.46-.19l.47-.09c.16-.03.31-.02.47-.02.15.01.32.02.48.08z"></path><path d="M123.87 98.03a3.44 3.44 0 011.04-.55c.2-.06.4-.1.6-.08s.42.08.57.2c-.2 0-.38.03-.56.06s-.35.08-.53.14l-.54.16c-.17.03-.37.08-.58.07z"></path><path d="M121.08 108.08a1.5 1.5 0 01-.97.35c-.18 0-.35-.02-.52-.06a1.43 1.43 0 01-.46-.25h.97l.47-.02c.17-.02.33-.02.5-.02z"></path><path d="M117.25 108.64c.16.1.3.22.43.35l.35.38c.06.05.11.1.18.14.05.04.12.08.2.11l.26.12c.09.05.16.11.2.2-.18-.06-.33-.03-.52-.07a.94.94 0 01-.55-.27c-.14-.14-.24-.3-.33-.46-.09-.15-.17-.31-.22-.5z"></path><path d="M120.38 109.63c.21.02.41.13.58.24.16.12.3.26.45.37s.28.2.45.28.34.13.54.19a1 1 0 01-.63.05c-.2-.03-.42-.14-.58-.27s-.3-.29-.42-.43-.23-.29-.39-.43z"></path><path d="M117.15 104.56c-.33.33-.55.88-.77 1.32a2.3 2.3 0 01-.44.66c.22-.55.22-1.21.66-1.65.11-.11.33-.33.55-.33z"></path><path d="M110.02 110.03c-.12.12-.24.2-.36.3l-.35.28-.36.26c-.12.1-.24.2-.4.27.04-.17.12-.32.22-.45s.2-.26.34-.35.27-.18.43-.24c.15-.04.32-.08.48-.07z"></path><path d="M106.62 109.33a.12.12 0 00-.1.06l-.06.1c-.03.08-.1.15-.16.23a1.38 1.38 0 01-1 .45c-.18 0-.37-.03-.54-.13l.51-.13a3.15 3.15 0 00.87-.4l.2-.14.14-.07c.06-.01.11-.01.14.03z"></path><path d="M105.72 107.78a2.28 2.28 0 01-.86.2c-.14.02-.28.03-.43.02s-.3-.02-.45-.06c.14-.1.28-.16.42-.2a2.16 2.16 0 01.88-.09c.14.03.3.07.44.13z"></path><path d="M97.79 110.94a7.88 7.88 0 01-1.7.15 3.86 3.86 0 01-.86-.13c-.28-.07-.55-.2-.78-.38.28.05.55.1.82.12.28.03.55.04.83.05.56.06 1.13.07 1.69.19z"></path><path d="M91.38 109.1c.2-.08.43-.13.64-.15a4.27 4.27 0 011.3.05c.2.05.41.1.62.2a3.3 3.3 0 01-.65.06h-.64l-.63-.05c-.21-.03-.43-.05-.64-.12z"></path><path d="M88.37 108.78a5.48 5.48 0 001.39 1.55c.18.16.37.3.55.48a2.65 2.65 0 01-1.3-.7 2.02 2.02 0 01-.45-.61c-.1-.21-.19-.46-.19-.72z"></path><path d="M92.08 113.4c.23-.12.47-.2.73-.26l.36-.09c.12-.02.24-.05.37-.06s.28-.03.42 0c.16.04.29.12.39.2.2.16.34.36.58.47a.93.93 0 01-.39-.08l-.33-.18a.89.89 0 00-.63-.09l-.35.05-.38.03c-.25.01-.5.02-.77 0z"></path><path d="M86.46 111.61c.01.25.14.45.29.6.15.16.35.27.56.38l.64.33.64.35a2.86 2.86 0 01-1.44-.4 1.74 1.74 0 01-.6-.49.93.93 0 01-.16-.37.61.61 0 01.07-.4z"></path><path d="M82.72 110.58c.24.13.43.36.56.6.07.12.12.24.17.38.04.12.08.26.13.37s.09.2.16.26.18.12.29.17l.36.14c.12.05.26.12.34.23-.26-.09-.5-.06-.78-.12a.98.98 0 01-.42-.17.9.9 0 01-.26-.4l-.11-.39a3 3 0 00-.11-.36 3 3 0 00-.33-.71z"></path><path d="M79.1 109.92c.11 0 .2-.03.3-.06.05 0 .1-.03.17-.03s.15.02.2.04c.12.06.21.13.29.19a5.65 5.65 0 01.7.64c.13.15.27.32.38.5a4.58 4.58 0 01-1.06-.69l-.23-.2c-.08-.09-.14-.16-.21-.2-.03-.03-.07-.05-.1-.06l-.13-.02-.17-.03c-.05-.02-.1-.04-.14-.08z"></path><path d="M80.74 112.65c.3-.1.6-.17.94-.2.31-.01.65.03.96.16.16.07.31.17.43.28s.23.23.33.35c.2.23.38.47.67.6a.92.92 0 01-.47-.13 2.7 2.7 0 01-.38-.28l-.35-.3a1.89 1.89 0 00-.36-.22c-.25-.11-.55-.17-.85-.2s-.6-.03-.92-.06z"></path><path d="M85.69 115.63a1 1 0 00.4.13l.2.04.21.04.83.1c.28.04.56.07.85.13s.57.13.83.26h-.86c-.28-.01-.57-.02-.85-.06a4.57 4.57 0 01-1.27-.36c-.13-.06-.27-.15-.34-.28z"></path><path d="M89.67 114.92c.29-.09.57-.14.88-.12a1.74 1.74 0 01.87.3c.25.16.46.33.72.4.25.07.53.1.83.15-.28.09-.57.14-.89.1-.15-.01-.3-.07-.45-.13s-.26-.15-.39-.22-.23-.15-.35-.2-.24-.1-.37-.13c-.27-.08-.56-.1-.85-.15z"></path><path d="M93.9 116.96c.23-.07.4-.19.6-.3a2.25 2.25 0 011.39-.29c.24.04.47.1.67.24-.24 0-.46 0-.68.03s-.44.04-.65.09-.42.1-.64.17a3.3 3.3 0 01-.35.09.74.74 0 01-.34-.03z"></path><path d="M84.55 109.1c.23.15.46.25.7.34.24.1.5.17.75.27s.5.22.74.38c.22.17.42.4.5.66-.2-.2-.4-.33-.64-.44s-.47-.2-.71-.3c-.26-.1-.5-.2-.74-.33a1.55 1.55 0 01-.6-.59z"></path><path d="M87.06 97.38a2.75 2.75 0 00.6 1.5l.27.32c.1.12.18.26.23.4.13.29.17.6.11.88a3 3 0 00-.34-.76c-.07-.11-.15-.22-.24-.32l-.28-.32a1.8 1.8 0 01-.4-.82c-.08-.3-.06-.6.05-.88z"></path><path d="M74 102.94c.13.18.16.4.17.6s0 .41-.04.61c-.02.19-.04.38-.04.56s0 .37.07.58c-.17-.13-.28-.33-.33-.54s-.04-.43-.02-.63.07-.4.11-.58c.04-.21.08-.39.09-.6z"></path><path d="M71.59 100.12a5.15 5.15 0 01.23-.91c.1-.3.24-.58.35-.86-.07.3-.14.59-.19.9l-.06.45c-.01.14-.02.3 0 .43h-.33z"></path><path d="M73.2 92.92c.2-.15.39-.27.59-.38l.6-.31-.5.44c-.16.14-.31.3-.44.47l-.25-.22z"></path><path d="M76.66 88.44l.48-.18a4.75 4.75 0 001.31-.73 4.65 4.65 0 01-1.21.95c-.14.09-.3.16-.43.25l-.15-.29z"></path><path d="M72.36 104.36c0-.37.03-.74.1-1.09s.14-.7.17-1.05c.03.36 0 .71 0 1.07-.02.36 0 .7.06 1.05l-.33.02z"></path><path d="M74.34 108.96a3.9 3.9 0 01.12-1.4c-.02.22-.01.45.03.67.04.22.1.44.17.66l-.32.07z"></path><path d="M78.12 112.55c-.14-.31-.23-.63-.3-.95s-.1-.64-.15-.96c.09.31.19.62.3.9.13.3.26.58.44.83l-.29.18z"></path><path d="M82.38 115.72l-.35-.62c-.11-.21-.21-.43-.3-.65.13.2.28.38.43.56s.3.35.47.52l-.25.2z"></path><path d="M87.48 117.97l-.5-.45c-.16-.15-.32-.31-.47-.49.18.14.37.25.57.36l.58.3-.18.28z"></path><path d="M94.48 118.13c-.78-.1-1.53-.3-2.25-.6.75.2 1.51.28 2.26.27l-.01.33z"></path><path d="M103.1 102.67c.1.32.16.64.2.96s.07.64.08.97 0 .65-.03.98-.08.65-.18.97c-.03-.33-.07-.65-.08-.97l-.04-.96a14.88 14.88 0 01.04-1.95z"></path><path d="M106.7 106c-.3-.37-.56-.76-.82-1.15s-.52-.8-.79-1.17a27 27 0 00-1.26-1.66c-.08-.08-.17-.15-.27-.21s-.2-.1-.31-.06c.04-.03.1-.05.17-.05l.19.02c.12.03.23.1.33.17s.2.15.28.24a7.96 7.96 0 011.16 1.36l.38.6a15.07 15.07 0 01.93 1.9z"></path><path d="M99.11 103.06a13.13 13.13 0 01-.27 2.9l-.3.92c-.09-.33-.05-.67 0-.99l.15-.94c.06-.32.11-.64.18-.95s.14-.62.24-.94z"></path><path d="M101.02 107.08c-.04-.44-.08-.88-.16-1.31l-.13-.64c-.05-.2-.1-.42-.17-.62-.12-.41-.26-.83-.44-1.21a2.11 2.11 0 00-.32-.53c-.06-.07-.14-.12-.24-.11-.09 0-.18.09-.25.17.04-.1.1-.2.23-.26a.25.25 0 01.2-.01c.06 0 .12.04.17.09.2.15.33.34.44.54.23.4.4.8.53 1.24l.15.66c.04.22.07.44.08.67.03.43.01.88-.09 1.32z"></path><path d="M96 102.93a14.38 14.38 0 01-.64 1.6 10.1 10.1 0 01-.43.75c-.17.24-.33.48-.56.67.1-.28.2-.54.33-.8a9.83 9.83 0 011.3-2.22z"></path><path d="M96.47 106.52c-.01-.29.01-.57.01-.85l.07-1.67c0-.28.02-.56.05-.85.11.27.17.55.2.84s.04.57.03.86-.04.57-.1.84c-.05.29-.13.58-.26.83z"></path><path d="M93.27 101.96c.14.26.2.55.2.84 0 .3-.05.58-.14.86s-.22.55-.36.78c-.14.24-.3.46-.44.71.01-.28.11-.57.21-.82a8.12 8.12 0 00.47-1.54c.05-.28.07-.54.06-.83z"></path><path d="M91.12 104.1c.08-.22.2-.4.31-.6s.25-.35.4-.51l.45-.48a6 6 0 01.5-.41 4.23 4.23 0 01-.7 1.11l-.45.47a6.83 6.83 0 01-.5.42z"></path><path d="M107.54 83.67c.51-.64 1.04-1.25 1.6-1.86.25-.3.54-.6.82-.91l.83-.9.85-.88c.28-.29.56-.59.86-.88l.85-.87c.3-.29.59-.57.86-.87-.22.35-.48.66-.73.98l-.8.93c-.27.31-.53.62-.81.92l-.84.9-.84.88-.86.87a43.08 43.08 0 01-1.8 1.7z"></path><path d="M110.97 71.52a18.23 18.23 0 01-1.42 3.9c-.6 1.26-1.24 2.48-1.9 3.7a73.3 73.3 0 00-1.86 3.7c-.29.63-.56 1.27-.8 1.92-.24.65-.41 1.3-.52 2 .03-.7.18-1.38.37-2.05.2-.67.44-1.32.7-1.97a47.1 47.1 0 011.82-3.75l.98-1.83c.33-.6.65-1.22.97-1.84s.62-1.23.9-1.86c.3-.62.55-1.26.76-1.92z"></path><path d="M107.68 89.93c.65-.32 1.29-.66 1.92-.99l.96-.5c.32-.16.64-.32.95-.5l.47-.25.47-.27.94-.53c.62-.35 1.24-.72 1.83-1.12-.51.5-1.1.94-1.7 1.34a24.25 24.25 0 01-2.83 1.61l-.5.23c-.16.08-.32.16-.49.22-.33.14-.66.29-1 .4-.34.14-.68.26-1.02.36z"></path><path d="M114.34 79.13a72.38 72.38 0 01-4.73 5.52c-.42.43-.84.87-1.28 1.29s-.86.83-1.28 1.27c-.4.44-.81.9-1.18 1.37-.17.24-.36.48-.5.73-.16.26-.3.53-.39.82.06-.3.17-.58.3-.86s.3-.54.46-.8a15.84 15.84 0 012.37-2.77 70.38 70.38 0 002.52-2.6l1.23-1.33a69.96 69.96 0 012.48-2.64z"></path><path d="M107.72 94.39c.64.03 1.27.04 1.9.08l.94.06.95.06.94.08.95.1c.63.07 1.25.15 1.88.26-.64.03-1.27.02-1.9 0l-.95-.05-.95-.07c-.62-.05-1.25-.1-1.89-.2-.32-.04-.62-.08-.93-.14-.32-.04-.64-.09-.94-.18z"></path><path d="M115.8 86.88c-.7.75-1.55 1.36-2.42 1.9s-1.77 1.05-2.69 1.51c-.46.23-.91.47-1.37.69l-1.39.66c-.46.22-.92.44-1.36.68a9.4 9.4 0 00-.66.37c-.22.13-.43.28-.6.46.15-.2.34-.37.55-.54a13.09 13.09 0 011.97-1.2c.45-.25.9-.48 1.37-.72l1.36-.7c.45-.22.91-.46 1.35-.7.46-.23.9-.48 1.35-.73.87-.5 1.73-1.04 2.54-1.68z"></path><path d="M106.94 97.22c.5.23.98.49 1.45.76.25.13.48.28.7.4l.7.44.68.45c.22.15.45.3.67.47.44.32.88.65 1.27 1.05-.47-.28-.95-.55-1.4-.83-.24-.13-.47-.28-.7-.42l-.7-.43c-.46-.3-.9-.58-1.36-.9-.44-.33-.88-.64-1.3-.99z"></path><path d="M113.69 96.68c-.65.01-1.3 0-1.94-.05-.65-.05-1.29-.11-1.93-.19l-.95-.13c-.32-.06-.64-.1-.95-.14a14.1 14.1 0 00-.96-.1c-.31-.01-.63-.02-.94.06.28-.15.63-.2.94-.23.33-.02.65 0 .98.01.65.05 1.29.15 1.93.21l.96.12.95.14c.63.08 1.27.18 1.9.3z"></path><path d="M105.57 100.06a11.04 11.04 0 011.2 1.63l.35.57c.23.39.44.78.63 1.19s.35.82.45 1.27c-.22-.4-.46-.77-.68-1.15l-.68-1.14-.33-.58c-.1-.2-.22-.38-.33-.58-.23-.4-.44-.8-.61-1.2z"></path><path d="M110.97 101.78c-.46-.31-.94-.6-1.42-.85l-.74-.39-.72-.4-1.43-.82-.73-.38c-.24-.12-.5-.22-.77-.28.28-.02.56.05.84.12l.78.3c.26.1.5.24.75.36l.72.4c.49.28.97.54 1.43.85.47.32.91.68 1.29 1.09z"></path><path d="M100.87 135.23c.06.17.1.36.09.54a.7.7 0 01-.06.26c-.02.09-.06.16-.07.24-.02-.09 0-.17-.02-.25a.73.73 0 00-.03-.23 1.13 1.13 0 00-.22-.4l.31-.16z"></path><path d="M99.73 137.22c.1.15.17.32.2.5.03.1.03.2.02.27-.02.09-.03.16-.02.25l-.06-.24a.69.69 0 00-.09-.22 1.3 1.3 0 00-.3-.34l.25-.22z"></path><path d="M103.25 137.9c.2.11.4.25.56.42.07.09.15.18.2.27s.12.21.13.32c-.05-.1-.11-.18-.19-.26s-.16-.13-.25-.2c-.18-.1-.38-.2-.57-.24l.12-.3z"></path><path d="M103.7 137.38c.18-.14.41-.26.62-.35l.32-.13.33-.12.33-.1c.11-.03.21-.07.31-.12s.18-.13.27-.21.17-.14.27-.2c-.09.07-.18.14-.25.23s-.15.18-.25.26c-.1.06-.2.12-.3.16l-.32.14-.6.32c-.2.11-.36.23-.52.39l-.21-.27z"></path><path d="M109.5 136.79c.21.2.43.4.68.57s.5.29.77.38l-.13.3c-.28-.14-.53-.33-.75-.55s-.4-.46-.58-.7z"></path><path d="M112.5 136.05c-.12.1-.23.21-.31.34l-.09.22c-.02.07-.03.17-.06.25l-.02-.26c0-.08 0-.17.02-.26.03-.19.12-.35.2-.5l.26.21z"></path><path d="M107.69 129.47c.24.32.43.69.55 1.07.13.39.19.8.2 1.19s0 .8-.01 1.19c-.01.38-.01.77.1 1.14-.11-.16-.2-.35-.26-.54a2.8 2.8 0 01-.1-.6c-.03-.39-.03-.78-.04-1.17-.02-.38-.06-.76-.12-1.14-.09-.39-.2-.75-.32-1.14z"></path><path d="M97.56 116.77c.02-.65.04-1.3.01-1.96-.02-.32-.06-.65-.12-.97s-.18-.62-.36-.9c.2.26.34.56.44.88s.16.64.2.97c.1.65.13 1.3.16 1.97l-.33.01z"></path><path d="M108.16 111.22c.12.2.21.41.28.63l.19.67c.07.22.13.44.22.65s.2.4.33.56l-.28.2c-.13-.22-.23-.45-.3-.68s-.1-.46-.15-.7l-.1-.67a2.27 2.27 0 00-.19-.66z"></path><path d="M106.73 112.95a3.5 3.5 0 00-.33-.18l-.3-.15-.3-.12c-.1-.04-.22-.07-.36-.1a.72.72 0 01.38-.15c.14-.01.29.02.4.08.14.05.25.14.34.25.1.1.16.23.17.37z"></path><path d="M100.67 112.3c-.14.05-.25.11-.35.2s-.19.14-.26.23l-.26.29c-.09.1-.18.2-.3.3 0-.16.03-.3.07-.43.06-.14.13-.27.24-.39.11-.1.25-.2.4-.24.17-.06.33-.06.46.03z"></path><path d="M102.73 111.47c.05-.11.15-.18.26-.21s.23-.03.34.01c.11.03.21.1.29.2.08.09.12.2.1.33-.1-.06-.19-.1-.27-.12-.07-.04-.15-.06-.22-.08l-.23-.07a.77.77 0 00-.27-.06z"></path><path d="M105.06 124.91c.18-.58.18-1.22.02-1.81-.08-.31-.18-.61-.27-.92s-.16-.63-.16-.94c.04.32.13.61.25.9.1.3.24.6.35.9.22.6.27 1.29.14 1.95l-.33-.08z"></path><path d="M102.18 124.72c-.14-.14-.24-.32-.3-.5s-.1-.38-.12-.55l-.03-.53c-.01-.18-.04-.34-.06-.52a5.7 5.7 0 00-.7-1.97 5.7 5.7 0 01.97 2.47l.07.51c.03.16.07.33.14.48s.15.26.27.37l-.24.24z"></path><path d="M107.81 123.67l-.23-.75-.2-.76c-.05-.25-.1-.52-.13-.77s-.04-.52-.19-.74c.17.2.22.48.28.73a9.33 9.33 0 00.48 1.45l.31.7-.32.14z"></path><path d="M111.13 124.44a1.8 1.8 0 01-.63-.65c-.16-.26-.27-.53-.36-.8l-.25-.83-.24-.82.32.79.32.79c.1.25.24.5.4.72.16.22.36.39.6.51l-.16.29z"></path><path d="M105.24 114.83c.08.15.2.25.33.31s.27.12.41.17c.15.05.3.1.46.17s.3.18.41.3c.26.23.43.52.57.81s.21.6.27.93c-.19-.27-.34-.54-.5-.8-.17-.26-.36-.5-.57-.7-.1-.1-.22-.18-.34-.26s-.26-.14-.4-.22-.3-.16-.42-.28a.72.72 0 01-.17-.2c-.02-.06-.05-.14-.05-.23z"></path><path d="M101.07 114.9c.03.29.04.57.05.85s.03.55.07.81c.03.27.1.53.19.78s.2.5.38.73a1.51 1.51 0 01-.61-.62 2.32 2.32 0 01-.28-.84c-.04-.3-.03-.59.01-.87.02-.29.09-.56.19-.84z"></path><path d="M99.73 117.29c.14.22.18.5.2.76s-.03.51-.06.76-.06.48-.06.71c0 .24.04.47.14.72-.21-.17-.33-.43-.39-.69a2.4 2.4 0 01-.01-.79c.03-.25.09-.5.12-.74s.06-.47.06-.73z"></path><path d="M104.58 117.27c0 .15.1.25.18.37s.17.24.23.37a5.33 5.33 0 01.63 1.65c.06.29.1.59.1.88-.13-.26-.24-.54-.35-.8l-.3-.8-.32-.8-.14-.41c-.02-.07-.06-.15-.07-.22 0-.1 0-.18.04-.25z"></path><path d="M107.76 119.11c.1.2.17.41.26.6s.19.35.3.51.27.34.38.55c.11.2.19.45.13.67-.08-.2-.2-.37-.34-.52a4.67 4.67 0 01-.6-.8 1.78 1.78 0 01-.14-1.01z"></path><path d="M103.41 113.93c-.09.19-.02.34.03.5.07.17.16.33.22.52s.1.4.1.6c-.02.2-.05.4-.14.58l-.12-.56-.14-.52c-.05-.17-.14-.35-.16-.56a.8.8 0 01.02-.32c.03-.1.1-.2.2-.24z"></path><path d="M108.9 117.58c.15.2.29.38.4.57s.26.37.37.56c.12.18.24.37.35.57s.23.4.33.6a3 3 0 01-.97-1 4.67 4.67 0 01-.31-.61c-.07-.22-.15-.45-.17-.69z"></path><path d="M102.93 120.3c.1.23.2.43.33.64.12.2.25.4.36.63s.2.47.22.72-.02.54-.18.74c.03-.25 0-.47-.07-.7s-.17-.41-.27-.62-.22-.43-.3-.66c-.08-.24-.14-.5-.1-.75z"></path><path d="M101.53 88.39c.33.66.55.99.55 1.65 0 .77.33.99.66 1.54l.33.66v.66c0 .55-.33 1.43.11 1.98.11.44.33.88.44 1.43.22.44-.22.66-.22.99-.11.11-.11.22-.11.33a.7.7 0 010 .66v.22c-.22.44-.66.55-.99.77-.55.55-1.1.88-1.87 1.21l-.66.22c-.44.22-.88.22-1.32.33s-.88.44-1.32.55c-.22.11-.44.11-.66.11-.99.22-2.2-.55-2.64-.55-.11 0-.22 0-.44-.11-.11 0-.22 0-.33-.11s-.22-.33-.22-.55c0 .22.11.44.33.55s.44.11.66.11c1.43.44 1.32.44 2.64.44.22 0 .44 0 .66-.11.44-.11.77-.55 1.21-.66.77 0 1.43-.22 2.09-.55.66-.11 1.1-.66 1.65-1.1.22-.33.88-.33.88-.77.11-.22.11-.44.11-.66 0-.11-.11-.22 0-.33.22-.44.22-.44.22-.99 0-.44-.22-.77-.44-1.21a2.57 2.57 0 010-2.2v-.66c0-.22-.11-.33-.22-.55-.22-.33-.55-.66-.55-.99-.11-.22-.11-.44-.11-.66.11-.33-.11-.66-.11-.99z"></path></g></g><g id="lionPassant_provinceCOA177" stroke-width=".42"><path d="M69.72 83.42c.58-.86.4-2.8-1.03-3.3-.1-.04-.32-.11-.23.2.36 1.33-.44 1.5-.44 1.5s-.33.32-.5.39c.9 1.93 1.86 1.33 2.2 1.21z"></path><path d="M65 82.5c-.5-1.06-2.23-1.82-3.43-.76-.09.07-.25.23.04.31 1.36.35 1.1 1.12 1.1 1.12s.13.46.1.65c2.51.02 2.1-.96 2.19-1.32z"></path><path d="M65.5 95.07s1.71-1.47.17-1.73c-.13.1-.36-.03-.46-.03-.81.08-1.05-.21-1.15-.24-.11-.01-.11.04-.11.1-.14.54.17 1.16.64 1.62m-1.79-8c-1-.7-2.86-.34-3.3 1.2-.05.11-.09.35.2.25 1.34-.43 1.53.35 1.53.35s.35.34.44.49c2.11-.08 1.27-1.95 1.13-2.28z"></path><path d="M76.45 105.74l-2.02-.55c-.3-.08-.63-.16-.86-.36-.44-.36-.54-.98-.7-1.53a5.77 5.77 0 00-2.57-3.26c-1.63-1.02-3.24-.88-3.24-.88s-.6.1-.54-.13c.13-.57.31-.75.89-.92.67-.25 1.54-.2 1.52-.78-.04-.47-.81-1.04-1.62-1.35-1.4-.43-2.28-.7-2.8-1.23.63-.04 1-.97.52-1.46.57.07 1.23-.2 1.09-1.19-.2-.9-1.37-1.8-2.3-1.76-.68.1-1.37-.3-1.65-.87-.55.21-1.48-.57-1-1 1.32-.17 1.63-1.14 1.07-1.97.4.12.07-.58.98.12.36.3.4.8.55.9.56.48.82.24 1.16-.08.9-1.02-1.07-1.05-1.63-2.66-.28-.24-.57-.08-.85-.71a1 1 0 01.03-.83c.12-.14.11-.04.15-.12.63.74 2.26.2 2.27-.8.2.12.32-.02.59.2.45.37.54.95.22 1.4-.17.53.31 1.14.74 1.4.16.08.44.18.48.13.62-.61-.08-1.62.18-2.18-.24-.25.03-1.51.65-1.47a.7.7 0 00.28-.06c-.1 1 1.41 2.05 1.73 1.47l.1.14c.13.16.3.2.25.63a1.1 1.1 0 01-.7.91c-.22.1-.2.76-.3.98-.3.68-.48.82-.44 1.39.08.76.95 3.12 3.63 5.43.85.74 4.97 3.85 6.3 4.68"></path><g fill="#000" stroke="none"><path d="M225 109.9c-1.8-2-3.6-3.8-5.3-5.9-1.7-2-3.4-4-4.9-6-1.6-2-3.1-4.2-4.6-6.4a35.6 35.6 0 01-3.6-7l.3-.1c1 2.4 2.5 4.5 4 6.5s3.2 4 4.9 6c1.7 1.9 3.5 3.7 5.4 5.6 1.8 1.8 3.7 3.7 5.6 5.4z" transform="matrix(.14 0 0 .14 43.2 86)"></path><path d="M172.6 17.7c.8 1.4 1.5 2.6 2.4 3.9.8 1.3 1.6 2.5 2.5 3.7.9 1.2 1.7 2.4 2.6 3.6.9 1.2 1.8 2.3 2.8 3.6l-.3.3c-1.6-.4-3-1.4-4.2-2.4-1.2-1-2.3-2.3-3.1-3.6-.9-1.4-1.6-2.7-2.1-4.2s-.9-3.2-.6-4.9z" transform="matrix(.14 0 0 .14 43.2 86)"></path><path d="M179.4 83.3c1.9-.5 3.6-.5 5.3-.7 1.6-.2 3.2-.6 4.8-1.4l.2.3c-1.3 1.2-2.9 2-4.6 2.6-1.6.6-3.3 1-4.7 1.8z" transform="matrix(.14 0 0 .14 43.2 86)"></path><path d="M165 39.8c-1.1-1.1-2.2-2.2-3.4-3.1-1.2-.9-2.6-1.8-3.9-2.5-1.4-.7-2.8-1.3-4.2-1.6-1.4-.3-2.9-.5-4.2-.3l-.3-2.6c1.9-.1 3.5.4 5.1 1 1.5.6 3 1.4 4.3 2.3 1.4.9 2.6 2 3.7 3.1s2.1 2.4 3.1 3.6z" transform="matrix(.14 0 0 .14 43.2 86)"></path><path d="M159.8-14.6c-.3 1.4-1.3 2.5-2.3 3.4-1 .9-2.2 1.6-3.5 2.1-1.3.5-2.7.8-4.1.7-1.4-.1-2.8-.5-3.9-1.4l.2-.4c1.4-.1 2.5-.2 3.7-.4 1.1-.3 2.2-.5 3.3-.9 1.1-.4 2.2-.8 3.3-1.4 1-.5 2-1.1 3.3-1.7z" transform="matrix(.14 0 0 .14 43.2 86)"></path><path d="M173.9-17.3c.9 1.1 1.8 2 2.7 2.9.9.9 1.8 1.5 2.9 2.2 1.1.7 2.1 1.4 3.2 2 1.1.6 2 1.1 3.4.9l.2.3c-.5.6-1.4.9-2.1.9-.8.1-1.5 0-2.3-.3-1.4-.4-2.7-1.1-3.8-1.8-1.2-.8-2.3-1.9-3.1-3.1a5.7 5.7 0 01-1.1-4z" transform="matrix(.14 0 0 .14 43.2 86)"></path><path d="M137.2 23c.6-.3 1.1-.6 1.5-.9.4-.3.8-.8 1.3-1.2.9-.9 1.6-1.8 2.3-2.6.7-.9 1.3-1.9 1.9-2.9.6-1 1.1-2 1.4-3.2l.4-.1c.3.6.5 1.4.5 2 0 .6-.1 1.4-.3 2.1-.3 1.4-.9 2.6-1.9 3.7-.9 1.1-2 2-3.1 2.6-.6.3-1.3.6-2 .8-.7.2-1.4.2-2.1-.1z" transform="matrix(.14 0 0 .14 43.2 86)"></path><path d="M158.1 57.4c-.8-.1-1.7-.2-2.5-.4-.9-.2-1.6-.5-2.4-.8-.8-.3-1.5-.8-2.1-1.4-.3-.3-.7-.5-.9-.9-.3-.3-.6-.6-.9-.8l.1-.2c.4.2.7.4 1.1.7.3.3.7.4 1 .7.7.4 1.4.7 2.2.9.8.3 1.5.4 2.3.4.8.1 1.5.1 2.3 0z" transform="matrix(.14 0 0 .14 43.2 86)"></path><path d="M120.1 13.2c.5-.3 1-.5 1.6-.7.6-.2 1.1-.4 1.7-.4 1.1-.3 2.4-.3 3.5-.1 1.2.2 2.4.6 3.4 1.1 1.1.6 2 1.3 2.9 2.3l-1.4 1c-.5-.8-1.4-1.5-2.2-2.1-.9-.6-1.9-1.1-2.9-1.4-1-.3-2.1-.4-3.2-.3-.6 0-1.1.2-1.6.3-.5.2-1.1.3-1.6.5z" transform="matrix(.14 0 0 .14 43.2 86)"></path><path d="M134.4-28.6l2 .3c.7.2 1.4.3 2 .6 1.3.5 2.5 1.3 3.5 2.2 1 .9 2 2.1 2.6 3.3.7 1.3 1.1 2.6 1.4 4.1l-1.9.1c-.1-1.2-.3-2.5-.9-3.7-.5-1.2-1.2-2.3-2-3.2-.8-.9-1.9-1.8-3.1-2.4-.6-.3-1.2-.5-1.8-.8-.5-.1-1.2-.2-1.8-.5z" transform="matrix(.14 0 0 .14 43.2 86)"></path><path d="M182.8-39.5c.5 1.1 1 2.2 1.2 3.4.2 1.2.1 2.5-.2 3.7a15.97 15.97 0 01-3.6 6.6l-1.2-1.3c.8-.7 1.6-1.6 2.2-2.5.7-.9 1.2-2 1.6-3 .4-1.1.6-2.2.6-3.4 0-1.2-.3-2.4-.6-3.5z" transform="matrix(.14 0 0 .14 43.2 86)"></path><path d="M183.6 7c-.5 2.9-.5 6 0 8.9.5 2.9 1.4 5.9 2.6 8.8l-.3.1c-1.5-2.7-2.9-5.5-3.7-8.6-.9-3.1-1.3-6.3-1.2-9.5z" transform="matrix(.14 0 0 .14 43.2 86)"></path></g><path d="M98.4 113.23l.13.32c.36.14 1.55-2.49.22-2.73-.45.06-.38.06-.53.11-1.7.6-1.97 1.59-2.03 2.27-.01.24.01.38.15.28.8-.8 1.87-.74 2.06-.25zm1.72 2.44c-.77.58-1.52 2-.44 3.1.07.09.23.27.28-.02.15-.76.42-.89.57-.97.4-.17.55-.04.55-.04s.23-.63.1-1.08c-.13-.64-.73-1.05-1.06-1zm2.62-8.7c-.22-.07-.35-.38-.95-.57a2.14 2.14 0 00-1.86.32c-.28.18-.24.28-.1.3.42 0 1.02.2 1.19.58.11.27 0 .46-.06.65 1.03.85 2.54-.68 1.78-1.28zm3.64 9.05c-.61.96-1.22.9-1.12 1.12.11.28.95.44 1.77.36.72-.83.47-2.48-.65-1.48z"></path><path d="M70.14 117.68s-.13-2.24-1.3-1.17c.02.16-.23.26-.29.36-.43.7-.8.7-.88.77-.07.07-.04.11 0 .15.35.45 1.04.58 1.7.48m-7.45-3.47c-1.16.36-2 2.06-1.05 3.36.07.1.22.28.32-.03.46-1.32 1.2-1 1.2-1s.48-.1.65-.05c1.22-1.72-.79-2.17-1.12-2.28z"></path><path d="M59.82 110.46c-1.15-.25-2.8.67-2.68 2.27.02.12.05.33.28.15 1.11-.87 1.57-.2 1.57-.2s.44.2.58.31c1.52-1.97.49-2.24.25-2.53z"></path><path d="M63.43 107.28c-.34-1-1.97-2.02-3.25-1.19-.1.06-.28.2 0 .3 1.29.53.94 1.25.94 1.25s.04.47.01.63c2.08.45 2.16-.67 2.3-.99z"></path><path d="M129.73 115.62a2.6 2.6 0 00-.1 3.3c.12.12.19.06.22-.05.26-1.22 1.24-1.47 1.68-1.43.2-.82-.54-2.39-1.8-1.82zm11.19-5.13c-.81-.79-2.27-.02-1.3 1.17.59-.03.6.63.73.95.04.12.1.24.23.14.7-.5.8-1.55.34-2.26zm-11.93.47c-2.14.65-1.7 3.2-1.51 3.15.3.07.77-1.38 1.61-.8 1.37-.35.66-2.53-.1-2.35zm5.42 5.28c.01.07-.25.32-.28.98-.04.83.52 1.53.7 1.62.13.07.28.21.25-.12-.04-.55.06-1.32 1.04-1.46.14-1.24-1.43-1.57-1.71-1.02z"></path><path d="M114.63 99.38l-4.48-.25c-.52.52-2.9 3.8-2.44 6.37 0 .03-.01.04-.04.04-.06-.05-.67-.7-1.7-.12-.22.12-.29.12-.43.43-.05.11.06.13.13.11.49-.16.82-.02 1 .05.17.05.2.22.33.37.11.16.03.17-.02.16a1.8 1.8 0 00-1.1.33c-.5.35-.67.8-.62 1.3.04.3.17.6.48.9.14.13.28.14.43.13.24-.04.35-.09.37-.27.01-.07.01-.14-.1-.11-.28.1-.35-.1-.44-.25-.07-.13-.04-.59.28-.81.13-.1.31-.2.6-.26.36-.04.8-.15 1.27.34 1.86 2.88 6.02 3.02 5.89 3.32-.21.78-2.72.71-4.28.67-.7-.04-4.3-.1-4.88-1.32-.64-1.31.05-1.38-1.14-2.68-.09-.89-.79-1.03-1.03-.89.28.68-.9 1.49-1.73 1.14-.17.18-.09.42-.04.56.28.82.77.47.92.87.28.71.76.82.46 1.62-.04.07-.11.04-.14.04-.68-.25-1.05-.08-1.47-.07-.26 0-.84-.12-.94-.28-.22-.4-.9-.35-1.06-.3-.43.13-.67.37-.46.5.68.38.71 1.7.05 2.14-.18.73.65.87 1.17.35.85-.28.82.13 1.38.13 1.33.02 1.7-.45 2.1.1-.98 1.03-1.03.51-2.08 1.23-.98.04-1.26.57-.98.86.68-.23 1.62.91 1.03 1.9.98.26 1.22-.89 1.44-.83.6.04.76-.13 1.52-.74.63-.56 1.5-1.3 1.98-1.24.34.05.98.5.42 1.2.7.12.93.76.65 1.42.9 0 2.2-.3 4.72-1.43.4-.15.7-.1.77.17.07.35-.35 1-.42 1.18-.35.73-.26 1.23-.24 1.26.01.04.08.26.35-.02.63-.58 1.55-1.5 2.74-2a7.9 7.9 0 015.36 0c1.28.59 2.15.34 2.15.34s.53.03 1.12-.67c.16-.28.36-.54.37-1 .05-1.54-2.39-2.74-3.36-4.02-2.08-2.18-.65-5.7-.39-5.88z"></path><path d="M81.91 93.64l1.83-1.14.26-3-2.17-2.6-1.26.74c.77.84.84 2.06.84 2.8 0 .73-.3 1.86-.76 2.17z"></path><path d="M82.18 90.44s-1.75-1.47-3.38-1.47c-1.7 0-2.76.9-3.7.9-2.07 0-1.73-1.97-1.93-1.97-.12.05-.29.58-.29.91 0 1.2.76 2.27 2.23 2.27 1.5 0 2.25-.92 3.68-.92 1.92 0 3.2 1.31 3.2 1.31"></path><path fill="#fff" d="M75.48 87.27c-.2 1.46.62 2.31.77 2.23.19-.08-.36-1.1.45-1.88"></path><path fill="#fff" d="M75.86 91.92c-.03-.82.52-1.3.62-1.24.12.07-.3.82.32 1.47"></path><path d="M109.5 99.45l-2.54 2.09s-1.22.81-1.6 1.55c-.15.33-.11.52.01.66.27.32.5.09.7-.04.97-.55 1.96-.84 2.58-1.05.59-.2 1.76-.55 1.76-.55z"></path><path d="M120.4 79.59l-3.64.22V81s1.33-.24 2.01-.24c1.1 0 1.61.52 2.5.52.76 0 1.16-.32 1.16-.32z"></path><path d="M123.7 79.59s1.13-.28 1.86-1.26c.32-.38.38-.76-.26-.35a8 8 0 01-3.52.87"></path><path d="M119.82 78.17s.24-.12.66-.28c.42-.15.15-.37-.27-.29-.42.07-1.21.1-1.93.38"></path><path d="M140.85 110.46c-.25-.4-.35-.83-1.06-1.54-.35-.35-1.35-1.08-1.63-1.39a4.16 4.16 0 01-1.09-2.48c0-.36.18-1.13.2-1.45 0-1.32-.63-1.9-1.15-1.9-2.05 0-1.07 1.35-4.75 1.35-4.21 0-5.98-4.87-9.4-6.94.25 0 4.57 1.38 8.02 1.51 5.8.59 10.08-2.44 10.08-6.06 0-2.66-1.4-6.1-8.1-6.1-2.2 0-3.03-1.24-3.4-1.55-.43-.2-.38-.07-.43.07-.07.76.43 1.61-.28 1.61-1.36.02-3.08-1.35-3.42-1.7-.46-.24-.43-.07-.49.08-.24.73.53 1.85-.01 1.86-1.46-.01-2.79-1.15-3.35-1.65-.49-.25-.45-.1-.52.06-.4 1.24.45 1.89-.14 1.9-1.23.01-2.22-1.2-3.23-1.72-.46-.24-.43-.07-.49.08-.28 1.16.5 1.98-.1 1.99-1.1.01-2.57-1.19-3.26-1.72-.46-.24-.43-.07-.49.08-.35 1.16.38 1.92-.2 1.93-1.16.02-2.77-1.62-3.33-1.97-.46-.24-.43-.07-.49.08-.24.73.4 2.1-.14 2.12-1.19.01-2.42-1.61-3.39-2-.46-.24-.43-.07-.49.08-.23.73.48 2.13-.07 2.14-1.23.02-1.7-1.43-2.82-2.13-.44-.2-.38-.07-.44.07-.04.6-.22 1.24-.71 1.59-.83.61-2.1.07-2.84-.44-.68-.43-1.38-1.13-1.38-1.99 0-2.25 3.46-4.34 7.31-4.36 4.1 0 5 1.42 7.5 2.33 3.59 1.49 6.3-2.9 9.61-1.94.46.11 1.08.43 1.8.53 2.32.25 3.8-.67 3.74-1.39.5-.58.31-.58-.43-.2-.52.23-1.1.41-1.9.27-.52-.07-1.07-.35-1.71-.64a8.66 8.66 0 00-2.47-.77c-2.38-.35-3-.3-4.32-.04-2.27.33-3.63.82-6.2.46-.98-.13-2.51-.63-5.62-.63-4.95.03-9.57 2.76-9.57 6.43 0 3 3.08 5.67 8.21 5.67 10.04 0 22.59-2.54 30.03-2.54 3.36 0 5.53 1.53 5.53 3.95 0 2.28-3.78 4.21-7.26 3.96-3.15-.2-7.14-1.33-8.2-1.55-1.03-.21-3.95-.84-8.5-.84-2.17 0-5.28.52-7.55.84-3.26.46-5.94 1.68-9.1 1.51-.83 0-2.72-.35-2.72-.35s-2.3-.35-3.6-1.95c-1-1.26-.76-2.46-.76-2.46s.63.35 1.38.28c.48-.04.91-.15 1.28-.57.08-.1.14-.28.01-.28-1.16.1-1.72-.44-2.14-1.15a3.6 3.6 0 01-.44-1.37c0-.2 0-.37.1-.58 1.47-.11 1.8-1.26 1.71-1.31-.24-.2-.52.26-1.27.26-.98 0-.97-1.08-1.14-1.7-.15-.41-.4-.94-.66-1.11-.36-.24-2.56-1.53-2.56-1.53s-.98-.43-1.78-.52c-.8-.05-1.72-.36-2.39-.36a4.1 4.1 0 00-1.67.27c-.46.3-.63.54-1.06.63-.52.07-1.15.1-1.89.32-.45.12-.91.36-1.44.5-.46.11-1.78.23-1.86.42-.05.11-.16 1.07.33 1.46 0 .04-.18.28-.18 1.06 0 .79.42 1.14.77 1.53.36.42 1.15.9 1.96.9.8 0 1.53-.51 2.34-.51.42 0 1.15-.01 1.93.74.77.76.8 1.75.8 2.4 0 .64-.28 1.73-.73 2-.5.2-1.95.35-3.1.1-1.16-.24-1.58-.54-2.05-.66-.48-.13-.81-.2-.81-.04 0 .36.1.3.18.47 0 .97-.93 1.16-.87 1.26.08.16.45.23.87.07.42-.15.6-.36.6-.36s-.03.35.3.75c.12 0 .25-.6.72-.82.32-.07.66.17 1.8.17 0 .2-.23 1.54-1.42 2.1a6.53 6.53 0 00-2.52 2.18c-.22.32-1.34 1.06-1.62 2.03-.24.81-.06 1.3-.06 1.3s-.42.53-.4 1c.04.36.13.72.13.72s.13.48.14 1.18c0 .32-.35.76-.18 1.15.17.39.04 1.38-.2 1.87-.2.75-1.6 1.1-1.25 1.28.85.42 1.24.2 1.62.03 0 1.07-.57 1.03-.5 2.33-3.48.73-6.14.26-6.78-.14-.49-.3-.48-.53-.83-1.19-.1-.2-.67-.58-.6-.82a1.1 1.1 0 00-.3-1.12c-.33-.31-.45-.18-.65-.18a1.9 1.9 0 01-.18-.02c.26.62-1.49 1.18-2.23.5a.5.5 0 01-.12.27c-.4.48.43 1.44.78 1.4.28.53 1.51.59 1.62 1.47 0 .04-.25.23-.4.3-.46.2-1.23.2-1.56-.26-.18-.53-.7-.8-1.26-.67-.35.09-.29.27-.51.35.8.62.23 2.23-.75 2.28.03.07-.02 0 0 .2.12.28.44.46.65.52.67.15.73-.17 1.08-.25 1.62.51 2.81-1.03 3.09.3.04.47.07.82-.64.98-.19.05-.6-.22-1.07-.1-1.12.27-.35.45-.68.7.99.05 1.6.89.92 2.04.03.65 1.23.36 1.39-.2.63.11 1.35-.2 1.69-.8.52-.77 1.93-1.15 2.79-.75.86.47.67 1.17.28 1.6.67-.08 1.19.76.84 1.3.72-.09 1.47-.64 2.66-1.48.74-.46 1.65-.72 2.04-.49.49.35-.1 1.01-.3 1.7-.19.57-.16.81.22 1.26.14.18.43-.35.43-.35s1.95-2.5 5.08-3.17c3.14-.67 4.8.44 6.06.66.41.02 2.22.09 1.8-1.41a7.27 7.27 0 01-.54-2.5c.2.17 1.43.51 1.67.51 5.6 1.06 9.73-6.55 14.43-9.02 2.24-1.16 2.7-2.01 6.64-2.01 2.27 0 5.9 2.5 6.57 3 2.94 2.14 5 3.94 8.89 3.94 3.12-.04 3.37-1.78 6.38-1.78 1.54 0 3.22.54 3.22 2.38 0 .5-.36 1.4-.9 1.43-1.14-.04-1.8-.88-3.7-.24-.33-.1-.83-.1-.99.3.68.45 1.24 1.47.12 2.34.28.26.44.25.63.25.86 0 .46-.37 1.06-.38.78.04.85.4 1.26.36a3.3 3.3 0 00-.66.73c-.32.4-.64.63-.84.65-.43.01-.81.32-.87.47-.12.34.1.2-.04.45.63-.01 1.99.24 1.67 1.65.2-.04.1.06.26.16.41.29 1-.37.98-.68-.02-.46.6-.82.68-.9 1.02-.82.99-.29 1.54-.76 0 .04.15.2.1.32-.15 0-.37.11-.43.3-.05.22-.05.37.05.44.64-.14 1.63-.01 1.5.98.12-.03.33-.05.46-.07 1.38-.01 2.01-1.31 2.01-1.31.52-.69.37-1.82.35-2.78 0-.72-.11-.92.27-1.21.25-.17.63-.28.88-.23.01-.84.52-1.09 1.23-.88-.08-.17-.2-.32-.25-.4z"></path><g fill="#000" stroke="none"><path d="M162.9 187.1c1.6.3 3.1.4 4.5.5l4.4.3c1.4.1 2.9.1 4.4.1 1.4 0 3 0 4.5-.1l.2.3c-1.3 1-2.9 1.5-4.4 1.9-1.5.4-3.1.4-4.8.3-1.6-.1-3.1-.3-4.7-.8-1.5-.6-3-1.3-4.1-2.5z" transform="matrix(.14 0 0 .14 43.2 86)"></path><path d="M219.3 221.4c.8-1.8 1.8-3.1 2.6-4.6.9-1.4 1.5-3 1.7-4.7h.3c.2 1.7-.2 3.6-.7 5.2-.5 1.7-1.2 3.3-1.4 4.8z" transform="matrix(.14 0 0 .14 43.2 86)"></path><path d="M176 206.6c-1.5.2-3.1.4-4.6.9a25 25 0 00-4.3 1.6c-1.4.7-2.6 1.4-3.8 2.4-1.1.9-2.2 2-2.8 3.1l-2.2-1.4c1.1-1.5 2.5-2.6 3.8-3.4 1.4-.9 2.9-1.5 4.4-2 1.5-.5 3.1-.8 4.7-1.1 1.6-.3 3.1-.3 4.8-.3z" transform="matrix(.14 0 0 .14 43.2 86)"></path><path d="M129.5 177.8c.7 1.2.9 2.6.9 3.8.1 1.4-.2 2.6-.5 4-.4 1.3-1 2.6-1.9 3.6-.9 1-2 2-3.1 2.4l-.2-.3c.8-1 1.5-2 2.1-3 .6-1 1-2.1 1.4-3.3.3-1.1.6-2.3.8-3.5.3-1.1.4-2.3.5-3.7z" transform="matrix(.14 0 0 .14 43.2 86)"></path><path d="M135.9 165c1.4.1 2.6.1 3.9-.1 1.3-.2 2.5-.4 3.7-.9 1.3-.4 2.5-.8 3.6-1.4 1.1-.6 2.1-1.2 2.7-2.4l.3.1c.1.8-.3 1.4-.7 2-.4.6-.9 1.1-1.5 1.5-1.2.9-2.5 1.4-3.7 1.9-1.2.5-2.8.7-4.2.6-1.6-.1-2.9-.5-4.1-1.3z" transform="matrix(.14 0 0 .14 43.2 86)"></path><path d="M145.8 218.5c.3-.6.3-1.2.3-1.8 0-.6 0-1.2-.1-1.8-.2-1.2-.3-2.4-.7-3.6-.3-1.1-.8-2.3-1.3-3.3-.5-1.1-1.1-2.1-2-3l.1-.3c1.4.3 2.4 1.4 3.1 2.5.8 1.1 1.4 2.3 1.7 3.7.3 1.4.4 2.6.3 4-.1.7-.2 1.4-.4 2 0 .7-.4 1.3-1 1.6z" transform="matrix(.14 0 0 .14 43.2 86)"></path><path d="M185.1 222.1c-.6.7-1.2 1.3-1.9 1.8s-1.4 1-2.1 1.4c-.8.4-1.5.7-2.4.9-.4.1-.9.2-1.2.3-.4.1-.8.1-1.2.3l-.1-.2c.4-.3.8-.3 1.2-.4.4-.1.8-.3 1.1-.4.8-.3 1.4-.7 2-1.2.6-.4 1.2-.9 1.7-1.5s.9-1.2 1.4-1.9z" transform="matrix(.14 0 0 .14 43.2 86)"></path><path d="M128.2 225.8c.2-.5.3-1.1.4-1.7.2-.5.3-1.1.7-1.6.5-1.1 1.2-2 2-2.9.9-.9 1.9-1.5 3-2s2.2-.9 3.6-.9v1.8c-.9 0-2 .2-3.1.5-1 .3-2 .9-2.8 1.5-.9.7-1.6 1.4-2.2 2.4-.3.4-.5.9-.8 1.4-.3.5-.4 1-.6 1.6z" transform="matrix(.14 0 0 .14 43.2 86)"></path><path d="M102.4 189.3c.5-.4.9-.9 1.5-1.4.6-.4 1.1-.8 1.7-1.2 1.2-.8 2.5-1.2 3.9-1.4 1.4-.3 2.8-.3 4.2 0 1.4.3 2.7.7 4.1 1.4l-.9 1.4c-.9-.7-2.2-1.2-3.4-1.5-1.2-.3-2.5-.5-3.8-.3-1.3.1-2.6.4-3.7 1-.6.3-1.2.6-1.7.9-.6.3-1 .9-1.6 1.2z" transform="matrix(.14 0 0 .14 43.2 86)"></path><path d="M124 145.2c1.2.3 2.4.5 3.4 1.2 1 .6 2 1.4 2.8 2.4a14.5 14.5 0 013.1 6.9l-1.7.2c-.1-1-.3-2.2-.6-3.3-.3-1.1-.9-2.1-1.4-3.1-.6-.9-1.4-1.8-2.4-2.5-.9-.8-2-1.1-3.1-1.4z" transform="matrix(.14 0 0 .14 43.2 86)"></path><path d="M161.1 171.9c2 2.2 4.4 4 7.1 5.4 2.6 1.4 5.6 2.5 8.6 3.2l-.1.3c-3.1-.4-6.1-1.1-9.1-2.2s-5.8-2.7-8.2-4.8z" transform="matrix(.14 0 0 .14 43.2 86)"></path><path d="M667 215.7c-.9-.8-1.7-1.5-2.6-2.2-.8-.7-1.7-1.3-2.6-1.6-.9-.4-1.9-.7-3-.8-1.1-.1-2.2-.3-3.3-.4l-.1-.3c1.1-.5 2.3-.7 3.5-.8.6 0 1.2 0 1.8.1.6.1 1.2.3 1.8.6 1.1.5 2.1 1.4 2.9 2.3.8.9 1.4 1.9 1.6 3.1z" transform="matrix(.14 0 0 .14 43.2 86)"></path><path d="M662.8 200.5c-1 .4-2 .9-2.8 1.6-.9.7-1.6 1.4-2.3 2.2-.7.8-1.3 1.7-1.7 2.6-.3.4-.5.9-.7 1.4-.3.5-.4.9-.8 1.6l-2.1-1.4c.3-.3.6-.8.9-1.3.3-.5.7-.9 1-1.4.7-.9 1.5-1.8 2.4-2.5.8-.8 1.9-1.4 2.9-1.9 1.1-.3 2.2-.6 3.2-.9z" transform="matrix(.14 0 0 .14 43.2 86)"></path><path d="M623.8 204.9c1.8 0 3.1.5 4.3 1.1 1.3.6 2.4 1.4 3.5 2.3 1 .9 2 2 2.6 3.1.7 1.1 1.3 2.4 1.6 3.7l-.3.1c-.5-1.2-1.2-2.3-2-3.2-.8-.9-1.8-1.8-2.8-2.5-1-.7-2.2-1.2-3.3-1.5-.6-.2-1.2-.3-1.7-.4-.6-.1-1.1-.1-1.5 0z" transform="matrix(.14 0 0 .14 43.2 86)"></path><path d="M631.7 196.8c1.1-.8 2.3-1.8 3.6-2.4 1.3-.7 2.8-1 4.2-1.1 1.4-.1 2.7 0 4-.2 1.3-.3 2.5-.8 3.6-1.4l.2.3c-1 .8-2.2 1.6-3.6 2.1-1.4.4-2.7.5-4 .8-1.3.3-2.4.8-3.4 1.4-1 .7-2 1.6-2.8 2.6z" transform="matrix(.14 0 0 .14 43.2 86)"></path><path d="M619.3 174.8c.8.3 1.4.7 2 1.1a7 7 0 011.6 1.4c.9 1 1.7 2.3 2 3.6.4 1.3.6 2.6.6 3.9 0 1.3-.2 2.6-.5 3.8l-.3-.1c.2-1.2.1-2.5-.1-3.7-.2-1.2-.6-2.4-1.1-3.4-.5-1-1.3-2-2.1-2.6-.4-.3-.9-.6-1.4-.8-.5-.3-1-.4-1.4-.5z" transform="matrix(.14 0 0 .14 43.2 86)"></path><path d="M663 183.8c.4-1.4.6-3 .7-4.4.1-1.5.1-3 0-4.5-.2-3-.5-5.9-1-8.8-.2-.8-.3-1.4-.5-2.1-.1-.2-.1-.3-.2-.4 0-.1-.1-.1-.1-.1s0 .1.3.1h.3c.1 0 .1-.1.2-.1.1-.1.1-.2.1-.1v.7c.1 1.4.3 3 .3 4.5 0 3.1-.5 6.2-1.8 8.9l-.2-.1c.8-2.9 1-5.9.8-8.8-.1-1.5-.3-3-.4-4.5v-1c0-.1.1-.3.3-.6.1-.1.2-.1.3-.2.1 0 .3-.1.4-.1.3.1.4.3.4.3.2.2.2.3.3.4.1.3.2.4.3.6.3.8.4 1.5.6 2.3.6 3.1.8 6 .8 9.1-.2 3.1-.5 6.2-1.9 8.9z" transform="matrix(.14 0 0 .14 43.2 86)"></path><path d="M617.5 231.3c.8-2.5 1.9-4.9 3.7-7.1 1.7-2 4-3.7 6.5-4.7l.6 1.6c-2.4.7-4.6 2-6.5 3.7-1.8 1.8-3.1 4-4.2 6.5z" transform="matrix(.14 0 0 .14 43.2 86)"></path><path d="M654 230.9c.1-1.2.1-2.4.3-3.6.2-1.2.5-2.4 1-3.5s1.3-2.1 2.1-3.1c.9-.9 1.8-1.7 2.8-2.4l.9 1.4c-.9.6-2 1.2-2.8 1.9-.8.8-1.6 1.5-2.2 2.5-.6.9-1 2-1.4 3.1-.3 1.1-.4 2.3-.6 3.5z" transform="matrix(.14 0 0 .14 43.2 86)"></path><path d="M602.2 198.5c.6-1.3 1.4-2.5 2.4-3.5.9-1 2-2 3.2-2.8 1.2-.8 2.5-1.4 3.8-2 .7-.3 1.4-.4 2-.7.7-.2 1.4-.3 2.1-.4l.2 1.7c-.7.1-1.4.1-2 .2-.7.2-1.4.2-2 .4-1.3.3-2.5.9-3.7 1.4-1.2.6-2.3 1.4-3.3 2.4-1 .9-1.9 2-2.6 3.1z" transform="matrix(.14 0 0 .14 43.2 86)"></path><path d="M692.3 179.7c.5.7 1 1.4 1.4 2.1.4.7.8 1.5 1.1 2.3.3.8.5 1.6.6 2.5.1.9 0 1.7 0 2.5h-.2c-.2-.8-.2-1.6-.4-2.4-.2-.8-.5-1.5-.9-2.2-.4-.7-.8-1.4-1.4-2-.5-.6-1.1-1.2-1.6-1.7z" transform="matrix(.14 0 0 .14 43.2 86)"></path><path d="M314.3 171.3c-.8 2.9-1.3 5.9-1.7 8.8-.4 2.9-.6 5.9-.4 8.8h-2.6c.3-3.1.9-6.1 1.6-9 .7-2.9 1.8-5.8 2.9-8.6z" transform="matrix(.14 0 0 .14 43.2 86)"></path><path d="M301.7 191.6c.2 1 .2 2.1 0 3.2s-.5 2.2-1.2 3.1c-.6 1-1.4 1.8-2.4 2.5-.9.7-1.8 1.2-2.8 1.7-2 .9-4.4 1.4-6.6 1.1-2.2-.3-4.4-1-5.9-2.6l.3-.3c2 .6 3.9.9 5.9.8 1.9-.1 3.7-.5 5.4-1.3.9-.4 1.7-.9 2.5-1.4.8-.5 1.5-1 2.2-1.7 1.2-1.2 1.9-3.1 2.6-5.1z" transform="matrix(.14 0 0 .14 43.2 86)"></path><path d="M592.2-45.4c-.8.7-1.6 1.1-2.5 1.6-.8.5-1.7.9-2.5 1.3-1.8.8-3.6 1.3-5.5 1.4-1.9.3-3.8.1-5.6-.1-1.9-.2-3.7-.5-5.4-.9-3.6-.9-7-2-10.4-3.2-1.7-.6-3.3-1.3-5-1.8-.9-.3-1.7-.5-2.5-.7-.9-.2-1.7-.3-2.6-.5l-2.6-.5-2.6-.3c-1.8-.3-3.6-.3-5.3-.4-3.6-.1-7.1.1-10.6.7s-6.9 1.6-10.4 2.6c-1.7.5-3.5 1-5.2 1.4-1.8.3-3.6.4-5.4.1l.1-.3c1.8.2 3.6.1 5.3-.3 1.7-.4 3.4-.9 5.1-1.5 3.4-1.2 6.8-2.3 10.4-3 3.6-.7 7.1-1 10.8-1 1.8.1 3.7.1 5.4.3l2.7.3 2.6.4c.9.2 1.8.3 2.7.4.9.1 1.8.4 2.7.7 1.8.5 3.5 1.1 5.1 1.7 3.4 1.1 6.8 2.2 10.2 2.9 1.7.3 3.5.6 5.2.8 1.7.2 3.5.2 5.1-.1 1.7-.3 3.3-.8 4.8-1.4.8-.3 1.5-.8 2.2-1.2.7-.4 1.4-.9 2-1.4z" transform="matrix(.14 0 0 .14 43.2 86)"></path><path d="M406.9 12.5c3.7.5 7.6.9 11.3 1.1 3.7.2 7.6.3 11.3.3 7.6-.1 15.1-.3 22.7-.7 7.6-.3 15.1-.8 22.7-1.2 3.8-.3 7.6-.4 11.4-.7 3.8-.2 7.6-.5 11.4-.7v.3c-3.7.5-7.6.9-11.3 1.4-3.7.4-7.6.8-11.3 1.1a429.03 429.03 0 01-45.6 1.8c-3.8-.1-7.6-.3-11.4-.7-3.8-.5-7.6-1-11.2-2z" transform="matrix(.14 0 0 .14 43.2 86)"></path><path d="M521 8.3c4.3-.7 8.7-1.2 13-1.8l13.1-1.6A749.18 749.18 0 01599.6.2c4.4-.2 8.8-.3 13.2-.4 4.4 0 8.8 0 13.2.2v.3l-6.5.3-6.5.3c-4.3.3-8.8.5-13.1.8-8.9.7-17.6 1.3-26.4 2.1l-26.2 2.4-13.1 1.2c-4.4.2-8.9.7-13.2.9z" transform="matrix(.14 0 0 .14 43.2 86)"></path><path d="M664.1 58.2c1.4-1.2 2.5-2.6 3.7-4.1 1.1-1.4 2-3.1 2.7-4.7.4-.8.7-1.7.9-2.5.2-.4.3-.8.3-1.3.2-.4.3-.9.3-1.3.4-1.7.4-3.5.3-5.2h2.6c-.2 2-.4 3.9-1.1 5.7-.2.4-.3.9-.5 1.4-.2.4-.3.9-.5 1.4-.4.9-.9 1.7-1.4 2.5-.9 1.6-2.1 3.1-3.4 4.5-1 1.3-2.3 2.6-3.9 3.6z" transform="matrix(.14 0 0 .14 43.2 86)"></path><path d="M381.9 4.7c-.9-1.2-1.6-2.4-2.3-3.7-.7-1.3-1.3-2.6-1.7-4.1a33.2 33.2 0 01-1.8-8.7h2.6c-.1 1.4-.1 2.8 0 4.2.1 1.4.3 2.8.5 4.2.3 1.4.7 2.7 1.1 4.1.5 1.4 1 2.6 1.8 3.9z" transform="matrix(.14 0 0 .14 43.2 86)"></path><path d="M550.2 67.2c1.1.2 2.2.3 3.3.6 1.1.3 2.2.5 3.2.8 1.1.3 2.1.7 3.2 1.1 1.1.4 2.1.8 3.1 1.4l-1.4 2.2c-.8-.6-1.7-1.3-2.6-1.9-.9-.6-1.9-1.1-2.8-1.6-1.8-1-3.8-1.8-6-2.6z" transform="matrix(.14 0 0 .14 43.2 86)"></path><path d="M649.5 130.8c1.5-.3 3.1-.1 4.5.4 1.4.4 2.8 1.3 3.9 1.9.6.3 1.1.5 1.7.6.3.1.6.2.9.2l.5.1h.4c.6 0 1.1-.1 1.7-.3.5-.2 1.1-.5 1.4-1.1h.4c.1.4 0 .9-.2 1.3s-.4.8-.8 1.1c-.6.6-1.4 1-2.3 1.2-.3.1-.4.1-.7.1h-.6c-.4 0-.8 0-1.2-.1-.9-.1-1.6-.4-2.4-.8-1.4-.8-2.5-1.6-3.7-2.4-.8-.8-2.1-1.4-3.5-2.2z" transform="matrix(.14 0 0 .14 43.2 86)"></path><path d="M324.1 184.1c.4.7.9 1.2 1.4 1.6.5.4 1 .8 1.6 1.2 1.1.8 2.4 1.4 3.6 2.5l-.1.3c-.9.1-1.6-.1-2.4-.3-.8-.3-1.4-.6-2.1-1-.7-.4-1.3-1-1.7-1.8-.4-.8-.7-1.7-.3-2.5z" transform="matrix(.14 0 0 .14 43.2 86)"></path><path d="M330.9 182.6c.7.5 1.2 1 1.8 1.4.6.4 1.1.9 1.7 1.3 1.2.8 2.4 1.6 3.6 2.6l-.1.3c-.9.1-1.6-.1-2.4-.3-.8-.3-1.4-.6-2.1-1.1-.7-.5-1.3-1.1-1.7-1.8-.5-.8-.8-1.6-.8-2.4z" transform="matrix(.14 0 0 .14 43.2 86)"></path><path d="M337 180.9c.8.5 1.4.9 2.1 1.4.7.3 1.4.8 2.2 1.1 1.4.7 3 1.3 4.6 2.1v.3c-.9.2-1.8.2-2.7 0-.9-.2-1.8-.4-2.5-.9-.9-.4-1.6-.9-2.3-1.6-.7-.7-1.2-1.5-1.4-2.4z" transform="matrix(.14 0 0 .14 43.2 86)"></path><path d="M344 179.4c.7.1 1.3.3 1.9.4.6.2 1.1.3 1.7.5 1.1.3 2.2.7 3.3 1.4v.3c-.7.3-1.3.3-2 .3s-1.3-.2-2-.3c-.6-.2-1.2-.5-1.7-.9-.5-.5-.9-1-1.2-1.7z" transform="matrix(.14 0 0 .14 43.2 86)"></path><path d="M352 176.7c.5.3.9.4 1.3.6l1.2.4c.8.3 1.6.7 2.5 1.4v.3c-.5.3-1.1.3-1.6.3s-1.1-.2-1.5-.3c-.5-.3-1-.5-1.4-1-.4-.5-.6-1.1-.5-1.7z" transform="matrix(.14 0 0 .14 43.2 86)"></path><path d="M444 189.6c1.5.3 2.9.6 4.2.9 1.4.3 2.8.4 4.2.6 1.4.2 2.8.3 4.2.5 1.4.2 2.8.3 4.3.3l.1.4a9.1 9.1 0 01-4.4 1.4c-1.5.2-3.1.2-4.6-.1-1.5-.3-3-.7-4.4-1.3a7.2 7.2 0 01-3.6-2.7z" transform="matrix(.14 0 0 .14 43.2 86)"></path><path d="M455.9 204.5c-1.4.3-2.9.6-4.2 1-1.4.4-2.7.8-4.1 1.4-2.6 1-5.3 2.3-8 3.6l-.2-.2c1-1.2 2.2-2.1 3.4-3 1.3-.8 2.6-1.5 4.1-2 1.5-.5 2.9-.9 4.4-1.1 1.5-.2 3.2-.1 4.6.3z" transform="matrix(.14 0 0 .14 43.2 86)"></path><path d="M404.9 179.9c.9.8 1.5 2 2 3.2.4 1.2.6 2.5.6 3.8 0 1.3-.3 2.6-.8 3.8-.5 1.2-1.3 2.3-2.3 3.1l-.2-.2c.5-1.1.9-2.2 1.1-3.3.3-1.1.3-2.2.4-3.4.1-1.1 0-2.3-.2-3.5-.1-1.1-.3-2.2-.6-3.5z" transform="matrix(.14 0 0 .14 43.2 86)"></path><path d="M419.3 165.9c1.3-.3 2.6-.7 3.7-1.2.6-.3 1.1-.5 1.6-.9.5-.3.9-.7 1.4-1.1 1-.9 2-1.6 2.8-2.5.9-.9 1.6-1.8 1.8-3.1l.3-.1c.3.7.3 1.4.1 2.1-.2.7-.6 1.4-.9 1.9-.8 1.2-1.8 2-2.8 2.9-.5.4-1.1.9-1.7 1.2-.7.3-1.3.6-2 .7-1.5.4-2.9.4-4.3.1z" transform="matrix(.14 0 0 .14 43.2 86)"></path><path d="M421.2 218.8c.1-.6-.1-1.2-.3-1.7-.2-.5-.4-1.1-.7-1.6-.5-1-1.1-2-1.7-3-.6-.9-1.4-1.8-2.2-2.6-.9-.8-1.7-1.5-2.8-2v-.3c1.4-.2 2.6.4 3.7 1.2 1.1.8 2 1.6 2.7 2.7.7 1.1 1.3 2.3 1.5 3.5.2.6.3 1.3.3 2 0 .6-.1 1.3-.5 1.8z" transform="matrix(.14 0 0 .14 43.2 86)"></path><path d="M380.9 193.6c.7-1.3 1.9-2.1 3.1-2.9 1.2-.8 2.5-1.3 3.9-1.7 2.7-.8 5.7-1 8.6-.3l-.5 1.7c-2.4-.9-5.2-.9-7.8-.4-1.4.3-2.6.7-3.8 1.3-1.2.6-2.4 1.4-3.1 2.5z" transform="matrix(.14 0 0 .14 43.2 86)"></path><path d="M404.2 231.9c.1-1.2.2-2.3.6-3.5.2-.6.4-1.1.7-1.6.3-.5.6-1 1-1.5.8-.9 1.6-1.8 2.5-2.5 1-.7 2-1.3 3.2-1.8l.4 1.7c-.9.3-2 .7-3 1.2s-1.9 1.2-2.6 2c-.4.3-.7.8-1 1.3-.3.5-.6.9-.9 1.4-.4 1.1-.6 2.2-.9 3.3z" transform="matrix(.14 0 0 .14 43.2 86)"></path><path d="M408.1 149.2c.6 0 1.2.1 1.8.1l1.8.3c1.2.3 2.3.9 3.3 1.7 1 .9 1.8 2 2.2 3.1.3.6.4 1.3.5 1.9 0 .3.1.7.1 1v.8l-.1.3-1.7-.4v-.3c0-.1 0-.3.1-.3v-.8c0-.5-.1-1.1-.3-1.6-.3-1-.8-2-1.5-2.8-.8-.8-1.7-1.4-2.8-1.9-.5-.3-1.1-.3-1.7-.5l-1.8-.3z" transform="matrix(.14 0 0 .14 43.2 86)"></path><path d="M454.6 216.2l-.8.9-.8.9c-.6.6-1.2 1.1-1.8 1.6-.7.5-1.4.9-2 1.2-.8.3-1.5.5-2.3.6v-.2c.8-.2 1.4-.5 2-.9.6-.4 1.2-.9 1.7-1.4.5-.5.9-1.1 1.4-1.7l.6-.9.5-.9z" transform="matrix(.14 0 0 .14 43.2 86)"></path><path d="M550.2 68.2c2.1.3 4.3.7 6.5 1.2 1.1.3 2.1.5 3.1.8 1.1.3 2.1.6 3.1.9l-1.1 2.4c-.9-.5-1.9-1-2.8-1.5-.9-.5-2-.9-2.9-1.4-1.8-.8-3.7-1.7-5.9-2.4z" transform="matrix(.14 0 0 .14 43.2 86)"></path><path d="M487.3 109.9c-.9-2.4-1.1-5.1-.7-7.7.4-2.6 1.4-5 2.4-7.4 1-2.4 2.1-4.6 3-7 .8-2.3 1.4-4.8 1-7.3l.3-.1c.9 2.5.8 5.3.1 7.7-.7 2.6-1.7 4.9-2.7 7.2-1 2.3-2 4.6-2.6 7-.8 2.6-1 5-.8 7.6z" transform="matrix(.14 0 0 .14 43.2 86)"></path><path d="M565.6 150c-.7.3-1.4.3-2.1.1-.7-.2-1.4-.4-2-.9-.6-.4-1.1-.9-1.5-1.4-.4-.6-.8-1.2-.9-2l.3-.2c1.3.7 2.2 1.4 3.2 2.1.5.3 1 .7 1.5 1 .3.5.9.8 1.5 1.3z" transform="matrix(.14 0 0 .14 43.2 86)"></path><path d="M549.6 146.7a4 4 0 01-2.8-1.9c-.3-.4-.6-1-.7-1.5-.1-.6-.2-1.2 0-1.8l.3-.1a18 18 0 011.9 2.4c.3.4.5.8.8 1.3 0 .5.3 1 .5 1.6z" transform="matrix(.14 0 0 .14 43.2 86)"></path><path d="M541.9 142.8c-.6-.2-1-.6-1.3-1.1a4.3 4.3 0 01-.6-3.1c.1-.5.3-1 .7-1.5h.3c.5 1 .7 1.9.8 2.8.1.4.1.8.1 1.4z" transform="matrix(.14 0 0 .14 43.2 86)"></path><path d="M569.4 146.2c.6.2 1 .4 1.5.7.4.3.8.5 1.3.8.8.5 1.6 1 2.5 1.9l-.1.3c-.6.2-1.2.2-1.8.1-.6-.2-1.1-.3-1.5-.7-1-.9-1.8-1.8-1.9-3.1z" transform="matrix(.14 0 0 .14 43.2 86)"></path><path d="M577.5 143.5l1.5.1c.4 0 .8.1 1.4.1.8.2 1.8.3 2.8.8v.3c-.5.3-1 .5-1.5.7a4.3 4.3 0 01-3.1-.6c-.5-.2-.9-.7-1.1-1.4z" transform="matrix(.14 0 0 .14 43.2 86)"></path><path d="M535.3 138c-.5-.3-.8-.8-.9-1.3-.2-.5-.2-1-.1-1.5s.3-.9.4-1.4c.3-.4.5-.8 1-1.1l.3.1c.3 1 .1 1.9 0 2.6l-.3 1.2z" transform="matrix(.14 0 0 .14 43.2 86)"></path><path d="M555.8 148.3c-.6-.2-1-.6-1.3-1.1a4.3 4.3 0 01-.6-3.1c.1-.5.3-1 .7-1.5h.3c.5 1 .7 1.9.8 2.8.1.4.1.9.1 1.4z" transform="matrix(.14 0 0 .14 43.2 86)"></path><path d="M531.3 160.5c-.6.4-1.4.7-2 .7-.7.1-1.4 0-2.1-.3-.7-.2-1.4-.5-1.9-.9-.6-.4-1.1-.9-1.4-1.6l.2-.2c1.4.3 2.5.7 3.7 1.1.6.2 1.1.3 1.7.6.4.1 1 .3 1.8.6z" transform="matrix(.14 0 0 .14 43.2 86)"></path><path d="M515.9 166.7c-1.2.3-2.4-.2-3.2-.9-.4-.3-.9-.8-1.2-1.3-.3-.5-.5-1-.5-1.7l.3-.2c1 .5 1.8 1.1 2.6 1.7.3.3.8.6 1.1.9.2.5.6.9.9 1.5z" transform="matrix(.14 0 0 .14 43.2 86)"></path><path d="M507.8 167.8c-.6.3-1.2.2-1.7 0s-1-.5-1.4-.8c-.4-.3-.7-.8-.9-1.3-.3-.5-.4-.9-.4-1.6l.3-.2c1 .4 1.7 1.1 2.4 1.7.3.3.6.7.9.9z" transform="matrix(.14 0 0 .14 43.2 86)"></path><path d="M500 165.6c-.6.1-1.1-.1-1.5-.4-.4-.3-.8-.7-1-1.1-.3-.4-.4-.8-.5-1.4-.1-.5-.1-.9.2-1.5l.3-.1c.8.7 1.2 1.4 1.6 2 .2.3.3.7.5 1.1z" transform="matrix(.14 0 0 .14 43.2 86)"></path><path d="M522.5 163.9c-.6.3-1.2.2-1.7 0s-1-.5-1.4-.8c-.4-.3-.7-.8-.9-1.3-.3-.5-.4-.9-.4-1.6l.3-.2c1 .4 1.7 1.1 2.4 1.7.3.3.6.7.9.9z" transform="matrix(.14 0 0 .14 43.2 86)"></path><path d="M589.3 106.5c1.1.6 1.6 1.7 1.9 2.8.1.6.2 1.1.1 1.7-.1.6-.3 1.1-.7 1.6l-.3-.1c-.4-1.1-.6-2-.8-3-.1-.5-.2-.9-.2-1.4v-1.6z" transform="matrix(.14 0 0 .14 43.2 86)"></path><path d="M594.3 113.7c.6.2.9.7 1.3 1.2.3.5.4 1 .5 1.5.1.5 0 1-.1 1.6-.2.5-.3 1-.8 1.4l-.3-.1c-.5-1-.6-2-.7-2.8 0-.4 0-.9-.1-1.4z" transform="matrix(.14 0 0 .14 43.2 86)"></path><path d="M599.6 119.6c.5.3.8.8.8 1.3.2.5.1 1 0 1.5s-.3.9-.5 1.4c-.3.4-.6.8-1.1 1l-.3-.1c-.2-1 0-1.9.2-2.6.1-.4.2-.8.3-1.1z" transform="matrix(.14 0 0 .14 43.2 86)"></path><path d="M583.3 100.5c.6 0 1.1.3 1.5.8.4.4.7.8.9 1.4.3.5.3 1 .3 1.5s0 1.1-.3 1.6h-.3c-.8-.8-1.1-1.7-1.4-2.5-.2-.4-.3-.8-.4-1.3z" transform="matrix(.14 0 0 .14 43.2 86)"></path><path d="M469.6 99.2a4.07 4.07 0 01-3.2 1.8c-.6.1-1.3 0-1.9-.2-.6-.2-1.2-.4-1.6-.8l.1-.3c1.2-.3 2.2-.3 3.3-.4l1.5-.1h1.8z" transform="matrix(.14 0 0 .14 43.2 86)"></path><path d="M457 105.6c-.9.7-2 .7-2.9.4-.5-.2-.9-.3-1.4-.7-.4-.3-.8-.7-.9-1.3l.2-.2c1 .1 1.8.3 2.6.5.4.1.8.3 1.2.4l1.2.9z" transform="matrix(.14 0 0 .14 43.2 86)"></path><path d="M449.9 107.3c-.4.3-.9.4-1.4.4-.5 0-.9-.2-1.4-.4-.4-.3-.8-.5-1.1-.8-.3-.3-.5-.8-.6-1.3l.2-.2c1 .1 1.7.4 2.4.8l.9.6z" transform="matrix(.14 0 0 .14 43.2 86)"></path><path d="M468.6 96c.5-.3.9-.3 1.4-.4.4-.1.9-.2 1.2-.3.9-.1 1.6-.2 2.6 0l.2.3c-.3.5-.7.8-1.1 1.1-.4.3-.9.3-1.4.4-1.1 0-2.1-.2-2.9-1.1z" transform="matrix(.14 0 0 .14 43.2 86)"></path><path d="M472.7 91.7l1-.9c.3-.3.6-.4.9-.7.7-.4 1.4-.8 2.4-.8l.2.2c-.1.5-.3.9-.6 1.3-.3.3-.7.7-1 .8-.4.3-.9.4-1.4.4-.5.1-1 0-1.5-.3z" transform="matrix(.14 0 0 .14 43.2 86)"></path><path d="M444.4 108.8c-.3.3-.9.4-1.4.4-.4 0-.9-.2-1.3-.3-.4-.1-.7-.5-.9-.8-.3-.3-.4-.8-.5-1.3l.2-.2c.9.1 1.5.4 2.1.8.3.2.5.3.9.6z" transform="matrix(.14 0 0 .14 43.2 86)"></path><path d="M462.6 102.7c-.3.5-.8.8-1.2.9-.5.2-.9.2-1.4.1-.4-.1-.9-.3-1.3-.4-.4-.3-.8-.5-1-1l.1-.3c1-.3 1.8-.2 2.6-.1.3.1.8.2 1.1.3z" transform="matrix(.14 0 0 .14 43.2 86)"></path><path d="M477.7 82.9c.2 1.2-.5 2.4-1.4 3.1-.4.3-.9.7-1.4.8-.5.2-1.1.3-1.7.2l-.1-.3c.7-.9 1.4-1.5 2.1-2 .3-.3.7-.6 1.1-.8.4-.4.8-.7 1.4-1z" transform="matrix(.14 0 0 .14 43.2 86)"></path><path d="M472.5 81.8c.3-.5.5-.8.8-1.1.3-.3.5-.6.8-.8.5-.5 1.1-.9 2-1.3l.3.1c.1.5-.1 1-.3 1.4-.2.4-.5.8-.9 1.1-.8.6-1.7 1-2.7.6z" transform="matrix(.14 0 0 .14 43.2 86)"></path><path d="M468.7 77.9c.4-.3.7-.6.9-.8.3-.2.5-.4.9-.6.6-.3 1.2-.6 2.2-.6l.2.2c-.1.5-.3.8-.6 1.2-.3.3-.6.6-1 .8-.3.2-.8.3-1.3.3-.4 0-.9 0-1.3-.5z" transform="matrix(.14 0 0 .14 43.2 86)"></path><path d="M464.1 75.5c.4-.3.7-.4.9-.5.3-.2.5-.3.8-.3.6-.2 1.2-.3 2 0l.2.3c-.2.4-.4.8-.8 1-.3.3-.7.4-1 .5-.3.1-.8.1-1.2 0-.3-.4-.7-.6-.9-1z" transform="matrix(.14 0 0 .14 43.2 86)"></path><path d="M531.4 205.8c1.8-.9 3.5-1.5 5.2-2.4 1.6-.8 3.2-1.7 4.8-2.6 1.5-.9 3-2 4.8-3 .9-.5 2-.9 3.1-.9 1.2.1 2.1.7 2.8 1.4l-.2.3c-.9-.3-1.8-.3-2.6-.2-.8.2-1.4.7-2.1 1.2-1.4 1.1-2.9 2.4-4.6 3.4-1.7 1-3.6 1.8-5.4 2.3-1.8.5-3.8.7-5.8.6z" transform="matrix(.14 0 0 .14 43.2 86)"></path><path d="M260.7 87.8l-.3 1.7c-.2.6-.4 1.1-.6 1.7l-.9 1.5c-.3.5-.8.9-1.2 1.4-1.7 1.7-3.7 2.9-5.4 4.2-1.8 1.3-3.3 2.8-4.5 4.5-1.3 1.8-2.2 3.7-3.2 5.9l-.3-.1c.3-2.3.9-4.6 2-6.7 1.1-2.1 2.9-3.9 4.8-5.4 2-1.4 3.9-2.5 5.6-3.7.9-.6 1.6-1.4 2.4-2.2.3-.4.6-.9.9-1.4.1-.4.4-.9.7-1.4z" transform="matrix(.14 0 0 .14 43.2 86)"></path><path d="M231.8 99.4c-2 1.1-3.8 2.6-5.2 4.3-1.4 1.8-2.4 3.8-3.8 5.8-1.4 1.9-3.1 3.6-4.8 5.1-.9.8-1.7 1.5-2.3 2.3-.6.8-1 1.7-1.3 2.7l-2.5-.8c.4-1.2 1.1-2.4 2-3.4.9-1 1.9-1.7 2.8-2.4 1.9-1.4 3.6-2.8 5-4.5 1.4-1.6 2.7-3.7 4.2-5.4 1.6-1.8 3.6-3.1 5.7-4z" transform="matrix(.14 0 0 .14 43.2 86)"></path><path d="M239.7 83.5c-.5 1.4-1 2.7-1.8 4-.8 1.3-1.7 2.5-2.9 3.4-1.1.9-2.5 1.7-3.7 2.4-1.2.7-2.6 1.4-3.7 2.2-2.3 1.6-4.3 3.6-6.3 5.7-2 2-3.7 4.3-5.3 6.6l-2.1-1.5c1.9-2.4 3.8-4.5 6-6.5s4.4-3.9 7-5.4c2.6-1.5 5.4-2.4 7.7-4 1.1-.9 2.1-1.9 2.9-3 .9-1.2 1.4-2.5 2-3.8z" transform="matrix(.14 0 0 .14 43.2 86)"></path><path d="M223.2 114.9c-.1 1.2-.3 2.3-.9 3.3-.4 1-1.1 2-1.8 2.9-.7.9-1.4 1.6-2.2 2.4-.8.8-1.4 1.4-2.1 2.3l-.3-.1c-.1-1.2.4-2.4 1-3.3.6-1 1.3-1.9 2-2.6l2.1-2.4c.6-.9 1.2-1.6 2.2-2.5z" transform="matrix(.14 0 0 .14 43.2 86)"></path><path d="M250 83c0 1.6-.7 3.2-1.4 4.7-.8 1.4-1.8 2.8-2.9 4-2 2.5-4.4 4.8-6.5 7.1-1.1 1.2-2 2.4-2.9 3.7-.9 1.3-1.4 2.7-2.1 4.2-1.3 2.9-2.3 5.9-3.1 9l-.3-.1c.1-3.2.8-6.5 1.8-9.6.5-1.5 1.2-3.1 2-4.6.8-1.5 2-2.8 3.1-4 2.2-2.4 4.7-4.5 6.9-6.8 1.1-1.1 2.2-2.2 3.2-3.5.9-1.2 1.7-2.5 2.2-4.1z" transform="matrix(.14 0 0 .14 43.2 86)"></path><path d="M225.6 120.1c.4 1.7.2 3.6-.3 5.3-.5 1.7-1.4 3.2-2 4.7-.8 1.4-1.4 2.9-1.9 4.4-.4 1.5-.6 3.1-.7 4.8l-.3.1c-.8-1.6-1-3.4-.9-5.3.3-1.8.9-3.5 1.7-5 .8-1.5 1.7-2.9 2.5-4.3.8-1.6 1.4-3 1.9-4.7z" transform="matrix(.14 0 0 .14 43.2 86)"></path><path d="M252.4 116.9a19 19 0 011.2-3.6c.5-1.2 1-2.3 1.6-3.3.6-1.1 1.4-2 2.1-3 .7-1 1.7-1.8 2.7-2.5l.2.2c-.9.8-1.6 1.7-2.3 2.7-.6 1-1.2 2-1.6 3.1-.4 1.1-.8 2.2-1.1 3.3-.3 1.1-.5 2.3-.6 3.4z" transform="matrix(.14 0 0 .14 43.2 86)"></path><path d="M378.6 80.9c-3.2.3-6.5.3-9.7-.3-.9-.1-1.6-.3-2.4-.5-.8-.2-1.6-.3-2.4-.7-1.6-.5-3.1-1.1-4.6-1.9-1.4-.8-2.9-1.6-4.2-2.5-1.4-.9-2.6-1.9-3.9-2.8-2.6-2-5-3.7-8.1-4.8l.1-.3c3.3.3 6.4 2 9 3.7 2.7 1.7 5.4 3.5 8.2 4.8 2.8 1.4 5.7 2.5 8.8 3.3 2.9.9 6 1.3 9.2 2z" transform="matrix(.14 0 0 .14 43.2 86)"></path><path d="M296.6 89.57l1.38 3.22c.37.86.85 1.31 1.14 1.63.29.32.51.59.83 1.58v.02l.01.02c2.39 6.49.45 10.84-2.63 15.04-3.07 4.2-7.38 8.03-9.26 13.05-.65 1.54-.97 3.38-.67 6.47v.03l.01.02c.07.45.06.67.06.89a6.57 6.57 0 01-.63-.29c-2.99-2.28-4.7-4.08-5.65-5.35-.95-1.26-1.15-1.89-1.34-2.35-1.04-3.15-.56-6.63 0-9.59.3-1.48.6-2.82.7-3.98a5.4 5.4 0 00-.07-1.65 2.38 2.38 0 00-.9-1.44l-1.17-.84-.37 1.4c-.13.46-.3 1.3-.66 2.58-.36 1.29-.9 2.96-1.72 4.9a47.05 47.05 0 01-8.99 13.78c-5.14 5.33-14.51 11.07-22.72 9.02h-.03c-.28-.07-.32-.1-.52-.17.03 0 .04-.02.07-.03h.01c4.18-1.71 6.66-5.72 8.22-9.76 1.56-4.03 2.24-8.21 2.68-10.48l-1.92-.52c-1.13 3.17-2.46 4.9-3.87 6-1.4 1.09-2.93 1.56-4.58 2.02-1.65.46-3.42.89-5.05 2.04s-3.04 3.02-4.01 6.07l1.9.6c.88-2.75 2-4.15 3.26-5.04 1.26-.89 2.76-1.28 4.43-1.75a14.29 14.29 0 005.28-2.37c.43-.33.8-.88 1.21-1.32-.35 1.33-.67 2.68-1.2 4.03-1.46 3.79-3.7 7.23-7.1 8.62-.41.17-.8.34-1.16.57-.36.23-.8.5-.92 1.2-.06.35.06.76.25 1.03a2 2 0 00.65.56 6.8 6.8 0 001.92.64c9.38 2.34 19.19-3.9 24.65-9.58h.01a49.06 49.06 0 009.37-14.38c.09-.21.1-.33.19-.54-.46 2.76-.79 5.9.26 9.05l.02.04.01.03c.1.24.5 1.35 1.61 2.81a31 31 0 006.1 5.8l.07.05.07.03c.45.24.85.44 1.28.57.42.13.94.23 1.49-.05.55-.29.8-.88.87-1.4a6.2 6.2 0 00-.08-1.75v.05c-.28-2.9 0-4.25.53-5.5v-.03l.02-.02c1.63-4.37 5.76-8.14 9-12.58 3.25-4.44 5.5-9.8 2.9-16.9-.14-.43-.3-.53-.45-.84 1.23.35 2.68.6 4.24.67 3.22.13 6.9-.65 9.26-3.69l-1.58-1.23c-1.84 2.37-4.76 3.04-7.6 2.92-2.83-.12-5.58-1.17-6.24-1.62z" transform="matrix(.14 0 0 .14 43.2 86)"></path><path d="M296.9 124.8c.4 3 1.4 5.9 2.6 8.6 1.3 2.6 3.1 5 5.3 6.9 2.2 1.9 4.8 3.1 7.6 3.9 2.8.8 5.7.9 8.7.9h.4c.1 0 0 0-.1.2v.2l-.2-.2-.1-.1h-.1a16.4 16.4 0 01-4.1-5c-1-2-1.6-4-1.9-6.1l-.1-.8c0-.3-.1-.4-.1-.7-.1-.4-.3-.9-.4-1.4-.3-.9-.7-1.8-1.2-2.6-.5-.9-1-1.7-1.7-2.5-.6-.8-1.3-1.5-2-2.4l.3-.3c1.5 1.4 3.1 2.7 4.2 4.4.6.9 1.2 1.8 1.6 2.7l.6 1.5c.1.3.2.5.2.9l.2.8c.4 2 1 3.8 2 5.4.9 1.7 2.2 3.1 3.7 4.2l-.2-.1c.3.2.7.4 1 .9.3.4.5 1 .3 1.7-.3.7-.8 1-1.2 1.2-.4.2-.9.2-1.2.2h.1c-3.1.2-6.3-.1-9.4-1-.8-.2-1.5-.5-2.2-.8-.8-.3-1.4-.7-2.1-1a20.58 20.58 0 01-9-10.6c-1-2.8-1.6-5.9-1.5-9z" transform="matrix(.14 0 0 .14 43.2 86)"></path><path d="M306.9 108.1c2.5 2.4 5.2 4.5 8.2 6.3 2.9 1.8 6 3.3 9.2 4.2 3.2.9 6.5 1.4 9.9.9.9-.1 1.6-.3 2.5-.4.8-.3 1.6-.4 2.4-.7 1.5-.5 3.1-1.3 4.5-2h.2c.2-.1.3-.2.4-.3.1-.1 0-.1 0 0s.1.1 0 .1-.2-.1-.3-.1h-.3c-2.4-.5-4.8-1.4-6.7-2.9-2-1.4-3.7-3.2-5-5.3-1.2-1.9-2.8-3.4-4.7-4.8-1.9-1.4-4-2.3-6.1-3.1l.1-.3c2.2.6 4.5 1.4 6.5 2.5 2 1.2 4 2.8 5.4 4.8 1.4 1.8 3 3.4 4.8 4.6 1.8 1.3 3.9 2 6 2.4h-.2c.4 0 .9.1 1.4.3.5.3.9.8 1.1 1.5.1.7-.3 1.4-.6 1.7-.3.4-.8.6-1.1.8l.1-.1a24.2 24.2 0 01-10.2 3.4c-.9.1-1.8.1-2.7.1-.9 0-1.8-.1-2.7-.3-1.8-.3-3.6-.7-5.2-1.2a36.3 36.3 0 01-9.3-5c-1.4-1-2.7-2.2-4-3.4-1.4-1-2.6-2.3-3.6-3.7z" transform="matrix(.14 0 0 .14 43.2 86)"></path><path d="M346.8 96.2c-.6 0-1.3.1-2-.1-.6-.2-1.3-.3-1.9-.5l-.9-.3c-.3-.2-.6-.3-.9-.4-.6-.3-1.1-.7-1.7-1-2.1-1.4-4-3.1-6.1-4.3-2-1.3-4.2-2.1-6.5-2.6-2.4-.4-4.8-.3-7.4-.2l-.1-.3c2.4-.8 4.9-1.4 7.6-1.3.7 0 1.4.2 2 .3.7.1 1.3.3 2 .5 1.3.4 2.5 1 3.6 1.7 1.1.8 2.1 1.5 3.1 2.4l2.8 2.5c2 1.6 4 2.9 6.4 3.6z" transform="matrix(.14 0 0 .14 43.2 86)"></path><path d="M328.6 137.3c1.3 2.4 2.9 4.5 4.8 6.3 1.9 1.8 4.1 3.2 6.5 4.1 1.2.4 2.4.8 3.7.9 1.3.2 2.5.2 3.7.1 2.5-.2 5-.8 7.4-1.8h.1c.1 0 .3-.1.3-.1s-.1.1-.1.3c0 .2.1.3.1.3s-.1 0-.2-.1h-.2c-1.8-.7-3.5-1.7-4.9-3-1.4-1.3-2.5-2.9-3.3-4.6l-.3-.6c-.1-.2-.2-.3-.3-.5-.2-.3-.4-.7-.7-1-.5-.7-1.1-1.3-1.8-1.9-1.3-1.1-2.8-2-4.3-3l.2-.3c1.6.6 3.4 1.4 4.8 2.4.8.5 1.5 1.1 2.1 1.8.3.3.6.7.9 1.1.2.2.3.3.4.6l.3.6c.9 1.4 2 2.8 3.2 3.9 1.3 1.1 2.7 1.9 4.2 2.4l-.2-.1c.3.1.8.2 1.2.4.3.3.8.8.8 1.4 0 .7-.4 1.2-.7 1.4-.3.3-.7.4-1 .5h.1c-2.6 1-5.3 1.7-8.1 1.9-.7.1-1.4 0-2.1 0-.7-.1-1.4-.1-2.1-.3-1.4-.3-2.7-.6-4.1-1.2-2.5-1.1-4.8-2.9-6.6-4.9-1.7-2-3.1-4.4-3.8-7z" transform="matrix(.14 0 0 .14 43.2 86)"></path><path d="M370.1 91.5c-2-2.2-4.5-3.9-7.2-4.9-2.7-1-5.6-1.4-8.6-1.6-3-.3-6-.4-9.1-1-1.5-.3-3.1-.8-4.5-1.5-1.4-.8-2.7-1.8-3.6-3.1l.3-.3c2.3 2 5.2 2.6 8.1 3 1.4.2 3 .3 4.4.3l4.5.3c3.1.3 6.2.8 9 2.3 3.1 1.4 5.5 3.7 6.7 6.5z" transform="matrix(.14 0 0 .14 43.2 86)"></path><path d="M336.3 100.5c2.2 1.6 4.8 2.2 7.4 2.6l4 .6c1.4.3 2.7.5 4.1.8 1.4.4 2.7.9 4 1.4.6.3 1.3.7 1.9 1 .6.4 1.2.8 1.7 1.2 2.2 1.8 3.9 4 5.3 6.4l-.3.2c-2-1.9-3.9-3.7-6-5.1a25.1 25.1 0 00-7.1-3.1c-2.5-.8-5.2-1.1-7.8-1.9-.7-.2-1.4-.3-2-.7l-.9-.4-.9-.5c-.6-.3-1.2-.8-1.7-1.2-.8-.2-1.3-.7-1.7-1.3z" transform="matrix(.14 0 0 .14 43.2 86)"></path><path d="M381.9 108.7c-2.3-.2-4.5-1.4-6.5-2.5-2-1.2-3.7-2.6-5.6-3.7-1.9-1.2-3.7-2.2-5.8-2.9-2-.7-4.2-1-6.5-1.1l-.1-.3c2.2-.8 4.7-.8 7-.3s4.5 1.5 6.5 2.8c2 1.3 3.7 2.7 5.4 4.2 2 1.3 3.6 2.7 5.6 3.8z" transform="matrix(.14 0 0 .14 43.2 86)"></path><path d="M349 124.6c2.2-.8 4.6-1.1 7-.9 2.4.2 4.7.9 6.8 2 2.1 1.1 4.1 2.3 6 3.5 1.9 1.2 3.7 2.3 6 2.5v.3c-1.1.3-2.4.3-3.6-.1-.6-.1-1.1-.3-1.7-.5-.5-.3-1.1-.4-1.6-.7-2.1-1-4-2.1-6-3.1-1-.5-2-.9-3-1.3-.5-.2-1-.3-1.5-.5-.5-.1-1-.3-1.6-.4-2.2-.6-4.5-.7-6.8-.8z" transform="matrix(.14 0 0 .14 43.2 86)"></path><path d="M324.1 26.3c1 .1 2 .6 2.7 1.2.9.6 1.5 1.2 2.3 1.9.8.6 1.4 1.2 2.2 1.7.8.5 1.5.9 2.2.9l-.8 2.5c-1.1-.4-2-1.2-2.7-1.9-.8-.8-1.4-1.5-2-2.3-.6-.8-1.2-1.5-1.8-2.2-.6-.7-1.4-1.3-2.2-1.5v-.3z" transform="matrix(.14 0 0 .14 43.2 86)"></path><path d="M335 8.5c-1-.1-1.9-.3-2.8-.5-.9-.3-1.8-.5-2.6-.9-.9-.4-1.6-.9-2.3-1.6-.7-.7-1.2-1.4-1.4-2.3l.3-.1c.5.7 1.1 1.3 1.8 1.7.7.4 1.4.7 2.2.9.8.2 1.6.3 2.4.3.8 0 1.7 0 2.4-.1z" transform="matrix(.14 0 0 .14 43.2 86)"></path><path d="M306.3 21.7c.7.3 1.3.6 1.9.9.6.4 1.2.8 1.7 1.3 1.1.9 2.1 2 3 3.1.9 1.2 1.5 2.5 2 3.8.4 1.4.8 2.8.5 4.3h-.3a42.8 42.8 0 00-4-6.9c-.8-1.1-1.5-2.1-2.4-3.2l-1.3-1.6c-.3-.6-.8-1.1-1.1-1.7z" transform="matrix(.14 0 0 .14 43.2 86)"></path><path d="M307.1 40.5c.8.8 1.3 1.5 2 2.2.6.7 1.3 1.4 1.9 2.1 1.3 1.4 2.6 2.7 3.8 4.3l-.2.3c-1.1-.2-2-.6-2.9-1.2-.9-.6-1.7-1.3-2.4-2s-1.3-1.7-1.7-2.6c-.4-.9-.6-2-.5-3.1z" transform="matrix(.14 0 0 .14 43.2 86)"></path><path d="M292.2 42.4c1.3.7 2.1 2 2.6 3.4s.8 2.8.9 4.2l.5 4c.2 1.3.4 2.5.9 3.9l-.3.2a8.5 8.5 0 01-2.4-3.7c-.5-1.4-.8-2.8-.9-4.2l-.4-4c-.1-1.3-.3-2.5-.9-3.8z" transform="matrix(.14 0 0 .14 43.2 86)"></path><path d="M287.3 54.6c1.1 1.6 1.6 3.7 1.5 5.8 0 .3 0 .5-.1.8l-.2.8c-.1.5-.3 1-.4 1.5-.2.5-.3.9-.6 1.4-.2.5-.4.9-.7 1.4-1.9 3.5-4.3 6.3-4.8 10.1h-.3c-.6-2-.2-4.1.6-6 .8-1.9 1.8-3.6 2.6-5.2.9-1.6 1.6-3.2 2-5 .6-1.7.5-3.6.4-5.6z" transform="matrix(.14 0 0 .14 43.2 86)"></path><path d="M277.6 63.4c.2 1.9-.3 3.9-1.3 5.7-.5.9-1.2 1.6-1.9 2.4-.3.3-.8.7-1.1 1l-1.2.9c-1.6 1.1-3.4 1.9-5 2.6-1.6.8-3.2 1.6-4.3 3.1l-.3-.2c.3-.9.8-1.9 1.4-2.6.7-.8 1.4-1.4 2.3-1.9 1.6-1.1 3.2-2 4.8-2.9 1.5-.9 2.9-2 4-3.4 1-1.4 1.8-3 2.6-4.7z" transform="matrix(.14 0 0 .14 43.2 86)"></path><path d="M259.3-28.8c.3.8.8 1.5 1.4 1.8.2.1.3.1.4.2h1.7c.8-.1 1.4-.2 2.2-.4.8-.2 1.5-.5 2.5-.7 1.9-.4 3.8-.1 5.4.6 1.6.7 3.1 1.6 4.4 2.7l-.2.3c-1.7-.4-3.2-.9-4.8-1.3-1.6-.4-3-.4-4.4-.2-.8.2-1.5.4-2.4.5-.9.2-1.9.3-2.7.1-.4 0-.9-.2-1.4-.3-.2-.1-.5-.2-.7-.3-.3-.1-.4-.3-.7-.4-.7-.8-.9-1.8-.7-2.6z" transform="matrix(.14 0 0 .14 43.2 86)"></path><path d="M278.9-28l-3.8-1.3c-1.3-.3-2.6-.8-3.7-1-.6-.2-1.3-.3-1.9-.4-.6-.2-1.3-.2-1.9-.3-.7-.1-1.3-.1-1.9 0-.7.1-1.4.1-1.9.3l-.2-.2c.3-.3.6-.5.9-.7.3-.2.7-.3.9-.4.7-.3 1.4-.4 2.1-.4 1.4-.1 2.8.1 4.2.4 1.4.3 2.6.9 3.9 1.5 1.2.7 2.4 1.5 3.3 2.5z" transform="matrix(.14 0 0 .14 43.2 86)"></path><path d="M229.3-17.4c-.1.4-.3.8-.6 1.1a7 7 0 01-1 .8c-.7.4-1.4.8-2 1.4h-.1c-.4.3-.8.7-1.1 1.1-.2.3-.3.4-.4.7-.1.3-.3.5-.3.7l-2.3-1.3c.3-.3.5-.6.8-.8l.8-.8c.6-.4 1.2-.9 1.9-1.1h-.1c.8-.3 1.5-.6 2.3-.9.3-.1.7-.3 1-.4.3-.2.5-.5.8-.8z" transform="matrix(.14 0 0 .14 43.2 86)"></path><path d="M274.4 10.5c.5 0 .9.2 1.3.4.3.3.7.5.9.9.5.7.9 1.5.6 2.5l-.2.1-.9-.9c-.3-.3-.4-.6-.7-.8-.2-.7-.6-1.3-1-2.2z" transform="matrix(.14 0 0 .14 43.2 86)"></path><path d="M279.8 12.9c.4.1.7.3.9.6.3.3.4.5.6.9.3.6.3 1.4 0 2h-.2c-.3-.3-.5-.5-.6-.8a3 3 0 01-.4-.8c-.3-.5-.4-1.1-.3-1.9z" transform="matrix(.14 0 0 .14 43.2 86)"></path><path d="M271.6 58.1c-1.9.9-3.6 2-5 3.3-1.4 1.4-2.6 2.9-3.9 4.5-1.4 1.6-2.9 3.2-4.8 4.2s-4.2 1.5-6.2 1.4l-.1-.3c2-.8 3.7-1.5 5.4-2.6 1.5-1.1 2.8-2.6 4.2-4.1.7-.8 1.4-1.5 2.1-2.3.8-.8 1.5-1.5 2.5-2.1 1.6-1.3 3.7-2 5.8-2z" transform="matrix(.14 0 0 .14 43.2 86)"></path><path d="M269.2-18.3c-.8.5-1.5 1-2.3 1.5-.8.5-1.4 1.1-2.1 1.6-1.4 1.1-2.6 2.4-4.1 3.7l-.2-.1c.3-.9.8-1.7 1.4-2.5.6-.8 1.3-1.4 2-2 .8-.6 1.6-1.1 2.5-1.5.9-.4 1.8-.6 2.8-.7z" transform="matrix(.14 0 0 .14 43.2 86)"></path><path d="M221.2-15.7c-.3-.5-.5-1.1-.5-1.8s.3-1.4.8-2c.3-.3.7-.5 1.1-.6.4-.1.8 0 1.2.1.8.3 1.2.8 1.5.9.3.2.8.3 1.1.2.3 0 .7-.2 1.1-.5.2-.2.4-.4.8-.6.3-.3.8-.3 1.2-.3.8.2 1.4.8 1.4 1.4l-.3.1c-.3-.4-.9-.6-1.2-.5-.2 0-.3.1-.4.3l-.5.6c-.3.5-1.1 1-1.9 1.2-.8.2-1.5.1-2.2-.3-.7-.3-1.1-.8-1.4-.9-.2-.1-.3-.1-.4-.1-.2 0-.3 0-.4.1-.3.2-.6.6-.8 1-.1.5-.2 1.1-.2 1.7z" transform="matrix(.14 0 0 .14 43.2 86)"></path><path d="M252.6-8.3c-1.1-.4-2.1-.9-3.1-1.3l-3-1.2c-1-.3-2-.7-3.1-1-1-.3-2-.7-3.1-1.1v-.3c1.1-.2 2.3-.2 3.4 0s2.2.4 3.3.9c1.1.4 2.1.9 3.1 1.6 1 .6 1.9 1.4 2.5 2.4z" transform="matrix(.14 0 0 .14 43.2 86)"></path><path d="M230.5-15.6c.1.4 0 .9-.3 1.4-.3.5-.7.7-1 .9-.3.3-.7.3-1.1.5-.3.1-.8.3-1.2.3l-.1-.2c.4-.8 1.1-1.3 1.8-1.7.3-.2.7-.3.9-.5.3-.2.6-.4 1-.7z" transform="matrix(.14 0 0 .14 43.2 86)"></path><path d="M276.9-7.7c-.2.3-.4.4-.7.4-.3.1-.4.1-.7.1-.2 0-.4-.1-.6-.3-.2-.1-.3-.3-.5-.6l.1-.2c.3-.2.5-.3.7-.3h.6c.2 0 .3.1.5.3l.6.6z" transform="matrix(.14 0 0 .14 43.2 86)"></path><path d="M272.6-6.6c-.1.3-.3.5-.5.5-.3.1-.4.1-.6.1-.2 0-.3-.2-.5-.3-.2-.2-.3-.3-.3-.6l.1-.2c.3-.2.4-.3.6-.3h.4c.2 0 .3.1.3.3.1.1.2.3.5.5z" transform="matrix(.14 0 0 .14 43.2 86)"></path><path d="M280.8-9.5c-.1.3-.3.5-.6.6-.2.1-.4.2-.7.2-.3 0-.4 0-.6-.1-.2-.1-.4-.2-.6-.4v-.2c.2-.3.4-.3.6-.4.2-.1.4-.1.6-.1.2 0 .4.1.6.1.3-.1.4 0 .7.3z" transform="matrix(.14 0 0 .14 43.2 86)"></path><path d="M284-12c-.1.3-.3.5-.5.7-.2.2-.4.3-.6.3h-.7c-.3-.1-.4-.2-.7-.4v-.2c.2-.3.3-.4.6-.5.2-.1.3-.2.6-.2.2 0 .4 0 .6.1.2-.1.4 0 .7.2z" transform="matrix(.14 0 0 .14 43.2 86)"></path><path d="M286.9-14.3c-.3.2-.4.3-.6.4-.2.1-.3.2-.6.2-.2 0-.4 0-.6-.1-.2-.1-.4-.2-.7-.3v-.2c.2-.3.3-.4.6-.5.2-.1.4-.2.6-.2.3 0 .4 0 .7.2.3 0 .5.2.6.5z" transform="matrix(.14 0 0 .14 43.2 86)"></path><path d="M258.5 3.4c.1.6.1 1.3-.2 1.9a5.26 5.26 0 01-2.3 2.8c-.5.3-1.1.5-1.8.5l-.1-.2c.9-.9 1.6-1.5 2.3-2.4.3-.3.7-.8 1-1.2.4-.4.7-.9 1.1-1.4z" transform="matrix(.14 0 0 .14 43.2 86)"></path><path d="M288.7 19.7a8.6 8.6 0 012.9-4.5c.7-.6 1.4-1.1 2.2-1.5.8-.4 1.6-.8 2.5-.9l.2.3c-.6.7-1.3 1.3-1.9 1.9a28 28 0 01-2 1.6l-2 1.6c-.5.4-1 1-1.9 1.5z" transform="matrix(.14 0 0 .14 43.2 86)"></path><path d="M305.4 8.4c.7-1 1.4-1.9 2-2.8.6-.9 1.1-1.9 1.6-2.9s.9-2 1.3-3.1c.3-1 .7-2.1 1-3.2h.3c.3 1.2.3 2.4.2 3.7-.2 1.2-.6 2.4-1.1 3.5-.3.5-.6 1.1-.9 1.6-.4.5-.8 1-1.2 1.4-.9.7-2 1.4-3.2 1.8z" transform="matrix(.14 0 0 .14 43.2 86)"></path><path d="M315.9 9.8c.3 1.2.8 2.1 1.4 2.9.7.9 1.4 1.6 2.1 2.6.7.9 1.4 2.1 1.5 3.5.1 1.4-.2 2.7-.9 3.7l-.3-.1c0-1.2-.2-2.2-.5-3.1-.3-.9-.9-1.8-1.5-2.6-.6-.9-1.4-1.9-1.9-3.1-.5-1.2-.7-2.7.1-3.8z" transform="matrix(.14 0 0 .14 43.2 86)"></path><path d="M252.1-11.1c-.8-.2-1.4-.4-2.1-.7l-2-.8c-.7-.3-1.4-.5-2-.8-.7-.3-1.4-.6-2-1l.1-.2c.8-.1 1.5.1 2.3.2.8.2 1.4.3 2.2.7a7.81 7.81 0 013.5 2.6z" transform="matrix(.14 0 0 .14 43.2 86)"></path><path d="M262.7 51.7c1.2-.3 2.4-.4 3.6-.4 1.2-.1 2.5 0 3.7.1 1.2.1 2.4.3 3.5.3.6 0 1.1 0 1.6-.1s.9-.3 1.3-.4l-.2.2c.6-.7 1.3-1.4 1.5-2 .1-.3.2-.6.2-1V47c0-1 0-2 .1-3v-.3c0-.2.1-.3.1-.5.1-.3.2-.6.3-.8.2-.5.4-.9.6-1.4.9-1.7 1.5-3.3 2-5.1.4-1.8.7-3.7.9-5.5h.3c.4 1.9.5 3.9.3 5.9-.2 2-.9 3.9-1.6 5.7-.2.4-.3.8-.5 1.3-.1.2-.1.3-.2.5v.6c-.1.9-.1 1.9-.1 2.8v1.4c0 .5-.1 1.2-.3 1.8-.6 1.2-1.4 1.8-2 2.5l-.1.1-.1.1c-.7.3-1.4.6-2.1.6-.7.1-1.4 0-2-.1-1.3-.2-2.4-.4-3.6-.7-1.2-.3-2.3-.4-3.5-.7-1.3-.3-2.5-.4-3.7-.5z" transform="matrix(.14 0 0 .14 43.2 86)"></path><path d="M233.9-21.6c1.9-.6 3.6-1.4 5.3-2.2.9-.4 1.7-.9 2.6-1.4.9-.4 1.7-.9 2.7-1.3 2-.4 3.7-.8 5.7-1.1 1.9-.3 3.8-.6 5.7-.8v.2c-1.8.7-3.7 1.2-5.5 1.6-.9.3-1.9.4-2.8.7-.9.3-1.9.4-2.8.6-.8.3-1.7.7-2.6 1.1-.8.4-1.7.9-2.6 1.2-1.9.8-3.9 1.3-5.7 1.4z" transform="matrix(.14 0 0 .14 43.2 86)"></path><path d="M302.1 43.5a5.7 5.7 0 01-3-3.1c-.6-1.4-.6-2.9-.6-4.2.1-1.4.2-2.5-.1-3.6a9.6 9.6 0 00-1.6-3.2l.2-.3c1.3.5 2.5 1.4 3.1 2.9.7 1.4.7 3 .6 4.2-.1 1.4-.2 2.5 0 3.7.2 1.2.8 2.3 1.4 3.6z" transform="matrix(.14 0 0 .14 43.2 86)"></path><path fill="#fff" stroke="#000" d="M81.35 82.99c-.13.13-.42.2-.76.22-.33.03-.7.03-.75-.14-.07-.12.14-.71.36-.71.23-.03.83.38 1.15.63z"></path><path d="M265.7-19.7s-.6-.9-.6-2.4.9-2.7 0-2.7-2.1 1.3-2.1 3.1.5 1.8.5 1.8" transform="matrix(.14 0 0 .14 43.2 86)"></path><path d="M287.4 126.5c.1-1.3.3-2.5.6-3.7.3-1.2.8-2.4 1.4-3.4.6-1.1 1.2-2 1.8-3.1.5-1 .9-2.1 1.1-3.3h.3c0 1.2-.3 2.4-.7 3.6-.4 1.1-.9 2.2-1.3 3.3-.4 1.1-.7 2.1-.9 3.3-.2 1.1-.2 2.2-.1 3.3z" transform="matrix(.14 0 0 .14 43.2 86)"></path><path d="M311.9 63.5c.9 1.6 2.3 2.6 3.7 3.7 1.4 1 3 2 4.4 3.1 1.4 1.1 2.8 2.6 3.8 4.2s1.7 3.4 2 5.3l-.3.1c-1-1.5-2-3-3.1-4.2-1.1-1.3-2.4-2.5-3.7-3.6-1.4-1.1-2.8-2.2-4.1-3.6-1.4-1.4-2.6-3.2-2.7-5z" transform="matrix(.14 0 0 .14 43.2 86)"></path><path d="M335.7 69.4c-1.2-1.4-2.6-2.3-4.1-3-1.5-.6-3.1-1.1-4.8-1.7-1.7-.6-3.4-1.5-4.8-2.7-1.4-1.2-2.5-2.7-3.3-4.3l.3-.2c1.4 1.1 2.7 2.2 4.1 3.1 1.4.9 2.9 1.5 4.5 2.2 1.6.7 3.3 1.3 4.8 2.3 1.6.9 2.9 2.5 3.3 4.3z" transform="matrix(.14 0 0 .14 43.2 86)"></path><path d="M323.2 45.4c.5.9.9 1.9 1.3 2.7.4.8.9 1.7 1.3 2.5.8 1.7 1.8 3.3 2.5 5.2l-.3.3c-1-.4-1.8-1.1-2.6-1.9-.7-.8-1.3-1.6-1.8-2.5-.5-.9-.8-2-.9-3 0-1.2.1-2.3.5-3.3z" transform="matrix(.14 0 0 .14 43.2 86)"></path><path d="M264.6 117.1c1.4-2.5 2.3-5 2.8-7.7s.6-5.4.9-8.2l.3-2.1.3-2.1.3-1 .3-1 .3-1 .4-1c1.1-2.7 2.7-5.1 4.8-7.1l.3.3c-1.4 2.5-2.6 4.8-3.3 7.5-.8 2.5-1.1 5.3-1.4 8-.3 2.7-.5 5.6-1.4 8.4-1.1 2.5-2.6 5.1-4.6 7z" transform="matrix(.14 0 0 .14 43.2 86)"></path><path d="M287.3 114.6c-1.3-2.6-1.4-5.7-.9-8.5.4-2.9 1.3-5.5 1.9-8.2.7-2.6 1.2-5.4 1.4-8 .2-2.7-.1-5.4-.6-8.2l.3-.1c1.3 2.6 2 5.4 2.1 8.3 0 .8.1 1.4 0 2.2-.1.7-.1 1.4-.2 2.1-.2 1.4-.5 2.8-.9 4.2-.8 2.7-1.6 5.4-2.4 8-.6 2.7-1 5.4-.7 8.2z" transform="matrix(.14 0 0 .14 43.2 86)"></path><path d="M245.5 151c-.7 2.3-1.9 4.3-3.3 6.3a17.8 17.8 0 01-5.4 4.8c-2.1 1.2-4.5 2-7 2.2-1.2.2-2.5.1-3.7 0-1.2-.1-2.4-.3-3.6-.6h.1c-.3-.1-.7-.2-1.1-.3-.3-.2-.8-.7-.9-1.4-.1-.7.2-1.2.5-1.5.3-.3.7-.5 1.1-.7l-.2.1c1.4-.9 2.9-1.9 3.9-3.1 1.1-1.4 1.9-2.8 2.5-4.5.3-.9.9-1.8 1.4-2.6.5-.8 1.1-1.5 1.7-2.3 1.3-1.4 2.7-2.6 4.2-3.7l.2.3c-1.4 1.3-2.6 2.6-3.6 4.1-.5.8-1 1.5-1.4 2.3-.4.8-.8 1.6-1 2.4-.5 1.8-1.3 3.7-2.5 5.3-1.2 1.6-2.7 2.9-4.5 3.8h-.2c-.1 0-.2.1-.2.1s.1-.1.1-.3c0-.2-.2-.3-.1-.2 0 0 .2.1.3.1h.1l1.6.3.9.2.4.1h.4c1.1 0 2.2.2 3.3 0 .5-.1 1.1 0 1.6-.2l1.6-.3c.5-.1 1-.3 1.5-.5.3-.1.5-.2.8-.3l.8-.3c2-.9 3.8-2.3 5.4-4 1.8-1.7 3.1-3.5 4.3-5.6z" transform="matrix(.14 0 0 .14 43.2 86)"></path><path d="M280.6 162.2c.1-.6.1-1.2.3-1.9l.3-.9.3-.9.4-.9c.2-.3.3-.5.5-.8.3-.5.8-1 1.1-1.5 1.6-1.9 3.4-3.5 4.8-5.3 1.4-1.8 2.5-3.7 3.1-5.9.6-2.2.7-4.5.9-7l.3-.1c.6 2.4 1 4.8.6 7.4-.4 2.5-1.5 4.9-3.1 6.9-.9.9-1.7 1.9-2.5 2.7l-2.6 2.4c-2 1.8-3.4 3.5-4.4 5.8z" transform="matrix(.14 0 0 .14 43.2 86)"></path><path d="M264.1 146.1c-2.4 2-4.7 4.2-6.5 6.8a24.5 24.5 0 00-3.8 8.4c-.8 3-1.2 6.1-2 9.3-.4 1.5-.9 3.1-1.7 4.7-.8 1.6-1.7 2.9-2.9 4.1-1.1 1.2-2.4 2.3-3.7 3.2l-1 .7c-.3.3-.7.4-.8.6-.3.2-.3.4-.3.3 0-.1 0-.3-.1-.3l.1.1c.2.1.5.2.8.3.3.1.8.1 1.1.2l1.1.2 1.1.1c.8.1 1.5.1 2.3 0 .8 0 1.5-.1 2.3-.2 3-.4 5.9-1.4 8.4-3.1 2.5-1.6 4.8-3.8 6.9-6.1.8-.7 1.4-1.5 2.1-2.4.7-.8 1.3-1.8 1.9-2.6.6-.9 1.1-1.9 1.5-2.9.4-1 .9-2 .9-3.1h.3c.1 1.2-.3 2.3-.6 3.3s-.9 2-1.4 3.1c-.5 1.1-1.1 2-1.7 2.9-.6.9-1.3 1.9-2 2.7l.1-.1c-2 2.5-4.2 4.9-7 6.7-.7.5-1.4.8-2.1 1.3-.8.3-1.4.8-2.3 1-1.5.6-3.1 1-4.8 1.3-1.6.3-3.3.3-4.9.3l-1.2-.1-1.2-.2c-.4-.1-.8-.1-1.3-.2-.4-.1-.9-.2-1.4-.5-.3-.2-.5-.3-.8-.7-.3-.3-.4-.9-.3-1.4 0-.3.1-.4.2-.6.1-.2.2-.3.3-.4.2-.3.4-.4.6-.6.4-.3.8-.5 1.1-.8l.9-.6c1.3-.8 2.4-1.8 3.4-2.9 2-2.1 3.4-4.8 4.2-7.8.8-3 1.4-6.1 2.3-9.2 1-3.1 2.5-6 4.5-8.5 2.3-2.6 4.7-4.6 7.4-6.3z" transform="matrix(.14 0 0 .14 43.2 86)"></path><path d="M313.4 90.3l.3-.4v.1c-.1.2.1.5.2.6l-.1-.1c-.3-.1-.4-.2-.4-.2-1.3-.5-2.6-1.2-3.6-2.1-1-.9-1.9-2-2.6-3.2a14 14 0 01-1.4-3.7 25 25 0 01-.6-3.8l.2-.4c-.2 0-.3.3-.2.3v-.2l-.1-.2-.1-.4c-.1-.3-.2-.5-.3-.8-.3-.5-.4-1-.8-1.4-.6-.9-1.4-1.8-2.3-2.2l.1-.2c1.1.4 2 1.2 2.6 2.1.3.4.6.9.9 1.4.2.3.3.5.3.8l.2.4.1.2v.2c.1.1-.1.4-.2.5l.2-.4c.3 1.3.5 2.5.9 3.7.4 1.2.9 2.3 1.6 3.3.7 1 1.4 1.9 2.4 2.6.9.7 2 1.2 3.1 1.5h.1c.2.1.3.2.6.3.2.1.4.2.8.6.2.2.3.8.3 1.1-.1.3-.2.5-.3.6l-.3.5z" transform="matrix(.14 0 0 .14 43.2 86)"></path><path d="M233.5 122.6a10 10 0 00-1.4 3.6c-.2 1.3-.2 2.5.2 3.7.3 1.2 1 2.2 1.9 3.1.2.3.4.4.6.6.2.2.3.2.3.1h-.2s0-.1.1-.1c.1-.2.2-.4.2-.7l2.1.6c-.2.3-.3.8-.6 1.1-.2.2-.3.4-.6.6-.3.2-.7.3-1 .3-.8-.1-1.2-.4-1.4-.7-.3-.3-.5-.6-.7-.8a9.3 9.3 0 01-1.7-3.8c-.3-1.4-.1-2.8.3-4.1.2-1.3.9-2.5 1.9-3.5z" transform="matrix(.14 0 0 .14 43.2 86)"></path><path d="M210.3 173.9c1.8-.1 3.7-.3 5.5-.7 1.9-.3 3.7-.7 5.5-1.3 3.6-1.1 7.1-2.6 9.9-5.3l.2.2c-1.3 1.4-2.8 2.7-4.4 3.7-1.6 1-3.4 1.9-5.2 2.6-1.8.8-3.7 1.4-5.5 1.9-1.8.5-3.7.9-5.8 1.3z" transform="matrix(.14 0 0 .14 43.2 86)"></path><path d="M213.6 157.4c.3-.1.7-.3 1.1-.3.4-.2.8-.3 1.1-.5.8-.4 1.5-.9 2.2-1.4.8-.5 1.4-1 2.1-1.6.7-.6 1.4-1.2 2-1.8l.2.2c-.5.8-1 1.5-1.6 2.2l-1.8 2.1-2 2c-.3.3-.8.6-1.1.9-.4.3-.8.5-1.4.8z" transform="matrix(.14 0 0 .14 43.2 86)"></path><path d="M298.4-26.9c1.4-1.4 2.8-2.7 4.5-3.7.9-.5 1.8-.9 2.7-1.3.9-.4 1.8-.7 2.7-1 1.9-.7 3.8-1.1 5.8-1.4 2-.2 4.2-.2 6.2.5 2.1.8 3.9 2.4 4.8 4.3.9 2 1.3 4.2 1.2 6.2-.3 4.1-1.6 7.8-3.6 11.2l-.3-.2c1-3.7 1.9-7.5 1.7-11-.1-1.8-.4-3.6-1.2-5-.8-1.4-2-2.5-3.6-3.1-1.5-.6-3.3-.7-5.1-.6-1.8.1-3.7.4-5.4.9-.9.2-1.8.4-2.7.7-.9.3-1.9.5-2.6.8l-5.1 2.7z" transform="matrix(.14 0 0 .14 43.2 86)"></path><path d="M301.2-19.1c-.3-.3-.6-.6-.9-1-.2-.4-.3-.9-.4-1.3-.1-.4-.2-.9-.2-1.3s-.1-.9 0-1.3l1.7.3c-.2.3-.3.7-.3 1-.1.3-.2.8-.3 1.1-.1.3-.1.8 0 1.1.1.3.2.8.4 1z" transform="matrix(.14 0 0 .14 43.2 86)"></path><path d="M315.8-30.1c-2.4.3-4.7.9-6.7 1.8-2.1.9-4.1 2-5.9 3.5-1.8 1.4-3.3 3.1-4.2 5.1-.5 1-.9 2-.9 3.1 0 .5 0 1.1.2 1.6s.5.9 1.1 1v.3c-.3 0-.7-.1-.9-.3-.3-.2-.5-.4-.7-.8-.3-.6-.5-1.2-.6-1.9-.1-1.3.1-2.5.6-3.7.9-2.4 2.6-4.3 4.5-5.9 2-1.5 4.2-2.7 6.5-3.4 2.2-.7 4.7-.8 7-.4z" transform="matrix(.14 0 0 .14 43.2 86)"></path><path d="M304.5-12.7c.6-.6.8-1.3 1.2-2 .4-.7.6-1.4.8-2 .3-.7.4-1.4.7-2.1.2-.8.4-1.4.7-2.3h.3c.7 1.6.6 3.4.1 5-.3.9-.8 1.6-1.3 2.2-.8.6-1.6 1.3-2.5 1.2z" transform="matrix(.14 0 0 .14 43.2 86)"></path><path d="M316.2-11c1-.8 1.7-1.6 2.3-2.6.6-1 1-2 1.4-3.1.9-2.2 1.4-4.5 2.3-6.9h.3c.2 1.3.2 2.6 0 3.8-.2 1.2-.5 2.5-.9 3.7-.4 1.2-1.1 2.4-2 3.4-.8.9-2 1.7-3.4 1.7z" transform="matrix(.14 0 0 .14 43.2 86)"></path></g><path d="M83.95 81.14c.5-.3 1.2-.7 1.74-.5.45.17.69.56.81 1"></path><path d="M84.98 82.25s.47-.4.8-.52c.18-.06 1.72-.69 2.46-.17 1.03.74.2 2.58.14 2.73"></path></g><radialGradient id="backlight_provinceCOA177" cx="100%" cy="100%" r="150%"><stop stop-color="#fff" stop-opacity=".3" offset="0"></stop><stop stop-color="#fff" stop-opacity=".15" offset=".25"></stop><stop stop-color="#000" stop-opacity="0" offset="1"></stop></radialGradient></defs>
        <g clip-path="url(#boeotian_provinceCOA177)"><rect x="0" y="0" width="200" height="200" fill="#fafafa"></rect><g fill="#377cd7" stroke="none"><rect width="37.5%" height="37.5%"></rect></g><g fill="#d7374a" stroke="#000"><use href="#inescutcheon_provinceCOA177" transform="translate(-4.999999999999982 -4.999999999999982) scale(1.0499999999999998)"></use></g><g fill="#ffe066" stroke="#000"><use href="#basilisk_provinceCOA177" transform="translate(43.75 43.75) scale(0.5625)"></use></g><g fill="#ffe066" stroke="#000"><use href="#lionPassant_provinceCOA177" transform="translate(14.5 14.5) scale(0.375)"></use></g></g>
        <path d="M150 115c-5 0-10-5-10-15s5-15 10-15c10 0 7 10 15 10 10 0 0-30 0-30-10-25-30-55-65-55S45 40 35 65c0 0-10 30 0 30 8 0 5-10 15-10 5 0 10 5 10 15s-5 15-10 15c-10 0-7-10-15-10-10 0 0 30 0 30 10 25 30 55 65 55s55-30 65-55c0 0 10-30 0-30-8 0-5 10-15 10z" fill="url(#backlight_provinceCOA177)" stroke="#333"></path></svg>