<svg xmlns="http://www.w3.org/2000/svg" id="provinceCOA204" width="200" height="200" viewBox="0 0 200 200">
        <defs><clipPath id="round_provinceCOA204"><path d="m 185,100 a 85,85 0 0 1 -85,85 85,85 0 0 1 -85,-85 85,85 0 0 1 85,-85 85,85 0 0 1 85,85"></path></clipPath><g id="crossPotent_provinceCOA204" stroke-width=".5"><path d="M83 60v10h12v25H70V83H60v34h10v-12h25v25H83v10h34v-10h-12v-25h25v12h10V83h-10v12h-25V70h12V60z"></path></g><radialGradient id="backlight_provinceCOA204" cx="100%" cy="100%" r="150%"><stop stop-color="#fff" stop-opacity=".3" offset="0"></stop><stop stop-color="#fff" stop-opacity=".15" offset=".25"></stop><stop stop-color="#000" stop-opacity="0" offset="1"></stop></radialGradient></defs>
        <g clip-path="url(#round_provinceCOA204)"><rect x="0" y="0" width="200" height="200" fill="#26c061"></rect><g fill="#fafafa" stroke="#000"><use href="#crossPotent_provinceCOA204" transform="translate(-50 -50) scale(1.5)"></use></g></g>
        <path d="m 185,100 a 85,85 0 0 1 -85,85 85,85 0 0 1 -85,-85 85,85 0 0 1 85,-85 85,85 0 0 1 85,85" fill="url(#backlight_provinceCOA204)" stroke="#333"></path></svg>