<svg xmlns="http://www.w3.org/2000/svg" id="provinceCOA205" width="200" height="200" viewBox="0 0 200 200">
        <defs><clipPath id="round_provinceCOA205"><path d="m 185,100 a 85,85 0 0 1 -85,85 85,85 0 0 1 -85,-85 85,85 0 0 1 85,-85 85,85 0 0 1 85,85"></path></clipPath><clipPath id="divisionClip_provinceCOA205"><rect x="15" y="115" width="200" height="200" transform="translate(70 70) rotate(45 100 100)"></rect><path d="m 0,85 c 0,0 60,20.2 100,20 40,-0.2 100,-20 100,-20 v 30 H 0 Z" transform="translate(129 71) rotate(-45 -100 100) scale(-1 1)"></path><path d="m 0,85 c 0,0 60,20.2 100,20 40,-0.2 100,-20 100,-20 v 30 H 0 Z" transform="translate(71 71) rotate(45 100 100)"></path></clipPath><g id="mullet6_provinceCOA205"><polygon points="100 60 107.64 86.77 134.64 80 115.28 100 134.64 120 107.64 113.23 100 140 92.36 113.23 65.36 120 84.72 100 65.36 80 92.36 86.77"></polygon></g><radialGradient id="backlight_provinceCOA205" cx="100%" cy="100%" r="150%"><stop stop-color="#fff" stop-opacity=".3" offset="0"></stop><stop stop-color="#fff" stop-opacity=".15" offset=".25"></stop><stop stop-color="#000" stop-opacity="0" offset="1"></stop></radialGradient></defs>
        <g clip-path="url(#round_provinceCOA205)"><rect x="0" y="0" width="200" height="200" fill="#377cd7"></rect><g fill="#ffe066" stroke="#000"><use href="#mullet6_provinceCOA205" transform="translate(-50 -50) scale(1.5)"></use></g><g clip-path="url(#divisionClip_provinceCOA205)"><rect x="0" y="0" width="200" height="200" fill="#ffe066"></rect><g fill="#377cd7" stroke="#000"><use href="#mullet6_provinceCOA205" transform="translate(-50 -50) scale(1.5)"></use></g></g></g>
        <path d="m 185,100 a 85,85 0 0 1 -85,85 85,85 0 0 1 -85,-85 85,85 0 0 1 85,-85 85,85 0 0 1 85,85" fill="url(#backlight_provinceCOA205)" stroke="#333"></path></svg>