<svg xmlns="http://www.w3.org/2000/svg" id="provinceCOA207" width="200" height="200" viewBox="0 10 200 200">
        <defs><clipPath id="spanish_provinceCOA207"><path d="m25,25 h150 v100 a75,75,0,0,1,-150,0 z"></path></clipPath><g id="sword_provinceCOA207" stroke-width=".28"><path d="M96.6 118.8L98 69.2c0-1.8.7-9.2 2-9.2 1.2 0 2 7.4 2 9.2l1.4 49.6z"></path><path d="M98.5 133.8L97 120h5.8l-1.3 13.8z"></path><path d="M100 120.9c4.2 0 8.2-.2 12.4-.6l-.8-3.2c-2 .4-3.5 1.3-5.4 1.5-2 .3-4.7-.3-6.2-.6-1.5.3-4.1.9-6.2.6-2-.2-3.5-1-5.4-1.5l-.8 3.2c4.2.4 8.2.6 12.4.6zm0 19.1c2 0 3.6-1.5 3.6-3.5 0-1.5-1-2.7-2.2-3.3-.4.2-1 .3-1.6.3-.5 0-1 0-1.3-.2-1.2.6-2 1.8-2 3.2 0 2 1.5 3.5 3.5 3.5z"></path><g fill="none"><path d="M99 118.25s.4-39.35.9-39.35.9 39.35.9 39.35"></path><path d="M102.7 121.4c-.3.6-1.5.85-2.7.8-1.2-.05-2.4-.2-2.7-.8m5.1 2.5c-.2.5-1.3.7-2.4.7-1 0-2.2-.3-2.4-.7m4.6 2.3c-.2.4-1.2.6-2.2.6s-2-.2-2.2-.6m4.2 2.3c-.2.4-1 .6-2 .6-.9 0-1.8-.2-2-.6m3.7 2.3c-.2.4-1 .5-1.7.5s-1.5-.1-1.7-.5"></path><path d="M97.6 137.1a2.4 2.4 0 014.8 0c0 1.3-1 2.3-2.4 2.3-1.3 0-2.4-1-2.4-2.3z"></path><path d="M100 118v2.9"></path></g></g><g id="fleurDeLis_provinceCOA207"><path d="M104.2 113.2c.1-5.4 1.5-10.5 4-15.3 6.6-13.8 26.6-13.5 22.2 3.4-1.6 6.2-7.2 9.9-13.7 10.5.5-1.6 3.1-7.4 1-8.6-3.4.1-7.6 6-8.6 8.7-.1.4-.1.9-.3 1.3"></path><path d="M95.8 113.2c-.1-5.4-1.5-10.5-4-15.3-6.5-13.8-26.6-13.4-22.2 3.5 1.6 6.2 7.2 9.9 13.7 10.5-.5-1.6-3.1-7.4-1-8.6 3.4.1 7.6 6 8.6 8.7.1.4.1.9.3 1.3"></path><path d="M99.6 60.5C92.7 68 88 76.6 90 86.7c1.1 5.6 3.8 10.7 5.7 16.1 1.2 3.4 1.5 6.9 1.3 10.4h5.9c-.3-3.6.4-7 1.3-10.4 1.8-5.4 4.5-10.5 5.7-16.1 2.1-10.4-2.9-18.3-9.5-26.2l-.4-.5z"></path><path d="M92 117.4c-1.7 3.4-8.5 9.7-12.2 11.5-.9.5 4.5-.3 6.9-.7 3.2-.5 7.4-3 7.3-2.1 0 4 1.5 10.7 5.6 13.8l.4.3.4-.3c4-3.4 5.6-9.5 5.6-13.8-.1-.9 4.1 1.6 7.3 2.1 2.4.4 7.9 1.1 6.9.7-3.6-1.8-10.5-8.1-12.2-11.5z"></path><rect width="28" height="5" x="86.4" y="112.6"></rect></g><pattern id="semy_of_fleurDeLis-argent-sable" width="0.125" height="0.125" viewBox="0 0 200 200" stroke="#000"><rect width="200" height="200" fill="#fafafa" stroke="none"></rect><g fill="#333333"><use transform="translate(-100 -50)" href="#fleurDeLis_provinceCOA207"></use><use transform="translate(100 -50)" href="#fleurDeLis_provinceCOA207"></use><use transform="translate(0 50)" href="#fleurDeLis_provinceCOA207"></use></g></pattern><radialGradient id="backlight_provinceCOA207" cx="100%" cy="100%" r="150%"><stop stop-color="#fff" stop-opacity=".3" offset="0"></stop><stop stop-color="#fff" stop-opacity=".15" offset=".25"></stop><stop stop-color="#000" stop-opacity="0" offset="1"></stop></radialGradient></defs>
        <g clip-path="url(#spanish_provinceCOA207)"><rect x="0" y="0" width="200" height="200" fill="url(#semy_of_fleurDeLis-argent-sable)"></rect><g fill="#522d5b" stroke="none"><polygon points="0,75 100,140 200,75 200,35 100,100 0,35"></polygon></g><g fill="#ffe066" stroke="none"><rect width="37.5%" height="37.5%"></rect></g><g fill="#522d5b" stroke="#000"><use href="#sword_provinceCOA207" transform="translate(0 0) scale(0.5)"></use></g></g>
        <path d="m25,25 h150 v100 a75,75,0,0,1,-150,0 z" fill="url(#backlight_provinceCOA207)" stroke="#333"></path></svg>