<svg xmlns="http://www.w3.org/2000/svg" id="provinceCOA71" width="200" height="200" viewBox="0 0 200 200">
        <defs><clipPath id="pavise_provinceCOA71"><path d="M95 7L39.9 37.3a10 10 0 00-5.1 9.5L46 180c.4 5.2 3.7 10 9 10h90c5.3 0 9.6-4.8 10-10l10.6-133.2a10 10 0 00-5-9.5L105 7c-4.2-2.3-6.2-2.3-10 0z"></path></clipPath><clipPath id="divisionClip_provinceCOA71"><rect x="100" y="0" width="100" height="200"></rect></clipPath><g id="mullet4_provinceCOA71"><polygon points="100 60 109.9 90.1 140 100 109.9 109.9 100 140 90.1 109.9 60 100 90.1 90.1"></polygon></g><g id="heart_provinceCOA71"><path stroke-width=".5" d="M100 84c-.7-1.1-1.4-2.2-2.4-3.2-6.3-6.8-16.6-6.8-23 0-6.3 6.8-5.4 17.8 1 24.6 6.3 6.8 17.7 12.4 24.2 27 7.3-14.4 18.2-20.2 24.5-27 6.3-6.8 7.3-17.8 1-24.6-6.3-6.8-16.6-6.8-23 0-.9 1-1.6 2.1-2.3 3.2z"></path></g><pattern id="barry-purpure-or" width="0.125" height="0.5" viewBox="0 0 25 100"><rect width="25" height="100" fill="#ffe066"></rect><rect x="0" y="25" width="25" height="25" fill="#522d5b"></rect><rect x="0" y="75" width="25" height="25" fill="#522d5b"></rect></pattern><radialGradient id="backlight_provinceCOA71" cx="100%" cy="100%" r="150%"><stop stop-color="#fff" stop-opacity=".3" offset="0"></stop><stop stop-color="#fff" stop-opacity=".15" offset=".25"></stop><stop stop-color="#000" stop-opacity="0" offset="1"></stop></radialGradient></defs>
        <g clip-path="url(#pavise_provinceCOA71)"><rect x="0" y="0" width="200" height="200" fill="url(#barry-purpure-or)"></rect><g clip-path="url(#divisionClip_provinceCOA71)"><rect x="0" y="0" width="200" height="200" fill="#fafafa"></rect></g><g fill="#377cd7" stroke="#000"><use href="#mullet4_provinceCOA71" transform="translate(7 37) scale(0.63)"></use></g><g fill="#26c061" stroke="#000"><use href="#heart_provinceCOA71" transform="translate(67 37) scale(0.63)"></use></g></g>
        <path d="M95 7L39.9 37.3a10 10 0 00-5.1 9.5L46 180c.4 5.2 3.7 10 9 10h90c5.3 0 9.6-4.8 10-10l10.6-133.2a10 10 0 00-5-9.5L105 7c-4.2-2.3-6.2-2.3-10 0z" fill="url(#backlight_provinceCOA71)" stroke="#333"></path></svg>