<svg xmlns="http://www.w3.org/2000/svg" id="provinceCOA80" width="200" height="200" viewBox="0 10 200 200">
        <defs><clipPath id="spanish_provinceCOA80"><path d="m25,25 h150 v100 a75,75,0,0,1,-150,0 z"></path></clipPath><g id="mullet_provinceCOA80"><polygon points="100 60 108.98 87.64 138.04 87.64 114.53 104.72 123.51 132.36 100 115.28 76.49 132.36 85.47 104.72 61.96 87.64 91.02 87.64"></polygon></g><radialGradient id="backlight_provinceCOA80" cx="100%" cy="100%" r="150%"><stop stop-color="#fff" stop-opacity=".3" offset="0"></stop><stop stop-color="#fff" stop-opacity=".15" offset=".25"></stop><stop stop-color="#000" stop-opacity="0" offset="1"></stop></radialGradient></defs>
        <g clip-path="url(#spanish_provinceCOA80)"><rect x="0" y="0" width="200" height="200" fill="#fafafa"></rect><g fill="#d7374a" stroke="#000"><use href="#mullet_provinceCOA80" transform="translate(6.25 0) scale(0.5)"></use><use href="#mullet_provinceCOA80" transform="translate(50 0) scale(0.5)"></use><use href="#mullet_provinceCOA80" transform="translate(93.75 0) scale(0.5)"></use><use href="#mullet_provinceCOA80" transform="translate(12.5 50) scale(0.5)"></use><use href="#mullet_provinceCOA80" transform="translate(87.5 50) scale(0.5)"></use><use href="#mullet_provinceCOA80" transform="translate(50 100) scale(0.5)"></use></g></g>
        <path d="m25,25 h150 v100 a75,75,0,0,1,-150,0 z" fill="url(#backlight_provinceCOA80)" stroke="#333"></path></svg>