<svg xmlns="http://www.w3.org/2000/svg" id="provinceCOA121" width="200" height="200" viewBox="0 0 200 200">
        <defs><clipPath id="polish_provinceCOA121"><path d="m 90.3,6.3 c -12.7,0 -20.7,10.9 -40.5,14 0,11.8 -4.9,23.5 -11.4,31.1 0,0 12.7,6 12.7,19.3 C 51.1,90.8 30,90.8 30,90.8 c 0,0 -3.6,7.4 -3.6,22.4 0,34.3 23.1,60.2 40.7,68.2 17.6,8 27.7,11.4 32.9,18.6 5.2,-7.3 15.3,-10.7 32.8,-18.6 17.6,-8 40.7,-33.9 40.7,-68.2 0,-15 -3.6,-22.4 -3.6,-22.4 0,0 -21.1,0 -21.1,-20.1 0,-13.3 12.7,-19.3 12.7,-19.3 C 155.1,43.7 150.2,32.1 150.2,20.3 130.4,17.2 122.5,6.3 109.7,6.3 102.5,6.3 100,10 100,10 c 0,0 -2.5,-3.7 -9.7,-3.7 z"></path></clipPath><clipPath id="divisionClip_provinceCOA121"><polygon points="0,0 0,200 200,0 200,200"></polygon></clipPath><g id="crossDouble_provinceCOA121" stroke-width=".5"><path d="m 95,60 h 10 v 20 h 20 v 10 h -20 v 20 h 20 v 10 h -20 v 20 H 95 V 120 H 75 V 110 H 95 V 90 H 75 V 80 h 20 z"></path></g><g id="wheel_provinceCOA121" transform="translate(31.2 79.3) scale(.1296)" stroke-width="3">
  <path d="M478.6-3.4c13.1-7.8 29.4-33.7 29.4-49l-.2-45.3h44.5l-.2 45.3c0 15.3 16.2 41.2 29.4 49M581.6 1.1c-13.1 7.8-29.4 33.7-29.4 49l.2 45.3h-44.5l.2-45.3c0-15.3-16.2-41.2-29.4-49"></path>
  <path d="M581.6 5.1l-1.5-.2c-.2-.1-20-5.5-50-5.5-29.9 0-49.8 5.4-50 5.5-3 .8-6.1-.9-7-3.9-.8-3 .9-6.1 3.9-7 .9-.2 21.4-5.9 53-5.9s52.1 5.6 53 5.9c3 .8 4.8 4 3.9 7a5.4 5.4 0 01-5.3 4.1zM581.6 321.4c-13.1 7.8-29.4 33.7-29.4 49l.2 45.3h-44.5l.2-45.3c0-15.3-16.2-41.2-29.4-49M478.6 317c13.1-7.8 29.4-33.7 29.4-49l-.2-45.3h44.5l-.2 45.3c0 15.3 16.2 41.2 29.4 49"></path>
  <path d="M478.6 312.9l1.5.2c.2.1 20 5.5 50 5.5 29.9 0 49.8-5.4 50-5.5 3-.8 6.1.9 7 3.9.8 3-.9 6.1-3.9 7-.9.2-21.4 5.9-53 5.9s-52.1-5.6-53-5.9c-3-.8-4.8-4-3.9-7a5.6 5.6 0 015.3-4.1zM645 33.3c13.3 7.5 43.8 8.6 57.1 1l39.1-22.8L763.5 50s-23.7 13.4-39.3 22.5c-13.2 7.6-27.5 34.6-27.7 49.9M692.6 124.6c-13.3-7.5-43.8-8.6-57.1-1l-39.1 22.8-22.3-38.6s23.7-13.4 39.3-22.5c13.2-7.6 27.5-34.6 27.7-49.9"></path>
  <path d="M689.1 126.7c-.3-.4-.4-.9-.6-1.4-.1-.2-5.3-20.1-20.3-46a204.7 204.7 0 00-29.7-40.5 5.7 5.7 0 01-.1-8 5.7 5.7 0 018-.1c.6.6 15.8 15.6 31.6 43s21.2 48 21.4 48.8c.8 3-1 6.1-4.1 6.9-2.4.6-4.9-.6-6.2-2.7zM415.2 284.8c-13.3-7.5-43.8-8.6-57.1-1L319 306.6 296.7 268s23.7-13.4 39.3-22.5c13.2-7.6 27.5-34.6 27.7-49.9M367.6 193.4c13.3 7.5 43.8 8.6 57.1 1l39.1-22.8 22.3 38.6s-23.7 13.4-39.3 22.5c-13.2 7.6-27.5 34.6-27.7 49.9"></path>
  <path d="M371.1 191.4c.3.4.4.9.6 1.4.1.2 5.3 20.1 20.3 46s29.5 40.4 29.7 40.5a5.7 5.7 0 01.1 8 5.7 5.7 0 01-8 .1c-.6-.6-15.8-15.6-31.6-43s-21.2-48-21.4-48.8c-.8-3 1-6.1 4.1-6.9 2.4-.6 5 .6 6.2 2.7zM415.2 33.3c-13.3 7.5-43.8 8.6-57.1 1L319 11.5 296.7 50s23.7 13.4 39.3 22.5c13.2 7.6 27.5 34.6 27.7 49.9M367.6 124.6c13.3-7.5 43.8-8.6 57.1-1l39.1 22.8 22.3-38.6s-23.7-13.4-39.3-22.5c-13.2-7.6-27.5-34.6-27.7-49.9"></path>
  <path d="M371.1 126.7c.3-.4.4-.9.6-1.4.1-.2 5.3-20.1 20.3-46s29.5-40.4 29.7-40.5a5.7 5.7 0 00.1-8 5.7 5.7 0 00-8-.1c-.6.6-15.8 15.6-31.6 43s-21.2 48-21.4 48.8c-.8 3 1 6.1 4.1 6.9 2.4.6 5-.6 6.2-2.7zM645 284.8c13.3-7.5 43.8-8.6 57.1-1l39.1 22.8 22.3-38.6s-23.7-13.4-39.3-22.5c-13.2-7.6-27.5-34.6-27.7-49.9M692.6 193.4c-13.3 7.5-43.8 8.6-57.1 1l-39.1-22.8-22.3 38.6s23.7 13.4 39.3 22.5c13.2 7.6 27.5 34.6 27.7 49.9"></path>
  <path d="M689.1 191.4c-.3.4-.4.9-.6 1.4-.1.2-5.3 20.1-20.3 46a204.7 204.7 0 01-29.7 40.5 5.7 5.7 0 00-.1 8 5.7 5.7 0 008 .1c.6-.6 15.8-15.6 31.6-43s21.2-48 21.4-48.8c.8-3-1-6.1-4.1-6.9-2.4-.6-4.9.6-6.2 2.7z"></path>
  <path d="M679.2 417.5A298.2 298.2 0 11381-99a298.2 298.2 0 01298.2 516.5zm48-372.4a227.7 227.7 0 10-394.4 227.8A227.7 227.7 0 00727.2 45.1z"></path>
  <path d="m 530.1,52.5 c -52.3,0 -94.7,42.4 -94.7,94.7 0,52.3 42.4,94.7 94.7,94.7 52.3,0 94.7,-42.4 94.7,-94.7 0,-52.3 -42.4,-94.7 -94.7,-94.7 z m 0,48.1 c 25.7,0 46.6,20.8 46.6,46.6 0,25.7 -20.8,46.6 -46.6,46.6 -25.7,0 -46.6,-20.8 -46.6,-46.6 0,-25.7 20.8,-46.6 46.6,-46.6 z"></path>
  <g fill="none">
    <circle cx="530.1" cy="159.3" r="284.9"></circle>
    <circle cx="304.1" cy="290.2" r="11.4"></circle>
    <circle cx="757.8" cy="28.3" r="11.4"></circle>
    <circle cx="530.9" cy="-102.7" r="11.4"></circle>
    <circle cx="530.9" cy="421.2" r="11.4"></circle>
    <circle cx="304.1" cy="28.3" r="11.4"></circle>
    <circle cx="757.8" cy="290.3" r="11.4"></circle>
  </g>
 </g><g id="crossMaltese_provinceCOA121" stroke-width=".5"><path d="M98 98L83 60l17 11 17-11-15 38 38-15-11 17 11 17-38-15 15 38-17-11-17 11 15-38-38 15 11-17-11-17z"></path></g><g id="buckle_provinceCOA121" stroke-width=".7"><path d="M117.2 134.72V65.9c0-1.92-1.53-2.96-3.44-2.96-1.92 0-3.46 1.04-3.46 2.96v68.82c0 1.92 1.54 2.96 3.46 2.96 1.91 0 3.45-1.04 3.45-2.96z"></path><path d="M100.98 134.74c20.01 0 36.24-15.42 36.24-34.44S121 65.85 100.98 65.85c-20.02 0-36.25 15.43-36.25 34.45s16.23 34.44 36.25 34.44zm28.44-34.44c0 14.15-12.26 26.12-28.51 26.12S72.4 114.47 72.4 100.3s12.26-26.12 28.5-26.12 28.52 11.97 28.52 26.12z"></path><path d="M110.75 105.86c-1.66-.4-2.2-1.42-2.25-2.56l-45.02 1.28-4.75-3.67a.76.76 0 010-1.18l4.75-3.67 45.02 1.28c.03-1.16.57-2.2 2.25-2.6l5.9-.76c.6-.07 1.22.24 1.5.78l2.04 3.88a3.8 3.8 0 010 3.29l-2.03 3.88c-.29.54-.9.88-1.52.78l-5.89-.73z"></path></g><radialGradient id="backlight_provinceCOA121" cx="100%" cy="100%" r="150%"><stop stop-color="#fff" stop-opacity=".3" offset="0"></stop><stop stop-color="#fff" stop-opacity=".15" offset=".25"></stop><stop stop-color="#000" stop-opacity="0" offset="1"></stop></radialGradient></defs>
        <g clip-path="url(#polish_provinceCOA121)"><rect x="0" y="0" width="200" height="200" fill="#522d5b"></rect><g clip-path="url(#divisionClip_provinceCOA121)"><rect x="0" y="0" width="200" height="200" fill="#fafafa"></rect></g><g fill="#ffe066" stroke="#000"><use href="#crossDouble_provinceCOA121" transform="translate(57.49999999999999 7.499999999999993) scale(0.425)"></use></g><g fill="#377cd7" stroke="#000"><use href="#wheel_provinceCOA121" transform="translate(17.499999999999993 57.49999999999999) scale(0.425)"></use></g><g fill="#d7374a" stroke="#000"><use href="#crossMaltese_provinceCOA121" transform="translate(97.5 57.49999999999999) scale(0.425)"></use></g><g fill="#ffe066" stroke="#000"><use href="#buckle_provinceCOA121" transform="translate(57.49999999999999 107.5) scale(0.425)"></use></g></g>
        <path d="m 90.3,6.3 c -12.7,0 -20.7,10.9 -40.5,14 0,11.8 -4.9,23.5 -11.4,31.1 0,0 12.7,6 12.7,19.3 C 51.1,90.8 30,90.8 30,90.8 c 0,0 -3.6,7.4 -3.6,22.4 0,34.3 23.1,60.2 40.7,68.2 17.6,8 27.7,11.4 32.9,18.6 5.2,-7.3 15.3,-10.7 32.8,-18.6 17.6,-8 40.7,-33.9 40.7,-68.2 0,-15 -3.6,-22.4 -3.6,-22.4 0,0 -21.1,0 -21.1,-20.1 0,-13.3 12.7,-19.3 12.7,-19.3 C 155.1,43.7 150.2,32.1 150.2,20.3 130.4,17.2 122.5,6.3 109.7,6.3 102.5,6.3 100,10 100,10 c 0,0 -2.5,-3.7 -9.7,-3.7 z" fill="url(#backlight_provinceCOA121)" stroke="#333"></path></svg>