<svg xmlns="http://www.w3.org/2000/svg" id="burgCOA643" width="200" height="200" viewBox="0 10 200 200">
        <defs><clipPath id="french_burgCOA643"><path d="m 25,25 h 150 v 139.15 c 0,41.745 -66,18.15 -75,36.3 -9,-18.15 -75,5.445 -75,-36.3 v 0 z"></path></clipPath><g id="crossMaltese_burgCOA643" stroke-width=".5"><path d="M98 98L83 60l17 11 17-11-15 38 38-15-11 17 11 17-38-15 15 38-17-11-17 11 15-38-38 15 11-17-11-17z"></path></g><radialGradient id="backlight_burgCOA643" cx="100%" cy="100%" r="150%"><stop stop-color="#fff" stop-opacity=".3" offset="0"></stop><stop stop-color="#fff" stop-opacity=".15" offset=".25"></stop><stop stop-color="#000" stop-opacity="0" offset="1"></stop></radialGradient></defs>
        <g clip-path="url(#french_burgCOA643)"><rect x="0" y="0" width="200" height="200" fill="#fafafa"></rect><g fill="#377cd7" stroke="none"><polygon points="0,165 165,0 200,0 200,35 35,200 0,200"></polygon></g><g fill="#ffe066" stroke="#000"><use href="#crossMaltese_burgCOA643" transform="translate(30.000000000000004 30.000000000000004) scale(0.7)"></use></g></g>
        <path d="m 25,25 h 150 v 139.15 c 0,41.745 -66,18.15 -75,36.3 -9,-18.15 -75,5.445 -75,-36.3 v 0 z" fill="url(#backlight_burgCOA643)" stroke="#333"></path></svg>