<svg xmlns="http://www.w3.org/2000/svg" id="burgCOA716" width="200" height="200" viewBox="0 10 200 200">
        <defs><clipPath id="french_burgCOA716"><path d="m 25,25 h 150 v 139.15 c 0,41.745 -66,18.15 -75,36.3 -9,-18.15 -75,5.445 -75,-36.3 v 0 z"></path></clipPath><g id="rustre_burgCOA716"><path d="M100 55l30 45-30 45-30-45zm-12 45a12 12 0 1024 0 12 12 0 10-24 0"></path></g><radialGradient id="backlight_burgCOA716" cx="100%" cy="100%" r="150%"><stop stop-color="#fff" stop-opacity=".3" offset="0"></stop><stop stop-color="#fff" stop-opacity=".15" offset=".25"></stop><stop stop-color="#000" stop-opacity="0" offset="1"></stop></radialGradient></defs>
        <g clip-path="url(#french_burgCOA716)"><rect x="0" y="0" width="200" height="200" fill="#ffe066"></rect><g fill="#333333" stroke="none"><rect x="0" y="75" width="200" height="50"></rect></g><g fill="#ffe066" stroke="#000"><use href="#rustre_burgCOA716" transform="translate(6.25 50) scale(0.5)"></use><use href="#rustre_burgCOA716" transform="translate(50 50) scale(0.5)"></use><use href="#rustre_burgCOA716" transform="translate(93.75 50) scale(0.5)"></use></g></g>
        <path d="m 25,25 h 150 v 139.15 c 0,41.745 -66,18.15 -75,36.3 -9,-18.15 -75,5.445 -75,-36.3 v 0 z" fill="url(#backlight_burgCOA716)" stroke="#333"></path></svg>