<svg xmlns="http://www.w3.org/2000/svg" id="burgCOA240" width="200" height="200" viewBox="0 0 200 200">
        <defs><clipPath id="boeotian_burgCOA240"><path d="M150 115c-5 0-10-5-10-15s5-15 10-15c10 0 7 10 15 10 10 0 0-30 0-30-10-25-30-55-65-55S45 40 35 65c0 0-10 30 0 30 8 0 5-10 15-10 5 0 10 5 10 15s-5 15-10 15c-10 0-7-10-15-10-10 0 0 30 0 30 10 25 30 55 65 55s55-30 65-55c0 0 10-30 0-30-8 0-5 10-15 10z"></path></clipPath><clipPath id="divisionClip_burgCOA240"><polygon points="0,0 0,200 200,0 200,200"></polygon></clipPath><g id="annulet_burgCOA240"><path d="M70 100c0 16.569 13.431 30 30 30 16.569 0 30-13.431 30-30 0-16.569-13.431-30-30-30-16.569 0-30 13.431-30 30m10 0c0-11.046 8.954-20 20-20s20 8.954 20 20-8.954 20-20 20-20-8.954-20-20"></path></g><radialGradient id="backlight_burgCOA240" cx="100%" cy="100%" r="150%"><stop stop-color="#fff" stop-opacity=".3" offset="0"></stop><stop stop-color="#fff" stop-opacity=".15" offset=".25"></stop><stop stop-color="#000" stop-opacity="0" offset="1"></stop></radialGradient></defs>
        <g clip-path="url(#boeotian_burgCOA240)"><rect x="0" y="0" width="200" height="200" fill="#fafafa"></rect><g fill="#377cd7" stroke="#000"><use href="#annulet_burgCOA240" transform="translate(62.5 15) scale(0.375)"></use><use href="#annulet_burgCOA240" transform="translate(62.5 110) scale(0.375)"></use><use href="#annulet_burgCOA240" transform="translate(37.5 62.5) scale(0.375)"></use><use href="#annulet_burgCOA240" transform="translate(87.5 62.5) scale(0.375)"></use></g><g clip-path="url(#divisionClip_burgCOA240)"><rect x="0" y="0" width="200" height="200" fill="#377cd7"></rect><g fill="#fafafa" stroke="#000"><use href="#annulet_burgCOA240" transform="translate(62.5 15) scale(0.375)"></use><use href="#annulet_burgCOA240" transform="translate(62.5 110) scale(0.375)"></use><use href="#annulet_burgCOA240" transform="translate(37.5 62.5) scale(0.375)"></use><use href="#annulet_burgCOA240" transform="translate(87.5 62.5) scale(0.375)"></use></g></g></g>
        <path d="M150 115c-5 0-10-5-10-15s5-15 10-15c10 0 7 10 15 10 10 0 0-30 0-30-10-25-30-55-65-55S45 40 35 65c0 0-10 30 0 30 8 0 5-10 15-10 5 0 10 5 10 15s-5 15-10 15c-10 0-7-10-15-10-10 0 0 30 0 30 10 25 30 55 65 55s55-30 65-55c0 0 10-30 0-30-8 0-5 10-15 10z" fill="url(#backlight_burgCOA240)" stroke="#333"></path></svg>