<svg xmlns="http://www.w3.org/2000/svg" id="burgCOA607" width="200" height="200" viewBox="0 0 200 200">
        <defs><clipPath id="boeotian_burgCOA607"><path d="M150 115c-5 0-10-5-10-15s5-15 10-15c10 0 7 10 15 10 10 0 0-30 0-30-10-25-30-55-65-55S45 40 35 65c0 0-10 30 0 30 8 0 5-10 15-10 5 0 10 5 10 15s-5 15-10 15c-10 0-7-10-15-10-10 0 0 30 0 30 10 25 30 55 65 55s55-30 65-55c0 0 10-30 0-30-8 0-5 10-15 10z"></path></clipPath><clipPath id="divisionClip_burgCOA607"><rect x="100" y="0" width="100" height="92.5"></rect><rect x="0" y="107.5" width="100" height="92.5"></rect><path d="m 0,95 a 6.25,6.25 0 0 0 12.5,0 6.25,6.25 0 0 0 12.5,0 6.25,6.25 0 0 0 12.5,0 6.25,6.25 0 0 0 12.5,0 6.25,6.25 0 0 0 12.5,0 6.25,6.25 0 0 0 12.5,0 6.25,6.25 0 0 0 12.5,0 6.25,6.25 0 0 0 12.5,0 6.25,6.25 0 0 0 12.5,0 6.25,6.25 0 0 0 12.5,0 6.25,6.25 0 0 0 12.5,0 6.25,6.25 0 0 0 12.5,0 6.25,6.25 0 0 0 12.5,0 6.25,6.25 0 0 0 12.5,0 6.25,6.25 0 0 0 12.5,0 6.25,6.25 0 0 0 12.5,0 v 20 H 0 Z" transform="translate(0 50) scale(.5001)"></path><path d="m 0,95 a 6.25,6.25 0 0 0 12.5,0 6.25,6.25 0 0 0 12.5,0 6.25,6.25 0 0 0 12.5,0 6.25,6.25 0 0 0 12.5,0 6.25,6.25 0 0 0 12.5,0 6.25,6.25 0 0 0 12.5,0 6.25,6.25 0 0 0 12.5,0 6.25,6.25 0 0 0 12.5,0 6.25,6.25 0 0 0 12.5,0 6.25,6.25 0 0 0 12.5,0 6.25,6.25 0 0 0 12.5,0 6.25,6.25 0 0 0 12.5,0 6.25,6.25 0 0 0 12.5,0 6.25,6.25 0 0 0 12.5,0 6.25,6.25 0 0 0 12.5,0 6.25,6.25 0 0 0 12.5,0 v 20 H 0 Z" transform="translate(200 150) scale(-.5)"></path></clipPath><g id="crossMoline_burgCOA607" stroke-width=".5"><path d="M104.3 74.9c0-6.4 2.7-11.4 5.1-14.8-4.1 0-7.2 2-9.4 4.9-2.2-2.9-5.3-4.9-9.4-4.9 2.5 3.4 5.1 8.4 5.1 14.8v20.8H74.9c-6.4 0-11.3-2.7-14.8-5.1 0 4.1 2 7.2 4.9 9.4-2.9 2.2-4.9 5.4-4.9 9.4 3.4-2.5 8.3-5.1 14.8-5.1h20.8v20.9c0 6.4-2.7 11.4-5.1 14.8 4.1 0 7.2-2 9.4-4.9 2.2 2.9 5.3 4.9 9.4 4.9-2.5-3.4-5.1-8.4-5.1-14.8v-20.9h20.8c6.4 0 11.3 2.7 14.8 5.1 0-4.1-2-7.2-4.9-9.4 2.9-2.2 4.9-5.4 4.9-9.4-3.4 2.5-8.3 5.1-14.8 5.1h-20.8z"></path></g><radialGradient id="backlight_burgCOA607" cx="100%" cy="100%" r="150%"><stop stop-color="#fff" stop-opacity=".3" offset="0"></stop><stop stop-color="#fff" stop-opacity=".15" offset=".25"></stop><stop stop-color="#000" stop-opacity="0" offset="1"></stop></radialGradient></defs>
        <g clip-path="url(#boeotian_burgCOA607)"><rect x="0" y="0" width="200" height="200" fill="#fafafa"></rect><g fill="#522d5b" stroke="#000"><use href="#crossMoline_burgCOA607" transform="translate(15.000000000000007 10.000000000000007) scale(0.5249999999999999)"></use><use href="#crossMoline_burgCOA607" transform="translate(80 85) scale(0.5249999999999999)"></use></g><g clip-path="url(#divisionClip_burgCOA607)"><rect x="0" y="0" width="200" height="200" fill="#522d5b"></rect><g fill="#fafafa" stroke="#000"><use href="#crossMoline_burgCOA607" transform="translate(15.000000000000007 10.000000000000007) scale(0.5249999999999999)"></use><use href="#crossMoline_burgCOA607" transform="translate(80 85) scale(0.5249999999999999)"></use></g></g></g>
        <path d="M150 115c-5 0-10-5-10-15s5-15 10-15c10 0 7 10 15 10 10 0 0-30 0-30-10-25-30-55-65-55S45 40 35 65c0 0-10 30 0 30 8 0 5-10 15-10 5 0 10 5 10 15s-5 15-10 15c-10 0-7-10-15-10-10 0 0 30 0 30 10 25 30 55 65 55s55-30 65-55c0 0 10-30 0-30-8 0-5 10-15 10z" fill="url(#backlight_burgCOA607)" stroke="#333"></path></svg>