<svg xmlns="http://www.w3.org/2000/svg" id="burgCOA179" width="200" height="200" viewBox="0 0 200 200">
        <defs><clipPath id="boeotian_burgCOA179"><path d="M150 115c-5 0-10-5-10-15s5-15 10-15c10 0 7 10 15 10 10 0 0-30 0-30-10-25-30-55-65-55S45 40 35 65c0 0-10 30 0 30 8 0 5-10 15-10 5 0 10 5 10 15s-5 15-10 15c-10 0-7-10-15-10-10 0 0 30 0 30 10 25 30 55 65 55s55-30 65-55c0 0 10-30 0-30-8 0-5 10-15 10z"></path></clipPath><g id="roundel_burgCOA179"><circle cx="100" cy="100" r="30"></circle></g><radialGradient id="backlight_burgCOA179" cx="100%" cy="100%" r="150%"><stop stop-color="#fff" stop-opacity=".3" offset="0"></stop><stop stop-color="#fff" stop-opacity=".15" offset=".25"></stop><stop stop-color="#000" stop-opacity="0" offset="1"></stop></radialGradient></defs>
        <g clip-path="url(#boeotian_burgCOA179)"><rect x="0" y="0" width="200" height="200" fill="#fafafa"></rect><g fill="#377cd7" stroke="none"><path d="M 7 0 L 89 82 L 82 89 L 0 7 L 0 28 L 72 100 L 0 172 L 0 193 L 82 111 L 89 118 L 7 200 L 28 200 L 100 128 L 172 200 L 193 200 L 111 118 L 118 111 L 200 193 L 200 172 L 128 100 L 200 28 L 200 7 L 118 89 L 111 82 L 193 0 L 172 0 L 100 72 L 28 0 L 7 0 z M 100 93 L 107 100 L 100 107 L 93 100 L 100 93 z"></path></g><g fill="#fafafa" stroke="#000"><use href="#roundel_burgCOA179" transform="translate(-12.5 -12.5) scale(1.125)"></use></g></g>
        <path d="M150 115c-5 0-10-5-10-15s5-15 10-15c10 0 7 10 15 10 10 0 0-30 0-30-10-25-30-55-65-55S45 40 35 65c0 0-10 30 0 30 8 0 5-10 15-10 5 0 10 5 10 15s-5 15-10 15c-10 0-7-10-15-10-10 0 0 30 0 30 10 25 30 55 65 55s55-30 65-55c0 0 10-30 0-30-8 0-5 10-15 10z" fill="url(#backlight_burgCOA179)" stroke="#333"></path></svg>