<svg xmlns="http://www.w3.org/2000/svg" id="burgCOA485" width="200" height="200" viewBox="0 0 200 200">
        <defs><clipPath id="boeotian_burgCOA485"><path d="M150 115c-5 0-10-5-10-15s5-15 10-15c10 0 7 10 15 10 10 0 0-30 0-30-10-25-30-55-65-55S45 40 35 65c0 0-10 30 0 30 8 0 5-10 15-10 5 0 10 5 10 15s-5 15-10 15c-10 0-7-10-15-10-10 0 0 30 0 30 10 25 30 55 65 55s55-30 65-55c0 0 10-30 0-30-8 0-5 10-15 10z"></path></clipPath><clipPath id="divisionClip_burgCOA485"><rect x="0" y="100" width="200" height="100"></rect></clipPath><g id="lozengeFaceted_burgCOA485"><polygon points="100 55 130 100 100 145 70 100"></polygon><g fill="#000" stroke="none"><polygon points="100 100 130 100 100 55" opacity=".2"></polygon><polygon points="100 100 70 100 100 145" opacity=".2"></polygon><polygon points="100 100 130 100 100 145" opacity=".3"></polygon></g></g><radialGradient id="backlight_burgCOA485" cx="100%" cy="100%" r="150%"><stop stop-color="#fff" stop-opacity=".3" offset="0"></stop><stop stop-color="#fff" stop-opacity=".15" offset=".25"></stop><stop stop-color="#000" stop-opacity="0" offset="1"></stop></radialGradient></defs>
        <g clip-path="url(#boeotian_burgCOA485)"><rect x="0" y="0" width="200" height="200" fill="#377cd7"></rect><g fill="#ffe066" stroke="#000"><use href="#lozengeFaceted_burgCOA485" transform="translate(62.5 17.5) scale(0.375)"></use><use href="#lozengeFaceted_burgCOA485" transform="translate(30 100) scale(0.375)"></use><use href="#lozengeFaceted_burgCOA485" transform="translate(95 100) scale(0.375)"></use></g><g clip-path="url(#divisionClip_burgCOA485)"><rect x="0" y="0" width="200" height="200" fill="#ffe066"></rect><g fill="#377cd7" stroke="#000"><use href="#lozengeFaceted_burgCOA485" transform="translate(62.5 17.5) scale(0.375)"></use><use href="#lozengeFaceted_burgCOA485" transform="translate(30 100) scale(0.375)"></use><use href="#lozengeFaceted_burgCOA485" transform="translate(95 100) scale(0.375)"></use></g></g></g>
        <path d="M150 115c-5 0-10-5-10-15s5-15 10-15c10 0 7 10 15 10 10 0 0-30 0-30-10-25-30-55-65-55S45 40 35 65c0 0-10 30 0 30 8 0 5-10 15-10 5 0 10 5 10 15s-5 15-10 15c-10 0-7-10-15-10-10 0 0 30 0 30 10 25 30 55 65 55s55-30 65-55c0 0 10-30 0-30-8 0-5 10-15 10z" fill="url(#backlight_burgCOA485)" stroke="#333"></path></svg>