<svg xmlns="http://www.w3.org/2000/svg" id="burgCOA477" width="200" height="200" viewBox="0 0 200 200">
        <defs><clipPath id="boeotian_burgCOA477"><path d="M150 115c-5 0-10-5-10-15s5-15 10-15c10 0 7 10 15 10 10 0 0-30 0-30-10-25-30-55-65-55S45 40 35 65c0 0-10 30 0 30 8 0 5-10 15-10 5 0 10 5 10 15s-5 15-10 15c-10 0-7-10-15-10-10 0 0 30 0 30 10 25 30 55 65 55s55-30 65-55c0 0 10-30 0-30-8 0-5 10-15 10z"></path></clipPath><clipPath id="divisionClip_burgCOA477"><polygon points="0,0 200,200 0,200"></polygon></clipPath><pattern id="vairEnPointe-azure-argent" width="0.125" height="0.25" viewBox="0 0 25 50"><rect width="25" height="25" fill="#fafafa"></rect><path d="m12.5,0 l6.25,6.25 v12.5 l6.25,6.25 h-25 l6.25,-6.25 v-12.5 z" fill="#377cd7"></path><rect x="0" y="25" width="25" height="25" fill="#377cd7" stroke-width="1" stroke="#377cd7"></rect><path d="m12.5,25 l6.25,6.25 v12.5 l6.25,6.25 h-25 l6.25,-6.25 v-12.5 z" fill="#fafafa"></path></pattern><radialGradient id="backlight_burgCOA477" cx="100%" cy="100%" r="150%"><stop stop-color="#fff" stop-opacity=".3" offset="0"></stop><stop stop-color="#fff" stop-opacity=".15" offset=".25"></stop><stop stop-color="#000" stop-opacity="0" offset="1"></stop></radialGradient></defs>
        <g clip-path="url(#boeotian_burgCOA477)"><rect x="0" y="0" width="200" height="200" fill="url(#vairEnPointe-azure-argent)"></rect><g clip-path="url(#divisionClip_burgCOA477)"><rect x="0" y="0" width="200" height="200" fill="#ffe066"></rect></g><g fill="#522d5b" stroke="none"><polygon points="85,0 85,85 0,85 0,115 85,115 85,200 115,200 115,115 200,115 200,85 115,85 115,0"></polygon></g></g>
        <path d="M150 115c-5 0-10-5-10-15s5-15 10-15c10 0 7 10 15 10 10 0 0-30 0-30-10-25-30-55-65-55S45 40 35 65c0 0-10 30 0 30 8 0 5-10 15-10 5 0 10 5 10 15s-5 15-10 15c-10 0-7-10-15-10-10 0 0 30 0 30 10 25 30 55 65 55s55-30 65-55c0 0 10-30 0-30-8 0-5 10-15 10z" fill="url(#backlight_burgCOA477)" stroke="#333"></path></svg>