<svg xmlns="http://www.w3.org/2000/svg" id="burgCOA420" width="200" height="200" viewBox="0 10 200 200">
        <defs><clipPath id="heater_burgCOA420"><path d="m25,25 h150 v50 a150,150,0,0,1,-75,125 a150,150,0,0,1,-75,-125 z"></path></clipPath><g id="heart_burgCOA420"><path stroke-width=".5" d="M100 84c-.7-1.1-1.4-2.2-2.4-3.2-6.3-6.8-16.6-6.8-23 0-6.3 6.8-5.4 17.8 1 24.6 6.3 6.8 17.7 12.4 24.2 27 7.3-14.4 18.2-20.2 24.5-27 6.3-6.8 7.3-17.8 1-24.6-6.3-6.8-16.6-6.8-23 0-.9 1-1.6 2.1-2.3 3.2z"></path></g><radialGradient id="backlight_burgCOA420" cx="100%" cy="100%" r="150%"><stop stop-color="#fff" stop-opacity=".3" offset="0"></stop><stop stop-color="#fff" stop-opacity=".15" offset=".25"></stop><stop stop-color="#000" stop-opacity="0" offset="1"></stop></radialGradient></defs>
        <g clip-path="url(#heater_burgCOA420)"><rect x="0" y="0" width="200" height="200" fill="#d7374a"></rect><g fill="#fafafa" stroke="none"><path d="M0,200 Q80,180 100,135 Q120,180 200,200"></path></g><g fill="#fafafa" stroke="#000"><use href="#heart_burgCOA420" transform="translate(-50 -50) scale(1.5)"></use></g></g>
        <path d="m25,25 h150 v50 a150,150,0,0,1,-75,125 a150,150,0,0,1,-75,-125 z" fill="url(#backlight_burgCOA420)" stroke="#333"></path></svg>