<svg xmlns="http://www.w3.org/2000/svg" id="burgCOA266" width="200" height="200" viewBox="0 5 200 200">
        <defs><clipPath id="renaissance_burgCOA266"><path d="M 25,33.9 C 33.4,50.3 36.2,72.9 36.2,81.7 36.2,109.9 25,122.6 25,141 c 0,29.4 24.9,44.1 40.2,47.7 15.3,3.7 29.3,0 34.8,11.3 5.5,-11.3 19.6,-7.6 34.8,-11.3 C 150.1,185 175,170.3 175,141 c 0,-18.4 -11.2,-31.1 -11.2,-59.3 0,-8.8 2.8,-31.3 11.2,-47.7 L 155.7,14.4 C 138.2,21.8 119.3,25.7 100,25.7 c -19.3,0 -38.2,-3.9 -55.7,-11.3 z"></path></clipPath><clipPath id="divisionClip_burgCOA266"><rect x="100" y="0" width="100" height="200"></rect></clipPath><g id="crossFormee2_burgCOA266" stroke-width=".5"><path d="m 88,60 c 7,-5 17,-5 24,0 -7,8 -9,30 -7,35 5,2 27,0 35,-7 5,7 5,17 0,24 -8,-7 -30,-9 -35,-7 -2,5 0,27 7,35 -7,5 -17,5 -24,0 7,-8 9,-30 7,-35 -5,-2 -27,0 -35,7 -5,-7 -5,-17 0,-24 8,7 30,9 35,7 2,-5 0,-27 -7,-35 z"></path></g><radialGradient id="backlight_burgCOA266" cx="100%" cy="100%" r="150%"><stop stop-color="#fff" stop-opacity=".3" offset="0"></stop><stop stop-color="#fff" stop-opacity=".15" offset=".25"></stop><stop stop-color="#000" stop-opacity="0" offset="1"></stop></radialGradient></defs>
        <g clip-path="url(#renaissance_burgCOA266)"><rect x="0" y="0" width="200" height="200" fill="#377cd7"></rect><g fill="#ffe066" stroke="#000"><use href="#crossFormee2_burgCOA266" transform="translate(-7.4999999999999964 -7.4999999999999964) scale(0.7)"></use><use href="#crossFormee2_burgCOA266" transform="translate(67.5 67.5) scale(0.7)"></use></g><g clip-path="url(#divisionClip_burgCOA266)"><rect x="0" y="0" width="200" height="200" fill="#ffe066"></rect><g fill="#377cd7" stroke="#000"><use href="#crossFormee2_burgCOA266" transform="translate(-7.4999999999999964 -7.4999999999999964) scale(0.7)"></use><use href="#crossFormee2_burgCOA266" transform="translate(67.5 67.5) scale(0.7)"></use></g></g></g>
        <path d="M 25,33.9 C 33.4,50.3 36.2,72.9 36.2,81.7 36.2,109.9 25,122.6 25,141 c 0,29.4 24.9,44.1 40.2,47.7 15.3,3.7 29.3,0 34.8,11.3 5.5,-11.3 19.6,-7.6 34.8,-11.3 C 150.1,185 175,170.3 175,141 c 0,-18.4 -11.2,-31.1 -11.2,-59.3 0,-8.8 2.8,-31.3 11.2,-47.7 L 155.7,14.4 C 138.2,21.8 119.3,25.7 100,25.7 c -19.3,0 -38.2,-3.9 -55.7,-11.3 z" fill="url(#backlight_burgCOA266)" stroke="#333"></path></svg>