<svg xmlns="http://www.w3.org/2000/svg" id="burgCOA415" width="200" height="200" viewBox="0 10 200 200">
        <defs><clipPath id="french_burgCOA415"><path d="m 25,25 h 150 v 139.15 c 0,41.745 -66,18.15 -75,36.3 -9,-18.15 -75,5.445 -75,-36.3 v 0 z"></path></clipPath><g id="mulletPierced_burgCOA415">
    <path d="M100 60l8.98 27.64h29.06l-23.51 17.08 8.98 27.64L100 115.28l-23.51 17.08 8.98-27.64-23.51-17.08h29.06z M 108,100 a 8,8 0 0 0 -8,-8 8,8 0 0 0 -8,8 8,8 0 0 0 8,8 8,8 0 0 0 8,-8 z"></path>
  </g><radialGradient id="backlight_burgCOA415" cx="100%" cy="100%" r="150%"><stop stop-color="#fff" stop-opacity=".3" offset="0"></stop><stop stop-color="#fff" stop-opacity=".15" offset=".25"></stop><stop stop-color="#000" stop-opacity="0" offset="1"></stop></radialGradient></defs>
        <g clip-path="url(#french_burgCOA415)"><rect x="0" y="0" width="200" height="200" fill="#377cd7"></rect><g fill="#ffe066" stroke="none"><path d="m 25,25 h 150 v 139.15 c 0,41.745 -66,18.15 -75,36.3 -9,-18.15 -75,5.445 -75,-36.3 v 0 z" fill="none" stroke="#ffe066" stroke-width="16.7%"></path></g><g fill="#377cd7" stroke="#000"><use href="#mulletPierced_burgCOA415" transform="translate(15.799999999999997 15.400000000000006) scale(0.18)"></use><use href="#mulletPierced_burgCOA415" transform="translate(60 15.400000000000006) scale(0.18)"></use><use href="#mulletPierced_burgCOA415" transform="translate(104 15.400000000000006) scale(0.18)"></use><use href="#mulletPierced_burgCOA415" transform="translate(148.2 15.400000000000006) scale(0.18)"></use><use href="#mulletPierced_burgCOA415" transform="translate(148.4 62) scale(0.18)"></use><use href="#mulletPierced_burgCOA415" transform="translate(148.4 108) scale(0.18)"></use><use href="#mulletPierced_burgCOA415" transform="translate(147.4 152) scale(0.18)"></use><use href="#mulletPierced_burgCOA415" transform="translate(82 171) scale(0.18)"></use><use href="#mulletPierced_burgCOA415" transform="translate(16.599999999999994 152) scale(0.18)"></use><use href="#mulletPierced_burgCOA415" transform="translate(15.599999999999994 108) scale(0.18)"></use><use href="#mulletPierced_burgCOA415" transform="translate(15.599999999999994 62) scale(0.18)"></use></g></g>
        <path d="m 25,25 h 150 v 139.15 c 0,41.745 -66,18.15 -75,36.3 -9,-18.15 -75,5.445 -75,-36.3 v 0 z" fill="url(#backlight_burgCOA415)" stroke="#333"></path></svg>