<svg xmlns="http://www.w3.org/2000/svg" id="burgCOA411" width="200" height="200" viewBox="0 0 200 200">
        <defs><clipPath id="polish_burgCOA411"><path d="m 90.3,6.3 c -12.7,0 -20.7,10.9 -40.5,14 0,11.8 -4.9,23.5 -11.4,31.1 0,0 12.7,6 12.7,19.3 C 51.1,90.8 30,90.8 30,90.8 c 0,0 -3.6,7.4 -3.6,22.4 0,34.3 23.1,60.2 40.7,68.2 17.6,8 27.7,11.4 32.9,18.6 5.2,-7.3 15.3,-10.7 32.8,-18.6 17.6,-8 40.7,-33.9 40.7,-68.2 0,-15 -3.6,-22.4 -3.6,-22.4 0,0 -21.1,0 -21.1,-20.1 0,-13.3 12.7,-19.3 12.7,-19.3 C 155.1,43.7 150.2,32.1 150.2,20.3 130.4,17.2 122.5,6.3 109.7,6.3 102.5,6.3 100,10 100,10 c 0,0 -2.5,-3.7 -9.7,-3.7 z"></path></clipPath><pattern id="ermine-argent-sable" width="0.125" height="0.125" viewBox="0 0 200 200" fill="#333333"><rect width="200" height="200" fill="#fafafa"></rect><g stroke="none" fill="#333333"><g transform="translate(-100 -50)"><path d="m100 81.1c-4.25 17.6-12.7 29.8-21.2 38.9 3.65-0.607 7.9-3.04 11.5-5.47-2.42 4.86-4.86 8.51-7.3 12.7 1.82-0.607 6.07-4.86 12.7-10.9 1.21 8.51 2.42 17.6 4.25 23.6 1.82-5.47 3.04-15.2 4.25-23.6 3.65 3.65 7.3 7.9 12.7 10.9l-7.9-13.3c3.65 1.82 7.9 4.86 11.5 6.07-9.11-9.11-17-21.2-20.6-38.9z"></path><path d="m82.4 81.7c-0.607-0.607-6.07 2.42-9.72-4.25 7.9 6.68 15.2-7.3 21.8 1.82 1.82 4.25-6.68 10.9-12.1 2.42z"></path><path d="m117 81.7c0.607-1.21 6.07 2.42 9.11-4.86-7.3 7.3-15.2-7.3-21.2 2.42-1.82 4.25 6.68 10.9 12.1 2.42z"></path><path d="m101 66.5c-1.02-0.607 3.58-4.25-3.07-8.51 5.63 7.9-10.2 10.9-1.54 17.6 3.58 2.42 12.2-2.42 4.6-9.11z"></path></g><g transform="translate(100 -50)"><path d="m100 81.1c-4.25 17.6-12.7 29.8-21.2 38.9 3.65-0.607 7.9-3.04 11.5-5.47-2.42 4.86-4.86 8.51-7.3 12.7 1.82-0.607 6.07-4.86 12.7-10.9 1.21 8.51 2.42 17.6 4.25 23.6 1.82-5.47 3.04-15.2 4.25-23.6 3.65 3.65 7.3 7.9 12.7 10.9l-7.9-13.3c3.65 1.82 7.9 4.86 11.5 6.07-9.11-9.11-17-21.2-20.6-38.9z"></path><path d="m82.4 81.7c-0.607-0.607-6.07 2.42-9.72-4.25 7.9 6.68 15.2-7.3 21.8 1.82 1.82 4.25-6.68 10.9-12.1 2.42z"></path><path d="m117 81.7c0.607-1.21 6.07 2.42 9.11-4.86-7.3 7.3-15.2-7.3-21.2 2.42-1.82 4.25 6.68 10.9 12.1 2.42z"></path><path d="m101 66.5c-1.02-0.607 3.58-4.25-3.07-8.51 5.63 7.9-10.2 10.9-1.54 17.6 3.58 2.42 12.2-2.42 4.6-9.11z"></path></g><g transform="translate(0 50)"><path d="m100 81.1c-4.25 17.6-12.7 29.8-21.2 38.9 3.65-0.607 7.9-3.04 11.5-5.47-2.42 4.86-4.86 8.51-7.3 12.7 1.82-0.607 6.07-4.86 12.7-10.9 1.21 8.51 2.42 17.6 4.25 23.6 1.82-5.47 3.04-15.2 4.25-23.6 3.65 3.65 7.3 7.9 12.7 10.9l-7.9-13.3c3.65 1.82 7.9 4.86 11.5 6.07-9.11-9.11-17-21.2-20.6-38.9z"></path><path d="m82.4 81.7c-0.607-0.607-6.07 2.42-9.72-4.25 7.9 6.68 15.2-7.3 21.8 1.82 1.82 4.25-6.68 10.9-12.1 2.42z"></path><path d="m117 81.7c0.607-1.21 6.07 2.42 9.11-4.86-7.3 7.3-15.2-7.3-21.2 2.42-1.82 4.25 6.68 10.9 12.1 2.42z"></path><path d="m101 66.5c-1.02-0.607 3.58-4.25-3.07-8.51 5.63 7.9-10.2 10.9-1.54 17.6 3.58 2.42 12.2-2.42 4.6-9.11z"></path></g></g></pattern><radialGradient id="backlight_burgCOA411" cx="100%" cy="100%" r="150%"><stop stop-color="#fff" stop-opacity=".3" offset="0"></stop><stop stop-color="#fff" stop-opacity=".15" offset=".25"></stop><stop stop-color="#000" stop-opacity="0" offset="1"></stop></radialGradient></defs>
        <g clip-path="url(#polish_burgCOA411)"><rect x="0" y="0" width="200" height="200" fill="url(#ermine-argent-sable)"></rect><g fill="#522d5b" stroke="none"><polygon points="0,200 0,144 175,25 55,200"></polygon></g></g>
        <path d="m 90.3,6.3 c -12.7,0 -20.7,10.9 -40.5,14 0,11.8 -4.9,23.5 -11.4,31.1 0,0 12.7,6 12.7,19.3 C 51.1,90.8 30,90.8 30,90.8 c 0,0 -3.6,7.4 -3.6,22.4 0,34.3 23.1,60.2 40.7,68.2 17.6,8 27.7,11.4 32.9,18.6 5.2,-7.3 15.3,-10.7 32.8,-18.6 17.6,-8 40.7,-33.9 40.7,-68.2 0,-15 -3.6,-22.4 -3.6,-22.4 0,0 -21.1,0 -21.1,-20.1 0,-13.3 12.7,-19.3 12.7,-19.3 C 155.1,43.7 150.2,32.1 150.2,20.3 130.4,17.2 122.5,6.3 109.7,6.3 102.5,6.3 100,10 100,10 c 0,0 -2.5,-3.7 -9.7,-3.7 z" fill="url(#backlight_burgCOA411)" stroke="#333"></path></svg>