<svg xmlns="http://www.w3.org/2000/svg" id="burgCOA125" width="200" height="200" viewBox="0 0 200 200">
        <defs><clipPath id="boeotian_burgCOA125"><path d="M150 115c-5 0-10-5-10-15s5-15 10-15c10 0 7 10 15 10 10 0 0-30 0-30-10-25-30-55-65-55S45 40 35 65c0 0-10 30 0 30 8 0 5-10 15-10 5 0 10 5 10 15s-5 15-10 15c-10 0-7-10-15-10-10 0 0 30 0 30 10 25 30 55 65 55s55-30 65-55c0 0 10-30 0-30-8 0-5 10-15 10z"></path></clipPath><g id="compassRose_burgCOA125" stroke-width=".5"><path d="M100 60l6 28 14-8-8 15 28 5-28 6 8 14-14-8-6 28-6-28-14 8 8-14-28-6 28-6-8-14 14 8z"></path><path fill="#000" fill-opacity=".5" stroke="#000" stroke-opacity=".2" d="M100 61v39l7-6 5 1c2.7-5 5.3-10 8-15-4.3 4.3-8.7 9.7-13 14-2.3-10.7-4.7-22.3-7-33zm0 39l7 7c10.7-2.3 21.3-4.7 32-7zm0 0l-7 7c2.3 10.7 4.7 21.3 7 32zm0 0l-7-7-32 7zm-7-7l1-5-14-8zm0 14c-1.7-.3-3.3-.7-5-1-2.7 4.7-5.3 9.3-8 14l13-13zm14 0c-.3 1.7-.7 3.3-1 5 4.7 2.7 9.3 5.3 14 8z"></path></g><radialGradient id="backlight_burgCOA125" cx="100%" cy="100%" r="150%"><stop stop-color="#fff" stop-opacity=".3" offset="0"></stop><stop stop-color="#fff" stop-opacity=".15" offset=".25"></stop><stop stop-color="#000" stop-opacity="0" offset="1"></stop></radialGradient></defs>
        <g clip-path="url(#boeotian_burgCOA125)"><rect x="0" y="0" width="200" height="200" fill="#d7374a"></rect><g fill="#ffe066" stroke="none"><path d="m 0,92.5 h 110 l -20,15 H 200 V 115 H 0 Z" transform="translate(2 -12) rotate(45 110 100) scale(1.1 1)"></path><path d="m 0,92.5 h 110 l -20,15 H 200 V 115 H 0 Z" transform="translate(-22 12) rotate(225 110 100) scale(1.1 1)"></path><rect x="0" y="94" width="200" height="12" transform="translate(-10 0) rotate(45 110 100) scale(1.1 1)" stroke="none"></rect></g><g fill="#fafafa" stroke="#000"><use href="#compassRose_burgCOA125" transform="translate(25 15) scale(0.375)"></use><use href="#compassRose_burgCOA125" transform="translate(62.5 15) scale(0.375)"></use><use href="#compassRose_burgCOA125" transform="translate(100 15) scale(0.375)"></use></g></g>
        <path d="M150 115c-5 0-10-5-10-15s5-15 10-15c10 0 7 10 15 10 10 0 0-30 0-30-10-25-30-55-65-55S45 40 35 65c0 0-10 30 0 30 8 0 5-10 15-10 5 0 10 5 10 15s-5 15-10 15c-10 0-7-10-15-10-10 0 0 30 0 30 10 25 30 55 65 55s55-30 65-55c0 0 10-30 0-30-8 0-5 10-15 10z" fill="url(#backlight_burgCOA125)" stroke="#333"></path></svg>