<svg xmlns="http://www.w3.org/2000/svg" id="burgCOA146" width="200" height="200" viewBox="0 10 200 200">
        <defs><clipPath id="french_burgCOA146"><path d="m 25,25 h 150 v 139.15 c 0,41.745 -66,18.15 -75,36.3 -9,-18.15 -75,5.445 -75,-36.3 v 0 z"></path></clipPath><g id="mullet_burgCOA146"><polygon points="100 60 108.98 87.64 138.04 87.64 114.53 104.72 123.51 132.36 100 115.28 76.49 132.36 85.47 104.72 61.96 87.64 91.02 87.64"></polygon></g><radialGradient id="backlight_burgCOA146" cx="100%" cy="100%" r="150%"><stop stop-color="#fff" stop-opacity=".3" offset="0"></stop><stop stop-color="#fff" stop-opacity=".15" offset=".25"></stop><stop stop-color="#000" stop-opacity="0" offset="1"></stop></radialGradient></defs>
        <g clip-path="url(#french_burgCOA146)"><rect x="0" y="0" width="200" height="200" fill="#ffe066"></rect><g fill="#d7374a" stroke="none"><polygon points="0,125 100,60 200,125 200,165 100,100 0,165"></polygon></g><g fill="#377cd7" stroke="#000"><use href="#mullet_burgCOA146" transform="translate(6.25 0) scale(0.5)"></use><use href="#mullet_burgCOA146" transform="translate(93.75 0) scale(0.5)"></use><use href="#mullet_burgCOA146" transform="translate(50 100) scale(0.5)"></use></g></g>
        <path d="m 25,25 h 150 v 139.15 c 0,41.745 -66,18.15 -75,36.3 -9,-18.15 -75,5.445 -75,-36.3 v 0 z" fill="url(#backlight_burgCOA146)" stroke="#333"></path></svg>