<svg xmlns="http://www.w3.org/2000/svg" id="burgCOA124" width="200" height="200" viewBox="0 10 200 200">
        <defs><clipPath id="spanish_burgCOA124"><path d="m25,25 h150 v100 a75,75,0,0,1,-150,0 z"></path></clipPath><g id="crossHummetty_burgCOA124" stroke-width=".5"><path d="M90 60h20v30h30v20h-30v30H90v-30H60V90h30z"></path></g><radialGradient id="backlight_burgCOA124" cx="100%" cy="100%" r="150%"><stop stop-color="#fff" stop-opacity=".3" offset="0"></stop><stop stop-color="#fff" stop-opacity=".15" offset=".25"></stop><stop stop-color="#000" stop-opacity="0" offset="1"></stop></radialGradient></defs>
        <g clip-path="url(#spanish_burgCOA124)"><rect x="0" y="0" width="200" height="200" fill="#ffe066"></rect><g fill="#d7374a" stroke="none"><path d="m25,25 h150 v100 a75,75,0,0,1,-150,0 z" fill="none" stroke="#d7374a" stroke-width="16.7%"></path></g><g fill="#ffe066" stroke="#000"><use href="#crossHummetty_burgCOA124" transform="translate(15.799999999999997 15.400000000000006) scale(0.18)"></use><use href="#crossHummetty_burgCOA124" transform="translate(60 15.400000000000006) scale(0.18)"></use><use href="#crossHummetty_burgCOA124" transform="translate(104 15.400000000000006) scale(0.18)"></use><use href="#crossHummetty_burgCOA124" transform="translate(148.2 15.400000000000006) scale(0.18)"></use><use href="#crossHummetty_burgCOA124" transform="translate(148.4 62) scale(0.18)"></use><use href="#crossHummetty_burgCOA124" transform="translate(148.4 108) scale(0.18)"></use><use href="#crossHummetty_burgCOA124" transform="translate(131 152) scale(0.18)"></use><use href="#crossHummetty_burgCOA124" transform="translate(82 174) scale(0.18)"></use><use href="#crossHummetty_burgCOA124" transform="translate(33 152) scale(0.18)"></use><use href="#crossHummetty_burgCOA124" transform="translate(15.599999999999994 108) scale(0.18)"></use><use href="#crossHummetty_burgCOA124" transform="translate(15.599999999999994 62) scale(0.18)"></use></g></g>
        <path d="m25,25 h150 v100 a75,75,0,0,1,-150,0 z" fill="url(#backlight_burgCOA124)" stroke="#333"></path></svg>