<svg xmlns="http://www.w3.org/2000/svg" id="burgCOA228" width="200" height="200" viewBox="0 0 200 200">
        <defs><clipPath id="pavise_burgCOA228"><path d="M95 7L39.9 37.3a10 10 0 00-5.1 9.5L46 180c.4 5.2 3.7 10 9 10h90c5.3 0 9.6-4.8 10-10l10.6-133.2a10 10 0 00-5-9.5L105 7c-4.2-2.3-6.2-2.3-10 0z"></path></clipPath><clipPath id="divisionClip_burgCOA228"><polygon points="0,0 0,200 200,0 200,200"></polygon></clipPath><g id="crossJerusalem_burgCOA228" stroke-width=".5"><path d="m 118,72 v 5 h -5 v 5 h 5 v 5 h 5 v -5 h 5 v -5 h -5 v -5 z m 0,41 v 5 h -5 v 5 h 5 v 5 h 5 v -5 h 5 v -5 h -5 v -5 z m -41,0 v 5 h -5 v 5 h 5 v 5 h 5 v -5 h 5 v -5 h -5 v -5 z m 0,-41 v 5 h -5 v 5 h 5 v 5 h 5 v -5 h 5 V 77 H 82 V 72 Z M 89,60 h 22 v 8 h -6 v 27 h 28 v -6 h 7 v 22 h -7 v -6 h -28 v 28 h 6 v 7 H 89 v -7 h 6 V 105 H 67 v 6 H 60 V 89 h 7 v 6 H 95 V 68 h -6 z"></path></g><g id="bowWithArrow_burgCOA228" stroke-width=".33"><path d="M97.2 96.6s-2.9-2-6.1-2c-6.1 0-10.3 3.9-14.7 6a21.4 21.4 0 01-8.7 2.6c-3.4 0-6-1.3-6-4.4 0-1.2.7-2.1 1.7-2.1s1.8 1 1.8 2.1c0 .5-.1 1-.4 1.4.5.3 1.4.8 2.9.8 2.5 0 6.7-2.9 9.9-4.9 5.6-3.4 8.1-5.9 13.1-5.9a12 12 0 016.5 2.2h5.6s3-2.2 6.5-2.2c5 0 7.5 2.5 13.1 6 3.2 1.9 7.4 4.8 10 4.8 1.4 0 2.3-.5 2.8-.8-.3-.4-.4-.9-.4-1.4 0-1.2.8-2.1 1.8-2.1s1.8 1 1.8 2.1c0 3.1-2.7 4.4-6 4.4-3 0-6-1.3-8.8-2.6-4.4-2.1-8.6-6-14.7-6a12 12 0 00-6 2h-5.7z"></path><path d="M100.4 139.7l30.5-36c1.2-.8 2-1.7 2.5-2.6v-.4c0-.2 0-.5-.2-.6-.4-.2-.7 0-.9.3-.4.9-1 1.4-1.8 2-1.2.9-30.2 36-30.2 36"></path><path fill="none" d="M102.8 92.4s.4 0 .4 2.1-.4 2.1-.4 2.1m-5.6 0s-.4.1-.4-2 .4-2.1.4-2.1"></path><path d="M99.6 139.7l-30.5-36c-1.2-.8-2-1.7-2.5-2.6v-.4c0-.2 0-.5.2-.6.3-.2.7 0 .9.3.4.9 1 1.4 1.8 2 1.2.9 30.2 36 30.2 36"></path><g stroke-width="3" transform="matrix(.11 0 0 .11 10.9 102)"><path d="M817.4 323a60 60 0 0022.3 6.1c9.6 0 20.2-9.6 20.2-20.8 0-30.9-42.5-111.4-42.5-111.4zm-15 0s-12.1 6.1-22.3 6.1c-9.6 0-20.2-9.6-20.2-20.8 0-30.9 42.5-111.4 42.5-111.4zm0-620.4v643.5s3.3 1.2 7.5 1.2 7.5-1.9 7.5-1.9v-643.5z"></path><ellipse cx="809.9" cy="-300.7" rx="15" ry="8.3"></ellipse><path d="M819.3-301l-3.5-52.9 21.8 44.5H870l-60-71.9-60 71.9h32.4l21.8-44.5-3.5 52.9s2.8 2.6 9.4 2.6c6.4 0 9.2-2.6 9.2-2.6z"></path></g></g><g id="inescutcheon_burgCOA228"><path transform="translate(66 66) scale(.34)" d="M95 7L39.9 37.3a10 10 0 00-5.1 9.5L46 180c.4 5.2 3.7 10 9 10h90c5.3 0 9.6-4.8 10-10l10.6-133.2a10 10 0 00-5-9.5L105 7c-4.2-2.3-6.2-2.3-10 0z"></path></g><g id="roundel2_burgCOA228"><circle cx="100" cy="100" r="30"></circle><path fill="none" stroke-width=".5" d="M124 95a23 23 0 01-25 30"></path></g><pattern id="barry-argent-purpure" width="0.125" height="0.5" viewBox="0 0 25 100"><rect width="25" height="100" fill="#522d5b"></rect><rect x="0" y="25" width="25" height="25" fill="#fafafa"></rect><rect x="0" y="75" width="25" height="25" fill="#fafafa"></rect></pattern><pattern id="potentInPale-or-vert" width="0.125" height="0.0625" viewBox="0 0 200 100" stroke-width="1"><rect width="200" height="100" fill="#ffe066" stroke="none"></rect><path d="m25 50h50v-50h50v50h50v50h-150z" fill="#26c061" stroke="#000"></path><path d="m0 0h200 M0 100h200" fill="none" stroke="#000"></path></pattern><radialGradient id="backlight_burgCOA228" cx="100%" cy="100%" r="150%"><stop stop-color="#fff" stop-opacity=".3" offset="0"></stop><stop stop-color="#fff" stop-opacity=".15" offset=".25"></stop><stop stop-color="#000" stop-opacity="0" offset="1"></stop></radialGradient></defs>
        <g clip-path="url(#pavise_burgCOA228)"><rect x="0" y="0" width="200" height="200" fill="url(#barry-argent-purpure)"></rect><g clip-path="url(#divisionClip_burgCOA228)"><rect x="0" y="0" width="200" height="200" fill="url(#potentInPale-or-vert)"></rect></g><g fill="#d7374a" stroke="#000"><use href="#crossJerusalem_burgCOA228" transform="translate(55.00000000000001 2.500000000000007) scale(0.45)"></use></g><g fill="#d7374a" stroke="#000"><use href="#bowWithArrow_burgCOA228" transform="translate(15.000000000000007 55.00000000000001) scale(0.45)"></use></g><g fill="#522d5b" stroke="#000"><use href="#inescutcheon_burgCOA228" transform="translate(95 55.00000000000001) scale(0.45)"></use></g><g fill="#522d5b" stroke="#000"><use href="#roundel2_burgCOA228" transform="translate(55.00000000000001 107.5) scale(0.45)"></use></g></g>
        <path d="M95 7L39.9 37.3a10 10 0 00-5.1 9.5L46 180c.4 5.2 3.7 10 9 10h90c5.3 0 9.6-4.8 10-10l10.6-133.2a10 10 0 00-5-9.5L105 7c-4.2-2.3-6.2-2.3-10 0z" fill="url(#backlight_burgCOA228)" stroke="#333"></path></svg>