<svg xmlns="http://www.w3.org/2000/svg" id="burgCOA525" width="200" height="200" viewBox="0 0 200 200">
        <defs><clipPath id="pavise_burgCOA525"><path d="M95 7L39.9 37.3a10 10 0 00-5.1 9.5L46 180c.4 5.2 3.7 10 9 10h90c5.3 0 9.6-4.8 10-10l10.6-133.2a10 10 0 00-5-9.5L105 7c-4.2-2.3-6.2-2.3-10 0z"></path></clipPath><clipPath id="divisionClip_burgCOA525"><polygon points="0,0 15,0 100,200 185,0 200,0 200,200 0,200"></polygon></clipPath><radialGradient id="backlight_burgCOA525" cx="100%" cy="100%" r="150%"><stop stop-color="#fff" stop-opacity=".3" offset="0"></stop><stop stop-color="#fff" stop-opacity=".15" offset=".25"></stop><stop stop-color="#000" stop-opacity="0" offset="1"></stop></radialGradient></defs>
        <g clip-path="url(#pavise_burgCOA525)"><rect x="0" y="0" width="200" height="200" fill="#fafafa"></rect><g clip-path="url(#divisionClip_burgCOA525)"><rect x="0" y="0" width="200" height="200" fill="#522d5b"></rect></g><g fill="#333333" stroke="none"><path d="M95 7L39.9 37.3a10 10 0 00-5.1 9.5L46 180c.4 5.2 3.7 10 9 10h90c5.3 0 9.6-4.8 10-10l10.6-133.2a10 10 0 00-5-9.5L105 7c-4.2-2.3-6.2-2.3-10 0z" fill="none" stroke="#333333" stroke-width="16.7%"></path></g></g>
        <path d="M95 7L39.9 37.3a10 10 0 00-5.1 9.5L46 180c.4 5.2 3.7 10 9 10h90c5.3 0 9.6-4.8 10-10l10.6-133.2a10 10 0 00-5-9.5L105 7c-4.2-2.3-6.2-2.3-10 0z" fill="url(#backlight_burgCOA525)" stroke="#333"></path></svg>