<svg xmlns="http://www.w3.org/2000/svg" id="burgCOA19" width="200" height="200" viewBox="0 0 200 200">
        <defs><clipPath id="pavise_burgCOA19"><path d="M95 7L39.9 37.3a10 10 0 00-5.1 9.5L46 180c.4 5.2 3.7 10 9 10h90c5.3 0 9.6-4.8 10-10l10.6-133.2a10 10 0 00-5-9.5L105 7c-4.2-2.3-6.2-2.3-10 0z"></path></clipPath><g id="inescutcheon_burgCOA19"><path transform="translate(66 66) scale(.34)" d="M95 7L39.9 37.3a10 10 0 00-5.1 9.5L46 180c.4 5.2 3.7 10 9 10h90c5.3 0 9.6-4.8 10-10l10.6-133.2a10 10 0 00-5-9.5L105 7c-4.2-2.3-6.2-2.3-10 0z"></path></g><radialGradient id="backlight_burgCOA19" cx="100%" cy="100%" r="150%"><stop stop-color="#fff" stop-opacity=".3" offset="0"></stop><stop stop-color="#fff" stop-opacity=".15" offset=".25"></stop><stop stop-color="#000" stop-opacity="0" offset="1"></stop></radialGradient></defs>
        <g clip-path="url(#pavise_burgCOA19)"><rect x="0" y="0" width="200" height="200" fill="#d7374a"></rect><g fill="#fafafa" stroke="none"><polygon points="0,0 30,0 100,70 170,0 200,0 200,30 122,109 122,200 78,200 78,109 0,30"></polygon></g><g fill="#522d5b" stroke="#000"><use href="#inescutcheon_burgCOA19" transform="translate(25.000000000000007 20.000000000000007) scale(0.45)"></use><use href="#inescutcheon_burgCOA19" transform="translate(85 20.000000000000007) scale(0.45)"></use><use href="#inescutcheon_burgCOA19" transform="translate(55.00000000000001 55.00000000000001) scale(0.45)"></use><use href="#inescutcheon_burgCOA19" transform="translate(55.00000000000001 107.5) scale(0.45)"></use></g></g>
        <path d="M95 7L39.9 37.3a10 10 0 00-5.1 9.5L46 180c.4 5.2 3.7 10 9 10h90c5.3 0 9.6-4.8 10-10l10.6-133.2a10 10 0 00-5-9.5L105 7c-4.2-2.3-6.2-2.3-10 0z" fill="url(#backlight_burgCOA19)" stroke="#333"></path></svg>