<svg xmlns="http://www.w3.org/2000/svg" id="burgCOA457" width="200" height="200" viewBox="0 10 200 200">
        <defs><clipPath id="spanish_burgCOA457"><path d="m25,25 h150 v100 a75,75,0,0,1,-150,0 z"></path></clipPath><clipPath id="divisionClip_burgCOA457"><rect x="100" y="0" width="100" height="92.5"></rect><rect x="0" y="107.5" width="100" height="92.5"></rect><path d="M 0,105 H 2.5 V 95 h 15 v 10 h 15 V 95 h 15 v 10 h 15 V 95 h 15 v 10 h 15 V 95 h 15 v 10 h 15 V 95 h 15 v 10 h 15 V 95 h 15 v 10 h 15 V 95 h 15 v 10 h 2.5 v 10 H 0 Z" transform="translate(0 50) scale(.5001)"></path><path d="M 0,105 H 2.5 V 95 h 15 v 10 h 15 V 95 h 15 v 10 h 15 V 95 h 15 v 10 h 15 V 95 h 15 v 10 h 15 V 95 h 15 v 10 h 15 V 95 h 15 v 10 h 15 V 95 h 15 v 10 h 2.5 v 10 H 0 Z" transform="translate(200 150) scale(-.5)"></path></clipPath><radialGradient id="backlight_burgCOA457" cx="100%" cy="100%" r="150%"><stop stop-color="#fff" stop-opacity=".3" offset="0"></stop><stop stop-color="#fff" stop-opacity=".15" offset=".25"></stop><stop stop-color="#000" stop-opacity="0" offset="1"></stop></radialGradient></defs>
        <g clip-path="url(#spanish_burgCOA457)"><rect x="0" y="0" width="200" height="200" fill="#ffe066"></rect><g clip-path="url(#divisionClip_burgCOA457)"><rect x="0" y="0" width="200" height="200" fill="#26c061"></rect></g></g>
        <path d="m25,25 h150 v100 a75,75,0,0,1,-150,0 z" fill="url(#backlight_burgCOA457)" stroke="#333"></path></svg>