<svg xmlns="http://www.w3.org/2000/svg" id="burgCOA697" width="200" height="200" viewBox="0 5 200 200">
        <defs><clipPath id="renaissance_burgCOA697"><path d="M 25,33.9 C 33.4,50.3 36.2,72.9 36.2,81.7 36.2,109.9 25,122.6 25,141 c 0,29.4 24.9,44.1 40.2,47.7 15.3,3.7 29.3,0 34.8,11.3 5.5,-11.3 19.6,-7.6 34.8,-11.3 C 150.1,185 175,170.3 175,141 c 0,-18.4 -11.2,-31.1 -11.2,-59.3 0,-8.8 2.8,-31.3 11.2,-47.7 L 155.7,14.4 C 138.2,21.8 119.3,25.7 100,25.7 c -19.3,0 -38.2,-3.9 -55.7,-11.3 z"></path></clipPath><g id="crossMaltese_burgCOA697" stroke-width=".5"><path d="M98 98L83 60l17 11 17-11-15 38 38-15-11 17 11 17-38-15 15 38-17-11-17 11 15-38-38 15 11-17-11-17z"></path></g><radialGradient id="backlight_burgCOA697" cx="100%" cy="100%" r="150%"><stop stop-color="#fff" stop-opacity=".3" offset="0"></stop><stop stop-color="#fff" stop-opacity=".15" offset=".25"></stop><stop stop-color="#000" stop-opacity="0" offset="1"></stop></radialGradient></defs>
        <g clip-path="url(#renaissance_burgCOA697)"><rect x="0" y="0" width="200" height="200" fill="#d7374a"></rect><g fill="#fafafa" stroke="#000"><use href="#crossMaltese_burgCOA697" transform="translate(-7.4999999999999964 -7.4999999999999964) scale(0.7)"></use><use href="#crossMaltese_burgCOA697" transform="translate(67.5 -7.4999999999999964) scale(0.7)"></use><use href="#crossMaltese_burgCOA697" transform="translate(30.000000000000004 80) scale(0.7)"></use></g></g>
        <path d="M 25,33.9 C 33.4,50.3 36.2,72.9 36.2,81.7 36.2,109.9 25,122.6 25,141 c 0,29.4 24.9,44.1 40.2,47.7 15.3,3.7 29.3,0 34.8,11.3 5.5,-11.3 19.6,-7.6 34.8,-11.3 C 150.1,185 175,170.3 175,141 c 0,-18.4 -11.2,-31.1 -11.2,-59.3 0,-8.8 2.8,-31.3 11.2,-47.7 L 155.7,14.4 C 138.2,21.8 119.3,25.7 100,25.7 c -19.3,0 -38.2,-3.9 -55.7,-11.3 z" fill="url(#backlight_burgCOA697)" stroke="#333"></path></svg>