<svg xmlns="http://www.w3.org/2000/svg" id="burgCOA701" width="200" height="200" viewBox="0 0 200 200">
        <defs><clipPath id="polish_burgCOA701"><path d="m 90.3,6.3 c -12.7,0 -20.7,10.9 -40.5,14 0,11.8 -4.9,23.5 -11.4,31.1 0,0 12.7,6 12.7,19.3 C 51.1,90.8 30,90.8 30,90.8 c 0,0 -3.6,7.4 -3.6,22.4 0,34.3 23.1,60.2 40.7,68.2 17.6,8 27.7,11.4 32.9,18.6 5.2,-7.3 15.3,-10.7 32.8,-18.6 17.6,-8 40.7,-33.9 40.7,-68.2 0,-15 -3.6,-22.4 -3.6,-22.4 0,0 -21.1,0 -21.1,-20.1 0,-13.3 12.7,-19.3 12.7,-19.3 C 155.1,43.7 150.2,32.1 150.2,20.3 130.4,17.2 122.5,6.3 109.7,6.3 102.5,6.3 100,10 100,10 c 0,0 -2.5,-3.7 -9.7,-3.7 z"></path></clipPath><g id="lozengeFaceted_burgCOA701"><polygon points="100 55 130 100 100 145 70 100"></polygon><g fill="#000" stroke="none"><polygon points="100 100 130 100 100 55" opacity=".2"></polygon><polygon points="100 100 70 100 100 145" opacity=".2"></polygon><polygon points="100 100 130 100 100 145" opacity=".3"></polygon></g></g><radialGradient id="backlight_burgCOA701" cx="100%" cy="100%" r="150%"><stop stop-color="#fff" stop-opacity=".3" offset="0"></stop><stop stop-color="#fff" stop-opacity=".15" offset=".25"></stop><stop stop-color="#000" stop-opacity="0" offset="1"></stop></radialGradient></defs>
        <g clip-path="url(#polish_burgCOA701)"><rect x="0" y="0" width="200" height="200" fill="#d7374a"></rect><g fill="#fafafa" stroke="none"><path d="m 100,95 c 40,-0.2 100,20 100,20 H 0 c 0,0 60,-19.8 100,-20 z" transform="translate(-28 -18) rotate(-45 110 100) scale(1.1 1)"></path><path d="m 100,95 c 40,-0.2 100,20 100,20 H 0 c 0,0 60,-19.8 100,-20 z" transform="translate(8 18) rotate(-225 110 100) scale(1.1 1)"></path><rect x="0" y="88" width="200" height="24" transform="translate(-10 0) rotate(-45 110 100) scale(1.1 1)" stroke="none"></rect></g><g fill="#377cd7" stroke="#000"><use href="#lozengeFaceted_burgCOA701" transform="translate(85 29.999999999999993) scale(0.425)"></use><use href="#lozengeFaceted_burgCOA701" transform="translate(57.49999999999999 57.49999999999999) scale(0.425)"></use><use href="#lozengeFaceted_burgCOA701" transform="translate(29.999999999999993 85) scale(0.425)"></use></g></g>
        <path d="m 90.3,6.3 c -12.7,0 -20.7,10.9 -40.5,14 0,11.8 -4.9,23.5 -11.4,31.1 0,0 12.7,6 12.7,19.3 C 51.1,90.8 30,90.8 30,90.8 c 0,0 -3.6,7.4 -3.6,22.4 0,34.3 23.1,60.2 40.7,68.2 17.6,8 27.7,11.4 32.9,18.6 5.2,-7.3 15.3,-10.7 32.8,-18.6 17.6,-8 40.7,-33.9 40.7,-68.2 0,-15 -3.6,-22.4 -3.6,-22.4 0,0 -21.1,0 -21.1,-20.1 0,-13.3 12.7,-19.3 12.7,-19.3 C 155.1,43.7 150.2,32.1 150.2,20.3 130.4,17.2 122.5,6.3 109.7,6.3 102.5,6.3 100,10 100,10 c 0,0 -2.5,-3.7 -9.7,-3.7 z" fill="url(#backlight_burgCOA701)" stroke="#333"></path></svg>