<svg xmlns="http://www.w3.org/2000/svg" id="burgCOA487" width="200" height="200" viewBox="0 0 200 200">
        <defs><clipPath id="boeotian_burgCOA487"><path d="M150 115c-5 0-10-5-10-15s5-15 10-15c10 0 7 10 15 10 10 0 0-30 0-30-10-25-30-55-65-55S45 40 35 65c0 0-10 30 0 30 8 0 5-10 15-10 5 0 10 5 10 15s-5 15-10 15c-10 0-7-10-15-10-10 0 0 30 0 30 10 25 30 55 65 55s55-30 65-55c0 0 10-30 0-30-8 0-5 10-15 10z"></path></clipPath><pattern id="lozengy-argent-purpure" width="0.125" height="0.125" viewBox="0 0 50 50"><rect width="50" height="50" fill="#fafafa"></rect><polygon points="25,0 50,25 25,50 0,25" fill="#522d5b"></polygon></pattern><radialGradient id="backlight_burgCOA487" cx="100%" cy="100%" r="150%"><stop stop-color="#fff" stop-opacity=".3" offset="0"></stop><stop stop-color="#fff" stop-opacity=".15" offset=".25"></stop><stop stop-color="#000" stop-opacity="0" offset="1"></stop></radialGradient></defs>
        <g clip-path="url(#boeotian_burgCOA487)"><rect x="0" y="0" width="200" height="200" fill="url(#lozengy-argent-purpure)"></rect><g fill="#d7374a" stroke="none"><rect width="50%" height="50%"></rect></g></g>
        <path d="M150 115c-5 0-10-5-10-15s5-15 10-15c10 0 7 10 15 10 10 0 0-30 0-30-10-25-30-55-65-55S45 40 35 65c0 0-10 30 0 30 8 0 5-10 15-10 5 0 10 5 10 15s-5 15-10 15c-10 0-7-10-15-10-10 0 0 30 0 30 10 25 30 55 65 55s55-30 65-55c0 0 10-30 0-30-8 0-5 10-15 10z" fill="url(#backlight_burgCOA487)" stroke="#333"></path></svg>