<svg xmlns="http://www.w3.org/2000/svg" id="burgCOA207" width="200" height="200" viewBox="0 10 200 200">
        <defs><clipPath id="french_burgCOA207"><path d="m 25,25 h 150 v 139.15 c 0,41.745 -66,18.15 -75,36.3 -9,-18.15 -75,5.445 -75,-36.3 v 0 z"></path></clipPath><clipPath id="divisionClip_burgCOA207"><polygon points="0,0 200,200 0,200"></polygon></clipPath><radialGradient id="backlight_burgCOA207" cx="100%" cy="100%" r="150%"><stop stop-color="#fff" stop-opacity=".3" offset="0"></stop><stop stop-color="#fff" stop-opacity=".15" offset=".25"></stop><stop stop-color="#000" stop-opacity="0" offset="1"></stop></radialGradient></defs>
        <g clip-path="url(#french_burgCOA207)"><rect x="0" y="0" width="200" height="200" fill="#ffe066"></rect><g fill="#26c061" stroke="none"><path d="m0,250 a100,100,0,0,1,200,0"></path></g><g clip-path="url(#divisionClip_burgCOA207)"><rect x="0" y="0" width="200" height="200" fill="#26c061"></rect><g fill="#ffe066" stroke="none"><path d="m0,250 a100,100,0,0,1,200,0"></path></g></g></g>
        <path d="m 25,25 h 150 v 139.15 c 0,41.745 -66,18.15 -75,36.3 -9,-18.15 -75,5.445 -75,-36.3 v 0 z" fill="url(#backlight_burgCOA207)" stroke="#333"></path></svg>