<svg xmlns="http://www.w3.org/2000/svg" id="burgCOA587" width="200" height="200" viewBox="0 0 200 200">
        <defs><clipPath id="pavise_burgCOA587"><path d="M95 7L39.9 37.3a10 10 0 00-5.1 9.5L46 180c.4 5.2 3.7 10 9 10h90c5.3 0 9.6-4.8 10-10l10.6-133.2a10 10 0 00-5-9.5L105 7c-4.2-2.3-6.2-2.3-10 0z"></path></clipPath><clipPath id="divisionClip_burgCOA587"><rect x="0" y="100" width="200" height="100"></rect></clipPath><pattern id="chainy-or-azure" width="0.167" height="0.167" viewBox="0 0 200 200" stroke="#000" stroke-width="2"><rect x="-6.691e-6" width="200" height="200" fill="#ffe066" stroke="none"></rect><path d="m155-5-20-20-160 160 20 20z" fill="#377cd7"></path><path d="m45 205 160-160 20 20-160 160z" fill="#377cd7"></path><path d="m45-5 20-20 160 160-20 20-160-160" fill="#377cd7"></path><path d="m-5 45-20 20 160 160 20-20-160-160" fill="#377cd7"></path></pattern><radialGradient id="backlight_burgCOA587" cx="100%" cy="100%" r="150%"><stop stop-color="#fff" stop-opacity=".3" offset="0"></stop><stop stop-color="#fff" stop-opacity=".15" offset=".25"></stop><stop stop-color="#000" stop-opacity="0" offset="1"></stop></radialGradient></defs>
        <g clip-path="url(#pavise_burgCOA587)"><rect x="0" y="0" width="200" height="200" fill="url(#chainy-or-azure)"></rect><g clip-path="url(#divisionClip_burgCOA587)"><rect x="0" y="0" width="200" height="200" fill="#26c061"></rect></g></g>
        <path d="M95 7L39.9 37.3a10 10 0 00-5.1 9.5L46 180c.4 5.2 3.7 10 9 10h90c5.3 0 9.6-4.8 10-10l10.6-133.2a10 10 0 00-5-9.5L105 7c-4.2-2.3-6.2-2.3-10 0z" fill="url(#backlight_burgCOA587)" stroke="#333"></path></svg>