<svg xmlns="http://www.w3.org/2000/svg" id="burgCOA627" width="200" height="200" viewBox="0 0 200 200">
        <defs><clipPath id="boeotian_burgCOA627"><path d="M150 115c-5 0-10-5-10-15s5-15 10-15c10 0 7 10 15 10 10 0 0-30 0-30-10-25-30-55-65-55S45 40 35 65c0 0-10 30 0 30 8 0 5-10 15-10 5 0 10 5 10 15s-5 15-10 15c-10 0-7-10-15-10-10 0 0 30 0 30 10 25 30 55 65 55s55-30 65-55c0 0 10-30 0-30-8 0-5 10-15 10z"></path></clipPath><g id="buckle_burgCOA627" stroke-width=".7"><path d="M117.2 134.72V65.9c0-1.92-1.53-2.96-3.44-2.96-1.92 0-3.46 1.04-3.46 2.96v68.82c0 1.92 1.54 2.96 3.46 2.96 1.91 0 3.45-1.04 3.45-2.96z"></path><path d="M100.98 134.74c20.01 0 36.24-15.42 36.24-34.44S121 65.85 100.98 65.85c-20.02 0-36.25 15.43-36.25 34.45s16.23 34.44 36.25 34.44zm28.44-34.44c0 14.15-12.26 26.12-28.51 26.12S72.4 114.47 72.4 100.3s12.26-26.12 28.5-26.12 28.52 11.97 28.52 26.12z"></path><path d="M110.75 105.86c-1.66-.4-2.2-1.42-2.25-2.56l-45.02 1.28-4.75-3.67a.76.76 0 010-1.18l4.75-3.67 45.02 1.28c.03-1.16.57-2.2 2.25-2.6l5.9-.76c.6-.07 1.22.24 1.5.78l2.04 3.88a3.8 3.8 0 010 3.29l-2.03 3.88c-.29.54-.9.88-1.52.78l-5.89-.73z"></path></g><radialGradient id="backlight_burgCOA627" cx="100%" cy="100%" r="150%"><stop stop-color="#fff" stop-opacity=".3" offset="0"></stop><stop stop-color="#fff" stop-opacity=".15" offset=".25"></stop><stop stop-color="#000" stop-opacity="0" offset="1"></stop></radialGradient></defs>
        <g clip-path="url(#boeotian_burgCOA627)"><rect x="0" y="0" width="200" height="200" fill="#d7374a"></rect><g fill="#ffe066" stroke="#000"><use href="#buckle_burgCOA627" transform="translate(-12.5 -12.5) scale(1.125)"></use></g></g>
        <path d="M150 115c-5 0-10-5-10-15s5-15 10-15c10 0 7 10 15 10 10 0 0-30 0-30-10-25-30-55-65-55S45 40 35 65c0 0-10 30 0 30 8 0 5-10 15-10 5 0 10 5 10 15s-5 15-10 15c-10 0-7-10-15-10-10 0 0 30 0 30 10 25 30 55 65 55s55-30 65-55c0 0 10-30 0-30-8 0-5 10-15 10z" fill="url(#backlight_burgCOA627)" stroke="#333"></path></svg>