<svg xmlns="http://www.w3.org/2000/svg" id="burgCOA521" width="200" height="200" viewBox="0 0 200 200">
        <defs><clipPath id="oval_burgCOA521"><path d="m 32.3,99.5 a 67.7,93.7 0 1 1 0,1.3 z"></path></clipPath><g id="arrow_burgCOA521" stroke-width="3" transform="matrix(.11 0 0 .11 10.9 102)"><path d="M817.4 323a60 60 0 0022.3 6.1c9.6 0 20.2-9.6 20.2-20.8 0-30.9-42.5-111.4-42.5-111.4zm-15 0s-12.1 6.1-22.3 6.1c-9.6 0-20.2-9.6-20.2-20.8 0-30.9 42.5-111.4 42.5-111.4zm0-620.4v643.5s3.3 1.2 7.5 1.2 7.5-1.9 7.5-1.9v-643.5z"></path><ellipse cx="809.9" cy="-300.7" rx="15" ry="8.3"></ellipse><path d="M819.3-301l-3.5-52.9 21.8 44.5H870l-60-71.9-60 71.9h32.4l21.8-44.5-3.5 52.9s2.8 2.6 9.4 2.6c6.4 0 9.2-2.6 9.2-2.6z"></path><path fill="#000" stroke="none" d="M818.8 226.4l18.5 40.4-21.2-39.1zm-.1 33.2l18.4 30.2-20.9-28.5zm-.1 28.7l19.2 29.2-21.6-27.4zm-14.8-60.6l-21.3 39.1 18.6-40.4zm-.1 33.6l-20.9 28.5 18.4-30.2zm0 28.8l-21.6 27.4 19.1-29.2z"></path></g><radialGradient id="backlight_burgCOA521" cx="100%" cy="100%" r="150%"><stop stop-color="#fff" stop-opacity=".3" offset="0"></stop><stop stop-color="#fff" stop-opacity=".15" offset=".25"></stop><stop stop-color="#000" stop-opacity="0" offset="1"></stop></radialGradient></defs>
        <g clip-path="url(#oval_burgCOA521)"><rect x="0" y="0" width="200" height="200" fill="#fafafa"></rect><g fill="#d7374a" stroke="#000"><use href="#arrow_burgCOA521" transform="translate(-42.499999999999986 -42.499999999999986) scale(1.4249999999999998)"></use></g></g>
        <path d="m 32.3,99.5 a 67.7,93.7 0 1 1 0,1.3 z" fill="url(#backlight_burgCOA521)" stroke="#333"></path></svg>