<svg xmlns="http://www.w3.org/2000/svg" id="burgCOA295" width="200" height="200" viewBox="0 0 200 200">
        <defs><clipPath id="polish_burgCOA295"><path d="m 90.3,6.3 c -12.7,0 -20.7,10.9 -40.5,14 0,11.8 -4.9,23.5 -11.4,31.1 0,0 12.7,6 12.7,19.3 C 51.1,90.8 30,90.8 30,90.8 c 0,0 -3.6,7.4 -3.6,22.4 0,34.3 23.1,60.2 40.7,68.2 17.6,8 27.7,11.4 32.9,18.6 5.2,-7.3 15.3,-10.7 32.8,-18.6 17.6,-8 40.7,-33.9 40.7,-68.2 0,-15 -3.6,-22.4 -3.6,-22.4 0,0 -21.1,0 -21.1,-20.1 0,-13.3 12.7,-19.3 12.7,-19.3 C 155.1,43.7 150.2,32.1 150.2,20.3 130.4,17.2 122.5,6.3 109.7,6.3 102.5,6.3 100,10 100,10 c 0,0 -2.5,-3.7 -9.7,-3.7 z"></path></clipPath><g id="inescutcheon_burgCOA295"><path transform="translate(66 66) scale(.34)" d="m 90.3,6.3 c -12.7,0 -20.7,10.9 -40.5,14 0,11.8 -4.9,23.5 -11.4,31.1 0,0 12.7,6 12.7,19.3 C 51.1,90.8 30,90.8 30,90.8 c 0,0 -3.6,7.4 -3.6,22.4 0,34.3 23.1,60.2 40.7,68.2 17.6,8 27.7,11.4 32.9,18.6 5.2,-7.3 15.3,-10.7 32.8,-18.6 17.6,-8 40.7,-33.9 40.7,-68.2 0,-15 -3.6,-22.4 -3.6,-22.4 0,0 -21.1,0 -21.1,-20.1 0,-13.3 12.7,-19.3 12.7,-19.3 C 155.1,43.7 150.2,32.1 150.2,20.3 130.4,17.2 122.5,6.3 109.7,6.3 102.5,6.3 100,10 100,10 c 0,0 -2.5,-3.7 -9.7,-3.7 z"></path></g><g id="chalice_burgCOA295" stroke-width="3" transform="matrix(.12 0 0 .12 51 47)"><path d="M446 522c-9-32-7-46-7-106h-62c1 59 3 74-6 106-25 48-132 67-132 141 0 79 76 127 169 127s170-48 170-127c0-61-112-92-132-141z"></path><path d="M162 165c16 172 208 173 208 255v38h77v-38c0-82 187-83 208-256z"></path><path d="M669 156c0 19-117 33-259 33s-258-16-258-34c0-4-2-18 7-21 35-13 142-22 254-22 109 0 210 9 248 22 10 3 8 18 8 22zM382 451c0 22-4 35-17 35s-27-12-27-35c0-20 13-35 27-35s17 13 17 35zm54 0c0 22 4 35 18 35s27-12 27-35c0-20-13-35-27-35-13 0-18 13-18 35z"></path><ellipse cx="409" cy="457" rx="27" ry="37"></ellipse><path fill="none" stroke-width="3.5" d="M427 401c11-22 22-43 65-65m-101 65c-11-22-22-43-65-65m194 280c-38-34-70-67-74-97m-152 97c37-24 69-50 78-95M251 670c32 129 280 129 315 1m9-533c-108-11-216-11-323 0m-64 11c140 26 280 26 445-1"></path></g><radialGradient id="backlight_burgCOA295" cx="100%" cy="100%" r="150%"><stop stop-color="#fff" stop-opacity=".3" offset="0"></stop><stop stop-color="#fff" stop-opacity=".15" offset=".25"></stop><stop stop-color="#000" stop-opacity="0" offset="1"></stop></radialGradient></defs>
        <g clip-path="url(#polish_burgCOA295)"><rect x="0" y="0" width="200" height="200" fill="#377cd7"></rect><g fill="#ffe066" stroke="#000"><use href="#inescutcheon_burgCOA295" transform="translate(13 13) scale(0.595)"></use><use href="#inescutcheon_burgCOA295" transform="translate(68 13) scale(0.595)"></use><use href="#inescutcheon_burgCOA295" transform="translate(40.5 85.5) scale(0.595)"></use></g><g fill="#522d5b" stroke="#000"><use href="#chalice_burgCOA295" transform="translate(42.75 42.75) scale(0.2975)"></use><use href="#chalice_burgCOA295" transform="translate(97.75 42.75) scale(0.2975)"></use><use href="#chalice_burgCOA295" transform="translate(70.25 115.25) scale(0.2975)"></use></g></g>
        <path d="m 90.3,6.3 c -12.7,0 -20.7,10.9 -40.5,14 0,11.8 -4.9,23.5 -11.4,31.1 0,0 12.7,6 12.7,19.3 C 51.1,90.8 30,90.8 30,90.8 c 0,0 -3.6,7.4 -3.6,22.4 0,34.3 23.1,60.2 40.7,68.2 17.6,8 27.7,11.4 32.9,18.6 5.2,-7.3 15.3,-10.7 32.8,-18.6 17.6,-8 40.7,-33.9 40.7,-68.2 0,-15 -3.6,-22.4 -3.6,-22.4 0,0 -21.1,0 -21.1,-20.1 0,-13.3 12.7,-19.3 12.7,-19.3 C 155.1,43.7 150.2,32.1 150.2,20.3 130.4,17.2 122.5,6.3 109.7,6.3 102.5,6.3 100,10 100,10 c 0,0 -2.5,-3.7 -9.7,-3.7 z" fill="url(#backlight_burgCOA295)" stroke="#333"></path></svg>