<svg xmlns="http://www.w3.org/2000/svg" id="burgCOA395" width="200" height="200" viewBox="0 0 200 200">
        <defs><clipPath id="boeotian_burgCOA395"><path d="M150 115c-5 0-10-5-10-15s5-15 10-15c10 0 7 10 15 10 10 0 0-30 0-30-10-25-30-55-65-55S45 40 35 65c0 0-10 30 0 30 8 0 5-10 15-10 5 0 10 5 10 15s-5 15-10 15c-10 0-7-10-15-10-10 0 0 30 0 30 10 25 30 55 65 55s55-30 65-55c0 0 10-30 0-30-8 0-5 10-15 10z"></path></clipPath><g id="goutte_burgCOA395"><path d="M100 134c17-1 16-19 10-25-1.9-1.8-4.6-5.3-3.9-8.1C108 94 102 90 102 87c-1-7 3-7 3-13-.1-6.2-3.3-8.7-6-12 1.2 3 2 6 1 9-1.5 5.9-6.2 6.9-8 11-2 5 3 11 3 15-.6 9.1-9 13-9 23 .3 11.3 9 14 14 14z"></path></g><pattern id="chequy-argent-purpure" width="0.25" height="0.25" viewBox="0 0 50 50" fill="#522d5b"><rect width="50" height="50"></rect><rect width="25" height="25" fill="#fafafa"></rect><rect x="25" y="25" width="25" height="25" fill="#fafafa"></rect></pattern><radialGradient id="backlight_burgCOA395" cx="100%" cy="100%" r="150%"><stop stop-color="#fff" stop-opacity=".3" offset="0"></stop><stop stop-color="#fff" stop-opacity=".15" offset=".25"></stop><stop stop-color="#000" stop-opacity="0" offset="1"></stop></radialGradient></defs>
        <g clip-path="url(#boeotian_burgCOA395)"><rect x="0" y="0" width="200" height="200" fill="url(#chequy-argent-purpure)"></rect><g fill="#d7374a" stroke="none"><polygon points="0,165 165,0 200,0 200,35 35,200 0,200"></polygon></g><g fill="#fafafa" stroke="#000"><use href="#goutte_burgCOA395" transform="translate(95 25) scale(0.375)"></use><use href="#goutte_burgCOA395" transform="translate(62.5 62.5) scale(0.375)"></use><use href="#goutte_burgCOA395" transform="translate(30 100) scale(0.375)"></use></g></g>
        <path d="M150 115c-5 0-10-5-10-15s5-15 10-15c10 0 7 10 15 10 10 0 0-30 0-30-10-25-30-55-65-55S45 40 35 65c0 0-10 30 0 30 8 0 5-10 15-10 5 0 10 5 10 15s-5 15-10 15c-10 0-7-10-15-10-10 0 0 30 0 30 10 25 30 55 65 55s55-30 65-55c0 0 10-30 0-30-8 0-5 10-15 10z" fill="url(#backlight_burgCOA395)" stroke="#333"></path></svg>