<svg xmlns="http://www.w3.org/2000/svg" id="burgCOA400" width="200" height="200" viewBox="0 10 200 200">
        <defs><clipPath id="french_burgCOA400"><path d="m 25,25 h 150 v 139.15 c 0,41.745 -66,18.15 -75,36.3 -9,-18.15 -75,5.445 -75,-36.3 v 0 z"></path></clipPath><g id="roundel2_burgCOA400"><circle cx="100" cy="100" r="30"></circle><path fill="none" stroke-width=".5" d="M124 95a23 23 0 01-25 30"></path></g><radialGradient id="backlight_burgCOA400" cx="100%" cy="100%" r="150%"><stop stop-color="#fff" stop-opacity=".3" offset="0"></stop><stop stop-color="#fff" stop-opacity=".15" offset=".25"></stop><stop stop-color="#000" stop-opacity="0" offset="1"></stop></radialGradient></defs>
        <g clip-path="url(#french_burgCOA400)"><rect x="0" y="0" width="200" height="200" fill="#ffe066"></rect><g fill="#26c061" stroke="none"><polygon points="0,165 165,0 200,0 200,35 35,200 0,200"></polygon></g><g fill="#ffe066" stroke="#000"><use href="#roundel2_burgCOA400" transform="translate(87.5 12.5) scale(0.5)"></use><use href="#roundel2_burgCOA400" transform="translate(50 50) scale(0.5)"></use><use href="#roundel2_burgCOA400" transform="translate(12.5 87.5) scale(0.5)"></use></g></g>
        <path d="m 25,25 h 150 v 139.15 c 0,41.745 -66,18.15 -75,36.3 -9,-18.15 -75,5.445 -75,-36.3 v 0 z" fill="url(#backlight_burgCOA400)" stroke="#333"></path></svg>