<svg xmlns="http://www.w3.org/2000/svg" id="burgCOA497" width="200" height="200" viewBox="0 0 200 200">
        <defs><clipPath id="boeotian_burgCOA497"><path d="M150 115c-5 0-10-5-10-15s5-15 10-15c10 0 7 10 15 10 10 0 0-30 0-30-10-25-30-55-65-55S45 40 35 65c0 0-10 30 0 30 8 0 5-10 15-10 5 0 10 5 10 15s-5 15-10 15c-10 0-7-10-15-10-10 0 0 30 0 30 10 25 30 55 65 55s55-30 65-55c0 0 10-30 0-30-8 0-5 10-15 10z"></path></clipPath><g id="helmet_burgCOA497" stroke-width=".37"><path d="M98.06 115.64s13.58-.04 16.74 7.68c0 0 3.02 8.94 10.08 8.94 7.17 0 8.52-5.57 8.52-10.69 0-3.75-5.87-11.58-5.87-11.58s-5.69-4.47-11.36-3.44c-8.1 1.47-18.1 9.1-18.1 9.1z"></path><path d="M108.68 117.74c-3.08 5.2-4.12 11.66-6.39 13.11-3.83 2.9-7.15 1.29-7.15 1.29s-1.95 3.14-5.88 3.14c-4.45 0-5.08-4.37-5.08-4.37s-.1-3.4-.1-7.65 6.73-11.07 6.73-11.07l1.4-9.31s23.03 3.36 28.2 3.36c4.03 0 9.19 4.34 11.34 7.02 1.62 2.01 2.62 4.72 2.62 8.19 0 7.26-4.47 11.86-9.9 11.86-6.1 0-8-6.6-9.65-9.98a10.4 10.4 0 00-6.14-5.58z"></path><path fill="none" d="M108.68 117.74c2.25-3.78 5.6-6.9 11.32-6.9 8.62 0 12.39 4.33 12.39 10.77 0 5-2.9 9.78-7.92 9.78"></path><path d="M88.93 107.92s-5.64 8.23-6.31 14c-.42 3.4.72 6.2 1.35 6.61 0 .52-.15 5.74 3.78 5.74s6.87-4.35 6.87-4.35 3.42 1.14 6.32-.62c3.49-2.44 4.16-20.46 18.98-20.46 8.85 0 11.81 4.4 11.81 4.4s-3.27-3.8-6.56-5.78c-5.8-4.78-34.83-5.94-34.83-5.94z"></path><path d="M87.92 124.6c-1.56-1.44-.94-13.98-6.88-24.2-8.1-13.93-19.45-16.29-19.45-18.2 3.65-.1 14.81-8.3 25.61-7.95l10.07-1.34 11.43-.51.83 33.88s-.58-.29-5.8 3.75c-6.5 5-7.85 14.58-15.81 14.58z"></path><path d="M125.16 107.46s-3.8-6.66-3.8-15.39c-.41-11.2 2.52-18.8 2.52-18.8l-19.42-.67 2.41 35.12s2.25-1.94 10.03-1.94c5.5 0 8.26 1.68 8.26 1.68z"></path><path d="M61.59 82.2s14.18-6.62 19.79-6.62C79.8 77.14 74 79.3 67.77 81.66c7.77 2.59 27.54.63 27.54.63s-.54-5.87.8-8.46c.33-.65 2.26-3.55 2.26-3.55s5.49 2.84 6.15 3.5c-1.14.44-6.73 1.08-6.83 1.5-.94 1.66-.11 7.38 0 9.14-30.84 2.28-36.1-2.21-36.1-2.21z"></path><path d="M95.26 79.32s-19.15 1.7-26.91-.88c.62-.79 15.97-13.71 32.27-13.71 17.09 0 23.25 6.78 23.25 8.55-4.1.24-27.75.35-27.9 1.36-.8 2.02-.72 4.68-.72 4.68z"></path><path fill="#000" stroke="none" d="M124.46 131.59c-3.1-.3-5.02-2.88-6.21-5.47 1.26 2.57 3.24 4.89 6.27 5.1z"></path></g><radialGradient id="backlight_burgCOA497" cx="100%" cy="100%" r="150%"><stop stop-color="#fff" stop-opacity=".3" offset="0"></stop><stop stop-color="#fff" stop-opacity=".15" offset=".25"></stop><stop stop-color="#000" stop-opacity="0" offset="1"></stop></radialGradient></defs>
        <g clip-path="url(#boeotian_burgCOA497)"><rect x="0" y="0" width="200" height="200" fill="#377cd7"></rect><g fill="#fafafa" stroke="none"><polygon points="85,0 85,85 0,85 0,115 85,115 85,200 115,200 115,115 200,115 200,85 115,85 115,0"></polygon></g><g fill="#d7374a" stroke="#000"><use href="#helmet_burgCOA497" transform="translate(77.5 30) scale(0.22499999999999998)"></use><use href="#helmet_burgCOA497" transform="translate(77.5 77.5) scale(0.22499999999999998)"></use><use href="#helmet_burgCOA497" transform="translate(77.5 125) scale(0.22499999999999998)"></use><use href="#helmet_burgCOA497" transform="translate(52.5 77.5) scale(0.22499999999999998)"></use><use href="#helmet_burgCOA497" transform="translate(102.5 77.5) scale(0.22499999999999998)"></use></g></g>
        <path d="M150 115c-5 0-10-5-10-15s5-15 10-15c10 0 7 10 15 10 10 0 0-30 0-30-10-25-30-55-65-55S45 40 35 65c0 0-10 30 0 30 8 0 5-10 15-10 5 0 10 5 10 15s-5 15-10 15c-10 0-7-10-15-10-10 0 0 30 0 30 10 25 30 55 65 55s55-30 65-55c0 0 10-30 0-30-8 0-5 10-15 10z" fill="url(#backlight_burgCOA497)" stroke="#333"></path></svg>