<svg xmlns="http://www.w3.org/2000/svg" id="burgCOA520" width="200" height="200" viewBox="0 0 200 200">
        <defs><clipPath id="polish_burgCOA520"><path d="m 90.3,6.3 c -12.7,0 -20.7,10.9 -40.5,14 0,11.8 -4.9,23.5 -11.4,31.1 0,0 12.7,6 12.7,19.3 C 51.1,90.8 30,90.8 30,90.8 c 0,0 -3.6,7.4 -3.6,22.4 0,34.3 23.1,60.2 40.7,68.2 17.6,8 27.7,11.4 32.9,18.6 5.2,-7.3 15.3,-10.7 32.8,-18.6 17.6,-8 40.7,-33.9 40.7,-68.2 0,-15 -3.6,-22.4 -3.6,-22.4 0,0 -21.1,0 -21.1,-20.1 0,-13.3 12.7,-19.3 12.7,-19.3 C 155.1,43.7 150.2,32.1 150.2,20.3 130.4,17.2 122.5,6.3 109.7,6.3 102.5,6.3 100,10 100,10 c 0,0 -2.5,-3.7 -9.7,-3.7 z"></path></clipPath><g id="inescutcheon_burgCOA520"><path transform="translate(66 66) scale(.34)" d="m 90.3,6.3 c -12.7,0 -20.7,10.9 -40.5,14 0,11.8 -4.9,23.5 -11.4,31.1 0,0 12.7,6 12.7,19.3 C 51.1,90.8 30,90.8 30,90.8 c 0,0 -3.6,7.4 -3.6,22.4 0,34.3 23.1,60.2 40.7,68.2 17.6,8 27.7,11.4 32.9,18.6 5.2,-7.3 15.3,-10.7 32.8,-18.6 17.6,-8 40.7,-33.9 40.7,-68.2 0,-15 -3.6,-22.4 -3.6,-22.4 0,0 -21.1,0 -21.1,-20.1 0,-13.3 12.7,-19.3 12.7,-19.3 C 155.1,43.7 150.2,32.1 150.2,20.3 130.4,17.2 122.5,6.3 109.7,6.3 102.5,6.3 100,10 100,10 c 0,0 -2.5,-3.7 -9.7,-3.7 z"></path></g><g id="mullet7_burgCOA520"><polygon points="100 60 106.63 86.23 131.27 75.06 114.9 96.6 139 108.9 111.95 109.53 117.36 136.04 100 115.28 82.64 136.04 88.05 109.53 61 108.9 85.1 96.6 68.73 75.06 93.37 86.23"></polygon></g><radialGradient id="backlight_burgCOA520" cx="100%" cy="100%" r="150%"><stop stop-color="#fff" stop-opacity=".3" offset="0"></stop><stop stop-color="#fff" stop-opacity=".15" offset=".25"></stop><stop stop-color="#000" stop-opacity="0" offset="1"></stop></radialGradient></defs>
        <g clip-path="url(#polish_burgCOA520)"><rect x="0" y="0" width="200" height="200" fill="#26c061"></rect><g fill="#ffe066" stroke="none"><path d="m 0,95 v 20 H 200 V 95 h -2.5 v 5 h -5 v 5 h -5 v -5 h -5 v -5 h -5 v 5 h -5 v 5 h -5 v -5 h -5 v -5 h -5 v 5 h -5 v 5 h -5 v -5 h -5 v -5 h -5 v 5 h -5 v 5 h -5 v -5 h -5 v -5 h -5 v 5 h -5 v 5 h -5 v -5 h -5 v -5 h -5 v 5 h -5 v 5 h -5 v -5 h -5 v -5 h -5 v 5 h -5 v 5 h -5 v -5 h -5 v -5 h -5 v 5 h -5 v 5 h -5 v -5 h -5 v -5 h -5 v 5 h -5 v 5 h -5 v -5 h -5 v -5 h -5 v 5 h -5 v 5 h -5 v -5 h -5 v -5 z" transform="rotate(-90 100 100) translate(0 -25)"></path><path d="m 0,95 v 20 H 200 V 95 h -2.5 v 5 h -5 v 5 h -5 v -5 h -5 v -5 h -5 v 5 h -5 v 5 h -5 v -5 h -5 v -5 h -5 v 5 h -5 v 5 h -5 v -5 h -5 v -5 h -5 v 5 h -5 v 5 h -5 v -5 h -5 v -5 h -5 v 5 h -5 v 5 h -5 v -5 h -5 v -5 h -5 v 5 h -5 v 5 h -5 v -5 h -5 v -5 h -5 v 5 h -5 v 5 h -5 v -5 h -5 v -5 h -5 v 5 h -5 v 5 h -5 v -5 h -5 v -5 h -5 v 5 h -5 v 5 h -5 v -5 h -5 v -5 h -5 v 5 h -5 v 5 h -5 v -5 h -5 v -5 z" transform="rotate(90 100 100) translate(0 -25)"></path><rect x="88" y="0" width="24" height="200" stroke="none"></rect></g><g fill="#d7374a" stroke="#000"><use href="#inescutcheon_burgCOA520" transform="translate(57.49999999999999 7.499999999999993) scale(0.425)"></use><use href="#inescutcheon_burgCOA520" transform="translate(57.49999999999999 57.49999999999999) scale(0.425)"></use><use href="#inescutcheon_burgCOA520" transform="translate(57.49999999999999 107.5) scale(0.425)"></use></g><g fill="#fafafa" stroke="#000"><use href="#mullet7_burgCOA520" transform="translate(78.75 28.75) scale(0.2125)"></use><use href="#mullet7_burgCOA520" transform="translate(78.75 78.75) scale(0.2125)"></use><use href="#mullet7_burgCOA520" transform="translate(78.75 128.75) scale(0.2125)"></use></g></g>
        <path d="m 90.3,6.3 c -12.7,0 -20.7,10.9 -40.5,14 0,11.8 -4.9,23.5 -11.4,31.1 0,0 12.7,6 12.7,19.3 C 51.1,90.8 30,90.8 30,90.8 c 0,0 -3.6,7.4 -3.6,22.4 0,34.3 23.1,60.2 40.7,68.2 17.6,8 27.7,11.4 32.9,18.6 5.2,-7.3 15.3,-10.7 32.8,-18.6 17.6,-8 40.7,-33.9 40.7,-68.2 0,-15 -3.6,-22.4 -3.6,-22.4 0,0 -21.1,0 -21.1,-20.1 0,-13.3 12.7,-19.3 12.7,-19.3 C 155.1,43.7 150.2,32.1 150.2,20.3 130.4,17.2 122.5,6.3 109.7,6.3 102.5,6.3 100,10 100,10 c 0,0 -2.5,-3.7 -9.7,-3.7 z" fill="url(#backlight_burgCOA520)" stroke="#333"></path></svg>