<svg xmlns="http://www.w3.org/2000/svg" id="burgCOA403" width="200" height="200" viewBox="0 0 200 200">
        <defs><clipPath id="pavise_burgCOA403"><path d="M95 7L39.9 37.3a10 10 0 00-5.1 9.5L46 180c.4 5.2 3.7 10 9 10h90c5.3 0 9.6-4.8 10-10l10.6-133.2a10 10 0 00-5-9.5L105 7c-4.2-2.3-6.2-2.3-10 0z"></path></clipPath><g id="billet_burgCOA403"><polygon points="80 65 120 65 120 135 80 135"></polygon></g><radialGradient id="backlight_burgCOA403" cx="100%" cy="100%" r="150%"><stop stop-color="#fff" stop-opacity=".3" offset="0"></stop><stop stop-color="#fff" stop-opacity=".15" offset=".25"></stop><stop stop-color="#000" stop-opacity="0" offset="1"></stop></radialGradient></defs>
        <g clip-path="url(#pavise_burgCOA403)"><rect x="0" y="0" width="200" height="200" fill="#d7374a"></rect><g fill="#fafafa" stroke="none"><path d="M95 7L39.9 37.3a10 10 0 00-5.1 9.5L46 180c.4 5.2 3.7 10 9 10h90c5.3 0 9.6-4.8 10-10l10.6-133.2a10 10 0 00-5-9.5L105 7c-4.2-2.3-6.2-2.3-10 0z" fill="none" stroke="#fafafa" stroke-width="5%" transform="scale(.85)" transform-origin="center"></path></g><g fill="#fafafa" stroke="#000"><use href="#billet_burgCOA403" transform="translate(0.9999999999999898 0.9999999999999898) scale(0.9900000000000001)"></use></g></g>
        <path d="M95 7L39.9 37.3a10 10 0 00-5.1 9.5L46 180c.4 5.2 3.7 10 9 10h90c5.3 0 9.6-4.8 10-10l10.6-133.2a10 10 0 00-5-9.5L105 7c-4.2-2.3-6.2-2.3-10 0z" fill="url(#backlight_burgCOA403)" stroke="#333"></path></svg>