<svg xmlns="http://www.w3.org/2000/svg" id="burgCOA92" width="200" height="200" viewBox="0 10 200 200">
        <defs><clipPath id="french_burgCOA92"><path d="m 25,25 h 150 v 139.15 c 0,41.745 -66,18.15 -75,36.3 -9,-18.15 -75,5.445 -75,-36.3 v 0 z"></path></clipPath><g id="mullet4_burgCOA92"><polygon points="100 60 109.9 90.1 140 100 109.9 109.9 100 140 90.1 109.9 60 100 90.1 90.1"></polygon></g><pattern id="masoned-azure-argent" width="0.125" height="0.125" viewBox="0 0 100 100" fill="none"><rect width="100" height="100" fill="#377cd7"></rect><rect width="100" height="50" stroke="#fafafa" stroke-width="4"></rect><line x1="50" y1="50" x2="50" y2="100" stroke="#fafafa" stroke-width="5"></line></pattern><radialGradient id="backlight_burgCOA92" cx="100%" cy="100%" r="150%"><stop stop-color="#fff" stop-opacity=".3" offset="0"></stop><stop stop-color="#fff" stop-opacity=".15" offset=".25"></stop><stop stop-color="#000" stop-opacity="0" offset="1"></stop></radialGradient></defs>
        <g clip-path="url(#french_burgCOA92)"><rect x="0" y="0" width="200" height="200" fill="url(#masoned-azure-argent)"></rect><g fill="#ffe066" stroke="none"><path d="m 25,25 h 150 v 139.15 c 0,41.745 -66,18.15 -75,36.3 -9,-18.15 -75,5.445 -75,-36.3 v 0 z" fill="none" stroke="#ffe066" stroke-width="5%" transform="scale(.85)" transform-origin="center"></path></g><g fill="#ffe066" stroke="#000"><use href="#mullet4_burgCOA92" transform="translate(-10.000000000000009 -10.000000000000009) scale(1.1)"></use></g></g>
        <path d="m 25,25 h 150 v 139.15 c 0,41.745 -66,18.15 -75,36.3 -9,-18.15 -75,5.445 -75,-36.3 v 0 z" fill="url(#backlight_burgCOA92)" stroke="#333"></path></svg>