<svg xmlns="http://www.w3.org/2000/svg" id="burgCOA451" width="200" height="200" viewBox="0 0 200 200">
        <defs><clipPath id="boeotian_burgCOA451"><path d="M150 115c-5 0-10-5-10-15s5-15 10-15c10 0 7 10 15 10 10 0 0-30 0-30-10-25-30-55-65-55S45 40 35 65c0 0-10 30 0 30 8 0 5-10 15-10 5 0 10 5 10 15s-5 15-10 15c-10 0-7-10-15-10-10 0 0 30 0 30 10 25 30 55 65 55s55-30 65-55c0 0 10-30 0-30-8 0-5 10-15 10z"></path></clipPath><clipPath id="divisionClip_burgCOA451"><rect x="100" y="0" width="100" height="100"></rect><rect x="0" y="100" width="100" height="100"></rect></clipPath><pattern id="lozengy-or-sable" width="0.125" height="0.125" viewBox="0 0 50 50"><rect width="50" height="50" fill="#ffe066"></rect><polygon points="25,0 50,25 25,50 0,25" fill="#333333"></polygon></pattern><radialGradient id="backlight_burgCOA451" cx="100%" cy="100%" r="150%"><stop stop-color="#fff" stop-opacity=".3" offset="0"></stop><stop stop-color="#fff" stop-opacity=".15" offset=".25"></stop><stop stop-color="#000" stop-opacity="0" offset="1"></stop></radialGradient></defs>
        <g clip-path="url(#boeotian_burgCOA451)"><rect x="0" y="0" width="200" height="200" fill="url(#lozengy-or-sable)"></rect><g clip-path="url(#divisionClip_burgCOA451)"><rect x="0" y="0" width="200" height="200" fill="#d7374a"></rect></g><g fill="#377cd7" stroke="none"><path d="M15,0 100,200 60,0Z M80,0 100,200 120,0Z M140,0 100,200 185,0Z"></path></g></g>
        <path d="M150 115c-5 0-10-5-10-15s5-15 10-15c10 0 7 10 15 10 10 0 0-30 0-30-10-25-30-55-65-55S45 40 35 65c0 0-10 30 0 30 8 0 5-10 15-10 5 0 10 5 10 15s-5 15-10 15c-10 0-7-10-15-10-10 0 0 30 0 30 10 25 30 55 65 55s55-30 65-55c0 0 10-30 0-30-8 0-5 10-15 10z" fill="url(#backlight_burgCOA451)" stroke="#333"></path></svg>