<svg xmlns="http://www.w3.org/2000/svg" id="burgCOA98" width="200" height="200" viewBox="0 10 200 200">
        <defs><clipPath id="heater_burgCOA98"><path d="m25,25 h150 v50 a150,150,0,0,1,-75,125 a150,150,0,0,1,-75,-125 z"></path></clipPath><g id="crossHummetty_burgCOA98" stroke-width=".5"><path d="M90 60h20v30h30v20h-30v30H90v-30H60V90h30z"></path></g><radialGradient id="backlight_burgCOA98" cx="100%" cy="100%" r="150%"><stop stop-color="#fff" stop-opacity=".3" offset="0"></stop><stop stop-color="#fff" stop-opacity=".15" offset=".25"></stop><stop stop-color="#000" stop-opacity="0" offset="1"></stop></radialGradient></defs>
        <g clip-path="url(#heater_burgCOA98)"><rect x="0" y="0" width="200" height="200" fill="#fafafa"></rect><g fill="#333333" stroke="#000"><use href="#crossHummetty_burgCOA98" transform="translate(-50 -50) scale(1.5)"></use></g></g>
        <path d="m25,25 h150 v50 a150,150,0,0,1,-75,125 a150,150,0,0,1,-75,-125 z" fill="url(#backlight_burgCOA98)" stroke="#333"></path></svg>