<svg xmlns="http://www.w3.org/2000/svg" id="burgCOA510" width="200" height="200" viewBox="0 10 200 200">
        <defs><clipPath id="heater_burgCOA510"><path d="m25,25 h150 v50 a150,150,0,0,1,-75,125 a150,150,0,0,1,-75,-125 z"></path></clipPath><clipPath id="divisionClip_burgCOA510"><rect x="100" y="0" width="100" height="200"></rect></clipPath><pattern id="pally-or-purpure" width="0.5" height="0.125" viewBox="0 0 100 25"><rect width="100" height="25" fill="#522d5b"></rect><rect x="25" y="0" width="25" height="25" fill="#ffe066"></rect><rect x="75" y="0" width="25" height="25" fill="#ffe066"></rect></pattern><radialGradient id="backlight_burgCOA510" cx="100%" cy="100%" r="150%"><stop stop-color="#fff" stop-opacity=".3" offset="0"></stop><stop stop-color="#fff" stop-opacity=".15" offset=".25"></stop><stop stop-color="#000" stop-opacity="0" offset="1"></stop></radialGradient></defs>
        <g clip-path="url(#heater_burgCOA510)"><rect x="0" y="0" width="200" height="200" fill="url(#pally-or-purpure)"></rect><g clip-path="url(#divisionClip_burgCOA510)"><rect x="0" y="0" width="200" height="200" fill="#333333"></rect></g></g>
        <path d="m25,25 h150 v50 a150,150,0,0,1,-75,125 a150,150,0,0,1,-75,-125 z" fill="url(#backlight_burgCOA510)" stroke="#333"></path></svg>