<svg xmlns="http://www.w3.org/2000/svg" id="burgCOA696" width="200" height="200" viewBox="0 0 200 200">
        <defs><clipPath id="boeotian_burgCOA696"><path d="M150 115c-5 0-10-5-10-15s5-15 10-15c10 0 7 10 15 10 10 0 0-30 0-30-10-25-30-55-65-55S45 40 35 65c0 0-10 30 0 30 8 0 5-10 15-10 5 0 10 5 10 15s-5 15-10 15c-10 0-7-10-15-10-10 0 0 30 0 30 10 25 30 55 65 55s55-30 65-55c0 0 10-30 0-30-8 0-5 10-15 10z"></path></clipPath><g id="crossCeltic_burgCOA696" stroke-width=".5"><path d="m 95,60 v 7 C 80,70 70,80 67,95 h -7 v 10 h 7 c 3,15 13,25 28,28 v 7 h 10 v -7 c 15,-3 25,-13 28,-28 h 7 V 95 h -7 C 130,80 120,70 105,67 v -7 z m 0,15 V 95 H 75 C 77,85 85,77 95,75 Z m 10,0 c 10,2 18,10 20,20 h -20 z m -30,30 h 20 v 20 C 85,123 77,115 75,105 Z m 30,0 h 20 c -2,10 -10,18 -20,20 z"></path></g><radialGradient id="backlight_burgCOA696" cx="100%" cy="100%" r="150%"><stop stop-color="#fff" stop-opacity=".3" offset="0"></stop><stop stop-color="#fff" stop-opacity=".15" offset=".25"></stop><stop stop-color="#000" stop-opacity="0" offset="1"></stop></radialGradient></defs>
        <g clip-path="url(#boeotian_burgCOA696)"><rect x="0" y="0" width="200" height="200" fill="#ffe066"></rect><g fill="#522d5b" stroke="#000"><use href="#crossCeltic_burgCOA696" transform="translate(-12.5 -12.5) scale(1.125)"></use></g></g>
        <path d="M150 115c-5 0-10-5-10-15s5-15 10-15c10 0 7 10 15 10 10 0 0-30 0-30-10-25-30-55-65-55S45 40 35 65c0 0-10 30 0 30 8 0 5-10 15-10 5 0 10 5 10 15s-5 15-10 15c-10 0-7-10-15-10-10 0 0 30 0 30 10 25 30 55 65 55s55-30 65-55c0 0 10-30 0-30-8 0-5 10-15 10z" fill="url(#backlight_burgCOA696)" stroke="#333"></path></svg>