<svg xmlns="http://www.w3.org/2000/svg" id="burgCOA652" width="200" height="200" viewBox="0 0 200 200">
        <defs><clipPath id="pavise_burgCOA652"><path d="M95 7L39.9 37.3a10 10 0 00-5.1 9.5L46 180c.4 5.2 3.7 10 9 10h90c5.3 0 9.6-4.8 10-10l10.6-133.2a10 10 0 00-5-9.5L105 7c-4.2-2.3-6.2-2.3-10 0z"></path></clipPath><g id="rustre_burgCOA652"><path d="M100 55l30 45-30 45-30-45zm-12 45a12 12 0 1024 0 12 12 0 10-24 0"></path></g><radialGradient id="backlight_burgCOA652" cx="100%" cy="100%" r="150%"><stop stop-color="#fff" stop-opacity=".3" offset="0"></stop><stop stop-color="#fff" stop-opacity=".15" offset=".25"></stop><stop stop-color="#000" stop-opacity="0" offset="1"></stop></radialGradient></defs>
        <g clip-path="url(#pavise_burgCOA652)"><rect x="0" y="0" width="200" height="200" fill="#522d5b"></rect><g fill="#ffe066" stroke="#000"><use href="#rustre_burgCOA652" transform="translate(55.00000000000001 17.500000000000007) scale(0.45)"></use><use href="#rustre_burgCOA652" transform="translate(25.000000000000007 90) scale(0.45)"></use><use href="#rustre_burgCOA652" transform="translate(85 90) scale(0.45)"></use></g></g>
        <path d="M95 7L39.9 37.3a10 10 0 00-5.1 9.5L46 180c.4 5.2 3.7 10 9 10h90c5.3 0 9.6-4.8 10-10l10.6-133.2a10 10 0 00-5-9.5L105 7c-4.2-2.3-6.2-2.3-10 0z" fill="url(#backlight_burgCOA652)" stroke="#333"></path></svg>