<svg xmlns="http://www.w3.org/2000/svg" id="burgCOA588" width="200" height="200" viewBox="0 0 200 200">
        <defs><clipPath id="boeotian_burgCOA588"><path d="M150 115c-5 0-10-5-10-15s5-15 10-15c10 0 7 10 15 10 10 0 0-30 0-30-10-25-30-55-65-55S45 40 35 65c0 0-10 30 0 30 8 0 5-10 15-10 5 0 10 5 10 15s-5 15-10 15c-10 0-7-10-15-10-10 0 0 30 0 30 10 25 30 55 65 55s55-30 65-55c0 0 10-30 0-30-8 0-5 10-15 10z"></path></clipPath><clipPath id="divisionClip_burgCOA588"><polygon points="0,0 15,0 100,200 185,0 200,0 200,200 0,200"></polygon></clipPath><pattern id="gemelles-or-azure-small" width="0.1" height="0.1" viewBox="0 0 50 50"><rect width="50" height="50" fill="#ffe066"></rect><rect y="5" width="50" height="10" fill="#377cd7"></rect><rect y="40" width="50" height="10" fill="#377cd7"></rect></pattern><radialGradient id="backlight_burgCOA588" cx="100%" cy="100%" r="150%"><stop stop-color="#fff" stop-opacity=".3" offset="0"></stop><stop stop-color="#fff" stop-opacity=".15" offset=".25"></stop><stop stop-color="#000" stop-opacity="0" offset="1"></stop></radialGradient></defs>
        <g clip-path="url(#boeotian_burgCOA588)"><rect x="0" y="0" width="200" height="200" fill="url(#gemelles-or-azure-small)"></rect><g clip-path="url(#divisionClip_burgCOA588)"><rect x="0" y="0" width="200" height="200" fill="#522d5b"></rect></g><g fill="#333333" stroke="none"><path d="M150 115c-5 0-10-5-10-15s5-15 10-15c10 0 7 10 15 10 10 0 0-30 0-30-10-25-30-55-65-55S45 40 35 65c0 0-10 30 0 30 8 0 5-10 15-10 5 0 10 5 10 15s-5 15-10 15c-10 0-7-10-15-10-10 0 0 30 0 30 10 25 30 55 65 55s55-30 65-55c0 0 10-30 0-30-8 0-5 10-15 10z" fill="none" stroke="#333333" stroke-width="5%" transform="scale(.85)" transform-origin="center"></path></g></g>
        <path d="M150 115c-5 0-10-5-10-15s5-15 10-15c10 0 7 10 15 10 10 0 0-30 0-30-10-25-30-55-65-55S45 40 35 65c0 0-10 30 0 30 8 0 5-10 15-10 5 0 10 5 10 15s-5 15-10 15c-10 0-7-10-15-10-10 0 0 30 0 30 10 25 30 55 65 55s55-30 65-55c0 0 10-30 0-30-8 0-5 10-15 10z" fill="url(#backlight_burgCOA588)" stroke="#333"></path></svg>