<svg xmlns="http://www.w3.org/2000/svg" id="burgCOA100" width="200" height="200" viewBox="0 10 200 200">
        <defs><clipPath id="french_burgCOA100"><path d="m 25,25 h 150 v 139.15 c 0,41.745 -66,18.15 -75,36.3 -9,-18.15 -75,5.445 -75,-36.3 v 0 z"></path></clipPath><g id="inescutcheon_burgCOA100"><path transform="translate(66 66) scale(.34)" d="m 25,25 h 150 v 139.15 c 0,41.745 -66,18.15 -75,36.3 -9,-18.15 -75,5.445 -75,-36.3 v 0 z"></path></g><g id="annulet_burgCOA100"><path d="M70 100c0 16.569 13.431 30 30 30 16.569 0 30-13.431 30-30 0-16.569-13.431-30-30-30-16.569 0-30 13.431-30 30m10 0c0-11.046 8.954-20 20-20s20 8.954 20 20-8.954 20-20 20-20-8.954-20-20"></path></g><radialGradient id="backlight_burgCOA100" cx="100%" cy="100%" r="150%"><stop stop-color="#fff" stop-opacity=".3" offset="0"></stop><stop stop-color="#fff" stop-opacity=".15" offset=".25"></stop><stop stop-color="#000" stop-opacity="0" offset="1"></stop></radialGradient></defs>
        <g clip-path="url(#french_burgCOA100)"><rect x="0" y="0" width="200" height="200" fill="#fafafa"></rect><g fill="#377cd7" stroke="none"><polygon points="0,165 165,0 200,0 200,35 35,200 0,200"></polygon></g><g fill="#ffe066" stroke="#000"><use href="#inescutcheon_burgCOA100" transform="translate(67.5 -7.4999999999999964) scale(0.7)"></use><use href="#inescutcheon_burgCOA100" transform="translate(-7.4999999999999964 67.5) scale(0.7)"></use></g><g fill="#d7374a" stroke="#000"><use href="#annulet_burgCOA100" transform="translate(102.5 27.5) scale(0.35)"></use><use href="#annulet_burgCOA100" transform="translate(27.5 102.5) scale(0.35)"></use></g></g>
        <path d="m 25,25 h 150 v 139.15 c 0,41.745 -66,18.15 -75,36.3 -9,-18.15 -75,5.445 -75,-36.3 v 0 z" fill="url(#backlight_burgCOA100)" stroke="#333"></path></svg>