<svg xmlns="http://www.w3.org/2000/svg" id="burgCOA263" width="200" height="200" viewBox="0 0 200 200">
        <defs><clipPath id="boeotian_burgCOA263"><path d="M150 115c-5 0-10-5-10-15s5-15 10-15c10 0 7 10 15 10 10 0 0-30 0-30-10-25-30-55-65-55S45 40 35 65c0 0-10 30 0 30 8 0 5-10 15-10 5 0 10 5 10 15s-5 15-10 15c-10 0-7-10-15-10-10 0 0 30 0 30 10 25 30 55 65 55s55-30 65-55c0 0 10-30 0-30-8 0-5 10-15 10z"></path></clipPath><clipPath id="divisionClip_burgCOA263"><rect x="100" y="0" width="100" height="92.5"></rect><rect x="0" y="107.5" width="100" height="92.5"></rect><path d="m 100,95 5,10 5,-10 5,10 5,-10 5,10 5,-10 5,10 5,-10 5,10 5,-10 5,10 5,-10 5,10 5,-10 5,10 5,-10 5,10 5,-10 5,10 5,-10 v 20 H 0 V 95 l 5,10 5,-10 5,10 5,-10 5,10 5,-10 5,10 5,-10 5,10 5,-10 5,10 5,-10 5,10 5,-10 5,10 5,-10 5,10 5,-10 5,10 z" transform="translate(0 50) scale(.5001)"></path><path d="m 100,95 5,10 5,-10 5,10 5,-10 5,10 5,-10 5,10 5,-10 5,10 5,-10 5,10 5,-10 5,10 5,-10 5,10 5,-10 5,10 5,-10 5,10 5,-10 v 20 H 0 V 95 l 5,10 5,-10 5,10 5,-10 5,10 5,-10 5,10 5,-10 5,10 5,-10 5,10 5,-10 5,10 5,-10 5,10 5,-10 5,10 5,-10 5,10 z" transform="translate(200 150) scale(-.5)"></path></clipPath><g id="mallet_burgCOA263" stroke-width="3"><path d="M639.1-120.9v-123h-40.4v123c0 31.4-11.5 88.2-11.5 111.4 0 23.2 14.2 35.5 31.6 35.5 17.5 0 31.6-12.3 31.6-35.5.2-23.3-11.3-80-11.3-111.4zm-43-255c0-9.5 11.2-12.4 22.9-12.4s22.9 2.8 22.9 12.4l-3.8 51.3H600l-3.9-51.3z" transform="matrix(.1957 0 0 .193 -21 135)"></path><path d="M618.9-357.3c-46.4 0-138.5 9.8-135.5 43.1 1.9 21.3 8.7 90.5 8.7 90.5 3.9 23.5 1.1 36.9 26 36.9 0 0 69.2-3 100.9-3 31.6 0 100.9 3 100.9 3 24.9 0 22-13.4 26-36.9 0 0 6.8-69.1 8.7-90.5 2.9-33.3-89.3-43.1-135.7-43.1z" transform="matrix(.1957 0 0 .193 -21 135)"></path><path fill="#000" stroke="none" d="M77.1 71.8c14-4.1 33.1-4 46.7 0-13.5-3.2-32.9-3-46.7 0z"></path></g><radialGradient id="backlight_burgCOA263" cx="100%" cy="100%" r="150%"><stop stop-color="#fff" stop-opacity=".3" offset="0"></stop><stop stop-color="#fff" stop-opacity=".15" offset=".25"></stop><stop stop-color="#000" stop-opacity="0" offset="1"></stop></radialGradient></defs>
        <g clip-path="url(#boeotian_burgCOA263)"><rect x="0" y="0" width="200" height="200" fill="#377cd7"></rect><g fill="#ffe066" stroke="#000"><use href="#mallet_burgCOA263" transform="translate(-12.5 -12.5) scale(1.125)"></use></g><g clip-path="url(#divisionClip_burgCOA263)"><rect x="0" y="0" width="200" height="200" fill="#ffe066"></rect><g fill="#377cd7" stroke="#000"><use href="#mallet_burgCOA263" transform="translate(-12.5 -12.5) scale(1.125)"></use></g></g></g>
        <path d="M150 115c-5 0-10-5-10-15s5-15 10-15c10 0 7 10 15 10 10 0 0-30 0-30-10-25-30-55-65-55S45 40 35 65c0 0-10 30 0 30 8 0 5-10 15-10 5 0 10 5 10 15s-5 15-10 15c-10 0-7-10-15-10-10 0 0 30 0 30 10 25 30 55 65 55s55-30 65-55c0 0 10-30 0-30-8 0-5 10-15 10z" fill="url(#backlight_burgCOA263)" stroke="#333"></path></svg>