<svg xmlns="http://www.w3.org/2000/svg" id="burgCOA118" width="200" height="200" viewBox="0 0 200 200">
        <defs><clipPath id="pavise_burgCOA118"><path d="M95 7L39.9 37.3a10 10 0 00-5.1 9.5L46 180c.4 5.2 3.7 10 9 10h90c5.3 0 9.6-4.8 10-10l10.6-133.2a10 10 0 00-5-9.5L105 7c-4.2-2.3-6.2-2.3-10 0z"></path></clipPath><clipPath id="divisionClip_burgCOA118"><rect x="0" y="100" width="200" height="100"></rect></clipPath><pattern id="grillage-or-gules" width="0.25" height="0.25" viewBox="0 0 200 200" stroke="#000" stroke-width="2"><rect width="200" height="200" fill="#ffe066" stroke="none"></rect><path d="m205 65v-30h-210v30z" fill="#d7374a"></path><path d="m65-5h-30v210h30z" fill="#d7374a"></path><path d="m205 165v-30h-210v30z" fill="#d7374a"></path><path d="m165,65h-30v140h30z" fill="#d7374a"></path><path d="m 165,-5h-30v40h30z" fill="#d7374a"></path></pattern><radialGradient id="backlight_burgCOA118" cx="100%" cy="100%" r="150%"><stop stop-color="#fff" stop-opacity=".3" offset="0"></stop><stop stop-color="#fff" stop-opacity=".15" offset=".25"></stop><stop stop-color="#000" stop-opacity="0" offset="1"></stop></radialGradient></defs>
        <g clip-path="url(#pavise_burgCOA118)"><rect x="0" y="0" width="200" height="200" fill="url(#grillage-or-gules)"></rect><g clip-path="url(#divisionClip_burgCOA118)"><rect x="0" y="0" width="200" height="200" fill="#26c061"></rect></g><g fill="#377cd7" stroke="none"><polygon points="0,200 0,144 175,25 55,200"></polygon></g></g>
        <path d="M95 7L39.9 37.3a10 10 0 00-5.1 9.5L46 180c.4 5.2 3.7 10 9 10h90c5.3 0 9.6-4.8 10-10l10.6-133.2a10 10 0 00-5-9.5L105 7c-4.2-2.3-6.2-2.3-10 0z" fill="url(#backlight_burgCOA118)" stroke="#333"></path></svg>