<svg xmlns="http://www.w3.org/2000/svg" id="burgCOA63" width="200" height="200" viewBox="0 0 200 200">
        <defs><clipPath id="boeotian_burgCOA63"><path d="M150 115c-5 0-10-5-10-15s5-15 10-15c10 0 7 10 15 10 10 0 0-30 0-30-10-25-30-55-65-55S45 40 35 65c0 0-10 30 0 30 8 0 5-10 15-10 5 0 10 5 10 15s-5 15-10 15c-10 0-7-10-15-10-10 0 0 30 0 30 10 25 30 55 65 55s55-30 65-55c0 0 10-30 0-30-8 0-5 10-15 10z"></path></clipPath><g id="inescutcheon_burgCOA63"><path transform="translate(66 66) scale(.34)" d="M150 115c-5 0-10-5-10-15s5-15 10-15c10 0 7 10 15 10 10 0 0-30 0-30-10-25-30-55-65-55S45 40 35 65c0 0-10 30 0 30 8 0 5-10 15-10 5 0 10 5 10 15s-5 15-10 15c-10 0-7-10-15-10-10 0 0 30 0 30 10 25 30 55 65 55s55-30 65-55c0 0 10-30 0-30-8 0-5 10-15 10z"></path></g><g id="mullet6Pierced_burgCOA63"><path d="M100 60l7.64 26.77 27-6.77-19.36 20 19.36 20-27-6.77L100 140l-7.64-26.77-27 6.77 19.36-20-19.36-20 27 6.77z M 108,100 a 8,8 0 0 0 -8,-8 8,8 0 0 0 -8,8 8,8 0 0 0 8,8 8,8 0 0 0 8,-8 z"></path></g><radialGradient id="backlight_burgCOA63" cx="100%" cy="100%" r="150%"><stop stop-color="#fff" stop-opacity=".3" offset="0"></stop><stop stop-color="#fff" stop-opacity=".15" offset=".25"></stop><stop stop-color="#000" stop-opacity="0" offset="1"></stop></radialGradient></defs>
        <g clip-path="url(#boeotian_burgCOA63)"><rect x="0" y="0" width="200" height="200" fill="#d7374a"></rect><g fill="#fafafa" stroke="#000"><use href="#inescutcheon_burgCOA63" transform="translate(-12.5 -12.5) scale(1.125)"></use></g><g fill="#333333" stroke="#000"><use href="#mullet6Pierced_burgCOA63" transform="translate(43.75 43.75) scale(0.5625)"></use></g></g>
        <path d="M150 115c-5 0-10-5-10-15s5-15 10-15c10 0 7 10 15 10 10 0 0-30 0-30-10-25-30-55-65-55S45 40 35 65c0 0-10 30 0 30 8 0 5-10 15-10 5 0 10 5 10 15s-5 15-10 15c-10 0-7-10-15-10-10 0 0 30 0 30 10 25 30 55 65 55s55-30 65-55c0 0 10-30 0-30-8 0-5 10-15 10z" fill="url(#backlight_burgCOA63)" stroke="#333"></path></svg>