<svg xmlns="http://www.w3.org/2000/svg" id="burgCOA583" width="200" height="200" viewBox="0 0 200 200">
        <defs><clipPath id="polish_burgCOA583"><path d="m 90.3,6.3 c -12.7,0 -20.7,10.9 -40.5,14 0,11.8 -4.9,23.5 -11.4,31.1 0,0 12.7,6 12.7,19.3 C 51.1,90.8 30,90.8 30,90.8 c 0,0 -3.6,7.4 -3.6,22.4 0,34.3 23.1,60.2 40.7,68.2 17.6,8 27.7,11.4 32.9,18.6 5.2,-7.3 15.3,-10.7 32.8,-18.6 17.6,-8 40.7,-33.9 40.7,-68.2 0,-15 -3.6,-22.4 -3.6,-22.4 0,0 -21.1,0 -21.1,-20.1 0,-13.3 12.7,-19.3 12.7,-19.3 C 155.1,43.7 150.2,32.1 150.2,20.3 130.4,17.2 122.5,6.3 109.7,6.3 102.5,6.3 100,10 100,10 c 0,0 -2.5,-3.7 -9.7,-3.7 z"></path></clipPath><pattern id="chainy-argent-sable-big" width="0.26720000000000005" height="0.26720000000000005" viewBox="0 0 200 200" stroke="#000" stroke-width="2"><rect x="-6.691e-6" width="200" height="200" fill="#fafafa" stroke="none"></rect><path d="m155-5-20-20-160 160 20 20z" fill="#333333"></path><path d="m45 205 160-160 20 20-160 160z" fill="#333333"></path><path d="m45-5 20-20 160 160-20 20-160-160" fill="#333333"></path><path d="m-5 45-20 20 160 160 20-20-160-160" fill="#333333"></path></pattern><radialGradient id="backlight_burgCOA583" cx="100%" cy="100%" r="150%"><stop stop-color="#fff" stop-opacity=".3" offset="0"></stop><stop stop-color="#fff" stop-opacity=".15" offset=".25"></stop><stop stop-color="#000" stop-opacity="0" offset="1"></stop></radialGradient></defs>
        <g clip-path="url(#polish_burgCOA583)"><rect x="0" y="0" width="200" height="200" fill="url(#chainy-argent-sable-big)"></rect><g fill="#377cd7" stroke="none"><polygon points="85,0 85,85 0,85 0,115 85,115 85,200 115,200 115,115 200,115 200,85 115,85 115,0"></polygon></g></g>
        <path d="m 90.3,6.3 c -12.7,0 -20.7,10.9 -40.5,14 0,11.8 -4.9,23.5 -11.4,31.1 0,0 12.7,6 12.7,19.3 C 51.1,90.8 30,90.8 30,90.8 c 0,0 -3.6,7.4 -3.6,22.4 0,34.3 23.1,60.2 40.7,68.2 17.6,8 27.7,11.4 32.9,18.6 5.2,-7.3 15.3,-10.7 32.8,-18.6 17.6,-8 40.7,-33.9 40.7,-68.2 0,-15 -3.6,-22.4 -3.6,-22.4 0,0 -21.1,0 -21.1,-20.1 0,-13.3 12.7,-19.3 12.7,-19.3 C 155.1,43.7 150.2,32.1 150.2,20.3 130.4,17.2 122.5,6.3 109.7,6.3 102.5,6.3 100,10 100,10 c 0,0 -2.5,-3.7 -9.7,-3.7 z" fill="url(#backlight_burgCOA583)" stroke="#333"></path></svg>