<svg xmlns="http://www.w3.org/2000/svg" id="burgCOA361" width="200" height="200" viewBox="0 0 200 200">
        <defs><clipPath id="polish_burgCOA361"><path d="m 90.3,6.3 c -12.7,0 -20.7,10.9 -40.5,14 0,11.8 -4.9,23.5 -11.4,31.1 0,0 12.7,6 12.7,19.3 C 51.1,90.8 30,90.8 30,90.8 c 0,0 -3.6,7.4 -3.6,22.4 0,34.3 23.1,60.2 40.7,68.2 17.6,8 27.7,11.4 32.9,18.6 5.2,-7.3 15.3,-10.7 32.8,-18.6 17.6,-8 40.7,-33.9 40.7,-68.2 0,-15 -3.6,-22.4 -3.6,-22.4 0,0 -21.1,0 -21.1,-20.1 0,-13.3 12.7,-19.3 12.7,-19.3 C 155.1,43.7 150.2,32.1 150.2,20.3 130.4,17.2 122.5,6.3 109.7,6.3 102.5,6.3 100,10 100,10 c 0,0 -2.5,-3.7 -9.7,-3.7 z"></path></clipPath><clipPath id="divisionClip_burgCOA361"><path d="M0,80 100,-15 200,80 200,120 100,25 0,120z M0,160 100,65 200,160 200,200 100,105 0,200z M0,240 100,145 200,240 0,240z"></path></clipPath><g id="anvil_burgCOA361" stroke-width=".5">
  <path d="m 111,116 6,5 v 9 c 0,0 0,1 -1,1 h -11 v -1 c -1,-1 -5.1,-4 -10,-4 -5,0 -10,3 -11,4 0,1 -0.5,1 -0.5,1 h -10 c -0.5,0 -1,-1 -1,-1 v -9 l 5.1,-5 7.9,-3 c 1.2,-2 1,-3 1,-6 0,-11 -12,-15 -22,-16 C 63,91 62,89.4 62,87.9 v -6.2 c 0,-0.9 0.5,-1.5 1.6,-1.5 H 108 c 1,0 2,0.6 2,1.5 v 0.6 c 0,1 0,1.5 1,1.5 h 2 c 1,0 1,0 1,0.5 v 1 c 4,0 26,0 26,0.6 0,5.6 -7,13 -18,14 -10,2.1 -19,3.1 -19,10.1 0,4 4,4 8,6 z"></path>
    <g fill="#000" stroke="none">
    <path d="m 107,87 c 0,-2.2 -1,-3.6 -3,-3.6 H 86 v 16.5 c -0.6,-1.6 -0.6,-3 -0.6,-4 v -13 H 104 c 3,0.1 3,2 3,4.1 z"></path>
    <path d="m113 96c0-3-1-8.3 3-8.7l20-.5-20 1c-3 .2-3 5.2-3 8.2z"></path>
    <path d="m105 127c-8-5-14-4-22 0 7-5 16-5 22 0z"></path>
    <path d="m 79,118 c 2.8,-2 6.5,-4 7.2,-7 h 0.4 c -0.3,3 -5,6 -7.6,7 z"></path>
    <path d="m 110,118 c -4,-2 -6,-4 -7,-7 h 0 c 0,3 3,6 7,7 z"></path>
    </g>
  </g><radialGradient id="backlight_burgCOA361" cx="100%" cy="100%" r="150%"><stop stop-color="#fff" stop-opacity=".3" offset="0"></stop><stop stop-color="#fff" stop-opacity=".15" offset=".25"></stop><stop stop-color="#000" stop-opacity="0" offset="1"></stop></radialGradient></defs>
        <g clip-path="url(#polish_burgCOA361)"><rect x="0" y="0" width="200" height="200" fill="#ffe066"></rect><g fill="#d7374a" stroke="#000"><use href="#anvil_burgCOA361" transform="translate(13 13) scale(0.595)"></use><use href="#anvil_burgCOA361" transform="translate(68 13) scale(0.595)"></use><use href="#anvil_burgCOA361" transform="translate(40.5 90.5) scale(0.595)"></use></g><g clip-path="url(#divisionClip_burgCOA361)"><rect x="0" y="0" width="200" height="200" fill="#d7374a"></rect><g fill="#ffe066" stroke="#000"><use href="#anvil_burgCOA361" transform="translate(13 13) scale(0.595)"></use><use href="#anvil_burgCOA361" transform="translate(68 13) scale(0.595)"></use><use href="#anvil_burgCOA361" transform="translate(40.5 90.5) scale(0.595)"></use></g></g></g>
        <path d="m 90.3,6.3 c -12.7,0 -20.7,10.9 -40.5,14 0,11.8 -4.9,23.5 -11.4,31.1 0,0 12.7,6 12.7,19.3 C 51.1,90.8 30,90.8 30,90.8 c 0,0 -3.6,7.4 -3.6,22.4 0,34.3 23.1,60.2 40.7,68.2 17.6,8 27.7,11.4 32.9,18.6 5.2,-7.3 15.3,-10.7 32.8,-18.6 17.6,-8 40.7,-33.9 40.7,-68.2 0,-15 -3.6,-22.4 -3.6,-22.4 0,0 -21.1,0 -21.1,-20.1 0,-13.3 12.7,-19.3 12.7,-19.3 C 155.1,43.7 150.2,32.1 150.2,20.3 130.4,17.2 122.5,6.3 109.7,6.3 102.5,6.3 100,10 100,10 c 0,0 -2.5,-3.7 -9.7,-3.7 z" fill="url(#backlight_burgCOA361)" stroke="#333"></path></svg>