<svg xmlns="http://www.w3.org/2000/svg" id="burgCOA644" width="200" height="200" viewBox="0 0 200 200">
        <defs><clipPath id="polish_burgCOA644"><path d="m 90.3,6.3 c -12.7,0 -20.7,10.9 -40.5,14 0,11.8 -4.9,23.5 -11.4,31.1 0,0 12.7,6 12.7,19.3 C 51.1,90.8 30,90.8 30,90.8 c 0,0 -3.6,7.4 -3.6,22.4 0,34.3 23.1,60.2 40.7,68.2 17.6,8 27.7,11.4 32.9,18.6 5.2,-7.3 15.3,-10.7 32.8,-18.6 17.6,-8 40.7,-33.9 40.7,-68.2 0,-15 -3.6,-22.4 -3.6,-22.4 0,0 -21.1,0 -21.1,-20.1 0,-13.3 12.7,-19.3 12.7,-19.3 C 155.1,43.7 150.2,32.1 150.2,20.3 130.4,17.2 122.5,6.3 109.7,6.3 102.5,6.3 100,10 100,10 c 0,0 -2.5,-3.7 -9.7,-3.7 z"></path></clipPath><clipPath id="divisionClip_burgCOA644"><rect x="100" y="0" width="100" height="100"></rect><rect x="0" y="100" width="100" height="100"></rect></clipPath><g id="goutte_burgCOA644"><path d="M100 134c17-1 16-19 10-25-1.9-1.8-4.6-5.3-3.9-8.1C108 94 102 90 102 87c-1-7 3-7 3-13-.1-6.2-3.3-8.7-6-12 1.2 3 2 6 1 9-1.5 5.9-6.2 6.9-8 11-2 5 3 11 3 15-.6 9.1-9 13-9 23 .3 11.3 9 14 14 14z"></path></g><radialGradient id="backlight_burgCOA644" cx="100%" cy="100%" r="150%"><stop stop-color="#fff" stop-opacity=".3" offset="0"></stop><stop stop-color="#fff" stop-opacity=".15" offset=".25"></stop><stop stop-color="#000" stop-opacity="0" offset="1"></stop></radialGradient></defs>
        <g clip-path="url(#polish_burgCOA644)"><rect x="0" y="0" width="200" height="200" fill="#fafafa"></rect><g fill="#522d5b" stroke="#000"><use href="#goutte_burgCOA644" transform="translate(21.5 21.5) scale(0.51)"></use><use href="#goutte_burgCOA644" transform="translate(76.5 21.5) scale(0.51)"></use><use href="#goutte_burgCOA644" transform="translate(21.5 76.5) scale(0.51)"></use><use href="#goutte_burgCOA644" transform="translate(76.5 76.5) scale(0.51)"></use></g><g clip-path="url(#divisionClip_burgCOA644)"><rect x="0" y="0" width="200" height="200" fill="#522d5b"></rect><g fill="#fafafa" stroke="#000"><use href="#goutte_burgCOA644" transform="translate(21.5 21.5) scale(0.51)"></use><use href="#goutte_burgCOA644" transform="translate(76.5 21.5) scale(0.51)"></use><use href="#goutte_burgCOA644" transform="translate(21.5 76.5) scale(0.51)"></use><use href="#goutte_burgCOA644" transform="translate(76.5 76.5) scale(0.51)"></use></g></g></g>
        <path d="m 90.3,6.3 c -12.7,0 -20.7,10.9 -40.5,14 0,11.8 -4.9,23.5 -11.4,31.1 0,0 12.7,6 12.7,19.3 C 51.1,90.8 30,90.8 30,90.8 c 0,0 -3.6,7.4 -3.6,22.4 0,34.3 23.1,60.2 40.7,68.2 17.6,8 27.7,11.4 32.9,18.6 5.2,-7.3 15.3,-10.7 32.8,-18.6 17.6,-8 40.7,-33.9 40.7,-68.2 0,-15 -3.6,-22.4 -3.6,-22.4 0,0 -21.1,0 -21.1,-20.1 0,-13.3 12.7,-19.3 12.7,-19.3 C 155.1,43.7 150.2,32.1 150.2,20.3 130.4,17.2 122.5,6.3 109.7,6.3 102.5,6.3 100,10 100,10 c 0,0 -2.5,-3.7 -9.7,-3.7 z" fill="url(#backlight_burgCOA644)" stroke="#333"></path></svg>