<svg xmlns="http://www.w3.org/2000/svg" id="burgCOA725" width="200" height="200" viewBox="0 0 200 200">
        <defs><clipPath id="boeotian_burgCOA725"><path d="M150 115c-5 0-10-5-10-15s5-15 10-15c10 0 7 10 15 10 10 0 0-30 0-30-10-25-30-55-65-55S45 40 35 65c0 0-10 30 0 30 8 0 5-10 15-10 5 0 10 5 10 15s-5 15-10 15c-10 0-7-10-15-10-10 0 0 30 0 30 10 25 30 55 65 55s55-30 65-55c0 0 10-30 0-30-8 0-5 10-15 10z"></path></clipPath><g id="crossLatin_burgCOA725" stroke-width=".5"><path d="m 95,60 h 10 v 20 h 25 v 10 h -25 v 50 H 95 V 90 H 70 V 80 h 25 z"></path></g><radialGradient id="backlight_burgCOA725" cx="100%" cy="100%" r="150%"><stop stop-color="#fff" stop-opacity=".3" offset="0"></stop><stop stop-color="#fff" stop-opacity=".15" offset=".25"></stop><stop stop-color="#000" stop-opacity="0" offset="1"></stop></radialGradient></defs>
        <g clip-path="url(#boeotian_burgCOA725)"><rect x="0" y="0" width="200" height="200" fill="#377cd7"></rect><g fill="#fafafa" stroke="#000"><use href="#crossLatin_burgCOA725" transform="translate(-12.5 -12.5) scale(1.125)"></use></g></g>
        <path d="M150 115c-5 0-10-5-10-15s5-15 10-15c10 0 7 10 15 10 10 0 0-30 0-30-10-25-30-55-65-55S45 40 35 65c0 0-10 30 0 30 8 0 5-10 15-10 5 0 10 5 10 15s-5 15-10 15c-10 0-7-10-15-10-10 0 0 30 0 30 10 25 30 55 65 55s55-30 65-55c0 0 10-30 0-30-8 0-5 10-15 10z" fill="url(#backlight_burgCOA725)" stroke="#333"></path></svg>