<svg xmlns="http://www.w3.org/2000/svg" id="burgCOA346" width="200" height="200" viewBox="0 0 200 200">
        <defs><clipPath id="boeotian_burgCOA346"><path d="M150 115c-5 0-10-5-10-15s5-15 10-15c10 0 7 10 15 10 10 0 0-30 0-30-10-25-30-55-65-55S45 40 35 65c0 0-10 30 0 30 8 0 5-10 15-10 5 0 10 5 10 15s-5 15-10 15c-10 0-7-10-15-10-10 0 0 30 0 30 10 25 30 55 65 55s55-30 65-55c0 0 10-30 0-30-8 0-5 10-15 10z"></path></clipPath><clipPath id="divisionClip_burgCOA346"><rect x="100" y="0" width="100" height="200"></rect></clipPath><g id="mascle_burgCOA346"><path d="M100 55l30 45-30 45-30-45zm0 15.75L80.5 100l19.5 29.25L119.5 100z"></path></g><radialGradient id="backlight_burgCOA346" cx="100%" cy="100%" r="150%"><stop stop-color="#fff" stop-opacity=".3" offset="0"></stop><stop stop-color="#fff" stop-opacity=".15" offset=".25"></stop><stop stop-color="#000" stop-opacity="0" offset="1"></stop></radialGradient></defs>
        <g clip-path="url(#boeotian_burgCOA346)"><rect x="0" y="0" width="200" height="200" fill="#fafafa"></rect><g fill="#333333" stroke="#000"><use href="#mascle_burgCOA346" transform="translate(27.500000000000007 47.50000000000001) scale(0.5249999999999999)"></use><use href="#mascle_burgCOA346" transform="translate(67.5 47.50000000000001) scale(0.5249999999999999)"></use></g><g clip-path="url(#divisionClip_burgCOA346)"><rect x="0" y="0" width="200" height="200" fill="#333333"></rect><g fill="#fafafa" stroke="#000"><use href="#mascle_burgCOA346" transform="translate(27.500000000000007 47.50000000000001) scale(0.5249999999999999)"></use><use href="#mascle_burgCOA346" transform="translate(67.5 47.50000000000001) scale(0.5249999999999999)"></use></g></g></g>
        <path d="M150 115c-5 0-10-5-10-15s5-15 10-15c10 0 7 10 15 10 10 0 0-30 0-30-10-25-30-55-65-55S45 40 35 65c0 0-10 30 0 30 8 0 5-10 15-10 5 0 10 5 10 15s-5 15-10 15c-10 0-7-10-15-10-10 0 0 30 0 30 10 25 30 55 65 55s55-30 65-55c0 0 10-30 0-30-8 0-5 10-15 10z" fill="url(#backlight_burgCOA346)" stroke="#333"></path></svg>