<svg xmlns="http://www.w3.org/2000/svg" id="burgCOA705" width="200" height="200" viewBox="0 10 200 200">
        <defs><clipPath id="french_burgCOA705"><path d="m 25,25 h 150 v 139.15 c 0,41.745 -66,18.15 -75,36.3 -9,-18.15 -75,5.445 -75,-36.3 v 0 z"></path></clipPath><clipPath id="divisionClip_burgCOA705"><rect x="0" y="100" width="200" height="100"></rect></clipPath><pattern id="vair-argent-gules" width="0.125" height="0.25" viewBox="0 0 25 50" stroke="#000" stroke-width=".2"><rect width="25" height="25" fill="#fafafa" stroke="none"></rect><path d="m12.5,0 l6.25,6.25 v12.5 l6.25,6.25 h-25 l6.25,-6.25 v-12.5 z" fill="#d7374a"></path><rect x="0" y="25" width="25" height="25" fill="#d7374a" stroke="none"></rect><path d="m25,25 l-6.25,6.25 v12.5 l-6.25,6.25 l-6.25,-6.25 v-12.5 l-6.25,-6.25 z" fill="#fafafa"></path><path d="M0 50 h25" fill="none"></path></pattern><radialGradient id="backlight_burgCOA705" cx="100%" cy="100%" r="150%"><stop stop-color="#fff" stop-opacity=".3" offset="0"></stop><stop stop-color="#fff" stop-opacity=".15" offset=".25"></stop><stop stop-color="#000" stop-opacity="0" offset="1"></stop></radialGradient></defs>
        <g clip-path="url(#french_burgCOA705)"><rect x="0" y="0" width="200" height="200" fill="url(#vair-argent-gules)"></rect><g clip-path="url(#divisionClip_burgCOA705)"><rect x="0" y="0" width="200" height="200" fill="#333333"></rect></g><g fill="#377cd7" stroke="none"><polygon points="85,0 85,85 0,85 0,115 85,115 85,200 115,200 115,115 200,115 200,85 115,85 115,0"></polygon></g></g>
        <path d="m 25,25 h 150 v 139.15 c 0,41.745 -66,18.15 -75,36.3 -9,-18.15 -75,5.445 -75,-36.3 v 0 z" fill="url(#backlight_burgCOA705)" stroke="#333"></path></svg>