<svg xmlns="http://www.w3.org/2000/svg" id="burgCOA127" width="200" height="200" viewBox="0 0 200 200">
        <defs><clipPath id="boeotian_burgCOA127"><path d="M150 115c-5 0-10-5-10-15s5-15 10-15c10 0 7 10 15 10 10 0 0-30 0-30-10-25-30-55-65-55S45 40 35 65c0 0-10 30 0 30 8 0 5-10 15-10 5 0 10 5 10 15s-5 15-10 15c-10 0-7-10-15-10-10 0 0 30 0 30 10 25 30 55 65 55s55-30 65-55c0 0 10-30 0-30-8 0-5 10-15 10z"></path></clipPath><g id="crescent_burgCOA127" stroke-width=".5"><path d="M84 65c-32 15-24 68 16 68s48-53 16-68c18 20 2 41-16 41S67 85 84 65z"></path><path fill="none" d="M84 65c-26 15-14 56 16 56s42-41 16-56"></path></g><radialGradient id="backlight_burgCOA127" cx="100%" cy="100%" r="150%"><stop stop-color="#fff" stop-opacity=".3" offset="0"></stop><stop stop-color="#fff" stop-opacity=".15" offset=".25"></stop><stop stop-color="#000" stop-opacity="0" offset="1"></stop></radialGradient></defs>
        <g clip-path="url(#boeotian_burgCOA127)"><rect x="0" y="0" width="200" height="200" fill="#333333"></rect><g fill="#fafafa" stroke="none"><polygon points="22,0 200,178 200,200 178,200 0,22 0,0"></polygon></g><g fill="#333333" stroke="#000"><use href="#crescent_burgCOA127" transform="translate(45 40) scale(0.22499999999999998)"></use><use href="#crescent_burgCOA127" transform="translate(110 115) scale(0.22499999999999998)"></use><use href="#crescent_burgCOA127" transform="translate(77.5 77.5) scale(0.22499999999999998)"></use></g></g>
        <path d="M150 115c-5 0-10-5-10-15s5-15 10-15c10 0 7 10 15 10 10 0 0-30 0-30-10-25-30-55-65-55S45 40 35 65c0 0-10 30 0 30 8 0 5-10 15-10 5 0 10 5 10 15s-5 15-10 15c-10 0-7-10-15-10-10 0 0 30 0 30 10 25 30 55 65 55s55-30 65-55c0 0 10-30 0-30-8 0-5 10-15 10z" fill="url(#backlight_burgCOA127)" stroke="#333"></path></svg>