<svg xmlns="http://www.w3.org/2000/svg" id="burgCOA704" width="200" height="200" viewBox="0 10 200 200">
        <defs><clipPath id="heater_burgCOA704"><path d="m25,25 h150 v50 a150,150,0,0,1,-75,125 a150,150,0,0,1,-75,-125 z"></path></clipPath><clipPath id="divisionClip_burgCOA704"><rect x="0" y="100" width="200" height="100"></rect></clipPath><radialGradient id="backlight_burgCOA704" cx="100%" cy="100%" r="150%"><stop stop-color="#fff" stop-opacity=".3" offset="0"></stop><stop stop-color="#fff" stop-opacity=".15" offset=".25"></stop><stop stop-color="#000" stop-opacity="0" offset="1"></stop></radialGradient></defs>
        <g clip-path="url(#heater_burgCOA704)"><rect x="0" y="0" width="200" height="200" fill="#d7374a"></rect><g clip-path="url(#divisionClip_burgCOA704)"><rect x="0" y="0" width="200" height="200" fill="#ffe066"></rect></g><g fill="#fafafa" stroke="none"><polygon points="0,0 30,0 100,70 170,0 200,0 200,30 122,109 122,200 78,200 78,109 0,30"></polygon></g></g>
        <path d="m25,25 h150 v50 a150,150,0,0,1,-75,125 a150,150,0,0,1,-75,-125 z" fill="url(#backlight_burgCOA704)" stroke="#333"></path></svg>