<svg xmlns="http://www.w3.org/2000/svg" id="burgCOA106" width="200" height="200" viewBox="0 10 200 200">
        <defs><clipPath id="spanish_burgCOA106"><path d="m25,25 h150 v100 a75,75,0,0,1,-150,0 z"></path></clipPath><pattern id="bendySinister-sable-argent" width="0.5" height="0.5" viewBox="0 0 100 100"><rect width="100" height="100" fill="#fafafa"></rect><polygon points="0,25 25,0 75,0 0,75" fill="#333333"></polygon><polygon points="25,100 100,25 100,75 75,100" fill="#333333"></polygon></pattern><radialGradient id="backlight_burgCOA106" cx="100%" cy="100%" r="150%"><stop stop-color="#fff" stop-opacity=".3" offset="0"></stop><stop stop-color="#fff" stop-opacity=".15" offset=".25"></stop><stop stop-color="#000" stop-opacity="0" offset="1"></stop></radialGradient></defs>
        <g clip-path="url(#spanish_burgCOA106)"><rect x="0" y="0" width="200" height="200" fill="url(#bendySinister-sable-argent)"></rect><g fill="#ffe066" stroke="none"><polygon points="0,125 100,60 200,125 200,165 100,100 0,165"></polygon></g></g>
        <path d="m25,25 h150 v100 a75,75,0,0,1,-150,0 z" fill="url(#backlight_burgCOA106)" stroke="#333"></path></svg>