<svg xmlns="http://www.w3.org/2000/svg" id="burgCOA111" width="200" height="200" viewBox="0 0 200 200">
        <defs><clipPath id="boeotian_burgCOA111"><path d="M150 115c-5 0-10-5-10-15s5-15 10-15c10 0 7 10 15 10 10 0 0-30 0-30-10-25-30-55-65-55S45 40 35 65c0 0-10 30 0 30 8 0 5-10 15-10 5 0 10 5 10 15s-5 15-10 15c-10 0-7-10-15-10-10 0 0 30 0 30 10 25 30 55 65 55s55-30 65-55c0 0 10-30 0-30-8 0-5 10-15 10z"></path></clipPath><clipPath id="divisionClip_burgCOA111"><path d="m 100,95 5,10 5,-10 5,10 5,-10 5,10 5,-10 5,10 5,-10 5,10 5,-10 5,10 5,-10 5,10 5,-10 5,10 5,-10 5,10 5,-10 5,10 5,-10 v 20 H 0 V 95 l 5,10 5,-10 5,10 5,-10 5,10 5,-10 5,10 5,-10 5,10 5,-10 5,10 5,-10 5,10 5,-10 5,10 5,-10 5,10 5,-10 5,10 z" transform="rotate(-90 100 100)"></path><rect x="115" y="0" width="85" height="200" shape-rendering="crispedges"></rect></clipPath><radialGradient id="backlight_burgCOA111" cx="100%" cy="100%" r="150%"><stop stop-color="#fff" stop-opacity=".3" offset="0"></stop><stop stop-color="#fff" stop-opacity=".15" offset=".25"></stop><stop stop-color="#000" stop-opacity="0" offset="1"></stop></radialGradient></defs>
        <g clip-path="url(#boeotian_burgCOA111)"><rect x="0" y="0" width="200" height="200" fill="#ffe066"></rect><g clip-path="url(#divisionClip_burgCOA111)"><rect x="0" y="0" width="200" height="200" fill="#d7374a"></rect></g></g>
        <path d="M150 115c-5 0-10-5-10-15s5-15 10-15c10 0 7 10 15 10 10 0 0-30 0-30-10-25-30-55-65-55S45 40 35 65c0 0-10 30 0 30 8 0 5-10 15-10 5 0 10 5 10 15s-5 15-10 15c-10 0-7-10-15-10-10 0 0 30 0 30 10 25 30 55 65 55s55-30 65-55c0 0 10-30 0-30-8 0-5 10-15 10z" fill="url(#backlight_burgCOA111)" stroke="#333"></path></svg>