<svg xmlns="http://www.w3.org/2000/svg" id="burgCOA242" width="200" height="200" viewBox="0 10 200 200">
        <defs><clipPath id="spanish_burgCOA242"><path d="m25,25 h150 v100 a75,75,0,0,1,-150,0 z"></path></clipPath><clipPath id="divisionClip_burgCOA242"><path d="m 200,100 -7,-5 4,10 -7,-5 -7,5 4,-10 -7,5 -7,-5 4,10 -7,-5 -7,5 4,-10 -7,5 -7,-5 4,10 -7,-5 -7,5 4,-10 -7,5 -7,-5 4,10 -7,-5 -7,5 4,-10 -7,5 -7,-5 4,10 -7,-5 -7,5 4,-10 -7,5 -7,-5 4,10 -7,-5 -7,5 4,-10 -7,5 -7,-5 4,10 -7,-5 -7,5 4,-10 -7,5 -7,-5 4,10 -7,-5 -7,5 4,-10 -7,5 -7,-5 4,10 -7,-5 -7,5 4,-10 -7,5 -7,-5 4,10 -7,-5 -7,5 4,-10 -7,5 v 15 h 200"></path><rect x="0" y="115" width="200" height="85" shape-rendering="crispedges"></rect></clipPath><g id="mullet_burgCOA242"><polygon points="100 60 108.98 87.64 138.04 87.64 114.53 104.72 123.51 132.36 100 115.28 76.49 132.36 85.47 104.72 61.96 87.64 91.02 87.64"></polygon></g><radialGradient id="backlight_burgCOA242" cx="100%" cy="100%" r="150%"><stop stop-color="#fff" stop-opacity=".3" offset="0"></stop><stop stop-color="#fff" stop-opacity=".15" offset=".25"></stop><stop stop-color="#000" stop-opacity="0" offset="1"></stop></radialGradient></defs>
        <g clip-path="url(#spanish_burgCOA242)"><rect x="0" y="0" width="200" height="200" fill="#377cd7"></rect><g fill="#fafafa" stroke="#000"><use href="#mullet_burgCOA242" transform="translate(-7.4999999999999964 -7.4999999999999964) scale(0.7)"></use><use href="#mullet_burgCOA242" transform="translate(67.5 -7.4999999999999964) scale(0.7)"></use><use href="#mullet_burgCOA242" transform="translate(30.000000000000004 80) scale(0.7)"></use></g><g clip-path="url(#divisionClip_burgCOA242)"><rect x="0" y="0" width="200" height="200" fill="#fafafa"></rect><g fill="#377cd7" stroke="#000"><use href="#mullet_burgCOA242" transform="translate(-7.4999999999999964 -7.4999999999999964) scale(0.7)"></use><use href="#mullet_burgCOA242" transform="translate(67.5 -7.4999999999999964) scale(0.7)"></use><use href="#mullet_burgCOA242" transform="translate(30.000000000000004 80) scale(0.7)"></use></g></g></g>
        <path d="m25,25 h150 v100 a75,75,0,0,1,-150,0 z" fill="url(#backlight_burgCOA242)" stroke="#333"></path></svg>