<svg xmlns="http://www.w3.org/2000/svg" id="burgCOA381" width="200" height="200" viewBox="0 0 200 200">
        <defs><clipPath id="boeotian_burgCOA381"><path d="M150 115c-5 0-10-5-10-15s5-15 10-15c10 0 7 10 15 10 10 0 0-30 0-30-10-25-30-55-65-55S45 40 35 65c0 0-10 30 0 30 8 0 5-10 15-10 5 0 10 5 10 15s-5 15-10 15c-10 0-7-10-15-10-10 0 0 30 0 30 10 25 30 55 65 55s55-30 65-55c0 0 10-30 0-30-8 0-5 10-15 10z"></path></clipPath><radialGradient id="backlight_burgCOA381" cx="100%" cy="100%" r="150%"><stop stop-color="#fff" stop-opacity=".3" offset="0"></stop><stop stop-color="#fff" stop-opacity=".15" offset=".25"></stop><stop stop-color="#000" stop-opacity="0" offset="1"></stop></radialGradient></defs>
        <g clip-path="url(#boeotian_burgCOA381)"><rect x="0" y="0" width="200" height="200" fill="#26c061"></rect><g fill="#ffe066" stroke="none"><path d="M0,102.5 a6.25,6.25,0,0,1,12.5,0 a6.25,6.25,0,0,1,12.5,0 a6.25,6.25,0,0,1,12.5,0 a6.25,6.25,0,0,1,12.5,0 a6.25,6.25,0,0,1,12.5,0 a6.25,6.25,0,0,1,12.5,0 a6.25,6.25,0,0,1,12.5,0 a6.25,6.25,0,0,1,12.5,0 a6.25,6.25,0,0,1,12.5,0 a6.25,6.25,0,0,1,12.5,0 a6.25,6.25,0,0,1,12.5,0 a6.25,6.25,0,0,1,12.5,0 a6.25,6.25,0,0,1,12.5,0 a6.25,6.25,0,0,1,12.5,0 a6.25,6.25,0,0,1,12.5,0 a6.25,6.25,0,0,1,12.5,0 v12.5 H0 z" transform="translate(0,50)"></path><rect x="0" y="164" width="200" height="36" stroke="none"></rect></g></g>
        <path d="M150 115c-5 0-10-5-10-15s5-15 10-15c10 0 7 10 15 10 10 0 0-30 0-30-10-25-30-55-65-55S45 40 35 65c0 0-10 30 0 30 8 0 5-10 15-10 5 0 10 5 10 15s-5 15-10 15c-10 0-7-10-15-10-10 0 0 30 0 30 10 25 30 55 65 55s55-30 65-55c0 0 10-30 0-30-8 0-5 10-15 10z" fill="url(#backlight_burgCOA381)" stroke="#333"></path></svg>