<svg xmlns="http://www.w3.org/2000/svg" id="burgCOA699" width="200" height="200" viewBox="0 10 200 200">
        <defs><clipPath id="french_burgCOA699"><path d="m 25,25 h 150 v 139.15 c 0,41.745 -66,18.15 -75,36.3 -9,-18.15 -75,5.445 -75,-36.3 v 0 z"></path></clipPath><clipPath id="divisionClip_burgCOA699"><polygon points="0,0 100,100 200,0"></polygon></clipPath><g id="trianglePierced_burgCOA699"><path d="M100 60l35 70H65zm0 20l-20 40h40z"></path></g><radialGradient id="backlight_burgCOA699" cx="100%" cy="100%" r="150%"><stop stop-color="#fff" stop-opacity=".3" offset="0"></stop><stop stop-color="#fff" stop-opacity=".15" offset=".25"></stop><stop stop-color="#000" stop-opacity="0" offset="1"></stop></radialGradient></defs>
        <g clip-path="url(#french_burgCOA699)"><rect x="0" y="0" width="200" height="200" fill="#ffe066"></rect><g fill="#d7374a" stroke="#000"><use href="#trianglePierced_burgCOA699" transform="translate(60 10) scale(0.4)"></use><use href="#trianglePierced_burgCOA699" transform="translate(16.25 60) scale(0.4)"></use><use href="#trianglePierced_burgCOA699" transform="translate(60 60) scale(0.4)"></use><use href="#trianglePierced_burgCOA699" transform="translate(103.75 60) scale(0.4)"></use><use href="#trianglePierced_burgCOA699" transform="translate(60 110) scale(0.4)"></use></g><g clip-path="url(#divisionClip_burgCOA699)"><rect x="0" y="0" width="200" height="200" fill="#d7374a"></rect><g fill="#ffe066" stroke="#000"><use href="#trianglePierced_burgCOA699" transform="translate(60 10) scale(0.4)"></use><use href="#trianglePierced_burgCOA699" transform="translate(16.25 60) scale(0.4)"></use><use href="#trianglePierced_burgCOA699" transform="translate(60 60) scale(0.4)"></use><use href="#trianglePierced_burgCOA699" transform="translate(103.75 60) scale(0.4)"></use><use href="#trianglePierced_burgCOA699" transform="translate(60 110) scale(0.4)"></use></g></g></g>
        <path d="m 25,25 h 150 v 139.15 c 0,41.745 -66,18.15 -75,36.3 -9,-18.15 -75,5.445 -75,-36.3 v 0 z" fill="url(#backlight_burgCOA699)" stroke="#333"></path></svg>