<svg id="coa831219814" width="500" height="500" viewBox="0 10 200 200" xmlns="http://www.w3.org/2000/svg" xmlns:x="http://www.w3.org/1999/xlink"><defs><clipPath id="spanish_coa831219814"><path d="m25,25 h150 v100 a75,75,0,0,1,-150,0 z"/></clipPath><clipPath id="divisionClip_coa831219814"><path d="m 200,100 -7,-5 4,10 -7,-5 -7,5 4,-10 -7,5 -7,-5 4,10 -7,-5 -7,5 4,-10 -7,5 -7,-5 4,10 -7,-5 -7,5 4,-10 -7,5 -7,-5 4,10 -7,-5 -7,5 4,-10 -7,5 -7,-5 4,10 -7,-5 -7,5 4,-10 -7,5 -7,-5 4,10 -7,-5 -7,5 4,-10 -7,5 -7,-5 4,10 -7,-5 -7,5 4,-10 -7,5 -7,-5 4,10 -7,-5 -7,5 4,-10 -7,5 -7,-5 4,10 -7,-5 -7,5 4,-10 -7,5 -7,-5 4,10 -7,-5 -7,5 4,-10 -7,5 v 15 h 200"/><rect x="0" y="115" width="200" height="85" shape-rendering="crispedges"/></clipPath><g id="mullet_coa831219814"><polygon points="100 60 108.98 87.64 138.04 87.64 114.53 104.72 123.51 132.36 100 115.28 76.49 132.36 85.47 104.72 61.96 87.64 91.02 87.64"/></g><radialGradient id="backlight" cx="100%" cy="100%" r="150%"><stop stop-color="#fff" stop-opacity=".3" offset="0"/><stop stop-color="#fff" stop-opacity=".15" offset=".25"/><stop stop-color="#000" stop-opacity="0" offset="1"/></radialGradient></defs><g clip-path="url(#spanish_coa831219814)"><rect x="0" y="0" width="200" height="200" fill="#377cd7"/><g fill="#fafafa" stroke="#000"><use x:href="#mullet_coa831219814" transform="translate(-7.5 -7.5) scale(0.7)"/><use x:href="#mullet_coa831219814" transform="translate(67.5 -7.5) scale(0.7)"/><use x:href="#mullet_coa831219814" transform="translate(30 80) scale(0.7)"/></g><g clip-path="url(#divisionClip_coa831219814)"><rect x="0" y="0" width="200" height="200" fill="#fafafa"/><g fill="#377cd7" stroke="#000"><use x:href="#mullet_coa831219814" transform="translate(-7.5 -7.5) scale(0.7)"/><use x:href="#mullet_coa831219814" transform="translate(67.5 -7.5) scale(0.7)"/><use x:href="#mullet_coa831219814" transform="translate(30 80) scale(0.7)"/></g></g></g><path d="m25,25 h150 v100 a75,75,0,0,1,-150,0 z" fill="url(#backlight)" stroke="#333"/></svg>