<svg id="coa875051135" width="500" height="500" viewBox="0 0 200 200" xmlns="http://www.w3.org/2000/svg"><defs><clipPath id="boeotian_coa875051135"><path d="M150 115c-5 0-10-5-10-15s5-15 10-15c10 0 7 10 15 10 10 0 0-30 0-30-10-25-30-55-65-55S45 40 35 65c0 0-10 30 0 30 8 0 5-10 15-10 5 0 10 5 10 15s-5 15-10 15c-10 0-7-10-15-10-10 0 0 30 0 30 10 25 30 55 65 55s55-30 65-55c0 0 10-30 0-30-8 0-5 10-15 10z"/></clipPath><clipPath id="divisionClip_coa875051135"><path d="m 100,95 c 40,-0.2 100,20 100,20 H 0 c 0,0 60,-19.8 100,-20 z" transform="rotate(-90 100 100)"/><rect x="115" y="0" width="85" height="200" shape-rendering="crispedges"/></clipPath><radialGradient id="backlight" cx="100%" cy="100%" r="150%"><stop stop-color="#fff" stop-opacity=".3" offset="0"/><stop stop-color="#fff" stop-opacity=".15" offset=".25"/><stop stop-color="#000" stop-opacity="0" offset="1"/></radialGradient></defs><g clip-path="url(#boeotian_coa875051135)"><rect x="0" y="0" width="200" height="200" fill="#377cd7"/><g fill="#fafafa" stroke="none"><path d="m 0,85 c 0,0 60,20.2 100,20 40,-0.2 100,-20 100,-20 v 30 H 0 Z" transform="translate(0 -14.5)"/><path d="m 0,85 c 0,0 60,20.2 100,20 40,-0.2 100,-20 100,-20 v 30 H 0 Z" transform="rotate(180 100 100) translate(0 -14.5)"/><path d="m 0,85 c 0,0 60,20.2 100,20 40,-0.2 100,-20 100,-20 v 30 H 0 Z" transform="rotate(-90 100 100) translate(0 -14.5)"/><path d="m 0,85 c 0,0 60,20.2 100,20 40,-0.2 100,-20 100,-20 v 30 H 0 Z" transform="rotate(-270 100 100) translate(0 -14.5)"/></g><g clip-path="url(#divisionClip_coa875051135)"><rect x="0" y="0" width="200" height="200" fill="#fafafa"/><g fill="#377cd7" stroke="none"><path d="m 0,85 c 0,0 60,20.2 100,20 40,-0.2 100,-20 100,-20 v 30 H 0 Z" transform="translate(0 -14.5)"/><path d="m 0,85 c 0,0 60,20.2 100,20 40,-0.2 100,-20 100,-20 v 30 H 0 Z" transform="rotate(180 100 100) translate(0 -14.5)"/><path d="m 0,85 c 0,0 60,20.2 100,20 40,-0.2 100,-20 100,-20 v 30 H 0 Z" transform="rotate(-90 100 100) translate(0 -14.5)"/><path d="m 0,85 c 0,0 60,20.2 100,20 40,-0.2 100,-20 100,-20 v 30 H 0 Z" transform="rotate(-270 100 100) translate(0 -14.5)"/></g></g></g><path d="M150 115c-5 0-10-5-10-15s5-15 10-15c10 0 7 10 15 10 10 0 0-30 0-30-10-25-30-55-65-55S45 40 35 65c0 0-10 30 0 30 8 0 5-10 15-10 5 0 10 5 10 15s-5 15-10 15c-10 0-7-10-15-10-10 0 0 30 0 30 10 25 30 55 65 55s55-30 65-55c0 0 10-30 0-30-8 0-5 10-15 10z" fill="url(#backlight)" stroke="#333"/></svg>