<svg id="coa43170199" width="500" height="500" viewBox="0 5 200 200" xmlns="http://www.w3.org/2000/svg" xmlns:x="http://www.w3.org/1999/xlink"><defs><clipPath id="renaissance_coa43170199"><path d="M 25,33.9 C 33.4,50.3 36.2,72.9 36.2,81.7 36.2,109.9 25,122.6 25,141 c 0,29.4 24.9,44.1 40.2,47.7 15.3,3.7 29.3,0 34.8,11.3 5.5,-11.3 19.6,-7.6 34.8,-11.3 C 150.1,185 175,170.3 175,141 c 0,-18.4 -11.2,-31.1 -11.2,-59.3 0,-8.8 2.8,-31.3 11.2,-47.7 L 155.7,14.4 C 138.2,21.8 119.3,25.7 100,25.7 c -19.3,0 -38.2,-3.9 -55.7,-11.3 z"/></clipPath><clipPath id="divisionClip_coa43170199"><rect x="100" y="0" width="100" height="100"/><rect x="0" y="100" width="100" height="100"/></clipPath><g id="crossArrowed_coa43170199" stroke-width=".5"><path d="M100 60L84 76h8v16H76v-8l-16 16 16 16v-8h16v16h-8l16 16 16-16h-8v-16h16v8l16-16-16-16v8h-16V76h8l-16-16z"/></g><radialGradient id="backlight" cx="100%" cy="100%" r="150%"><stop stop-color="#fff" stop-opacity=".3" offset="0"/><stop stop-color="#fff" stop-opacity=".15" offset=".25"/><stop stop-color="#000" stop-opacity="0" offset="1"/></radialGradient></defs><g clip-path="url(#renaissance_coa43170199)"><rect x="0" y="0" width="200" height="200" fill="#fafafa"/><g clip-path="url(#divisionClip_coa43170199)"><rect x="0" y="0" width="200" height="200" fill="#522d5b"/></g><g fill="#d7374a" stroke="none"><path d="M 25,33.9 C 33.4,50.3 36.2,72.9 36.2,81.7 36.2,109.9 25,122.6 25,141 c 0,29.4 24.9,44.1 40.2,47.7 15.3,3.7 29.3,0 34.8,11.3 5.5,-11.3 19.6,-7.6 34.8,-11.3 C 150.1,185 175,170.3 175,141 c 0,-18.4 -11.2,-31.1 -11.2,-59.3 0,-8.8 2.8,-31.3 11.2,-47.7 L 155.7,14.4 C 138.2,21.8 119.3,25.7 100,25.7 c -19.3,0 -38.2,-3.9 -55.7,-11.3 z" fill="none" stroke="#d7374a" stroke-width="16.7%"/></g><g fill="#fafafa" stroke="#000"><use x:href="#crossArrowed_coa43170199" transform="translate(21 27) scale(0.18)"/><use x:href="#crossArrowed_coa43170199" transform="translate(59 15) scale(0.18)"/><use x:href="#crossArrowed_coa43170199" transform="translate(105 15) scale(0.18)"/><use x:href="#crossArrowed_coa43170199" transform="translate(143 27) scale(0.18)"/><use x:href="#crossArrowed_coa43170199" transform="translate(137 71) scale(0.18)"/><use x:href="#crossArrowed_coa43170199" transform="translate(147 113) scale(0.18)"/><use x:href="#crossArrowed_coa43170199" transform="translate(127 158) scale(0.18)"/><use x:href="#crossArrowed_coa43170199" transform="translate(82 169) scale(0.18)"/><use x:href="#crossArrowed_coa43170199" transform="translate(37 158) scale(0.18)"/><use x:href="#crossArrowed_coa43170199" transform="translate(17 113) scale(0.18)"/><use x:href="#crossArrowed_coa43170199" transform="translate(27 71) scale(0.18)"/></g></g><path d="M 25,33.9 C 33.4,50.3 36.2,72.9 36.2,81.7 36.2,109.9 25,122.6 25,141 c 0,29.4 24.9,44.1 40.2,47.7 15.3,3.7 29.3,0 34.8,11.3 5.5,-11.3 19.6,-7.6 34.8,-11.3 C 150.1,185 175,170.3 175,141 c 0,-18.4 -11.2,-31.1 -11.2,-59.3 0,-8.8 2.8,-31.3 11.2,-47.7 L 155.7,14.4 C 138.2,21.8 119.3,25.7 100,25.7 c -19.3,0 -38.2,-3.9 -55.7,-11.3 z" fill="url(#backlight)" stroke="#333"/></svg>