<svg id="coa103342361" width="500" height="500" viewBox="0 5 200 200" xmlns="http://www.w3.org/2000/svg" xmlns:x="http://www.w3.org/1999/xlink"><defs><clipPath id="renaissance_coa103342361"><path d="M 25,33.9 C 33.4,50.3 36.2,72.9 36.2,81.7 36.2,109.9 25,122.6 25,141 c 0,29.4 24.9,44.1 40.2,47.7 15.3,3.7 29.3,0 34.8,11.3 5.5,-11.3 19.6,-7.6 34.8,-11.3 C 150.1,185 175,170.3 175,141 c 0,-18.4 -11.2,-31.1 -11.2,-59.3 0,-8.8 2.8,-31.3 11.2,-47.7 L 155.7,14.4 C 138.2,21.8 119.3,25.7 100,25.7 c -19.3,0 -38.2,-3.9 -55.7,-11.3 z"/></clipPath><g id="tower_coa103342361" stroke-width="3" transform="matrix(.10915 0 0 .1094 43 58)"><path d="M643 556l39 43v104c0 30-82 45-160 45s-160-15-160-45V599l38-43h243z"/><path d="m405 177-5 379c20 19 102 20 122 20 55 0 121-10 121-20-1.7-126-3.3-253-5-379m-76-114v-38l-80-1v40l-63 5v-39c-35 5-60 12-60 20l-1 85 0.8 6.7c104-12 222-17 325 0.26v-93c0-7-25-14-60-19v39"/><path d="m358 54v-19c12-7 34-14 63-14v16c-33 0-58 13-63 17zm326 89c0-13-84-26-163-26s-162 13-162 26l40 39c0-7 57-16 123-16s123 12 123 16z"/><path d="m650 188c-3.1 3.6-6.6 4.5-10 3 0 0-28-14-119-14-40-0.23-80 4.5-119 14-5.9 1.3-8.1-0.56-10-4-1-3 0-7 4-9 1-1 30-16 125-16 41 2.6 87-1 126 16 3.1 3.5 4.5 6.6 3 10z"/><path d="m563 33s-20-2-41-2c-22 0-42 1-42 2l-1-16c28-2.1 57-2.1 85 0zm122 21-0.057-19c-12-7-34-14-63-14v16c33 0 57 13 63 17z"/><g fill="none"><path d="m362 599c0 18 81 31 160 31s160-17 160-31m-320 56c0 18 81 31 160 31s160-17 160-31"/><path d="M419 69c-35 5-60 12-60 19m325 0c0-7-25-14-60-19a750 750 0 00-142-6"/><path d="m404 233c1-1 28-9 117-9s116 8 118 9m-235 55c1-1 28-6 117-6s116 5 118 6m-235 54c1 0 28-3 117-3s116 3 118 3m2 53c-2 0-31 2-120 2s-118-2-119-3m240 56c-2 0-32 6-121 6s-119-6-120-6m240 59c-2 0-29 7-120 7-90 0-118-7-119-7"/><path d="m598 66v55m-147-55v55m71 219v-58m91 58v-56m-183 56v-56m46 113v-57m91 57v-56m-45-117v-47m87 51v-44m-175 44v-44m42 98v-58m91 58v-57m-45 230v-58m91 57v-57m-183 57v-57m46 119v-61m91 60v-59m46 113v-55m-183 55v-55m92 118v-58m0 174v-59m-121-13v-57m242 55v-57m-35-449 22-42m-76 36 5-44m-128 50-22-42m76 36-5-44"/></g><path d="m508 748h28l31-2v-182c0-27-20-46-46-46-25 0-46 19-46 46v182l33 2zm40-480c0-14 11-28 24-28 14 0 24 14 24 28v87h-48v-87zm-102 0c0-14 11-28 24-28s24 14 24 28v87h-48v-87z" fill="#0D6793"/></g><radialGradient id="backlight" cx="100%" cy="100%" r="150%"><stop stop-color="#fff" stop-opacity=".3" offset="0"/><stop stop-color="#fff" stop-opacity=".15" offset=".25"/><stop stop-color="#000" stop-opacity="0" offset="1"/></radialGradient></defs><g clip-path="url(#renaissance_coa103342361)"><rect x="0" y="0" width="200" height="200" fill="#522d5b"/><g fill="#ffe066" stroke="none"><path d="m 0,100 h 85 l 15,-15 15,15 h 85 v 15 H 0 Z" transform="translate(0 -25)"/><path d="m 0,100 h 85 l 15,-15 15,15 h 85 v 15 H 0 Z" transform="translate(0 25) rotate(180 100 100)"/><rect x="0" y="88" width="200" height="24" stroke="none"/></g><g fill="#522d5b" stroke="#000"><use x:href="#tower_coa103342361" transform="translate(30 30) scale(0.7)"/></g></g><path d="M 25,33.9 C 33.4,50.3 36.2,72.9 36.2,81.7 36.2,109.9 25,122.6 25,141 c 0,29.4 24.9,44.1 40.2,47.7 15.3,3.7 29.3,0 34.8,11.3 5.5,-11.3 19.6,-7.6 34.8,-11.3 C 150.1,185 175,170.3 175,141 c 0,-18.4 -11.2,-31.1 -11.2,-59.3 0,-8.8 2.8,-31.3 11.2,-47.7 L 155.7,14.4 C 138.2,21.8 119.3,25.7 100,25.7 c -19.3,0 -38.2,-3.9 -55.7,-11.3 z" fill="url(#backlight)" stroke="#333"/></svg>