<svg id="coa119283715" width="500" height="500" viewBox="0 5 200 200" xmlns="http://www.w3.org/2000/svg" xmlns:x="http://www.w3.org/1999/xlink"><defs><clipPath id="renaissance_coa119283715"><path d="M 25,33.9 C 33.4,50.3 36.2,72.9 36.2,81.7 36.2,109.9 25,122.6 25,141 c 0,29.4 24.9,44.1 40.2,47.7 15.3,3.7 29.3,0 34.8,11.3 5.5,-11.3 19.6,-7.6 34.8,-11.3 C 150.1,185 175,170.3 175,141 c 0,-18.4 -11.2,-31.1 -11.2,-59.3 0,-8.8 2.8,-31.3 11.2,-47.7 L 155.7,14.4 C 138.2,21.8 119.3,25.7 100,25.7 c -19.3,0 -38.2,-3.9 -55.7,-11.3 z"/></clipPath><g id="crossFleury_coa119283715" stroke-width=".5"><path d="M95.2 125.9a2.6 2.6 0 01-2.6 2.6 2.6 2.6 0 01-2.6-2.6 4.8 4.8 0 00-1.7 3.7 4.8 4.8 0 004.8 4.8 4.8 4.8 0 003-1.1 7.8 7.8 0 003.9 6.8 7.8 7.8 0 003.9-6.8 4.8 4.8 0 003 1.1 4.8 4.8 0 004.8-4.8 4.8 4.8 0 00-1.7-3.7 2.6 2.6 0 01-2.6 2.6 2.6 2.6 0 01-2.6-2.6v-21.1h21.1a2.6 2.6 0 012.6 2.6 2.6 2.6 0 01-2.6 2.6 4.8 4.8 0 003.7 1.7 4.8 4.8 0 004.8-4.8 4.8 4.8 0 00-1.1-3 7.8 7.8 0 006.8-3.9 7.8 7.8 0 00-6.8-3.9 4.8 4.8 0 001.1-3 4.8 4.8 0 00-4.8-4.8 4.8 4.8 0 00-3.7 1.7 2.6 2.6 0 012.6 2.6 2.6 2.6 0 01-2.6 2.6h-21.1V74.1a2.6 2.6 0 012.6-2.6 2.6 2.6 0 012.6 2.6 4.8 4.8 0 001.7-3.7 4.8 4.8 0 00-4.8-4.8 4.8 4.8 0 00-3 1.1A7.8 7.8 0 00100 60a7.8 7.8 0 00-3.9 6.8 4.8 4.8 0 00-3-1.1 4.8 4.8 0 00-4.8 4.8 4.8 4.8 0 001.7 3.7 2.6 2.6 0 012.6-2.6 2.6 2.6 0 012.6 2.6v21H74.1a2.6 2.6 0 01-2.6-2.6 2.6 2.6 0 012.6-2.6 4.8 4.8 0 00-3.7-1.7 4.8 4.8 0 00-4.8 4.8 4.8 4.8 0 001.1 3A7.8 7.8 0 0060 100a7.8 7.8 0 006.8 3.9 4.8 4.8 0 00-1.1 3 4.8 4.8 0 004.8 4.8 4.8 4.8 0 003.7-1.7 2.6 2.6 0 01-2.6-2.6 2.6 2.6 0 012.6-2.6h21.1z"/></g><radialGradient id="backlight" cx="100%" cy="100%" r="150%"><stop stop-color="#fff" stop-opacity=".3" offset="0"/><stop stop-color="#fff" stop-opacity=".15" offset=".25"/><stop stop-color="#000" stop-opacity="0" offset="1"/></radialGradient></defs><g clip-path="url(#renaissance_coa119283715)"><rect x="0" y="0" width="200" height="200" fill="#377cd7"/><g fill="#fafafa" stroke="none"><polygon points="0,200 0,144 175,25 55,200"/></g><g fill="#d7374a" stroke="#000"><use x:href="#crossFleury_coa119283715" transform="translate(50 50) scale(0.5)"/><use x:href="#crossFleury_coa119283715" transform="translate(12.5 87.5) scale(0.5)"/></g></g><path d="M 25,33.9 C 33.4,50.3 36.2,72.9 36.2,81.7 36.2,109.9 25,122.6 25,141 c 0,29.4 24.9,44.1 40.2,47.7 15.3,3.7 29.3,0 34.8,11.3 5.5,-11.3 19.6,-7.6 34.8,-11.3 C 150.1,185 175,170.3 175,141 c 0,-18.4 -11.2,-31.1 -11.2,-59.3 0,-8.8 2.8,-31.3 11.2,-47.7 L 155.7,14.4 C 138.2,21.8 119.3,25.7 100,25.7 c -19.3,0 -38.2,-3.9 -55.7,-11.3 z" fill="url(#backlight)" stroke="#333"/></svg>