<svg id="coa726182454" width="500" height="500" viewBox="0 5 200 200" xmlns="http://www.w3.org/2000/svg" xmlns:x="http://www.w3.org/1999/xlink"><defs><clipPath id="renaissance_coa726182454"><path d="M 25,33.9 C 33.4,50.3 36.2,72.9 36.2,81.7 36.2,109.9 25,122.6 25,141 c 0,29.4 24.9,44.1 40.2,47.7 15.3,3.7 29.3,0 34.8,11.3 5.5,-11.3 19.6,-7.6 34.8,-11.3 C 150.1,185 175,170.3 175,141 c 0,-18.4 -11.2,-31.1 -11.2,-59.3 0,-8.8 2.8,-31.3 11.2,-47.7 L 155.7,14.4 C 138.2,21.8 119.3,25.7 100,25.7 c -19.3,0 -38.2,-3.9 -55.7,-11.3 z"/></clipPath><g id="fleurDeLis_coa726182454"><path d="M104.2 113.2c.1-5.4 1.5-10.5 4-15.3 6.6-13.8 26.6-13.5 22.2 3.4-1.6 6.2-7.2 9.9-13.7 10.5.5-1.6 3.1-7.4 1-8.6-3.4.1-7.6 6-8.6 8.7-.1.4-.1.9-.3 1.3"/><path d="M95.8 113.2c-.1-5.4-1.5-10.5-4-15.3-6.5-13.8-26.6-13.4-22.2 3.5 1.6 6.2 7.2 9.9 13.7 10.5-.5-1.6-3.1-7.4-1-8.6 3.4.1 7.6 6 8.6 8.7.1.4.1.9.3 1.3"/><path d="M99.6 60.5C92.7 68 88 76.6 90 86.7c1.1 5.6 3.8 10.7 5.7 16.1 1.2 3.4 1.5 6.9 1.3 10.4h5.9c-.3-3.6.4-7 1.3-10.4 1.8-5.4 4.5-10.5 5.7-16.1 2.1-10.4-2.9-18.3-9.5-26.2l-.4-.5z"/><path d="M92 117.4c-1.7 3.4-8.5 9.7-12.2 11.5-.9.5 4.5-.3 6.9-.7 3.2-.5 7.4-3 7.3-2.1 0 4 1.5 10.7 5.6 13.8l.4.3.4-.3c4-3.4 5.6-9.5 5.6-13.8-.1-.9 4.1 1.6 7.3 2.1 2.4.4 7.9 1.1 6.9.7-3.6-1.8-10.5-8.1-12.2-11.5z"/><rect width="28" height="5" x="86.4" y="112.6"/></g><radialGradient id="backlight" cx="100%" cy="100%" r="150%"><stop stop-color="#fff" stop-opacity=".3" offset="0"/><stop stop-color="#fff" stop-opacity=".15" offset=".25"/><stop stop-color="#000" stop-opacity="0" offset="1"/></radialGradient></defs><g clip-path="url(#renaissance_coa726182454)"><rect x="0" y="0" width="200" height="200" fill="#377cd7"/><g fill="#ffe066" stroke="none"><path d="m 200,90 -5,5 v 10 l -5,5 -5,-5 V 95 l -5,-5 -5,5 v 10 l -5,5 -5,-5 V 95 l -5,-5 -5,5 v 10 l -5,5 -5,-5 V 95 l -5,-5 -5,5 v 10 l -5,6 -5,-6 V 95 l -5,-5 -5,5 v 10 l -5,5 -5,-5 V 95 l -5,-5 -5,5 v 10 l -5,5 -5,-5 V 95 l -5,-5 -5,5 v 10 l -5,6 -5,-6 V 95 l -5,-5 -5,5 v 10 l -5,5 -5,-5 V 95 l -5,-5 -5,5 v 10 l -5,5 -5,-5 V 95 l -5,-5 -5,5 v 10 l -5,5 -5,-5 V 95 L 0,90 v 25 h 200" transform="translate(0 15) scale(1 .5)"/><path d="m 200,90 -5,5 v 10 l -5,5 -5,-5 V 95 l -5,-5 -5,5 v 10 l -5,5 -5,-5 V 95 l -5,-5 -5,5 v 10 l -5,5 -5,-5 V 95 l -5,-5 -5,5 v 10 l -5,6 -5,-6 V 95 l -5,-5 -5,5 v 10 l -5,5 -5,-5 V 95 l -5,-5 -5,5 v 10 l -5,5 -5,-5 V 95 l -5,-5 -5,5 v 10 l -5,6 -5,-6 V 95 l -5,-5 -5,5 v 10 l -5,5 -5,-5 V 95 l -5,-5 -5,5 v 10 l -5,5 -5,-5 V 95 l -5,-5 -5,5 v 10 l -5,5 -5,-5 V 95 L 0,90 v 25 h 200" transform="translate(0 85) rotate(180 100 50) scale(1 .5)"/><rect x="0" y="80" width="200" height="40"/></g><g fill="#377cd7" stroke="#000"><use x:href="#fleurDeLis_coa726182454" transform="translate(8.5 50) scale(0.5)"/><use x:href="#fleurDeLis_coa726182454" transform="translate(50 50) scale(0.5)"/><use x:href="#fleurDeLis_coa726182454" transform="translate(91.5 50) scale(0.5)"/></g></g><path d="M 25,33.9 C 33.4,50.3 36.2,72.9 36.2,81.7 36.2,109.9 25,122.6 25,141 c 0,29.4 24.9,44.1 40.2,47.7 15.3,3.7 29.3,0 34.8,11.3 5.5,-11.3 19.6,-7.6 34.8,-11.3 C 150.1,185 175,170.3 175,141 c 0,-18.4 -11.2,-31.1 -11.2,-59.3 0,-8.8 2.8,-31.3 11.2,-47.7 L 155.7,14.4 C 138.2,21.8 119.3,25.7 100,25.7 c -19.3,0 -38.2,-3.9 -55.7,-11.3 z" fill="url(#backlight)" stroke="#333"/></svg>