<svg id="coa702857102" width="500" height="500" viewBox="0 5 200 200" xmlns="http://www.w3.org/2000/svg" xmlns:x="http://www.w3.org/1999/xlink"><defs><clipPath id="renaissance_coa702857102"><path d="M 25,33.9 C 33.4,50.3 36.2,72.9 36.2,81.7 36.2,109.9 25,122.6 25,141 c 0,29.4 24.9,44.1 40.2,47.7 15.3,3.7 29.3,0 34.8,11.3 5.5,-11.3 19.6,-7.6 34.8,-11.3 C 150.1,185 175,170.3 175,141 c 0,-18.4 -11.2,-31.1 -11.2,-59.3 0,-8.8 2.8,-31.3 11.2,-47.7 L 155.7,14.4 C 138.2,21.8 119.3,25.7 100,25.7 c -19.3,0 -38.2,-3.9 -55.7,-11.3 z"/></clipPath><g id="pique_coa702857102"><path stroke-width=".5" d="M100 70c-5.7 10.3-25.2 19.8-25.2 32.8 0 6.2 5.6 11.1 12.6 11.1 4.4 0 8.4-2 10.6-5.1-.9 8.9-3.5 18.8-12.6 20.7h29.2c-9.2-1.9-11.7-11.8-12.6-20.7 2.2 3.1 6.2 5.1 10.6 5.1 7 0 12.6-5 12.6-11.1 0-13-19.5-22.5-25.2-32.8z"/></g><pattern id="masoned-argent-vert" width="0.125" height="0.125" viewBox="0 0 100 100" fill="none"><rect width="100" height="100" fill="#fafafa"/><rect width="100" height="50" stroke="#26c061" stroke-width="4"/><line x1="50" y1="50" x2="50" y2="100" stroke="#26c061" stroke-width="5"/></pattern><radialGradient id="backlight" cx="100%" cy="100%" r="150%"><stop stop-color="#fff" stop-opacity=".3" offset="0"/><stop stop-color="#fff" stop-opacity=".15" offset=".25"/><stop stop-color="#000" stop-opacity="0" offset="1"/></radialGradient></defs><g clip-path="url(#renaissance_coa702857102)"><rect x="0" y="0" width="200" height="200" fill="url(#masoned-argent-vert)"/><g fill="#522d5b" stroke="#000"><use x:href="#pique_coa702857102" transform="translate(-50 -50) scale(1.5)"/></g></g><path d="M 25,33.9 C 33.4,50.3 36.2,72.9 36.2,81.7 36.2,109.9 25,122.6 25,141 c 0,29.4 24.9,44.1 40.2,47.7 15.3,3.7 29.3,0 34.8,11.3 5.5,-11.3 19.6,-7.6 34.8,-11.3 C 150.1,185 175,170.3 175,141 c 0,-18.4 -11.2,-31.1 -11.2,-59.3 0,-8.8 2.8,-31.3 11.2,-47.7 L 155.7,14.4 C 138.2,21.8 119.3,25.7 100,25.7 c -19.3,0 -38.2,-3.9 -55.7,-11.3 z" fill="url(#backlight)" stroke="#333"/></svg>