<svg id="coa216078459" width="500" height="500" viewBox="0 5 200 200" xmlns="http://www.w3.org/2000/svg" xmlns:x="http://www.w3.org/1999/xlink"><defs><clipPath id="renaissance_coa216078459"><path d="M 25,33.9 C 33.4,50.3 36.2,72.9 36.2,81.7 36.2,109.9 25,122.6 25,141 c 0,29.4 24.9,44.1 40.2,47.7 15.3,3.7 29.3,0 34.8,11.3 5.5,-11.3 19.6,-7.6 34.8,-11.3 C 150.1,185 175,170.3 175,141 c 0,-18.4 -11.2,-31.1 -11.2,-59.3 0,-8.8 2.8,-31.3 11.2,-47.7 L 155.7,14.4 C 138.2,21.8 119.3,25.7 100,25.7 c -19.3,0 -38.2,-3.9 -55.7,-11.3 z"/></clipPath><g id="plough_coa216078459" stroke-width="3" transform="translate(30 25) scale(0.17)"><rect width="11.1" height="41" x="189" y="424" ry="5.55"/><path d="M540 322c-40 15-50 65-70 87-10 22-20 45-10 46 10 2 20-16 30-37s20-57 40-77c20-18 54-11 60-15s7-10 0-11-30 2-50 7z"/><path d="M560 364c0 3-10 7-10 11h-40c-10 0-10-2-10-5 0-4 0-6 10-6zm-30 35v11h-40c-10 0-10-2-10-5s0-6 10-6z"/><path d="M590 336c-40 10-60 58-70 78-20 20-40 41-20 44 10 3 20-14 30-33 10-20 30-54 60-70 20-16 56-8 60-9s6-7 0-10-40-3-60 0z"/><path d="M420 438c-10 96-30 118-60 127 20-21 30-46 30-80l10 2v-48z"/><path d="M500 425l-10-6c10 70-30 112-80 148 70-2 120-34 140-85-20 12-30 11-50 9 10-26 10-47 0-66z"/><path d="M570 438c-30-8-60-9-90-10-30-2-60 7-100 7-100 1-190 0-190 0-10 0-10 14 0 14h210c30 0 60-2 90 0 20 2 50 8 70 13 10 1 20-20 10-24z"/><path fill="#000" stroke="none" d="M524 500c-5 16-32 40-45 46 19-5 45-35 45-46z"/><path fill="#000" stroke="none" d="M401 491c-2 28-20 61-31 68 16-10 33-50 31-68z"/><path fill="none" d="M450 532l20 23"/><path fill="none" d="M460 540c20-12 30-27 40-49"/></g><radialGradient id="backlight" cx="100%" cy="100%" r="150%"><stop stop-color="#fff" stop-opacity=".3" offset="0"/><stop stop-color="#fff" stop-opacity=".15" offset=".25"/><stop stop-color="#000" stop-opacity="0" offset="1"/></radialGradient></defs><g clip-path="url(#renaissance_coa216078459)"><rect x="0" y="0" width="200" height="200" fill="#377cd7"/><g fill="#fafafa" stroke="none"><rect x="0" y="87.5" width="200" height="25"/></g><g fill="#d7374a" stroke="#000"><use x:href="#plough_coa216078459" transform="translate(88.5 70) scale(-0.3 0.3)"/><use x:href="#plough_coa216078459" transform="translate(130 70) scale(-0.3 0.3)"/><use x:href="#plough_coa216078459" transform="translate(171.5 70) scale(-0.3 0.3)"/></g></g><path d="M 25,33.9 C 33.4,50.3 36.2,72.9 36.2,81.7 36.2,109.9 25,122.6 25,141 c 0,29.4 24.9,44.1 40.2,47.7 15.3,3.7 29.3,0 34.8,11.3 5.5,-11.3 19.6,-7.6 34.8,-11.3 C 150.1,185 175,170.3 175,141 c 0,-18.4 -11.2,-31.1 -11.2,-59.3 0,-8.8 2.8,-31.3 11.2,-47.7 L 155.7,14.4 C 138.2,21.8 119.3,25.7 100,25.7 c -19.3,0 -38.2,-3.9 -55.7,-11.3 z" fill="url(#backlight)" stroke="#333"/></svg>