<svg id="coa133120338" width="500" height="500" viewBox="0 5 200 200" xmlns="http://www.w3.org/2000/svg" xmlns:x="http://www.w3.org/1999/xlink"><defs><clipPath id="renaissance_coa133120338"><path d="M 25,33.9 C 33.4,50.3 36.2,72.9 36.2,81.7 36.2,109.9 25,122.6 25,141 c 0,29.4 24.9,44.1 40.2,47.7 15.3,3.7 29.3,0 34.8,11.3 5.5,-11.3 19.6,-7.6 34.8,-11.3 C 150.1,185 175,170.3 175,141 c 0,-18.4 -11.2,-31.1 -11.2,-59.3 0,-8.8 2.8,-31.3 11.2,-47.7 L 155.7,14.4 C 138.2,21.8 119.3,25.7 100,25.7 c -19.3,0 -38.2,-3.9 -55.7,-11.3 z"/></clipPath><clipPath id="divisionClip_coa133120338"><rect x="100" y="0" width="100" height="92.5"/><rect x="0" y="107.5" width="100" height="92.5"/><path d="m 2.5,95 v 10 H 0 v 10 h 202.5 v -15 h 5 v -5 h -10 v 10 h -10 v -5 h 5 v -5 h -10 v 10 h -10 v -5 h 5 v -5 h -10 v 10 h -10 v -5 h 5 v -5 h -10 v 10 h -10 v -5 h 5 v -5 h -10 v 10 h -10 v -5 h 5 v -5 h -10 v 10 h -10 v -5 h 5 v -5 h -10 v 10 h -10 v -5 h 5 v -5 h -10 v 10 h -10 v -5 h 5 v -5 h -10 v 10 h -10 v -5 h 5 v -5 h -10 v 10 h -10 v -5 h 5 v -5 h -10 v 10 h -10 v -5 h 5 v -5 h -10 v 10 h -10 v -5 h 5 v -5 h -10 v 10 h -10 v -5 h 5 v -5 z" transform="translate(0 50) scale(.5001)"/><path d="m 2.5,95 v 10 H 0 v 10 h 202.5 v -15 h 5 v -5 h -10 v 10 h -10 v -5 h 5 v -5 h -10 v 10 h -10 v -5 h 5 v -5 h -10 v 10 h -10 v -5 h 5 v -5 h -10 v 10 h -10 v -5 h 5 v -5 h -10 v 10 h -10 v -5 h 5 v -5 h -10 v 10 h -10 v -5 h 5 v -5 h -10 v 10 h -10 v -5 h 5 v -5 h -10 v 10 h -10 v -5 h 5 v -5 h -10 v 10 h -10 v -5 h 5 v -5 h -10 v 10 h -10 v -5 h 5 v -5 h -10 v 10 h -10 v -5 h 5 v -5 h -10 v 10 h -10 v -5 h 5 v -5 h -10 v 10 h -10 v -5 h 5 v -5 z" transform="translate(200 150) scale(-.5)"/></clipPath><g id="buckle_coa133120338" stroke-width=".7"><path d="M117.2 134.72V65.9c0-1.92-1.53-2.96-3.44-2.96-1.92 0-3.46 1.04-3.46 2.96v68.82c0 1.92 1.54 2.96 3.46 2.96 1.91 0 3.45-1.04 3.45-2.96z"/><path d="M100.98 134.74c20.01 0 36.24-15.42 36.24-34.44S121 65.85 100.98 65.85c-20.02 0-36.25 15.43-36.25 34.45s16.23 34.44 36.25 34.44zm28.44-34.44c0 14.15-12.26 26.12-28.51 26.12S72.4 114.47 72.4 100.3s12.26-26.12 28.5-26.12 28.52 11.97 28.52 26.12z"/><path d="M110.75 105.86c-1.66-.4-2.2-1.42-2.25-2.56l-45.02 1.28-4.75-3.67a.76.76 0 010-1.18l4.75-3.67 45.02 1.28c.03-1.16.57-2.2 2.25-2.6l5.9-.76c.6-.07 1.22.24 1.5.78l2.04 3.88a3.8 3.8 0 010 3.29l-2.03 3.88c-.29.54-.9.88-1.52.78l-5.89-.73z"/></g><radialGradient id="backlight" cx="100%" cy="100%" r="150%"><stop stop-color="#fff" stop-opacity=".3" offset="0"/><stop stop-color="#fff" stop-opacity=".15" offset=".25"/><stop stop-color="#000" stop-opacity="0" offset="1"/></radialGradient></defs><g clip-path="url(#renaissance_coa133120338)"><rect x="0" y="0" width="200" height="200" fill="#fafafa"/><g clip-path="url(#divisionClip_coa133120338)"><rect x="0" y="0" width="200" height="200" fill="#d7374a"/></g><g fill="#522d5b" stroke="#000"><use x:href="#buckle_coa133120338" transform="translate(-50 -50) scale(1.5)"/></g></g><path d="M 25,33.9 C 33.4,50.3 36.2,72.9 36.2,81.7 36.2,109.9 25,122.6 25,141 c 0,29.4 24.9,44.1 40.2,47.7 15.3,3.7 29.3,0 34.8,11.3 5.5,-11.3 19.6,-7.6 34.8,-11.3 C 150.1,185 175,170.3 175,141 c 0,-18.4 -11.2,-31.1 -11.2,-59.3 0,-8.8 2.8,-31.3 11.2,-47.7 L 155.7,14.4 C 138.2,21.8 119.3,25.7 100,25.7 c -19.3,0 -38.2,-3.9 -55.7,-11.3 z" fill="url(#backlight)" stroke="#333"/></svg>