<svg id="coa646467312" width="500" height="500" viewBox="0 5 200 200" xmlns="http://www.w3.org/2000/svg" xmlns:x="http://www.w3.org/1999/xlink"><defs><clipPath id="renaissance_coa646467312"><path d="M 25,33.9 C 33.4,50.3 36.2,72.9 36.2,81.7 36.2,109.9 25,122.6 25,141 c 0,29.4 24.9,44.1 40.2,47.7 15.3,3.7 29.3,0 34.8,11.3 5.5,-11.3 19.6,-7.6 34.8,-11.3 C 150.1,185 175,170.3 175,141 c 0,-18.4 -11.2,-31.1 -11.2,-59.3 0,-8.8 2.8,-31.3 11.2,-47.7 L 155.7,14.4 C 138.2,21.8 119.3,25.7 100,25.7 c -19.3,0 -38.2,-3.9 -55.7,-11.3 z"/></clipPath><g id="lozenge_coa646467312"><polygon points="100 60 135 100 100 140 65 100"/></g><radialGradient id="backlight" cx="100%" cy="100%" r="150%"><stop stop-color="#fff" stop-opacity=".3" offset="0"/><stop stop-color="#fff" stop-opacity=".15" offset=".25"/><stop stop-color="#000" stop-opacity="0" offset="1"/></radialGradient></defs><g clip-path="url(#renaissance_coa646467312)"><rect x="0" y="0" width="200" height="200" fill="#377cd7"/><g fill="#fafafa" stroke="none"><path d="M0 115l-.1-6 .2.8c1.3-1 2.3-2.5 2.9-4.4.5-2 .4-3.9-.3-5.4-.7-1.5-.8-3.4-.3-5.4A9 9 0 015.5 90c-.7 1.5-.8 3.4-.3 5.4.5 2 1.7 3.6 3.1 4.6a9 9 0 013.1 4.6c.5 2 .4 3.9-.3 5.4a9 9 0 003.1-4.6c.5-2 .4-3.9-.3-5.4-.7-1.5-.8-3.4-.3-5.4.5-2 1.7-3.6 3.1-4.6-.7 1.5-.8 3.4-.3 5.4.5 2 1.7 3.6 3.1 4.6a9 9 0 013.1 4.6c.5 2 .4 3.9-.3 5.4a9 9 0 003.1-4.6c.5-2 .4-3.9-.3-5.4-.7-1.5-.8-3.4-.3-5.4.5-2 1.7-3.6 3.1-4.6-.7 1.5-.8 3.4-.3 5.4.5 2 1.7 3.6 3.1 4.6a9 9 0 013.1 4.6c.5 2 .4 3.9-.3 5.4a9 9 0 003.1-4.6c.5-2 .4-3.9-.3-5.4-.7-1.5-.8-3.4-.3-5.4.5-2 1.7-3.6 3.1-4.6-.7 1.5-.8 3.4-.3 5.4.5 2 1.7 3.6 3.1 4.6a9 9 0 013.1 4.6c.5 2 .4 3.9-.3 5.4a9 9 0 003.1-4.6c.5-2 .4-3.9-.3-5.4-.7-1.5-.8-3.4-.3-5.4.5-2 1.7-3.6 3.1-4.6-.7 1.5-.8 3.4-.3 5.4.5 2 1.7 3.6 3.1 4.6a9 9 0 013.1 4.6c.5 2 .4 3.9-.3 5.4a9 9 0 003.1-4.6c.5-2 .4-3.9-.3-5.4-.7-1.5-.8-3.4-.3-5.4.5-2 1.7-3.6 3.1-4.6-.7 1.5-.8 3.4-.3 5.4.5 2 1.7 3.6 3.1 4.6a9 9 0 013.1 4.6c.5 2 .4 3.9-.3 5.4a9 9 0 003.1-4.6c.5-2 .4-3.9-.3-5.4-.7-1.5-.8-3.4-.3-5.4.5-2 1.7-3.6 3.1-4.6-.7 1.5-.8 3.4-.3 5.4.5 2 1.7 3.6 3.1 4.6a9 9 0 013.1 4.6c.5 2 .4 3.9-.3 5.4a9 9 0 003.1-4.6c.5-2 .4-3.9-.3-5.4-.7-1.5-.8-3.4-.3-5.4.5-2 1.7-3.6 3.1-4.6-.7 1.5-.8 3.4-.3 5.4.5 2 1.7 3.6 3.1 4.6a9 9 0 013.1 4.6c.5 2 .4 3.9-.3 5.4a9 9 0 003.1-4.6c.5-2 .4-3.9-.3-5.4-.7-1.5-.8-3.4-.3-5.4.5-2 1.7-3.6 3.1-4.6-.7 1.5-.8 3.4-.3 5.4.5 2 2.1 3.1 3.1 4.6 1 1.6 2.4 3.1 2.7 4.8.3 1.7.3 3.3 0 5.2 1.3-1 2.6-2.7 3.2-4.6.5-2 .4-3.9-.3-5.4-.7-1.5-.8-3.4-.3-5.4.5-2 1.7-3.6 3.1-4.6-.7 1.5-.8 3.4-.3 5.4.5 2 1.7 3.6 3.1 4.6a9 9 0 013.1 4.6c.5 2 .4 3.9-.3 5.4a9 9 0 003.1-4.6c.5-2 .4-3.9-.3-5.4-.7-1.5-.8-3.4-.3-5.4.5-2 1.7-3.6 3.1-4.6-.7 1.5-.8 3.4-.3 5.4.5 2 1.7 3.6 3.1 4.6a9 9 0 013.1 4.6c.5 2 .4 3.9-.3 5.4a9 9 0 003.1-4.6c.5-2 .4-3.9-.3-5.4-.7-1.5-.8-3.4-.3-5.4.5-2 1.7-3.6 3.1-4.6-.7 1.5-.8 3.4-.3 5.4.5 2 1.7 3.6 3.1 4.6a9 9 0 013.1 4.6c.5 2 .4 3.9-.3 5.4a9 9 0 003.1-4.6c.5-2 .4-3.9-.3-5.4-.7-1.5-.8-3.4-.3-5.4.5-2 1.7-3.6 3.1-4.6-.7 1.5-.8 3.4-.3 5.4.5 2 1.7 3.6 3.1 4.6a9 9 0 013.1 4.6c.5 2 .4 3.9-.3 5.4a9 9 0 003.1-4.6c.5-2 .4-3.9-.3-5.4-.7-1.5-.8-3.4-.3-5.4.5-2 1.7-3.6 3.1-4.6-.7 1.5-.8 3.4-.3 5.4.5 2 1.7 3.6 3.1 4.6a9 9 0 013.1 4.6c.5 2 .4 3.9-.3 5.4a9 9 0 003.1-4.6c.5-2 .4-3.9-.3-5.4-.7-1.5-.8-3.4-.3-5.4.5-2 1.7-3.6 3.1-4.6-.7 1.5-.8 3.4-.3 5.4.5 2 1.7 3.6 3.1 4.6a9 9 0 013.1 4.6c.5 2 .4 3.9-.3 5.4a9 9 0 003.1-4.6c.5-2 .4-3.9-.3-5.4-.7-1.5-.8-3.4-.3-5.4.5-2 1.7-3.6 3.1-4.6-.7 1.5-.8 3.4-.3 5.4.5 2 1.7 3.6 3.1 4.6a9 9 0 013.1 4.6c.5 2 .4 3.9-.3 5.4a9 9 0 003.1-4.6c.5-2 .4-3.9-.3-5.4-.7-1.5-.8-3.4-.3-5.4.5-2 1.7-3.6 3.1-4.6-.7 1.5-.8 3.4-.3 5.4.5 2 1.7 3.6 3.1 4.6a9 9 0 013.1 4.6c.5 2 .4 3.9-.3 5.4a9 9 0 003.1-4.6c.5-2 .4-3.9-.3-5.4-.7-1.5-.8-3.4-.3-5.4.5-2 1.7-3.6 3.1-4.6-.7 1.5-.8 3.4-.3 5.4.75 2.79 2.72 4.08 4.45 5.82L200 115z" transform="translate(0,50)"/><rect x="0" y="164" width="200" height="36" stroke="none"/></g><g fill="#fafafa" stroke="#000"><use x:href="#lozenge_coa646467312" transform="translate(50 0) scale(0.5)"/><use x:href="#lozenge_coa646467312" transform="translate(8.5 50) scale(0.5)"/><use x:href="#lozenge_coa646467312" transform="translate(91.5 50) scale(0.5)"/></g></g><path d="M 25,33.9 C 33.4,50.3 36.2,72.9 36.2,81.7 36.2,109.9 25,122.6 25,141 c 0,29.4 24.9,44.1 40.2,47.7 15.3,3.7 29.3,0 34.8,11.3 5.5,-11.3 19.6,-7.6 34.8,-11.3 C 150.1,185 175,170.3 175,141 c 0,-18.4 -11.2,-31.1 -11.2,-59.3 0,-8.8 2.8,-31.3 11.2,-47.7 L 155.7,14.4 C 138.2,21.8 119.3,25.7 100,25.7 c -19.3,0 -38.2,-3.9 -55.7,-11.3 z" fill="url(#backlight)" stroke="#333"/></svg>