<svg id="coa80107807" width="500" height="500" viewBox="0 5 200 200" xmlns="http://www.w3.org/2000/svg" xmlns:x="http://www.w3.org/1999/xlink"><defs><clipPath id="renaissance_coa80107807"><path d="M 25,33.9 C 33.4,50.3 36.2,72.9 36.2,81.7 36.2,109.9 25,122.6 25,141 c 0,29.4 24.9,44.1 40.2,47.7 15.3,3.7 29.3,0 34.8,11.3 5.5,-11.3 19.6,-7.6 34.8,-11.3 C 150.1,185 175,170.3 175,141 c 0,-18.4 -11.2,-31.1 -11.2,-59.3 0,-8.8 2.8,-31.3 11.2,-47.7 L 155.7,14.4 C 138.2,21.8 119.3,25.7 100,25.7 c -19.3,0 -38.2,-3.9 -55.7,-11.3 z"/></clipPath><g id="mallet_coa80107807" stroke-width="3"><path d="M639.1-120.9v-123h-40.4v123c0 31.4-11.5 88.2-11.5 111.4 0 23.2 14.2 35.5 31.6 35.5 17.5 0 31.6-12.3 31.6-35.5.2-23.3-11.3-80-11.3-111.4zm-43-255c0-9.5 11.2-12.4 22.9-12.4s22.9 2.8 22.9 12.4l-3.8 51.3H600l-3.9-51.3z" transform="matrix(.1957 0 0 .193 -21 135)"/><path d="M618.9-357.3c-46.4 0-138.5 9.8-135.5 43.1 1.9 21.3 8.7 90.5 8.7 90.5 3.9 23.5 1.1 36.9 26 36.9 0 0 69.2-3 100.9-3 31.6 0 100.9 3 100.9 3 24.9 0 22-13.4 26-36.9 0 0 6.8-69.1 8.7-90.5 2.9-33.3-89.3-43.1-135.7-43.1z" transform="matrix(.1957 0 0 .193 -21 135)"/><path fill="#000" stroke="none" d="M77.1 71.8c14-4.1 33.1-4 46.7 0-13.5-3.2-32.9-3-46.7 0z"/></g><radialGradient id="backlight" cx="100%" cy="100%" r="150%"><stop stop-color="#fff" stop-opacity=".3" offset="0"/><stop stop-color="#fff" stop-opacity=".15" offset=".25"/><stop stop-color="#000" stop-opacity="0" offset="1"/></radialGradient></defs><g clip-path="url(#renaissance_coa80107807)"><rect x="0" y="0" width="200" height="200" fill="#377cd7"/><g fill="#fafafa" stroke="#000"><use x:href="#mallet_coa80107807" transform="translate(30 -7.5) scale(0.7)"/><use x:href="#mallet_coa80107807" transform="translate(30 67.5) scale(0.7)"/></g></g><path d="M 25,33.9 C 33.4,50.3 36.2,72.9 36.2,81.7 36.2,109.9 25,122.6 25,141 c 0,29.4 24.9,44.1 40.2,47.7 15.3,3.7 29.3,0 34.8,11.3 5.5,-11.3 19.6,-7.6 34.8,-11.3 C 150.1,185 175,170.3 175,141 c 0,-18.4 -11.2,-31.1 -11.2,-59.3 0,-8.8 2.8,-31.3 11.2,-47.7 L 155.7,14.4 C 138.2,21.8 119.3,25.7 100,25.7 c -19.3,0 -38.2,-3.9 -55.7,-11.3 z" fill="url(#backlight)" stroke="#333"/></svg>