<svg id="coa138463570" width="500" height="500" viewBox="0 5 200 200" xmlns="http://www.w3.org/2000/svg" xmlns:x="http://www.w3.org/1999/xlink"><defs><clipPath id="renaissance_coa138463570"><path d="M 25,33.9 C 33.4,50.3 36.2,72.9 36.2,81.7 36.2,109.9 25,122.6 25,141 c 0,29.4 24.9,44.1 40.2,47.7 15.3,3.7 29.3,0 34.8,11.3 5.5,-11.3 19.6,-7.6 34.8,-11.3 C 150.1,185 175,170.3 175,141 c 0,-18.4 -11.2,-31.1 -11.2,-59.3 0,-8.8 2.8,-31.3 11.2,-47.7 L 155.7,14.4 C 138.2,21.8 119.3,25.7 100,25.7 c -19.3,0 -38.2,-3.9 -55.7,-11.3 z"/></clipPath><clipPath id="divisionClip_coa138463570"><polygon points="0,0 0,200 200,0 200,200"/></clipPath><g id="crossTau_coa138463570" stroke-width=".5"><path d="M83.1 140c13.2-23.1 9.8-58.2 9.8-58.2-12-1.7-32.9 8.5-32.9 8.5s7.1-12.7 7.1-30.3c16 10.1 49.8 10.1 65.8 0 0 17.6 7.1 30.3 7.1 30.3s-20.9-10.2-32.9-8.5c0 0-3.4 35.1 9.9 58.2-11.4-5.3-24-4.8-33.9 0z"/></g><radialGradient id="backlight" cx="100%" cy="100%" r="150%"><stop stop-color="#fff" stop-opacity=".3" offset="0"/><stop stop-color="#fff" stop-opacity=".15" offset=".25"/><stop stop-color="#000" stop-opacity="0" offset="1"/></radialGradient></defs><g clip-path="url(#renaissance_coa138463570)"><rect x="0" y="0" width="200" height="200" fill="#fafafa"/><g fill="#377cd7" stroke="#000"><use x:href="#crossTau_coa138463570" transform="translate(50 0) scale(0.5)"/><use x:href="#crossTau_coa138463570" transform="translate(50 100) scale(0.5)"/></g><g clip-path="url(#divisionClip_coa138463570)"><rect x="0" y="0" width="200" height="200" fill="#377cd7"/><g fill="#fafafa" stroke="#000"><use x:href="#crossTau_coa138463570" transform="translate(50 0) scale(0.5)"/><use x:href="#crossTau_coa138463570" transform="translate(50 100) scale(0.5)"/></g></g></g><path d="M 25,33.9 C 33.4,50.3 36.2,72.9 36.2,81.7 36.2,109.9 25,122.6 25,141 c 0,29.4 24.9,44.1 40.2,47.7 15.3,3.7 29.3,0 34.8,11.3 5.5,-11.3 19.6,-7.6 34.8,-11.3 C 150.1,185 175,170.3 175,141 c 0,-18.4 -11.2,-31.1 -11.2,-59.3 0,-8.8 2.8,-31.3 11.2,-47.7 L 155.7,14.4 C 138.2,21.8 119.3,25.7 100,25.7 c -19.3,0 -38.2,-3.9 -55.7,-11.3 z" fill="url(#backlight)" stroke="#333"/></svg>