<svg id="coa230782123" width="500" height="500" viewBox="0 0 200 200" xmlns="http://www.w3.org/2000/svg" xmlns:x="http://www.w3.org/1999/xlink"><defs><clipPath id="boeotian_coa230782123"><path d="M150 115c-5 0-10-5-10-15s5-15 10-15c10 0 7 10 15 10 10 0 0-30 0-30-10-25-30-55-65-55S45 40 35 65c0 0-10 30 0 30 8 0 5-10 15-10 5 0 10 5 10 15s-5 15-10 15c-10 0-7-10-15-10-10 0 0 30 0 30 10 25 30 55 65 55s55-30 65-55c0 0 10-30 0-30-8 0-5 10-15 10z"/></clipPath><g id="pique_coa230782123"><path stroke-width=".5" d="M100 70c-5.7 10.3-25.2 19.8-25.2 32.8 0 6.2 5.6 11.1 12.6 11.1 4.4 0 8.4-2 10.6-5.1-.9 8.9-3.5 18.8-12.6 20.7h29.2c-9.2-1.9-11.7-11.8-12.6-20.7 2.2 3.1 6.2 5.1 10.6 5.1 7 0 12.6-5 12.6-11.1 0-13-19.5-22.5-25.2-32.8z"/></g><radialGradient id="backlight" cx="100%" cy="100%" r="150%"><stop stop-color="#fff" stop-opacity=".3" offset="0"/><stop stop-color="#fff" stop-opacity=".15" offset=".25"/><stop stop-color="#000" stop-opacity="0" offset="1"/></radialGradient></defs><g clip-path="url(#boeotian_coa230782123)"><rect x="0" y="0" width="200" height="200" fill="#377cd7"/><g fill="#fafafa" stroke="none"><polygon points="22,0 200,178 200,200 178,200 0,22 0,0"/></g><g fill="#522d5b" stroke="#000"><use x:href="#pique_coa230782123" transform="translate(45.5 40.5) scale(0.22)"/><use x:href="#pique_coa230782123" transform="translate(110.5 115.5) scale(0.22)"/><use x:href="#pique_coa230782123" transform="translate(78 78) scale(0.22)"/></g></g><path d="M150 115c-5 0-10-5-10-15s5-15 10-15c10 0 7 10 15 10 10 0 0-30 0-30-10-25-30-55-65-55S45 40 35 65c0 0-10 30 0 30 8 0 5-10 15-10 5 0 10 5 10 15s-5 15-10 15c-10 0-7-10-15-10-10 0 0 30 0 30 10 25 30 55 65 55s55-30 65-55c0 0 10-30 0-30-8 0-5 10-15 10z" fill="url(#backlight)" stroke="#333"/></svg>