<svg id="coa316171291" width="500" height="500" viewBox="0 0 200 200" xmlns="http://www.w3.org/2000/svg" xmlns:x="http://www.w3.org/1999/xlink"><defs><clipPath id="polish_coa316171291"><path d="m 90.3,6.3 c -12.7,0 -20.7,10.9 -40.5,14 0,11.8 -4.9,23.5 -11.4,31.1 0,0 12.7,6 12.7,19.3 C 51.1,90.8 30,90.8 30,90.8 c 0,0 -3.6,7.4 -3.6,22.4 0,34.3 23.1,60.2 40.7,68.2 17.6,8 27.7,11.4 32.9,18.6 5.2,-7.3 15.3,-10.7 32.8,-18.6 17.6,-8 40.7,-33.9 40.7,-68.2 0,-15 -3.6,-22.4 -3.6,-22.4 0,0 -21.1,0 -21.1,-20.1 0,-13.3 12.7,-19.3 12.7,-19.3 C 155.1,43.7 150.2,32.1 150.2,20.3 130.4,17.2 122.5,6.3 109.7,6.3 102.5,6.3 100,10 100,10 c 0,0 -2.5,-3.7 -9.7,-3.7 z"/></clipPath><g id="wheel_coa316171291" transform="translate(31.2 79.3) scale(.1296)" stroke-width="3"><path d="M478.6-3.4c13.1-7.8 29.4-33.7 29.4-49l-.2-45.3h44.5l-.2 45.3c0 15.3 16.2 41.2 29.4 49M581.6 1.1c-13.1 7.8-29.4 33.7-29.4 49l.2 45.3h-44.5l.2-45.3c0-15.3-16.2-41.2-29.4-49"/><path d="M581.6 5.1l-1.5-.2c-.2-.1-20-5.5-50-5.5-29.9 0-49.8 5.4-50 5.5-3 .8-6.1-.9-7-3.9-.8-3 .9-6.1 3.9-7 .9-.2 21.4-5.9 53-5.9s52.1 5.6 53 5.9c3 .8 4.8 4 3.9 7a5.4 5.4 0 01-5.3 4.1zM581.6 321.4c-13.1 7.8-29.4 33.7-29.4 49l.2 45.3h-44.5l.2-45.3c0-15.3-16.2-41.2-29.4-49M478.6 317c13.1-7.8 29.4-33.7 29.4-49l-.2-45.3h44.5l-.2 45.3c0 15.3 16.2 41.2 29.4 49"/><path d="M478.6 312.9l1.5.2c.2.1 20 5.5 50 5.5 29.9 0 49.8-5.4 50-5.5 3-.8 6.1.9 7 3.9.8 3-.9 6.1-3.9 7-.9.2-21.4 5.9-53 5.9s-52.1-5.6-53-5.9c-3-.8-4.8-4-3.9-7a5.6 5.6 0 015.3-4.1zM645 33.3c13.3 7.5 43.8 8.6 57.1 1l39.1-22.8L763.5 50s-23.7 13.4-39.3 22.5c-13.2 7.6-27.5 34.6-27.7 49.9M692.6 124.6c-13.3-7.5-43.8-8.6-57.1-1l-39.1 22.8-22.3-38.6s23.7-13.4 39.3-22.5c13.2-7.6 27.5-34.6 27.7-49.9"/><path d="M689.1 126.7c-.3-.4-.4-.9-.6-1.4-.1-.2-5.3-20.1-20.3-46a204.7 204.7 0 00-29.7-40.5 5.7 5.7 0 01-.1-8 5.7 5.7 0 018-.1c.6.6 15.8 15.6 31.6 43s21.2 48 21.4 48.8c.8 3-1 6.1-4.1 6.9-2.4.6-4.9-.6-6.2-2.7zM415.2 284.8c-13.3-7.5-43.8-8.6-57.1-1L319 306.6 296.7 268s23.7-13.4 39.3-22.5c13.2-7.6 27.5-34.6 27.7-49.9M367.6 193.4c13.3 7.5 43.8 8.6 57.1 1l39.1-22.8 22.3 38.6s-23.7 13.4-39.3 22.5c-13.2 7.6-27.5 34.6-27.7 49.9"/><path d="M371.1 191.4c.3.4.4.9.6 1.4.1.2 5.3 20.1 20.3 46s29.5 40.4 29.7 40.5a5.7 5.7 0 01.1 8 5.7 5.7 0 01-8 .1c-.6-.6-15.8-15.6-31.6-43s-21.2-48-21.4-48.8c-.8-3 1-6.1 4.1-6.9 2.4-.6 5 .6 6.2 2.7zM415.2 33.3c-13.3 7.5-43.8 8.6-57.1 1L319 11.5 296.7 50s23.7 13.4 39.3 22.5c13.2 7.6 27.5 34.6 27.7 49.9M367.6 124.6c13.3-7.5 43.8-8.6 57.1-1l39.1 22.8 22.3-38.6s-23.7-13.4-39.3-22.5c-13.2-7.6-27.5-34.6-27.7-49.9"/><path d="M371.1 126.7c.3-.4.4-.9.6-1.4.1-.2 5.3-20.1 20.3-46s29.5-40.4 29.7-40.5a5.7 5.7 0 00.1-8 5.7 5.7 0 00-8-.1c-.6.6-15.8 15.6-31.6 43s-21.2 48-21.4 48.8c-.8 3 1 6.1 4.1 6.9 2.4.6 5-.6 6.2-2.7zM645 284.8c13.3-7.5 43.8-8.6 57.1-1l39.1 22.8 22.3-38.6s-23.7-13.4-39.3-22.5c-13.2-7.6-27.5-34.6-27.7-49.9M692.6 193.4c-13.3 7.5-43.8 8.6-57.1 1l-39.1-22.8-22.3 38.6s23.7 13.4 39.3 22.5c13.2 7.6 27.5 34.6 27.7 49.9"/><path d="M689.1 191.4c-.3.4-.4.9-.6 1.4-.1.2-5.3 20.1-20.3 46a204.7 204.7 0 01-29.7 40.5 5.7 5.7 0 00-.1 8 5.7 5.7 0 008 .1c.6-.6 15.8-15.6 31.6-43s21.2-48 21.4-48.8c.8-3-1-6.1-4.1-6.9-2.4-.6-4.9.6-6.2 2.7z"/><path d="M679.2 417.5A298.2 298.2 0 11381-99a298.2 298.2 0 01298.2 516.5zm48-372.4a227.7 227.7 0 10-394.4 227.8A227.7 227.7 0 00727.2 45.1z"/><path d="m 530.1,52.5 c -52.3,0 -94.7,42.4 -94.7,94.7 0,52.3 42.4,94.7 94.7,94.7 52.3,0 94.7,-42.4 94.7,-94.7 0,-52.3 -42.4,-94.7 -94.7,-94.7 z m 0,48.1 c 25.7,0 46.6,20.8 46.6,46.6 0,25.7 -20.8,46.6 -46.6,46.6 -25.7,0 -46.6,-20.8 -46.6,-46.6 0,-25.7 20.8,-46.6 46.6,-46.6 z"/><g fill="none"><circle cx="530.1" cy="159.3" r="284.9"/><circle cx="304.1" cy="290.2" r="11.4"/><circle cx="757.8" cy="28.3" r="11.4"/><circle cx="530.9" cy="-102.7" r="11.4"/><circle cx="530.9" cy="421.2" r="11.4"/><circle cx="304.1" cy="28.3" r="11.4"/><circle cx="757.8" cy="290.3" r="11.4"/></g></g><radialGradient id="backlight" cx="100%" cy="100%" r="150%"><stop stop-color="#fff" stop-opacity=".3" offset="0"/><stop stop-color="#fff" stop-opacity=".15" offset=".25"/><stop stop-color="#000" stop-opacity="0" offset="1"/></radialGradient></defs><g clip-path="url(#polish_coa316171291)"><rect x="0" y="0" width="200" height="200" fill="#fafafa"/><g fill="#377cd7" stroke="#000"><use x:href="#wheel_coa316171291" transform="translate(22 7) scale(0.43)"/><use x:href="#wheel_coa316171291" transform="translate(57 7) scale(0.43)"/><use x:href="#wheel_coa316171291" transform="translate(92 7) scale(0.43)"/></g></g><path d="m 90.3,6.3 c -12.7,0 -20.7,10.9 -40.5,14 0,11.8 -4.9,23.5 -11.4,31.1 0,0 12.7,6 12.7,19.3 C 51.1,90.8 30,90.8 30,90.8 c 0,0 -3.6,7.4 -3.6,22.4 0,34.3 23.1,60.2 40.7,68.2 17.6,8 27.7,11.4 32.9,18.6 5.2,-7.3 15.3,-10.7 32.8,-18.6 17.6,-8 40.7,-33.9 40.7,-68.2 0,-15 -3.6,-22.4 -3.6,-22.4 0,0 -21.1,0 -21.1,-20.1 0,-13.3 12.7,-19.3 12.7,-19.3 C 155.1,43.7 150.2,32.1 150.2,20.3 130.4,17.2 122.5,6.3 109.7,6.3 102.5,6.3 100,10 100,10 c 0,0 -2.5,-3.7 -9.7,-3.7 z" fill="url(#backlight)" stroke="#333"/></svg>