<svg id="coa621267055" width="500" height="500" viewBox="0 0 200 200" xmlns="http://www.w3.org/2000/svg" xmlns:x="http://www.w3.org/1999/xlink"><defs><clipPath id="polish_coa621267055"><path d="m 90.3,6.3 c -12.7,0 -20.7,10.9 -40.5,14 0,11.8 -4.9,23.5 -11.4,31.1 0,0 12.7,6 12.7,19.3 C 51.1,90.8 30,90.8 30,90.8 c 0,0 -3.6,7.4 -3.6,22.4 0,34.3 23.1,60.2 40.7,68.2 17.6,8 27.7,11.4 32.9,18.6 5.2,-7.3 15.3,-10.7 32.8,-18.6 17.6,-8 40.7,-33.9 40.7,-68.2 0,-15 -3.6,-22.4 -3.6,-22.4 0,0 -21.1,0 -21.1,-20.1 0,-13.3 12.7,-19.3 12.7,-19.3 C 155.1,43.7 150.2,32.1 150.2,20.3 130.4,17.2 122.5,6.3 109.7,6.3 102.5,6.3 100,10 100,10 c 0,0 -2.5,-3.7 -9.7,-3.7 z"/></clipPath><g id="lozengeFaceted_coa621267055"><polygon points="100 55 130 100 100 145 70 100"/><g fill="#000" stroke="none"><polygon points="100 100 130 100 100 55" opacity=".2"/><polygon points="100 100 70 100 100 145" opacity=".2"/><polygon points="100 100 130 100 100 145" opacity=".3"/></g></g><radialGradient id="backlight" cx="100%" cy="100%" r="150%"><stop stop-color="#fff" stop-opacity=".3" offset="0"/><stop stop-color="#fff" stop-opacity=".15" offset=".25"/><stop stop-color="#000" stop-opacity="0" offset="1"/></radialGradient></defs><g clip-path="url(#polish_coa621267055)"><rect x="0" y="0" width="200" height="200" fill="#d7374a"/><g fill="#fafafa" stroke="none"><path d="m 100,95 c 40,-0.2 100,20 100,20 H 0 c 0,0 60,-19.8 100,-20 z" transform="translate(-28 -18) rotate(-45 110 100) scale(1.1 1)"/><path d="m 100,95 c 40,-0.2 100,20 100,20 H 0 c 0,0 60,-19.8 100,-20 z" transform="translate(8 18) rotate(-225 110 100) scale(1.1 1)"/><rect x="0" y="88" width="200" height="24" transform="translate(-10 0) rotate(-45 110 100) scale(1.1 1)" stroke="none"/></g><g fill="#377cd7" stroke="#000"><use x:href="#lozengeFaceted_coa621267055" transform="translate(84.5 29.5) scale(0.43)"/><use x:href="#lozengeFaceted_coa621267055" transform="translate(57 57) scale(0.43)"/><use x:href="#lozengeFaceted_coa621267055" transform="translate(29.5 84.5) scale(0.43)"/></g></g><path d="m 90.3,6.3 c -12.7,0 -20.7,10.9 -40.5,14 0,11.8 -4.9,23.5 -11.4,31.1 0,0 12.7,6 12.7,19.3 C 51.1,90.8 30,90.8 30,90.8 c 0,0 -3.6,7.4 -3.6,22.4 0,34.3 23.1,60.2 40.7,68.2 17.6,8 27.7,11.4 32.9,18.6 5.2,-7.3 15.3,-10.7 32.8,-18.6 17.6,-8 40.7,-33.9 40.7,-68.2 0,-15 -3.6,-22.4 -3.6,-22.4 0,0 -21.1,0 -21.1,-20.1 0,-13.3 12.7,-19.3 12.7,-19.3 C 155.1,43.7 150.2,32.1 150.2,20.3 130.4,17.2 122.5,6.3 109.7,6.3 102.5,6.3 100,10 100,10 c 0,0 -2.5,-3.7 -9.7,-3.7 z" fill="url(#backlight)" stroke="#333"/></svg>