<svg id="coa984798500" width="500" height="500" viewBox="0 10 200 200" xmlns="http://www.w3.org/2000/svg" xmlns:x="http://www.w3.org/1999/xlink"><defs><clipPath id="french_coa984798500"><path d="m 25,25 h 150 v 139.15 c 0,41.745 -66,18.15 -75,36.3 -9,-18.15 -75,5.445 -75,-36.3 v 0 z"/></clipPath><clipPath id="divisionClip_coa984798500"><path d="m 200,105 h -5 V 95 l -5,5 -5,-5 v 10 h -5 V 95 l -5,5 -5,-5 v 10 h -5 V 95 l -5,5 -5,-5 v 10 h -5 V 95 l -5,5 -5,-5 v 10 h -5 V 95 l -5,5 -5,-5 v 10 h -5 V 95 l -5,5 -5,-5 v 10 h -5 V 95 l -5,5 -5,-5 v 10 H 90 V 95 l -5,5 -5,-5 v 10 H 75 V 95 l -5,5 -5,-5 v 10 H 60 V 95 l -5,5 -5,-5 v 10 H 45 V 95 l -5,5 -5,-5 v 10 H 30 V 95 l -5,5 -5,-5 v 10 H 15 V 95 l -5,5 -5,-5 v 10 H 0 v 10 h 200" transform="rotate(-90 100 100)"/><rect x="115" y="0" width="85" height="200" shape-rendering="crispedges"/></clipPath><g id="armillarySphere_coa984798500" stroke-width=".375"><path d="M100 139.7v-2.2c5 0 11-4.2 15.6-10.8a47.3 47.3 0 00.2-53.2c-4.6-6.8-10.5-10.8-15.7-10.8v-2.2c6 0 12.5 4.4 17.6 11.7a49.4 49.4 0 01-.3 55.7c-5.1 7.4-11.6 11.8-17.3 11.8z"/><path d="M100 139.7v-2.2c1.4 0 4.7-2.9 7.9-10.6 1.8-4.6 5-14.2 5-26.8 0-12.8-3-22.3-5-26.8-2.9-7.3-6.1-10.6-7.8-10.6v-2.2c3.2 0 6.9 4.5 10 12 1.8 4.6 5 14.4 5 27.6 0 13-3.2 22.9-5.2 27.6-3.1 7.5-6.8 12-9.8 12z"/><path d="M100 139.7c-5.7 0-12.2-4.4-17.3-11.8a49.5 49.5 0 01-.2-55.7C87.5 65 94 60.5 100 60.5v2.2c-5.3 0-11.2 4-15.8 10.8a47.3 47.3 0 00.2 53.1c4.7 6.7 10.6 10.8 15.6 10.8v2.3z"/><path d="M100 139.7c-3 0-6.7-4.5-9.8-12a75.7 75.7 0 01-.1-55.3c3-7.4 6.8-12 10-12v2.3c-1.8 0-5 3.3-8 10.6a72 72 0 00-5 26.8c0 12.6 3.3 22.2 5.2 26.8 3.2 7.7 6.4 10.5 7.8 10.5v2.2z"/><path d="M72.8 72.1h55v2.2h-55z"/><path d="M64.6 85.5h71.2v2.2H64.6z"/><path d="M72.3 125.8h55v2.2h-55z"/><path d="M64.4 112.4h71v2.2h-71z"/><path d="M61.7 99h76.4v2.2H61.7z"/><path d="M100 139.7a39.6 39.6 0 11.1-79.3 39.6 39.6 0 010 79.3zm0-77a37.4 37.4 0 10.1 74.8 37.4 37.4 0 000-74.8z"/><path d="M64.4 81.3l66.6 44.6a41 41 0 004.8-7.1L69.2 74a40.8 40.8 0 00-4.8 7.2z"/><path d="M65.5 80l66.6 44.6"/><path d="M135 120.4l-67-45"/></g><g id="sunInSplendour_coa984798500" stroke-width=".5"><path d="M84.7 63c-1 3.9.1 7.1 2 10.1 1.5 2.3 2.4 4.8 2.4 7.5-.7.4-1.3.8-1.9 1.2L71.8 71.7l10.4 15.2c-.2.3-.4.5-.5.8-2.9-1.3-5.7-1.6-8.3-1.1-3.7.7-6.9-.1-10.2-2 2.1 3.5 5.1 5 8.6 5.7 2.7.6 5.1 1.7 7 3.6-.2.7-.4 1.5-.5 2.2l-18.1 3.7 18.1 3.5c0 .3.1.6.2.9-3 1.1-5.2 2.9-6.6 5.1-2.1 3.1-4.9 4.8-8.6 5.8 3.9 1 7.1-.1 10.1-2 2.3-1.5 4.8-2.4 7.5-2.4.4.7.8 1.3 1.2 1.9l-10.3 15.5 15.3-10.4c.3.2.5.4.8.5-1.3 2.9-1.6 5.7-1.1 8.3.7 3.7-.1 6.8-2 10.1 3.5-2.1 5-5.1 5.7-8.6.6-2.7 1.7-5.1 3.6-7 .7.2 1.5.4 2.2.5l3.7 18.1 3.5-18.1c.3 0 .6-.1.9-.2 1.1 3 2.9 5.2 5.1 6.6 3.1 2.1 4.8 4.9 5.8 8.6 1-3.9-.1-7.1-2-10.1-1.5-2.3-2.4-4.8-2.4-7.5.7-.4 1.3-.8 1.9-1.2l15.4 10.2-10.4-15.3c.2-.3.4-.5.5-.8 2.9 1.3 5.7 1.6 8.3 1.1 3.7-.7 6.8.1 10.1 2-2.1-3.5-5.1-4.9-8.6-5.7-2.7-.6-5.1-1.7-7-3.6.2-.7.4-1.5.5-2.2l18.1-3.7-18.1-3.5c0-.3-.1-.6-.2-.9 3-1.1 5.2-2.9 6.6-5.1 2.1-3.1 4.9-4.8 8.6-5.7-3.9-1-7.1.1-10.1 2-2.3 1.5-4.8 2.4-7.5 2.4-.4-.7-.8-1.3-1.2-1.9L128 71.6l-15.3 10.3c-.3-.2-.5-.4-.8-.5 1.3-2.9 1.6-5.7 1.1-8.3-.7-3.7.1-6.9 2-10.2-3.5 2.1-4.9 5.1-5.7 8.6-.6 2.7-1.7 5.2-3.7 7-.7-.2-1.5-.4-2.2-.5L100 60l-3.5 18.1c-.3 0-.6.1-.9.2-1.1-3-2.9-5.2-5.1-6.6-3.1-2.1-4.8-4.9-5.7-8.6z"/><g fill="#000" stroke="none"><path d="M96.2 110.6c2.4 1.9 4.2 2.1 6.6-.1-2.5-2.1-4-2.3-6.6.1z"/><path d="M90.4 100.4c.5-1.6-1.3-2.1-1.9-.9l-1-.5c2.1-2.4 4.5-2.6 6.9-1.4.8.2.8 1.3-1.1 1.5-1.2-.4.2 2.3-2.8 1.2z"/><path d="M89.3 95.1c1.8 0 3.4-1 5.8.8.4-1-2.9-2.8-5.8-.8z"/><path d="M103.3 96.1c1.7-.6 2.9-2 5.8-1.1.1-1.1-3.7-1.7-5.8 1.1z"/><path d="M106 99.2c-.5-.6-1.1-.3-1.6-.2-.7-1.8 1.1-1.5 2-1.9 2.5-.3 3 .9 4.7 1.6l-2.1.3c-.3 2.5-2.8 1.5-3 .2z"/><path d="M101.2 105.7c1.2-.1 1.8 1.3.5 1.7-1.9 0-1.6-1-.5-1.7z"/><path d="M98 105.8c1.2-.1 1.8 1.3.5 1.7-1.9 0-1.6-1-.5-1.7z"/></g></g><radialGradient id="backlight" cx="100%" cy="100%" r="150%"><stop stop-color="#fff" stop-opacity=".3" offset="0"/><stop stop-color="#fff" stop-opacity=".15" offset=".25"/><stop stop-color="#000" stop-opacity="0" offset="1"/></radialGradient></defs><g clip-path="url(#french_coa984798500)"><rect x="0" y="0" width="200" height="200" fill="#377cd7"/><g clip-path="url(#divisionClip_coa984798500)"><rect x="0" y="0" width="200" height="200" fill="#fafafa"/></g><g fill="#ffe066" stroke="#000"><use x:href="#armillarySphere_coa984798500" transform="translate(-7.5 30) scale(0.7)"/></g><g fill="#522d5b" stroke="#000"><use x:href="#sunInSplendour_coa984798500" transform="translate(67.5 30) scale(0.7)"/></g></g><path d="m 25,25 h 150 v 139.15 c 0,41.745 -66,18.15 -75,36.3 -9,-18.15 -75,5.445 -75,-36.3 v 0 z" fill="url(#backlight)" stroke="#333"/></svg>