<svg id="coa876418919" width="500" height="500" viewBox="0 10 200 200" xmlns="http://www.w3.org/2000/svg"><defs><clipPath id="wedged_coa876418919"><path d="m 51.2,19 h 96.4 c 3.1,12.7 10.7,20.9 26.5,20.8 C 175.7,94.5 165.3,144.3 100,200 43.5,154.2 22.8,102.8 25.1,39.7 37,38.9 47.1,34.7 51.2,19 Z"/></clipPath><clipPath id="divisionClip_coa876418919"><rect x="0" y="100" width="200" height="100"/></clipPath><pattern id="potent-argent-vert" width="0.125" height="0.125" viewBox="0 0 200 200" stroke="#000"><rect width="200" height="100" fill="#fafafa" stroke="none"/><rect y="100" width="200" height="100" fill="#26c061" stroke="none"/><path d="m25 50h50v-50h50v50h50v50h-150z" fill="#26c061"/><path d="m25 100v50h50v50h50v-50h50v-50z" fill="#fafafa"/><path d="m0 0h200 M0 100h200" fill="none"/></pattern><radialGradient id="backlight" cx="100%" cy="100%" r="150%"><stop stop-color="#fff" stop-opacity=".3" offset="0"/><stop stop-color="#fff" stop-opacity=".15" offset=".25"/><stop stop-color="#000" stop-opacity="0" offset="1"/></radialGradient></defs><g clip-path="url(#wedged_coa876418919)"><rect x="0" y="0" width="200" height="200" fill="url(#potent-argent-vert)"/><g clip-path="url(#divisionClip_coa876418919)"><rect x="0" y="0" width="200" height="200" fill="#d7374a"/></g></g><path d="m 51.2,19 h 96.4 c 3.1,12.7 10.7,20.9 26.5,20.8 C 175.7,94.5 165.3,144.3 100,200 43.5,154.2 22.8,102.8 25.1,39.7 37,38.9 47.1,34.7 51.2,19 Z" fill="url(#backlight)" stroke="#333"/></svg>