<svg id="coa512566712" width="500" height="500" viewBox="0 10 200 200" xmlns="http://www.w3.org/2000/svg" xmlns:x="http://www.w3.org/1999/xlink"><defs><clipPath id="heater_coa512566712"><path d="m25,25 h150 v50 a150,150,0,0,1,-75,125 a150,150,0,0,1,-75,-125 z"/></clipPath><g id="arrowsSheaf_coa512566712" stroke-width="3" transform="matrix(.11 0 0 .11 10.9 102)"><g transform="scale(1 -1) rotate(45 770.959 4.823)"><path d="M817.4 323a60 60 0 0022.3 6.1c9.6 0 20.2-9.6 20.2-20.8 0-30.9-42.5-111.4-42.5-111.4zm-15 0s-12.1 6.1-22.3 6.1c-9.6 0-20.2-9.6-20.2-20.8 0-30.9 42.5-111.4 42.5-111.4zm0-620.4v643.5s3.3 1.2 7.5 1.2 7.5-1.9 7.5-1.9v-643.5z"/><ellipse cx="809.9" cy="-300.7" rx="15" ry="8.3"/><path d="M819.3-301l-3.5-52.9 21.8 44.5H870l-60-71.9-60 71.9h32.4l21.8-44.5-3.5 52.9s2.8 2.6 9.4 2.6c6.4 0 9.2-2.6 9.2-2.6z"/><path fill="#000" stroke="none" d="M818.8 226.4l18.5 40.4-21.2-39.1zm-.1 33.2l18.4 30.2-20.9-28.5zm-.1 28.7l19.2 29.2-21.6-27.4zm-14.8-60.6l-21.3 39.1 18.6-40.4zm-.1 33.6l-20.9 28.5 18.4-30.2zm0 28.8l-21.6 27.4 19.1-29.2z"/></g><g transform="scale(1 -1) rotate(-45 852.99 4.718)"><path d="M817.4 323a60 60 0 0022.3 6.1c9.6 0 20.2-9.6 20.2-20.8 0-30.9-42.5-111.4-42.5-111.4zm-15 0s-12.1 6.1-22.3 6.1c-9.6 0-20.2-9.6-20.2-20.8 0-30.9 42.5-111.4 42.5-111.4zm0-620.4v643.5s3.3 1.2 7.5 1.2 7.5-1.9 7.5-1.9v-643.5z"/><ellipse cx="809.9" cy="-300.7" rx="15" ry="8.3"/><path d="M819.3-301l-3.5-52.9 21.8 44.5H870l-60-71.9-60 71.9h32.4l21.8-44.5-3.5 52.9s2.8 2.6 9.4 2.6c6.4 0 9.2-2.6 9.2-2.6z"/><path fill="#000" stroke="none" d="M818.8 226.4l18.5 40.4-21.2-39.1zm-.1 33.2l18.4 30.2-20.9-28.5zm-.1 28.7l19.2 29.2-21.6-27.4zm-14.8-60.6l-21.3 39.1 18.6-40.4zm-.1 33.6l-20.9 28.5 18.4-30.2zm0 28.8l-21.6 27.4 19.1-29.2z"/></g><g transform="matrix(1 0 0 -1 0 -34)"><path d="M817.4 323a60 60 0 0022.3 6.1c9.6 0 20.2-9.6 20.2-20.8 0-30.9-42.5-111.4-42.5-111.4zm-15 0s-12.1 6.1-22.3 6.1c-9.6 0-20.2-9.6-20.2-20.8 0-30.9 42.5-111.4 42.5-111.4zm0-620.4v643.5s3.3 1.2 7.5 1.2 7.5-1.9 7.5-1.9v-643.5z"/><ellipse cx="809.9" cy="-300.7" rx="15" ry="8.3"/><path d="M819.3-301l-3.5-52.9 21.8 44.5H870l-60-71.9-60 71.9h32.4l21.8-44.5-3.5 52.9s2.8 2.6 9.4 2.6c6.4 0 9.2-2.6 9.2-2.6z"/><path fill="#000" stroke="none" d="M818.8 226.4l18.5 40.4-21.2-39.1zm-.1 33.2l18.4 30.2-20.9-28.5zm-.1 28.7l19.2 29.2-21.6-27.4zm-14.8-60.6l-21.3 39.1 18.6-40.4zm-.1 33.6l-20.9 28.5 18.4-30.2zm0 28.8l-21.6 27.4 19.1-29.2z"/></g><rect width="46" height="24" x="788" y="-34"/></g><pattern id="honeycombed-azure-argent" width="0.143" height="0.24514" viewBox="0 0 70 120"><rect width="70" height="120" fill="#377cd7"/><path d="M 70,0 V 20 L 35,40 m 35,80 V 100 L 35,80 M 0,120 V 100 L 35,80 V 40 L 0,20 V 0" stroke="#fafafa" fill="none" stroke-width="3"/></pattern><radialGradient id="backlight" cx="100%" cy="100%" r="150%"><stop stop-color="#fff" stop-opacity=".3" offset="0"/><stop stop-color="#fff" stop-opacity=".15" offset=".25"/><stop stop-color="#000" stop-opacity="0" offset="1"/></radialGradient></defs><g clip-path="url(#heater_coa512566712)"><rect x="0" y="0" width="200" height="200" fill="url(#honeycombed-azure-argent)"/><g fill="#ffe066" stroke="#000"><use x:href="#arrowsSheaf_coa512566712" transform="translate(-50 -50) scale(1.5)"/></g></g><path d="m25,25 h150 v50 a150,150,0,0,1,-75,125 a150,150,0,0,1,-75,-125 z" fill="url(#backlight)" stroke="#333"/></svg>