<svg id="coa944277524" width="500" height="500" viewBox="0 0 200 200" xmlns="http://www.w3.org/2000/svg"><defs><clipPath id="pavise_coa944277524"><path d="M95 7L39.9 37.3a10 10 0 00-5.1 9.5L46 180c.4 5.2 3.7 10 9 10h90c5.3 0 9.6-4.8 10-10l10.6-133.2a10 10 0 00-5-9.5L105 7c-4.2-2.3-6.2-2.3-10 0z"/></clipPath><pattern id="bendySinister-azure-argent-small" width="0.4" height="0.4" viewBox="0 0 100 100"><rect width="100" height="100" fill="#fafafa"/><polygon points="0,25 25,0 75,0 0,75" fill="#377cd7"/><polygon points="25,100 100,25 100,75 75,100" fill="#377cd7"/></pattern><radialGradient id="backlight" cx="100%" cy="100%" r="150%"><stop stop-color="#fff" stop-opacity=".3" offset="0"/><stop stop-color="#fff" stop-opacity=".15" offset=".25"/><stop stop-color="#000" stop-opacity="0" offset="1"/></radialGradient></defs><g clip-path="url(#pavise_coa944277524)"><rect x="0" y="0" width="200" height="200" fill="url(#bendySinister-azure-argent-small)"/><g fill="#ffe066" stroke="none"><polygon points="0,125 100,60 200,125 200,165 100,100 0,165"/></g></g><path d="M95 7L39.9 37.3a10 10 0 00-5.1 9.5L46 180c.4 5.2 3.7 10 9 10h90c5.3 0 9.6-4.8 10-10l10.6-133.2a10 10 0 00-5-9.5L105 7c-4.2-2.3-6.2-2.3-10 0z" fill="url(#backlight)" stroke="#333"/></svg>