<svg id="coa744179746" width="500" height="500" viewBox="0 0 200 200" xmlns="http://www.w3.org/2000/svg"><defs><clipPath id="pavise_coa744179746"><path d="M95 7L39.9 37.3a10 10 0 00-5.1 9.5L46 180c.4 5.2 3.7 10 9 10h90c5.3 0 9.6-4.8 10-10l10.6-133.2a10 10 0 00-5-9.5L105 7c-4.2-2.3-6.2-2.3-10 0z"/></clipPath><pattern id="barry-vert-argent" width="0.125" height="0.5" viewBox="0 0 25 100"><rect width="25" height="100" fill="#fafafa"/><rect x="0" y="25" width="25" height="25" fill="#26c061"/><rect x="0" y="75" width="25" height="25" fill="#26c061"/></pattern><radialGradient id="backlight" cx="100%" cy="100%" r="150%"><stop stop-color="#fff" stop-opacity=".3" offset="0"/><stop stop-color="#fff" stop-opacity=".15" offset=".25"/><stop stop-color="#000" stop-opacity="0" offset="1"/></radialGradient></defs><g clip-path="url(#pavise_coa744179746)"><rect x="0" y="0" width="200" height="200" fill="url(#barry-vert-argent)"/><g fill="#ffe066" stroke="none"><polygon points="35,0 200,165 200,200 165,200 0,35 0,0"/></g></g><path d="M95 7L39.9 37.3a10 10 0 00-5.1 9.5L46 180c.4 5.2 3.7 10 9 10h90c5.3 0 9.6-4.8 10-10l10.6-133.2a10 10 0 00-5-9.5L105 7c-4.2-2.3-6.2-2.3-10 0z" fill="url(#backlight)" stroke="#333"/></svg>