<svg id="coa169619498" width="500" height="500" viewBox="0 0 200 200" xmlns="http://www.w3.org/2000/svg" xmlns:x="http://www.w3.org/1999/xlink"><defs><clipPath id="pavise_coa169619498"><path d="M95 7L39.9 37.3a10 10 0 00-5.1 9.5L46 180c.4 5.2 3.7 10 9 10h90c5.3 0 9.6-4.8 10-10l10.6-133.2a10 10 0 00-5-9.5L105 7c-4.2-2.3-6.2-2.3-10 0z"/></clipPath><g id="heart_coa169619498"><path stroke-width=".5" d="M100 84c-.7-1.1-1.4-2.2-2.4-3.2-6.3-6.8-16.6-6.8-23 0-6.3 6.8-5.4 17.8 1 24.6 6.3 6.8 17.7 12.4 24.2 27 7.3-14.4 18.2-20.2 24.5-27 6.3-6.8 7.3-17.8 1-24.6-6.3-6.8-16.6-6.8-23 0-.9 1-1.6 2.1-2.3 3.2z"/></g><radialGradient id="backlight" cx="100%" cy="100%" r="150%"><stop stop-color="#fff" stop-opacity=".3" offset="0"/><stop stop-color="#fff" stop-opacity=".15" offset=".25"/><stop stop-color="#000" stop-opacity="0" offset="1"/></radialGradient></defs><g clip-path="url(#pavise_coa169619498)"><rect x="0" y="0" width="200" height="200" fill="#333333"/><g fill="#fafafa" stroke="none"><polygon points="200,200 200,144 25,25 145,200"/></g><g fill="#333333" stroke="#000"><use x:href="#heart_coa169619498" transform="translate(55 55) scale(0.45)"/><use x:href="#heart_coa169619498" transform="translate(85 90) scale(0.45)"/></g></g><path d="M95 7L39.9 37.3a10 10 0 00-5.1 9.5L46 180c.4 5.2 3.7 10 9 10h90c5.3 0 9.6-4.8 10-10l10.6-133.2a10 10 0 00-5-9.5L105 7c-4.2-2.3-6.2-2.3-10 0z" fill="url(#backlight)" stroke="#333"/></svg>