<svg id="coa313236829" width="500" height="500" viewBox="0 0 200 200" xmlns="http://www.w3.org/2000/svg" xmlns:x="http://www.w3.org/1999/xlink"><defs><clipPath id="pavise_coa313236829"><path d="M95 7L39.9 37.3a10 10 0 00-5.1 9.5L46 180c.4 5.2 3.7 10 9 10h90c5.3 0 9.6-4.8 10-10l10.6-133.2a10 10 0 00-5-9.5L105 7c-4.2-2.3-6.2-2.3-10 0z"/></clipPath><clipPath id="divisionClip_coa313236829"><rect x="0" y="100" width="200" height="100"/></clipPath><g id="roundel2_coa313236829"><circle cx="100" cy="100" r="30"/><path fill="none" stroke-width=".5" d="M124 95a23 23 0 01-25 30"/></g><radialGradient id="backlight" cx="100%" cy="100%" r="150%"><stop stop-color="#fff" stop-opacity=".3" offset="0"/><stop stop-color="#fff" stop-opacity=".15" offset=".25"/><stop stop-color="#000" stop-opacity="0" offset="1"/></radialGradient></defs><g clip-path="url(#pavise_coa313236829)"><rect x="0" y="0" width="200" height="200" fill="#333333"/><g clip-path="url(#divisionClip_coa313236829)"><rect x="0" y="0" width="200" height="200" fill="#fafafa"/></g><g fill="#ffe066" stroke="none"><rect x="75" y="0" width="50" height="200"/></g><g fill="#333333" stroke="#000"><use x:href="#roundel2_coa313236829" transform="translate(55 2.5) scale(0.45)"/><use x:href="#roundel2_coa313236829" transform="translate(55 55) scale(0.45)"/><use x:href="#roundel2_coa313236829" transform="translate(55 107.5) scale(0.45)"/></g></g><path d="M95 7L39.9 37.3a10 10 0 00-5.1 9.5L46 180c.4 5.2 3.7 10 9 10h90c5.3 0 9.6-4.8 10-10l10.6-133.2a10 10 0 00-5-9.5L105 7c-4.2-2.3-6.2-2.3-10 0z" fill="url(#backlight)" stroke="#333"/></svg>