<svg id="coa749803511" width="500" height="500" viewBox="0 0 200 200" xmlns="http://www.w3.org/2000/svg" xmlns:x="http://www.w3.org/1999/xlink"><defs><clipPath id="pavise_coa749803511"><path d="M95 7L39.9 37.3a10 10 0 00-5.1 9.5L46 180c.4 5.2 3.7 10 9 10h90c5.3 0 9.6-4.8 10-10l10.6-133.2a10 10 0 00-5-9.5L105 7c-4.2-2.3-6.2-2.3-10 0z"/></clipPath><g id="lozengePloye_coa749803511"><path stroke-width=".5" d="M100 60q5 35 40 40-35 5-40 40-5-35-40-40 35-5 40-40"/></g><radialGradient id="backlight" cx="100%" cy="100%" r="150%"><stop stop-color="#fff" stop-opacity=".3" offset="0"/><stop stop-color="#fff" stop-opacity=".15" offset=".25"/><stop stop-color="#000" stop-opacity="0" offset="1"/></radialGradient></defs><g clip-path="url(#pavise_coa749803511)"><rect x="0" y="0" width="200" height="200" fill="#522d5b"/><g fill="#fafafa" stroke="none"><polygon points="0,178 178,0 200,0 200,22 22,200 0,200"/></g><g fill="#377cd7" stroke="#000"><use x:href="#lozengePloye_coa749803511" transform="translate(103 38) scale(0.27)"/><use x:href="#lozengePloye_coa749803511" transform="translate(73 73) scale(0.27)"/><use x:href="#lozengePloye_coa749803511" transform="translate(43 108) scale(0.27)"/></g></g><path d="M95 7L39.9 37.3a10 10 0 00-5.1 9.5L46 180c.4 5.2 3.7 10 9 10h90c5.3 0 9.6-4.8 10-10l10.6-133.2a10 10 0 00-5-9.5L105 7c-4.2-2.3-6.2-2.3-10 0z" fill="url(#backlight)" stroke="#333"/></svg>