<svg id="coa808292112" width="500" height="500" viewBox="0 10 200 200" xmlns="http://www.w3.org/2000/svg" xmlns:x="http://www.w3.org/1999/xlink"><defs><clipPath id="french_coa808292112"><path d="m 25,25 h 150 v 139.15 c 0,41.745 -66,18.15 -75,36.3 -9,-18.15 -75,5.445 -75,-36.3 v 0 z"/></clipPath><clipPath id="divisionClip_coa808292112"><rect x="15" y="115" width="200" height="200" transform="translate(70 70) rotate(45 100 100)"/><path d="m 0,95 v 20 H 200 V 95 h -2.5 v 5 h -5 v 5 h -5 v -5 h -5 v -5 h -5 v 5 h -5 v 5 h -5 v -5 h -5 v -5 h -5 v 5 h -5 v 5 h -5 v -5 h -5 v -5 h -5 v 5 h -5 v 5 h -5 v -5 h -5 v -5 h -5 v 5 h -5 v 5 h -5 v -5 h -5 v -5 h -5 v 5 h -5 v 5 h -5 v -5 h -5 v -5 h -5 v 5 h -5 v 5 h -5 v -5 h -5 v -5 h -5 v 5 h -5 v 5 h -5 v -5 h -5 v -5 h -5 v 5 h -5 v 5 h -5 v -5 h -5 v -5 h -5 v 5 h -5 v 5 h -5 v -5 h -5 v -5 z" transform="translate(129 71) rotate(-45 -100 100) scale(-1 1)"/><path d="m 0,95 v 20 H 200 V 95 h -2.5 v 5 h -5 v 5 h -5 v -5 h -5 v -5 h -5 v 5 h -5 v 5 h -5 v -5 h -5 v -5 h -5 v 5 h -5 v 5 h -5 v -5 h -5 v -5 h -5 v 5 h -5 v 5 h -5 v -5 h -5 v -5 h -5 v 5 h -5 v 5 h -5 v -5 h -5 v -5 h -5 v 5 h -5 v 5 h -5 v -5 h -5 v -5 h -5 v 5 h -5 v 5 h -5 v -5 h -5 v -5 h -5 v 5 h -5 v 5 h -5 v -5 h -5 v -5 h -5 v 5 h -5 v 5 h -5 v -5 h -5 v -5 h -5 v 5 h -5 v 5 h -5 v -5 h -5 v -5 z" transform="translate(71 71) rotate(45 100 100)"/></clipPath><g id="crossFleury_coa808292112" stroke-width=".5"><path d="M95.2 125.9a2.6 2.6 0 01-2.6 2.6 2.6 2.6 0 01-2.6-2.6 4.8 4.8 0 00-1.7 3.7 4.8 4.8 0 004.8 4.8 4.8 4.8 0 003-1.1 7.8 7.8 0 003.9 6.8 7.8 7.8 0 003.9-6.8 4.8 4.8 0 003 1.1 4.8 4.8 0 004.8-4.8 4.8 4.8 0 00-1.7-3.7 2.6 2.6 0 01-2.6 2.6 2.6 2.6 0 01-2.6-2.6v-21.1h21.1a2.6 2.6 0 012.6 2.6 2.6 2.6 0 01-2.6 2.6 4.8 4.8 0 003.7 1.7 4.8 4.8 0 004.8-4.8 4.8 4.8 0 00-1.1-3 7.8 7.8 0 006.8-3.9 7.8 7.8 0 00-6.8-3.9 4.8 4.8 0 001.1-3 4.8 4.8 0 00-4.8-4.8 4.8 4.8 0 00-3.7 1.7 2.6 2.6 0 012.6 2.6 2.6 2.6 0 01-2.6 2.6h-21.1V74.1a2.6 2.6 0 012.6-2.6 2.6 2.6 0 012.6 2.6 4.8 4.8 0 001.7-3.7 4.8 4.8 0 00-4.8-4.8 4.8 4.8 0 00-3 1.1A7.8 7.8 0 00100 60a7.8 7.8 0 00-3.9 6.8 4.8 4.8 0 00-3-1.1 4.8 4.8 0 00-4.8 4.8 4.8 4.8 0 001.7 3.7 2.6 2.6 0 012.6-2.6 2.6 2.6 0 012.6 2.6v21H74.1a2.6 2.6 0 01-2.6-2.6 2.6 2.6 0 012.6-2.6 4.8 4.8 0 00-3.7-1.7 4.8 4.8 0 00-4.8 4.8 4.8 4.8 0 001.1 3A7.8 7.8 0 0060 100a7.8 7.8 0 006.8 3.9 4.8 4.8 0 00-1.1 3 4.8 4.8 0 004.8 4.8 4.8 4.8 0 003.7-1.7 2.6 2.6 0 01-2.6-2.6 2.6 2.6 0 012.6-2.6h21.1z"/></g><radialGradient id="backlight" cx="100%" cy="100%" r="150%"><stop stop-color="#fff" stop-opacity=".3" offset="0"/><stop stop-color="#fff" stop-opacity=".15" offset=".25"/><stop stop-color="#000" stop-opacity="0" offset="1"/></radialGradient></defs><g clip-path="url(#french_coa808292112)"><rect x="0" y="0" width="200" height="200" fill="#d7374a"/><g fill="#fafafa" stroke="#000"><use x:href="#crossFleury_coa808292112" transform="translate(60 10) scale(0.4)"/><use x:href="#crossFleury_coa808292112" transform="translate(16.25 60) scale(0.4)"/><use x:href="#crossFleury_coa808292112" transform="translate(60 60) scale(0.4)"/><use x:href="#crossFleury_coa808292112" transform="translate(103.75 60) scale(0.4)"/><use x:href="#crossFleury_coa808292112" transform="translate(60 110) scale(0.4)"/></g><g clip-path="url(#divisionClip_coa808292112)"><rect x="0" y="0" width="200" height="200" fill="#fafafa"/><g fill="#d7374a" stroke="#000"><use x:href="#crossFleury_coa808292112" transform="translate(60 10) scale(0.4)"/><use x:href="#crossFleury_coa808292112" transform="translate(16.25 60) scale(0.4)"/><use x:href="#crossFleury_coa808292112" transform="translate(60 60) scale(0.4)"/><use x:href="#crossFleury_coa808292112" transform="translate(103.75 60) scale(0.4)"/><use x:href="#crossFleury_coa808292112" transform="translate(60 110) scale(0.4)"/></g></g></g><path d="m 25,25 h 150 v 139.15 c 0,41.745 -66,18.15 -75,36.3 -9,-18.15 -75,5.445 -75,-36.3 v 0 z" fill="url(#backlight)" stroke="#333"/></svg>