<svg id="coa55941065" width="500" height="500" viewBox="0 10 200 200" xmlns="http://www.w3.org/2000/svg" xmlns:x="http://www.w3.org/1999/xlink"><defs><clipPath id="heater_coa55941065"><path d="m25,25 h150 v50 a150,150,0,0,1,-75,125 a150,150,0,0,1,-75,-125 z"/></clipPath><g id="goutte_coa55941065"><path d="M100 134c17-1 16-19 10-25-1.9-1.8-4.6-5.3-3.9-8.1C108 94 102 90 102 87c-1-7 3-7 3-13-.1-6.2-3.3-8.7-6-12 1.2 3 2 6 1 9-1.5 5.9-6.2 6.9-8 11-2 5 3 11 3 15-.6 9.1-9 13-9 23 .3 11.3 9 14 14 14z"/></g><radialGradient id="backlight" cx="100%" cy="100%" r="150%"><stop stop-color="#fff" stop-opacity=".3" offset="0"/><stop stop-color="#fff" stop-opacity=".15" offset=".25"/><stop stop-color="#000" stop-opacity="0" offset="1"/></radialGradient></defs><g clip-path="url(#heater_coa55941065)"><rect x="0" y="0" width="200" height="200" fill="#ffe066"/><g fill="#d7374a" stroke="#000"><use x:href="#goutte_coa55941065" transform="translate(-50 -50) scale(1.5)"/></g></g><path d="m25,25 h150 v50 a150,150,0,0,1,-75,125 a150,150,0,0,1,-75,-125 z" fill="url(#backlight)" stroke="#333"/></svg>