<svg id="coa541620161" width="500" height="500" viewBox="0 10 200 200" xmlns="http://www.w3.org/2000/svg" xmlns:x="http://www.w3.org/1999/xlink"><defs><clipPath id="french_coa541620161"><path d="m 25,25 h 150 v 139.15 c 0,41.745 -66,18.15 -75,36.3 -9,-18.15 -75,5.445 -75,-36.3 v 0 z"/></clipPath><g id="annulet_coa541620161"><path d="M70 100c0 16.569 13.431 30 30 30 16.569 0 30-13.431 30-30 0-16.569-13.431-30-30-30-16.569 0-30 13.431-30 30m10 0c0-11.046 8.954-20 20-20s20 8.954 20 20-8.954 20-20 20-20-8.954-20-20"/></g><radialGradient id="backlight" cx="100%" cy="100%" r="150%"><stop stop-color="#fff" stop-opacity=".3" offset="0"/><stop stop-color="#fff" stop-opacity=".15" offset=".25"/><stop stop-color="#000" stop-opacity="0" offset="1"/></radialGradient></defs><g clip-path="url(#french_coa541620161)"><rect x="0" y="0" width="200" height="200" fill="#d7374a"/><g fill="#ffe066" stroke="none"><path d="m 200,90 -5,5 v 10 l -5,5 -5,-5 V 95 l -5,-5 -5,5 v 10 l -5,5 -5,-5 V 95 l -5,-5 -5,5 v 10 l -5,5 -5,-5 V 95 l -5,-5 -5,5 v 10 l -5,6 -5,-6 V 95 l -5,-5 -5,5 v 10 l -5,5 -5,-5 V 95 l -5,-5 -5,5 v 10 l -5,5 -5,-5 V 95 l -5,-5 -5,5 v 10 l -5,6 -5,-6 V 95 l -5,-5 -5,5 v 10 l -5,5 -5,-5 V 95 l -5,-5 -5,5 v 10 l -5,5 -5,-5 V 95 l -5,-5 -5,5 v 10 l -5,5 -5,-5 V 95 L 0,90 v 25 h 200" transform="translate(-28 -18) rotate(-45 110 100) scale(1.1 1)"/><path d="m 200,90 -5,5 v 10 l -5,5 -5,-5 V 95 l -5,-5 -5,5 v 10 l -5,5 -5,-5 V 95 l -5,-5 -5,5 v 10 l -5,5 -5,-5 V 95 l -5,-5 -5,5 v 10 l -5,6 -5,-6 V 95 l -5,-5 -5,5 v 10 l -5,5 -5,-5 V 95 l -5,-5 -5,5 v 10 l -5,5 -5,-5 V 95 l -5,-5 -5,5 v 10 l -5,6 -5,-6 V 95 l -5,-5 -5,5 v 10 l -5,5 -5,-5 V 95 l -5,-5 -5,5 v 10 l -5,5 -5,-5 V 95 l -5,-5 -5,5 v 10 l -5,5 -5,-5 V 95 L 0,90 v 25 h 200" transform="translate(8 18) rotate(-225 110 100) scale(1.1 1)"/><rect x="0" y="88" width="200" height="24" transform="translate(-10 0) rotate(-45 110 100) scale(1.1 1)" stroke="none"/></g><g fill="#522d5b" stroke="#000"><use x:href="#annulet_coa541620161" transform="translate(67.5 -7.5) scale(0.7)"/><use x:href="#annulet_coa541620161" transform="translate(-7.5 67.5) scale(0.7)"/></g></g><path d="m 25,25 h 150 v 139.15 c 0,41.745 -66,18.15 -75,36.3 -9,-18.15 -75,5.445 -75,-36.3 v 0 z" fill="url(#backlight)" stroke="#333"/></svg>