<svg id="coa726182454" width="500" height="500" viewBox="0 10 200 200" xmlns="http://www.w3.org/2000/svg" xmlns:x="http://www.w3.org/1999/xlink"><defs><clipPath id="heater_coa726182454"><path d="m25,25 h150 v50 a150,150,0,0,1,-75,125 a150,150,0,0,1,-75,-125 z"/></clipPath><g id="crossTriquetra_coa726182454" stroke-width=".5"><path d="M75.86 128.35c-4.32 0-8.7-.75-12.91-2.29A37.85 37.85 0 0187 97.16h0l.02-.02A37.33 37.33 0 0199.93 62a37.5 37.5 0 0112.92 35.14 37.56 37.56 0 0124.05 28.91 37.61 37.61 0 01-37-6.45h-.02a37.73 37.73 0 01-24.05 8.74zm.33-6.26a31.32 31.32 0 0019.3-6.92 37.77 37.77 0 01-6.85-11.86 31.44 31.44 0 00-18.04 18.31c1.86.32 3.72.47 5.6.45zm47.87 0c1.76 0 3.54-.15 5.3-.45a31.37 31.37 0 00-18.04-18.31 37.84 37.84 0 01-6.85 11.86 31.4 31.4 0 0019.57 6.92zM100 110.78h.01a32.1 32.1 0 005.28-9.12 31.51 31.51 0 00-10.52 0 31.46 31.46 0 005.24 9.1zm-6.83-15.2a39.5 39.5 0 0113.69 0A31.26 31.26 0 00100 70.84a31.34 31.34 0 00-6.84 24.74z"/><path fill="none" d="M90.36 107.31a37.23 37.23 0 01-3.6-12.37m6.1-1.9a31.22 31.22 0 003.42 12.08"/><path fill="none" d="M102.38 95.05a37.23 37.23 0 0115.66 4.55m-4.86 4.56a31.22 31.22 0 00-12.35-2.91"/><path fill="none" d="M92.21 117.48a31 31 0 009.64-9.27m5.3 3.35a37.46 37.46 0 01-13.32 12.22"/></g><radialGradient id="backlight" cx="100%" cy="100%" r="150%"><stop stop-color="#fff" stop-opacity=".3" offset="0"/><stop stop-color="#fff" stop-opacity=".15" offset=".25"/><stop stop-color="#000" stop-opacity="0" offset="1"/></radialGradient></defs><g clip-path="url(#heater_coa726182454)"><rect x="0" y="0" width="200" height="200" fill="#fafafa"/><g fill="#26c061" stroke="none"><path d="m 28.83,94.9 c -4.25,0 -7.16,3.17 -8.75,5.18 -1.59,2.01 -4.5,5.18 -8.75,5.18 -2.16,0 -3.91,-1.63 -3.91,-3.64 0,-2.01 1.44,-3.6 3.6,-3.6 0.7,0 1.36,0.17 1.93,0.48 -0.33,-2.03 -2.19,-3.56 -4.45,-3.56 -4.24,0 -6.91,3.13 -8.5,5.13 V 115 h 200 v -14.89 c -1.59,2.01 -4.5,5.18 -8.75,5.18 -2.16,0 -3.91,-1.63 -3.91,-3.64 0,-2.01 1.75,-3.64 3.91,-3.64 0.7,0 1.36,0.17 1.93,0.48 -0.34,-2.01 -2.2,-3.55 -4.46,-3.55 -4.25,0 -7.16,3.17 -8.75,5.18 -1.59,2.01 -4.5,5.18 -8.75,5.18 -2.16,0 -3.91,-1.63 -3.91,-3.64 0,-2.01 1.75,-3.64 3.91,-3.64 0.7,0 1.36,0.17 1.93,0.48 -0.34,-2.01 -2.21,-3.55 -4.46,-3.55 -4.25,0 -7.16,3.17 -8.75,5.18 -1.59,2.01 -4.5,5.18 -8.75,5.18 -2.16,0 -3.91,-1.63 -3.91,-3.64 0,-2.01 1.75,-3.64 3.91,-3.64 0.7,0 1.36,0.17 1.93,0.48 -0.34,-2.01 -2.21,-3.55 -4.46,-3.55 -4.25,0 -7.16,3.17 -8.75,5.18 -1.59,2.01 -4.5,5.18 -8.75,5.18 -2.16,0 -3.91,-1.63 -3.91,-3.64 0,-2.01 1.75,-3.64 3.91,-3.64 0.7,0 1.36,0.17 1.93,0.48 -0.34,-2.01 -2.2,-3.55 -4.46,-3.55 -4.25,0 -7.16,3.17 -8.75,5.18 -1.59,2.01 -4.5,5.18 -8.75,5.18 -2.16,0 -3.91,-1.63 -3.91,-3.64 0,-2.01 1.44,-3.6 3.6,-3.6 0.7,0 1.36,0.17 1.93,0.48 -0.34,-2.01 -2.21,-3.55 -4.46,-3.55 -4.25,0 -6.6,3.09 -8.19,5.09 -1.59,2.01 -4.5,5.18 -8.75,5.18 -2.16,0 -3.91,-1.63 -3.91,-3.64 0,-2.01 1.75,-3.64 3.91,-3.64 0.7,0 1.36,0.17 1.93,0.48 -0.34,-2.01 -2.21,-3.55 -4.46,-3.55 -4.25,0 -7.16,3.17 -8.75,5.18 -1.59,2.01 -4.5,5.18 -8.75,5.18 -2.16,0 -3.91,-1.63 -3.91,-3.64 0,-2.01 1.75,-3.64 3.91,-3.64 0.7,0 1.36,0.17 1.93,0.48 -0.34,-2.01 -2.2,-3.55 -4.46,-3.55 -4.25,0 -7.16,3.17 -8.75,5.18 -1.59,2.01 -4.5,5.18 -8.75,5.18 -2.16,0 -3.91,-1.63 -3.91,-3.64 0,-2.01 1.75,-3.64 3.91,-3.64 0.7,0 1.36,0.17 1.93,0.48 -0.34,-2.01 -2.2,-3.55 -4.46,-3.55 -4.25,0 -7.16,3.17 -8.75,5.18 -1.59,2.01 -4.5,5.18 -8.75,5.18 -2.16,0 -3.91,-1.63 -3.91,-3.64 0,-2.01 1.75,-3.64 3.91,-3.64 0.7,0 1.36,0.17 1.93,0.48 -0.34,-2.01 -2.21,-3.55 -4.46,-3.55 z" transform="translate(0 -14.5)"/><path d="m 28.83,94.9 c -4.25,0 -7.16,3.17 -8.75,5.18 -1.59,2.01 -4.5,5.18 -8.75,5.18 -2.16,0 -3.91,-1.63 -3.91,-3.64 0,-2.01 1.44,-3.6 3.6,-3.6 0.7,0 1.36,0.17 1.93,0.48 -0.33,-2.03 -2.19,-3.56 -4.45,-3.56 -4.24,0 -6.91,3.13 -8.5,5.13 V 115 h 200 v -14.89 c -1.59,2.01 -4.5,5.18 -8.75,5.18 -2.16,0 -3.91,-1.63 -3.91,-3.64 0,-2.01 1.75,-3.64 3.91,-3.64 0.7,0 1.36,0.17 1.93,0.48 -0.34,-2.01 -2.2,-3.55 -4.46,-3.55 -4.25,0 -7.16,3.17 -8.75,5.18 -1.59,2.01 -4.5,5.18 -8.75,5.18 -2.16,0 -3.91,-1.63 -3.91,-3.64 0,-2.01 1.75,-3.64 3.91,-3.64 0.7,0 1.36,0.17 1.93,0.48 -0.34,-2.01 -2.21,-3.55 -4.46,-3.55 -4.25,0 -7.16,3.17 -8.75,5.18 -1.59,2.01 -4.5,5.18 -8.75,5.18 -2.16,0 -3.91,-1.63 -3.91,-3.64 0,-2.01 1.75,-3.64 3.91,-3.64 0.7,0 1.36,0.17 1.93,0.48 -0.34,-2.01 -2.21,-3.55 -4.46,-3.55 -4.25,0 -7.16,3.17 -8.75,5.18 -1.59,2.01 -4.5,5.18 -8.75,5.18 -2.16,0 -3.91,-1.63 -3.91,-3.64 0,-2.01 1.75,-3.64 3.91,-3.64 0.7,0 1.36,0.17 1.93,0.48 -0.34,-2.01 -2.2,-3.55 -4.46,-3.55 -4.25,0 -7.16,3.17 -8.75,5.18 -1.59,2.01 -4.5,5.18 -8.75,5.18 -2.16,0 -3.91,-1.63 -3.91,-3.64 0,-2.01 1.44,-3.6 3.6,-3.6 0.7,0 1.36,0.17 1.93,0.48 -0.34,-2.01 -2.21,-3.55 -4.46,-3.55 -4.25,0 -6.6,3.09 -8.19,5.09 -1.59,2.01 -4.5,5.18 -8.75,5.18 -2.16,0 -3.91,-1.63 -3.91,-3.64 0,-2.01 1.75,-3.64 3.91,-3.64 0.7,0 1.36,0.17 1.93,0.48 -0.34,-2.01 -2.21,-3.55 -4.46,-3.55 -4.25,0 -7.16,3.17 -8.75,5.18 -1.59,2.01 -4.5,5.18 -8.75,5.18 -2.16,0 -3.91,-1.63 -3.91,-3.64 0,-2.01 1.75,-3.64 3.91,-3.64 0.7,0 1.36,0.17 1.93,0.48 -0.34,-2.01 -2.2,-3.55 -4.46,-3.55 -4.25,0 -7.16,3.17 -8.75,5.18 -1.59,2.01 -4.5,5.18 -8.75,5.18 -2.16,0 -3.91,-1.63 -3.91,-3.64 0,-2.01 1.75,-3.64 3.91,-3.64 0.7,0 1.36,0.17 1.93,0.48 -0.34,-2.01 -2.2,-3.55 -4.46,-3.55 -4.25,0 -7.16,3.17 -8.75,5.18 -1.59,2.01 -4.5,5.18 -8.75,5.18 -2.16,0 -3.91,-1.63 -3.91,-3.64 0,-2.01 1.75,-3.64 3.91,-3.64 0.7,0 1.36,0.17 1.93,0.48 -0.34,-2.01 -2.21,-3.55 -4.46,-3.55 z" transform="rotate(180 100 100) translate(0 -14.5)"/><path d="m 28.83,94.9 c -4.25,0 -7.16,3.17 -8.75,5.18 -1.59,2.01 -4.5,5.18 -8.75,5.18 -2.16,0 -3.91,-1.63 -3.91,-3.64 0,-2.01 1.44,-3.6 3.6,-3.6 0.7,0 1.36,0.17 1.93,0.48 -0.33,-2.03 -2.19,-3.56 -4.45,-3.56 -4.24,0 -6.91,3.13 -8.5,5.13 V 115 h 200 v -14.89 c -1.59,2.01 -4.5,5.18 -8.75,5.18 -2.16,0 -3.91,-1.63 -3.91,-3.64 0,-2.01 1.75,-3.64 3.91,-3.64 0.7,0 1.36,0.17 1.93,0.48 -0.34,-2.01 -2.2,-3.55 -4.46,-3.55 -4.25,0 -7.16,3.17 -8.75,5.18 -1.59,2.01 -4.5,5.18 -8.75,5.18 -2.16,0 -3.91,-1.63 -3.91,-3.64 0,-2.01 1.75,-3.64 3.91,-3.64 0.7,0 1.36,0.17 1.93,0.48 -0.34,-2.01 -2.21,-3.55 -4.46,-3.55 -4.25,0 -7.16,3.17 -8.75,5.18 -1.59,2.01 -4.5,5.18 -8.75,5.18 -2.16,0 -3.91,-1.63 -3.91,-3.64 0,-2.01 1.75,-3.64 3.91,-3.64 0.7,0 1.36,0.17 1.93,0.48 -0.34,-2.01 -2.21,-3.55 -4.46,-3.55 -4.25,0 -7.16,3.17 -8.75,5.18 -1.59,2.01 -4.5,5.18 -8.75,5.18 -2.16,0 -3.91,-1.63 -3.91,-3.64 0,-2.01 1.75,-3.64 3.91,-3.64 0.7,0 1.36,0.17 1.93,0.48 -0.34,-2.01 -2.2,-3.55 -4.46,-3.55 -4.25,0 -7.16,3.17 -8.75,5.18 -1.59,2.01 -4.5,5.18 -8.75,5.18 -2.16,0 -3.91,-1.63 -3.91,-3.64 0,-2.01 1.44,-3.6 3.6,-3.6 0.7,0 1.36,0.17 1.93,0.48 -0.34,-2.01 -2.21,-3.55 -4.46,-3.55 -4.25,0 -6.6,3.09 -8.19,5.09 -1.59,2.01 -4.5,5.18 -8.75,5.18 -2.16,0 -3.91,-1.63 -3.91,-3.64 0,-2.01 1.75,-3.64 3.91,-3.64 0.7,0 1.36,0.17 1.93,0.48 -0.34,-2.01 -2.21,-3.55 -4.46,-3.55 -4.25,0 -7.16,3.17 -8.75,5.18 -1.59,2.01 -4.5,5.18 -8.75,5.18 -2.16,0 -3.91,-1.63 -3.91,-3.64 0,-2.01 1.75,-3.64 3.91,-3.64 0.7,0 1.36,0.17 1.93,0.48 -0.34,-2.01 -2.2,-3.55 -4.46,-3.55 -4.25,0 -7.16,3.17 -8.75,5.18 -1.59,2.01 -4.5,5.18 -8.75,5.18 -2.16,0 -3.91,-1.63 -3.91,-3.64 0,-2.01 1.75,-3.64 3.91,-3.64 0.7,0 1.36,0.17 1.93,0.48 -0.34,-2.01 -2.2,-3.55 -4.46,-3.55 -4.25,0 -7.16,3.17 -8.75,5.18 -1.59,2.01 -4.5,5.18 -8.75,5.18 -2.16,0 -3.91,-1.63 -3.91,-3.64 0,-2.01 1.75,-3.64 3.91,-3.64 0.7,0 1.36,0.17 1.93,0.48 -0.34,-2.01 -2.21,-3.55 -4.46,-3.55 z" transform="rotate(-90 100 100) translate(0 -14.5)"/><path d="m 28.83,94.9 c -4.25,0 -7.16,3.17 -8.75,5.18 -1.59,2.01 -4.5,5.18 -8.75,5.18 -2.16,0 -3.91,-1.63 -3.91,-3.64 0,-2.01 1.44,-3.6 3.6,-3.6 0.7,0 1.36,0.17 1.93,0.48 -0.33,-2.03 -2.19,-3.56 -4.45,-3.56 -4.24,0 -6.91,3.13 -8.5,5.13 V 115 h 200 v -14.89 c -1.59,2.01 -4.5,5.18 -8.75,5.18 -2.16,0 -3.91,-1.63 -3.91,-3.64 0,-2.01 1.75,-3.64 3.91,-3.64 0.7,0 1.36,0.17 1.93,0.48 -0.34,-2.01 -2.2,-3.55 -4.46,-3.55 -4.25,0 -7.16,3.17 -8.75,5.18 -1.59,2.01 -4.5,5.18 -8.75,5.18 -2.16,0 -3.91,-1.63 -3.91,-3.64 0,-2.01 1.75,-3.64 3.91,-3.64 0.7,0 1.36,0.17 1.93,0.48 -0.34,-2.01 -2.21,-3.55 -4.46,-3.55 -4.25,0 -7.16,3.17 -8.75,5.18 -1.59,2.01 -4.5,5.18 -8.75,5.18 -2.16,0 -3.91,-1.63 -3.91,-3.64 0,-2.01 1.75,-3.64 3.91,-3.64 0.7,0 1.36,0.17 1.93,0.48 -0.34,-2.01 -2.21,-3.55 -4.46,-3.55 -4.25,0 -7.16,3.17 -8.75,5.18 -1.59,2.01 -4.5,5.18 -8.75,5.18 -2.16,0 -3.91,-1.63 -3.91,-3.64 0,-2.01 1.75,-3.64 3.91,-3.64 0.7,0 1.36,0.17 1.93,0.48 -0.34,-2.01 -2.2,-3.55 -4.46,-3.55 -4.25,0 -7.16,3.17 -8.75,5.18 -1.59,2.01 -4.5,5.18 -8.75,5.18 -2.16,0 -3.91,-1.63 -3.91,-3.64 0,-2.01 1.44,-3.6 3.6,-3.6 0.7,0 1.36,0.17 1.93,0.48 -0.34,-2.01 -2.21,-3.55 -4.46,-3.55 -4.25,0 -6.6,3.09 -8.19,5.09 -1.59,2.01 -4.5,5.18 -8.75,5.18 -2.16,0 -3.91,-1.63 -3.91,-3.64 0,-2.01 1.75,-3.64 3.91,-3.64 0.7,0 1.36,0.17 1.93,0.48 -0.34,-2.01 -2.21,-3.55 -4.46,-3.55 -4.25,0 -7.16,3.17 -8.75,5.18 -1.59,2.01 -4.5,5.18 -8.75,5.18 -2.16,0 -3.91,-1.63 -3.91,-3.64 0,-2.01 1.75,-3.64 3.91,-3.64 0.7,0 1.36,0.17 1.93,0.48 -0.34,-2.01 -2.2,-3.55 -4.46,-3.55 -4.25,0 -7.16,3.17 -8.75,5.18 -1.59,2.01 -4.5,5.18 -8.75,5.18 -2.16,0 -3.91,-1.63 -3.91,-3.64 0,-2.01 1.75,-3.64 3.91,-3.64 0.7,0 1.36,0.17 1.93,0.48 -0.34,-2.01 -2.2,-3.55 -4.46,-3.55 -4.25,0 -7.16,3.17 -8.75,5.18 -1.59,2.01 -4.5,5.18 -8.75,5.18 -2.16,0 -3.91,-1.63 -3.91,-3.64 0,-2.01 1.75,-3.64 3.91,-3.64 0.7,0 1.36,0.17 1.93,0.48 -0.34,-2.01 -2.21,-3.55 -4.46,-3.55 z" transform="rotate(-270 100 100) translate(0 -14.5)"/></g><g fill="#fafafa" stroke="#000"><use x:href="#crossTriquetra_coa726182454" transform="translate(70 20) scale(0.3)"/><use x:href="#crossTriquetra_coa726182454" transform="translate(70 70) scale(0.3)"/><use x:href="#crossTriquetra_coa726182454" transform="translate(70 120) scale(0.3)"/><use x:href="#crossTriquetra_coa726182454" transform="translate(26.25 70) scale(0.3)"/><use x:href="#crossTriquetra_coa726182454" transform="translate(113.75 70) scale(0.3)"/></g></g><path d="m25,25 h150 v50 a150,150,0,0,1,-75,125 a150,150,0,0,1,-75,-125 z" fill="url(#backlight)" stroke="#333"/></svg>