<svg id="coa543496582" width="500" height="500" viewBox="0 0 200 200" xmlns="http://www.w3.org/2000/svg" xmlns:x="http://www.w3.org/1999/xlink"><defs><clipPath id="pavise_coa543496582"><path d="M95 7L39.9 37.3a10 10 0 00-5.1 9.5L46 180c.4 5.2 3.7 10 9 10h90c5.3 0 9.6-4.8 10-10l10.6-133.2a10 10 0 00-5-9.5L105 7c-4.2-2.3-6.2-2.3-10 0z"/></clipPath><g id="cinquefoil_coa543496582" stroke-width=".5"><path d="M99.9 61.1c-1.9 0-5 4.5-10.2 6-5.1 1.4-5.2 3.9-5.2 5.2 0 6.2 10.6 9.8 10.6 16.1 0 1-.5 2-1.2 2.5-.8.3-2 .3-3.1-.3-6.1-3.2-4.3-13.2-10.3-16.3-1.2-.6-3.8-1.8-7.7 1.5-4 3.2-9.9 3.4-10.9 4.8-.9 1.5 1.9 6.2.8 10.8-1.2 4.7 1.2 6.1 2.4 6.7 6 3.1 14.8-3.3 20.9-.1 1.1.5 1.8 1.4 1.8 2.2 0 .7-.7 1.6-1.8 2.2-6.1 3.1-14.9-3.3-20.9-.2-1.2.6-3.6 2-2.4 6.7 1.1 4.7-1.7 9.4-.8 10.8 1 1.5 6.9 1.6 10.9 4.9 3.9 3.2 6.5 2.1 7.7 1.4 6-3.1 4.2-13.1 10.3-16.2 1.1-.6 2.3-.7 3.1-.3.7.4 1.2 1.4 1.2 2.5 0 6.3-10.6 9.9-10.6 16.1 0 1.2.1 3.8 5.2 5.2 5.2 1.4 8.3 6 10.2 6 1.9 0 5-4.6 10.1-6 5.1-1.4 5.3-4 5.3-5.2 0-6.2-10.6-9.8-10.6-16.1 0-1.1.5-2.1 1.2-2.5.7-.4 2-.3 3.1.3 6.1 3.1 4.3 13.1 10.3 16.2 1.2.6 3.7 1.8 7.7-1.4 3.9-3.3 9.9-3.4 10.8-4.9 1-1.5-1.9-6.1-.7-10.8 1.2-4.7-1.2-6.1-2.4-6.7-6-3.1-14.8 3.3-21 .2-1-.6-1.7-1.5-1.8-2.2.1-.8.8-1.7 1.8-2.2 6.2-3.2 15 3.2 21 .1 1.2-.6 3.6-2 2.4-6.7-1.2-4.6 1.7-9.3.7-10.8-.9-1.4-6.9-1.6-10.8-4.8-4-3.3-6.5-2.1-7.7-1.5-6 3.1-4.2 13.1-10.3 16.3-1.1.6-2.4.6-3.1.3-.7-.5-1.2-1.5-1.2-2.5 0-6.3 10.6-9.9 10.6-16.1 0-1.3-.1-3.8-5.3-5.2-5.1-1.5-8.2-6-10.1-6zM100 91a9 9 0 010 0 9 9 0 019 9 9 9 0 01-9 9 9 9 0 01-9-9 9 9 0 019-9z"/><g fill="#000"><path d="M99.8 125l.5-14.4h-.7z"/><path d="M75.7 112.5l13.9-7.4.3.5z"/><path d="M89.6 95.2l-13.9-7.4 14.2 6.9z"/><path d="M99.9 75.4l.3 14.4h-.7z"/><path d="M124 87.8l-13.9 7.4-.3-.6z"/><path d="M109.8 105.7l.3-.5 13.9 7.3z"/></g></g><radialGradient id="backlight" cx="100%" cy="100%" r="150%"><stop stop-color="#fff" stop-opacity=".3" offset="0"/><stop stop-color="#fff" stop-opacity=".15" offset=".25"/><stop stop-color="#000" stop-opacity="0" offset="1"/></radialGradient></defs><g clip-path="url(#pavise_coa543496582)"><rect x="0" y="0" width="200" height="200" fill="#ffe066"/><g fill="#d7374a" stroke="none"><path d="M15,0 100,200 60,0Z M80,0 100,200 120,0Z M140,0 100,200 185,0Z"/></g><g fill="#333333" stroke="#000"><use x:href="#cinquefoil_coa543496582" transform="translate(-35 -35) scale(1.35)"/></g></g><path d="M95 7L39.9 37.3a10 10 0 00-5.1 9.5L46 180c.4 5.2 3.7 10 9 10h90c5.3 0 9.6-4.8 10-10l10.6-133.2a10 10 0 00-5-9.5L105 7c-4.2-2.3-6.2-2.3-10 0z" fill="url(#backlight)" stroke="#333"/></svg>