<svg id="coa386448533" width="500" height="500" viewBox="0 0 200 200" xmlns="http://www.w3.org/2000/svg"><defs><clipPath id="boeotian_coa386448533"><path d="M150 115c-5 0-10-5-10-15s5-15 10-15c10 0 7 10 15 10 10 0 0-30 0-30-10-25-30-55-65-55S45 40 35 65c0 0-10 30 0 30 8 0 5-10 15-10 5 0 10 5 10 15s-5 15-10 15c-10 0-7-10-15-10-10 0 0 30 0 30 10 25 30 55 65 55s55-30 65-55c0 0 10-30 0-30-8 0-5 10-15 10z"/></clipPath><pattern id="potentInPale-purpure-or" width="0.125" height="0.0625" viewBox="0 0 200 100" stroke-width="1"><rect width="200" height="100" fill="#522d5b" stroke="none"/><path d="m25 50h50v-50h50v50h50v50h-150z" fill="#ffe066" stroke="#000"/><path d="m0 0h200 M0 100h200" fill="none" stroke="#000"/></pattern><radialGradient id="backlight" cx="100%" cy="100%" r="150%"><stop stop-color="#fff" stop-opacity=".3" offset="0"/><stop stop-color="#fff" stop-opacity=".15" offset=".25"/><stop stop-color="#000" stop-opacity="0" offset="1"/></radialGradient></defs><g clip-path="url(#boeotian_coa386448533)"><rect x="0" y="0" width="200" height="200" fill="url(#potentInPale-purpure-or)"/><g fill="#fafafa" stroke="none"><rect x="0" y="87.5" width="200" height="25"/></g></g><path d="M150 115c-5 0-10-5-10-15s5-15 10-15c10 0 7 10 15 10 10 0 0-30 0-30-10-25-30-55-65-55S45 40 35 65c0 0-10 30 0 30 8 0 5-10 15-10 5 0 10 5 10 15s-5 15-10 15c-10 0-7-10-15-10-10 0 0 30 0 30 10 25 30 55 65 55s55-30 65-55c0 0 10-30 0-30-8 0-5 10-15 10z" fill="url(#backlight)" stroke="#333"/></svg>