<svg id="coa509968710" width="500" height="500" viewBox="0 0 200 200" xmlns="http://www.w3.org/2000/svg" xmlns:x="http://www.w3.org/1999/xlink"><defs><clipPath id="boeotian_coa509968710"><path d="M150 115c-5 0-10-5-10-15s5-15 10-15c10 0 7 10 15 10 10 0 0-30 0-30-10-25-30-55-65-55S45 40 35 65c0 0-10 30 0 30 8 0 5-10 15-10 5 0 10 5 10 15s-5 15-10 15c-10 0-7-10-15-10-10 0 0 30 0 30 10 25 30 55 65 55s55-30 65-55c0 0 10-30 0-30-8 0-5 10-15 10z"/></clipPath><clipPath id="divisionClip_coa509968710"><rect x="100" y="0" width="100" height="92.5"/><rect x="0" y="107.5" width="100" height="92.5"/><path d="M0 115l-.1-6 .2.8c1.3-1 2.3-2.5 2.9-4.4.5-2 .4-3.9-.3-5.4-.7-1.5-.8-3.4-.3-5.4A9 9 0 015.5 90c-.7 1.5-.8 3.4-.3 5.4.5 2 1.7 3.6 3.1 4.6a9 9 0 013.1 4.6c.5 2 .4 3.9-.3 5.4a9 9 0 003.1-4.6c.5-2 .4-3.9-.3-5.4-.7-1.5-.8-3.4-.3-5.4.5-2 1.7-3.6 3.1-4.6-.7 1.5-.8 3.4-.3 5.4.5 2 1.7 3.6 3.1 4.6a9 9 0 013.1 4.6c.5 2 .4 3.9-.3 5.4a9 9 0 003.1-4.6c.5-2 .4-3.9-.3-5.4-.7-1.5-.8-3.4-.3-5.4.5-2 1.7-3.6 3.1-4.6-.7 1.5-.8 3.4-.3 5.4.5 2 1.7 3.6 3.1 4.6a9 9 0 013.1 4.6c.5 2 .4 3.9-.3 5.4a9 9 0 003.1-4.6c.5-2 .4-3.9-.3-5.4-.7-1.5-.8-3.4-.3-5.4.5-2 1.7-3.6 3.1-4.6-.7 1.5-.8 3.4-.3 5.4.5 2 1.7 3.6 3.1 4.6a9 9 0 013.1 4.6c.5 2 .4 3.9-.3 5.4a9 9 0 003.1-4.6c.5-2 .4-3.9-.3-5.4-.7-1.5-.8-3.4-.3-5.4.5-2 1.7-3.6 3.1-4.6-.7 1.5-.8 3.4-.3 5.4.5 2 1.7 3.6 3.1 4.6a9 9 0 013.1 4.6c.5 2 .4 3.9-.3 5.4a9 9 0 003.1-4.6c.5-2 .4-3.9-.3-5.4-.7-1.5-.8-3.4-.3-5.4.5-2 1.7-3.6 3.1-4.6-.7 1.5-.8 3.4-.3 5.4.5 2 1.7 3.6 3.1 4.6a9 9 0 013.1 4.6c.5 2 .4 3.9-.3 5.4a9 9 0 003.1-4.6c.5-2 .4-3.9-.3-5.4-.7-1.5-.8-3.4-.3-5.4.5-2 1.7-3.6 3.1-4.6-.7 1.5-.8 3.4-.3 5.4.5 2 1.7 3.6 3.1 4.6a9 9 0 013.1 4.6c.5 2 .4 3.9-.3 5.4a9 9 0 003.1-4.6c.5-2 .4-3.9-.3-5.4-.7-1.5-.8-3.4-.3-5.4.5-2 1.7-3.6 3.1-4.6-.7 1.5-.8 3.4-.3 5.4.5 2 1.7 3.6 3.1 4.6a9 9 0 013.1 4.6c.5 2 .4 3.9-.3 5.4a9 9 0 003.1-4.6c.5-2 .4-3.9-.3-5.4-.7-1.5-.8-3.4-.3-5.4.5-2 1.7-3.6 3.1-4.6-.7 1.5-.8 3.4-.3 5.4.5 2 2.1 3.1 3.1 4.6 1 1.6 2.4 3.1 2.7 4.8.3 1.7.3 3.3 0 5.2 1.3-1 2.6-2.7 3.2-4.6.5-2 .4-3.9-.3-5.4-.7-1.5-.8-3.4-.3-5.4.5-2 1.7-3.6 3.1-4.6-.7 1.5-.8 3.4-.3 5.4.5 2 1.7 3.6 3.1 4.6a9 9 0 013.1 4.6c.5 2 .4 3.9-.3 5.4a9 9 0 003.1-4.6c.5-2 .4-3.9-.3-5.4-.7-1.5-.8-3.4-.3-5.4.5-2 1.7-3.6 3.1-4.6-.7 1.5-.8 3.4-.3 5.4.5 2 1.7 3.6 3.1 4.6a9 9 0 013.1 4.6c.5 2 .4 3.9-.3 5.4a9 9 0 003.1-4.6c.5-2 .4-3.9-.3-5.4-.7-1.5-.8-3.4-.3-5.4.5-2 1.7-3.6 3.1-4.6-.7 1.5-.8 3.4-.3 5.4.5 2 1.7 3.6 3.1 4.6a9 9 0 013.1 4.6c.5 2 .4 3.9-.3 5.4a9 9 0 003.1-4.6c.5-2 .4-3.9-.3-5.4-.7-1.5-.8-3.4-.3-5.4.5-2 1.7-3.6 3.1-4.6-.7 1.5-.8 3.4-.3 5.4.5 2 1.7 3.6 3.1 4.6a9 9 0 013.1 4.6c.5 2 .4 3.9-.3 5.4a9 9 0 003.1-4.6c.5-2 .4-3.9-.3-5.4-.7-1.5-.8-3.4-.3-5.4.5-2 1.7-3.6 3.1-4.6-.7 1.5-.8 3.4-.3 5.4.5 2 1.7 3.6 3.1 4.6a9 9 0 013.1 4.6c.5 2 .4 3.9-.3 5.4a9 9 0 003.1-4.6c.5-2 .4-3.9-.3-5.4-.7-1.5-.8-3.4-.3-5.4.5-2 1.7-3.6 3.1-4.6-.7 1.5-.8 3.4-.3 5.4.5 2 1.7 3.6 3.1 4.6a9 9 0 013.1 4.6c.5 2 .4 3.9-.3 5.4a9 9 0 003.1-4.6c.5-2 .4-3.9-.3-5.4-.7-1.5-.8-3.4-.3-5.4.5-2 1.7-3.6 3.1-4.6-.7 1.5-.8 3.4-.3 5.4.5 2 1.7 3.6 3.1 4.6a9 9 0 013.1 4.6c.5 2 .4 3.9-.3 5.4a9 9 0 003.1-4.6c.5-2 .4-3.9-.3-5.4-.7-1.5-.8-3.4-.3-5.4.5-2 1.7-3.6 3.1-4.6-.7 1.5-.8 3.4-.3 5.4.5 2 1.7 3.6 3.1 4.6a9 9 0 013.1 4.6c.5 2 .4 3.9-.3 5.4a9 9 0 003.1-4.6c.5-2 .4-3.9-.3-5.4-.7-1.5-.8-3.4-.3-5.4.5-2 1.7-3.6 3.1-4.6-.7 1.5-.8 3.4-.3 5.4.75 2.79 2.72 4.08 4.45 5.82L200 115z" transform="translate(0 50) scale(.5001)"/><path d="M0 115l-.1-6 .2.8c1.3-1 2.3-2.5 2.9-4.4.5-2 .4-3.9-.3-5.4-.7-1.5-.8-3.4-.3-5.4A9 9 0 015.5 90c-.7 1.5-.8 3.4-.3 5.4.5 2 1.7 3.6 3.1 4.6a9 9 0 013.1 4.6c.5 2 .4 3.9-.3 5.4a9 9 0 003.1-4.6c.5-2 .4-3.9-.3-5.4-.7-1.5-.8-3.4-.3-5.4.5-2 1.7-3.6 3.1-4.6-.7 1.5-.8 3.4-.3 5.4.5 2 1.7 3.6 3.1 4.6a9 9 0 013.1 4.6c.5 2 .4 3.9-.3 5.4a9 9 0 003.1-4.6c.5-2 .4-3.9-.3-5.4-.7-1.5-.8-3.4-.3-5.4.5-2 1.7-3.6 3.1-4.6-.7 1.5-.8 3.4-.3 5.4.5 2 1.7 3.6 3.1 4.6a9 9 0 013.1 4.6c.5 2 .4 3.9-.3 5.4a9 9 0 003.1-4.6c.5-2 .4-3.9-.3-5.4-.7-1.5-.8-3.4-.3-5.4.5-2 1.7-3.6 3.1-4.6-.7 1.5-.8 3.4-.3 5.4.5 2 1.7 3.6 3.1 4.6a9 9 0 013.1 4.6c.5 2 .4 3.9-.3 5.4a9 9 0 003.1-4.6c.5-2 .4-3.9-.3-5.4-.7-1.5-.8-3.4-.3-5.4.5-2 1.7-3.6 3.1-4.6-.7 1.5-.8 3.4-.3 5.4.5 2 1.7 3.6 3.1 4.6a9 9 0 013.1 4.6c.5 2 .4 3.9-.3 5.4a9 9 0 003.1-4.6c.5-2 .4-3.9-.3-5.4-.7-1.5-.8-3.4-.3-5.4.5-2 1.7-3.6 3.1-4.6-.7 1.5-.8 3.4-.3 5.4.5 2 1.7 3.6 3.1 4.6a9 9 0 013.1 4.6c.5 2 .4 3.9-.3 5.4a9 9 0 003.1-4.6c.5-2 .4-3.9-.3-5.4-.7-1.5-.8-3.4-.3-5.4.5-2 1.7-3.6 3.1-4.6-.7 1.5-.8 3.4-.3 5.4.5 2 1.7 3.6 3.1 4.6a9 9 0 013.1 4.6c.5 2 .4 3.9-.3 5.4a9 9 0 003.1-4.6c.5-2 .4-3.9-.3-5.4-.7-1.5-.8-3.4-.3-5.4.5-2 1.7-3.6 3.1-4.6-.7 1.5-.8 3.4-.3 5.4.5 2 1.7 3.6 3.1 4.6a9 9 0 013.1 4.6c.5 2 .4 3.9-.3 5.4a9 9 0 003.1-4.6c.5-2 .4-3.9-.3-5.4-.7-1.5-.8-3.4-.3-5.4.5-2 1.7-3.6 3.1-4.6-.7 1.5-.8 3.4-.3 5.4.5 2 2.1 3.1 3.1 4.6 1 1.6 2.4 3.1 2.7 4.8.3 1.7.3 3.3 0 5.2 1.3-1 2.6-2.7 3.2-4.6.5-2 .4-3.9-.3-5.4-.7-1.5-.8-3.4-.3-5.4.5-2 1.7-3.6 3.1-4.6-.7 1.5-.8 3.4-.3 5.4.5 2 1.7 3.6 3.1 4.6a9 9 0 013.1 4.6c.5 2 .4 3.9-.3 5.4a9 9 0 003.1-4.6c.5-2 .4-3.9-.3-5.4-.7-1.5-.8-3.4-.3-5.4.5-2 1.7-3.6 3.1-4.6-.7 1.5-.8 3.4-.3 5.4.5 2 1.7 3.6 3.1 4.6a9 9 0 013.1 4.6c.5 2 .4 3.9-.3 5.4a9 9 0 003.1-4.6c.5-2 .4-3.9-.3-5.4-.7-1.5-.8-3.4-.3-5.4.5-2 1.7-3.6 3.1-4.6-.7 1.5-.8 3.4-.3 5.4.5 2 1.7 3.6 3.1 4.6a9 9 0 013.1 4.6c.5 2 .4 3.9-.3 5.4a9 9 0 003.1-4.6c.5-2 .4-3.9-.3-5.4-.7-1.5-.8-3.4-.3-5.4.5-2 1.7-3.6 3.1-4.6-.7 1.5-.8 3.4-.3 5.4.5 2 1.7 3.6 3.1 4.6a9 9 0 013.1 4.6c.5 2 .4 3.9-.3 5.4a9 9 0 003.1-4.6c.5-2 .4-3.9-.3-5.4-.7-1.5-.8-3.4-.3-5.4.5-2 1.7-3.6 3.1-4.6-.7 1.5-.8 3.4-.3 5.4.5 2 1.7 3.6 3.1 4.6a9 9 0 013.1 4.6c.5 2 .4 3.9-.3 5.4a9 9 0 003.1-4.6c.5-2 .4-3.9-.3-5.4-.7-1.5-.8-3.4-.3-5.4.5-2 1.7-3.6 3.1-4.6-.7 1.5-.8 3.4-.3 5.4.5 2 1.7 3.6 3.1 4.6a9 9 0 013.1 4.6c.5 2 .4 3.9-.3 5.4a9 9 0 003.1-4.6c.5-2 .4-3.9-.3-5.4-.7-1.5-.8-3.4-.3-5.4.5-2 1.7-3.6 3.1-4.6-.7 1.5-.8 3.4-.3 5.4.5 2 1.7 3.6 3.1 4.6a9 9 0 013.1 4.6c.5 2 .4 3.9-.3 5.4a9 9 0 003.1-4.6c.5-2 .4-3.9-.3-5.4-.7-1.5-.8-3.4-.3-5.4.5-2 1.7-3.6 3.1-4.6-.7 1.5-.8 3.4-.3 5.4.5 2 1.7 3.6 3.1 4.6a9 9 0 013.1 4.6c.5 2 .4 3.9-.3 5.4a9 9 0 003.1-4.6c.5-2 .4-3.9-.3-5.4-.7-1.5-.8-3.4-.3-5.4.5-2 1.7-3.6 3.1-4.6-.7 1.5-.8 3.4-.3 5.4.75 2.79 2.72 4.08 4.45 5.82L200 115z" transform="translate(200 150) scale(-.5)"/></clipPath><g id="inescutcheon_coa509968710"><path transform="translate(66 66) scale(.34)" d="M150 115c-5 0-10-5-10-15s5-15 10-15c10 0 7 10 15 10 10 0 0-30 0-30-10-25-30-55-65-55S45 40 35 65c0 0-10 30 0 30 8 0 5-10 15-10 5 0 10 5 10 15s-5 15-10 15c-10 0-7-10-15-10-10 0 0 30 0 30 10 25 30 55 65 55s55-30 65-55c0 0 10-30 0-30-8 0-5 10-15 10z"/></g><g id="lozengeFaceted_coa509968710"><polygon points="100 55 130 100 100 145 70 100"/><g fill="#000" stroke="none"><polygon points="100 100 130 100 100 55" opacity=".2"/><polygon points="100 100 70 100 100 145" opacity=".2"/><polygon points="100 100 130 100 100 145" opacity=".3"/></g></g><radialGradient id="backlight" cx="100%" cy="100%" r="150%"><stop stop-color="#fff" stop-opacity=".3" offset="0"/><stop stop-color="#fff" stop-opacity=".15" offset=".25"/><stop stop-color="#000" stop-opacity="0" offset="1"/></radialGradient></defs><g clip-path="url(#boeotian_coa509968710)"><rect x="0" y="0" width="200" height="200" fill="#fafafa"/><g clip-path="url(#divisionClip_coa509968710)"><rect x="0" y="0" width="200" height="200" fill="#d7374a"/></g><g fill="#26c061" stroke="#000"><use x:href="#inescutcheon_coa509968710" transform="translate(22.5 17.5) scale(0.45)"/><use x:href="#inescutcheon_coa509968710" transform="translate(87.5 17.5) scale(0.45)"/><use x:href="#inescutcheon_coa509968710" transform="translate(22.5 92.5) scale(0.45)"/><use x:href="#inescutcheon_coa509968710" transform="translate(87.5 92.5) scale(0.45)"/></g><g fill="#fafafa" stroke="#000"><use x:href="#lozengeFaceted_coa509968710" transform="translate(45.5 40.5) scale(0.22)"/><use x:href="#lozengeFaceted_coa509968710" transform="translate(110.5 40.5) scale(0.22)"/><use x:href="#lozengeFaceted_coa509968710" transform="translate(45.5 115.5) scale(0.22)"/><use x:href="#lozengeFaceted_coa509968710" transform="translate(110.5 115.5) scale(0.22)"/></g></g><path d="M150 115c-5 0-10-5-10-15s5-15 10-15c10 0 7 10 15 10 10 0 0-30 0-30-10-25-30-55-65-55S45 40 35 65c0 0-10 30 0 30 8 0 5-10 15-10 5 0 10 5 10 15s-5 15-10 15c-10 0-7-10-15-10-10 0 0 30 0 30 10 25 30 55 65 55s55-30 65-55c0 0 10-30 0-30-8 0-5 10-15 10z" fill="url(#backlight)" stroke="#333"/></svg>