<svg id="coa347638226" width="500" height="500" viewBox="0 0 200 200" xmlns="http://www.w3.org/2000/svg" xmlns:x="http://www.w3.org/1999/xlink"><defs><clipPath id="boeotian_coa347638226"><path d="M150 115c-5 0-10-5-10-15s5-15 10-15c10 0 7 10 15 10 10 0 0-30 0-30-10-25-30-55-65-55S45 40 35 65c0 0-10 30 0 30 8 0 5-10 15-10 5 0 10 5 10 15s-5 15-10 15c-10 0-7-10-15-10-10 0 0 30 0 30 10 25 30 55 65 55s55-30 65-55c0 0 10-30 0-30-8 0-5 10-15 10z"/></clipPath><clipPath id="divisionClip_coa347638226"><rect x="100" y="0" width="100" height="92.5"/><rect x="0" y="107.5" width="100" height="92.5"/><path d="m 0,95 a 6.25,6.25 0 0 0 12.5,0 6.25,6.25 0 0 0 12.5,0 6.25,6.25 0 0 0 12.5,0 6.25,6.25 0 0 0 12.5,0 6.25,6.25 0 0 0 12.5,0 6.25,6.25 0 0 0 12.5,0 6.25,6.25 0 0 0 12.5,0 6.25,6.25 0 0 0 12.5,0 6.25,6.25 0 0 0 12.5,0 6.25,6.25 0 0 0 12.5,0 6.25,6.25 0 0 0 12.5,0 6.25,6.25 0 0 0 12.5,0 6.25,6.25 0 0 0 12.5,0 6.25,6.25 0 0 0 12.5,0 6.25,6.25 0 0 0 12.5,0 6.25,6.25 0 0 0 12.5,0 v 20 H 0 Z" transform="translate(0 50) scale(.5001)"/><path d="m 0,95 a 6.25,6.25 0 0 0 12.5,0 6.25,6.25 0 0 0 12.5,0 6.25,6.25 0 0 0 12.5,0 6.25,6.25 0 0 0 12.5,0 6.25,6.25 0 0 0 12.5,0 6.25,6.25 0 0 0 12.5,0 6.25,6.25 0 0 0 12.5,0 6.25,6.25 0 0 0 12.5,0 6.25,6.25 0 0 0 12.5,0 6.25,6.25 0 0 0 12.5,0 6.25,6.25 0 0 0 12.5,0 6.25,6.25 0 0 0 12.5,0 6.25,6.25 0 0 0 12.5,0 6.25,6.25 0 0 0 12.5,0 6.25,6.25 0 0 0 12.5,0 6.25,6.25 0 0 0 12.5,0 v 20 H 0 Z" transform="translate(200 150) scale(-.5)"/></clipPath><g id="crossMoline_coa347638226" stroke-width=".5"><path d="M104.3 74.9c0-6.4 2.7-11.4 5.1-14.8-4.1 0-7.2 2-9.4 4.9-2.2-2.9-5.3-4.9-9.4-4.9 2.5 3.4 5.1 8.4 5.1 14.8v20.8H74.9c-6.4 0-11.3-2.7-14.8-5.1 0 4.1 2 7.2 4.9 9.4-2.9 2.2-4.9 5.4-4.9 9.4 3.4-2.5 8.3-5.1 14.8-5.1h20.8v20.9c0 6.4-2.7 11.4-5.1 14.8 4.1 0 7.2-2 9.4-4.9 2.2 2.9 5.3 4.9 9.4 4.9-2.5-3.4-5.1-8.4-5.1-14.8v-20.9h20.8c6.4 0 11.3 2.7 14.8 5.1 0-4.1-2-7.2-4.9-9.4 2.9-2.2 4.9-5.4 4.9-9.4-3.4 2.5-8.3 5.1-14.8 5.1h-20.8z"/></g><radialGradient id="backlight" cx="100%" cy="100%" r="150%"><stop stop-color="#fff" stop-opacity=".3" offset="0"/><stop stop-color="#fff" stop-opacity=".15" offset=".25"/><stop stop-color="#000" stop-opacity="0" offset="1"/></radialGradient></defs><g clip-path="url(#boeotian_coa347638226)"><rect x="0" y="0" width="200" height="200" fill="#fafafa"/><g fill="#522d5b" stroke="#000"><use x:href="#crossMoline_coa347638226" transform="translate(15.5 10.5) scale(0.52)"/><use x:href="#crossMoline_coa347638226" transform="translate(80.5 85.5) scale(0.52)"/></g><g clip-path="url(#divisionClip_coa347638226)"><rect x="0" y="0" width="200" height="200" fill="#522d5b"/><g fill="#fafafa" stroke="#000"><use x:href="#crossMoline_coa347638226" transform="translate(15.5 10.5) scale(0.52)"/><use x:href="#crossMoline_coa347638226" transform="translate(80.5 85.5) scale(0.52)"/></g></g></g><path d="M150 115c-5 0-10-5-10-15s5-15 10-15c10 0 7 10 15 10 10 0 0-30 0-30-10-25-30-55-65-55S45 40 35 65c0 0-10 30 0 30 8 0 5-10 15-10 5 0 10 5 10 15s-5 15-10 15c-10 0-7-10-15-10-10 0 0 30 0 30 10 25 30 55 65 55s55-30 65-55c0 0 10-30 0-30-8 0-5 10-15 10z" fill="url(#backlight)" stroke="#333"/></svg>