<svg id="coa26084848" width="500" height="500" viewBox="0 0 200 200" xmlns="http://www.w3.org/2000/svg" xmlns:x="http://www.w3.org/1999/xlink"><defs><clipPath id="boeotian_coa26084848"><path d="M150 115c-5 0-10-5-10-15s5-15 10-15c10 0 7 10 15 10 10 0 0-30 0-30-10-25-30-55-65-55S45 40 35 65c0 0-10 30 0 30 8 0 5-10 15-10 5 0 10 5 10 15s-5 15-10 15c-10 0-7-10-15-10-10 0 0 30 0 30 10 25 30 55 65 55s55-30 65-55c0 0 10-30 0-30-8 0-5 10-15 10z"/></clipPath><g id="hatchet_coa26084848" stroke-width=".615"><path d="M114.4 137.8c0 2.5 9.5 2.5 9.5 0l-.3-65.4c0-2.5-9-2.5-9-.1z"/><path d="M124.2 75.2c0-3-7.3-3-9.4-1.4-.5.4-.6 1-1.1 1.4-.6.3-4.3.3-5.4.3-11.1 0-23.9-13.3-26.4-14.8 0 0-6.4 10.4-6.4 29.6a72.4 72.4 0 0014.3 41.4s5.6-2.6 6.8-8.8c.9-4.1.5-9.9 1.5-14 2-8 10.6-8.8 10.6-8.8 0-.3-1.6-4-1.6-6.9 0-3.3 3.2-3.8 4.8-2.5.5.4.8 1.5.9 2.3v3.4c0 3 9.5 3 11.4 1.1V75.2z"/><path fill="#000" stroke="none" d="M83.5 68.7c-2.9 19.6-3.6 34.2 7.1 56-10.2-14.6-11.8-41.2-7.1-56zm30.7 8c.3 5.7.5 11.6 0 17.4-.3-5.3-.5-11.7 0-17.3z" opacity=".6"/></g><radialGradient id="backlight" cx="100%" cy="100%" r="150%"><stop stop-color="#fff" stop-opacity=".3" offset="0"/><stop stop-color="#fff" stop-opacity=".15" offset=".25"/><stop stop-color="#000" stop-opacity="0" offset="1"/></radialGradient></defs><g clip-path="url(#boeotian_coa26084848)"><rect x="0" y="0" width="200" height="200" fill="#377cd7"/><g fill="#fafafa" stroke="none"><rect width="37.5%" height="37.5%"/></g><g fill="#522d5b" stroke="#000"><use x:href="#hatchet_coa26084848" transform="translate(14 14) scale(0.38)"/></g></g><path d="M150 115c-5 0-10-5-10-15s5-15 10-15c10 0 7 10 15 10 10 0 0-30 0-30-10-25-30-55-65-55S45 40 35 65c0 0-10 30 0 30 8 0 5-10 15-10 5 0 10 5 10 15s-5 15-10 15c-10 0-7-10-15-10-10 0 0 30 0 30 10 25 30 55 65 55s55-30 65-55c0 0 10-30 0-30-8 0-5 10-15 10z" fill="url(#backlight)" stroke="#333"/></svg>