<svg id="coa343824508" width="500" height="500" viewBox="0 0 200 200" xmlns="http://www.w3.org/2000/svg" xmlns:x="http://www.w3.org/1999/xlink"><defs><clipPath id="boeotian_coa343824508"><path d="M150 115c-5 0-10-5-10-15s5-15 10-15c10 0 7 10 15 10 10 0 0-30 0-30-10-25-30-55-65-55S45 40 35 65c0 0-10 30 0 30 8 0 5-10 15-10 5 0 10 5 10 15s-5 15-10 15c-10 0-7-10-15-10-10 0 0 30 0 30 10 25 30 55 65 55s55-30 65-55c0 0 10-30 0-30-8 0-5 10-15 10z"/></clipPath><g id="rustre_coa343824508"><path d="M100 55l30 45-30 45-30-45zm-12 45a12 12 0 1024 0 12 12 0 10-24 0"/></g><g id="fleurDeLis_coa343824508"><path d="M104.2 113.2c.1-5.4 1.5-10.5 4-15.3 6.6-13.8 26.6-13.5 22.2 3.4-1.6 6.2-7.2 9.9-13.7 10.5.5-1.6 3.1-7.4 1-8.6-3.4.1-7.6 6-8.6 8.7-.1.4-.1.9-.3 1.3"/><path d="M95.8 113.2c-.1-5.4-1.5-10.5-4-15.3-6.5-13.8-26.6-13.4-22.2 3.5 1.6 6.2 7.2 9.9 13.7 10.5-.5-1.6-3.1-7.4-1-8.6 3.4.1 7.6 6 8.6 8.7.1.4.1.9.3 1.3"/><path d="M99.6 60.5C92.7 68 88 76.6 90 86.7c1.1 5.6 3.8 10.7 5.7 16.1 1.2 3.4 1.5 6.9 1.3 10.4h5.9c-.3-3.6.4-7 1.3-10.4 1.8-5.4 4.5-10.5 5.7-16.1 2.1-10.4-2.9-18.3-9.5-26.2l-.4-.5z"/><path d="M92 117.4c-1.7 3.4-8.5 9.7-12.2 11.5-.9.5 4.5-.3 6.9-.7 3.2-.5 7.4-3 7.3-2.1 0 4 1.5 10.7 5.6 13.8l.4.3.4-.3c4-3.4 5.6-9.5 5.6-13.8-.1-.9 4.1 1.6 7.3 2.1 2.4.4 7.9 1.1 6.9.7-3.6-1.8-10.5-8.1-12.2-11.5z"/><rect width="28" height="5" x="86.4" y="112.6"/></g><pattern id="semy_of_fleurDeLis-or-azure-small" width="0.1" height="0.1" viewBox="0 0 200 200" stroke="#000"><rect width="200" height="200" fill="#ffe066" stroke="none"/><g fill="#377cd7"><use transform="translate(-100 -50)" href="#fleurDeLis_coa343824508"/><use transform="translate(100 -50)" href="#fleurDeLis_coa343824508"/><use transform="translate(0 50)" href="#fleurDeLis_coa343824508"/></g></pattern><radialGradient id="backlight" cx="100%" cy="100%" r="150%"><stop stop-color="#fff" stop-opacity=".3" offset="0"/><stop stop-color="#fff" stop-opacity=".15" offset=".25"/><stop stop-color="#000" stop-opacity="0" offset="1"/></radialGradient></defs><g clip-path="url(#boeotian_coa343824508)"><rect x="0" y="0" width="200" height="200" fill="url(#semy_of_fleurDeLis-or-azure-small)"/><g fill="#26c061" stroke="none"><polygon points="85,0 85,85 0,85 0,115 85,115 85,200 115,200 115,115 200,115 200,85 115,85 115,0"/></g><g fill="#522d5b" stroke="#000"><use x:href="#rustre_coa343824508" transform="translate(-13 -13) scale(1.13)"/></g></g><path d="M150 115c-5 0-10-5-10-15s5-15 10-15c10 0 7 10 15 10 10 0 0-30 0-30-10-25-30-55-65-55S45 40 35 65c0 0-10 30 0 30 8 0 5-10 15-10 5 0 10 5 10 15s-5 15-10 15c-10 0-7-10-15-10-10 0 0 30 0 30 10 25 30 55 65 55s55-30 65-55c0 0 10-30 0-30-8 0-5 10-15 10z" fill="url(#backlight)" stroke="#333"/></svg>