<svg id="coa633841377" width="500" height="500" viewBox="0 0 200 200" xmlns="http://www.w3.org/2000/svg" xmlns:x="http://www.w3.org/1999/xlink"><defs><clipPath id="boeotian_coa633841377"><path d="M150 115c-5 0-10-5-10-15s5-15 10-15c10 0 7 10 15 10 10 0 0-30 0-30-10-25-30-55-65-55S45 40 35 65c0 0-10 30 0 30 8 0 5-10 15-10 5 0 10 5 10 15s-5 15-10 15c-10 0-7-10-15-10-10 0 0 30 0 30 10 25 30 55 65 55s55-30 65-55c0 0 10-30 0-30-8 0-5 10-15 10z"/></clipPath><g id="annulet_coa633841377"><path d="M70 100c0 16.569 13.431 30 30 30 16.569 0 30-13.431 30-30 0-16.569-13.431-30-30-30-16.569 0-30 13.431-30 30m10 0c0-11.046 8.954-20 20-20s20 8.954 20 20-8.954 20-20 20-20-8.954-20-20"/></g><radialGradient id="backlight" cx="100%" cy="100%" r="150%"><stop stop-color="#fff" stop-opacity=".3" offset="0"/><stop stop-color="#fff" stop-opacity=".15" offset=".25"/><stop stop-color="#000" stop-opacity="0" offset="1"/></radialGradient></defs><g clip-path="url(#boeotian_coa633841377)"><rect x="0" y="0" width="200" height="200" fill="#377cd7"/><g fill="#fafafa" stroke="#000"><use x:href="#annulet_coa633841377" transform="translate(29.5 24.5) scale(0.38)"/><use x:href="#annulet_coa633841377" transform="translate(62 62) scale(0.38)"/><use x:href="#annulet_coa633841377" transform="translate(94.5 99.5) scale(0.38)"/></g></g><path d="M150 115c-5 0-10-5-10-15s5-15 10-15c10 0 7 10 15 10 10 0 0-30 0-30-10-25-30-55-65-55S45 40 35 65c0 0-10 30 0 30 8 0 5-10 15-10 5 0 10 5 10 15s-5 15-10 15c-10 0-7-10-15-10-10 0 0 30 0 30 10 25 30 55 65 55s55-30 65-55c0 0 10-30 0-30-8 0-5 10-15 10z" fill="url(#backlight)" stroke="#333"/></svg>