<svg id="coa220196413" width="500" height="500" viewBox="0 10 200 200" xmlns="http://www.w3.org/2000/svg" xmlns:x="http://www.w3.org/1999/xlink"><defs><clipPath id="french_coa220196413"><path d="m 25,25 h 150 v 139.15 c 0,41.745 -66,18.15 -75,36.3 -9,-18.15 -75,5.445 -75,-36.3 v 0 z"/></clipPath><g id="bowWithArrow_coa220196413" stroke-width=".33"><path d="M97.2 96.6s-2.9-2-6.1-2c-6.1 0-10.3 3.9-14.7 6a21.4 21.4 0 01-8.7 2.6c-3.4 0-6-1.3-6-4.4 0-1.2.7-2.1 1.7-2.1s1.8 1 1.8 2.1c0 .5-.1 1-.4 1.4.5.3 1.4.8 2.9.8 2.5 0 6.7-2.9 9.9-4.9 5.6-3.4 8.1-5.9 13.1-5.9a12 12 0 016.5 2.2h5.6s3-2.2 6.5-2.2c5 0 7.5 2.5 13.1 6 3.2 1.9 7.4 4.8 10 4.8 1.4 0 2.3-.5 2.8-.8-.3-.4-.4-.9-.4-1.4 0-1.2.8-2.1 1.8-2.1s1.8 1 1.8 2.1c0 3.1-2.7 4.4-6 4.4-3 0-6-1.3-8.8-2.6-4.4-2.1-8.6-6-14.7-6a12 12 0 00-6 2h-5.7z"/><path d="M100.4 139.7l30.5-36c1.2-.8 2-1.7 2.5-2.6v-.4c0-.2 0-.5-.2-.6-.4-.2-.7 0-.9.3-.4.9-1 1.4-1.8 2-1.2.9-30.2 36-30.2 36"/><path fill="none" d="M102.8 92.4s.4 0 .4 2.1-.4 2.1-.4 2.1m-5.6 0s-.4.1-.4-2 .4-2.1.4-2.1"/><path d="M99.6 139.7l-30.5-36c-1.2-.8-2-1.7-2.5-2.6v-.4c0-.2 0-.5.2-.6.3-.2.7 0 .9.3.4.9 1 1.4 1.8 2 1.2.9 30.2 36 30.2 36"/><g stroke-width="3" transform="matrix(.11 0 0 .11 10.9 102)"><path d="M817.4 323a60 60 0 0022.3 6.1c9.6 0 20.2-9.6 20.2-20.8 0-30.9-42.5-111.4-42.5-111.4zm-15 0s-12.1 6.1-22.3 6.1c-9.6 0-20.2-9.6-20.2-20.8 0-30.9 42.5-111.4 42.5-111.4zm0-620.4v643.5s3.3 1.2 7.5 1.2 7.5-1.9 7.5-1.9v-643.5z"/><ellipse cx="809.9" cy="-300.7" rx="15" ry="8.3"/><path d="M819.3-301l-3.5-52.9 21.8 44.5H870l-60-71.9-60 71.9h32.4l21.8-44.5-3.5 52.9s2.8 2.6 9.4 2.6c6.4 0 9.2-2.6 9.2-2.6z"/></g></g><radialGradient id="backlight" cx="100%" cy="100%" r="150%"><stop stop-color="#fff" stop-opacity=".3" offset="0"/><stop stop-color="#fff" stop-opacity=".15" offset=".25"/><stop stop-color="#000" stop-opacity="0" offset="1"/></radialGradient></defs><g clip-path="url(#french_coa220196413)"><rect x="0" y="0" width="200" height="200" fill="#d7374a"/><g fill="#fafafa" stroke="#000"><use x:href="#bowWithArrow_coa220196413" transform="translate(12.5 12.5) scale(0.5)"/><use x:href="#bowWithArrow_coa220196413" transform="translate(50 50) scale(0.5)"/><use x:href="#bowWithArrow_coa220196413" transform="translate(87.5 87.5) scale(0.5)"/></g></g><path d="m 25,25 h 150 v 139.15 c 0,41.745 -66,18.15 -75,36.3 -9,-18.15 -75,5.445 -75,-36.3 v 0 z" fill="url(#backlight)" stroke="#333"/></svg>