<svg id="coa367503190" width="500" height="500" viewBox="0 10 200 200" xmlns="http://www.w3.org/2000/svg"><defs><clipPath id="french_coa367503190"><path d="m 25,25 h 150 v 139.15 c 0,41.745 -66,18.15 -75,36.3 -9,-18.15 -75,5.445 -75,-36.3 v 0 z"/></clipPath><clipPath id="divisionClip_coa367503190"><polygon points="0,0 200,200 0,200"/></clipPath><radialGradient id="backlight" cx="100%" cy="100%" r="150%"><stop stop-color="#fff" stop-opacity=".3" offset="0"/><stop stop-color="#fff" stop-opacity=".15" offset=".25"/><stop stop-color="#000" stop-opacity="0" offset="1"/></radialGradient></defs><g clip-path="url(#french_coa367503190)"><rect x="0" y="0" width="200" height="200" fill="#ffe066"/><g fill="#26c061" stroke="none"><path d="m0,250 a100,100,0,0,1,200,0"/></g><g clip-path="url(#divisionClip_coa367503190)"><rect x="0" y="0" width="200" height="200" fill="#26c061"/><g fill="#ffe066" stroke="none"><path d="m0,250 a100,100,0,0,1,200,0"/></g></g></g><path d="m 25,25 h 150 v 139.15 c 0,41.745 -66,18.15 -75,36.3 -9,-18.15 -75,5.445 -75,-36.3 v 0 z" fill="url(#backlight)" stroke="#333"/></svg>