<svg id="coa536488042" width="500" height="500" viewBox="0 10 200 200" xmlns="http://www.w3.org/2000/svg" xmlns:x="http://www.w3.org/1999/xlink"><defs><clipPath id="french_coa536488042"><path d="m 25,25 h 150 v 139.15 c 0,41.745 -66,18.15 -75,36.3 -9,-18.15 -75,5.445 -75,-36.3 v 0 z"/></clipPath><g id="inescutcheon_coa536488042"><path transform="translate(66 66) scale(.34)" d="m 25,25 h 150 v 139.15 c 0,41.745 -66,18.15 -75,36.3 -9,-18.15 -75,5.445 -75,-36.3 v 0 z"/></g><g id="carreau_coa536488042"><path stroke-width=".5" d="M100 59.8C94.4 75.1 86.2 88.6 75 100c11.2 11.4 19.4 24.9 25 40.2 5.6-15.3 13.8-28.8 25-40.2-11.2-11.4-19.4-24.9-25-40.2z"/></g><pattern id="fretty-sable-or" width="0.2" height="0.2" viewBox="0 0 140 140" stroke="#000" stroke-width="2"><rect width="140" height="140" fill="#333333" stroke="none"/><path d="m-15 5 150 150 20-20-150-150z" fill="#ffe066"/><path d="m10 150 140-140-20-20-140 140z" fill="#ffe066" stroke="none"/><path d="m0 120 20 20 120-120-20-20z" fill="none"/></pattern><radialGradient id="backlight" cx="100%" cy="100%" r="150%"><stop stop-color="#fff" stop-opacity=".3" offset="0"/><stop stop-color="#fff" stop-opacity=".15" offset=".25"/><stop stop-color="#000" stop-opacity="0" offset="1"/></radialGradient></defs><g clip-path="url(#french_coa536488042)"><rect x="0" y="0" width="200" height="200" fill="url(#fretty-sable-or)"/><g fill="#fafafa" stroke="#000"><use x:href="#inescutcheon_coa536488042" transform="translate(-50 -50) scale(1.5)"/></g><g fill="#377cd7" stroke="#000"><use x:href="#carreau_coa536488042" transform="translate(25 25) scale(0.75)"/></g></g><path d="m 25,25 h 150 v 139.15 c 0,41.745 -66,18.15 -75,36.3 -9,-18.15 -75,5.445 -75,-36.3 v 0 z" fill="url(#backlight)" stroke="#333"/></svg>