<svg id="coa744179746" width="500" height="500" viewBox="0 10 200 200" xmlns="http://www.w3.org/2000/svg" xmlns:x="http://www.w3.org/1999/xlink"><defs><clipPath id="spanish_coa744179746"><path d="m25,25 h150 v100 a75,75,0,0,1,-150,0 z"/></clipPath><g id="trefle_coa744179746"><path stroke-width=".5" d="M100 70c-7.8 0-14.1 6.4-14.1 14.3 0 5.6 3.2 10.5 7.9 12.8 1.4.7-.1 2.5-1.2 1.3-2.6-3-6.4-4.8-10.6-4.8-7.8 0-14.1 6.4-14.1 14.3s6.3 14.3 14.1 14.3c7.7 0 14.1-6.3 14.1-14.1 0-1.4 2.1-1.5 2.1.3 0 2.9-2.8 18.5-4.3 21.5 3.96-.86 8.16-1.15 12 0-1.5-3-4.3-18.6-4.3-21.5 0-1.9 2.1-1.7 2.1-.3.1 7.8 6.4 14.1 14.1 14.1 7.8 0 14.1-6.4 14.1-14.3s-6.3-14.3-14.1-14.3c-4.2 0-8 1.9-10.6 4.8-1 1.2-2.6-.6-1.2-1.3 4.7-2.3 7.9-7.2 7.9-12.8.2-7.9-6.1-14.3-13.9-14.3z"/></g><radialGradient id="backlight" cx="100%" cy="100%" r="150%"><stop stop-color="#fff" stop-opacity=".3" offset="0"/><stop stop-color="#fff" stop-opacity=".15" offset=".25"/><stop stop-color="#000" stop-opacity="0" offset="1"/></radialGradient></defs><g clip-path="url(#spanish_coa744179746)"><rect x="0" y="0" width="200" height="200" fill="#fafafa"/><g fill="#377cd7" stroke="none"><rect x="0" y="87.5" width="200" height="25"/></g><g fill="#fafafa" stroke="#000"><use x:href="#trefle_coa744179746" transform="translate(26.25 70) scale(0.3)"/><use x:href="#trefle_coa744179746" transform="translate(70 70) scale(0.3)"/><use x:href="#trefle_coa744179746" transform="translate(113.75 70) scale(0.3)"/></g></g><path d="m25,25 h150 v100 a75,75,0,0,1,-150,0 z" fill="url(#backlight)" stroke="#333"/></svg>