<svg id="coa305129616" width="500" height="500" viewBox="0 0 200 200" xmlns="http://www.w3.org/2000/svg" xmlns:x="http://www.w3.org/1999/xlink"><defs><clipPath id="boeotian_coa305129616"><path d="M150 115c-5 0-10-5-10-15s5-15 10-15c10 0 7 10 15 10 10 0 0-30 0-30-10-25-30-55-65-55S45 40 35 65c0 0-10 30 0 30 8 0 5-10 15-10 5 0 10 5 10 15s-5 15-10 15c-10 0-7-10-15-10-10 0 0 30 0 30 10 25 30 55 65 55s55-30 65-55c0 0 10-30 0-30-8 0-5 10-15 10z"/></clipPath><g id="crossLatin_coa305129616" stroke-width=".5"><path d="m 95,60 h 10 v 20 h 25 v 10 h -25 v 50 H 95 V 90 H 70 V 80 h 25 z"/></g><radialGradient id="backlight" cx="100%" cy="100%" r="150%"><stop stop-color="#fff" stop-opacity=".3" offset="0"/><stop stop-color="#fff" stop-opacity=".15" offset=".25"/><stop stop-color="#000" stop-opacity="0" offset="1"/></radialGradient></defs><g clip-path="url(#boeotian_coa305129616)"><rect x="0" y="0" width="200" height="200" fill="#ffe066"/><g fill="#522d5b" stroke="none"><path d="M0,102.5 a6.25,6.25,0,0,1,12.5,0 a6.25,6.25,0,0,1,12.5,0 a6.25,6.25,0,0,1,12.5,0 a6.25,6.25,0,0,1,12.5,0 a6.25,6.25,0,0,1,12.5,0 a6.25,6.25,0,0,1,12.5,0 a6.25,6.25,0,0,1,12.5,0 a6.25,6.25,0,0,1,12.5,0 a6.25,6.25,0,0,1,12.5,0 a6.25,6.25,0,0,1,12.5,0 a6.25,6.25,0,0,1,12.5,0 a6.25,6.25,0,0,1,12.5,0 a6.25,6.25,0,0,1,12.5,0 a6.25,6.25,0,0,1,12.5,0 a6.25,6.25,0,0,1,12.5,0 a6.25,6.25,0,0,1,12.5,0 v12.5 H0 z" transform="translate(-22 -12) rotate(-45 110 100) scale(1.1 1)"/><path d="M0,102.5 a6.25,6.25,0,0,1,12.5,0 a6.25,6.25,0,0,1,12.5,0 a6.25,6.25,0,0,1,12.5,0 a6.25,6.25,0,0,1,12.5,0 a6.25,6.25,0,0,1,12.5,0 a6.25,6.25,0,0,1,12.5,0 a6.25,6.25,0,0,1,12.5,0 a6.25,6.25,0,0,1,12.5,0 a6.25,6.25,0,0,1,12.5,0 a6.25,6.25,0,0,1,12.5,0 a6.25,6.25,0,0,1,12.5,0 a6.25,6.25,0,0,1,12.5,0 a6.25,6.25,0,0,1,12.5,0 a6.25,6.25,0,0,1,12.5,0 a6.25,6.25,0,0,1,12.5,0 a6.25,6.25,0,0,1,12.5,0 v12.5 H0 z" transform="translate(2 12) rotate(-225 110 100) scale(1.1 1)"/><rect x="0" y="94" width="200" height="12" transform="translate(-10 0) rotate(-45 110 100) scale(1.1 1)" stroke="none"/></g><g fill="#fafafa" stroke="#000"><use x:href="#crossLatin_coa305129616" transform="translate(110.5 40.5) scale(0.22)"/><use x:href="#crossLatin_coa305129616" transform="translate(78 78) scale(0.22)"/><use x:href="#crossLatin_coa305129616" transform="translate(45.5 115.5) scale(0.22)"/></g></g><path d="M150 115c-5 0-10-5-10-15s5-15 10-15c10 0 7 10 15 10 10 0 0-30 0-30-10-25-30-55-65-55S45 40 35 65c0 0-10 30 0 30 8 0 5-10 15-10 5 0 10 5 10 15s-5 15-10 15c-10 0-7-10-15-10-10 0 0 30 0 30 10 25 30 55 65 55s55-30 65-55c0 0 10-30 0-30-8 0-5 10-15 10z" fill="url(#backlight)" stroke="#333"/></svg>