<svg id="coa536488042" width="500" height="500" viewBox="0 10 200 200" xmlns="http://www.w3.org/2000/svg" xmlns:x="http://www.w3.org/1999/xlink"><defs><clipPath id="spanish_coa536488042"><path d="m25,25 h150 v100 a75,75,0,0,1,-150,0 z"/></clipPath><g id="crossBiparted_coa536488042" stroke-width=".5"><path d="m 90,60 10,10 10,-10 v 30 h 30 l -10,10 10,10 h -30 v 30 L 100,130 90,140 V 110 H 60 L 70,100 60,90 h 30 z"/></g><radialGradient id="backlight" cx="100%" cy="100%" r="150%"><stop stop-color="#fff" stop-opacity=".3" offset="0"/><stop stop-color="#fff" stop-opacity=".15" offset=".25"/><stop stop-color="#000" stop-opacity="0" offset="1"/></radialGradient></defs><g clip-path="url(#spanish_coa536488042)"><rect x="0" y="0" width="200" height="200" fill="#fafafa"/><g fill="#333333" stroke="none"><polygon points="0,125 100,60 200,125 200,165 100,100 0,165"/></g><g fill="#333333" stroke="#000"><use x:href="#crossBiparted_coa536488042" transform="translate(6.25 0) scale(0.5)"/><use x:href="#crossBiparted_coa536488042" transform="translate(93.75 0) scale(0.5)"/><use x:href="#crossBiparted_coa536488042" transform="translate(50 100) scale(0.5)"/></g></g><path d="m25,25 h150 v100 a75,75,0,0,1,-150,0 z" fill="url(#backlight)" stroke="#333"/></svg>