<svg id="coa971649498" width="500" height="500" viewBox="0 0 200 200" xmlns="http://www.w3.org/2000/svg" xmlns:x="http://www.w3.org/1999/xlink"><defs><clipPath id="boeotian_coa971649498"><path d="M150 115c-5 0-10-5-10-15s5-15 10-15c10 0 7 10 15 10 10 0 0-30 0-30-10-25-30-55-65-55S45 40 35 65c0 0-10 30 0 30 8 0 5-10 15-10 5 0 10 5 10 15s-5 15-10 15c-10 0-7-10-15-10-10 0 0 30 0 30 10 25 30 55 65 55s55-30 65-55c0 0 10-30 0-30-8 0-5 10-15 10z"/></clipPath><clipPath id="divisionClip_coa971649498"><polygon points="0,0 100,100 200,0"/></clipPath><g id="roundel_coa971649498"><circle cx="100" cy="100" r="30"/></g><pattern id="bendy-argent-gules" width="0.5" height="0.5" viewBox="0 0 100 100"><rect width="100" height="100" fill="#fafafa"/><polygon points="0,25 75,100 25,100 0,75" fill="#d7374a"/><polygon points="25,0 75,0 100,25 100,75" fill="#d7374a"/></pattern><radialGradient id="backlight" cx="100%" cy="100%" r="150%"><stop stop-color="#fff" stop-opacity=".3" offset="0"/><stop stop-color="#fff" stop-opacity=".15" offset=".25"/><stop stop-color="#000" stop-opacity="0" offset="1"/></radialGradient></defs><g clip-path="url(#boeotian_coa971649498)"><rect x="0" y="0" width="200" height="200" fill="url(#bendy-argent-gules)"/><g clip-path="url(#divisionClip_coa971649498)"><rect x="0" y="0" width="200" height="200" fill="#333333"/></g><g fill="#377cd7" stroke="#000"><use x:href="#roundel_coa971649498" transform="translate(37 62) scale(0.38)"/><use x:href="#roundel_coa971649498" transform="translate(87 62) scale(0.38)"/><use x:href="#roundel_coa971649498" transform="translate(62 109.5) scale(0.38)"/></g></g><path d="M150 115c-5 0-10-5-10-15s5-15 10-15c10 0 7 10 15 10 10 0 0-30 0-30-10-25-30-55-65-55S45 40 35 65c0 0-10 30 0 30 8 0 5-10 15-10 5 0 10 5 10 15s-5 15-10 15c-10 0-7-10-15-10-10 0 0 30 0 30 10 25 30 55 65 55s55-30 65-55c0 0 10-30 0-30-8 0-5 10-15 10z" fill="url(#backlight)" stroke="#333"/></svg>