<svg id="coa543496582" width="500" height="500" viewBox="0 10 200 200" xmlns="http://www.w3.org/2000/svg"><defs><clipPath id="spanish_coa543496582"><path d="m25,25 h150 v100 a75,75,0,0,1,-150,0 z"/></clipPath><clipPath id="divisionClip_coa543496582"><polygon points="0,0 200,200 200,100 0,100"/><polygon points="200,0 0,200 100,200 100,0"/></clipPath><pattern id="potentInPale-or-purpure-small" width="0.1" height="0.05" viewBox="0 0 200 100" stroke-width="1"><rect width="200" height="100" fill="#ffe066" stroke="none"/><path d="m25 50h50v-50h50v50h50v50h-150z" fill="#522d5b" stroke="#000"/><path d="m0 0h200 M0 100h200" fill="none" stroke="#000"/></pattern><radialGradient id="backlight" cx="100%" cy="100%" r="150%"><stop stop-color="#fff" stop-opacity=".3" offset="0"/><stop stop-color="#fff" stop-opacity=".15" offset=".25"/><stop stop-color="#000" stop-opacity="0" offset="1"/></radialGradient></defs><g clip-path="url(#spanish_coa543496582)"><rect x="0" y="0" width="200" height="200" fill="url(#potentInPale-or-purpure-small)"/><g clip-path="url(#divisionClip_coa543496582)"><rect x="0" y="0" width="200" height="200" fill="#377cd7"/></g><g fill="#d7374a" stroke="none"><path d="M15,0 100,200 60,0Z M80,0 100,200 120,0Z M140,0 100,200 185,0Z"/></g></g><path d="m25,25 h150 v100 a75,75,0,0,1,-150,0 z" fill="url(#backlight)" stroke="#333"/></svg>