<svg id="coa230782123" width="500" height="500" viewBox="0 0 200 200" xmlns="http://www.w3.org/2000/svg" xmlns:x="http://www.w3.org/1999/xlink"><defs><clipPath id="boeotian_coa230782123"><path d="M150 115c-5 0-10-5-10-15s5-15 10-15c10 0 7 10 15 10 10 0 0-30 0-30-10-25-30-55-65-55S45 40 35 65c0 0-10 30 0 30 8 0 5-10 15-10 5 0 10 5 10 15s-5 15-10 15c-10 0-7-10-15-10-10 0 0 30 0 30 10 25 30 55 65 55s55-30 65-55c0 0 10-30 0-30-8 0-5 10-15 10z"/></clipPath><g id="mullet4_coa230782123"><polygon points="100 60 109.9 90.1 140 100 109.9 109.9 100 140 90.1 109.9 60 100 90.1 90.1"/></g><pattern id="ermine-argent-sable-smaller" width="0.0625" height="0.0625" viewBox="0 0 200 200" fill="#333333"><rect width="200" height="200" fill="#fafafa"/><g stroke="none" fill="#333333"><g transform="translate(-100 -50)"><path d="m100 81.1c-4.25 17.6-12.7 29.8-21.2 38.9 3.65-0.607 7.9-3.04 11.5-5.47-2.42 4.86-4.86 8.51-7.3 12.7 1.82-0.607 6.07-4.86 12.7-10.9 1.21 8.51 2.42 17.6 4.25 23.6 1.82-5.47 3.04-15.2 4.25-23.6 3.65 3.65 7.3 7.9 12.7 10.9l-7.9-13.3c3.65 1.82 7.9 4.86 11.5 6.07-9.11-9.11-17-21.2-20.6-38.9z"/><path d="m82.4 81.7c-0.607-0.607-6.07 2.42-9.72-4.25 7.9 6.68 15.2-7.3 21.8 1.82 1.82 4.25-6.68 10.9-12.1 2.42z"/><path d="m117 81.7c0.607-1.21 6.07 2.42 9.11-4.86-7.3 7.3-15.2-7.3-21.2 2.42-1.82 4.25 6.68 10.9 12.1 2.42z"/><path d="m101 66.5c-1.02-0.607 3.58-4.25-3.07-8.51 5.63 7.9-10.2 10.9-1.54 17.6 3.58 2.42 12.2-2.42 4.6-9.11z"/></g><g transform="translate(100 -50)"><path d="m100 81.1c-4.25 17.6-12.7 29.8-21.2 38.9 3.65-0.607 7.9-3.04 11.5-5.47-2.42 4.86-4.86 8.51-7.3 12.7 1.82-0.607 6.07-4.86 12.7-10.9 1.21 8.51 2.42 17.6 4.25 23.6 1.82-5.47 3.04-15.2 4.25-23.6 3.65 3.65 7.3 7.9 12.7 10.9l-7.9-13.3c3.65 1.82 7.9 4.86 11.5 6.07-9.11-9.11-17-21.2-20.6-38.9z"/><path d="m82.4 81.7c-0.607-0.607-6.07 2.42-9.72-4.25 7.9 6.68 15.2-7.3 21.8 1.82 1.82 4.25-6.68 10.9-12.1 2.42z"/><path d="m117 81.7c0.607-1.21 6.07 2.42 9.11-4.86-7.3 7.3-15.2-7.3-21.2 2.42-1.82 4.25 6.68 10.9 12.1 2.42z"/><path d="m101 66.5c-1.02-0.607 3.58-4.25-3.07-8.51 5.63 7.9-10.2 10.9-1.54 17.6 3.58 2.42 12.2-2.42 4.6-9.11z"/></g><g transform="translate(0 50)"><path d="m100 81.1c-4.25 17.6-12.7 29.8-21.2 38.9 3.65-0.607 7.9-3.04 11.5-5.47-2.42 4.86-4.86 8.51-7.3 12.7 1.82-0.607 6.07-4.86 12.7-10.9 1.21 8.51 2.42 17.6 4.25 23.6 1.82-5.47 3.04-15.2 4.25-23.6 3.65 3.65 7.3 7.9 12.7 10.9l-7.9-13.3c3.65 1.82 7.9 4.86 11.5 6.07-9.11-9.11-17-21.2-20.6-38.9z"/><path d="m82.4 81.7c-0.607-0.607-6.07 2.42-9.72-4.25 7.9 6.68 15.2-7.3 21.8 1.82 1.82 4.25-6.68 10.9-12.1 2.42z"/><path d="m117 81.7c0.607-1.21 6.07 2.42 9.11-4.86-7.3 7.3-15.2-7.3-21.2 2.42-1.82 4.25 6.68 10.9 12.1 2.42z"/><path d="m101 66.5c-1.02-0.607 3.58-4.25-3.07-8.51 5.63 7.9-10.2 10.9-1.54 17.6 3.58 2.42 12.2-2.42 4.6-9.11z"/></g></g></pattern><radialGradient id="backlight" cx="100%" cy="100%" r="150%"><stop stop-color="#fff" stop-opacity=".3" offset="0"/><stop stop-color="#fff" stop-opacity=".15" offset=".25"/><stop stop-color="#000" stop-opacity="0" offset="1"/></radialGradient></defs><g clip-path="url(#boeotian_coa230782123)"><rect x="0" y="0" width="200" height="200" fill="url(#ermine-argent-sable-smaller)"/><g fill="#26c061" stroke="none"><rect x="0" y="145" width="200" height="55"/></g><g fill="#377cd7" stroke="#000"><use x:href="#mullet4_coa230782123" transform="translate(-13 -13) scale(1.13)"/></g></g><path d="M150 115c-5 0-10-5-10-15s5-15 10-15c10 0 7 10 15 10 10 0 0-30 0-30-10-25-30-55-65-55S45 40 35 65c0 0-10 30 0 30 8 0 5-10 15-10 5 0 10 5 10 15s-5 15-10 15c-10 0-7-10-15-10-10 0 0 30 0 30 10 25 30 55 65 55s55-30 65-55c0 0 10-30 0-30-8 0-5 10-15 10z" fill="url(#backlight)" stroke="#333"/></svg>