<svg id="coa712478932" width="500" height="500" viewBox="0 10 200 200" xmlns="http://www.w3.org/2000/svg" xmlns:x="http://www.w3.org/1999/xlink"><defs><clipPath id="spanish_coa712478932"><path d="m25,25 h150 v100 a75,75,0,0,1,-150,0 z"/></clipPath><g id="crescent_coa712478932" stroke-width=".5"><path d="M84 65c-32 15-24 68 16 68s48-53 16-68c18 20 2 41-16 41S67 85 84 65z"/><path fill="none" d="M84 65c-26 15-14 56 16 56s42-41 16-56"/></g><radialGradient id="backlight" cx="100%" cy="100%" r="150%"><stop stop-color="#fff" stop-opacity=".3" offset="0"/><stop stop-color="#fff" stop-opacity=".15" offset=".25"/><stop stop-color="#000" stop-opacity="0" offset="1"/></radialGradient></defs><g clip-path="url(#spanish_coa712478932)"><rect x="0" y="0" width="200" height="200" fill="#ffe066"/><g fill="#522d5b" stroke="none"><polygon points="35,0 200,165 200,200 165,200 0,35 0,0"/></g><g fill="#ffe066" stroke="#000"><use x:href="#crescent_coa712478932" transform="translate(30 30) scale(0.7)"/></g></g><path d="m25,25 h150 v100 a75,75,0,0,1,-150,0 z" fill="url(#backlight)" stroke="#333"/></svg>