<svg id="coa823381504" width="500" height="500" viewBox="0 10 200 200" xmlns="http://www.w3.org/2000/svg"><defs><clipPath id="spanish_coa823381504"><path d="m25,25 h150 v100 a75,75,0,0,1,-150,0 z"/></clipPath><pattern id="bendySinister-azure-argent-small" width="0.4" height="0.4" viewBox="0 0 100 100"><rect width="100" height="100" fill="#fafafa"/><polygon points="0,25 25,0 75,0 0,75" fill="#377cd7"/><polygon points="25,100 100,25 100,75 75,100" fill="#377cd7"/></pattern><radialGradient id="backlight" cx="100%" cy="100%" r="150%"><stop stop-color="#fff" stop-opacity=".3" offset="0"/><stop stop-color="#fff" stop-opacity=".15" offset=".25"/><stop stop-color="#000" stop-opacity="0" offset="1"/></radialGradient></defs><g clip-path="url(#spanish_coa823381504)"><rect x="0" y="0" width="200" height="200" fill="url(#bendySinister-azure-argent-small)"/><g fill="#ffe066" stroke="none"><polygon points="85,0 85,85 0,85 0,115 85,115 85,200 115,200 115,115 200,115 200,85 115,85 115,0"/></g></g><path d="m25,25 h150 v100 a75,75,0,0,1,-150,0 z" fill="url(#backlight)" stroke="#333"/></svg>