<svg id="coa31732195" width="500" height="500" viewBox="0 10 200 200" xmlns="http://www.w3.org/2000/svg" xmlns:x="http://www.w3.org/1999/xlink"><defs><clipPath id="spanish_coa31732195"><path d="m25,25 h150 v100 a75,75,0,0,1,-150,0 z"/></clipPath><g id="crossPattee_coa31732195" stroke-width=".5"><path d="M 77,62 C 88,71 95,82 96,96 82,95 71,88 62,77 v 46 c 9,-11 20,-18 34,-19 -1,14 -8,25 -19,34 h 46 c -11,-9 -18,-20 -19,-34 14,1 25,8 34,19 V 77 c -9,11 -20,18 -34,19 1,-14 8,-25 19,-34 z"/></g><radialGradient id="backlight" cx="100%" cy="100%" r="150%"><stop stop-color="#fff" stop-opacity=".3" offset="0"/><stop stop-color="#fff" stop-opacity=".15" offset=".25"/><stop stop-color="#000" stop-opacity="0" offset="1"/></radialGradient></defs><g clip-path="url(#spanish_coa31732195)"><rect x="0" y="0" width="200" height="200" fill="#333333"/><g fill="#fafafa" stroke="#000"><use x:href="#crossPattee_coa31732195" transform="translate(-50 -50) scale(1.5)"/></g></g><path d="m25,25 h150 v100 a75,75,0,0,1,-150,0 z" fill="url(#backlight)" stroke="#333"/></svg>