<svg id="coa486515331" width="500" height="500" viewBox="0 10 200 200" xmlns="http://www.w3.org/2000/svg" xmlns:x="http://www.w3.org/1999/xlink"><defs><clipPath id="spanish_coa486515331"><path d="m25,25 h150 v100 a75,75,0,0,1,-150,0 z"/></clipPath><clipPath id="divisionClip_coa486515331"><polygon points="0,0 0,200 200,0 200,200"/></clipPath><g id="lozengeFaceted_coa486515331"><polygon points="100 55 130 100 100 145 70 100"/><g fill="#000" stroke="none"><polygon points="100 100 130 100 100 55" opacity=".2"/><polygon points="100 100 70 100 100 145" opacity=".2"/><polygon points="100 100 130 100 100 145" opacity=".3"/></g></g><radialGradient id="backlight" cx="100%" cy="100%" r="150%"><stop stop-color="#fff" stop-opacity=".3" offset="0"/><stop stop-color="#fff" stop-opacity=".15" offset=".25"/><stop stop-color="#000" stop-opacity="0" offset="1"/></radialGradient></defs><g clip-path="url(#spanish_coa486515331)"><rect x="0" y="0" width="200" height="200" fill="#377cd7"/><g fill="#ffe066" stroke="#000"><use x:href="#lozengeFaceted_coa486515331" transform="translate(26.25 20) scale(0.3)"/><use x:href="#lozengeFaceted_coa486515331" transform="translate(70 20) scale(0.3)"/><use x:href="#lozengeFaceted_coa486515331" transform="translate(113.75 20) scale(0.3)"/><use x:href="#lozengeFaceted_coa486515331" transform="translate(26.25 70) scale(0.3)"/><use x:href="#lozengeFaceted_coa486515331" transform="translate(70 70) scale(0.3)"/><use x:href="#lozengeFaceted_coa486515331" transform="translate(113.75 70) scale(0.3)"/><use x:href="#lozengeFaceted_coa486515331" transform="translate(26.25 120) scale(0.3)"/><use x:href="#lozengeFaceted_coa486515331" transform="translate(70 120) scale(0.3)"/><use x:href="#lozengeFaceted_coa486515331" transform="translate(113.75 120) scale(0.3)"/></g><g clip-path="url(#divisionClip_coa486515331)"><rect x="0" y="0" width="200" height="200" fill="#ffe066"/><g fill="#377cd7" stroke="#000"><use x:href="#lozengeFaceted_coa486515331" transform="translate(26.25 20) scale(0.3)"/><use x:href="#lozengeFaceted_coa486515331" transform="translate(70 20) scale(0.3)"/><use x:href="#lozengeFaceted_coa486515331" transform="translate(113.75 20) scale(0.3)"/><use x:href="#lozengeFaceted_coa486515331" transform="translate(26.25 70) scale(0.3)"/><use x:href="#lozengeFaceted_coa486515331" transform="translate(70 70) scale(0.3)"/><use x:href="#lozengeFaceted_coa486515331" transform="translate(113.75 70) scale(0.3)"/><use x:href="#lozengeFaceted_coa486515331" transform="translate(26.25 120) scale(0.3)"/><use x:href="#lozengeFaceted_coa486515331" transform="translate(70 120) scale(0.3)"/><use x:href="#lozengeFaceted_coa486515331" transform="translate(113.75 120) scale(0.3)"/></g></g></g><path d="m25,25 h150 v100 a75,75,0,0,1,-150,0 z" fill="url(#backlight)" stroke="#333"/></svg>