<svg id="coa765676986" width="500" height="500" viewBox="0 10 200 200" xmlns="http://www.w3.org/2000/svg" xmlns:x="http://www.w3.org/1999/xlink"><defs><clipPath id="spanish_coa765676986"><path d="m25,25 h150 v100 a75,75,0,0,1,-150,0 z"/></clipPath><g id="crossDouble_coa765676986" stroke-width=".5"><path d="m 95,60 h 10 v 20 h 20 v 10 h -20 v 20 h 20 v 10 h -20 v 20 H 95 V 120 H 75 V 110 H 95 V 90 H 75 V 80 h 20 z"/></g><radialGradient id="backlight" cx="100%" cy="100%" r="150%"><stop stop-color="#fff" stop-opacity=".3" offset="0"/><stop stop-color="#fff" stop-opacity=".15" offset=".25"/><stop stop-color="#000" stop-opacity="0" offset="1"/></radialGradient></defs><g clip-path="url(#spanish_coa765676986)"><rect x="0" y="0" width="200" height="200" fill="#d7374a"/><g fill="#fafafa" stroke="#000"><use x:href="#crossDouble_coa765676986" transform="translate(-7.5 -7.5) scale(0.7)"/><use x:href="#crossDouble_coa765676986" transform="translate(67.5 -7.5) scale(0.7)"/><use x:href="#crossDouble_coa765676986" transform="translate(30 67.5) scale(0.7)"/></g></g><path d="m25,25 h150 v100 a75,75,0,0,1,-150,0 z" fill="url(#backlight)" stroke="#333"/></svg>