<svg xmlns="http://www.w3.org/2000/svg" id="burgCOA604" width="200" height="200" viewBox="0 10 200 200">
        <defs><clipPath id="spanish_burgCOA604"><path d="m25,25 h150 v100 a75,75,0,0,1,-150,0 z"></path></clipPath><clipPath id="divisionClip_burgCOA604"><rect x="100" y="0" width="100" height="100"></rect><rect x="0" y="100" width="100" height="100"></rect></clipPath><pattern id="lozengy-gules-argent" width="0.125" height="0.125" viewBox="0 0 50 50"><rect width="50" height="50" fill="#d7374a"></rect><polygon points="25,0 50,25 25,50 0,25" fill="#fafafa"></polygon></pattern><radialGradient id="backlight_burgCOA604" cx="100%" cy="100%" r="150%"><stop stop-color="#fff" stop-opacity=".3" offset="0"></stop><stop stop-color="#fff" stop-opacity=".15" offset=".25"></stop><stop stop-color="#000" stop-opacity="0" offset="1"></stop></radialGradient></defs>
        <g clip-path="url(#spanish_burgCOA604)"><rect x="0" y="0" width="200" height="200" fill="url(#lozengy-gules-argent)"></rect><g clip-path="url(#divisionClip_burgCOA604)"><rect x="0" y="0" width="200" height="200" fill="#ffe066"></rect></g><g fill="#377cd7" stroke="none"><polygon points="22,0 200,178 200,200 178,200 0,22 0,0"></polygon></g></g>
        <path d="m25,25 h150 v100 a75,75,0,0,1,-150,0 z" fill="url(#backlight_burgCOA604)" stroke="#333"></path></svg>