<svg xmlns="http://www.w3.org/2000/svg" id="burgCOA310" width="200" height="200" viewBox="0 10 200 200">
        <defs><clipPath id="french_burgCOA310"><path d="m 25,25 h 150 v 139.15 c 0,41.745 -66,18.15 -75,36.3 -9,-18.15 -75,5.445 -75,-36.3 v 0 z"></path></clipPath><radialGradient id="backlight_burgCOA310" cx="100%" cy="100%" r="150%"><stop stop-color="#fff" stop-opacity=".3" offset="0"></stop><stop stop-color="#fff" stop-opacity=".15" offset=".25"></stop><stop stop-color="#000" stop-opacity="0" offset="1"></stop></radialGradient></defs>
        <g clip-path="url(#french_burgCOA310)"><rect x="0" y="0" width="200" height="200" fill="#377cd7"></rect><g fill="#ffe066" stroke="none"><path d="m 25,25 h 150 v 139.15 c 0,41.745 -66,18.15 -75,36.3 -9,-18.15 -75,5.445 -75,-36.3 v 0 z" fill="none" stroke="#ffe066" stroke-width="16.7%"></path></g></g>
        <path d="m 25,25 h 150 v 139.15 c 0,41.745 -66,18.15 -75,36.3 -9,-18.15 -75,5.445 -75,-36.3 v 0 z" fill="url(#backlight_burgCOA310)" stroke="#333"></path></svg>