<svg xmlns="http://www.w3.org/2000/svg" id="burgCOA275" width="200" height="200" viewBox="0 0 200 200">
        <defs><clipPath id="boeotian_burgCOA275"><path d="M150 115c-5 0-10-5-10-15s5-15 10-15c10 0 7 10 15 10 10 0 0-30 0-30-10-25-30-55-65-55S45 40 35 65c0 0-10 30 0 30 8 0 5-10 15-10 5 0 10 5 10 15s-5 15-10 15c-10 0-7-10-15-10-10 0 0 30 0 30 10 25 30 55 65 55s55-30 65-55c0 0 10-30 0-30-8 0-5 10-15 10z"></path></clipPath><g id="mulletFaceted_burgCOA275"><path d="M100 60l8.98 27.64h29.06l-23.51 17.08 8.98 27.64L100 115.28l-23.51 17.08 8.98-27.64-23.51-17.08h29.06z"></path><path fill="#000" fill-opacity=".2" stroke-width=".2" d="M100 100V60l8.98 27.64L100 100l38.04-12.36-23.51 17.08L100 100l23.51 32.36L100 115.28V100l-23.51 32.36 8.98-27.64L100 100 61.96 87.64h29.06z"></path></g><radialGradient id="backlight_burgCOA275" cx="100%" cy="100%" r="150%"><stop stop-color="#fff" stop-opacity=".3" offset="0"></stop><stop stop-color="#fff" stop-opacity=".15" offset=".25"></stop><stop stop-color="#000" stop-opacity="0" offset="1"></stop></radialGradient></defs>
        <g clip-path="url(#boeotian_burgCOA275)"><rect x="0" y="0" width="200" height="200" fill="#26c061"></rect><g fill="#ffe066" stroke="none"><rect x="0" y="75" width="200" height="50"></rect></g><g fill="#ffe066" stroke="#000"><use href="#mulletFaceted_burgCOA275" transform="translate(25 15) scale(0.375)"></use><use href="#mulletFaceted_burgCOA275" transform="translate(62.5 15) scale(0.375)"></use><use href="#mulletFaceted_burgCOA275" transform="translate(100 15) scale(0.375)"></use><use href="#mulletFaceted_burgCOA275" transform="translate(62.5 122.5) scale(0.375)"></use></g></g>
        <path d="M150 115c-5 0-10-5-10-15s5-15 10-15c10 0 7 10 15 10 10 0 0-30 0-30-10-25-30-55-65-55S45 40 35 65c0 0-10 30 0 30 8 0 5-10 15-10 5 0 10 5 10 15s-5 15-10 15c-10 0-7-10-15-10-10 0 0 30 0 30 10 25 30 55 65 55s55-30 65-55c0 0 10-30 0-30-8 0-5 10-15 10z" fill="url(#backlight_burgCOA275)" stroke="#333"></path></svg>