<svg xmlns="http://www.w3.org/2000/svg" id="burgCOA152" width="200" height="200" viewBox="0 10 200 200">
        <defs><clipPath id="wedged_burgCOA152"><path d="m 51.2,19 h 96.4 c 3.1,12.7 10.7,20.9 26.5,20.8 C 175.7,94.5 165.3,144.3 100,200 43.5,154.2 22.8,102.8 25.1,39.7 37,38.9 47.1,34.7 51.2,19 Z"></path></clipPath><pattern id="counterPotent-or-azure" width="0.125" height="0.125" viewBox="0 0 200 200" stroke="none"><rect width="200" height="200" fill="#ffe066"></rect><path d="m25 50h50v-50h50v50h50v100h-50v50h-50v-50h-50v-50z" fill="#377cd7"></path><path d="m0 0h200 M0 100h200 M0 200h200"></path></pattern><radialGradient id="backlight_burgCOA152" cx="100%" cy="100%" r="150%"><stop stop-color="#fff" stop-opacity=".3" offset="0"></stop><stop stop-color="#fff" stop-opacity=".15" offset=".25"></stop><stop stop-color="#000" stop-opacity="0" offset="1"></stop></radialGradient></defs>
        <g clip-path="url(#wedged_burgCOA152)"><rect x="0" y="0" width="200" height="200" fill="url(#counterPotent-or-azure)"></rect><g fill="#522d5b" stroke="none"><polygon points="0,0 30,0 100,70 170,0 200,0 200,30 122,109 122,200 78,200 78,109 0,30"></polygon></g></g>
        <path d="m 51.2,19 h 96.4 c 3.1,12.7 10.7,20.9 26.5,20.8 C 175.7,94.5 165.3,144.3 100,200 43.5,154.2 22.8,102.8 25.1,39.7 37,38.9 47.1,34.7 51.2,19 Z" fill="url(#backlight_burgCOA152)" stroke="#333"></path></svg>