<svg xmlns="http://www.w3.org/2000/svg" id="burgCOA81" width="200" height="200" viewBox="0 0 200 200">
        <defs><clipPath id="pavise_burgCOA81"><path d="M95 7L39.9 37.3a10 10 0 00-5.1 9.5L46 180c.4 5.2 3.7 10 9 10h90c5.3 0 9.6-4.8 10-10l10.6-133.2a10 10 0 00-5-9.5L105 7c-4.2-2.3-6.2-2.3-10 0z"></path></clipPath><clipPath id="divisionClip_burgCOA81"><polygon points="0,200 100,100 200,200"></polygon></clipPath><pattern id="honeycombed-or-azure" width="0.143" height="0.24514" viewBox="0 0 70 120"><rect width="70" height="120" fill="#ffe066"></rect><path d="M 70,0 V 20 L 35,40 m 35,80 V 100 L 35,80 M 0,120 V 100 L 35,80 V 40 L 0,20 V 0" stroke="#377cd7" fill="none" stroke-width="3"></path></pattern><radialGradient id="backlight_burgCOA81" cx="100%" cy="100%" r="150%"><stop stop-color="#fff" stop-opacity=".3" offset="0"></stop><stop stop-color="#fff" stop-opacity=".15" offset=".25"></stop><stop stop-color="#000" stop-opacity="0" offset="1"></stop></radialGradient></defs>
        <g clip-path="url(#pavise_burgCOA81)"><rect x="0" y="0" width="200" height="200" fill="#fafafa"></rect><g clip-path="url(#divisionClip_burgCOA81)"><rect x="0" y="0" width="200" height="200" fill="url(#honeycombed-or-azure)"></rect></g></g>
        <path d="M95 7L39.9 37.3a10 10 0 00-5.1 9.5L46 180c.4 5.2 3.7 10 9 10h90c5.3 0 9.6-4.8 10-10l10.6-133.2a10 10 0 00-5-9.5L105 7c-4.2-2.3-6.2-2.3-10 0z" fill="url(#backlight_burgCOA81)" stroke="#333"></path></svg>