<svg xmlns="http://www.w3.org/2000/svg" id="burgCOA299" width="200" height="200" viewBox="0 10 200 200">
        <defs><clipPath id="french_burgCOA299"><path d="m 25,25 h 150 v 139.15 c 0,41.745 -66,18.15 -75,36.3 -9,-18.15 -75,5.445 -75,-36.3 v 0 z"></path></clipPath><pattern id="fretty-sable-or" width="0.2" height="0.2" viewBox="0 0 140 140" stroke="#000" stroke-width="2"><rect width="140" height="140" fill="#333333" stroke="none"></rect><path d="m-15 5 150 150 20-20-150-150z" fill="#ffe066"></path><path d="m10 150 140-140-20-20-140 140z" fill="#ffe066" stroke="none"></path><path d="m0 120 20 20 120-120-20-20z" fill="none"></path></pattern><radialGradient id="backlight_burgCOA299" cx="100%" cy="100%" r="150%"><stop stop-color="#fff" stop-opacity=".3" offset="0"></stop><stop stop-color="#fff" stop-opacity=".15" offset=".25"></stop><stop stop-color="#000" stop-opacity="0" offset="1"></stop></radialGradient></defs>
        <g clip-path="url(#french_burgCOA299)"><rect x="0" y="0" width="200" height="200" fill="url(#fretty-sable-or)"></rect><g fill="#fafafa" stroke="none"><rect width="37.5%" height="37.5%"></rect></g></g>
        <path d="m 25,25 h 150 v 139.15 c 0,41.745 -66,18.15 -75,36.3 -9,-18.15 -75,5.445 -75,-36.3 v 0 z" fill="url(#backlight_burgCOA299)" stroke="#333"></path></svg>