<svg xmlns="http://www.w3.org/2000/svg" id="burgCOA392" width="200" height="200" viewBox="0 0 200 200">
        <defs><clipPath id="boeotian_burgCOA392"><path d="M150 115c-5 0-10-5-10-15s5-15 10-15c10 0 7 10 15 10 10 0 0-30 0-30-10-25-30-55-65-55S45 40 35 65c0 0-10 30 0 30 8 0 5-10 15-10 5 0 10 5 10 15s-5 15-10 15c-10 0-7-10-15-10-10 0 0 30 0 30 10 25 30 55 65 55s55-30 65-55c0 0 10-30 0-30-8 0-5 10-15 10z"></path></clipPath><clipPath id="divisionClip_burgCOA392"><polygon points="0,0 100,100 200,0"></polygon></clipPath><g id="roundel_burgCOA392"><circle cx="100" cy="100" r="30"></circle></g><pattern id="bendy-argent-gules" width="0.5" height="0.5" viewBox="0 0 100 100"><rect width="100" height="100" fill="#fafafa"></rect><polygon points="0,25 75,100 25,100 0,75" fill="#d7374a"></polygon><polygon points="25,0 75,0 100,25 100,75" fill="#d7374a"></polygon></pattern><radialGradient id="backlight_burgCOA392" cx="100%" cy="100%" r="150%"><stop stop-color="#fff" stop-opacity=".3" offset="0"></stop><stop stop-color="#fff" stop-opacity=".15" offset=".25"></stop><stop stop-color="#000" stop-opacity="0" offset="1"></stop></radialGradient></defs>
        <g clip-path="url(#boeotian_burgCOA392)"><rect x="0" y="0" width="200" height="200" fill="url(#bendy-argent-gules)"></rect><g clip-path="url(#divisionClip_burgCOA392)"><rect x="0" y="0" width="200" height="200" fill="#333333"></rect></g><g fill="#377cd7" stroke="#000"><use href="#roundel_burgCOA392" transform="translate(37.5 62.5) scale(0.375)"></use><use href="#roundel_burgCOA392" transform="translate(87.5 62.5) scale(0.375)"></use><use href="#roundel_burgCOA392" transform="translate(62.5 110) scale(0.375)"></use></g></g>
        <path d="M150 115c-5 0-10-5-10-15s5-15 10-15c10 0 7 10 15 10 10 0 0-30 0-30-10-25-30-55-65-55S45 40 35 65c0 0-10 30 0 30 8 0 5-10 15-10 5 0 10 5 10 15s-5 15-10 15c-10 0-7-10-15-10-10 0 0 30 0 30 10 25 30 55 65 55s55-30 65-55c0 0 10-30 0-30-8 0-5 10-15 10z" fill="url(#backlight_burgCOA392)" stroke="#333"></path></svg>