<svg xmlns="http://www.w3.org/2000/svg" id="burgCOA194" width="200" height="200" viewBox="0 0 200 200">
        <defs><clipPath id="pavise_burgCOA194"><path d="M95 7L39.9 37.3a10 10 0 00-5.1 9.5L46 180c.4 5.2 3.7 10 9 10h90c5.3 0 9.6-4.8 10-10l10.6-133.2a10 10 0 00-5-9.5L105 7c-4.2-2.3-6.2-2.3-10 0z"></path></clipPath><g id="estoile_burgCOA194"><path stroke-width=".5" d="M100 60.4c-.1 3 .4 6.1-2.3 8.5-2.9 2.7-2.6 5.9-2.3 8.5.5 3.1.5 6.1-2.3 8.5-.5.4-.9.8-1.2 1.2-.1-.1-.3-.2-.4-.3-2.6-2.2-4.9-3.1-8.6-2.2-3.3.7-6.1-.3-8.6-2.2-2.3-1.9-4.9-3-8.6-2.3 2.6 1.6 5.5 2.8 6.2 6.3.9 3.8 3.8 5.2 6.2 6.3 2.9 1.1 5.5 2.6 6.2 6.3.1.6.2 1.2.4 1.7-.1.1-.3.1-.4.2-3.3 1.2-5.2 2.7-6.2 6.3-1 3.2-3.3 5.1-6.2 6.3-2.7 1-5 2.8-6.2 6.3 2.6-1.5 5.1-3.4 8.6-2.2 3.7 1.2 6.4-.7 8.6-2.2 2.4-2 5-3.5 8.6-2.3.6.2 1.1.4 1.7.5v.5c-.6 3.4-.2 5.8 2.3 8.5 2.3 2.5 2.8 5.4 2.3 8.5-.5 2.9-.1 5.8 2.3 8.5.1-3-.4-6.1 2.3-8.5 2.9-2.7 2.6-5.9 2.3-8.5-.5-3.1-.5-6.1 2.3-8.5.5-.4.9-.8 1.2-1.2.1.1.2.2.4.3 2.6 2.2 4.9 3.1 8.6 2.3 3.3-.7 6.1.3 8.6 2.2 2.3 1.9 4.9 2.9 8.6 2.2-2.6-1.6-5.5-2.8-6.2-6.3-.9-3.8-3.8-5.2-6.2-6.3-2.9-1.1-5.5-2.6-6.2-6.3-.1-.6-.2-1.2-.4-1.7.1-.1.3-.1.4-.2 3.3-1.2 5.2-2.7 6.2-6.3 1-3.2 3.3-5.1 6.2-6.3 2.7-1 5-2.8 6.2-6.3-2.6 1.5-5.1 3.4-8.6 2.3-3.7-1.2-6.4.7-8.6 2.2-2.4 2-5 3.5-8.6 2.2-.6-.2-1.1-.4-1.7-.5.1-.1.1-.2.1-.4.6-3.4.2-5.8-2.3-8.5-2.3-2.5-2.8-5.4-2.3-8.5.5-2.9.1-5.8-2.3-8.5z"></path><g stroke-width=".2"><path d="M100 60c.7 2.3 2.4 3.7 0 10-1.7 3.9-1 7 0 10 1 2.6 3.1 5.9 0 10-2 3.3-.7 6.6 0 10"></path><path d="M100.1 139.7c-.7-2.3-2.4-3.7 0-10 1.7-3.9 1-7 0-10-1-2.6-3.1-5.9 0-10 2-3.3.7-6.6 0-10"></path><path d="M65.5 80c2.3.6 4.4-.2 8.6 5 2.5 3.4 5.5 4.4 8.6 5 2.7.5 6.7.2 8.6 5 1.9 3.4 5.4 4 8.6 5"></path><path d="M65.5 119.8c1.6-1.7 2-3.9 8.6-5 4.2-.5 6.6-2.6 8.6-5 1.8-2.1 3.5-5.7 8.6-5 3.9.1 6.1-2.7 8.6-5"></path><path d="M134.5 79.9c-1.6 1.7-2 3.9-8.6 5-4.2.5-6.6 2.6-8.6 5-1.8 2.1-3.5 5.7-8.6 5-3.9-.1-6.1 2.7-8.6 5"></path><path d="M134.6 119.8c-2.3-.6-4.4.2-8.6-5-2.5-3.4-5.5-4.4-8.6-5-2.7-.5-6.7-.2-8.6-5-1.9-3.4-5.4-4-8.6-5"></path><path d="M100 99.9c-3.4-2.6-7.8-10.6-8.2-12.9"></path><path d="M100 99.9c.5-4.2 5.2-12.1 7-13.6"></path><path d="M100 99.9c3.4 2.5 7.9 10.5 8.3 12.8"></path><path d="M100 99.9c3.9-1.7 13.1-1.6 15.2-.8"></path><path d="M100 99.9c-.5 4.2-5.2 12.1-7 13.6"></path><path d="M100 99.9c-3.9 1.7-13.1 1.6-15.2.8"></path></g></g><radialGradient id="backlight_burgCOA194" cx="100%" cy="100%" r="150%"><stop stop-color="#fff" stop-opacity=".3" offset="0"></stop><stop stop-color="#fff" stop-opacity=".15" offset=".25"></stop><stop stop-color="#000" stop-opacity="0" offset="1"></stop></radialGradient></defs>
        <g clip-path="url(#pavise_burgCOA194)"><rect x="0" y="0" width="200" height="200" fill="#333333"></rect><g fill="#ffe066" stroke="none"><path d="M95 7L39.9 37.3a10 10 0 00-5.1 9.5L46 180c.4 5.2 3.7 10 9 10h90c5.3 0 9.6-4.8 10-10l10.6-133.2a10 10 0 00-5-9.5L105 7c-4.2-2.3-6.2-2.3-10 0z" fill="none" stroke="#ffe066" stroke-width="16.7%"></path></g><g fill="#d7374a" stroke="#000"><use href="#estoile_burgCOA194" transform="translate(26.799999999999997 28.799999999999997) scale(0.162)"></use><use href="#estoile_burgCOA194" transform="translate(61.8 9.799999999999997) scale(0.162)"></use><use href="#estoile_burgCOA194" transform="translate(105.8 9.799999999999997) scale(0.162)"></use><use href="#estoile_burgCOA194" transform="translate(140.8 28.799999999999997) scale(0.162)"></use><use href="#estoile_burgCOA194" transform="translate(137.8 72.8) scale(0.162)"></use><use href="#estoile_burgCOA194" transform="translate(133.8 119.8) scale(0.162)"></use><use href="#estoile_burgCOA194" transform="translate(129.8 164.8) scale(0.162)"></use><use href="#estoile_burgCOA194" transform="translate(83.8 164.8) scale(0.162)"></use><use href="#estoile_burgCOA194" transform="translate(37.8 164.8) scale(0.162)"></use><use href="#estoile_burgCOA194" transform="translate(33.8 119.8) scale(0.162)"></use><use href="#estoile_burgCOA194" transform="translate(29.799999999999997 72.8) scale(0.162)"></use></g></g>
        <path d="M95 7L39.9 37.3a10 10 0 00-5.1 9.5L46 180c.4 5.2 3.7 10 9 10h90c5.3 0 9.6-4.8 10-10l10.6-133.2a10 10 0 00-5-9.5L105 7c-4.2-2.3-6.2-2.3-10 0z" fill="url(#backlight_burgCOA194)" stroke="#333"></path></svg>