<svg xmlns="http://www.w3.org/2000/svg" id="burgCOA439" width="200" height="200" viewBox="0 10 200 200">
        <defs><clipPath id="spanish_burgCOA439"><path d="m25,25 h150 v100 a75,75,0,0,1,-150,0 z"></path></clipPath><g id="mullet6_burgCOA439"><polygon points="100 60 107.64 86.77 134.64 80 115.28 100 134.64 120 107.64 113.23 100 140 92.36 113.23 65.36 120 84.72 100 65.36 80 92.36 86.77"></polygon></g><radialGradient id="backlight_burgCOA439" cx="100%" cy="100%" r="150%"><stop stop-color="#fff" stop-opacity=".3" offset="0"></stop><stop stop-color="#fff" stop-opacity=".15" offset=".25"></stop><stop stop-color="#000" stop-opacity="0" offset="1"></stop></radialGradient></defs>
        <g clip-path="url(#spanish_burgCOA439)"><rect x="0" y="0" width="200" height="200" fill="#ffe066"></rect><g fill="#522d5b" stroke="none"><path d="m 13.1,89.8 c -4.1,0 -7.3,2 -7.3,4.5 0,1.2 0.7,2.3 1.8,3.1 1.2,0.7 1.9,1.8 1.9,3 0,2.5 -3.2,4.5 -7.3,4.5 -0.5,0 -2.2,-0.2 -2.2,-0.2 V 115 h 200 v -10.1 c -3.7,-0.2 -6.7,-2.2 -6.7,-4.5 0,-1.2 0.7,-2.3 1.9,-3 1.2,-0.8 1.8,-1.9 1.8,-3.1 0,-2.5 -3.2,-4.5 -7.2,-4.5 -4.1,0 -7.3,2 -7.3,4.5 0,1.2 0.7,2.3 1.8,3.1 1.2,0.7 1.9,1.8 1.9,3 0,2.5 -3.3,4.5 -7.3,4.5 -4,0 -7.3,-2 -7.3,-4.5 0,-1.2 0.7,-2.3 1.9,-3 1.2,-0.8 1.8,-1.9 1.8,-3.1 0,-2.5 -3.2,-4.5 -7.2,-4.5 -4.1,0 -7.3,2 -7.3,4.5 0,1.2 0.7,2.3 1.8,3.1 1.2,0.7 1.9,1.8 1.9,3 -1.5,4.1 -4.2,4.4 -8.8,4.5 -4.7,-0.1 -8.7,-1.5 -8.9,-4.5 0,-1.2 0.7,-2.3 1.9,-3 1.2,-0.8 1.9,-1.9 1.9,-3.1 0,-2.5 -3.3,-4.5 -7.3,-4.5 -4.1,0 -7.3,2 -7.3,4.5 0,1.2 0.7,2.3 1.8,3.1 1.2,0.7 1.9,1.8 1.9,3 0,2.5 -3.3,4.5 -7.3,4.5 -4,0 -7.3,-2 -7.3,-4.5 0,-1.2 0.7,-2.3 1.9,-3 1.2,-0.8 1.9,-1.9 1.9,-3.1 0,-2.5 -3.3,-4.5 -7.3,-4.5 -4.1,0 -7.3,2 -7.3,4.5 0,1.2 0.7,2.3 1.8,3.1 1.2,0.7 1.9,1.8 1.9,3 0,2.5 -3.3,4.5 -7.3,4.5 -4,0 -7.3,-2 -7.3,-4.5 0,-1.2 0.7,-2.3 1.9,-3 1.2,-0.8 1.9,-1.9 1.9,-3.1 0,-2.5 -3.3,-4.5 -7.3,-4.5 -4.1,0 -7.3,2 -7.3,4.5 0,1.2 0.7,2.3 1.8,3.1 1.2,0.7 1.9,1.8 1.9,3 0,2.5 -3.3,4.5 -7.3,4.5 -4,0 -7.3,-2 -7.3,-4.5 0,-1.2 0.7,-2.3 1.9,-3 1.2,-0.8 1.9,-1.9 1.9,-3.1 0,-2.5 -3.3,-4.5 -7.3,-4.5 -4.1,0 -7.3,2 -7.3,4.5 0,1.2 0.7,2.3 1.8,3.1 1.2,0.7 1.9,1.8 1.9,3 0,2.5 -3.3,4.5 -7.3,4.5 -4,0 -7.3,-2 -7.3,-4.5 0,-1.2 0.7,-2.3 1.9,-3 1.2,-0.8 1.9,-1.9 1.9,-3.1 0,-2.5 -3.3,-4.5 -7.3,-4.5 -4.1,0 -7.3,2 -7.3,4.5 0,1.2 0.7,2.3 1.8,3.1 1.2,0.7 1.9,1.8 1.9,3 0,2.5 -3.3,4.5 -7.3,4.5 -4,0 -7.3,-2 -7.3,-4.5 0,-1.2 0.7,-2.3 1.9,-3 1.2,-0.8 1.9,-1.9 1.9,-3.1 0,-2.5 -3.3,-4.5 -7.3,-4.5 -4.1,0 -7.3,2 -7.3,4.5 0,1.2 0.7,2.3 1.8,3.1 1.2,0.7 1.9,1.8 1.9,3 0,2.5 -3.3,4.5 -7.3,4.5 -4,0 -7.3,-2 -7.3,-4.5 0,-1.2 0.7,-2.3 1.9,-3 1.2,-0.8 1.9,-1.9 1.9,-3.1 0,-2.5 -3.3,-4.5 -7.3,-4.5 z" transform="translate(8 -18) rotate(45 110 100) scale(1.1 1)"></path><path d="m 13.1,89.8 c -4.1,0 -7.3,2 -7.3,4.5 0,1.2 0.7,2.3 1.8,3.1 1.2,0.7 1.9,1.8 1.9,3 0,2.5 -3.2,4.5 -7.3,4.5 -0.5,0 -2.2,-0.2 -2.2,-0.2 V 115 h 200 v -10.1 c -3.7,-0.2 -6.7,-2.2 -6.7,-4.5 0,-1.2 0.7,-2.3 1.9,-3 1.2,-0.8 1.8,-1.9 1.8,-3.1 0,-2.5 -3.2,-4.5 -7.2,-4.5 -4.1,0 -7.3,2 -7.3,4.5 0,1.2 0.7,2.3 1.8,3.1 1.2,0.7 1.9,1.8 1.9,3 0,2.5 -3.3,4.5 -7.3,4.5 -4,0 -7.3,-2 -7.3,-4.5 0,-1.2 0.7,-2.3 1.9,-3 1.2,-0.8 1.8,-1.9 1.8,-3.1 0,-2.5 -3.2,-4.5 -7.2,-4.5 -4.1,0 -7.3,2 -7.3,4.5 0,1.2 0.7,2.3 1.8,3.1 1.2,0.7 1.9,1.8 1.9,3 -1.5,4.1 -4.2,4.4 -8.8,4.5 -4.7,-0.1 -8.7,-1.5 -8.9,-4.5 0,-1.2 0.7,-2.3 1.9,-3 1.2,-0.8 1.9,-1.9 1.9,-3.1 0,-2.5 -3.3,-4.5 -7.3,-4.5 -4.1,0 -7.3,2 -7.3,4.5 0,1.2 0.7,2.3 1.8,3.1 1.2,0.7 1.9,1.8 1.9,3 0,2.5 -3.3,4.5 -7.3,4.5 -4,0 -7.3,-2 -7.3,-4.5 0,-1.2 0.7,-2.3 1.9,-3 1.2,-0.8 1.9,-1.9 1.9,-3.1 0,-2.5 -3.3,-4.5 -7.3,-4.5 -4.1,0 -7.3,2 -7.3,4.5 0,1.2 0.7,2.3 1.8,3.1 1.2,0.7 1.9,1.8 1.9,3 0,2.5 -3.3,4.5 -7.3,4.5 -4,0 -7.3,-2 -7.3,-4.5 0,-1.2 0.7,-2.3 1.9,-3 1.2,-0.8 1.9,-1.9 1.9,-3.1 0,-2.5 -3.3,-4.5 -7.3,-4.5 -4.1,0 -7.3,2 -7.3,4.5 0,1.2 0.7,2.3 1.8,3.1 1.2,0.7 1.9,1.8 1.9,3 0,2.5 -3.3,4.5 -7.3,4.5 -4,0 -7.3,-2 -7.3,-4.5 0,-1.2 0.7,-2.3 1.9,-3 1.2,-0.8 1.9,-1.9 1.9,-3.1 0,-2.5 -3.3,-4.5 -7.3,-4.5 -4.1,0 -7.3,2 -7.3,4.5 0,1.2 0.7,2.3 1.8,3.1 1.2,0.7 1.9,1.8 1.9,3 0,2.5 -3.3,4.5 -7.3,4.5 -4,0 -7.3,-2 -7.3,-4.5 0,-1.2 0.7,-2.3 1.9,-3 1.2,-0.8 1.9,-1.9 1.9,-3.1 0,-2.5 -3.3,-4.5 -7.3,-4.5 -4.1,0 -7.3,2 -7.3,4.5 0,1.2 0.7,2.3 1.8,3.1 1.2,0.7 1.9,1.8 1.9,3 0,2.5 -3.3,4.5 -7.3,4.5 -4,0 -7.3,-2 -7.3,-4.5 0,-1.2 0.7,-2.3 1.9,-3 1.2,-0.8 1.9,-1.9 1.9,-3.1 0,-2.5 -3.3,-4.5 -7.3,-4.5 -4.1,0 -7.3,2 -7.3,4.5 0,1.2 0.7,2.3 1.8,3.1 1.2,0.7 1.9,1.8 1.9,3 0,2.5 -3.3,4.5 -7.3,4.5 -4,0 -7.3,-2 -7.3,-4.5 0,-1.2 0.7,-2.3 1.9,-3 1.2,-0.8 1.9,-1.9 1.9,-3.1 0,-2.5 -3.3,-4.5 -7.3,-4.5 z" transform="translate(-28 18) rotate(225 110 100) scale(1.1 1)"></path><rect x="0" y="88" width="200" height="24" transform="translate(-10 0) rotate(45 110 100) scale(1.1 1)" stroke="none"></rect></g><g fill="#ffe066" stroke="#000"><use href="#mullet6_burgCOA439" transform="translate(12.5 12.5) scale(0.5)"></use><use href="#mullet6_burgCOA439" transform="translate(87.5 87.5) scale(0.5)"></use><use href="#mullet6_burgCOA439" transform="translate(50 50) scale(0.5)"></use></g></g>
        <path d="m25,25 h150 v100 a75,75,0,0,1,-150,0 z" fill="url(#backlight_burgCOA439)" stroke="#333"></path></svg>