<svg xmlns="http://www.w3.org/2000/svg" id="burgCOA210" width="200" height="200" viewBox="0 0 200 200">
        <defs><clipPath id="polish_burgCOA210"><path d="m 90.3,6.3 c -12.7,0 -20.7,10.9 -40.5,14 0,11.8 -4.9,23.5 -11.4,31.1 0,0 12.7,6 12.7,19.3 C 51.1,90.8 30,90.8 30,90.8 c 0,0 -3.6,7.4 -3.6,22.4 0,34.3 23.1,60.2 40.7,68.2 17.6,8 27.7,11.4 32.9,18.6 5.2,-7.3 15.3,-10.7 32.8,-18.6 17.6,-8 40.7,-33.9 40.7,-68.2 0,-15 -3.6,-22.4 -3.6,-22.4 0,0 -21.1,0 -21.1,-20.1 0,-13.3 12.7,-19.3 12.7,-19.3 C 155.1,43.7 150.2,32.1 150.2,20.3 130.4,17.2 122.5,6.3 109.7,6.3 102.5,6.3 100,10 100,10 c 0,0 -2.5,-3.7 -9.7,-3.7 z"></path></clipPath><g id="fountain_burgCOA210" stroke-width=".5"><circle cx="100" cy="100" r="30"></circle><g fill="#fafafa"><path d="M74.54 84.09c3.22.66 4.19 4.61 7.86 4.61 4 0 4.8-4.7 8.8-4.7 4 0 4.8 4.7 8.8 4.7 4 0 4.8-4.7 8.8-4.7 4 0 4.8 4.7 8.8 4.7 3.66 0 4.64-3.94 7.86-4.61a31.66 31.66 0 00-4.49-5.57 4.98 4.98 0 01-3.37 1.38c-4 0-4.8-4.7-8.8-4.7-4 0-4.8 4.7-8.8 4.7-4 0-4.8-4.7-8.8-4.7-4 0-4.8 4.7-8.8 4.7a4.96 4.96 0 01-3.32-1.34 29.18 29.18 0 00-4.54 5.54z"></path><path d="M73.6 93c-1.26 0-2.2.47-3.03 1.11a31.28 31.28 0 00-.4 9.05 4.89 4.89 0 013.43-1.46c4 0 4.8 4.7 8.8 4.7 4 0 4.8-4.7 8.8-4.7 4 0 4.8 4.7 8.8 4.7 4 0 4.8-4.7 8.8-4.7 4 0 4.8 4.7 8.8 4.7 4 0 4.8-4.7 8.8-4.7 1.48 0 2.53.65 3.46 1.46.38-3 .32-6.05-.46-9.18a4.74 4.74 0 00-3-1.08c-4 0-4.8 4.7-8.8 4.7-4.1.1-4.9-4.6-8.9-4.6s-4.7 4.7-8.7 4.7c-4.1 0-4.8-4.7-8.8-4.7-4 0-4.8 4.7-8.8 4.7-4 0-4.8-4.7-8.8-4.7z"></path><path d="M72.19 111.22c2.24 5.67 5.64 10.07 10.42 13.21 3.7-.27 4.71-4.73 8.59-4.73 4 0 4.8 4.7 8.8 4.7 4 0 4.8-4.7 8.8-4.7 4 0 4.55 4.7 8.55 4.7 4.81-3.3 8.29-7.7 10.51-13.25a3.96 3.96 0 00-1.46-.25c-4 0-4.8 4.7-8.8 4.7-4 0-4.8-4.7-8.8-4.7-4 0-4.8 4.7-8.8 4.7-4 0-4.8-4.7-8.8-4.7-4 0-4.8 4.7-8.8 4.7-5.94-.4-3.88-5.06-10.21-4.38z"></path></g></g><radialGradient id="backlight_burgCOA210" cx="100%" cy="100%" r="150%"><stop stop-color="#fff" stop-opacity=".3" offset="0"></stop><stop stop-color="#fff" stop-opacity=".15" offset=".25"></stop><stop stop-color="#000" stop-opacity="0" offset="1"></stop></radialGradient></defs>
        <g clip-path="url(#polish_burgCOA210)"><rect x="0" y="0" width="200" height="200" fill="#ffe066"></rect><g fill="#377cd7" stroke="none"><polygon points="0,125 100,60 200,125 200,165 100,100 0,165"></polygon></g><g fill="#377cd7" stroke="#000"><use href="#fountain_burgCOA210" transform="translate(22.499999999999993 7.499999999999993) scale(0.425)"></use><use href="#fountain_burgCOA210" transform="translate(92.5 7.499999999999993) scale(0.425)"></use><use href="#fountain_burgCOA210" transform="translate(57.49999999999999 107.5) scale(0.425)"></use></g></g>
        <path d="m 90.3,6.3 c -12.7,0 -20.7,10.9 -40.5,14 0,11.8 -4.9,23.5 -11.4,31.1 0,0 12.7,6 12.7,19.3 C 51.1,90.8 30,90.8 30,90.8 c 0,0 -3.6,7.4 -3.6,22.4 0,34.3 23.1,60.2 40.7,68.2 17.6,8 27.7,11.4 32.9,18.6 5.2,-7.3 15.3,-10.7 32.8,-18.6 17.6,-8 40.7,-33.9 40.7,-68.2 0,-15 -3.6,-22.4 -3.6,-22.4 0,0 -21.1,0 -21.1,-20.1 0,-13.3 12.7,-19.3 12.7,-19.3 C 155.1,43.7 150.2,32.1 150.2,20.3 130.4,17.2 122.5,6.3 109.7,6.3 102.5,6.3 100,10 100,10 c 0,0 -2.5,-3.7 -9.7,-3.7 z" fill="url(#backlight_burgCOA210)" stroke="#333"></path></svg>