<svg xmlns="http://www.w3.org/2000/svg" id="burgCOA489" width="200" height="200" viewBox="0 5 200 200">
        <defs><clipPath id="renaissance_burgCOA489"><path d="M 25,33.9 C 33.4,50.3 36.2,72.9 36.2,81.7 36.2,109.9 25,122.6 25,141 c 0,29.4 24.9,44.1 40.2,47.7 15.3,3.7 29.3,0 34.8,11.3 5.5,-11.3 19.6,-7.6 34.8,-11.3 C 150.1,185 175,170.3 175,141 c 0,-18.4 -11.2,-31.1 -11.2,-59.3 0,-8.8 2.8,-31.3 11.2,-47.7 L 155.7,14.4 C 138.2,21.8 119.3,25.7 100,25.7 c -19.3,0 -38.2,-3.9 -55.7,-11.3 z"></path></clipPath><clipPath id="divisionClip_burgCOA489"><rect x="0" y="100" width="200" height="100"></rect></clipPath><pattern id="chequy-argent-gules" width="0.25" height="0.25" viewBox="0 0 50 50" fill="#d7374a"><rect width="50" height="50"></rect><rect width="25" height="25" fill="#fafafa"></rect><rect x="25" y="25" width="25" height="25" fill="#fafafa"></rect></pattern><radialGradient id="backlight_burgCOA489" cx="100%" cy="100%" r="150%"><stop stop-color="#fff" stop-opacity=".3" offset="0"></stop><stop stop-color="#fff" stop-opacity=".15" offset=".25"></stop><stop stop-color="#000" stop-opacity="0" offset="1"></stop></radialGradient></defs>
        <g clip-path="url(#renaissance_burgCOA489)"><rect x="0" y="0" width="200" height="200" fill="#522d5b"></rect><g clip-path="url(#divisionClip_burgCOA489)"><rect x="0" y="0" width="200" height="200" fill="url(#chequy-argent-gules)"></rect></g><g fill="#ffe066" stroke="none"><polygon points="0,200 0,144 175,25 55,200"></polygon></g></g>
        <path d="M 25,33.9 C 33.4,50.3 36.2,72.9 36.2,81.7 36.2,109.9 25,122.6 25,141 c 0,29.4 24.9,44.1 40.2,47.7 15.3,3.7 29.3,0 34.8,11.3 5.5,-11.3 19.6,-7.6 34.8,-11.3 C 150.1,185 175,170.3 175,141 c 0,-18.4 -11.2,-31.1 -11.2,-59.3 0,-8.8 2.8,-31.3 11.2,-47.7 L 155.7,14.4 C 138.2,21.8 119.3,25.7 100,25.7 c -19.3,0 -38.2,-3.9 -55.7,-11.3 z" fill="url(#backlight_burgCOA489)" stroke="#333"></path></svg>