<svg xmlns="http://www.w3.org/2000/svg" id="burgCOA651" width="200" height="200" viewBox="0 0 200 200">
        <defs><clipPath id="polish_burgCOA651"><path d="m 90.3,6.3 c -12.7,0 -20.7,10.9 -40.5,14 0,11.8 -4.9,23.5 -11.4,31.1 0,0 12.7,6 12.7,19.3 C 51.1,90.8 30,90.8 30,90.8 c 0,0 -3.6,7.4 -3.6,22.4 0,34.3 23.1,60.2 40.7,68.2 17.6,8 27.7,11.4 32.9,18.6 5.2,-7.3 15.3,-10.7 32.8,-18.6 17.6,-8 40.7,-33.9 40.7,-68.2 0,-15 -3.6,-22.4 -3.6,-22.4 0,0 -21.1,0 -21.1,-20.1 0,-13.3 12.7,-19.3 12.7,-19.3 C 155.1,43.7 150.2,32.1 150.2,20.3 130.4,17.2 122.5,6.3 109.7,6.3 102.5,6.3 100,10 100,10 c 0,0 -2.5,-3.7 -9.7,-3.7 z"></path></clipPath><g id="lochaberAxe_burgCOA651" stroke-width=".5"><path d="M109.5 60.78c0-.72-2.56-.72-2.59-.03l-.03 94.23h0v.08c0 .72 2.73.72 2.73 0z"></path><path d="M107.18 91.77a6.08 6.08 0 01-8.37-5.25c0-4.87 2.64-12 2.64-18.22 0-4.56-3.83-7.95-5.5-7.74 1.64 1.68 2.35 3.39 2.35 6.46 0 5.15-8.01 13.14-8.01 27.47 0 14.32 8.01 22.33 8.01 27.48 0 3.07-.72 4.78-2.35 6.46 1.69.21 5.5-3.18 5.5-7.74 0-6.22-2.64-13.35-2.64-18.22a6.08 6.08 0 018.37-5.25z"></path><path d="M109.76 90.81c0-.57-3.14-.57-3.14 0 0 .1-.09 8.36-.01 8.44.43.44 2.8.36 3.16 0l-.01-8.44z"></path><path fill="#000" stroke="none" d="M139-35.1c-.1 9.6-3.3 19.2-6.1 27.2-7.9 21.2-16 44.2-20.8 64.4-9.9 44.6-6.8 91.2 6.7 134.2 5.8 19.8 13.9 35.4 18.6 54.1.9 4.2 1.8 6.9 1.7 12.9-.3-4.5-1.3-9.1-2.3-12.8-6.8-17.8-14.2-36.3-20.1-53.6-17.6-51.7-17.2-109.8.1-160.3 4.8-14 9.6-25.6 15.2-39.5 3.4-8.8 6.5-17.5 7-26.6z" transform="matrix(.15 0 0 .15 77 77.775)"></path></g><pattern id="bendySinister-or-azure" width="0.5" height="0.5" viewBox="0 0 100 100"><rect width="100" height="100" fill="#377cd7"></rect><polygon points="0,25 25,0 75,0 0,75" fill="#ffe066"></polygon><polygon points="25,100 100,25 100,75 75,100" fill="#ffe066"></polygon></pattern><radialGradient id="backlight_burgCOA651" cx="100%" cy="100%" r="150%"><stop stop-color="#fff" stop-opacity=".3" offset="0"></stop><stop stop-color="#fff" stop-opacity=".15" offset=".25"></stop><stop stop-color="#000" stop-opacity="0" offset="1"></stop></radialGradient></defs>
        <g clip-path="url(#polish_burgCOA651)"><rect x="0" y="0" width="200" height="200" fill="url(#bendySinister-or-azure)"></rect><g fill="#333333" stroke="#000"><use href="#lochaberAxe_burgCOA651" transform="translate(-27.499999999999993 -27.499999999999993) scale(1.275)"></use></g></g>
        <path d="m 90.3,6.3 c -12.7,0 -20.7,10.9 -40.5,14 0,11.8 -4.9,23.5 -11.4,31.1 0,0 12.7,6 12.7,19.3 C 51.1,90.8 30,90.8 30,90.8 c 0,0 -3.6,7.4 -3.6,22.4 0,34.3 23.1,60.2 40.7,68.2 17.6,8 27.7,11.4 32.9,18.6 5.2,-7.3 15.3,-10.7 32.8,-18.6 17.6,-8 40.7,-33.9 40.7,-68.2 0,-15 -3.6,-22.4 -3.6,-22.4 0,0 -21.1,0 -21.1,-20.1 0,-13.3 12.7,-19.3 12.7,-19.3 C 155.1,43.7 150.2,32.1 150.2,20.3 130.4,17.2 122.5,6.3 109.7,6.3 102.5,6.3 100,10 100,10 c 0,0 -2.5,-3.7 -9.7,-3.7 z" fill="url(#backlight_burgCOA651)" stroke="#333"></path></svg>