<svg xmlns="http://www.w3.org/2000/svg" id="burgCOA621" width="200" height="200" viewBox="0 0 200 200">
        <defs><clipPath id="boeotian_burgCOA621"><path d="M150 115c-5 0-10-5-10-15s5-15 10-15c10 0 7 10 15 10 10 0 0-30 0-30-10-25-30-55-65-55S45 40 35 65c0 0-10 30 0 30 8 0 5-10 15-10 5 0 10 5 10 15s-5 15-10 15c-10 0-7-10-15-10-10 0 0 30 0 30 10 25 30 55 65 55s55-30 65-55c0 0 10-30 0-30-8 0-5 10-15 10z"></path></clipPath><clipPath id="divisionClip_burgCOA621"><rect x="100" y="0" width="100" height="200"></rect></clipPath><pattern id="plumetty-argent-vert" width="0.125" height="0.25" viewBox="0 0 50 100" stroke-width=".8"><rect width="50" height="100" fill="#26c061" stroke="none"></rect><path fill="#fafafa" stroke="none" d="M 25,100 C 44,88 49.5,74 50,50 33.5,40 25,25 25,4e-7 25,25 16.5,40 0,50 0.5,74 6,88 25,100 Z"></path><path fill="none" stroke="#26c061" d="m17 40c5.363 2.692 10.7 2.641 16 0m-19 7c7.448 4.105 14.78 3.894 22 0m-27 7c6-2 10.75 3.003 16 3 5.412-0.0031 10-5 16-3m-35 9c4-7 12 3 19 2 7 1 15-9 19-2m-35 6c6-2 11 3 16 3s10-5 16-3m-30 7c8 0 8 3 14 3s7-3 14-3m-25 8c7.385 4.048 14.72 3.951 22 0m-19 8c5.455 2.766 10.78 2.566 16 0m-8 6v-78"></path><g fill="none" stroke="#fafafa"><path d="m42 90c2.678 1.344 5.337 2.004 8 2m-11 5c3.686 2.032 7.344 3.006 10.97 3m0.0261-1.2e-4v-30"></path><path d="m0 92c2.689 0.0045 5.328-0.6687 8-2m-8 10c3.709-0.0033 7.348-1.031 11-3m-11 3v-30"></path><path d="m0 7c5.412-0.0031 10-5 16-3m-16 11c7 1 15-9 19-2m-19 9c5 0 10-5 16-3m-16 10c6 0 7-3 14-3m-14.02 11c3.685-0.002185 7.357-1.014 11.02-3m-11 10c2.694-0.01117 5.358-0.7036 7.996-2m-8 6v-48"></path><path d="m34 4c6-2 10.75 3.003 16 3m-19 6c4-7 12 3 19 2m-16 4c6-2 11 3 16 3m-14 4c8 0 8 3 14 3m-11 5c3.641 1.996 7.383 2.985 11 3m-8 5c2.762 1.401 5.303 2.154 8.002 2.112m-0.00154 3.888v-48"></path></g></pattern><radialGradient id="backlight_burgCOA621" cx="100%" cy="100%" r="150%"><stop stop-color="#fff" stop-opacity=".3" offset="0"></stop><stop stop-color="#fff" stop-opacity=".15" offset=".25"></stop><stop stop-color="#000" stop-opacity="0" offset="1"></stop></radialGradient></defs>
        <g clip-path="url(#boeotian_burgCOA621)"><rect x="0" y="0" width="200" height="200" fill="url(#plumetty-argent-vert)"></rect><g clip-path="url(#divisionClip_burgCOA621)"><rect x="0" y="0" width="200" height="200" fill="#522d5b"></rect></g></g>
        <path d="M150 115c-5 0-10-5-10-15s5-15 10-15c10 0 7 10 15 10 10 0 0-30 0-30-10-25-30-55-65-55S45 40 35 65c0 0-10 30 0 30 8 0 5-10 15-10 5 0 10 5 10 15s-5 15-10 15c-10 0-7-10-15-10-10 0 0 30 0 30 10 25 30 55 65 55s55-30 65-55c0 0 10-30 0-30-8 0-5 10-15 10z" fill="url(#backlight_burgCOA621)" stroke="#333"></path></svg>