<svg xmlns="http://www.w3.org/2000/svg" id="burgCOA33" width="200" height="200" viewBox="0 0 200 200">
        <defs><clipPath id="boeotian_burgCOA33"><path d="M150 115c-5 0-10-5-10-15s5-15 10-15c10 0 7 10 15 10 10 0 0-30 0-30-10-25-30-55-65-55S45 40 35 65c0 0-10 30 0 30 8 0 5-10 15-10 5 0 10 5 10 15s-5 15-10 15c-10 0-7-10-15-10-10 0 0 30 0 30 10 25 30 55 65 55s55-30 65-55c0 0 10-30 0-30-8 0-5 10-15 10z"></path></clipPath><clipPath id="divisionClip_burgCOA33"><rect x="100" y="0" width="100" height="200"></rect></clipPath><pattern id="potent-azure-or" width="0.125" height="0.125" viewBox="0 0 200 200" stroke="#000"><rect width="200" height="100" fill="#377cd7" stroke="none"></rect><rect y="100" width="200" height="100" fill="#ffe066" stroke="none"></rect><path d="m25 50h50v-50h50v50h50v50h-150z" fill="#ffe066"></path><path d="m25 100v50h50v50h50v-50h50v-50z" fill="#377cd7"></path><path d="m0 0h200 M0 100h200" fill="none"></path></pattern><radialGradient id="backlight_burgCOA33" cx="100%" cy="100%" r="150%"><stop stop-color="#fff" stop-opacity=".3" offset="0"></stop><stop stop-color="#fff" stop-opacity=".15" offset=".25"></stop><stop stop-color="#000" stop-opacity="0" offset="1"></stop></radialGradient></defs>
        <g clip-path="url(#boeotian_burgCOA33)"><rect x="0" y="0" width="200" height="200" fill="url(#potent-azure-or)"></rect><g clip-path="url(#divisionClip_burgCOA33)"><rect x="0" y="0" width="200" height="200" fill="#fafafa"></rect></g><g fill="#d7374a" stroke="none"><polygon points="85,0 85,85 0,85 0,115 85,115 85,200 115,200 115,115 200,115 200,85 115,85 115,0"></polygon></g></g>
        <path d="M150 115c-5 0-10-5-10-15s5-15 10-15c10 0 7 10 15 10 10 0 0-30 0-30-10-25-30-55-65-55S45 40 35 65c0 0-10 30 0 30 8 0 5-10 15-10 5 0 10 5 10 15s-5 15-10 15c-10 0-7-10-15-10-10 0 0 30 0 30 10 25 30 55 65 55s55-30 65-55c0 0 10-30 0-30-8 0-5 10-15 10z" fill="url(#backlight_burgCOA33)" stroke="#333"></path></svg>