<svg xmlns="http://www.w3.org/2000/svg" id="burgCOA68" width="200" height="200" viewBox="0 0 200 200">
        <defs><clipPath id="oval_burgCOA68"><path d="m 32.3,99.5 a 67.7,93.7 0 1 1 0,1.3 z"></path></clipPath><g id="goutte_burgCOA68"><path d="M100 134c17-1 16-19 10-25-1.9-1.8-4.6-5.3-3.9-8.1C108 94 102 90 102 87c-1-7 3-7 3-13-.1-6.2-3.3-8.7-6-12 1.2 3 2 6 1 9-1.5 5.9-6.2 6.9-8 11-2 5 3 11 3 15-.6 9.1-9 13-9 23 .3 11.3 9 14 14 14z"></path></g><radialGradient id="backlight_burgCOA68" cx="100%" cy="100%" r="150%"><stop stop-color="#fff" stop-opacity=".3" offset="0"></stop><stop stop-color="#fff" stop-opacity=".15" offset=".25"></stop><stop stop-color="#000" stop-opacity="0" offset="1"></stop></radialGradient></defs>
        <g clip-path="url(#oval_burgCOA68)"><rect x="0" y="0" width="200" height="200" fill="#fafafa"></rect><g fill="#333333" stroke="#000"><use href="#goutte_burgCOA68" transform="translate(-1.999999999999993 -3.999999999999993) scale(0.6649999999999999)"></use><use href="#goutte_burgCOA68" transform="translate(69 -3.999999999999993) scale(0.6649999999999999)"></use><use href="#goutte_burgCOA68" transform="translate(33.50000000000001 83.5) scale(0.6649999999999999)"></use></g></g>
        <path d="m 32.3,99.5 a 67.7,93.7 0 1 1 0,1.3 z" fill="url(#backlight_burgCOA68)" stroke="#333"></path></svg>