<svg xmlns="http://www.w3.org/2000/svg" id="burgCOA300" width="200" height="200" viewBox="0 10 200 200">
        <defs><clipPath id="heater_burgCOA300"><path d="m25,25 h150 v50 a150,150,0,0,1,-75,125 a150,150,0,0,1,-75,-125 z"></path></clipPath><clipPath id="divisionClip_burgCOA300"><path d="m 0,95 h 100 v 10 h 100 v 10 H 0 Z" transform="translate(-10 -10) rotate(45 110 110) scale(1.1)"></path><rect x="0" y="115" width="200" height="85" transform="translate(-10 -10) rotate(45 110 110) scale(1.1)" shape-rendering="crispedges"></rect></clipPath><g id="crossFourchy_burgCOA300" stroke-width=".5">
    <path d="M95 105H76c-1 0-3 0-4 1l-7 5-3-5 9-6-9-6 3-5 7 5c1 1 3 1 4 1h19V75c0-1 0-3-1-4l-5-8 5-3 6 9 6-9 5 4-5 8c-1 1-1 3-1 4v20h20c1 0 3 0 4-1l7-5 3 5-9 6 9 6-3 5-7-5c-1-1-3-1-4-1h-20v18c0 1 0 3 1 4l5 8-5 4-6-9-6 9-5-4 5-8c1-1 1-3 1-4z"></path>
  </g><radialGradient id="backlight_burgCOA300" cx="100%" cy="100%" r="150%"><stop stop-color="#fff" stop-opacity=".3" offset="0"></stop><stop stop-color="#fff" stop-opacity=".15" offset=".25"></stop><stop stop-color="#000" stop-opacity="0" offset="1"></stop></radialGradient></defs>
        <g clip-path="url(#heater_burgCOA300)"><rect x="0" y="0" width="200" height="200" fill="#d7374a"></rect><g fill="#ffe066" stroke="#000"><use href="#crossFourchy_burgCOA300" transform="translate(-50 -50) scale(1.5)"></use></g><g clip-path="url(#divisionClip_burgCOA300)"><rect x="0" y="0" width="200" height="200" fill="#ffe066"></rect><g fill="#d7374a" stroke="#000"><use href="#crossFourchy_burgCOA300" transform="translate(-50 -50) scale(1.5)"></use></g></g></g>
        <path d="m25,25 h150 v50 a150,150,0,0,1,-75,125 a150,150,0,0,1,-75,-125 z" fill="url(#backlight_burgCOA300)" stroke="#333"></path></svg>