<svg xmlns="http://www.w3.org/2000/svg" id="burgCOA231" width="200" height="200" viewBox="0 10 200 200">
        <defs><clipPath id="wedged_burgCOA231"><path d="m 51.2,19 h 96.4 c 3.1,12.7 10.7,20.9 26.5,20.8 C 175.7,94.5 165.3,144.3 100,200 43.5,154.2 22.8,102.8 25.1,39.7 37,38.9 47.1,34.7 51.2,19 Z"></path></clipPath><clipPath id="divisionClip_burgCOA231"><rect x="0" y="100" width="200" height="100"></rect></clipPath><pattern id="potent-argent-vert" width="0.125" height="0.125" viewBox="0 0 200 200" stroke="#000"><rect width="200" height="100" fill="#fafafa" stroke="none"></rect><rect y="100" width="200" height="100" fill="#26c061" stroke="none"></rect><path d="m25 50h50v-50h50v50h50v50h-150z" fill="#26c061"></path><path d="m25 100v50h50v50h50v-50h50v-50z" fill="#fafafa"></path><path d="m0 0h200 M0 100h200" fill="none"></path></pattern><radialGradient id="backlight_burgCOA231" cx="100%" cy="100%" r="150%"><stop stop-color="#fff" stop-opacity=".3" offset="0"></stop><stop stop-color="#fff" stop-opacity=".15" offset=".25"></stop><stop stop-color="#000" stop-opacity="0" offset="1"></stop></radialGradient></defs>
        <g clip-path="url(#wedged_burgCOA231)"><rect x="0" y="0" width="200" height="200" fill="url(#potent-argent-vert)"></rect><g clip-path="url(#divisionClip_burgCOA231)"><rect x="0" y="0" width="200" height="200" fill="#d7374a"></rect></g></g>
        <path d="m 51.2,19 h 96.4 c 3.1,12.7 10.7,20.9 26.5,20.8 C 175.7,94.5 165.3,144.3 100,200 43.5,154.2 22.8,102.8 25.1,39.7 37,38.9 47.1,34.7 51.2,19 Z" fill="url(#backlight_burgCOA231)" stroke="#333"></path></svg>