<svg xmlns="http://www.w3.org/2000/svg" id="burgCOA408" width="200" height="200" viewBox="0 0 200 200">
        <defs><clipPath id="pavise_burgCOA408"><path d="M95 7L39.9 37.3a10 10 0 00-5.1 9.5L46 180c.4 5.2 3.7 10 9 10h90c5.3 0 9.6-4.8 10-10l10.6-133.2a10 10 0 00-5-9.5L105 7c-4.2-2.3-6.2-2.3-10 0z"></path></clipPath><g id="crossAvellane_burgCOA408" stroke-width=".5"><path d="M99.9 60c-1.8 0-2.4 3.2-4.2 3.5-2.6.5-4.9-3.2-7.6-2.4-2.6.7-5 3-6.4 6.3 1.9-2 4.3-2.6 6.5-1.6 2.2.9 4.1 3.3 5 6.4.3 1.2.1 2.5-.5 3.5-.8 1.8-1.3 6-1.3 8.1 0 6.6 2 9.8 7.6 10.2a5.3 5.3 0 00-5 5c-.3-5.6-3.6-7.5-10.3-7.5-2.1 0-6.3.4-8.1 1.3-1 .6-2.3.8-3.5.5-3.1-.9-5.5-2.7-6.4-4.9-.9-2.2-.3-4.6 1.6-6.5-3.3 1.4-5.6 3.7-6.3 6.4-.7 2.6 2.9 4.9 2.4 7.5-.3 1.7-3.2 2.3-3.2 4.1 0 1.8 2.9 2.5 3.2 4.3.4 2.6-3.1 4.9-2.4 7.5.7 2.6 3 4.9 6.3 6.4-1.9-1.9-2.5-4.2-1.7-6.4.9-2.2 3.2-4 6.2-5 1.2-.3 2.6-.2 3.6.4 1.8.9 6.1 1.3 8.2 1.3 6.6 0 10.1-1.8 10.4-7.4.2 2.9 2.1 4.7 5 5-5.6.3-7.7 3.4-7.7 10.1 0 2.1.4 6.3 1.3 8.1.6 1 .8 2.3.5 3.5-.9 3.1-2.7 5.5-5 6.4-2.2.9-4.6.3-6.5-1.6 1.4 3.3 3.7 5.6 6.4 6.3 2.6.7 5-2.9 7.6-2.4 1.8.3 2.5 3.3 4.2 3.3 1.8 0 2.4-3 4.2-3.3 2.6-.5 4.9 3.2 7.6 2.4 2.6-.7 5-3 6.4-6.3-1.9 1.9-4.2 2.6-6.4 1.7-2.2-.9-4-3.2-5-6.2-.3-1.2-.2-2.6.4-3.6.9-1.8 1.3-6.1 1.3-8.2 0-6.6-1.7-9.8-7.3-10.2a5.3 5.3 0 005-5c.3 5.6 3.3 7.5 10 7.5 2.1 0 6.4-.5 8.2-1.3 1-.6 2.4-.7 3.6-.4 3 .9 5.3 2.7 6.2 5 .9 2.2.3 4.6-1.7 6.4 3.3-1.4 5.6-3.7 6.3-6.4.7-2.6-2.9-4.9-2.4-7.5.3-1.8 3.4-2.6 3.4-4.4 0-1.7-3-2.3-3.4-4-.5-2.6 3.1-4.9 2.4-7.5-.7-2.6-3-4.9-6.3-6.4 2 1.9 2.6 4.3 1.6 6.5-.9 2.2-3.3 4.1-6.4 4.9-1.2.3-2.5.1-3.5-.5-1.8-.8-6-1.3-8.1-1.3-6.6 0-9.6 1.8-9.9 7.4-.2-2.8-2.1-4.7-5-5 5.6-.3 7.2-3.4 7.2-10.1 0-2.1-.5-6.4-1.3-8.2-.5-1-.7-2.4-.4-3.6.9-3 2.7-5.3 5-6.2 2.2-.9 4.6-.3 6.4 1.7-1.4-3.3-3.7-5.6-6.4-6.3-2.6-.7-5 2.9-7.6 2.4-1.8-.4-2.3-3.5-4.2-3.5z"></path></g><radialGradient id="backlight_burgCOA408" cx="100%" cy="100%" r="150%"><stop stop-color="#fff" stop-opacity=".3" offset="0"></stop><stop stop-color="#fff" stop-opacity=".15" offset=".25"></stop><stop stop-color="#000" stop-opacity="0" offset="1"></stop></radialGradient></defs>
        <g clip-path="url(#pavise_burgCOA408)"><rect x="0" y="0" width="200" height="200" fill="#fafafa"></rect><g fill="#522d5b" stroke="none"><path d="M0,102.5 a6.25,6.25,0,0,1,12.5,0 a6.25,6.25,0,0,1,12.5,0 a6.25,6.25,0,0,1,12.5,0 a6.25,6.25,0,0,1,12.5,0 a6.25,6.25,0,0,1,12.5,0 a6.25,6.25,0,0,1,12.5,0 a6.25,6.25,0,0,1,12.5,0 a6.25,6.25,0,0,1,12.5,0 a6.25,6.25,0,0,1,12.5,0 a6.25,6.25,0,0,1,12.5,0 a6.25,6.25,0,0,1,12.5,0 a6.25,6.25,0,0,1,12.5,0 a6.25,6.25,0,0,1,12.5,0 a6.25,6.25,0,0,1,12.5,0 a6.25,6.25,0,0,1,12.5,0 a6.25,6.25,0,0,1,12.5,0 v12.5 H0 z" transform="translate(0 -10) rotate(45 110 100) scale(1.1 1)"></path><path d="M0,102.5 a6.25,6.25,0,0,1,12.5,0 a6.25,6.25,0,0,1,12.5,0 a6.25,6.25,0,0,1,12.5,0 a6.25,6.25,0,0,1,12.5,0 a6.25,6.25,0,0,1,12.5,0 a6.25,6.25,0,0,1,12.5,0 a6.25,6.25,0,0,1,12.5,0 a6.25,6.25,0,0,1,12.5,0 a6.25,6.25,0,0,1,12.5,0 a6.25,6.25,0,0,1,12.5,0 a6.25,6.25,0,0,1,12.5,0 a6.25,6.25,0,0,1,12.5,0 a6.25,6.25,0,0,1,12.5,0 a6.25,6.25,0,0,1,12.5,0 a6.25,6.25,0,0,1,12.5,0 a6.25,6.25,0,0,1,12.5,0 v12.5 H0 z" transform="translate(-20 10) rotate(225 110 100) scale(1.1 1)"></path><path d="M0,102.5 a6.25,6.25,0,0,1,12.5,0 a6.25,6.25,0,0,1,12.5,0 a6.25,6.25,0,0,1,12.5,0 a6.25,6.25,0,0,1,12.5,0 a6.25,6.25,0,0,1,12.5,0 a6.25,6.25,0,0,1,12.5,0 a6.25,6.25,0,0,1,12.5,0 a6.25,6.25,0,0,1,12.5,0 a6.25,6.25,0,0,1,12.5,0 a6.25,6.25,0,0,1,12.5,0 a6.25,6.25,0,0,1,12.5,0 a6.25,6.25,0,0,1,12.5,0 a6.25,6.25,0,0,1,12.5,0 a6.25,6.25,0,0,1,12.5,0 a6.25,6.25,0,0,1,12.5,0 a6.25,6.25,0,0,1,12.5,0 v12.5 H0 z" transform="translate(-20 -10) rotate(-45 110 100) scale(1.1 1)"></path><path d="M0,102.5 a6.25,6.25,0,0,1,12.5,0 a6.25,6.25,0,0,1,12.5,0 a6.25,6.25,0,0,1,12.5,0 a6.25,6.25,0,0,1,12.5,0 a6.25,6.25,0,0,1,12.5,0 a6.25,6.25,0,0,1,12.5,0 a6.25,6.25,0,0,1,12.5,0 a6.25,6.25,0,0,1,12.5,0 a6.25,6.25,0,0,1,12.5,0 a6.25,6.25,0,0,1,12.5,0 a6.25,6.25,0,0,1,12.5,0 a6.25,6.25,0,0,1,12.5,0 a6.25,6.25,0,0,1,12.5,0 a6.25,6.25,0,0,1,12.5,0 a6.25,6.25,0,0,1,12.5,0 a6.25,6.25,0,0,1,12.5,0 v12.5 H0 z" transform="translate(0 10) rotate(-225 110 100) scale(1.1 1)"></path></g><g fill="#fafafa" stroke="#000"><use href="#crossAvellane_burgCOA408" transform="translate(33.99999999999999 28.999999999999993) scale(0.36000000000000004)"></use><use href="#crossAvellane_burgCOA408" transform="translate(94 28.999999999999993) scale(0.36000000000000004)"></use><use href="#crossAvellane_burgCOA408" transform="translate(63.99999999999999 63.99999999999999) scale(0.36000000000000004)"></use><use href="#crossAvellane_burgCOA408" transform="translate(33.99999999999999 99) scale(0.36000000000000004)"></use><use href="#crossAvellane_burgCOA408" transform="translate(94 99) scale(0.36000000000000004)"></use></g></g>
        <path d="M95 7L39.9 37.3a10 10 0 00-5.1 9.5L46 180c.4 5.2 3.7 10 9 10h90c5.3 0 9.6-4.8 10-10l10.6-133.2a10 10 0 00-5-9.5L105 7c-4.2-2.3-6.2-2.3-10 0z" fill="url(#backlight_burgCOA408)" stroke="#333"></path></svg>