<svg xmlns="http://www.w3.org/2000/svg" id="burgCOA527" width="200" height="200" viewBox="0 0 200 200">
        <defs><clipPath id="pavise_burgCOA527"><path d="M95 7L39.9 37.3a10 10 0 00-5.1 9.5L46 180c.4 5.2 3.7 10 9 10h90c5.3 0 9.6-4.8 10-10l10.6-133.2a10 10 0 00-5-9.5L105 7c-4.2-2.3-6.2-2.3-10 0z"></path></clipPath><clipPath id="divisionClip_burgCOA527"><rect x="0" y="100" width="200" height="100"></rect></clipPath><g id="roundel2_burgCOA527"><circle cx="100" cy="100" r="30"></circle><path fill="none" stroke-width=".5" d="M124 95a23 23 0 01-25 30"></path></g><radialGradient id="backlight_burgCOA527" cx="100%" cy="100%" r="150%"><stop stop-color="#fff" stop-opacity=".3" offset="0"></stop><stop stop-color="#fff" stop-opacity=".15" offset=".25"></stop><stop stop-color="#000" stop-opacity="0" offset="1"></stop></radialGradient></defs>
        <g clip-path="url(#pavise_burgCOA527)"><rect x="0" y="0" width="200" height="200" fill="#333333"></rect><g clip-path="url(#divisionClip_burgCOA527)"><rect x="0" y="0" width="200" height="200" fill="#fafafa"></rect></g><g fill="#ffe066" stroke="none"><rect x="75" y="0" width="50" height="200"></rect></g><g fill="#333333" stroke="#000"><use href="#roundel2_burgCOA527" transform="translate(55.00000000000001 2.500000000000007) scale(0.45)"></use><use href="#roundel2_burgCOA527" transform="translate(55.00000000000001 55.00000000000001) scale(0.45)"></use><use href="#roundel2_burgCOA527" transform="translate(55.00000000000001 107.5) scale(0.45)"></use></g></g>
        <path d="M95 7L39.9 37.3a10 10 0 00-5.1 9.5L46 180c.4 5.2 3.7 10 9 10h90c5.3 0 9.6-4.8 10-10l10.6-133.2a10 10 0 00-5-9.5L105 7c-4.2-2.3-6.2-2.3-10 0z" fill="url(#backlight_burgCOA527)" stroke="#333"></path></svg>