<svg xmlns="http://www.w3.org/2000/svg" id="burgCOA670" width="200" height="200" viewBox="0 0 200 200">
        <defs><clipPath id="boeotian_burgCOA670"><path d="M150 115c-5 0-10-5-10-15s5-15 10-15c10 0 7 10 15 10 10 0 0-30 0-30-10-25-30-55-65-55S45 40 35 65c0 0-10 30 0 30 8 0 5-10 15-10 5 0 10 5 10 15s-5 15-10 15c-10 0-7-10-15-10-10 0 0 30 0 30 10 25 30 55 65 55s55-30 65-55c0 0 10-30 0-30-8 0-5 10-15 10z"></path></clipPath><g id="crossHummetty_burgCOA670" stroke-width=".5"><path d="M90 60h20v30h30v20h-30v30H90v-30H60V90h30z"></path></g><radialGradient id="backlight_burgCOA670" cx="100%" cy="100%" r="150%"><stop stop-color="#fff" stop-opacity=".3" offset="0"></stop><stop stop-color="#fff" stop-opacity=".15" offset=".25"></stop><stop stop-color="#000" stop-opacity="0" offset="1"></stop></radialGradient></defs>
        <g clip-path="url(#boeotian_burgCOA670)"><rect x="0" y="0" width="200" height="200" fill="#26c061"></rect><g fill="#ffe066" stroke="none"><rect x="75" y="0" width="50" height="200"></rect></g><g fill="#26c061" stroke="#000"><use href="#crossHummetty_burgCOA670" transform="translate(47.50000000000001 7.105427357601002e-15) scale(0.5249999999999999)"></use></g></g>
        <path d="M150 115c-5 0-10-5-10-15s5-15 10-15c10 0 7 10 15 10 10 0 0-30 0-30-10-25-30-55-65-55S45 40 35 65c0 0-10 30 0 30 8 0 5-10 15-10 5 0 10 5 10 15s-5 15-10 15c-10 0-7-10-15-10-10 0 0 30 0 30 10 25 30 55 65 55s55-30 65-55c0 0 10-30 0-30-8 0-5 10-15 10z" fill="url(#backlight_burgCOA670)" stroke="#333"></path></svg>