<svg xmlns="http://www.w3.org/2000/svg" id="burgCOA348" width="200" height="200" viewBox="0 0 200 200">
        <defs><clipPath id="pavise_burgCOA348"><path d="M95 7L39.9 37.3a10 10 0 00-5.1 9.5L46 180c.4 5.2 3.7 10 9 10h90c5.3 0 9.6-4.8 10-10l10.6-133.2a10 10 0 00-5-9.5L105 7c-4.2-2.3-6.2-2.3-10 0z"></path></clipPath><clipPath id="divisionClip_burgCOA348"><rect x="0" y="100" width="200" height="100"></rect></clipPath><pattern id="counterPotent-argent-vert" width="0.125" height="0.125" viewBox="0 0 200 200" stroke="none"><rect width="200" height="200" fill="#fafafa"></rect><path d="m25 50h50v-50h50v50h50v100h-50v50h-50v-50h-50v-50z" fill="#26c061"></path><path d="m0 0h200 M0 100h200 M0 200h200"></path></pattern><radialGradient id="backlight_burgCOA348" cx="100%" cy="100%" r="150%"><stop stop-color="#fff" stop-opacity=".3" offset="0"></stop><stop stop-color="#fff" stop-opacity=".15" offset=".25"></stop><stop stop-color="#000" stop-opacity="0" offset="1"></stop></radialGradient></defs>
        <g clip-path="url(#pavise_burgCOA348)"><rect x="0" y="0" width="200" height="200" fill="url(#counterPotent-argent-vert)"></rect><g clip-path="url(#divisionClip_burgCOA348)"><rect x="0" y="0" width="200" height="200" fill="#d7374a"></rect></g><g fill="#333333" stroke="none"><rect x="75" y="0" width="50" height="200"></rect></g></g>
        <path d="M95 7L39.9 37.3a10 10 0 00-5.1 9.5L46 180c.4 5.2 3.7 10 9 10h90c5.3 0 9.6-4.8 10-10l10.6-133.2a10 10 0 00-5-9.5L105 7c-4.2-2.3-6.2-2.3-10 0z" fill="url(#backlight_burgCOA348)" stroke="#333"></path></svg>