<svg xmlns="http://www.w3.org/2000/svg" id="burgCOA667" width="200" height="200" viewBox="0 10 200 200">
        <defs><clipPath id="spanish_burgCOA667"><path d="m25,25 h150 v100 a75,75,0,0,1,-150,0 z"></path></clipPath><g id="crossBurgundy_burgCOA667" stroke-width=".4"><path d="M73 65v3l-5-5h-5v5l2 2v3l5 5v-3l4 4v3l5 5v-3l7 7v3l5 5v-3l2.53 2.55L89 103h3l-7 7h-3l-6 6h3l-5 5h-3l-5 5h3l-6 6v5h5l2-2h3l5-5h-3l5-5h3l5-5h-3l6-6h3l5-5h-3l2-2.6 5.54 5.53.46-2.93 6 6v3l6 6v-3l4 4v3l6 6v-3l6 6h5v-6l-2.07-1.5.07-2.5-2-2-4-4v3l-5-5v-3l-6-6v3l-4-4v-3l-6-6 .13 3.08-1.85-1.87L112 96h-3l6-6h3l5-5h-3l5-5h3l6-6h-3l6-6v-5h-5l-2 2h-3l-5 5h3l-5 5h-3l-6 6h3l-5 5h-3l-6 6h3l-1.52 1.49L95 87v3l-6-6v-3l-5-5v3l-6-6v-3z"></path></g><radialGradient id="backlight_burgCOA667" cx="100%" cy="100%" r="150%"><stop stop-color="#fff" stop-opacity=".3" offset="0"></stop><stop stop-color="#fff" stop-opacity=".15" offset=".25"></stop><stop stop-color="#000" stop-opacity="0" offset="1"></stop></radialGradient></defs>
        <g clip-path="url(#spanish_burgCOA667)"><rect x="0" y="0" width="200" height="200" fill="#ffe066"></rect><g fill="#333333" stroke="#000"><use href="#crossBurgundy_burgCOA667" transform="translate(-50 -50) scale(1.5)"></use></g></g>
        <path d="m25,25 h150 v100 a75,75,0,0,1,-150,0 z" fill="url(#backlight_burgCOA667)" stroke="#333"></path></svg>