<svg xmlns="http://www.w3.org/2000/svg" id="burgCOA75" width="200" height="200" viewBox="0 0 200 200">
        <defs><clipPath id="oval_burgCOA75"><path d="m 32.3,99.5 a 67.7,93.7 0 1 1 0,1.3 z"></path></clipPath><g id="hatchet_burgCOA75" stroke-width=".615"><path d="M114.4 137.8c0 2.5 9.5 2.5 9.5 0l-.3-65.4c0-2.5-9-2.5-9-.1z"></path><path d="M124.2 75.2c0-3-7.3-3-9.4-1.4-.5.4-.6 1-1.1 1.4-.6.3-4.3.3-5.4.3-11.1 0-23.9-13.3-26.4-14.8 0 0-6.4 10.4-6.4 29.6a72.4 72.4 0 0014.3 41.4s5.6-2.6 6.8-8.8c.9-4.1.5-9.9 1.5-14 2-8 10.6-8.8 10.6-8.8 0-.3-1.6-4-1.6-6.9 0-3.3 3.2-3.8 4.8-2.5.5.4.8 1.5.9 2.3v3.4c0 3 9.5 3 11.4 1.1V75.2z"></path><path fill="#000" stroke="none" d="M83.5 68.7c-2.9 19.6-3.6 34.2 7.1 56-10.2-14.6-11.8-41.2-7.1-56zm30.7 8c.3 5.7.5 11.6 0 17.4-.3-5.3-.5-11.7 0-17.3z" opacity=".6"></path></g><radialGradient id="backlight_burgCOA75" cx="100%" cy="100%" r="150%"><stop stop-color="#fff" stop-opacity=".3" offset="0"></stop><stop stop-color="#fff" stop-opacity=".15" offset=".25"></stop><stop stop-color="#000" stop-opacity="0" offset="1"></stop></radialGradient></defs>
        <g clip-path="url(#oval_burgCOA75)"><rect x="0" y="0" width="200" height="200" fill="#ffe066"></rect><g fill="#377cd7" stroke="#000"><use href="#hatchet_burgCOA75" transform="translate(-42.499999999999986 -42.499999999999986) scale(1.4249999999999998)"></use></g></g>
        <path d="m 32.3,99.5 a 67.7,93.7 0 1 1 0,1.3 z" fill="url(#backlight_burgCOA75)" stroke="#333"></path></svg>