<svg xmlns="http://www.w3.org/2000/svg" id="burgCOA362" width="200" height="200" viewBox="0 0 200 200">
        <defs><clipPath id="boeotian_burgCOA362"><path d="M150 115c-5 0-10-5-10-15s5-15 10-15c10 0 7 10 15 10 10 0 0-30 0-30-10-25-30-55-65-55S45 40 35 65c0 0-10 30 0 30 8 0 5-10 15-10 5 0 10 5 10 15s-5 15-10 15c-10 0-7-10-15-10-10 0 0 30 0 30 10 25 30 55 65 55s55-30 65-55c0 0 10-30 0-30-8 0-5 10-15 10z"></path></clipPath><g id="crossPotent_burgCOA362" stroke-width=".5"><path d="M83 60v10h12v25H70V83H60v34h10v-12h25v25H83v10h34v-10h-12v-25h25v12h10V83h-10v12h-25V70h12V60z"></path></g><radialGradient id="backlight_burgCOA362" cx="100%" cy="100%" r="150%"><stop stop-color="#fff" stop-opacity=".3" offset="0"></stop><stop stop-color="#fff" stop-opacity=".15" offset=".25"></stop><stop stop-color="#000" stop-opacity="0" offset="1"></stop></radialGradient></defs>
        <g clip-path="url(#boeotian_burgCOA362)"><rect x="0" y="0" width="200" height="200" fill="#333333"></rect><g fill="#ffe066" stroke="none"><rect x="0" y="85" width="200" height="30"></rect><rect x="0" y="72.5" width="200" height="7.5"></rect><rect x="0" y="120" width="200" height="7.5"></rect><path d="m 200,95 h -3 l -5,10 h -10 l 5,-10 h -10 l -5,10 h -10 l 5,-10 h -10 l -5,10 h -10 l 5,-10 h -10 l -5,10 h -10 l 5,-10 h -10 l -5,10 h -10 l 5,-10 H 97 l -5,10 H 82 L 87,95 H 77 l -5,10 H 62 L 67,95 H 57 l -5,10 H 42 L 47,95 H 37 l -5,10 H 22 L 27,95 H 17 l -5,10 H 2 L 7,95 H 0 v 20 h 200 z" transform="translate(0 10) scale(1 .5)"></path><path d="m 200,95 h -3 l -5,10 h -10 l 5,-10 h -10 l -5,10 h -10 l 5,-10 h -10 l -5,10 h -10 l 5,-10 h -10 l -5,10 h -10 l 5,-10 h -10 l -5,10 h -10 l 5,-10 H 97 l -5,10 H 82 L 87,95 H 77 l -5,10 H 62 L 67,95 H 57 l -5,10 H 42 L 47,95 H 37 l -5,10 H 22 L 27,95 H 17 l -5,10 H 2 L 7,95 H 0 v 20 h 200 z" transform="translate(0 90) rotate(180 100 50) scale(1 .5)"></path></g><g fill="#fafafa" stroke="#000"><use href="#crossPotent_burgCOA362" transform="translate(-12.5 -12.5) scale(1.125)"></use></g></g>
        <path d="M150 115c-5 0-10-5-10-15s5-15 10-15c10 0 7 10 15 10 10 0 0-30 0-30-10-25-30-55-65-55S45 40 35 65c0 0-10 30 0 30 8 0 5-10 15-10 5 0 10 5 10 15s-5 15-10 15c-10 0-7-10-15-10-10 0 0 30 0 30 10 25 30 55 65 55s55-30 65-55c0 0 10-30 0-30-8 0-5 10-15 10z" fill="url(#backlight_burgCOA362)" stroke="#333"></path></svg>