<svg xmlns="http://www.w3.org/2000/svg" id="burgCOA128" width="200" height="200" viewBox="0 0 200 200">
        <defs><clipPath id="pavise_burgCOA128"><path d="M95 7L39.9 37.3a10 10 0 00-5.1 9.5L46 180c.4 5.2 3.7 10 9 10h90c5.3 0 9.6-4.8 10-10l10.6-133.2a10 10 0 00-5-9.5L105 7c-4.2-2.3-6.2-2.3-10 0z"></path></clipPath><g id="fusil_burgCOA128"><polygon points="100 55 130 100 100 145 70 100"></polygon></g><radialGradient id="backlight_burgCOA128" cx="100%" cy="100%" r="150%"><stop stop-color="#fff" stop-opacity=".3" offset="0"></stop><stop stop-color="#fff" stop-opacity=".15" offset=".25"></stop><stop stop-color="#000" stop-opacity="0" offset="1"></stop></radialGradient></defs>
        <g clip-path="url(#pavise_burgCOA128)"><rect x="0" y="0" width="200" height="200" fill="#ffe066"></rect><g fill="#377cd7" stroke="#000"><use href="#fusil_burgCOA128" transform="translate(7 2) scale(0.63)"></use><use href="#fusil_burgCOA128" transform="translate(67 2) scale(0.63)"></use><use href="#fusil_burgCOA128" transform="translate(37 89.5) scale(0.63)"></use></g></g>
        <path d="M95 7L39.9 37.3a10 10 0 00-5.1 9.5L46 180c.4 5.2 3.7 10 9 10h90c5.3 0 9.6-4.8 10-10l10.6-133.2a10 10 0 00-5-9.5L105 7c-4.2-2.3-6.2-2.3-10 0z" fill="url(#backlight_burgCOA128)" stroke="#333"></path></svg>