<svg xmlns="http://www.w3.org/2000/svg" id="burgCOA561" width="200" height="200" viewBox="0 0 200 200">
        <defs><clipPath id="boeotian_burgCOA561"><path d="M150 115c-5 0-10-5-10-15s5-15 10-15c10 0 7 10 15 10 10 0 0-30 0-30-10-25-30-55-65-55S45 40 35 65c0 0-10 30 0 30 8 0 5-10 15-10 5 0 10 5 10 15s-5 15-10 15c-10 0-7-10-15-10-10 0 0 30 0 30 10 25 30 55 65 55s55-30 65-55c0 0 10-30 0-30-8 0-5 10-15 10z"></path></clipPath><clipPath id="divisionClip_burgCOA561"><rect x="100" y="0" width="100" height="92.5"></rect><rect x="0" y="107.5" width="100" height="92.5"></rect><path d="m 200,90 -5,5 v 10 l -5,5 -5,-5 V 95 l -5,-5 -5,5 v 10 l -5,5 -5,-5 V 95 l -5,-5 -5,5 v 10 l -5,5 -5,-5 V 95 l -5,-5 -5,5 v 10 l -5,6 -5,-6 V 95 l -5,-5 -5,5 v 10 l -5,5 -5,-5 V 95 l -5,-5 -5,5 v 10 l -5,5 -5,-5 V 95 l -5,-5 -5,5 v 10 l -5,6 -5,-6 V 95 l -5,-5 -5,5 v 10 l -5,5 -5,-5 V 95 l -5,-5 -5,5 v 10 l -5,5 -5,-5 V 95 l -5,-5 -5,5 v 10 l -5,5 -5,-5 V 95 L 0,90 v 25 h 200" transform="translate(0 50) scale(.5001)"></path><path d="m 200,90 -5,5 v 10 l -5,5 -5,-5 V 95 l -5,-5 -5,5 v 10 l -5,5 -5,-5 V 95 l -5,-5 -5,5 v 10 l -5,5 -5,-5 V 95 l -5,-5 -5,5 v 10 l -5,6 -5,-6 V 95 l -5,-5 -5,5 v 10 l -5,5 -5,-5 V 95 l -5,-5 -5,5 v 10 l -5,5 -5,-5 V 95 l -5,-5 -5,5 v 10 l -5,6 -5,-6 V 95 l -5,-5 -5,5 v 10 l -5,5 -5,-5 V 95 l -5,-5 -5,5 v 10 l -5,5 -5,-5 V 95 l -5,-5 -5,5 v 10 l -5,5 -5,-5 V 95 L 0,90 v 25 h 200" transform="translate(200 150) scale(-.5)"></path></clipPath><g id="cancer_burgCOA561" stroke-width=".3"><path d="M105.3 65.7c-.3 0-1.3 1.4-1.4 4.1-.1 2.2.8 5.9.8 5.9s1.8 6.3 2.6 7.1c.8 1 5-3.2 4.6-4.7-.4-1.5-2.2-1.7-2.9-2.8-.4-.3-.2-1-.3-1.1-.1-.2-.7 0-1-.3-.2-.4-.6-.4-.7-1 0-.6.8-.7.5-1.4-.3-.6-1.5-1-1.7-1.5 0-.6.5-1.2.4-1.5 0-.3-.8-.6-.8-1.2s.4-1 .2-1.4c-.1-.4 0-.2-.3-.2zm-10.5 0c.2 0 1.2 1.4 1.3 4.1.1 2.2-.8 5.9-.8 5.9s-1.8 6.3-2.6 7.1c-.8 1-5-3.2-4.6-4.7.4-1.5 2.2-1.7 3-2.8.3-.3.1-1 .2-1.1.1-.2.8 0 1-.3.2-.4.7-.4.7-1 .1-.6-.8-.7-.5-1.4s1.5-1 1.7-1.5c.1-.6-.5-1.2-.4-1.5 0-.3.9-.6.9-1.2s-.4-1-.3-1.4c.1-.4.1-.2.4-.2zm26.4 22.2s1-1.4 1.7-3.8l.6-2.9c0-1.4-.2-2.5 0-2.6.3 0 .6.9.8 2 .2 1.1.2 2.5.2 2.5s.7-.6 1.3-1.5c.4-.6.6-1.6.7-1.6.2.2 0 2.3-1 4.6a22.3 22.3 0 01-3.3 4.8l-1-1.5zm2.2 6.5s1.2-.8 2.3-2.6c.4-.6 1-1.4 1.2-2 .5-1.2.6-2.1.8-2 .2 0 .2.8 0 1.7 0 1-.5 2-.5 2s.8-.3 1.5-.8c.5-.4.9-1.1 1-1 .1.1-.6 1.7-2 3.3-1.6 1.6-4 3-4 3l-.3-1.6z"></path><path d="M106.9 62.7c1-.2 2.5 0 4 1.3 1.6 1.4 3.3 4 4.4 7.5.3.7 1 2.7 1.6 5.2 1.1 4.3.9 7.6 0 9.2-.5 1-2 2.3-3.4 2.7-1.4.4-1.9-.3-2.2-.3-1.3.4-2.5-1.7-3.4-3.5-.7-1.2-1.5-1.9-1.6-2.4-.2-.7.5-.1 1.8-1 .7-.4.1-.9.9-1.6.8-.7 1-.1.9-1-.8-2.4.3-2.7 0-3.6-.1-1-.8-1.4-.9-1.8-.1-.7.3-.6.1-1.6 0-.4-.3-.8-.4-1.2-.1-.8.5-1.4.4-1.7s-1.2-.6-1.3-1c-.1-.5.6-1.2.3-2.3-.2-.8-.6-1.3-.9-1-.5-.3-.3-.6-.6-.8-.6-.6-1 0-1-.2-.2 0 0-.6 1.3-.9zm18.9 39.1l.8-.7 2.3-1.7c1-.7 3-.4 2.9-.4-.1-.5-2-1.2-3.8-.4-1.7.8-3.4 2.5-3.4 2.5l1.2.7zm-1.3 5.6l.8-.6s1.8-1.2 2.6-2.1c.8-1 2.8-1.3 2.8-1.3-.3-.4-2.3-.3-3.8.9a26.6 26.6 0 01-3.6 2.4l1.2.7zm-21.7-22.9c.1-1.4-.8-5.7-.6-11.4.3-6.2 1.9-12 1.7-12.2a48 48 0 00-2.4 12.1c-.6 5.6 0 10.3 0 11.3s1.2 1.6 1.3.2zm-24 3.4s-1-1.4-1.7-3.8l-.6-2.9c0-1.4.2-2.5 0-2.6-.3 0-.6.9-.8 2-.2 1.1-.2 2.5-.2 2.5s-.7-.6-1.3-1.5c-.4-.6-.6-1.6-.7-1.6-.2.2 0 2.3 1 4.6 1.1 2.4 3.3 4.8 3.3 4.8l1-1.5zm-2.2 6.5s-1.2-.8-2.3-2.6c-.4-.6-1-1.4-1.2-2-.5-1.2-.6-2.1-.8-2-.2 0-.2.8 0 1.7 0 1 .5 2 .5 2s-.8-.3-1.5-.8c-.5-.4-.9-1.1-1-1-.1.1.6 1.7 2 3.3 1.6 1.6 4 3 4 3l.3-1.6zm16.5-31.7c-1-.2-2.5 0-4 1.3-1.6 1.4-3.3 4-4.4 7.5-.3.7-1 2.7-1.6 5.2-1.1 4.3-.9 7.6 0 9.2.5 1 2 2.3 3.4 2.7s1.9-.3 2.2-.3c1.3.4 2.5-1.7 3.4-3.5.7-1.2 1.5-1.9 1.6-2.4.2-.7-.5-.1-1.8-1-.7-.4-.1-.9-.9-1.6-.8-.7-1-.1-.9-1 .8-2.4-.3-2.7 0-3.6.1-1 .8-1.4.9-1.8.1-.7-.3-.6-.1-1.6 0-.4.3-.8.4-1.2.1-.8-.5-1.4-.4-1.7 0-.2 1.2-.6 1.3-1 .1-.5-.6-1.2-.3-2.3.2-.8.6-1.3.9-1 .5-.3.3-.6.6-.8.6-.6 1 0 1-.2.2 0 0-.6-1.3-.9zm-18.9 39.1l-.8-.7-2.3-1.7c-1-.7-3-.4-2.9-.4.1-.5 2-1.2 3.8-.4 1.7.8 3.4 2.5 3.4 2.5l-1.2.7zm1.3 5.6l-.8-.6s-1.8-1.2-2.6-2.1c-.8-1-2.8-1.3-2.8-1.3.3-.4 2.3-.3 3.8.9 1.4 1.2 3.6 2.4 3.6 2.4l-1.2.7zm21.7-22.9c-.1-1.4.8-5.7.6-11.4-.3-6.2-1.9-12-1.7-12.2.4-.2 1.8 6 2.4 12.1.5 5.6 0 10.3 0 11.3s-1.2 1.6-1.3.2zm-.7 45.5s-1.4.5-2.6 1.4c-1.3 1-2.3 2.1-2.6 2.5-.3.4-.4 1 .4 2.1.9 1.1 2.8 2.2 4 2.2 1 0 2-1.3 2-1.3v-4.6l-1.2-2.3zm7.1 0s1.4.5 2.6 1.4c1.4 1 2.3 2.1 2.6 2.5.3.4.4 1-.4 2.1-.9 1.1-2.8 2.2-3.9 2.2s-2-1.3-2-1.3v-4.6l1.1-2.3z"></path><path d="M102.2 128.7s1.1 2.4 1.1 6c0 2-.4 3.2-.7 3.6-.3.4-1.4 1-2.6 1-1.1 0-2.2-.6-2.5-1-.3-.4-.7-1.6-.7-3.7 0-3.5 1.1-5.9 1.1-5.9h4.3zm-7.4-.5c-1 0-.6.2-1.6.2s-2.2-1-3.3-1c-1 0-2.2.9-2.2 2.8s1.5 4.3 3 4.3 5.1-4.6 5.1-4.6 0-1.7-1-1.7zm10.5 0c1 0 .6.2 1.6.2s2.2-1 3.3-1c1 0 2.2.9 2.2 2.8s-1.5 4.3-3 4.3-5-4.6-5-4.6 0-1.7 1-1.7z"></path><path d="M97 128.3s-.3.6-.8 1c-.5.3-1 .5-1 .7-.1.3.1.7.7 1.2.5.5.7.5 1 .4.2-.1.4-.5.7-1.2a8 8 0 00.4-1.4l-1-.7zm6 0s.4.6 1 1c.4.3 1 .5 1 .7 0 .3-.2.7-.8 1.2-.5.5-.7.5-1 .4-.2-.1-.4-.5-.7-1.2a8 8 0 01-.4-1.4l1-.7z"></path><path d="M95.8 127.4c-.2.1-.4.6-1.2.8-.4.1 0 1 .3 1.4.3.5 1.2-.3 1.4-.4l.5-.7c.3-.5-.8-1.2-1-1zm8.5 0c.2.1.4.6 1.2.8.4.1 0 1-.3 1.4-.3.5-1.2-.3-1.4-.4l-.5-.7c-.3-.5.8-1.2 1-1z"></path><path d="M103.4 125c0 .9 1 2.2 1 2.5s-.5.2-.8.6c-.4.4-.6 1-1.1 1.2-1.2.2-1.5.7-2.5.7s-1.2-.5-2.3-.7c-.6-.2-.8-.8-1.2-1.2-.3-.4-.7-.4-.7-.6s.9-1.7.9-2.6 6.7-.9 6.7 0zm19.1-22.8s.2 0 1.5-1c.8-.4 2-1.5 2.1-1.6.7-.4 1.3 1 .6 1.8-.4.4-1.3 1.1-2.5 1.8-1.5.7-1.7.5-1.7.5l-.5-.9.5-.6zm-1.2 5.5l1.5-.8c.8-.4 1.9-1.3 2.1-1.4.7-.3 1.3.8.5 1.6-.3.3-1.4 1-2.6 1.5-1.4.6-1.7.4-1.7.4l-.4-.8.6-.5zm-43.8-5.5s-.2 0-1.6-1c-.7-.4-1.8-1.5-2-1.6-.7-.4-1.4 1-.6 1.8.4.4 1.3 1.1 2.5 1.8 1.5.7 1.7.5 1.7.5l.5-.9-.5-.6zm1.3 5.5l-1.6-.8-2.1-1.4c-.7-.3-1.3.8-.5 1.6.4.3 1.4 1 2.6 1.5 1.5.6 1.7.4 1.7.4l.4-.8-.5-.5z"></path><path d="M103.3 122c0 1 1.3 2.7 1.3 3 0 .2-.5.8-1 .9-.5 0-.4-.2-1 0-.5.2-1 .6-2.5.6s-2-.4-2.6-.6c-.6-.2-.4 0-1 0-.4-.1-1-.7-1-1 0-.2 1.4-2 1.4-2.9 0-.9 6.4-.9 6.4 0zm3.9-29.2c-.5-.5-.6-1.3 0-1.7.6-.4 1.4-.8 2.6-1.8.5-.4.7-1 .7-1l1.1-.6c.7-.2 1.4 0 1.6 0 .5.4 1 0 .9 1.4 0 .7-2.2 4.3-2.2 4.3s-.3.5-1.4.5c-1 0-1.1-.7-1.5-.4-.7.2-1.3-.2-1.8-.7zm9.3-.3s1.6-1.1 3-2.7l1.6-2.3c.7-.7 2.1.7 1.5 2-.5 1.3-5 4.7-5 4.7l-1-1v-.7zm1.3 5.9s1.8-1 3.2-2.2c.8-.6 2-2 2.3-2.1.7-.5 1.7 1 1 2a14 14 0 01-2.9 2.2c-1.5 1-3.1 1.8-3.1 1.8l-.6-1v-.7zm.4 5.7s.6 0 2.2-.7c1-.5 2.3-1.5 2.6-1.7.7-.3 1.3 1.2.4 2a11 11 0 01-3 1.7c-1.8.7-2 .4-2 .4l-.4-1 .2-.7zm-1.2 5.1s.5 0 2.1-.6c1-.3 2.3-1.2 2.6-1.3.8-.3 1.3 1.2.3 1.9-.5.3-1.7.9-3 1.3-1.8.5-2 .2-2 .2l-.4-1 .3-.5zM92.8 92.8c.5-.5.6-1.3 0-1.7-.6-.4-1.4-.8-2.6-1.8-.5-.4-.7-1-.7-1l-1.1-.6c-.7-.2-1.4 0-1.6 0-.5.4-1 0-.9 1.4 0 .7 2.2 4.3 2.2 4.3s.3.5 1.4.5c1 0 1.1-.7 1.5-.4.7.2 1.3-.2 1.8-.7zm-9.3-.3s-1.6-1.1-3-2.7L79 87.5c-.7-.7-2.1.7-1.5 2 .5 1.3 5 4.7 5 4.7l1-1v-.7zm-1.3 5.9s-1.8-1-3.2-2.2c-.8-.6-2-2-2.3-2.1-.7-.5-1.7 1-1 2a14 14 0 002.9 2.2 33 33 0 003.1 1.8l.6-1v-.7zm-.4 5.7s-.6 0-2.2-.7c-1-.5-2.3-1.5-2.6-1.7-.7-.3-1.3 1.2-.4 2a11 11 0 003 1.7c1.8.7 2 .4 2 .4l.4-1-.2-.7zm1.2 5.1s-.5 0-2.1-.6c-1-.3-2.4-1.2-2.6-1.3-.8-.3-1.3 1.2-.3 1.9.5.3 1.7.9 3 1.3 1.8.5 2 .2 2 .2l.4-1-.3-.5z"></path><path d="M100 123.6c1.6 0 3-.8 3.6-1h1c.5 0 1-.7 1-1 0-.3-1.4-2.1-1.4-3 0-1-8.4-1-8.4 0s-1.4 2.7-1.4 3c0 .3.5 1 1 1h1c.7.2 2 1 3.6 1m7.5-31s3.1.2 3.4 1.1c.3 1-.6 1.7-2 2-1.5.3-2.4-2.4-2.4-2.4-.2-1.6 1-.7 1-.7zm2.4 4.8s2.2-1 4-2.5c1.6-1.4 2.8-2.7 3-2.9.2 0 .5.1.8.6.3.5.5 1.2.3 1.4 0 .2-1.8 2-3.7 3.2l-4 2-.4-1.8zm.1 3.9s2.5-.2 4.4-1.2c1.7-.8 3.5-2 3.7-2 .2 0 .5.2.6.7v1.2c-.2.2-2.6 1.5-4.6 2.1-1.9.6-4.2.7-4.2.7v-1.5zm0 4s2.5.3 4.5-.2l4.1-1.3c.2 0 .4.3.5.8 0 .5-.1 1.1-.3 1.3a19.3 19.3 0 01-9.2 1l.4-1.6zm-1.3 4.7s2.5.3 4.5 0l4.1-1c.2 0 .4.3.4.7 0 .5-.1 1-.3 1.1-.2.2-2.8.7-4.8.8-2 .1-4.3-.3-4.3-.3l.4-1.3zM92.5 92.6s-3.1.2-3.4 1.1c-.3 1 .6 1.7 2 2 1.5.3 2.4-2.4 2.4-2.4.2-1.6-1-.7-1-.7zm-2.4 4.8s-2.2-1-4-2.5c-1.6-1.4-2.8-2.7-3-2.9-.2 0-.5.1-.8.6-.2.5-.4 1.2-.3 1.4 0 .2 1.8 2 3.8 3.2 1.9 1.1 3.9 2 3.9 2l.4-1.8zm-.1 3.9s-2.4-.2-4.4-1.2l-3.7-2c-.2 0-.4.2-.6.7v1.2a19 19 0 008.8 2.8v-1.5zm0 4s-2.5.3-4.5-.2l-4.1-1.3c-.2 0-.4.3-.4.8s0 1.1.2 1.3a19.3 19.3 0 009.2 1l-.4-1.6zm1.3 4.7s-2.5.3-4.5 0l-4-1c-.3 0-.5.3-.5.7 0 .5.1 1 .3 1.1.2.2 2.8.7 4.9.8 2 .1 4.2-.3 4.2-.3l-.4-1.3z"></path><path d="M104.8 114.4c0 1.1 1.5 3.1 1.5 3.4 0 .4-.6 1-1.2 1.2-.5 0-.4-.2-1 0s-1.9 1.3-4 1.3c-2.2 0-3.3-1.1-4-1.3s-.5 0-1.1 0c-.6-.1-1.2-.8-1.2-1.2 0-.3 1.5-2.3 1.5-3.4 0-1 9.5-1 9.5 0zm-.8-20.7s.8 0 1.4-.4c.6-.3 1.1-.9 1.1-.9l1 1.3c.6.7 1.4 1.4 1.4 1.6.1.3.2.5-.3.8-.5.3-2.7.4-3.2 1.3-.5.8-1.4-3.7-1.4-3.7zm1.9 4.3s1.5.2 2.7-.2c1-.4 1.7-.8 2-.8.1 0 .8 1.4.2 2-.5.8-4 1-4 1l-1-2zm.3 3s1.3.4 2.4.3c1 0 1.7-.3 1.9-.2.1 0 .4 1.4-.2 1.8-.6.5-3.7 0-3.7 0l-.4-1.9zm.1 3.4s1.2.6 2.3.7l2 .1s.1 1.5-.6 1.8c-.7.4-3.6-.7-3.6-.7v-2zm-1.2 4.6s1.2.6 2.3.7l1.9.2c.1 0 0 1.3-.6 1.6-.7.3-3.5-.8-3.5-.8V109zm-2.4-21.4c-.1-.7.5-3.1.2-3.4-.3-.2-1.4-.3-1.5 0a10 10 0 000 3.5c.3.8 1.5.6 1.3-.1zM96 93.7s-.7 0-1.3-.4c-.7-.3-1.2-.9-1.2-.9l-1 1.3c-.6.7-1.4 1.4-1.4 1.6-.1.3-.2.5.3.8.5.3 2.7.4 3.2 1.3.5.8 1.4-3.7 1.4-3.7zM94.1 98s-1.5.2-2.7-.2c-1-.4-1.7-.8-2-.8-.1 0-.8 1.4-.2 2 .5.8 4 1 4 1l1-2zm-.3 3s-1.2.4-2.4.3c-1 0-1.7-.3-1.8-.2-.2 0-.5 1.4.1 1.8s3.7 0 3.7 0l.4-1.9zm-.1 3.4s-1.2.6-2.4.7l-1.8.1c-.2 0-.2 1.5.5 1.8.7.4 3.6-.7 3.6-.7v-2zm1.1 4.6s-1.1.6-2.2.7l-1.9.2c-.1 0 0 1.3.6 1.6.7.3 3.5-.8 3.5-.8V109zm2.5-21.4c.1-.7-.4-3.1-.2-3.4.3-.2 1.4-.3 1.5 0 .1.1.3 2.8 0 3.5-.3.8-1.5.6-1.3-.1z"></path><path d="M94.8 110.6c0 1.2-1.6 3.3-1.6 3.7 0 .3.6 1 1.2 1.1.7.1.5-.2 1.2 0 .7.3 1.7 1.5 4.4 1.5 2.8 0 3.8-1.2 4.5-1.4.7-.2.5 0 1.2 0 .6-.2 1.2-.9 1.2-1.2 0-.4-1.6-2.5-1.6-3.7 0-1.1-10.5-1.1-10.5 0z"></path><path d="M95.5 91.3c-.5 1.9-.7 4.3-.7 4.3s-2.4 4-2.5 7.7c0 4.2 1.9 8.2 2.2 8.6.4.4 1.5 1.2 5.5 1.2s5-.8 5.4-1.2c.4-.4 2.3-4.4 2.3-8.6 0-3.7-2.6-7.7-2.6-7.7s-.1-2.4-.6-4.3a16 16 0 00-1.3-3.2c-.3-.5-.4-1.3-.3-1.7.2-.7.3-1.8 0-1.8-.2 0-1.5 2.6-2 2.5H99c-.6.1-1.9-2.5-2.1-2.5-.3 0-.1 1 0 1.8.1.4 0 1.2-.3 1.7-.4.7-.7 1.3-1.2 3.2z"></path><path fill="#333" d="M103.7 91s0-.6-.8-1c-.3-.2-1-.2-1.2.6-.2.8.8 1.8.8 1.8l1.8-.2-.6-1.1zm-7.4 0s0-.6.8-1c.3-.2 1-.2 1.2.6.2.8-.8 1.8-.8 1.8l-1.8-.2.6-1.1z"></path><path d="M103.4 103s-1.5 4.9-.7 9.9c0 0-1 .2-2.7.2-1.7 0-2.7-.2-2.7-.2.8-5-.7-10-.7-10l2.6-2.6 4.2 2.7z"></path><path d="M100 80.7s.4 5 1.4 8.2c.5 1.3 1 2.3 1.4 2.9.1.3.4.5.8 0l.1-1.1c.2-.4.6-.3.6-.3s1.4 2.6 1.4 5.2c0 3.4-1.8 5.4-2.3 7.4-.4 0-1.4-.3-3.4-.3s-3 .3-3.3.3c-.5-2-2.3-4-2.3-7.4 0-2.6 1.4-5.2 1.4-5.2s.3-.1.5.3c.2.3 0 .8.2 1 .3.6.6.4.8 0l1.3-2.8c1-3.1 1.3-8.3 1.4-8.2z"></path><path fill="#000" stroke="none" d="M96.5 114.7a7.5 7.5 0 007 0 5.4 5.4 0 01-7 0zm6.8 3.6a5.3 5.3 0 01-6.6 0c2.3 1 4.2 1 6.6 0zm-6.3 3.5a5.1 5.1 0 006.1 0 7 7 0 01-6.1 0zm.4 3.2a7 7 0 005.4 0 4.8 4.8 0 01-5.4 0zm-2.5-56.2a25 25 0 01-2.6 11.8c1.1-3.7 2.4-7.3 2.6-11.8zm-3.9 15c-1.1-.2-1.9-1-1.9-1.9.4 1 .7 1.3 1.9 1.9zm-.3-16.7c-4 4.7-5.4 14.5-5.3 19.5.8-5.5 1-12 5.3-19.5zm14.3 1.7c0 4 1.4 8.2 2.5 11.8-1.4-3.2-3.2-8.3-2.5-11.8zm3.8 15c1.3-.6 1.7-1.2 1.9-1.9 0 1.2-1.3 1.8-1.9 1.9zm5.6 2.7a44.2 44.2 0 00-5.2-19.4c3.8 4.4 5.3 13.5 5.2 19.4z"></path></g><g id="lute_burgCOA561" stroke-width=".38"><path d="M115.79 93.4c-2.87-2.92-3.5-6.72-9.55-9.66-6.05-2.93-17.42-.92-19.45-2.97-3.99-4.01-9.45-9.44-9.45-9.44l-2.75 3.28-3.51 2.72s5.47 5.43 9.45 9.44c2.02 2.05.14 13.4 3.02 19.47 2.89 6.08 6.3 6.25 9.6 9.6 7.23 7.32 3.92 9.97 12.14 18.27 8.64 8.7 20.43 7.05 28-.47 7.58-7.5 9.33-19.28.69-28-8.25-8.28-10.96-4.93-18.19-12.25z"></path><path d="M71.27 77.9L78 71.21c1.02-2.84 1.22-6.58-.73-8.53-4.12-4.13-8.55-2.65-12.82 1.58-4.26 4.22-5.78 8.65-1.67 12.79 1.97 1.97 5.67 1.82 8.49.83z"></path><path fill="#333" d="M98.18 112.1c.8 2.12 2.78 3.68 4.39 4.69 3.35 2.03 6.77 5.99 7.13 9.78a22.38 22.38 0 00-5.22-6.41c-2.7-2.08-6.24-5.25-6.3-8.05zm13.95-13.84c3.62 0 6.21 4 8.01 6.35a18.7 18.7 0 006.19 5.17c-7.4-.04-10.33-10.2-14.2-11.52zm1.9 11.92c-3.8-4.19-5.03-8.84-5.03-8.84l-3.9 3.87-3.9 3.86s4.64 1.25 8.8 5.09c4.17 3.83 7.29 10.28 7.29 10.28s2.96-.97 4.45-2.45c1.49-1.47 2.49-4.43 2.49-4.43s-6.4-3.19-10.2-7.38zm-20.83-8.5l8.42-8.35 1 1-8.42 8.36z"></path><path d="M68.42 72.14c.1 0 .2.02.28.1l37.5 37.67 26 24.8c.14.12.14.33.02.46a.32.32 0 01-.47.01l-26.01-24.8-37.5-37.67a.33.33 0 010-.47.28.28 0 01.18-.1zm-1.4-4.24c.1 0 .2.02.28.1l65.63 66c.12.13.12.34 0 .47a.33.33 0 01-.46 0L66.85 68.46a.33.33 0 010-.47c.04-.05.1-.07.17-.08zm5.57.1c.1 0 .21.02.29.1l37.5 37.67 24.6 26.21c.12.14.11.34-.01.46a.33.33 0 01-.47 0l-24.58-26.22-37.5-37.66a.33.33 0 010-.47c.03-.05.1-.07.17-.08zm-4.24-1.42c.1-.01.22.01.29.09l65.63 66.01c.12.13.12.34 0 .46a.33.33 0 01-.47 0l-65.61-66a.33.33 0 010-.47c.04-.05.1-.08.16-.09z"></path><g fill="#333" stroke-width="3" transform="matrix(.125 0 0 .125 128.35 16.08)"><circle cx="-487.6" cy="459.6" r="12"></circle><circle cx="-500.6" cy="423.8" r="12"></circle><circle cx="-437.2" cy="409.6" r="12"></circle><circle cx="-472.9" cy="396.3" r="12"></circle></g></g><g id="hand_burgCOA561" stroke-width=".6"><path d="M84.46 131.34c-1.56-1.7-5.82-8.28-5.82-19.2 0-5.36.24-7.48.44-12.96l.06-1.38c.14-2.86.24-4.94.16-6.54-.54-.8.2-6.32.46-7.94-.38-1.18.54-5.42.54-5.42s.68-4.08 2.92-4.1c2.2-.04 2.82 2.54 2.84 3.58l.04 5.6c.02 2.58.04 5.26.12 6.84.2 3.94 1.08 5.86 1.08 5.86l.34-9.7c-.4-1.54.36-8.26.62-10.58-.32-.8.36-5.78.34-6.5 0-.72.4-4.58 3.24-4.62 2.04-.02 2.92 2.4 2.84 3.44.1 3.04.32 11.28.34 14.68.02 3.44.48 11.32 1.26 11.54 0-6.12.54-10.52.54-10.52s-.1-.36-.1-.98c.02-2.46.2-8.84.42-10.74-.26-2.22.24-5.96.2-6.28-.04-.32.36-4.38 2.92-4.38 3.04 0 3.34 3.6 3.34 3.6l.42 11.68.72 9.7s-.54 8.1.5 8.1c.46 0 1.06-7.58 1.26-8.8-.38-1.3.4-9.04.36-9.5-.4-1.18-.2-6.16-.2-6.92 0-.76.3-3.94 3.04-3.94 2.68 0 3.16 3.96 3.16 3.96s1.3 6.84 1.24 12.6c-.04 4.86-.3 8.88-.44 14.02-.1 3.9-.32 9-.44 11.78.34-.2.76-1.06.88-2.2-.26-.66.18-5.94.42-6.82-.66-3.28 2.6-9.14 2.6-9.14s.92-1.72 3.16-1.54c2.24.18 2.24 2.32 2.24 2.32s-.72 3.54-.72 4.9c0 .68.82 7.98.82 7.98l-.96 6.94c-.38 2.62-.64 5.86-1.52 7.22-3.06 5.16-5.98 10.34-9.08 12.18-1.06 2.5.2 6.52.4 8.16 0 1.76-1.32 2.22-2.62 2.22-2.34.02-6.08-.36-10-.36-3.66-.02-7.48.36-10.4.46-1.98 0-4.34-.5-4.34-3 .12-.82.36-4 .36-5.3z"></path><g fill="#000" stroke="none"><path d="M265.5 273.4c-5.7 2.9-12.5 3.2-18.7 2 0-5.3 5.1-.6 8.2-1.2 3.5.6 7.1-.3 10.5-.8zm-1.9 48.7c-6 2.3-12.9 2.5-19 .6 1-5.9 8 1.3 12.1-.2 2.3.3 4.6-.2 6.9-.4zm-38.1-7.9c-5.3 4.4-13.6 4.4-19.4.8 6.5-.5 12.9-.2 19.4-.8zm-.9-56c-5.3 4.4-13.6 4.4-19.4.8 6.5-.5 12.9-.2 19.4-.8zm-45.2 17.6c-4.7 4.5-12.9 4.7-18.2 1.1 6-.6 12.2-.8 18.2-1.1zm-2.7 49.9c-4.7 4.5-12.9 4.7-18.2 1.1 6-.6 12.2-.8 18.2-1.1zm-42.4-15.5c-4.4 4.2-12.1 4.7-17 1 5.7-.3 11.4-.8 17-1zm2 40.6c-4.5 4.7-12.4 5.1-17.8 1.7 5.9-.7 11.9-.7 17.8-1.7zm95.3 49.9c-14.2 2.9-27.6 8.6-41.2 13.4-15.1 6.3-31.3 11.6-43.9 22.5-.2-.9 8.1-8.8 12.2-10.8 19.9-11.8 42.1-19.8 64.7-24.4 2.7-.4 5.4-1 8.2-.7zm-5.8 57.5c-15 14.9-28 35.3-25.2 57.2.8 7.9 3.9 15.3 7.7 22.2-11.4-13.3-14-32.8-6.9-48.8 5-12.3 14.1-22.4 24.4-30.6z" transform="matrix(.2 0 0 .2 57.5 21.1)"></path><path d="M202.4 590.8l-3-.2 2.7-20.1z" transform="matrix(.2 0 0 .2 57.5 21.1)"></path><path d="M248.8 548.2c6.7-1.4 13-4.3 18.6-8.2 2.2 2.1 1.2 3.3-1.4 3.9-5.4 2.4-11.3 3.7-17.2 4.3zm-81.4 6.5c-9 2-18.6 3.2-27.7.9-2-.6-4-1.4-5.7-2.7 1.2-2.2 2.4-2.6 4.2-.7 8.9 4.4 19.6 3.6 29.2 2.5zm75.1-103.1c6.3-6.9 15.9-10.7 25.3-10.3 1.9.2-3.2 1.3-4.3 1.9-7 2.6-14.2 5-21 8.3z" transform="matrix(.2 0 0 .2 57.5 21.1)"></path><path d="M224.1 367.1c7.3-4 16.4-2.7 24-.2 1.7.5 8 4.2 5 3.4-8.5-1.9-17.2-3.1-25.9-3.4-1 .1-2.1.1-3.1.2zm79.4 24.8c-6.6 1-14 .1-19-4.6 1.6-2.2 2.9-1.9 4.4.2 4.1 3.2 9.5 4.4 14.6 4.4zm-2 35.2c-6.7 1.8-15 .5-19.2-5.6 2.7-2.7 3.6.1 5.5 2 3.8 3.2 8.9 4 13.7 3.6zm-122.9-58.2c6.6-5.1 15.8-5.3 23.7-3.7 2.1.4 5.9 1.9 6.5 2.6-9.5-.8-19.1-1-28.5.7-.6.1-1.1.3-1.7.4zm-45 17.2c4.8-7.1 13.1-11.3 21.1-13.7 3-.8 6.3-1.2 9.4-.3-8.1 1.4-15.2 5.9-22.5 9.5-2.6 1.5-5.4 2.7-7.7 4.6z" transform="matrix(.2 0 0 .2 57.5 21.1)"></path></g><path fill="none" d="M113.66 106.84s-.72 1.34-.96 2.78"></path><path stroke-width=".4" d="M121.92 94.9c0-1.36.84-5.44.84-5.44s-1.28-.22-1.28 1.26.44 4.86.44 4.18z"></path></g><g id="estoile_burgCOA561"><path stroke-width=".5" d="M100 60.4c-.1 3 .4 6.1-2.3 8.5-2.9 2.7-2.6 5.9-2.3 8.5.5 3.1.5 6.1-2.3 8.5-.5.4-.9.8-1.2 1.2-.1-.1-.3-.2-.4-.3-2.6-2.2-4.9-3.1-8.6-2.2-3.3.7-6.1-.3-8.6-2.2-2.3-1.9-4.9-3-8.6-2.3 2.6 1.6 5.5 2.8 6.2 6.3.9 3.8 3.8 5.2 6.2 6.3 2.9 1.1 5.5 2.6 6.2 6.3.1.6.2 1.2.4 1.7-.1.1-.3.1-.4.2-3.3 1.2-5.2 2.7-6.2 6.3-1 3.2-3.3 5.1-6.2 6.3-2.7 1-5 2.8-6.2 6.3 2.6-1.5 5.1-3.4 8.6-2.2 3.7 1.2 6.4-.7 8.6-2.2 2.4-2 5-3.5 8.6-2.3.6.2 1.1.4 1.7.5v.5c-.6 3.4-.2 5.8 2.3 8.5 2.3 2.5 2.8 5.4 2.3 8.5-.5 2.9-.1 5.8 2.3 8.5.1-3-.4-6.1 2.3-8.5 2.9-2.7 2.6-5.9 2.3-8.5-.5-3.1-.5-6.1 2.3-8.5.5-.4.9-.8 1.2-1.2.1.1.2.2.4.3 2.6 2.2 4.9 3.1 8.6 2.3 3.3-.7 6.1.3 8.6 2.2 2.3 1.9 4.9 2.9 8.6 2.2-2.6-1.6-5.5-2.8-6.2-6.3-.9-3.8-3.8-5.2-6.2-6.3-2.9-1.1-5.5-2.6-6.2-6.3-.1-.6-.2-1.2-.4-1.7.1-.1.3-.1.4-.2 3.3-1.2 5.2-2.7 6.2-6.3 1-3.2 3.3-5.1 6.2-6.3 2.7-1 5-2.8 6.2-6.3-2.6 1.5-5.1 3.4-8.6 2.3-3.7-1.2-6.4.7-8.6 2.2-2.4 2-5 3.5-8.6 2.2-.6-.2-1.1-.4-1.7-.5.1-.1.1-.2.1-.4.6-3.4.2-5.8-2.3-8.5-2.3-2.5-2.8-5.4-2.3-8.5.5-2.9.1-5.8-2.3-8.5z"></path><g stroke-width=".2"><path d="M100 60c.7 2.3 2.4 3.7 0 10-1.7 3.9-1 7 0 10 1 2.6 3.1 5.9 0 10-2 3.3-.7 6.6 0 10"></path><path d="M100.1 139.7c-.7-2.3-2.4-3.7 0-10 1.7-3.9 1-7 0-10-1-2.6-3.1-5.9 0-10 2-3.3.7-6.6 0-10"></path><path d="M65.5 80c2.3.6 4.4-.2 8.6 5 2.5 3.4 5.5 4.4 8.6 5 2.7.5 6.7.2 8.6 5 1.9 3.4 5.4 4 8.6 5"></path><path d="M65.5 119.8c1.6-1.7 2-3.9 8.6-5 4.2-.5 6.6-2.6 8.6-5 1.8-2.1 3.5-5.7 8.6-5 3.9.1 6.1-2.7 8.6-5"></path><path d="M134.5 79.9c-1.6 1.7-2 3.9-8.6 5-4.2.5-6.6 2.6-8.6 5-1.8 2.1-3.5 5.7-8.6 5-3.9-.1-6.1 2.7-8.6 5"></path><path d="M134.6 119.8c-2.3-.6-4.4.2-8.6-5-2.5-3.4-5.5-4.4-8.6-5-2.7-.5-6.7-.2-8.6-5-1.9-3.4-5.4-4-8.6-5"></path><path d="M100 99.9c-3.4-2.6-7.8-10.6-8.2-12.9"></path><path d="M100 99.9c.5-4.2 5.2-12.1 7-13.6"></path><path d="M100 99.9c3.4 2.5 7.9 10.5 8.3 12.8"></path><path d="M100 99.9c3.9-1.7 13.1-1.6 15.2-.8"></path><path d="M100 99.9c-.5 4.2-5.2 12.1-7 13.6"></path><path d="M100 99.9c-3.9 1.7-13.1 1.6-15.2.8"></path></g></g><radialGradient id="backlight_burgCOA561" cx="100%" cy="100%" r="150%"><stop stop-color="#fff" stop-opacity=".3" offset="0"></stop><stop stop-color="#fff" stop-opacity=".15" offset=".25"></stop><stop stop-color="#000" stop-opacity="0" offset="1"></stop></radialGradient></defs>
        <g clip-path="url(#boeotian_burgCOA561)"><rect x="0" y="0" width="200" height="200" fill="#fafafa"></rect><g clip-path="url(#divisionClip_burgCOA561)"><rect x="0" y="0" width="200" height="200" fill="#522d5b"></rect></g><g fill="#377cd7" stroke="#000"><use href="#cancer_burgCOA561" transform="translate(22.500000000000007 17.500000000000007) scale(0.44999999999999996)"></use></g><g fill="#ffe066" stroke="#000"><use href="#lute_burgCOA561" transform="translate(87.5 17.500000000000007) scale(0.44999999999999996)"></use></g><g fill="#fafafa" stroke="#000"><use href="#hand_burgCOA561" transform="translate(22.500000000000007 92.5) scale(0.44999999999999996)"></use></g><g fill="#522d5b" stroke="#000"><use href="#estoile_burgCOA561" transform="translate(87.5 92.5) scale(0.44999999999999996)"></use></g></g>
        <path d="M150 115c-5 0-10-5-10-15s5-15 10-15c10 0 7 10 15 10 10 0 0-30 0-30-10-25-30-55-65-55S45 40 35 65c0 0-10 30 0 30 8 0 5-10 15-10 5 0 10 5 10 15s-5 15-10 15c-10 0-7-10-15-10-10 0 0 30 0 30 10 25 30 55 65 55s55-30 65-55c0 0 10-30 0-30-8 0-5 10-15 10z" fill="url(#backlight_burgCOA561)" stroke="#333"></path></svg>