<svg xmlns="http://www.w3.org/2000/svg" id="burgCOA736" width="200" height="200" viewBox="0 10 200 200">
        <defs><clipPath id="spanish_burgCOA736"><path d="m25,25 h150 v100 a75,75,0,0,1,-150,0 z"></path></clipPath><g id="crossBiparted_burgCOA736" stroke-width=".5"><path d="m 90,60 10,10 10,-10 v 30 h 30 l -10,10 10,10 h -30 v 30 L 100,130 90,140 V 110 H 60 L 70,100 60,90 h 30 z"></path></g><radialGradient id="backlight_burgCOA736" cx="100%" cy="100%" r="150%"><stop stop-color="#fff" stop-opacity=".3" offset="0"></stop><stop stop-color="#fff" stop-opacity=".15" offset=".25"></stop><stop stop-color="#000" stop-opacity="0" offset="1"></stop></radialGradient></defs>
        <g clip-path="url(#spanish_burgCOA736)"><rect x="0" y="0" width="200" height="200" fill="#fafafa"></rect><g fill="#333333" stroke="none"><polygon points="0,125 100,60 200,125 200,165 100,100 0,165"></polygon></g><g fill="#333333" stroke="#000"><use href="#crossBiparted_burgCOA736" transform="translate(6.25 0) scale(0.5)"></use><use href="#crossBiparted_burgCOA736" transform="translate(93.75 0) scale(0.5)"></use><use href="#crossBiparted_burgCOA736" transform="translate(50 100) scale(0.5)"></use></g></g>
        <path d="m25,25 h150 v100 a75,75,0,0,1,-150,0 z" fill="url(#backlight_burgCOA736)" stroke="#333"></path></svg>