<svg xmlns="http://www.w3.org/2000/svg" id="burgCOA555" width="200" height="200" viewBox="0 5 200 200">
        <defs><clipPath id="renaissance_burgCOA555"><path d="M 25,33.9 C 33.4,50.3 36.2,72.9 36.2,81.7 36.2,109.9 25,122.6 25,141 c 0,29.4 24.9,44.1 40.2,47.7 15.3,3.7 29.3,0 34.8,11.3 5.5,-11.3 19.6,-7.6 34.8,-11.3 C 150.1,185 175,170.3 175,141 c 0,-18.4 -11.2,-31.1 -11.2,-59.3 0,-8.8 2.8,-31.3 11.2,-47.7 L 155.7,14.4 C 138.2,21.8 119.3,25.7 100,25.7 c -19.3,0 -38.2,-3.9 -55.7,-11.3 z"></path></clipPath><clipPath id="divisionClip_burgCOA555"><rect x="15" y="115" width="200" height="200" transform="translate(70 70) rotate(45 100 100)"></rect><path d="m 13.1,89.8 c -4.1,0 -7.3,2 -7.3,4.5 0,1.2 0.7,2.3 1.8,3.1 1.2,0.7 1.9,1.8 1.9,3 0,2.5 -3.2,4.5 -7.3,4.5 -0.5,0 -2.2,-0.2 -2.2,-0.2 V 115 h 200 v -10.1 c -3.7,-0.2 -6.7,-2.2 -6.7,-4.5 0,-1.2 0.7,-2.3 1.9,-3 1.2,-0.8 1.8,-1.9 1.8,-3.1 0,-2.5 -3.2,-4.5 -7.2,-4.5 -4.1,0 -7.3,2 -7.3,4.5 0,1.2 0.7,2.3 1.8,3.1 1.2,0.7 1.9,1.8 1.9,3 0,2.5 -3.3,4.5 -7.3,4.5 -4,0 -7.3,-2 -7.3,-4.5 0,-1.2 0.7,-2.3 1.9,-3 1.2,-0.8 1.8,-1.9 1.8,-3.1 0,-2.5 -3.2,-4.5 -7.2,-4.5 -4.1,0 -7.3,2 -7.3,4.5 0,1.2 0.7,2.3 1.8,3.1 1.2,0.7 1.9,1.8 1.9,3 -1.5,4.1 -4.2,4.4 -8.8,4.5 -4.7,-0.1 -8.7,-1.5 -8.9,-4.5 0,-1.2 0.7,-2.3 1.9,-3 1.2,-0.8 1.9,-1.9 1.9,-3.1 0,-2.5 -3.3,-4.5 -7.3,-4.5 -4.1,0 -7.3,2 -7.3,4.5 0,1.2 0.7,2.3 1.8,3.1 1.2,0.7 1.9,1.8 1.9,3 0,2.5 -3.3,4.5 -7.3,4.5 -4,0 -7.3,-2 -7.3,-4.5 0,-1.2 0.7,-2.3 1.9,-3 1.2,-0.8 1.9,-1.9 1.9,-3.1 0,-2.5 -3.3,-4.5 -7.3,-4.5 -4.1,0 -7.3,2 -7.3,4.5 0,1.2 0.7,2.3 1.8,3.1 1.2,0.7 1.9,1.8 1.9,3 0,2.5 -3.3,4.5 -7.3,4.5 -4,0 -7.3,-2 -7.3,-4.5 0,-1.2 0.7,-2.3 1.9,-3 1.2,-0.8 1.9,-1.9 1.9,-3.1 0,-2.5 -3.3,-4.5 -7.3,-4.5 -4.1,0 -7.3,2 -7.3,4.5 0,1.2 0.7,2.3 1.8,3.1 1.2,0.7 1.9,1.8 1.9,3 0,2.5 -3.3,4.5 -7.3,4.5 -4,0 -7.3,-2 -7.3,-4.5 0,-1.2 0.7,-2.3 1.9,-3 1.2,-0.8 1.9,-1.9 1.9,-3.1 0,-2.5 -3.3,-4.5 -7.3,-4.5 -4.1,0 -7.3,2 -7.3,4.5 0,1.2 0.7,2.3 1.8,3.1 1.2,0.7 1.9,1.8 1.9,3 0,2.5 -3.3,4.5 -7.3,4.5 -4,0 -7.3,-2 -7.3,-4.5 0,-1.2 0.7,-2.3 1.9,-3 1.2,-0.8 1.9,-1.9 1.9,-3.1 0,-2.5 -3.3,-4.5 -7.3,-4.5 -4.1,0 -7.3,2 -7.3,4.5 0,1.2 0.7,2.3 1.8,3.1 1.2,0.7 1.9,1.8 1.9,3 0,2.5 -3.3,4.5 -7.3,4.5 -4,0 -7.3,-2 -7.3,-4.5 0,-1.2 0.7,-2.3 1.9,-3 1.2,-0.8 1.9,-1.9 1.9,-3.1 0,-2.5 -3.3,-4.5 -7.3,-4.5 -4.1,0 -7.3,2 -7.3,4.5 0,1.2 0.7,2.3 1.8,3.1 1.2,0.7 1.9,1.8 1.9,3 0,2.5 -3.3,4.5 -7.3,4.5 -4,0 -7.3,-2 -7.3,-4.5 0,-1.2 0.7,-2.3 1.9,-3 1.2,-0.8 1.9,-1.9 1.9,-3.1 0,-2.5 -3.3,-4.5 -7.3,-4.5 z" transform="translate(129 71) rotate(-45 -100 100) scale(-1 1)"></path><path d="m 13.1,89.8 c -4.1,0 -7.3,2 -7.3,4.5 0,1.2 0.7,2.3 1.8,3.1 1.2,0.7 1.9,1.8 1.9,3 0,2.5 -3.2,4.5 -7.3,4.5 -0.5,0 -2.2,-0.2 -2.2,-0.2 V 115 h 200 v -10.1 c -3.7,-0.2 -6.7,-2.2 -6.7,-4.5 0,-1.2 0.7,-2.3 1.9,-3 1.2,-0.8 1.8,-1.9 1.8,-3.1 0,-2.5 -3.2,-4.5 -7.2,-4.5 -4.1,0 -7.3,2 -7.3,4.5 0,1.2 0.7,2.3 1.8,3.1 1.2,0.7 1.9,1.8 1.9,3 0,2.5 -3.3,4.5 -7.3,4.5 -4,0 -7.3,-2 -7.3,-4.5 0,-1.2 0.7,-2.3 1.9,-3 1.2,-0.8 1.8,-1.9 1.8,-3.1 0,-2.5 -3.2,-4.5 -7.2,-4.5 -4.1,0 -7.3,2 -7.3,4.5 0,1.2 0.7,2.3 1.8,3.1 1.2,0.7 1.9,1.8 1.9,3 -1.5,4.1 -4.2,4.4 -8.8,4.5 -4.7,-0.1 -8.7,-1.5 -8.9,-4.5 0,-1.2 0.7,-2.3 1.9,-3 1.2,-0.8 1.9,-1.9 1.9,-3.1 0,-2.5 -3.3,-4.5 -7.3,-4.5 -4.1,0 -7.3,2 -7.3,4.5 0,1.2 0.7,2.3 1.8,3.1 1.2,0.7 1.9,1.8 1.9,3 0,2.5 -3.3,4.5 -7.3,4.5 -4,0 -7.3,-2 -7.3,-4.5 0,-1.2 0.7,-2.3 1.9,-3 1.2,-0.8 1.9,-1.9 1.9,-3.1 0,-2.5 -3.3,-4.5 -7.3,-4.5 -4.1,0 -7.3,2 -7.3,4.5 0,1.2 0.7,2.3 1.8,3.1 1.2,0.7 1.9,1.8 1.9,3 0,2.5 -3.3,4.5 -7.3,4.5 -4,0 -7.3,-2 -7.3,-4.5 0,-1.2 0.7,-2.3 1.9,-3 1.2,-0.8 1.9,-1.9 1.9,-3.1 0,-2.5 -3.3,-4.5 -7.3,-4.5 -4.1,0 -7.3,2 -7.3,4.5 0,1.2 0.7,2.3 1.8,3.1 1.2,0.7 1.9,1.8 1.9,3 0,2.5 -3.3,4.5 -7.3,4.5 -4,0 -7.3,-2 -7.3,-4.5 0,-1.2 0.7,-2.3 1.9,-3 1.2,-0.8 1.9,-1.9 1.9,-3.1 0,-2.5 -3.3,-4.5 -7.3,-4.5 -4.1,0 -7.3,2 -7.3,4.5 0,1.2 0.7,2.3 1.8,3.1 1.2,0.7 1.9,1.8 1.9,3 0,2.5 -3.3,4.5 -7.3,4.5 -4,0 -7.3,-2 -7.3,-4.5 0,-1.2 0.7,-2.3 1.9,-3 1.2,-0.8 1.9,-1.9 1.9,-3.1 0,-2.5 -3.3,-4.5 -7.3,-4.5 -4.1,0 -7.3,2 -7.3,4.5 0,1.2 0.7,2.3 1.8,3.1 1.2,0.7 1.9,1.8 1.9,3 0,2.5 -3.3,4.5 -7.3,4.5 -4,0 -7.3,-2 -7.3,-4.5 0,-1.2 0.7,-2.3 1.9,-3 1.2,-0.8 1.9,-1.9 1.9,-3.1 0,-2.5 -3.3,-4.5 -7.3,-4.5 -4.1,0 -7.3,2 -7.3,4.5 0,1.2 0.7,2.3 1.8,3.1 1.2,0.7 1.9,1.8 1.9,3 0,2.5 -3.3,4.5 -7.3,4.5 -4,0 -7.3,-2 -7.3,-4.5 0,-1.2 0.7,-2.3 1.9,-3 1.2,-0.8 1.9,-1.9 1.9,-3.1 0,-2.5 -3.3,-4.5 -7.3,-4.5 z" transform="translate(71 71) rotate(45 100 100)"></path></clipPath><radialGradient id="backlight_burgCOA555" cx="100%" cy="100%" r="150%"><stop stop-color="#fff" stop-opacity=".3" offset="0"></stop><stop stop-color="#fff" stop-opacity=".15" offset=".25"></stop><stop stop-color="#000" stop-opacity="0" offset="1"></stop></radialGradient></defs>
        <g clip-path="url(#renaissance_burgCOA555)"><rect x="0" y="0" width="200" height="200" fill="#377cd7"></rect><g clip-path="url(#divisionClip_burgCOA555)"><rect x="0" y="0" width="200" height="200" fill="#fafafa"></rect></g></g>
        <path d="M 25,33.9 C 33.4,50.3 36.2,72.9 36.2,81.7 36.2,109.9 25,122.6 25,141 c 0,29.4 24.9,44.1 40.2,47.7 15.3,3.7 29.3,0 34.8,11.3 5.5,-11.3 19.6,-7.6 34.8,-11.3 C 150.1,185 175,170.3 175,141 c 0,-18.4 -11.2,-31.1 -11.2,-59.3 0,-8.8 2.8,-31.3 11.2,-47.7 L 155.7,14.4 C 138.2,21.8 119.3,25.7 100,25.7 c -19.3,0 -38.2,-3.9 -55.7,-11.3 z" fill="url(#backlight_burgCOA555)" stroke="#333"></path></svg>