<svg xmlns="http://www.w3.org/2000/svg" id="burgCOA301" width="200" height="200" viewBox="0 10 200 200">
        <defs><clipPath id="french_burgCOA301"><path d="m 25,25 h 150 v 139.15 c 0,41.745 -66,18.15 -75,36.3 -9,-18.15 -75,5.445 -75,-36.3 v 0 z"></path></clipPath><clipPath id="divisionClip_burgCOA301"><path d="M0,80 100,-15 200,80 200,120 100,25 0,120z M0,160 100,65 200,160 200,200 100,105 0,200z M0,240 100,145 200,240 0,240z"></path></clipPath><radialGradient id="backlight_burgCOA301" cx="100%" cy="100%" r="150%"><stop stop-color="#fff" stop-opacity=".3" offset="0"></stop><stop stop-color="#fff" stop-opacity=".15" offset=".25"></stop><stop stop-color="#000" stop-opacity="0" offset="1"></stop></radialGradient></defs>
        <g clip-path="url(#french_burgCOA301)"><rect x="0" y="0" width="200" height="200" fill="#fafafa"></rect><g fill="#522d5b" stroke="none"><path d="M0,200 Q80,180 100,135 Q120,180 200,200"></path></g><g clip-path="url(#divisionClip_burgCOA301)"><rect x="0" y="0" width="200" height="200" fill="#522d5b"></rect><g fill="#fafafa" stroke="none"><path d="M0,200 Q80,180 100,135 Q120,180 200,200"></path></g></g></g>
        <path d="m 25,25 h 150 v 139.15 c 0,41.745 -66,18.15 -75,36.3 -9,-18.15 -75,5.445 -75,-36.3 v 0 z" fill="url(#backlight_burgCOA301)" stroke="#333"></path></svg>