<svg xmlns="http://www.w3.org/2000/svg" id="burgCOA471" width="200" height="200" viewBox="0 5 200 200">
        <defs><clipPath id="renaissance_burgCOA471"><path d="M 25,33.9 C 33.4,50.3 36.2,72.9 36.2,81.7 36.2,109.9 25,122.6 25,141 c 0,29.4 24.9,44.1 40.2,47.7 15.3,3.7 29.3,0 34.8,11.3 5.5,-11.3 19.6,-7.6 34.8,-11.3 C 150.1,185 175,170.3 175,141 c 0,-18.4 -11.2,-31.1 -11.2,-59.3 0,-8.8 2.8,-31.3 11.2,-47.7 L 155.7,14.4 C 138.2,21.8 119.3,25.7 100,25.7 c -19.3,0 -38.2,-3.9 -55.7,-11.3 z"></path></clipPath><g id="anvil_burgCOA471" stroke-width=".5">
  <path d="m 111,116 6,5 v 9 c 0,0 0,1 -1,1 h -11 v -1 c -1,-1 -5.1,-4 -10,-4 -5,0 -10,3 -11,4 0,1 -0.5,1 -0.5,1 h -10 c -0.5,0 -1,-1 -1,-1 v -9 l 5.1,-5 7.9,-3 c 1.2,-2 1,-3 1,-6 0,-11 -12,-15 -22,-16 C 63,91 62,89.4 62,87.9 v -6.2 c 0,-0.9 0.5,-1.5 1.6,-1.5 H 108 c 1,0 2,0.6 2,1.5 v 0.6 c 0,1 0,1.5 1,1.5 h 2 c 1,0 1,0 1,0.5 v 1 c 4,0 26,0 26,0.6 0,5.6 -7,13 -18,14 -10,2.1 -19,3.1 -19,10.1 0,4 4,4 8,6 z"></path>
    <g fill="#000" stroke="none">
    <path d="m 107,87 c 0,-2.2 -1,-3.6 -3,-3.6 H 86 v 16.5 c -0.6,-1.6 -0.6,-3 -0.6,-4 v -13 H 104 c 3,0.1 3,2 3,4.1 z"></path>
    <path d="m113 96c0-3-1-8.3 3-8.7l20-.5-20 1c-3 .2-3 5.2-3 8.2z"></path>
    <path d="m105 127c-8-5-14-4-22 0 7-5 16-5 22 0z"></path>
    <path d="m 79,118 c 2.8,-2 6.5,-4 7.2,-7 h 0.4 c -0.3,3 -5,6 -7.6,7 z"></path>
    <path d="m 110,118 c -4,-2 -6,-4 -7,-7 h 0 c 0,3 3,6 7,7 z"></path>
    </g>
  </g><radialGradient id="backlight_burgCOA471" cx="100%" cy="100%" r="150%"><stop stop-color="#fff" stop-opacity=".3" offset="0"></stop><stop stop-color="#fff" stop-opacity=".15" offset=".25"></stop><stop stop-color="#000" stop-opacity="0" offset="1"></stop></radialGradient></defs>
        <g clip-path="url(#renaissance_burgCOA471)"><rect x="0" y="0" width="200" height="200" fill="#522d5b"></rect><g fill="#fafafa" stroke="none"><polygon points="0,125 100,60 200,125 200,165 100,100 0,165"></polygon></g><g fill="#fafafa" stroke="#000"><use href="#anvil_burgCOA471" transform="translate(6.25 0) scale(0.5)"></use><use href="#anvil_burgCOA471" transform="translate(93.75 0) scale(0.5)"></use><use href="#anvil_burgCOA471" transform="translate(50 100) scale(0.5)"></use></g></g>
        <path d="M 25,33.9 C 33.4,50.3 36.2,72.9 36.2,81.7 36.2,109.9 25,122.6 25,141 c 0,29.4 24.9,44.1 40.2,47.7 15.3,3.7 29.3,0 34.8,11.3 5.5,-11.3 19.6,-7.6 34.8,-11.3 C 150.1,185 175,170.3 175,141 c 0,-18.4 -11.2,-31.1 -11.2,-59.3 0,-8.8 2.8,-31.3 11.2,-47.7 L 155.7,14.4 C 138.2,21.8 119.3,25.7 100,25.7 c -19.3,0 -38.2,-3.9 -55.7,-11.3 z" fill="url(#backlight_burgCOA471)" stroke="#333"></path></svg>