<svg xmlns="http://www.w3.org/2000/svg" id="burgCOA177" width="200" height="200" viewBox="0 0 200 200">
        <defs><clipPath id="boeotian_burgCOA177"><path d="M150 115c-5 0-10-5-10-15s5-15 10-15c10 0 7 10 15 10 10 0 0-30 0-30-10-25-30-55-65-55S45 40 35 65c0 0-10 30 0 30 8 0 5-10 15-10 5 0 10 5 10 15s-5 15-10 15c-10 0-7-10-15-10-10 0 0 30 0 30 10 25 30 55 65 55s55-30 65-55c0 0 10-30 0-30-8 0-5 10-15 10z"></path></clipPath><g id="crossSaltire_burgCOA177" stroke-width=".5">
    <path d="m 74,66 -8,8 26,26 -26,26 8,8 26,-26 26,26 8,-8 -26,-26 26,-26 -8,-8 -26,26 z"></path>
  </g><radialGradient id="backlight_burgCOA177" cx="100%" cy="100%" r="150%"><stop stop-color="#fff" stop-opacity=".3" offset="0"></stop><stop stop-color="#fff" stop-opacity=".15" offset=".25"></stop><stop stop-color="#000" stop-opacity="0" offset="1"></stop></radialGradient></defs>
        <g clip-path="url(#boeotian_burgCOA177)"><rect x="0" y="0" width="200" height="200" fill="#ffe066"></rect><g fill="#d7374a" stroke="none"><polygon points="70,0 100,175 130,0"></polygon></g><g fill="#ffe066" stroke="#000"><use href="#crossSaltire_burgCOA177" transform="translate(62.5 15) scale(0.375)"></use></g></g>
        <path d="M150 115c-5 0-10-5-10-15s5-15 10-15c10 0 7 10 15 10 10 0 0-30 0-30-10-25-30-55-65-55S45 40 35 65c0 0-10 30 0 30 8 0 5-10 15-10 5 0 10 5 10 15s-5 15-10 15c-10 0-7-10-15-10-10 0 0 30 0 30 10 25 30 55 65 55s55-30 65-55c0 0 10-30 0-30-8 0-5 10-15 10z" fill="url(#backlight_burgCOA177)" stroke="#333"></path></svg>