<svg xmlns="http://www.w3.org/2000/svg" id="burgCOA673" width="200" height="200" viewBox="0 5 200 200">
        <defs><clipPath id="renaissance_burgCOA673"><path d="M 25,33.9 C 33.4,50.3 36.2,72.9 36.2,81.7 36.2,109.9 25,122.6 25,141 c 0,29.4 24.9,44.1 40.2,47.7 15.3,3.7 29.3,0 34.8,11.3 5.5,-11.3 19.6,-7.6 34.8,-11.3 C 150.1,185 175,170.3 175,141 c 0,-18.4 -11.2,-31.1 -11.2,-59.3 0,-8.8 2.8,-31.3 11.2,-47.7 L 155.7,14.4 C 138.2,21.8 119.3,25.7 100,25.7 c -19.3,0 -38.2,-3.9 -55.7,-11.3 z"></path></clipPath><g id="mulletFaceted_burgCOA673"><path d="M100 60l8.98 27.64h29.06l-23.51 17.08 8.98 27.64L100 115.28l-23.51 17.08 8.98-27.64-23.51-17.08h29.06z"></path><path fill="#000" fill-opacity=".2" stroke-width=".2" d="M100 100V60l8.98 27.64L100 100l38.04-12.36-23.51 17.08L100 100l23.51 32.36L100 115.28V100l-23.51 32.36 8.98-27.64L100 100 61.96 87.64h29.06z"></path></g><radialGradient id="backlight_burgCOA673" cx="100%" cy="100%" r="150%"><stop stop-color="#fff" stop-opacity=".3" offset="0"></stop><stop stop-color="#fff" stop-opacity=".15" offset=".25"></stop><stop stop-color="#000" stop-opacity="0" offset="1"></stop></radialGradient></defs>
        <g clip-path="url(#renaissance_burgCOA673)"><rect x="0" y="0" width="200" height="200" fill="#522d5b"></rect><g fill="#fafafa" stroke="none"><path d="m 200,115 v -15 c -8.9,3.5 -16,3.1 -25,0 -8.9,-3.5 -16,-3.1 -25,0 -8.9,3.5 -16,3.2 -25,0 -8.9,-3.5 -16,-3.2 -25,0 -8.9,3.5 -16,3.1 -25,0 -8.9,-3.5 -16,-3.1 -25,0 -8.9,3.5 -16,3.2 -25,0 -8.9,-3.5 -16,-3.2 -25,0 v 15 z" transform="translate(-22 -12) rotate(-45 110 100) scale(1.1 1)"></path><path d="m 200,115 v -15 c -8.9,3.5 -16,3.1 -25,0 -8.9,-3.5 -16,-3.1 -25,0 -8.9,3.5 -16,3.2 -25,0 -8.9,-3.5 -16,-3.2 -25,0 -8.9,3.5 -16,3.1 -25,0 -8.9,-3.5 -16,-3.1 -25,0 -8.9,3.5 -16,3.2 -25,0 -8.9,-3.5 -16,-3.2 -25,0 v 15 z" transform="translate(2 12) rotate(-225 110 100) scale(1.1 1)"></path><rect x="0" y="94" width="200" height="12" transform="translate(-10 0) rotate(-45 110 100) scale(1.1 1)" stroke="none"></rect></g><g fill="#d7374a" stroke="#000"><use href="#mulletFaceted_burgCOA673" transform="translate(107.5 32.5) scale(0.3)"></use><use href="#mulletFaceted_burgCOA673" transform="translate(70 70) scale(0.3)"></use><use href="#mulletFaceted_burgCOA673" transform="translate(32.5 107.5) scale(0.3)"></use></g></g>
        <path d="M 25,33.9 C 33.4,50.3 36.2,72.9 36.2,81.7 36.2,109.9 25,122.6 25,141 c 0,29.4 24.9,44.1 40.2,47.7 15.3,3.7 29.3,0 34.8,11.3 5.5,-11.3 19.6,-7.6 34.8,-11.3 C 150.1,185 175,170.3 175,141 c 0,-18.4 -11.2,-31.1 -11.2,-59.3 0,-8.8 2.8,-31.3 11.2,-47.7 L 155.7,14.4 C 138.2,21.8 119.3,25.7 100,25.7 c -19.3,0 -38.2,-3.9 -55.7,-11.3 z" fill="url(#backlight_burgCOA673)" stroke="#333"></path></svg>