<svg xmlns="http://www.w3.org/2000/svg" id="burgCOA692" width="200" height="200" viewBox="0 0 200 200">
        <defs><clipPath id="boeotian_burgCOA692"><path d="M150 115c-5 0-10-5-10-15s5-15 10-15c10 0 7 10 15 10 10 0 0-30 0-30-10-25-30-55-65-55S45 40 35 65c0 0-10 30 0 30 8 0 5-10 15-10 5 0 10 5 10 15s-5 15-10 15c-10 0-7-10-15-10-10 0 0 30 0 30 10 25 30 55 65 55s55-30 65-55c0 0 10-30 0-30-8 0-5 10-15 10z"></path></clipPath><clipPath id="divisionClip_burgCOA692"><rect x="100" y="0" width="100" height="92.5"></rect><rect x="0" y="107.5" width="100" height="92.5"></rect><path d="M 180,105 170,95 v 10 L 160,95 v 10 L 150,95 v 10 L 140,95 v 10 L 130,95 v 10 L 120,95 v 10 L 110,95 v 10 L 100,95 v 10 L 90,95 v 10 L 80,95 v 10 L 70,95 v 10 L 60,95 v 10 L 50,95 v 10 L 40,95 v 10 L 30,95 v 10 L 20,95 v 10 L 10,95 v 10 L 0,95 v 20 H 200 V 105 L 190,95 v 10 L 180,95 Z" transform="translate(0 50) scale(.5001)"></path><path d="M 180,105 170,95 v 10 L 160,95 v 10 L 150,95 v 10 L 140,95 v 10 L 130,95 v 10 L 120,95 v 10 L 110,95 v 10 L 100,95 v 10 L 90,95 v 10 L 80,95 v 10 L 70,95 v 10 L 60,95 v 10 L 50,95 v 10 L 40,95 v 10 L 30,95 v 10 L 20,95 v 10 L 10,95 v 10 L 0,95 v 20 H 200 V 105 L 190,95 v 10 L 180,95 Z" transform="translate(200 150) scale(-.5)"></path></clipPath><g id="mullet6Pierced_burgCOA692"><path d="M100 60l7.64 26.77 27-6.77-19.36 20 19.36 20-27-6.77L100 140l-7.64-26.77-27 6.77 19.36-20-19.36-20 27 6.77z M 108,100 a 8,8 0 0 0 -8,-8 8,8 0 0 0 -8,8 8,8 0 0 0 8,8 8,8 0 0 0 8,-8 z"></path></g><radialGradient id="backlight_burgCOA692" cx="100%" cy="100%" r="150%"><stop stop-color="#fff" stop-opacity=".3" offset="0"></stop><stop stop-color="#fff" stop-opacity=".15" offset=".25"></stop><stop stop-color="#000" stop-opacity="0" offset="1"></stop></radialGradient></defs>
        <g clip-path="url(#boeotian_burgCOA692)"><rect x="0" y="0" width="200" height="200" fill="#ffe066"></rect><g fill="#d7374a" stroke="#000"><use href="#mullet6Pierced_burgCOA692" transform="translate(22.500000000000007 17.500000000000007) scale(0.44999999999999996)"></use></g><g clip-path="url(#divisionClip_burgCOA692)"><rect x="0" y="0" width="200" height="200" fill="#d7374a"></rect><g fill="#ffe066" stroke="#000"><use href="#mullet6Pierced_burgCOA692" transform="translate(22.500000000000007 17.500000000000007) scale(0.44999999999999996)"></use></g></g></g>
        <path d="M150 115c-5 0-10-5-10-15s5-15 10-15c10 0 7 10 15 10 10 0 0-30 0-30-10-25-30-55-65-55S45 40 35 65c0 0-10 30 0 30 8 0 5-10 15-10 5 0 10 5 10 15s-5 15-10 15c-10 0-7-10-15-10-10 0 0 30 0 30 10 25 30 55 65 55s55-30 65-55c0 0 10-30 0-30-8 0-5 10-15 10z" fill="url(#backlight_burgCOA692)" stroke="#333"></path></svg>