<svg xmlns="http://www.w3.org/2000/svg" id="burgCOA291" width="200" height="200" viewBox="0 10 200 200">
        <defs><clipPath id="french_burgCOA291"><path d="m 25,25 h 150 v 139.15 c 0,41.745 -66,18.15 -75,36.3 -9,-18.15 -75,5.445 -75,-36.3 v 0 z"></path></clipPath><g id="billet_burgCOA291"><polygon points="80 65 120 65 120 135 80 135"></polygon></g><radialGradient id="backlight_burgCOA291" cx="100%" cy="100%" r="150%"><stop stop-color="#fff" stop-opacity=".3" offset="0"></stop><stop stop-color="#fff" stop-opacity=".15" offset=".25"></stop><stop stop-color="#000" stop-opacity="0" offset="1"></stop></radialGradient></defs>
        <g clip-path="url(#french_burgCOA291)"><rect x="0" y="0" width="200" height="200" fill="#333333"></rect><g fill="#ffe066" stroke="#000"><use href="#billet_burgCOA291" transform="translate(6.25 0) scale(0.5)"></use><use href="#billet_burgCOA291" transform="translate(50 0) scale(0.5)"></use><use href="#billet_burgCOA291" transform="translate(93.75 0) scale(0.5)"></use></g></g>
        <path d="m 25,25 h 150 v 139.15 c 0,41.745 -66,18.15 -75,36.3 -9,-18.15 -75,5.445 -75,-36.3 v 0 z" fill="url(#backlight_burgCOA291)" stroke="#333"></path></svg>