<svg xmlns="http://www.w3.org/2000/svg" id="burgCOA155" width="200" height="200" viewBox="0 0 200 200">
        <defs><clipPath id="pavise_burgCOA155"><path d="M95 7L39.9 37.3a10 10 0 00-5.1 9.5L46 180c.4 5.2 3.7 10 9 10h90c5.3 0 9.6-4.8 10-10l10.6-133.2a10 10 0 00-5-9.5L105 7c-4.2-2.3-6.2-2.3-10 0z"></path></clipPath><g id="crossFormee2_burgCOA155" stroke-width=".5"><path d="m 88,60 c 7,-5 17,-5 24,0 -7,8 -9,30 -7,35 5,2 27,0 35,-7 5,7 5,17 0,24 -8,-7 -30,-9 -35,-7 -2,5 0,27 7,35 -7,5 -17,5 -24,0 7,-8 9,-30 7,-35 -5,-2 -27,0 -35,7 -5,-7 -5,-17 0,-24 8,7 30,9 35,7 2,-5 0,-27 -7,-35 z"></path></g><radialGradient id="backlight_burgCOA155" cx="100%" cy="100%" r="150%"><stop stop-color="#fff" stop-opacity=".3" offset="0"></stop><stop stop-color="#fff" stop-opacity=".15" offset=".25"></stop><stop stop-color="#000" stop-opacity="0" offset="1"></stop></radialGradient></defs>
        <g clip-path="url(#pavise_burgCOA155)"><rect x="0" y="0" width="200" height="200" fill="#fafafa"></rect><g fill="#d7374a" stroke="none"><path d="m 200,100 -7,-5 4,10 -7,-5 -7,5 4,-10 -7,5 -7,-5 4,10 -7,-5 -7,5 4,-10 -7,5 -7,-5 4,10 -7,-5 -7,5 4,-10 -7,5 -7,-5 4,10 -7,-5 -7,5 4,-10 -7,5 -7,-5 4,10 -7,-5 -7,5 4,-10 -7,5 -7,-5 4,10 -7,-5 -7,5 4,-10 -7,5 -7,-5 4,10 -7,-5 -7,5 4,-10 -7,5 -7,-5 4,10 -7,-5 -7,5 4,-10 -7,5 -7,-5 4,10 -7,-5 -7,5 4,-10 -7,5 -7,-5 4,10 -7,-5 -7,5 4,-10 -7,5 v 15 h 200" transform="rotate(-90 100 100) translate(0 -25)"></path><path d="m 200,100 -7,-5 4,10 -7,-5 -7,5 4,-10 -7,5 -7,-5 4,10 -7,-5 -7,5 4,-10 -7,5 -7,-5 4,10 -7,-5 -7,5 4,-10 -7,5 -7,-5 4,10 -7,-5 -7,5 4,-10 -7,5 -7,-5 4,10 -7,-5 -7,5 4,-10 -7,5 -7,-5 4,10 -7,-5 -7,5 4,-10 -7,5 -7,-5 4,10 -7,-5 -7,5 4,-10 -7,5 -7,-5 4,10 -7,-5 -7,5 4,-10 -7,5 -7,-5 4,10 -7,-5 -7,5 4,-10 -7,5 -7,-5 4,10 -7,-5 -7,5 4,-10 -7,5 v 15 h 200" transform="rotate(90 100 100) translate(0 -25)"></path><rect x="88" y="0" width="24" height="200" stroke="none"></rect></g><g fill="#fafafa" stroke="#000"><use href="#crossFormee2_burgCOA155" transform="translate(37 37) scale(0.63)"></use></g></g>
        <path d="M95 7L39.9 37.3a10 10 0 00-5.1 9.5L46 180c.4 5.2 3.7 10 9 10h90c5.3 0 9.6-4.8 10-10l10.6-133.2a10 10 0 00-5-9.5L105 7c-4.2-2.3-6.2-2.3-10 0z" fill="url(#backlight_burgCOA155)" stroke="#333"></path></svg>