<svg xmlns="http://www.w3.org/2000/svg" id="burgCOA233" width="200" height="200" viewBox="0 0 200 200">
        <defs><clipPath id="pavise_burgCOA233"><path d="M95 7L39.9 37.3a10 10 0 00-5.1 9.5L46 180c.4 5.2 3.7 10 9 10h90c5.3 0 9.6-4.8 10-10l10.6-133.2a10 10 0 00-5-9.5L105 7c-4.2-2.3-6.2-2.3-10 0z"></path></clipPath><g id="heart_burgCOA233"><path stroke-width=".5" d="M100 84c-.7-1.1-1.4-2.2-2.4-3.2-6.3-6.8-16.6-6.8-23 0-6.3 6.8-5.4 17.8 1 24.6 6.3 6.8 17.7 12.4 24.2 27 7.3-14.4 18.2-20.2 24.5-27 6.3-6.8 7.3-17.8 1-24.6-6.3-6.8-16.6-6.8-23 0-.9 1-1.6 2.1-2.3 3.2z"></path></g><radialGradient id="backlight_burgCOA233" cx="100%" cy="100%" r="150%"><stop stop-color="#fff" stop-opacity=".3" offset="0"></stop><stop stop-color="#fff" stop-opacity=".15" offset=".25"></stop><stop stop-color="#000" stop-opacity="0" offset="1"></stop></radialGradient></defs>
        <g clip-path="url(#pavise_burgCOA233)"><rect x="0" y="0" width="200" height="200" fill="#333333"></rect><g fill="#fafafa" stroke="none"><polygon points="200,200 200,144 25,25 145,200"></polygon></g><g fill="#333333" stroke="#000"><use href="#heart_burgCOA233" transform="translate(55.00000000000001 55.00000000000001) scale(0.45)"></use><use href="#heart_burgCOA233" transform="translate(85 90) scale(0.45)"></use></g></g>
        <path d="M95 7L39.9 37.3a10 10 0 00-5.1 9.5L46 180c.4 5.2 3.7 10 9 10h90c5.3 0 9.6-4.8 10-10l10.6-133.2a10 10 0 00-5-9.5L105 7c-4.2-2.3-6.2-2.3-10 0z" fill="url(#backlight_burgCOA233)" stroke="#333"></path></svg>