<svg xmlns="http://www.w3.org/2000/svg" id="burgCOA262" width="200" height="200" viewBox="0 10 200 200">
        <defs><clipPath id="spanish_burgCOA262"><path d="m25,25 h150 v100 a75,75,0,0,1,-150,0 z"></path></clipPath><g id="crossDouble_burgCOA262" stroke-width=".5"><path d="m 95,60 h 10 v 20 h 20 v 10 h -20 v 20 h 20 v 10 h -20 v 20 H 95 V 120 H 75 V 110 H 95 V 90 H 75 V 80 h 20 z"></path></g><radialGradient id="backlight_burgCOA262" cx="100%" cy="100%" r="150%"><stop stop-color="#fff" stop-opacity=".3" offset="0"></stop><stop stop-color="#fff" stop-opacity=".15" offset=".25"></stop><stop stop-color="#000" stop-opacity="0" offset="1"></stop></radialGradient></defs>
        <g clip-path="url(#spanish_burgCOA262)"><rect x="0" y="0" width="200" height="200" fill="#d7374a"></rect><g fill="#fafafa" stroke="#000"><use href="#crossDouble_burgCOA262" transform="translate(-7.4999999999999964 -7.4999999999999964) scale(0.7)"></use><use href="#crossDouble_burgCOA262" transform="translate(67.5 -7.4999999999999964) scale(0.7)"></use><use href="#crossDouble_burgCOA262" transform="translate(30.000000000000004 67.5) scale(0.7)"></use></g></g>
        <path d="m25,25 h150 v100 a75,75,0,0,1,-150,0 z" fill="url(#backlight_burgCOA262)" stroke="#333"></path></svg>