<svg xmlns="http://www.w3.org/2000/svg" id="burgCOA203" width="200" height="200" viewBox="0 0 200 200">
        <defs><clipPath id="polish_burgCOA203"><path d="m 90.3,6.3 c -12.7,0 -20.7,10.9 -40.5,14 0,11.8 -4.9,23.5 -11.4,31.1 0,0 12.7,6 12.7,19.3 C 51.1,90.8 30,90.8 30,90.8 c 0,0 -3.6,7.4 -3.6,22.4 0,34.3 23.1,60.2 40.7,68.2 17.6,8 27.7,11.4 32.9,18.6 5.2,-7.3 15.3,-10.7 32.8,-18.6 17.6,-8 40.7,-33.9 40.7,-68.2 0,-15 -3.6,-22.4 -3.6,-22.4 0,0 -21.1,0 -21.1,-20.1 0,-13.3 12.7,-19.3 12.7,-19.3 C 155.1,43.7 150.2,32.1 150.2,20.3 130.4,17.2 122.5,6.3 109.7,6.3 102.5,6.3 100,10 100,10 c 0,0 -2.5,-3.7 -9.7,-3.7 z"></path></clipPath><clipPath id="divisionClip_burgCOA203"><rect x="100" y="0" width="100" height="100"></rect><rect x="0" y="100" width="100" height="100"></rect></clipPath><pattern id="counterVair-argent-vert-smaller" width="0.0625" height="0.125" viewBox="0 0 25 50" stroke="#000" stroke-width=".2"><rect width="25" height="50" fill="#26c061" stroke="none"></rect><path d="m 12.5,0 6.25,6.25 v 12.5 L 25,25 18.75,31.25 v 12.5 L 12.5,50 6.25,43.75 V 31.25 L 0,25 6.25,18.75 V 6.25 Z" fill="#fafafa"></path></pattern><radialGradient id="backlight_burgCOA203" cx="100%" cy="100%" r="150%"><stop stop-color="#fff" stop-opacity=".3" offset="0"></stop><stop stop-color="#fff" stop-opacity=".15" offset=".25"></stop><stop stop-color="#000" stop-opacity="0" offset="1"></stop></radialGradient></defs>
        <g clip-path="url(#polish_burgCOA203)"><rect x="0" y="0" width="200" height="200" fill="url(#counterVair-argent-vert-smaller)"></rect><g clip-path="url(#divisionClip_burgCOA203)"><rect x="0" y="0" width="200" height="200" fill="#333333"></rect></g></g>
        <path d="m 90.3,6.3 c -12.7,0 -20.7,10.9 -40.5,14 0,11.8 -4.9,23.5 -11.4,31.1 0,0 12.7,6 12.7,19.3 C 51.1,90.8 30,90.8 30,90.8 c 0,0 -3.6,7.4 -3.6,22.4 0,34.3 23.1,60.2 40.7,68.2 17.6,8 27.7,11.4 32.9,18.6 5.2,-7.3 15.3,-10.7 32.8,-18.6 17.6,-8 40.7,-33.9 40.7,-68.2 0,-15 -3.6,-22.4 -3.6,-22.4 0,0 -21.1,0 -21.1,-20.1 0,-13.3 12.7,-19.3 12.7,-19.3 C 155.1,43.7 150.2,32.1 150.2,20.3 130.4,17.2 122.5,6.3 109.7,6.3 102.5,6.3 100,10 100,10 c 0,0 -2.5,-3.7 -9.7,-3.7 z" fill="url(#backlight_burgCOA203)" stroke="#333"></path></svg>