<svg xmlns="http://www.w3.org/2000/svg" id="burgCOA650" width="200" height="200" viewBox="0 10 200 200">
        <defs><clipPath id="wedged_burgCOA650"><path d="m 51.2,19 h 96.4 c 3.1,12.7 10.7,20.9 26.5,20.8 C 175.7,94.5 165.3,144.3 100,200 43.5,154.2 22.8,102.8 25.1,39.7 37,38.9 47.1,34.7 51.2,19 Z"></path></clipPath><clipPath id="divisionClip_burgCOA650"><polygon points="0,0 100,100 200,0"></polygon></clipPath><radialGradient id="backlight_burgCOA650" cx="100%" cy="100%" r="150%"><stop stop-color="#fff" stop-opacity=".3" offset="0"></stop><stop stop-color="#fff" stop-opacity=".15" offset=".25"></stop><stop stop-color="#000" stop-opacity="0" offset="1"></stop></radialGradient></defs>
        <g clip-path="url(#wedged_burgCOA650)"><rect x="0" y="0" width="200" height="200" fill="#fafafa"></rect><g clip-path="url(#divisionClip_burgCOA650)"><rect x="0" y="0" width="200" height="200" fill="#d7374a"></rect></g></g>
        <path d="m 51.2,19 h 96.4 c 3.1,12.7 10.7,20.9 26.5,20.8 C 175.7,94.5 165.3,144.3 100,200 43.5,154.2 22.8,102.8 25.1,39.7 37,38.9 47.1,34.7 51.2,19 Z" fill="url(#backlight_burgCOA650)" stroke="#333"></path></svg>