<svg xmlns="http://www.w3.org/2000/svg" id="burgCOA149" width="200" height="200" viewBox="0 0 200 200">
        <defs><clipPath id="pavise_burgCOA149"><path d="M95 7L39.9 37.3a10 10 0 00-5.1 9.5L46 180c.4 5.2 3.7 10 9 10h90c5.3 0 9.6-4.8 10-10l10.6-133.2a10 10 0 00-5-9.5L105 7c-4.2-2.3-6.2-2.3-10 0z"></path></clipPath><g id="mullet7_burgCOA149"><polygon points="100 60 106.63 86.23 131.27 75.06 114.9 96.6 139 108.9 111.95 109.53 117.36 136.04 100 115.28 82.64 136.04 88.05 109.53 61 108.9 85.1 96.6 68.73 75.06 93.37 86.23"></polygon></g><pattern id="bendy-or-sable" width="0.5" height="0.5" viewBox="0 0 100 100"><rect width="100" height="100" fill="#ffe066"></rect><polygon points="0,25 75,100 25,100 0,75" fill="#333333"></polygon><polygon points="25,0 75,0 100,25 100,75" fill="#333333"></polygon></pattern><radialGradient id="backlight_burgCOA149" cx="100%" cy="100%" r="150%"><stop stop-color="#fff" stop-opacity=".3" offset="0"></stop><stop stop-color="#fff" stop-opacity=".15" offset=".25"></stop><stop stop-color="#000" stop-opacity="0" offset="1"></stop></radialGradient></defs>
        <g clip-path="url(#pavise_burgCOA149)"><rect x="0" y="0" width="200" height="200" fill="url(#bendy-or-sable)"></rect><g fill="#522d5b" stroke="none"><polygon points="70,0 100,175 130,0"></polygon></g><g fill="#522d5b" stroke="#000"><use href="#mullet7_burgCOA149" transform="translate(23.999999999999993 11.499999999999993) scale(0.36000000000000004)"></use><use href="#mullet7_burgCOA149" transform="translate(104 11.499999999999993) scale(0.36000000000000004)"></use><use href="#mullet7_burgCOA149" transform="translate(23.999999999999993 63.99999999999999) scale(0.36000000000000004)"></use><use href="#mullet7_burgCOA149" transform="translate(104 63.99999999999999) scale(0.36000000000000004)"></use><use href="#mullet7_burgCOA149" transform="translate(23.999999999999993 116.5) scale(0.36000000000000004)"></use><use href="#mullet7_burgCOA149" transform="translate(104 116.5) scale(0.36000000000000004)"></use></g></g>
        <path d="M95 7L39.9 37.3a10 10 0 00-5.1 9.5L46 180c.4 5.2 3.7 10 9 10h90c5.3 0 9.6-4.8 10-10l10.6-133.2a10 10 0 00-5-9.5L105 7c-4.2-2.3-6.2-2.3-10 0z" fill="url(#backlight_burgCOA149)" stroke="#333"></path></svg>