<svg xmlns="http://www.w3.org/2000/svg" id="burgCOA387" width="200" height="200" viewBox="0 5 200 200">
        <defs><clipPath id="renaissance_burgCOA387"><path d="M 25,33.9 C 33.4,50.3 36.2,72.9 36.2,81.7 36.2,109.9 25,122.6 25,141 c 0,29.4 24.9,44.1 40.2,47.7 15.3,3.7 29.3,0 34.8,11.3 5.5,-11.3 19.6,-7.6 34.8,-11.3 C 150.1,185 175,170.3 175,141 c 0,-18.4 -11.2,-31.1 -11.2,-59.3 0,-8.8 2.8,-31.3 11.2,-47.7 L 155.7,14.4 C 138.2,21.8 119.3,25.7 100,25.7 c -19.3,0 -38.2,-3.9 -55.7,-11.3 z"></path></clipPath><g id="cinquefoil_burgCOA387" stroke-width=".5"><path d="M99.9 61.1c-1.9 0-5 4.5-10.2 6-5.1 1.4-5.2 3.9-5.2 5.2 0 6.2 10.6 9.8 10.6 16.1 0 1-.5 2-1.2 2.5-.8.3-2 .3-3.1-.3-6.1-3.2-4.3-13.2-10.3-16.3-1.2-.6-3.8-1.8-7.7 1.5-4 3.2-9.9 3.4-10.9 4.8-.9 1.5 1.9 6.2.8 10.8-1.2 4.7 1.2 6.1 2.4 6.7 6 3.1 14.8-3.3 20.9-.1 1.1.5 1.8 1.4 1.8 2.2 0 .7-.7 1.6-1.8 2.2-6.1 3.1-14.9-3.3-20.9-.2-1.2.6-3.6 2-2.4 6.7 1.1 4.7-1.7 9.4-.8 10.8 1 1.5 6.9 1.6 10.9 4.9 3.9 3.2 6.5 2.1 7.7 1.4 6-3.1 4.2-13.1 10.3-16.2 1.1-.6 2.3-.7 3.1-.3.7.4 1.2 1.4 1.2 2.5 0 6.3-10.6 9.9-10.6 16.1 0 1.2.1 3.8 5.2 5.2 5.2 1.4 8.3 6 10.2 6 1.9 0 5-4.6 10.1-6 5.1-1.4 5.3-4 5.3-5.2 0-6.2-10.6-9.8-10.6-16.1 0-1.1.5-2.1 1.2-2.5.7-.4 2-.3 3.1.3 6.1 3.1 4.3 13.1 10.3 16.2 1.2.6 3.7 1.8 7.7-1.4 3.9-3.3 9.9-3.4 10.8-4.9 1-1.5-1.9-6.1-.7-10.8 1.2-4.7-1.2-6.1-2.4-6.7-6-3.1-14.8 3.3-21 .2-1-.6-1.7-1.5-1.8-2.2.1-.8.8-1.7 1.8-2.2 6.2-3.2 15 3.2 21 .1 1.2-.6 3.6-2 2.4-6.7-1.2-4.6 1.7-9.3.7-10.8-.9-1.4-6.9-1.6-10.8-4.8-4-3.3-6.5-2.1-7.7-1.5-6 3.1-4.2 13.1-10.3 16.3-1.1.6-2.4.6-3.1.3-.7-.5-1.2-1.5-1.2-2.5 0-6.3 10.6-9.9 10.6-16.1 0-1.3-.1-3.8-5.3-5.2-5.1-1.5-8.2-6-10.1-6zM100 91a9 9 0 010 0 9 9 0 019 9 9 9 0 01-9 9 9 9 0 01-9-9 9 9 0 019-9z"></path><g fill="#000"><path d="M99.8 125l.5-14.4h-.7z"></path><path d="M75.7 112.5l13.9-7.4.3.5z"></path><path d="M89.6 95.2l-13.9-7.4 14.2 6.9z"></path><path d="M99.9 75.4l.3 14.4h-.7z"></path><path d="M124 87.8l-13.9 7.4-.3-.6z"></path><path d="M109.8 105.7l.3-.5 13.9 7.3z"></path></g></g><radialGradient id="backlight_burgCOA387" cx="100%" cy="100%" r="150%"><stop stop-color="#fff" stop-opacity=".3" offset="0"></stop><stop stop-color="#fff" stop-opacity=".15" offset=".25"></stop><stop stop-color="#000" stop-opacity="0" offset="1"></stop></radialGradient></defs>
        <g clip-path="url(#renaissance_burgCOA387)"><rect x="0" y="0" width="200" height="200" fill="#522d5b"></rect><g fill="#fafafa" stroke="#000"><use href="#cinquefoil_burgCOA387" transform="translate(30.000000000000004 -7.4999999999999964) scale(0.7)"></use><use href="#cinquefoil_burgCOA387" transform="translate(30.000000000000004 67.5) scale(0.7)"></use></g></g>
        <path d="M 25,33.9 C 33.4,50.3 36.2,72.9 36.2,81.7 36.2,109.9 25,122.6 25,141 c 0,29.4 24.9,44.1 40.2,47.7 15.3,3.7 29.3,0 34.8,11.3 5.5,-11.3 19.6,-7.6 34.8,-11.3 C 150.1,185 175,170.3 175,141 c 0,-18.4 -11.2,-31.1 -11.2,-59.3 0,-8.8 2.8,-31.3 11.2,-47.7 L 155.7,14.4 C 138.2,21.8 119.3,25.7 100,25.7 c -19.3,0 -38.2,-3.9 -55.7,-11.3 z" fill="url(#backlight_burgCOA387)" stroke="#333"></path></svg>