<svg xmlns="http://www.w3.org/2000/svg" id="burgCOA432" width="200" height="200" viewBox="0 0 200 200">
        <defs><clipPath id="pavise_burgCOA432"><path d="M95 7L39.9 37.3a10 10 0 00-5.1 9.5L46 180c.4 5.2 3.7 10 9 10h90c5.3 0 9.6-4.8 10-10l10.6-133.2a10 10 0 00-5-9.5L105 7c-4.2-2.3-6.2-2.3-10 0z"></path></clipPath><g id="goutte_burgCOA432"><path d="M100 134c17-1 16-19 10-25-1.9-1.8-4.6-5.3-3.9-8.1C108 94 102 90 102 87c-1-7 3-7 3-13-.1-6.2-3.3-8.7-6-12 1.2 3 2 6 1 9-1.5 5.9-6.2 6.9-8 11-2 5 3 11 3 15-.6 9.1-9 13-9 23 .3 11.3 9 14 14 14z"></path></g><radialGradient id="backlight_burgCOA432" cx="100%" cy="100%" r="150%"><stop stop-color="#fff" stop-opacity=".3" offset="0"></stop><stop stop-color="#fff" stop-opacity=".15" offset=".25"></stop><stop stop-color="#000" stop-opacity="0" offset="1"></stop></radialGradient></defs>
        <g clip-path="url(#pavise_burgCOA432)"><rect x="0" y="0" width="200" height="200" fill="#ffe066"></rect><g fill="#333333" stroke="#000"><use href="#goutte_burgCOA432" transform="translate(7 2) scale(0.63)"></use><use href="#goutte_burgCOA432" transform="translate(67 2) scale(0.63)"></use><use href="#goutte_burgCOA432" transform="translate(37 89.5) scale(0.63)"></use></g></g>
        <path d="M95 7L39.9 37.3a10 10 0 00-5.1 9.5L46 180c.4 5.2 3.7 10 9 10h90c5.3 0 9.6-4.8 10-10l10.6-133.2a10 10 0 00-5-9.5L105 7c-4.2-2.3-6.2-2.3-10 0z" fill="url(#backlight_burgCOA432)" stroke="#333"></path></svg>