<svg xmlns="http://www.w3.org/2000/svg" id="burgCOA56" width="200" height="200" viewBox="0 0 200 200">
        <defs><clipPath id="polish_burgCOA56"><path d="m 90.3,6.3 c -12.7,0 -20.7,10.9 -40.5,14 0,11.8 -4.9,23.5 -11.4,31.1 0,0 12.7,6 12.7,19.3 C 51.1,90.8 30,90.8 30,90.8 c 0,0 -3.6,7.4 -3.6,22.4 0,34.3 23.1,60.2 40.7,68.2 17.6,8 27.7,11.4 32.9,18.6 5.2,-7.3 15.3,-10.7 32.8,-18.6 17.6,-8 40.7,-33.9 40.7,-68.2 0,-15 -3.6,-22.4 -3.6,-22.4 0,0 -21.1,0 -21.1,-20.1 0,-13.3 12.7,-19.3 12.7,-19.3 C 155.1,43.7 150.2,32.1 150.2,20.3 130.4,17.2 122.5,6.3 109.7,6.3 102.5,6.3 100,10 100,10 c 0,0 -2.5,-3.7 -9.7,-3.7 z"></path></clipPath><g id="crescent_burgCOA56" stroke-width=".5"><path d="M84 65c-32 15-24 68 16 68s48-53 16-68c18 20 2 41-16 41S67 85 84 65z"></path><path fill="none" d="M84 65c-26 15-14 56 16 56s42-41 16-56"></path></g><radialGradient id="backlight_burgCOA56" cx="100%" cy="100%" r="150%"><stop stop-color="#fff" stop-opacity=".3" offset="0"></stop><stop stop-color="#fff" stop-opacity=".15" offset=".25"></stop><stop stop-color="#000" stop-opacity="0" offset="1"></stop></radialGradient></defs>
        <g clip-path="url(#polish_burgCOA56)"><rect x="0" y="0" width="200" height="200" fill="#d7374a"></rect><g fill="#fafafa" stroke="none"><polygon points="35,0 200,165 200,200 165,200 0,35 0,0"></polygon></g><g fill="#fafafa" stroke="#000"><use href="#crescent_burgCOA56" transform="translate(92.5 7.499999999999993) scale(0.425)"></use><use href="#crescent_burgCOA56" transform="translate(19.999999999999993 107.5) scale(0.425)"></use></g></g>
        <path d="m 90.3,6.3 c -12.7,0 -20.7,10.9 -40.5,14 0,11.8 -4.9,23.5 -11.4,31.1 0,0 12.7,6 12.7,19.3 C 51.1,90.8 30,90.8 30,90.8 c 0,0 -3.6,7.4 -3.6,22.4 0,34.3 23.1,60.2 40.7,68.2 17.6,8 27.7,11.4 32.9,18.6 5.2,-7.3 15.3,-10.7 32.8,-18.6 17.6,-8 40.7,-33.9 40.7,-68.2 0,-15 -3.6,-22.4 -3.6,-22.4 0,0 -21.1,0 -21.1,-20.1 0,-13.3 12.7,-19.3 12.7,-19.3 C 155.1,43.7 150.2,32.1 150.2,20.3 130.4,17.2 122.5,6.3 109.7,6.3 102.5,6.3 100,10 100,10 c 0,0 -2.5,-3.7 -9.7,-3.7 z" fill="url(#backlight_burgCOA56)" stroke="#333"></path></svg>