<svg xmlns="http://www.w3.org/2000/svg" id="burgCOA57" width="200" height="200" viewBox="0 0 200 200">
        <defs><clipPath id="pavise_burgCOA57"><path d="M95 7L39.9 37.3a10 10 0 00-5.1 9.5L46 180c.4 5.2 3.7 10 9 10h90c5.3 0 9.6-4.8 10-10l10.6-133.2a10 10 0 00-5-9.5L105 7c-4.2-2.3-6.2-2.3-10 0z"></path></clipPath><pattern id="barry-vert-argent" width="0.125" height="0.5" viewBox="0 0 25 100"><rect width="25" height="100" fill="#fafafa"></rect><rect x="0" y="25" width="25" height="25" fill="#26c061"></rect><rect x="0" y="75" width="25" height="25" fill="#26c061"></rect></pattern><radialGradient id="backlight_burgCOA57" cx="100%" cy="100%" r="150%"><stop stop-color="#fff" stop-opacity=".3" offset="0"></stop><stop stop-color="#fff" stop-opacity=".15" offset=".25"></stop><stop stop-color="#000" stop-opacity="0" offset="1"></stop></radialGradient></defs>
        <g clip-path="url(#pavise_burgCOA57)"><rect x="0" y="0" width="200" height="200" fill="url(#barry-vert-argent)"></rect><g fill="#ffe066" stroke="none"><polygon points="35,0 200,165 200,200 165,200 0,35 0,0"></polygon></g></g>
        <path d="M95 7L39.9 37.3a10 10 0 00-5.1 9.5L46 180c.4 5.2 3.7 10 9 10h90c5.3 0 9.6-4.8 10-10l10.6-133.2a10 10 0 00-5-9.5L105 7c-4.2-2.3-6.2-2.3-10 0z" fill="url(#backlight_burgCOA57)" stroke="#333"></path></svg>