<svg xmlns="http://www.w3.org/2000/svg" id="burgCOA273" width="200" height="200" viewBox="0 0 200 200">
        <defs><clipPath id="boeotian_burgCOA273"><path d="M150 115c-5 0-10-5-10-15s5-15 10-15c10 0 7 10 15 10 10 0 0-30 0-30-10-25-30-55-65-55S45 40 35 65c0 0-10 30 0 30 8 0 5-10 15-10 5 0 10 5 10 15s-5 15-10 15c-10 0-7-10-15-10-10 0 0 30 0 30 10 25 30 55 65 55s55-30 65-55c0 0 10-30 0-30-8 0-5 10-15 10z"></path></clipPath><clipPath id="divisionClip_burgCOA273"><path d="m 200,115 v -15 c -8.9,3.5 -16,3.1 -25,0 -8.9,-3.5 -16,-3.1 -25,0 -8.9,3.5 -16,3.2 -25,0 -8.9,-3.5 -16,-3.2 -25,0 -8.9,3.5 -16,3.1 -25,0 -8.9,-3.5 -16,-3.1 -25,0 -8.9,3.5 -16,3.2 -25,0 -8.9,-3.5 -16,-3.2 -25,0 v 15 z"></path><rect x="0" y="115" width="200" height="85" shape-rendering="crispedges"></rect></clipPath><g id="foot_burgCOA273" stroke-width="3" transform="translate(43 44) scale(0.14)">
		<path d="M439.2 152.4c0 102.7 32.2 189.6 31.5 228.6-.4 22.6-4.6 43.2-14.1 62-12.3 24.3-45.1 41.2-71.9 50.5-10.3 3.6-25.4 13.8-33.8 20.7-19.7 16.2-36.5 31.8-54.4 39.1-18.3 5.9-33.4 8-51.8 16.6-8.6 4-28.5 14.1-38.6 17.5-14 4.6-36.2.4-49.5.4-5.1.2-8.8 7.2-9.5 8.1-.2.2-.2.4-.3.6-2.4 0-4.2 0-5 .1-1.3-.1-6.5 4.4-5.1 5.6-4.1 22.8-.2 53.1 27 53.1 19.2 0 32.5-1.4 45.6-5.8 11.8-4.4 23.4-9.1 35.3-3.7 11 5.3 37.3 16.1 64.3 15.7 41.5-.4 56.1-6.7 74.1-16.4 15.9-7.4 43.9-16 85.8-16 42.8 0 76.7 19.1 114.4 29 22.5 6 45.6 2.8 60.9-4.8 15.7-7.8 31.1-23.9 35.4-42.2 5.7-23.6-.6-50.9-13.4-71.5-22.4-36.3-36.3-82.5-36.3-136.9 0-52.7 45.8-134.9 45.8-250.4"></path>
		<path d="M439.2 152.4c0-9.4 49-17.1 112.8-17.1s123.7 7.7 123.7 17.1-59.9 17.1-123.7 17.1c-63.8 0-112.8-7.7-112.8-17.1z"></path>
		<path fill="none" d="M220.5 593.3c-12.9 4.4-29.5 4.8-32.6 4.3-3.7-.6-41.4-1.2-46.1-.9"></path>
		<path fill="none" d="M188.4 597.5c0 14.5-29.9 13-38.3 11.8-5.9-.9-4.9-5.7-7.9-12.8"></path>
		<g fill="#000" stroke="none">
			<path d="M282.3 575.5s-.3 0-.7-.1c-.5-.1-1.2-.1-2.1-.1-.9-.1-2 0-3.2.1-.6.1-1.3.1-1.9.2l-2.1.3c-1.5.2-3.1.5-4.8.9-1.7.4-3.5.8-5.3 1.4-3.6 1-7.4 2.4-11.2 3.9-7.5 2.9-14.9 6.4-20.5 8.8-2.8 1.2-5.2 2.2-6.8 2.9-.8.3-1.5.6-2 .7-.5.2-.7.3-.7.3l-1-2.8s.2-.1.7-.2c.4-.1 1.1-.4 1.9-.7 1.6-.6 4-1.5 6.8-2.6 5.6-2.3 13.1-5.5 20.8-8.3 3.8-1.4 7.7-2.6 11.5-3.6 3.7-1 7.3-1.6 10.4-1.9 1.5-.1 3-.1 4.2 0 .6 0 1.2.1 1.7.2.5 0 1 .1 1.5.2.9.1 1.6.3 2 .4.5-.1.8 0 .8 0z"></path>
			<path d="M595 437.1s-.1.1-.2.4c-.1.3-.3.7-.5 1.2-.4 1.1-.9 2.7-1.3 4.7-.4 2.1-.5 4.7-.3 7.6.1 1.5.3 3 .7 4.6.3 1.6.7 3.3 1.3 5 1.2 3.5 2.5 7.2 3.6 11.4 1.1 4.1 2 8.5 2.4 13.2.4 4.7.2 9.6-.9 14.5a33.8 33.8 0 01-6.4 13.7 40 40 0 01-11.5 9.8c-2.2 1.3-4.5 2.2-6.8 3-2.3.8-4.7 1.4-7 1.7a47.22 47.22 0 01-19.6-1c-2-.5-3.8-1.1-5.5-1.8a39.1 39.1 0 01-8.9-4.9c-2.5-1.8-4.4-3.6-5.8-5.2-1.4-1.6-2.3-3.1-2.9-4.1l-.8-1.6.9 1.5c.7.9 1.7 2.3 3.2 3.8 1.5 1.5 3.5 3.2 6 4.7 2.5 1.6 5.5 3 8.9 4.2a48.06 48.06 0 0024.1 1.8c2.2-.4 4.4-1 6.5-1.8 2.1-.8 4.3-1.7 6.2-2.9 4.1-2.3 7.7-5.4 10.6-9.1 2.9-3.7 4.9-8 5.9-12.6 1.1-4.5 1.3-9.2 1.1-13.6-.3-4.5-1-8.8-1.9-12.9-.9-4.1-2.1-7.8-3-11.4-1-3.7-1.3-7-1.4-10.1 0-3 .3-5.7.8-7.8.5-2.1 1.2-3.7 1.7-4.7.2-.5.5-.9.6-1.2.1.1.2-.1.2-.1z"></path>
			<path d="M621.8 473.6s.2 1.1.5 2.9c.3 1.9.8 4.5 1.3 7.7.3 1.6.6 3.3.9 5.1.4 1.8.7 3.7 1.1 5.6.2 1 .4 2 .7 2.9.3 1 .5 2 .8 3 .5 2 1.1 4.1 1.7 6.1l1.8 6.1c.7 1.9 1.4 3.9 2.1 5.7.7 1.8 1.5 3.6 2.2 5.3.8 1.7 1.5 3.2 2.2 4.6a43.24 43.24 0 003.1 5.3c.3.5.6.9.9 1.2.6.7 1 1.3 1.4 1.6.4.3.6.5.6.5s-.2-.1-.7-.4c-.5-.2-1-.7-1.8-1.3l-1.1-1.1c-.4-.4-.8-.9-1.2-1.4-.8-1-1.7-2.2-2.6-3.6-.9-1.4-1.8-2.9-2.7-4.5a63 63 0 01-2.6-5.2c-.8-1.9-1.7-3.8-2.4-5.8s-1.3-4.1-2-6.1c-.6-2.1-1.2-4.2-1.6-6.2-.5-2.1-.9-4.1-1.2-6.2-.4-2-.5-4-.7-5.8-.2-1.8-.3-3.6-.4-5.2-.1-3.2-.2-5.9-.2-7.8-.2-1.9-.1-3-.1-3z"></path>
		</g>
	</g><g id="crosier_burgCOA273" stroke-width=".28"><path d="M105.7 72.4c-.4 1-1 1.8-1.8 2.4-.74.4-1.28.15-1.9 0-.3-.1-.6 0-.7.3s0 .6.2.7l-1.2.1c-.6 0-1.1 0-1.6-.2a2 2 0 01-.9-1.3v-.3c-.1-.2-.4-.4-.7-.3-.2 0-.3.1-.4.3a4.7 4.7 0 01-.7-2.2v-.4a4 4 0 01.5-1.6c.2-.3.6-.5 1-.5h.3c.3 0 .5-.3.5-.5s-.2-.4-.5-.5a3.6 3.6 0 012.4-.4c.5 0 .7.4.9 1v.2c0 .3.3.4.6.4.2 0 .4-.3.4-.6 1.22 1.68-.07 4.4-2.2 3.6l-.42-.08A1.74 1.74 0 00100.6 71c0-1-.8-1.6-1.7-1.6s-1.8.8-1.8 1.8c0 1.8 1.7 3 3.3 3 2.05-.24 3.58-1.54 3.5-3.5a4 4 0 00-.6-2.1c.3 0 .5-.3.5-.5 0-.3-.3-.5-.5-.6h-.3c-.3 0-.6 0-.9-.2a4 4 0 00-.4-.2 4.4 4.4 0 00-2.1-.6c-.96 0-1.9.27-2.7.8v-.1c0-.3-.3-.5-.6-.5-.2 0-.5.2-.5.5v.2c0 .5-.4 1-.5 1.3a5.3 5.3 0 00-1 2.7v1a6.5 6.5 0 001.3 3.3c-.3 0-.5.3-.5.6s.3.5.6.5h.3c.4-.1 1 .2 1.2.3.62.36 1.3.6 2 .7l.6.1h.5l2-.1c-.11.96 1 .98 1 .2.36-.47.89-.75 1.4-1.1a7.5 7.5 0 003.1-3.6z"></path><path d="M109.5 72.8c-.2-.1-.5 0-.7-.2-.4-.1-.5-.8-.4-1.2a8.7 8.7 0 000-2.9c-.2-1.5-.9-3-1.9-4.2.3 0 .6-.4.6-.7s-.4-.6-.7-.6h-.3c-.6.1-1.3-.3-1.6-.5a9.3 9.3 0 00-3.5-1.3l-1.3 1.6.8 1.3c.55.07 1.08.2 1.6.4.4 0 .8.5 1 1.3v.3c.2.3.6.5.9.4.2 0 .4-.3.5-.5.7.8 1.2 1.8 1.4 3l.1 1.2c0 .2 0 .4-.2.5-.4.2-.6 0-.8 0h-.2c-.4.5-.1 1.5.3 1.9.5.4 1 .3 1.6.2-.1.5 0 1 .3 1.5.5.6 2 .6 2-.4.7.1 1.2-.8.5-1.1z"></path><path d="M98.4 98v34.8l1.6 7.2 1.6-7.2V98"></path><path d="M102.2 86.5l-.1-.8c0-.4-.1-1.1.1-1.6l.2-.3c.1-.3 0-.7-.3-.8a.7.7 0 00-.9.2l-.1-.2a7.4 7.4 0 00-.8-1l-1.4-1c-.3-.3-.8-.9-.8-1.4v-.3c-.1-.4-.5-.6-.8-.6s-.6.4-.5.7a32.62 32.62 0 01-2.7-2.1c-.8-1-1.5-2.1-1.4-3.3 0-.3.1-.7.4-.8 0 .2.3.3.6.3.3-.2.3-.8.1-1-.2-.3-.5-.4-.9-.3-.6 0-1 .6-1 .6v-1.7c0-1 .2-1.9.6-2.7.2-.4.7-.8 1.4-1h.4c.3 0 .5-.4.5-.7s-.43-.58-.8-.5l.7-.6c.9-.6 2-1 3-1.3l1.3.1c.3.3 0 1 0 1 .64.65 1.59-.3 1.8-.8.1-.6-.2-1.3-.5-1.7.3-.1 1-.7 1.2-1.1.3-.8-.2-2.4-1.2-2-.2-.7-1.2-.8-1.2 0l.2.7c0 .4-.4.6-1 .7h-1a10.9 10.9 0 00-6.2 3.2c0-.3-.4-.6-.7-.5-.4 0-.6.4-.6.7l.1.3c.2.6-.3 1.7-.3 1.7a11.7 11.7 0 00-1.4 5.2.7.7 0 00-1 .1c-.1.3-.1.7.1.9l.3.2c.5.3.7 1.2.8 1.5.32 1.6 1 3.1 2 4.4.7 1.1 1.6 2 2.5 2.7l1.6 1.4c-.3 0-.6.4-.6.7s.4.6.7.6l.4-.1c.5-.1 1.2.3 1.6.4l.5.6c.5.7.6 1.5.6 1.8.06.83.06 1.67 0 2.5.11.47.1 1 .4 1.38l3.9-.03c.27-.25.3-.85.4-1.35-.03-1-.1-2-.2-3z"></path><path d="M97.5 89h5.2a.4.4 0 110 1h-5.2a.4.4 0 110-1z"></path><path d="M100.2 95.3c-1.4 0-2.5 1.1-2.5 2.5h4.9c0-1.4-1.1-2.5-2.4-2.5z"></path><path d="M102.6 98h-5.2c-.53 0-.53-.8 0-.8h5.2c.6 0 .6.8 0 .8zm-4.4 12.2c-.6 0-.6-.9 0-.9h3.4c.67 0 .7.9 0 .9h-3.4zm3.5 22.8h-3.4c-.67 0-.67-1 0-1h3.4c.67 0 .67 1 0 1z"></path><path d="M101.2 96.4H99a2.6 2.6 0 01-2.5-2.6v-.6c0-1.4 1.1-2.6 2.5-2.6h2.2c1.4 0 2.6 1.2 2.6 2.6v.6c0 1.4-1.2 2.6-2.6 2.6z"></path><path fill="none" d="M98.44 102.2h3.16m0 .9h-3.16"></path><path d="M96.4 93.3h7.4a.4.4 0 110 .9h-7.4a.4.4 0 110-.9z"></path><path fill="#000" stroke="none" d="M100.5 85.3c-2.16-4.85-7.88-6.62-8.8-11.1.09 4.28 5.98 6.52 8.8 11.1z"></path></g><radialGradient id="backlight_burgCOA273" cx="100%" cy="100%" r="150%"><stop stop-color="#fff" stop-opacity=".3" offset="0"></stop><stop stop-color="#fff" stop-opacity=".15" offset=".25"></stop><stop stop-color="#000" stop-opacity="0" offset="1"></stop></radialGradient></defs>
        <g clip-path="url(#boeotian_burgCOA273)"><rect x="0" y="0" width="200" height="200" fill="#377cd7"></rect><g clip-path="url(#divisionClip_burgCOA273)"><rect x="0" y="0" width="200" height="200" fill="#fafafa"></rect></g><g fill="#ffe066" stroke="#000"><use href="#foot_burgCOA273" transform="translate(47.50000000000001 2.500000000000007) scale(0.5249999999999999)"></use></g><g fill="#377cd7" stroke="#000"><use href="#crosier_burgCOA273" transform="translate(47.50000000000001 92.5) scale(0.5249999999999999)"></use></g></g>
        <path d="M150 115c-5 0-10-5-10-15s5-15 10-15c10 0 7 10 15 10 10 0 0-30 0-30-10-25-30-55-65-55S45 40 35 65c0 0-10 30 0 30 8 0 5-10 15-10 5 0 10 5 10 15s-5 15-10 15c-10 0-7-10-15-10-10 0 0 30 0 30 10 25 30 55 65 55s55-30 65-55c0 0 10-30 0-30-8 0-5 10-15 10z" fill="url(#backlight_burgCOA273)" stroke="#333"></path></svg>