<svg xmlns="http://www.w3.org/2000/svg" id="burgCOA166" width="200" height="200" viewBox="0 0 200 200">
        <defs><clipPath id="boeotian_burgCOA166"><path d="M150 115c-5 0-10-5-10-15s5-15 10-15c10 0 7 10 15 10 10 0 0-30 0-30-10-25-30-55-65-55S45 40 35 65c0 0-10 30 0 30 8 0 5-10 15-10 5 0 10 5 10 15s-5 15-10 15c-10 0-7-10-15-10-10 0 0 30 0 30 10 25 30 55 65 55s55-30 65-55c0 0 10-30 0-30-8 0-5 10-15 10z"></path></clipPath><g id="annulet_burgCOA166"><path d="M70 100c0 16.569 13.431 30 30 30 16.569 0 30-13.431 30-30 0-16.569-13.431-30-30-30-16.569 0-30 13.431-30 30m10 0c0-11.046 8.954-20 20-20s20 8.954 20 20-8.954 20-20 20-20-8.954-20-20"></path></g><radialGradient id="backlight_burgCOA166" cx="100%" cy="100%" r="150%"><stop stop-color="#fff" stop-opacity=".3" offset="0"></stop><stop stop-color="#fff" stop-opacity=".15" offset=".25"></stop><stop stop-color="#000" stop-opacity="0" offset="1"></stop></radialGradient></defs>
        <g clip-path="url(#boeotian_burgCOA166)"><rect x="0" y="0" width="200" height="200" fill="#333333"></rect><g fill="#ffe066" stroke="none"><path d="m 28.83,94.9 c -4.25,0 -7.16,3.17 -8.75,5.18 -1.59,2.01 -4.5,5.18 -8.75,5.18 -2.16,0 -3.91,-1.63 -3.91,-3.64 0,-2.01 1.44,-3.6 3.6,-3.6 0.7,0 1.36,0.17 1.93,0.48 -0.33,-2.03 -2.19,-3.56 -4.45,-3.56 -4.24,0 -6.91,3.13 -8.5,5.13 V 115 h 200 v -14.89 c -1.59,2.01 -4.5,5.18 -8.75,5.18 -2.16,0 -3.91,-1.63 -3.91,-3.64 0,-2.01 1.75,-3.64 3.91,-3.64 0.7,0 1.36,0.17 1.93,0.48 -0.34,-2.01 -2.2,-3.55 -4.46,-3.55 -4.25,0 -7.16,3.17 -8.75,5.18 -1.59,2.01 -4.5,5.18 -8.75,5.18 -2.16,0 -3.91,-1.63 -3.91,-3.64 0,-2.01 1.75,-3.64 3.91,-3.64 0.7,0 1.36,0.17 1.93,0.48 -0.34,-2.01 -2.21,-3.55 -4.46,-3.55 -4.25,0 -7.16,3.17 -8.75,5.18 -1.59,2.01 -4.5,5.18 -8.75,5.18 -2.16,0 -3.91,-1.63 -3.91,-3.64 0,-2.01 1.75,-3.64 3.91,-3.64 0.7,0 1.36,0.17 1.93,0.48 -0.34,-2.01 -2.21,-3.55 -4.46,-3.55 -4.25,0 -7.16,3.17 -8.75,5.18 -1.59,2.01 -4.5,5.18 -8.75,5.18 -2.16,0 -3.91,-1.63 -3.91,-3.64 0,-2.01 1.75,-3.64 3.91,-3.64 0.7,0 1.36,0.17 1.93,0.48 -0.34,-2.01 -2.2,-3.55 -4.46,-3.55 -4.25,0 -7.16,3.17 -8.75,5.18 -1.59,2.01 -4.5,5.18 -8.75,5.18 -2.16,0 -3.91,-1.63 -3.91,-3.64 0,-2.01 1.44,-3.6 3.6,-3.6 0.7,0 1.36,0.17 1.93,0.48 -0.34,-2.01 -2.21,-3.55 -4.46,-3.55 -4.25,0 -6.6,3.09 -8.19,5.09 -1.59,2.01 -4.5,5.18 -8.75,5.18 -2.16,0 -3.91,-1.63 -3.91,-3.64 0,-2.01 1.75,-3.64 3.91,-3.64 0.7,0 1.36,0.17 1.93,0.48 -0.34,-2.01 -2.21,-3.55 -4.46,-3.55 -4.25,0 -7.16,3.17 -8.75,5.18 -1.59,2.01 -4.5,5.18 -8.75,5.18 -2.16,0 -3.91,-1.63 -3.91,-3.64 0,-2.01 1.75,-3.64 3.91,-3.64 0.7,0 1.36,0.17 1.93,0.48 -0.34,-2.01 -2.2,-3.55 -4.46,-3.55 -4.25,0 -7.16,3.17 -8.75,5.18 -1.59,2.01 -4.5,5.18 -8.75,5.18 -2.16,0 -3.91,-1.63 -3.91,-3.64 0,-2.01 1.75,-3.64 3.91,-3.64 0.7,0 1.36,0.17 1.93,0.48 -0.34,-2.01 -2.2,-3.55 -4.46,-3.55 -4.25,0 -7.16,3.17 -8.75,5.18 -1.59,2.01 -4.5,5.18 -8.75,5.18 -2.16,0 -3.91,-1.63 -3.91,-3.64 0,-2.01 1.75,-3.64 3.91,-3.64 0.7,0 1.36,0.17 1.93,0.48 -0.34,-2.01 -2.21,-3.55 -4.46,-3.55 z" transform="rotate(-90 100 100) translate(0 -25)"></path><path d="m 28.83,94.9 c -4.25,0 -7.16,3.17 -8.75,5.18 -1.59,2.01 -4.5,5.18 -8.75,5.18 -2.16,0 -3.91,-1.63 -3.91,-3.64 0,-2.01 1.44,-3.6 3.6,-3.6 0.7,0 1.36,0.17 1.93,0.48 -0.33,-2.03 -2.19,-3.56 -4.45,-3.56 -4.24,0 -6.91,3.13 -8.5,5.13 V 115 h 200 v -14.89 c -1.59,2.01 -4.5,5.18 -8.75,5.18 -2.16,0 -3.91,-1.63 -3.91,-3.64 0,-2.01 1.75,-3.64 3.91,-3.64 0.7,0 1.36,0.17 1.93,0.48 -0.34,-2.01 -2.2,-3.55 -4.46,-3.55 -4.25,0 -7.16,3.17 -8.75,5.18 -1.59,2.01 -4.5,5.18 -8.75,5.18 -2.16,0 -3.91,-1.63 -3.91,-3.64 0,-2.01 1.75,-3.64 3.91,-3.64 0.7,0 1.36,0.17 1.93,0.48 -0.34,-2.01 -2.21,-3.55 -4.46,-3.55 -4.25,0 -7.16,3.17 -8.75,5.18 -1.59,2.01 -4.5,5.18 -8.75,5.18 -2.16,0 -3.91,-1.63 -3.91,-3.64 0,-2.01 1.75,-3.64 3.91,-3.64 0.7,0 1.36,0.17 1.93,0.48 -0.34,-2.01 -2.21,-3.55 -4.46,-3.55 -4.25,0 -7.16,3.17 -8.75,5.18 -1.59,2.01 -4.5,5.18 -8.75,5.18 -2.16,0 -3.91,-1.63 -3.91,-3.64 0,-2.01 1.75,-3.64 3.91,-3.64 0.7,0 1.36,0.17 1.93,0.48 -0.34,-2.01 -2.2,-3.55 -4.46,-3.55 -4.25,0 -7.16,3.17 -8.75,5.18 -1.59,2.01 -4.5,5.18 -8.75,5.18 -2.16,0 -3.91,-1.63 -3.91,-3.64 0,-2.01 1.44,-3.6 3.6,-3.6 0.7,0 1.36,0.17 1.93,0.48 -0.34,-2.01 -2.21,-3.55 -4.46,-3.55 -4.25,0 -6.6,3.09 -8.19,5.09 -1.59,2.01 -4.5,5.18 -8.75,5.18 -2.16,0 -3.91,-1.63 -3.91,-3.64 0,-2.01 1.75,-3.64 3.91,-3.64 0.7,0 1.36,0.17 1.93,0.48 -0.34,-2.01 -2.21,-3.55 -4.46,-3.55 -4.25,0 -7.16,3.17 -8.75,5.18 -1.59,2.01 -4.5,5.18 -8.75,5.18 -2.16,0 -3.91,-1.63 -3.91,-3.64 0,-2.01 1.75,-3.64 3.91,-3.64 0.7,0 1.36,0.17 1.93,0.48 -0.34,-2.01 -2.2,-3.55 -4.46,-3.55 -4.25,0 -7.16,3.17 -8.75,5.18 -1.59,2.01 -4.5,5.18 -8.75,5.18 -2.16,0 -3.91,-1.63 -3.91,-3.64 0,-2.01 1.75,-3.64 3.91,-3.64 0.7,0 1.36,0.17 1.93,0.48 -0.34,-2.01 -2.2,-3.55 -4.46,-3.55 -4.25,0 -7.16,3.17 -8.75,5.18 -1.59,2.01 -4.5,5.18 -8.75,5.18 -2.16,0 -3.91,-1.63 -3.91,-3.64 0,-2.01 1.75,-3.64 3.91,-3.64 0.7,0 1.36,0.17 1.93,0.48 -0.34,-2.01 -2.21,-3.55 -4.46,-3.55 z" transform="rotate(90 100 100) translate(0 -25)"></path><rect x="88" y="0" width="24" height="200" stroke="none"></rect></g><g fill="#333333" stroke="#000"><use href="#annulet_burgCOA166" transform="translate(62.5 15) scale(0.375)"></use><use href="#annulet_burgCOA166" transform="translate(62.5 62.5) scale(0.375)"></use><use href="#annulet_burgCOA166" transform="translate(62.5 110) scale(0.375)"></use></g></g>
        <path d="M150 115c-5 0-10-5-10-15s5-15 10-15c10 0 7 10 15 10 10 0 0-30 0-30-10-25-30-55-65-55S45 40 35 65c0 0-10 30 0 30 8 0 5-10 15-10 5 0 10 5 10 15s-5 15-10 15c-10 0-7-10-15-10-10 0 0 30 0 30 10 25 30 55 65 55s55-30 65-55c0 0 10-30 0-30-8 0-5 10-15 10z" fill="url(#backlight_burgCOA166)" stroke="#333"></path></svg>