<svg xmlns="http://www.w3.org/2000/svg" id="burgCOA541" width="200" height="200" viewBox="0 0 200 200">
        <defs><clipPath id="boeotian_burgCOA541"><path d="M150 115c-5 0-10-5-10-15s5-15 10-15c10 0 7 10 15 10 10 0 0-30 0-30-10-25-30-55-65-55S45 40 35 65c0 0-10 30 0 30 8 0 5-10 15-10 5 0 10 5 10 15s-5 15-10 15c-10 0-7-10-15-10-10 0 0 30 0 30 10 25 30 55 65 55s55-30 65-55c0 0 10-30 0-30-8 0-5 10-15 10z"></path></clipPath><g id="mascle_burgCOA541"><path d="M100 55l30 45-30 45-30-45zm0 15.75L80.5 100l19.5 29.25L119.5 100z"></path></g><radialGradient id="backlight_burgCOA541" cx="100%" cy="100%" r="150%"><stop stop-color="#fff" stop-opacity=".3" offset="0"></stop><stop stop-color="#fff" stop-opacity=".15" offset=".25"></stop><stop stop-color="#000" stop-opacity="0" offset="1"></stop></radialGradient></defs>
        <g clip-path="url(#boeotian_burgCOA541)"><rect x="0" y="0" width="200" height="200" fill="#522d5b"></rect><g fill="#ffe066" stroke="none"><path d="M 0,100 H 85 V 85 h 30 v 15 h 85 v 15 H 0 Z" transform="translate(0 15) scale(1 .5)"></path><path d="M 0,100 H 85 V 85 h 30 v 15 h 85 v 15 H 0 Z" transform="translate(0 85) rotate(180 100 50) scale(1 .5)"></path><rect x="0" y="80" width="200" height="40"></rect></g><g fill="#522d5b" stroke="#000"><use href="#mascle_burgCOA541" transform="translate(37.5 62.5) scale(0.375)"></use><use href="#mascle_burgCOA541" transform="translate(62.5 62.5) scale(0.375)"></use><use href="#mascle_burgCOA541" transform="translate(87.5 62.5) scale(0.375)"></use></g></g>
        <path d="M150 115c-5 0-10-5-10-15s5-15 10-15c10 0 7 10 15 10 10 0 0-30 0-30-10-25-30-55-65-55S45 40 35 65c0 0-10 30 0 30 8 0 5-10 15-10 5 0 10 5 10 15s-5 15-10 15c-10 0-7-10-15-10-10 0 0 30 0 30 10 25 30 55 65 55s55-30 65-55c0 0 10-30 0-30-8 0-5 10-15 10z" fill="url(#backlight_burgCOA541)" stroke="#333"></path></svg>