<svg xmlns="http://www.w3.org/2000/svg" id="burgCOA311" width="200" height="200" viewBox="0 0 200 200">
        <defs><clipPath id="polish_burgCOA311"><path d="m 90.3,6.3 c -12.7,0 -20.7,10.9 -40.5,14 0,11.8 -4.9,23.5 -11.4,31.1 0,0 12.7,6 12.7,19.3 C 51.1,90.8 30,90.8 30,90.8 c 0,0 -3.6,7.4 -3.6,22.4 0,34.3 23.1,60.2 40.7,68.2 17.6,8 27.7,11.4 32.9,18.6 5.2,-7.3 15.3,-10.7 32.8,-18.6 17.6,-8 40.7,-33.9 40.7,-68.2 0,-15 -3.6,-22.4 -3.6,-22.4 0,0 -21.1,0 -21.1,-20.1 0,-13.3 12.7,-19.3 12.7,-19.3 C 155.1,43.7 150.2,32.1 150.2,20.3 130.4,17.2 122.5,6.3 109.7,6.3 102.5,6.3 100,10 100,10 c 0,0 -2.5,-3.7 -9.7,-3.7 z"></path></clipPath><clipPath id="divisionClip_burgCOA311"><rect x="0" y="100" width="200" height="100"></rect></clipPath><g id="compassRose_burgCOA311" stroke-width=".5"><path d="M100 60l6 28 14-8-8 15 28 5-28 6 8 14-14-8-6 28-6-28-14 8 8-14-28-6 28-6-8-14 14 8z"></path><path fill="#000" fill-opacity=".5" stroke="#000" stroke-opacity=".2" d="M100 61v39l7-6 5 1c2.7-5 5.3-10 8-15-4.3 4.3-8.7 9.7-13 14-2.3-10.7-4.7-22.3-7-33zm0 39l7 7c10.7-2.3 21.3-4.7 32-7zm0 0l-7 7c2.3 10.7 4.7 21.3 7 32zm0 0l-7-7-32 7zm-7-7l1-5-14-8zm0 14c-1.7-.3-3.3-.7-5-1-2.7 4.7-5.3 9.3-8 14l13-13zm14 0c-.3 1.7-.7 3.3-1 5 4.7 2.7 9.3 5.3 14 8z"></path></g><g id="inescutcheon_burgCOA311"><path transform="translate(66 66) scale(.34)" d="m 90.3,6.3 c -12.7,0 -20.7,10.9 -40.5,14 0,11.8 -4.9,23.5 -11.4,31.1 0,0 12.7,6 12.7,19.3 C 51.1,90.8 30,90.8 30,90.8 c 0,0 -3.6,7.4 -3.6,22.4 0,34.3 23.1,60.2 40.7,68.2 17.6,8 27.7,11.4 32.9,18.6 5.2,-7.3 15.3,-10.7 32.8,-18.6 17.6,-8 40.7,-33.9 40.7,-68.2 0,-15 -3.6,-22.4 -3.6,-22.4 0,0 -21.1,0 -21.1,-20.1 0,-13.3 12.7,-19.3 12.7,-19.3 C 155.1,43.7 150.2,32.1 150.2,20.3 130.4,17.2 122.5,6.3 109.7,6.3 102.5,6.3 100,10 100,10 c 0,0 -2.5,-3.7 -9.7,-3.7 z"></path></g><pattern id="scaly-or-azure" width="0.125" height="0.125" viewBox="0 0 100 100" stroke="#000"><rect width="100" height="100" fill="#ffe066" stroke="none"></rect><path d="M 0,84 C -40,84 -50,49 -50,49 -50,79 -27,99 0,99 27,99 50,79 50,49 50,49 40,84 0,84 Z" fill="#377cd7"></path><path d="M 100,84 C 60,84 50,49 50,49 c 0,30 23,50 50,50 27,0 50,-20 50,-50 0,0 -10,35 -50,35 z" fill="#377cd7"></path><path d="M 50,35 C 10,35 0,0 0,0 0,30 23,50 50,50 77,50 100,30 100,0 100,0 90,35 50,35 Z" fill="#377cd7"></path></pattern><radialGradient id="backlight_burgCOA311" cx="100%" cy="100%" r="150%"><stop stop-color="#fff" stop-opacity=".3" offset="0"></stop><stop stop-color="#fff" stop-opacity=".15" offset=".25"></stop><stop stop-color="#000" stop-opacity="0" offset="1"></stop></radialGradient></defs>
        <g clip-path="url(#polish_burgCOA311)"><rect x="0" y="0" width="200" height="200" fill="#d7374a"></rect><g clip-path="url(#divisionClip_burgCOA311)"><rect x="0" y="0" width="200" height="200" fill="url(#scaly-or-azure)"></rect></g><g fill="#fafafa" stroke="#000"><use href="#compassRose_burgCOA311" transform="translate(40.5 -4.5) scale(0.595)"></use></g><g fill="#333333" stroke="#000"><use href="#inescutcheon_burgCOA311" transform="translate(40.5 85.5) scale(0.595)"></use></g></g>
        <path d="m 90.3,6.3 c -12.7,0 -20.7,10.9 -40.5,14 0,11.8 -4.9,23.5 -11.4,31.1 0,0 12.7,6 12.7,19.3 C 51.1,90.8 30,90.8 30,90.8 c 0,0 -3.6,7.4 -3.6,22.4 0,34.3 23.1,60.2 40.7,68.2 17.6,8 27.7,11.4 32.9,18.6 5.2,-7.3 15.3,-10.7 32.8,-18.6 17.6,-8 40.7,-33.9 40.7,-68.2 0,-15 -3.6,-22.4 -3.6,-22.4 0,0 -21.1,0 -21.1,-20.1 0,-13.3 12.7,-19.3 12.7,-19.3 C 155.1,43.7 150.2,32.1 150.2,20.3 130.4,17.2 122.5,6.3 109.7,6.3 102.5,6.3 100,10 100,10 c 0,0 -2.5,-3.7 -9.7,-3.7 z" fill="url(#backlight_burgCOA311)" stroke="#333"></path></svg>