<svg xmlns="http://www.w3.org/2000/svg" id="burgCOA113" width="200" height="200" viewBox="0 10 200 200">
        <defs><clipPath id="french_burgCOA113"><path d="m 25,25 h 150 v 139.15 c 0,41.745 -66,18.15 -75,36.3 -9,-18.15 -75,5.445 -75,-36.3 v 0 z"></path></clipPath><clipPath id="divisionClip_burgCOA113"><rect x="100" y="0" width="100" height="200"></rect></clipPath><radialGradient id="backlight_burgCOA113" cx="100%" cy="100%" r="150%"><stop stop-color="#fff" stop-opacity=".3" offset="0"></stop><stop stop-color="#fff" stop-opacity=".15" offset=".25"></stop><stop stop-color="#000" stop-opacity="0" offset="1"></stop></radialGradient></defs>
        <g clip-path="url(#french_burgCOA113)"><rect x="0" y="0" width="200" height="200" fill="#26c061"></rect><g fill="#fafafa" stroke="none"><polygon points="85,0 85,85 0,85 0,115 85,115 85,200 115,200 115,115 200,115 200,85 115,85 115,0"></polygon></g><g clip-path="url(#divisionClip_burgCOA113)"><rect x="0" y="0" width="200" height="200" fill="#fafafa"></rect><g fill="#26c061" stroke="none"><polygon points="85,0 85,85 0,85 0,115 85,115 85,200 115,200 115,115 200,115 200,85 115,85 115,0"></polygon></g></g></g>
        <path d="m 25,25 h 150 v 139.15 c 0,41.745 -66,18.15 -75,36.3 -9,-18.15 -75,5.445 -75,-36.3 v 0 z" fill="url(#backlight_burgCOA113)" stroke="#333"></path></svg>