<svg xmlns="http://www.w3.org/2000/svg" id="burgCOA611" width="200" height="200" viewBox="0 10 200 200">
        <defs><clipPath id="spanish_burgCOA611"><path d="m25,25 h150 v100 a75,75,0,0,1,-150,0 z"></path></clipPath><g id="crescent_burgCOA611" stroke-width=".5"><path d="M84 65c-32 15-24 68 16 68s48-53 16-68c18 20 2 41-16 41S67 85 84 65z"></path><path fill="none" d="M84 65c-26 15-14 56 16 56s42-41 16-56"></path></g><radialGradient id="backlight_burgCOA611" cx="100%" cy="100%" r="150%"><stop stop-color="#fff" stop-opacity=".3" offset="0"></stop><stop stop-color="#fff" stop-opacity=".15" offset=".25"></stop><stop stop-color="#000" stop-opacity="0" offset="1"></stop></radialGradient></defs>
        <g clip-path="url(#spanish_burgCOA611)"><rect x="0" y="0" width="200" height="200" fill="#ffe066"></rect><g fill="#d7374a" stroke="#000"><use href="#crescent_burgCOA611" transform="translate(16.25 10) scale(0.4)"></use><use href="#crescent_burgCOA611" transform="translate(103.75 10) scale(0.4)"></use><use href="#crescent_burgCOA611" transform="translate(60 60) scale(0.4)"></use><use href="#crescent_burgCOA611" transform="translate(16.25 110) scale(0.4)"></use><use href="#crescent_burgCOA611" transform="translate(103.75 110) scale(0.4)"></use></g></g>
        <path d="m25,25 h150 v100 a75,75,0,0,1,-150,0 z" fill="url(#backlight_burgCOA611)" stroke="#333"></path></svg>