<svg xmlns="http://www.w3.org/2000/svg" id="burgCOA246" width="200" height="200" viewBox="0 10 200 200">
        <defs><clipPath id="spanish_burgCOA246"><path d="m25,25 h150 v100 a75,75,0,0,1,-150,0 z"></path></clipPath><g id="mulletFaceted_burgCOA246"><path d="M100 60l8.98 27.64h29.06l-23.51 17.08 8.98 27.64L100 115.28l-23.51 17.08 8.98-27.64-23.51-17.08h29.06z"></path><path fill="#000" fill-opacity=".2" stroke-width=".2" d="M100 100V60l8.98 27.64L100 100l38.04-12.36-23.51 17.08L100 100l23.51 32.36L100 115.28V100l-23.51 32.36 8.98-27.64L100 100 61.96 87.64h29.06z"></path></g><radialGradient id="backlight_burgCOA246" cx="100%" cy="100%" r="150%"><stop stop-color="#fff" stop-opacity=".3" offset="0"></stop><stop stop-color="#fff" stop-opacity=".15" offset=".25"></stop><stop stop-color="#000" stop-opacity="0" offset="1"></stop></radialGradient></defs>
        <g clip-path="url(#spanish_burgCOA246)"><rect x="0" y="0" width="200" height="200" fill="#ffe066"></rect><g fill="#333333" stroke="none"><polygon points="0,75 100,140 200,75 200,35 100,100 0,35"></polygon></g><g fill="#333333" stroke="#000"><use href="#mulletFaceted_burgCOA246" transform="translate(50 0) scale(0.5)"></use></g></g>
        <path d="m25,25 h150 v100 a75,75,0,0,1,-150,0 z" fill="url(#backlight_burgCOA246)" stroke="#333"></path></svg>