<svg xmlns="http://www.w3.org/2000/svg" id="burgCOA553" width="200" height="200" viewBox="0 0 200 200">
        <defs><clipPath id="boeotian_burgCOA553"><path d="M150 115c-5 0-10-5-10-15s5-15 10-15c10 0 7 10 15 10 10 0 0-30 0-30-10-25-30-55-65-55S45 40 35 65c0 0-10 30 0 30 8 0 5-10 15-10 5 0 10 5 10 15s-5 15-10 15c-10 0-7-10-15-10-10 0 0 30 0 30 10 25 30 55 65 55s55-30 65-55c0 0 10-30 0-30-8 0-5 10-15 10z"></path></clipPath><clipPath id="divisionClip_burgCOA553"><path d="m 200,105 h -2 v -10 0 0 h -10 v 5 h 5 v 5 H 183 V 95 h -10 v 5 h 5 v 5 H 168 V 95 h -10 v 5 h 5 v 5 H 153 V 95 h -10 v 5 h 5 v 5 H 138 V 95 h -10 v 5 h 5 v 5 H 123 V 95 h -10 v 5 h 5 v 5 h -10 v 0 0 -10 H 98 v 5 h 5 v 5 H 93 V 95 H 83 v 5 h 5 v 5 H 78 V 95 H 68 v 5 h 5 v 5 H 63 V 95 H 53 v 5 h 5 v 5 H 48 V 95 H 38 v 5 h 5 v 5 H 33 V 95 H 23 v 5 h 5 v 5 H 18 V 95 H 8 v 5 h 5 v 5 H 3 V 95 H 0 v 20 h 200 z" transform="rotate(-90 100 100)"></path><rect x="115" y="0" width="85" height="200" shape-rendering="crispedges"></rect></clipPath><g id="mullet_burgCOA553"><polygon points="100 60 108.98 87.64 138.04 87.64 114.53 104.72 123.51 132.36 100 115.28 76.49 132.36 85.47 104.72 61.96 87.64 91.02 87.64"></polygon></g><g id="crossFormee2_burgCOA553" stroke-width=".5"><path d="m 88,60 c 7,-5 17,-5 24,0 -7,8 -9,30 -7,35 5,2 27,0 35,-7 5,7 5,17 0,24 -8,-7 -30,-9 -35,-7 -2,5 0,27 7,35 -7,5 -17,5 -24,0 7,-8 9,-30 7,-35 -5,-2 -27,0 -35,7 -5,-7 -5,-17 0,-24 8,7 30,9 35,7 2,-5 0,-27 -7,-35 z"></path></g><radialGradient id="backlight_burgCOA553" cx="100%" cy="100%" r="150%"><stop stop-color="#fff" stop-opacity=".3" offset="0"></stop><stop stop-color="#fff" stop-opacity=".15" offset=".25"></stop><stop stop-color="#000" stop-opacity="0" offset="1"></stop></radialGradient></defs>
        <g clip-path="url(#boeotian_burgCOA553)"><rect x="0" y="0" width="200" height="200" fill="#333333"></rect><g clip-path="url(#divisionClip_burgCOA553)"><rect x="0" y="0" width="200" height="200" fill="#fafafa"></rect></g><g fill="#ffe066" stroke="#000"><use href="#mullet_burgCOA553" transform="translate(27.500000000000007 47.50000000000001) scale(0.5249999999999999)"></use></g><g fill="#377cd7" stroke="#000"><use href="#crossFormee2_burgCOA553" transform="translate(67.5 47.50000000000001) scale(0.5249999999999999)"></use></g></g>
        <path d="M150 115c-5 0-10-5-10-15s5-15 10-15c10 0 7 10 15 10 10 0 0-30 0-30-10-25-30-55-65-55S45 40 35 65c0 0-10 30 0 30 8 0 5-10 15-10 5 0 10 5 10 15s-5 15-10 15c-10 0-7-10-15-10-10 0 0 30 0 30 10 25 30 55 65 55s55-30 65-55c0 0 10-30 0-30-8 0-5 10-15 10z" fill="url(#backlight_burgCOA553)" stroke="#333"></path></svg>