<svg xmlns="http://www.w3.org/2000/svg" id="burgCOA435" width="200" height="200" viewBox="0 0 200 200">
        <defs><clipPath id="pavise_burgCOA435"><path d="M95 7L39.9 37.3a10 10 0 00-5.1 9.5L46 180c.4 5.2 3.7 10 9 10h90c5.3 0 9.6-4.8 10-10l10.6-133.2a10 10 0 00-5-9.5L105 7c-4.2-2.3-6.2-2.3-10 0z"></path></clipPath><clipPath id="divisionClip_burgCOA435"><rect x="100" y="0" width="100" height="100"></rect><rect x="0" y="100" width="100" height="100"></rect></clipPath><g id="fusil_burgCOA435"><polygon points="100 55 130 100 100 145 70 100"></polygon></g><pattern id="lozengy-argent-purpure" width="0.125" height="0.125" viewBox="0 0 50 50"><rect width="50" height="50" fill="#fafafa"></rect><polygon points="25,0 50,25 25,50 0,25" fill="#522d5b"></polygon></pattern><radialGradient id="backlight_burgCOA435" cx="100%" cy="100%" r="150%"><stop stop-color="#fff" stop-opacity=".3" offset="0"></stop><stop stop-color="#fff" stop-opacity=".15" offset=".25"></stop><stop stop-color="#000" stop-opacity="0" offset="1"></stop></radialGradient></defs>
        <g clip-path="url(#pavise_burgCOA435)"><rect x="0" y="0" width="200" height="200" fill="#333333"></rect><g clip-path="url(#divisionClip_burgCOA435)"><rect x="0" y="0" width="200" height="200" fill="url(#lozengy-argent-purpure)"></rect></g><g fill="#ffe066" stroke="#000"><use href="#fusil_burgCOA435" transform="translate(-35.00000000000001 -35.00000000000001) scale(1.35)"></use></g></g>
        <path d="M95 7L39.9 37.3a10 10 0 00-5.1 9.5L46 180c.4 5.2 3.7 10 9 10h90c5.3 0 9.6-4.8 10-10l10.6-133.2a10 10 0 00-5-9.5L105 7c-4.2-2.3-6.2-2.3-10 0z" fill="url(#backlight_burgCOA435)" stroke="#333"></path></svg>