<svg xmlns="http://www.w3.org/2000/svg" id="burgCOA296" width="200" height="200" viewBox="0 10 200 200">
        <defs><clipPath id="french_burgCOA296"><path d="m 25,25 h 150 v 139.15 c 0,41.745 -66,18.15 -75,36.3 -9,-18.15 -75,5.445 -75,-36.3 v 0 z"></path></clipPath><g id="key_burgCOA296" stroke-width="3" transform="matrix(.1412 0 0 .1422 148.22 37.9)">
    <path d="M-395.2 310.5h17.6v29h10.9v-42.3h46.4v-73.1h-46.4v-41.6h-10.9v27.8h-17.6v-27.8h-54.4v24h30.8v17.6h-30.8v27.8h45.9v-15.8h17.6v15.8h17.2v17.6h-17.2v15.7h-17.6v-15.7h-45.9v27.7h30.8v17.6h-30.8v24.7h54.4z"></path>
    <path d="M-342.9 585.6v-422c0-5.2 7.5-9.5 16.7-9.5s16.7 4.3 16.7 9.5v422h-33.4z"></path>
    <path d="M-342.9 550.5a5 5 0 010-9.8h33.3a5 5 0 010 9.8h-33.3zm0 37.9a5 5 0 010-9.8h33.3a5 5 0 010 9.8h-33.3zm0-12.6a11.6 11.6 0 010-23.2h33.3a11.6 11.6 0 010 23.2h-33.3z"></path>
    <ellipse cx="-326.2" cy="703.3" rx="17.6" ry="14"></ellipse>
    <path d="M-340.3 695.9a5 5 0 010-9.8h28.2a5 5 0 010 9.8h-28.2z"></path>
    <ellipse cx="-252.4" cy="641.4" rx="14" ry="17.6"></ellipse>
    <path d="M-259.7 655.5a5 5 0 01-9.8 0v-28.2a5 5 0 019.8 0v28.2z"></path>
    <ellipse cx="-401" cy="641.4" rx="14" ry="17.6"></ellipse>
    <path d="M-393.6 627.3a5 5 0 019.8 0v28.2a5 5 0 01-9.8 0v-28.2zm109.3 14.3l-42.2 29.9-41.4-30.3 42.2-41.4 41.4 41.8zm-25-53.2h-34.3l-39.6 39.6v26.1l42 31.9h29.5l42.4-32.3v-25.4l-40-39.9h0z"></path>
    <path d="M-300.1 665.9l-1.6-13.1-18.2-6.9 6.8 18.2 13 1.8zm-52.9-53l1.6 13.1 18.2 6.9-6.8-18.2-13-1.8zm1 52.9l13.1-1.6 6.9-18.2-18.2 6.8-1.8 13zm53.1-52.8l-13.1 1.6-6.9 18.2 18.2-6.8 1.8-13z"></path>
    <path d="M-284.3 641.6h14.7m-56.9 29.9v14.6m.9-86.3v-11.4m-42.2 52.8h-16"></path>
  </g><pattern id="fretty-sable-or" width="0.2" height="0.2" viewBox="0 0 140 140" stroke="#000" stroke-width="2"><rect width="140" height="140" fill="#333333" stroke="none"></rect><path d="m-15 5 150 150 20-20-150-150z" fill="#ffe066"></path><path d="m10 150 140-140-20-20-140 140z" fill="#ffe066" stroke="none"></path><path d="m0 120 20 20 120-120-20-20z" fill="none"></path></pattern><radialGradient id="backlight_burgCOA296" cx="100%" cy="100%" r="150%"><stop stop-color="#fff" stop-opacity=".3" offset="0"></stop><stop stop-color="#fff" stop-opacity=".15" offset=".25"></stop><stop stop-color="#000" stop-opacity="0" offset="1"></stop></radialGradient></defs>
        <g clip-path="url(#french_burgCOA296)"><rect x="0" y="0" width="200" height="200" fill="url(#fretty-sable-or)"></rect><g fill="#ffe066" stroke="none"><path d="m 25,25 h 150 v 139.15 c 0,41.745 -66,18.15 -75,36.3 -9,-18.15 -75,5.445 -75,-36.3 v 0 z" fill="none" stroke="#ffe066" stroke-width="16.7%"></path></g><g fill="#522d5b" stroke="#000"><use href="#key_burgCOA296" transform="translate(15.799999999999997 15.400000000000006) scale(0.18)"></use><use href="#key_burgCOA296" transform="translate(60 15.400000000000006) scale(0.18)"></use><use href="#key_burgCOA296" transform="translate(104 15.400000000000006) scale(0.18)"></use><use href="#key_burgCOA296" transform="translate(148.2 15.400000000000006) scale(0.18)"></use><use href="#key_burgCOA296" transform="translate(148.4 62) scale(0.18)"></use><use href="#key_burgCOA296" transform="translate(148.4 108) scale(0.18)"></use><use href="#key_burgCOA296" transform="translate(147.4 152) scale(0.18)"></use><use href="#key_burgCOA296" transform="translate(82 171) scale(0.18)"></use><use href="#key_burgCOA296" transform="translate(16.599999999999994 152) scale(0.18)"></use><use href="#key_burgCOA296" transform="translate(15.599999999999994 108) scale(0.18)"></use><use href="#key_burgCOA296" transform="translate(15.599999999999994 62) scale(0.18)"></use></g></g>
        <path d="m 25,25 h 150 v 139.15 c 0,41.745 -66,18.15 -75,36.3 -9,-18.15 -75,5.445 -75,-36.3 v 0 z" fill="url(#backlight_burgCOA296)" stroke="#333"></path></svg>