<svg xmlns="http://www.w3.org/2000/svg" id="burgCOA230" width="200" height="200" viewBox="0 0 200 200">
        <defs><clipPath id="oval_burgCOA230"><path d="m 32.3,99.5 a 67.7,93.7 0 1 1 0,1.3 z"></path></clipPath><clipPath id="divisionClip_burgCOA230"><rect x="0" y="100" width="200" height="100"></rect></clipPath><g id="mullet_burgCOA230"><polygon points="100 60 108.98 87.64 138.04 87.64 114.53 104.72 123.51 132.36 100 115.28 76.49 132.36 85.47 104.72 61.96 87.64 91.02 87.64"></polygon></g><radialGradient id="backlight_burgCOA230" cx="100%" cy="100%" r="150%"><stop stop-color="#fff" stop-opacity=".3" offset="0"></stop><stop stop-color="#fff" stop-opacity=".15" offset=".25"></stop><stop stop-color="#000" stop-opacity="0" offset="1"></stop></radialGradient></defs>
        <g clip-path="url(#oval_burgCOA230)"><rect x="0" y="0" width="200" height="200" fill="#d7374a"></rect><g fill="#fafafa" stroke="#000"><use href="#mullet_burgCOA230" transform="translate(-42.499999999999986 -42.499999999999986) scale(1.4249999999999998)"></use></g><g clip-path="url(#divisionClip_burgCOA230)"><rect x="0" y="0" width="200" height="200" fill="#fafafa"></rect><g fill="#d7374a" stroke="#000"><use href="#mullet_burgCOA230" transform="translate(-42.499999999999986 -42.499999999999986) scale(1.4249999999999998)"></use></g></g></g>
        <path d="m 32.3,99.5 a 67.7,93.7 0 1 1 0,1.3 z" fill="url(#backlight_burgCOA230)" stroke="#333"></path></svg>