<svg xmlns="http://www.w3.org/2000/svg" id="burgCOA576" width="200" height="200" viewBox="0 0 200 200">
        <defs><clipPath id="oval_burgCOA576"><path d="m 32.3,99.5 a 67.7,93.7 0 1 1 0,1.3 z"></path></clipPath><g id="pique_burgCOA576"><path stroke-width=".5" d="M100 70c-5.7 10.3-25.2 19.8-25.2 32.8 0 6.2 5.6 11.1 12.6 11.1 4.4 0 8.4-2 10.6-5.1-.9 8.9-3.5 18.8-12.6 20.7h29.2c-9.2-1.9-11.7-11.8-12.6-20.7 2.2 3.1 6.2 5.1 10.6 5.1 7 0 12.6-5 12.6-11.1 0-13-19.5-22.5-25.2-32.8z"></path></g><radialGradient id="backlight_burgCOA576" cx="100%" cy="100%" r="150%"><stop stop-color="#fff" stop-opacity=".3" offset="0"></stop><stop stop-color="#fff" stop-opacity=".15" offset=".25"></stop><stop stop-color="#000" stop-opacity="0" offset="1"></stop></radialGradient></defs>
        <g clip-path="url(#oval_burgCOA576)"><rect x="0" y="0" width="200" height="200" fill="#fafafa"></rect><g fill="#377cd7" stroke="#000"><use href="#pique_burgCOA576" transform="translate(-42.499999999999986 -42.499999999999986) scale(1.4249999999999998)"></use></g></g>
        <path d="m 32.3,99.5 a 67.7,93.7 0 1 1 0,1.3 z" fill="url(#backlight_burgCOA576)" stroke="#333"></path></svg>