<svg xmlns="http://www.w3.org/2000/svg" id="burgCOA62" width="200" height="200" viewBox="0 0 200 200">
        <defs><clipPath id="boeotian_burgCOA62"><path d="M150 115c-5 0-10-5-10-15s5-15 10-15c10 0 7 10 15 10 10 0 0-30 0-30-10-25-30-55-65-55S45 40 35 65c0 0-10 30 0 30 8 0 5-10 15-10 5 0 10 5 10 15s-5 15-10 15c-10 0-7-10-15-10-10 0 0 30 0 30 10 25 30 55 65 55s55-30 65-55c0 0 10-30 0-30-8 0-5 10-15 10z"></path></clipPath><clipPath id="divisionClip_burgCOA62"><rect x="100" y="0" width="100" height="92.5"></rect><rect x="0" y="107.5" width="100" height="92.5"></rect><path d="M0 115l-.1-6 .2.8c1.3-1 2.3-2.5 2.9-4.4.5-2 .4-3.9-.3-5.4-.7-1.5-.8-3.4-.3-5.4A9 9 0 015.5 90c-.7 1.5-.8 3.4-.3 5.4.5 2 1.7 3.6 3.1 4.6a9 9 0 013.1 4.6c.5 2 .4 3.9-.3 5.4a9 9 0 003.1-4.6c.5-2 .4-3.9-.3-5.4-.7-1.5-.8-3.4-.3-5.4.5-2 1.7-3.6 3.1-4.6-.7 1.5-.8 3.4-.3 5.4.5 2 1.7 3.6 3.1 4.6a9 9 0 013.1 4.6c.5 2 .4 3.9-.3 5.4a9 9 0 003.1-4.6c.5-2 .4-3.9-.3-5.4-.7-1.5-.8-3.4-.3-5.4.5-2 1.7-3.6 3.1-4.6-.7 1.5-.8 3.4-.3 5.4.5 2 1.7 3.6 3.1 4.6a9 9 0 013.1 4.6c.5 2 .4 3.9-.3 5.4a9 9 0 003.1-4.6c.5-2 .4-3.9-.3-5.4-.7-1.5-.8-3.4-.3-5.4.5-2 1.7-3.6 3.1-4.6-.7 1.5-.8 3.4-.3 5.4.5 2 1.7 3.6 3.1 4.6a9 9 0 013.1 4.6c.5 2 .4 3.9-.3 5.4a9 9 0 003.1-4.6c.5-2 .4-3.9-.3-5.4-.7-1.5-.8-3.4-.3-5.4.5-2 1.7-3.6 3.1-4.6-.7 1.5-.8 3.4-.3 5.4.5 2 1.7 3.6 3.1 4.6a9 9 0 013.1 4.6c.5 2 .4 3.9-.3 5.4a9 9 0 003.1-4.6c.5-2 .4-3.9-.3-5.4-.7-1.5-.8-3.4-.3-5.4.5-2 1.7-3.6 3.1-4.6-.7 1.5-.8 3.4-.3 5.4.5 2 1.7 3.6 3.1 4.6a9 9 0 013.1 4.6c.5 2 .4 3.9-.3 5.4a9 9 0 003.1-4.6c.5-2 .4-3.9-.3-5.4-.7-1.5-.8-3.4-.3-5.4.5-2 1.7-3.6 3.1-4.6-.7 1.5-.8 3.4-.3 5.4.5 2 1.7 3.6 3.1 4.6a9 9 0 013.1 4.6c.5 2 .4 3.9-.3 5.4a9 9 0 003.1-4.6c.5-2 .4-3.9-.3-5.4-.7-1.5-.8-3.4-.3-5.4.5-2 1.7-3.6 3.1-4.6-.7 1.5-.8 3.4-.3 5.4.5 2 1.7 3.6 3.1 4.6a9 9 0 013.1 4.6c.5 2 .4 3.9-.3 5.4a9 9 0 003.1-4.6c.5-2 .4-3.9-.3-5.4-.7-1.5-.8-3.4-.3-5.4.5-2 1.7-3.6 3.1-4.6-.7 1.5-.8 3.4-.3 5.4.5 2 2.1 3.1 3.1 4.6 1 1.6 2.4 3.1 2.7 4.8.3 1.7.3 3.3 0 5.2 1.3-1 2.6-2.7 3.2-4.6.5-2 .4-3.9-.3-5.4-.7-1.5-.8-3.4-.3-5.4.5-2 1.7-3.6 3.1-4.6-.7 1.5-.8 3.4-.3 5.4.5 2 1.7 3.6 3.1 4.6a9 9 0 013.1 4.6c.5 2 .4 3.9-.3 5.4a9 9 0 003.1-4.6c.5-2 .4-3.9-.3-5.4-.7-1.5-.8-3.4-.3-5.4.5-2 1.7-3.6 3.1-4.6-.7 1.5-.8 3.4-.3 5.4.5 2 1.7 3.6 3.1 4.6a9 9 0 013.1 4.6c.5 2 .4 3.9-.3 5.4a9 9 0 003.1-4.6c.5-2 .4-3.9-.3-5.4-.7-1.5-.8-3.4-.3-5.4.5-2 1.7-3.6 3.1-4.6-.7 1.5-.8 3.4-.3 5.4.5 2 1.7 3.6 3.1 4.6a9 9 0 013.1 4.6c.5 2 .4 3.9-.3 5.4a9 9 0 003.1-4.6c.5-2 .4-3.9-.3-5.4-.7-1.5-.8-3.4-.3-5.4.5-2 1.7-3.6 3.1-4.6-.7 1.5-.8 3.4-.3 5.4.5 2 1.7 3.6 3.1 4.6a9 9 0 013.1 4.6c.5 2 .4 3.9-.3 5.4a9 9 0 003.1-4.6c.5-2 .4-3.9-.3-5.4-.7-1.5-.8-3.4-.3-5.4.5-2 1.7-3.6 3.1-4.6-.7 1.5-.8 3.4-.3 5.4.5 2 1.7 3.6 3.1 4.6a9 9 0 013.1 4.6c.5 2 .4 3.9-.3 5.4a9 9 0 003.1-4.6c.5-2 .4-3.9-.3-5.4-.7-1.5-.8-3.4-.3-5.4.5-2 1.7-3.6 3.1-4.6-.7 1.5-.8 3.4-.3 5.4.5 2 1.7 3.6 3.1 4.6a9 9 0 013.1 4.6c.5 2 .4 3.9-.3 5.4a9 9 0 003.1-4.6c.5-2 .4-3.9-.3-5.4-.7-1.5-.8-3.4-.3-5.4.5-2 1.7-3.6 3.1-4.6-.7 1.5-.8 3.4-.3 5.4.5 2 1.7 3.6 3.1 4.6a9 9 0 013.1 4.6c.5 2 .4 3.9-.3 5.4a9 9 0 003.1-4.6c.5-2 .4-3.9-.3-5.4-.7-1.5-.8-3.4-.3-5.4.5-2 1.7-3.6 3.1-4.6-.7 1.5-.8 3.4-.3 5.4.5 2 1.7 3.6 3.1 4.6a9 9 0 013.1 4.6c.5 2 .4 3.9-.3 5.4a9 9 0 003.1-4.6c.5-2 .4-3.9-.3-5.4-.7-1.5-.8-3.4-.3-5.4.5-2 1.7-3.6 3.1-4.6-.7 1.5-.8 3.4-.3 5.4.75 2.79 2.72 4.08 4.45 5.82L200 115z" transform="translate(0 50) scale(.5001)"></path><path d="M0 115l-.1-6 .2.8c1.3-1 2.3-2.5 2.9-4.4.5-2 .4-3.9-.3-5.4-.7-1.5-.8-3.4-.3-5.4A9 9 0 015.5 90c-.7 1.5-.8 3.4-.3 5.4.5 2 1.7 3.6 3.1 4.6a9 9 0 013.1 4.6c.5 2 .4 3.9-.3 5.4a9 9 0 003.1-4.6c.5-2 .4-3.9-.3-5.4-.7-1.5-.8-3.4-.3-5.4.5-2 1.7-3.6 3.1-4.6-.7 1.5-.8 3.4-.3 5.4.5 2 1.7 3.6 3.1 4.6a9 9 0 013.1 4.6c.5 2 .4 3.9-.3 5.4a9 9 0 003.1-4.6c.5-2 .4-3.9-.3-5.4-.7-1.5-.8-3.4-.3-5.4.5-2 1.7-3.6 3.1-4.6-.7 1.5-.8 3.4-.3 5.4.5 2 1.7 3.6 3.1 4.6a9 9 0 013.1 4.6c.5 2 .4 3.9-.3 5.4a9 9 0 003.1-4.6c.5-2 .4-3.9-.3-5.4-.7-1.5-.8-3.4-.3-5.4.5-2 1.7-3.6 3.1-4.6-.7 1.5-.8 3.4-.3 5.4.5 2 1.7 3.6 3.1 4.6a9 9 0 013.1 4.6c.5 2 .4 3.9-.3 5.4a9 9 0 003.1-4.6c.5-2 .4-3.9-.3-5.4-.7-1.5-.8-3.4-.3-5.4.5-2 1.7-3.6 3.1-4.6-.7 1.5-.8 3.4-.3 5.4.5 2 1.7 3.6 3.1 4.6a9 9 0 013.1 4.6c.5 2 .4 3.9-.3 5.4a9 9 0 003.1-4.6c.5-2 .4-3.9-.3-5.4-.7-1.5-.8-3.4-.3-5.4.5-2 1.7-3.6 3.1-4.6-.7 1.5-.8 3.4-.3 5.4.5 2 1.7 3.6 3.1 4.6a9 9 0 013.1 4.6c.5 2 .4 3.9-.3 5.4a9 9 0 003.1-4.6c.5-2 .4-3.9-.3-5.4-.7-1.5-.8-3.4-.3-5.4.5-2 1.7-3.6 3.1-4.6-.7 1.5-.8 3.4-.3 5.4.5 2 1.7 3.6 3.1 4.6a9 9 0 013.1 4.6c.5 2 .4 3.9-.3 5.4a9 9 0 003.1-4.6c.5-2 .4-3.9-.3-5.4-.7-1.5-.8-3.4-.3-5.4.5-2 1.7-3.6 3.1-4.6-.7 1.5-.8 3.4-.3 5.4.5 2 1.7 3.6 3.1 4.6a9 9 0 013.1 4.6c.5 2 .4 3.9-.3 5.4a9 9 0 003.1-4.6c.5-2 .4-3.9-.3-5.4-.7-1.5-.8-3.4-.3-5.4.5-2 1.7-3.6 3.1-4.6-.7 1.5-.8 3.4-.3 5.4.5 2 2.1 3.1 3.1 4.6 1 1.6 2.4 3.1 2.7 4.8.3 1.7.3 3.3 0 5.2 1.3-1 2.6-2.7 3.2-4.6.5-2 .4-3.9-.3-5.4-.7-1.5-.8-3.4-.3-5.4.5-2 1.7-3.6 3.1-4.6-.7 1.5-.8 3.4-.3 5.4.5 2 1.7 3.6 3.1 4.6a9 9 0 013.1 4.6c.5 2 .4 3.9-.3 5.4a9 9 0 003.1-4.6c.5-2 .4-3.9-.3-5.4-.7-1.5-.8-3.4-.3-5.4.5-2 1.7-3.6 3.1-4.6-.7 1.5-.8 3.4-.3 5.4.5 2 1.7 3.6 3.1 4.6a9 9 0 013.1 4.6c.5 2 .4 3.9-.3 5.4a9 9 0 003.1-4.6c.5-2 .4-3.9-.3-5.4-.7-1.5-.8-3.4-.3-5.4.5-2 1.7-3.6 3.1-4.6-.7 1.5-.8 3.4-.3 5.4.5 2 1.7 3.6 3.1 4.6a9 9 0 013.1 4.6c.5 2 .4 3.9-.3 5.4a9 9 0 003.1-4.6c.5-2 .4-3.9-.3-5.4-.7-1.5-.8-3.4-.3-5.4.5-2 1.7-3.6 3.1-4.6-.7 1.5-.8 3.4-.3 5.4.5 2 1.7 3.6 3.1 4.6a9 9 0 013.1 4.6c.5 2 .4 3.9-.3 5.4a9 9 0 003.1-4.6c.5-2 .4-3.9-.3-5.4-.7-1.5-.8-3.4-.3-5.4.5-2 1.7-3.6 3.1-4.6-.7 1.5-.8 3.4-.3 5.4.5 2 1.7 3.6 3.1 4.6a9 9 0 013.1 4.6c.5 2 .4 3.9-.3 5.4a9 9 0 003.1-4.6c.5-2 .4-3.9-.3-5.4-.7-1.5-.8-3.4-.3-5.4.5-2 1.7-3.6 3.1-4.6-.7 1.5-.8 3.4-.3 5.4.5 2 1.7 3.6 3.1 4.6a9 9 0 013.1 4.6c.5 2 .4 3.9-.3 5.4a9 9 0 003.1-4.6c.5-2 .4-3.9-.3-5.4-.7-1.5-.8-3.4-.3-5.4.5-2 1.7-3.6 3.1-4.6-.7 1.5-.8 3.4-.3 5.4.5 2 1.7 3.6 3.1 4.6a9 9 0 013.1 4.6c.5 2 .4 3.9-.3 5.4a9 9 0 003.1-4.6c.5-2 .4-3.9-.3-5.4-.7-1.5-.8-3.4-.3-5.4.5-2 1.7-3.6 3.1-4.6-.7 1.5-.8 3.4-.3 5.4.5 2 1.7 3.6 3.1 4.6a9 9 0 013.1 4.6c.5 2 .4 3.9-.3 5.4a9 9 0 003.1-4.6c.5-2 .4-3.9-.3-5.4-.7-1.5-.8-3.4-.3-5.4.5-2 1.7-3.6 3.1-4.6-.7 1.5-.8 3.4-.3 5.4.75 2.79 2.72 4.08 4.45 5.82L200 115z" transform="translate(200 150) scale(-.5)"></path></clipPath><g id="inescutcheon_burgCOA62"><path transform="translate(66 66) scale(.34)" d="M150 115c-5 0-10-5-10-15s5-15 10-15c10 0 7 10 15 10 10 0 0-30 0-30-10-25-30-55-65-55S45 40 35 65c0 0-10 30 0 30 8 0 5-10 15-10 5 0 10 5 10 15s-5 15-10 15c-10 0-7-10-15-10-10 0 0 30 0 30 10 25 30 55 65 55s55-30 65-55c0 0 10-30 0-30-8 0-5 10-15 10z"></path></g><g id="lozengeFaceted_burgCOA62"><polygon points="100 55 130 100 100 145 70 100"></polygon><g fill="#000" stroke="none"><polygon points="100 100 130 100 100 55" opacity=".2"></polygon><polygon points="100 100 70 100 100 145" opacity=".2"></polygon><polygon points="100 100 130 100 100 145" opacity=".3"></polygon></g></g><radialGradient id="backlight_burgCOA62" cx="100%" cy="100%" r="150%"><stop stop-color="#fff" stop-opacity=".3" offset="0"></stop><stop stop-color="#fff" stop-opacity=".15" offset=".25"></stop><stop stop-color="#000" stop-opacity="0" offset="1"></stop></radialGradient></defs>
        <g clip-path="url(#boeotian_burgCOA62)"><rect x="0" y="0" width="200" height="200" fill="#fafafa"></rect><g clip-path="url(#divisionClip_burgCOA62)"><rect x="0" y="0" width="200" height="200" fill="#d7374a"></rect></g><g fill="#26c061" stroke="#000"><use href="#inescutcheon_burgCOA62" transform="translate(22.500000000000007 17.500000000000007) scale(0.44999999999999996)"></use><use href="#inescutcheon_burgCOA62" transform="translate(87.5 17.500000000000007) scale(0.44999999999999996)"></use><use href="#inescutcheon_burgCOA62" transform="translate(22.500000000000007 92.5) scale(0.44999999999999996)"></use><use href="#inescutcheon_burgCOA62" transform="translate(87.5 92.5) scale(0.44999999999999996)"></use></g><g fill="#fafafa" stroke="#000"><use href="#lozengeFaceted_burgCOA62" transform="translate(45 40) scale(0.22499999999999998)"></use><use href="#lozengeFaceted_burgCOA62" transform="translate(110 40) scale(0.22499999999999998)"></use><use href="#lozengeFaceted_burgCOA62" transform="translate(45 115) scale(0.22499999999999998)"></use><use href="#lozengeFaceted_burgCOA62" transform="translate(110 115) scale(0.22499999999999998)"></use></g></g>
        <path d="M150 115c-5 0-10-5-10-15s5-15 10-15c10 0 7 10 15 10 10 0 0-30 0-30-10-25-30-55-65-55S45 40 35 65c0 0-10 30 0 30 8 0 5-10 15-10 5 0 10 5 10 15s-5 15-10 15c-10 0-7-10-15-10-10 0 0 30 0 30 10 25 30 55 65 55s55-30 65-55c0 0 10-30 0-30-8 0-5 10-15 10z" fill="url(#backlight_burgCOA62)" stroke="#333"></path></svg>