<svg id="coa265109878" width="500" height="500" viewBox="0 10 200 200" xmlns="http://www.w3.org/2000/svg" xmlns:x="http://www.w3.org/1999/xlink"><defs><clipPath id="french_coa265109878"><path d="m 25,25 h 150 v 139.15 c 0,41.745 -66,18.15 -75,36.3 -9,-18.15 -75,5.445 -75,-36.3 v 0 z"/></clipPath><g id="lozengeFaceted_coa265109878"><polygon points="100 55 130 100 100 145 70 100"/><g fill="#000" stroke="none"><polygon points="100 100 130 100 100 55" opacity=".2"/><polygon points="100 100 70 100 100 145" opacity=".2"/><polygon points="100 100 130 100 100 145" opacity=".3"/></g></g><radialGradient id="backlight" cx="100%" cy="100%" r="150%"><stop stop-color="#fff" stop-opacity=".3" offset="0"/><stop stop-color="#fff" stop-opacity=".15" offset=".25"/><stop stop-color="#000" stop-opacity="0" offset="1"/></radialGradient></defs><g clip-path="url(#french_coa265109878)"><rect x="0" y="0" width="200" height="200" fill="#ffe066"/><g fill="#26c061" stroke="#000"><use x:href="#lozengeFaceted_coa265109878" transform="translate(6.25 0) scale(0.5)"/><use x:href="#lozengeFaceted_coa265109878" transform="translate(50 0) scale(0.5)"/><use x:href="#lozengeFaceted_coa265109878" transform="translate(93.75 0) scale(0.5)"/><use x:href="#lozengeFaceted_coa265109878" transform="translate(12.5 50) scale(0.5)"/><use x:href="#lozengeFaceted_coa265109878" transform="translate(87.5 50) scale(0.5)"/><use x:href="#lozengeFaceted_coa265109878" transform="translate(50 100) scale(0.5)"/></g></g><path d="m 25,25 h 150 v 139.15 c 0,41.745 -66,18.15 -75,36.3 -9,-18.15 -75,5.445 -75,-36.3 v 0 z" fill="url(#backlight)" stroke="#333"/></svg>