<svg id="coa403626827" width="500" height="500" viewBox="0 0 200 200" xmlns="http://www.w3.org/2000/svg" xmlns:x="http://www.w3.org/1999/xlink"><defs><clipPath id="pavise_coa403626827"><path d="M95 7L39.9 37.3a10 10 0 00-5.1 9.5L46 180c.4 5.2 3.7 10 9 10h90c5.3 0 9.6-4.8 10-10l10.6-133.2a10 10 0 00-5-9.5L105 7c-4.2-2.3-6.2-2.3-10 0z"/></clipPath><clipPath id="divisionClip_coa403626827"><rect x="0" y="100" width="200" height="100"/></clipPath><g id="carreau_coa403626827"><path stroke-width=".5" d="M100 59.8C94.4 75.1 86.2 88.6 75 100c11.2 11.4 19.4 24.9 25 40.2 5.6-15.3 13.8-28.8 25-40.2-11.2-11.4-19.4-24.9-25-40.2z"/></g><radialGradient id="backlight" cx="100%" cy="100%" r="150%"><stop stop-color="#fff" stop-opacity=".3" offset="0"/><stop stop-color="#fff" stop-opacity=".15" offset=".25"/><stop stop-color="#000" stop-opacity="0" offset="1"/></radialGradient></defs><g clip-path="url(#pavise_coa403626827)"><rect x="0" y="0" width="200" height="200" fill="#d7374a"/><g fill="#ffe066" stroke="#000"><use x:href="#carreau_coa403626827" transform="translate(25 20) scale(0.45)"/><use x:href="#carreau_coa403626827" transform="translate(55 17.5) scale(0.45)"/><use x:href="#carreau_coa403626827" transform="translate(85 20) scale(0.45)"/></g><g clip-path="url(#divisionClip_coa403626827)"><rect x="0" y="0" width="200" height="200" fill="#ffe066"/><g fill="#d7374a" stroke="#000"><use x:href="#carreau_coa403626827" transform="translate(25 20) scale(0.45)"/><use x:href="#carreau_coa403626827" transform="translate(55 17.5) scale(0.45)"/><use x:href="#carreau_coa403626827" transform="translate(85 20) scale(0.45)"/></g></g></g><path d="M95 7L39.9 37.3a10 10 0 00-5.1 9.5L46 180c.4 5.2 3.7 10 9 10h90c5.3 0 9.6-4.8 10-10l10.6-133.2a10 10 0 00-5-9.5L105 7c-4.2-2.3-6.2-2.3-10 0z" fill="url(#backlight)" stroke="#333"/></svg>