<svg id="coa123256330" width="500" height="500" viewBox="0 10 200 200" xmlns="http://www.w3.org/2000/svg" xmlns:x="http://www.w3.org/1999/xlink"><defs><clipPath id="french_coa123256330"><path d="m 25,25 h 150 v 139.15 c 0,41.745 -66,18.15 -75,36.3 -9,-18.15 -75,5.445 -75,-36.3 v 0 z"/></clipPath><clipPath id="divisionClip_coa123256330"><polygon points="0,0 100,100 200,0"/></clipPath><g id="trianglePierced_coa123256330"><path d="M100 60l35 70H65zm0 20l-20 40h40z"/></g><radialGradient id="backlight" cx="100%" cy="100%" r="150%"><stop stop-color="#fff" stop-opacity=".3" offset="0"/><stop stop-color="#fff" stop-opacity=".15" offset=".25"/><stop stop-color="#000" stop-opacity="0" offset="1"/></radialGradient></defs><g clip-path="url(#french_coa123256330)"><rect x="0" y="0" width="200" height="200" fill="#ffe066"/><g fill="#d7374a" stroke="#000"><use x:href="#trianglePierced_coa123256330" transform="translate(60 10) scale(0.4)"/><use x:href="#trianglePierced_coa123256330" transform="translate(16.25 60) scale(0.4)"/><use x:href="#trianglePierced_coa123256330" transform="translate(60 60) scale(0.4)"/><use x:href="#trianglePierced_coa123256330" transform="translate(103.75 60) scale(0.4)"/><use x:href="#trianglePierced_coa123256330" transform="translate(60 110) scale(0.4)"/></g><g clip-path="url(#divisionClip_coa123256330)"><rect x="0" y="0" width="200" height="200" fill="#d7374a"/><g fill="#ffe066" stroke="#000"><use x:href="#trianglePierced_coa123256330" transform="translate(60 10) scale(0.4)"/><use x:href="#trianglePierced_coa123256330" transform="translate(16.25 60) scale(0.4)"/><use x:href="#trianglePierced_coa123256330" transform="translate(60 60) scale(0.4)"/><use x:href="#trianglePierced_coa123256330" transform="translate(103.75 60) scale(0.4)"/><use x:href="#trianglePierced_coa123256330" transform="translate(60 110) scale(0.4)"/></g></g></g><path d="m 25,25 h 150 v 139.15 c 0,41.745 -66,18.15 -75,36.3 -9,-18.15 -75,5.445 -75,-36.3 v 0 z" fill="url(#backlight)" stroke="#333"/></svg>