<svg id="coa548385318" width="500" height="500" viewBox="0 0 200 200" xmlns="http://www.w3.org/2000/svg" xmlns:x="http://www.w3.org/1999/xlink"><defs><clipPath id="pavise_coa548385318"><path d="M95 7L39.9 37.3a10 10 0 00-5.1 9.5L46 180c.4 5.2 3.7 10 9 10h90c5.3 0 9.6-4.8 10-10l10.6-133.2a10 10 0 00-5-9.5L105 7c-4.2-2.3-6.2-2.3-10 0z"/></clipPath><clipPath id="divisionClip_coa548385318"><rect x="100" y="0" width="100" height="92.5"/><rect x="0" y="107.5" width="100" height="92.5"/><path d="m 0,95 a 6.25,6.25 0 0 0 12.5,0 6.25,6.25 0 0 0 12.5,0 6.25,6.25 0 0 0 12.5,0 6.25,6.25 0 0 0 12.5,0 6.25,6.25 0 0 0 12.5,0 6.25,6.25 0 0 0 12.5,0 6.25,6.25 0 0 0 12.5,0 6.25,6.25 0 0 0 12.5,0 6.25,6.25 0 0 0 12.5,0 6.25,6.25 0 0 0 12.5,0 6.25,6.25 0 0 0 12.5,0 6.25,6.25 0 0 0 12.5,0 6.25,6.25 0 0 0 12.5,0 6.25,6.25 0 0 0 12.5,0 6.25,6.25 0 0 0 12.5,0 6.25,6.25 0 0 0 12.5,0 v 20 H 0 Z" transform="translate(0 50) scale(.5001)"/><path d="m 0,95 a 6.25,6.25 0 0 0 12.5,0 6.25,6.25 0 0 0 12.5,0 6.25,6.25 0 0 0 12.5,0 6.25,6.25 0 0 0 12.5,0 6.25,6.25 0 0 0 12.5,0 6.25,6.25 0 0 0 12.5,0 6.25,6.25 0 0 0 12.5,0 6.25,6.25 0 0 0 12.5,0 6.25,6.25 0 0 0 12.5,0 6.25,6.25 0 0 0 12.5,0 6.25,6.25 0 0 0 12.5,0 6.25,6.25 0 0 0 12.5,0 6.25,6.25 0 0 0 12.5,0 6.25,6.25 0 0 0 12.5,0 6.25,6.25 0 0 0 12.5,0 6.25,6.25 0 0 0 12.5,0 v 20 H 0 Z" transform="translate(200 150) scale(-.5)"/></clipPath><g id="goutte_coa548385318"><path d="M100 134c17-1 16-19 10-25-1.9-1.8-4.6-5.3-3.9-8.1C108 94 102 90 102 87c-1-7 3-7 3-13-.1-6.2-3.3-8.7-6-12 1.2 3 2 6 1 9-1.5 5.9-6.2 6.9-8 11-2 5 3 11 3 15-.6 9.1-9 13-9 23 .3 11.3 9 14 14 14z"/></g><radialGradient id="backlight" cx="100%" cy="100%" r="150%"><stop stop-color="#fff" stop-opacity=".3" offset="0"/><stop stop-color="#fff" stop-opacity=".15" offset=".25"/><stop stop-color="#000" stop-opacity="0" offset="1"/></radialGradient></defs><g clip-path="url(#pavise_coa548385318)"><rect x="0" y="0" width="200" height="200" fill="#522d5b"/><g clip-path="url(#divisionClip_coa548385318)"><rect x="0" y="0" width="200" height="200" fill="#fafafa"/></g><g fill="#ffe066" stroke="#000"><use x:href="#goutte_coa548385318" transform="translate(-35 -35) scale(1.35)"/></g></g><path d="M95 7L39.9 37.3a10 10 0 00-5.1 9.5L46 180c.4 5.2 3.7 10 9 10h90c5.3 0 9.6-4.8 10-10l10.6-133.2a10 10 0 00-5-9.5L105 7c-4.2-2.3-6.2-2.3-10 0z" fill="url(#backlight)" stroke="#333"/></svg>