<svg id="coa769394628" width="500" height="500" viewBox="0 0 200 200" xmlns="http://www.w3.org/2000/svg" xmlns:x="http://www.w3.org/1999/xlink"><defs><clipPath id="pavise_coa769394628"><path d="M95 7L39.9 37.3a10 10 0 00-5.1 9.5L46 180c.4 5.2 3.7 10 9 10h90c5.3 0 9.6-4.8 10-10l10.6-133.2a10 10 0 00-5-9.5L105 7c-4.2-2.3-6.2-2.3-10 0z"/></clipPath><g id="crossMoline_coa769394628" stroke-width=".5"><path d="M104.3 74.9c0-6.4 2.7-11.4 5.1-14.8-4.1 0-7.2 2-9.4 4.9-2.2-2.9-5.3-4.9-9.4-4.9 2.5 3.4 5.1 8.4 5.1 14.8v20.8H74.9c-6.4 0-11.3-2.7-14.8-5.1 0 4.1 2 7.2 4.9 9.4-2.9 2.2-4.9 5.4-4.9 9.4 3.4-2.5 8.3-5.1 14.8-5.1h20.8v20.9c0 6.4-2.7 11.4-5.1 14.8 4.1 0 7.2-2 9.4-4.9 2.2 2.9 5.3 4.9 9.4 4.9-2.5-3.4-5.1-8.4-5.1-14.8v-20.9h20.8c6.4 0 11.3 2.7 14.8 5.1 0-4.1-2-7.2-4.9-9.4 2.9-2.2 4.9-5.4 4.9-9.4-3.4 2.5-8.3 5.1-14.8 5.1h-20.8z"/></g><radialGradient id="backlight" cx="100%" cy="100%" r="150%"><stop stop-color="#fff" stop-opacity=".3" offset="0"/><stop stop-color="#fff" stop-opacity=".15" offset=".25"/><stop stop-color="#000" stop-opacity="0" offset="1"/></radialGradient></defs><g clip-path="url(#pavise_coa769394628)"><rect x="0" y="0" width="200" height="200" fill="#d7374a"/><g fill="#fafafa" stroke="#000"><use x:href="#crossMoline_coa769394628" transform="translate(15 2.5) scale(0.45)"/><use x:href="#crossMoline_coa769394628" transform="translate(55 2.5) scale(0.45)"/><use x:href="#crossMoline_coa769394628" transform="translate(95 2.5) scale(0.45)"/></g></g><path d="M95 7L39.9 37.3a10 10 0 00-5.1 9.5L46 180c.4 5.2 3.7 10 9 10h90c5.3 0 9.6-4.8 10-10l10.6-133.2a10 10 0 00-5-9.5L105 7c-4.2-2.3-6.2-2.3-10 0z" fill="url(#backlight)" stroke="#333"/></svg>