<svg id="coa542991524" width="500" height="500" viewBox="0 10 200 200" xmlns="http://www.w3.org/2000/svg" xmlns:x="http://www.w3.org/1999/xlink"><defs><clipPath id="french_coa542991524"><path d="m 25,25 h 150 v 139.15 c 0,41.745 -66,18.15 -75,36.3 -9,-18.15 -75,5.445 -75,-36.3 v 0 z"/></clipPath><clipPath id="divisionClip_coa542991524"><polygon points="0,0 0,200 200,0 200,200"/></clipPath><g id="crossOrthodox_coa542991524" stroke-width=".5"><path d="m 95,60 h 10 v 8 h 10 v 10 h -10 v 7 h 25 v 10 h -25 v 27 l 10,5 v 9 l -10,-5 v 9 H 95 v -14 l -10,-5 v -9 l 10,5 V 95 H 70 V 85 H 95 V 78 H 85 V 68 h 10 z"/></g><g id="greyhoundSejant_coa542991524" stroke-width=".36"><path d="M80.18 136.12c.15 0 .15-.64 1.12-1.11.62-.33 1.53-.15 1.53-.15l.29-1.63-2.86-.67-2.12-.6-1.17.34s-.26.02-.44.87c-.13.6.08 1.59.35 1.59.15 0 .37-.84 1.45-1.36-.03.06-.05.2-.05.2-.18.84-.06 1.8.2 1.8.16 0 .5-.85 1.58-1.36.02-.02-.1.16-.14.4-.18.84-.02 1.68.26 1.68"/><path d="M100.4 136.12c.15 0 .15-.64 1.12-1.11.62-.33 1.53-.15 1.53-.15l.29-1.63-2.86-.67-2.12-.6-1.17.34s-.26.02-.44.87c-.13.6.08 1.59.35 1.59.15 0 .37-.84 1.45-1.36-.03.06-.05.2-.05.2-.18.84-.06 1.8.2 1.8.16 0 .5-.85 1.58-1.36.02-.02-.1.16-.14.4-.18.84 0 1.68.26 1.68"/><path d="M98.79 132.79c-.04 0-.53-.3-.91-.45-.82-.14-.88.15-.9.15-.09 0-.33-.36-.2-.7s.33-.61.76-.61c.6-.1.89-.36 1.33-.48.65-.17 1.4.26 1.89.23.49-.04-.69.8-.77 1-.07.2-1.2.86-1.2.86z"/><path d="M113.4 122.95c.54-1.62.58-3.36.62-5.07.03-1.62.03-3.34-.82-4.72-1.1-1.78-3.26-2.49-5.27-3.08-1.76-.51-3.57-1.03-5.4-.87-2.27.2-2.06 1.08-2.99 2.82-.7 1.32-3.3 2.24-3.6 4.03a8.64 8.64 0 00.12 4.03 18.36 18.36 0 002.37 5.47c.63.93 1.4 1.76 2.17 2.58.37.4 1.24.93 1.76 1.12.45.17.9.23 1.35.42.26.12.55.24.81.14.05 0 .1-.03.15-.02.07.02.1.1.13.16.1.16.34.21.54.21.2-.01.4-.05.6 0 .16.05.29.15.43.24a2 2 0 001.93.05.47.47 0 01.22-.05c.23.03.44.03.67 0a.4.4 0 01.41.25c.1.26.13.6-.28.71-1.2.4-4.17.2-5.26.07-.6-.06-2.22-.57-2.85-.56-.62.01-.96.26-1.49.5-.03 0-.45-.1-.81.42a.85.85 0 00-.16.32.4.4 0 00.42.51c.33-.03.85.07 1.63.69l.08.07.04.03s.38-.25.9-.03l.05.02c.75.45.95 1.03 1.01 1.29.04.15.16.27.31.3.12.03.28.04.5 0 .23-.03.68-.17.87-.4a.4.4 0 01.36-.16c.3.03.54.2.88.28.42.1.97-.25 1.3-.02.15.1.78.2 1.2.15.9-.1 1.65-.48 2.58-.44.6.02 1.2.18 1.8.19.17 0 .34-.04.5-.12.21-.1.34-.22.6-.24.4-.05.76-.17 1.15-.25.48-.1 1.04-.03 1.53-.03.15 0 .3 0 .45-.02.42-.05.9-.32 1-.77.09-.43-.26-.87-.41-1.26-.17-.4-.1-1.02 0-1.51a.4.4 0 01.75-.1"/><path d="M81.32 75.79s-2.86-1.42-5.33-1.3c-2.6.13-4.08 1.38-5.51 1.45-2.68.16-2.84-.98-3.12-.97-.2.06-.1.8.23 1.07.32.28 1.19 1.07 3.05.98 2.26-.12 3.3-1.18 5.48-1.3a9.18 9.18 0 015.06 1.3"/><path fill="#F6F6F6" stroke-width=".26" d="M72.24 76.03c-.08-.03-.56.79-.6 1.44l.06-.03c.24-.1.45-.12.65-.1-.08-.48-.03-1.29-.1-1.31z"/><path fill="#F6F6F6" stroke-width=".26" d="M71.56 74.83c.12-.1-.42-.67-.68-1.37a.95.95 0 01-.08-.35c-.28.03-.56.1-.87.07-.06 0-.27.02-.31 0 .26.5 1.14 1.65 1.94 1.65z"/><path d="M90.96 66.5c-.62-.9-.96-3.91-2.65-3.68-1.32.19-2.11.2-2.94.8a5.45 5.45 0 00-1.35 1.45"/><path d="M89.57 109.56a3.3 3.3 0 01.69-3.33c.26-.27.57-.51.75-.85.31-.56.17-1.26.01-1.88-.22-.9-.5-1.78-.8-2.64-.17-.48-.37-1-.8-1.29a1.93 1.93 0 00-1.29-.23c-.87.08-1.71.35-2.55.62-1.84.58-2.63 1.3-3.68 2.92-1.09 1.7-1.82 3.47-1.8 5.32 0 1.78.06 3.52.2 5.3v.02c0 1.57 1 4.46 1 5.64-.04 4.47-.25 5.94-.25 6.8 0 .55-.12 1.63-.12 2.02l-.01.08c-.05.2-.25 1-.56 1.7l-.04.05c-.8 1.25-1.94.2-2.92 1.13a.46.46 0 01-.2.1c-.36.07-.52.44-.65.74-.13.34.11.7.2.7.02 0 .17-.28.83-.16l.11.04.66.32c.11.05.23.05.34.01.25-.1.85-.19 1.88.63l.07.07.05.03s.37-.25.89-.03l.06.02c.72.43.94.99 1 1.25.03.14.15.26.3.3.12.02.27.05.5.05.52 0 .72.08 1.13-.22.61-.45.47-.32.9-1.14 0 0 .49-1.07.49-1.98s-.38-2.39-.47-2.96c0 0-.12-.95-.18-2.25s.83-6.28 1.32-7.72c.41-1.2.99-3.4 2.19-4.3.3-.23.66-1 .85-1.43l.01-.03c.18-.53.4-1.9-.62-2.49l-.04-.02s0 0 0 0c-.36-.3 0-.87.43-.67"/><path d="M102.11 115.78a4.84 4.84 0 00-1.05-.72c-1.35-.62-3.14-.85-3.14-.85s-.72-.05-.7-.48a.6.6 0 01.33-.53c.78-.37 2.82-.48 2.82-.48"/><path d="M82.12 137.34c.16 0 .16-.65 1.13-1.12.61-.32 1.52-.14 1.52-.14l.29-1.64-2.86-.67-2.12-.6-1.16.34s-.27.02-.45.87c-.13.6.09 1.59.35 1.59.16 0 .37-.84 1.45-1.36l-.05.2c-.18.85-.06 1.8.2 1.8.16 0 .5-.85 1.58-1.36.02-.01-.1.17-.13.4-.18.85-.01 1.69.25 1.69"/><path d="M102.82 137.34c.16 0 .16-.65 1.13-1.12.61-.32 1.52-.14 1.52-.14l.29-1.64-2.86-.67-2.12-.6-1.16.34s-.27.02-.45.87c-.13.6.09 1.59.35 1.59.16 0 .37-.84 1.45-1.36l-.05.2c-.18.85-.06 1.8.2 1.8.16 0 .5-.85 1.58-1.36.02-.01-.1.17-.13.4-.18.85-.01 1.69.25 1.69"/><path d="M101.21 133.99c-.03 0-.53-.3-.91-.45-.82-.14-.88.15-.9.15-.08 0-.32-.36-.2-.7s.33-.61.76-.61c.6-.1.9-.36 1.34-.48.64-.17 1.39.26 1.88.23.5-.04-.68.8-.77 1-.07.21-1.2.86-1.2.86z"/><path d="M127.14 102.3c-.1-3.58 1.17-6.18.78-6.65-.58-.09-3.18 2.8-3.18 7.9 0 11.33 7.74 15.1 7.74 21.37 0 3.51-1.92 5.8-5.17 5.8-.67 0-1.34-.1-1.97-.32a4.97 4.97 0 01-2.9-3.14 7.83 7.83 0 01-.38-1.97c-.04-.6.02-1.21 0-1.81-.04-.63-.11-1.26-.2-1.88-.45-3.2-1.96-7.34-4.06-9.8-3.56-4.18-8.44-7.21-10.97-9.64-4.67-4.48-6.78-7.02-8.77-12.06-1.25-3.14-1.74-5.73-2.32-7.66-.84-3.46-.12-6.64-.37-8.84s-.43-3.14-1.54-4.8c-1.1-1.65-1.68-1.86-2.36-2.31-1.29-.87-2.76-1.73-4.78-1.72-.73.03-1.27-.18-1.74-.19-.59-.01-1.03-.16-1.94-.02-.63.12-1.4.32-2.15.52a4.8 4.8 0 00-2.2.58c-.56.47-.6.53-.84.77-.27.19-1.17.79-2.83 1.19-1.65.4-2.16.24-3.83.57-1 .2-2.32.66-2.64.7-.32.02-1.41.15-1.76.43-.23.14-.26.5-.31.7-.05.24.1.82.37 1.1.18.26.04.5.34.82.15.18.24.24.75.57.54.35.8.93 1.49.97.25.02.8-.14 1.07-.14.65 0 2.3.4 2.69.5.6.06 1.24-.55 2.12-.56.68-.01 1.25.3 1.52.34.26.02 1.04.27 1.29.33.51.12 1.6.64 2.05.89.23.12 1.4 1.64 1.18 2.06-.22.42-2.67-.33-3.83-.2-1.18.14-1.21 0-1.7.08s-.76.32-1.2.38c-.3.03-.5.07-.8.06-.3-.02-.59.19-.89.18-.28 0-.68-.05-.98-.04-.26.01-.5.06-.74.18-.15.06-.28.2-.2.4.04.12.3.25.41.28.35.11.77.34 1.13.32.31-.05.68-.17 1.08-.18.46-.02.73 0 1.21-.05.3-.03.7.1 1.01.07.65-.06 1.46-.29 1.9-.23.43.06 1 .25 1.42.34.62.12 1.04.1 1.56.19.57.1 1.01-.01 1.5.24.96.5.32.32 1.76.47 0 0 .26 1.6-.39 3.19-1.03 2-2.04 2.2-3.01 3.5-.97 1.52-2.86 3.12-2.93 5.76a7.97 7.97 0 00-.23 6.96c.3 1.13-.08 2.37.5 3.36.49.84.9 1.74 1.45 2.56.55.82 1.04 1.42 1.7 2.14.46.5 1.2.74 1.2.74-.36 2.8-.03 5.87.06 7.12 0 1.57 1.01 4.47 1 5.65-.04 4.47-.24 5.94-.24 6.8 0 .58-.13 1.73-.12 2.05 0 0-.23.99-.59 1.78-.82 1.33-2.02.17-3.01 1.25-.45 0-.63.42-.76.75-.13.34.11.7.2.7.02 0 .19-.29.9-.14l.9.44s.6-.6 2.07.58c.01.03.07.07.07.07s.4-.27.91-.03c1.02.6 1.06 1.44 1.06 1.44s.1.18.78.18c.52 0 .72.09 1.13-.21.61-.46.47-.33.9-1.14 0 0 .49-1.07.49-1.98s-.38-2.39-.47-2.97c0 0-.12-.94-.18-2.24-.06-1.3.83-6.29 1.32-7.73.41-1.2.99-3.4 2.19-4.3.3-.22.67-1.01.85-1.45.18-.51.4-1.93-.64-2.5 0 0-.62-.45-.17-.99 3.27 1.93 7.3.28 10.23 3.18-1.87.93-2.79 1.7-3.03 3.13a9.8 9.8 0 00.48 4.28 18.36 18.36 0 002.37 5.47c.63.92 1.4 1.75 2.17 2.58.37.4 1.24.92 1.76 1.11.45.17.9.23 1.35.42.26.12.55.24.81.15.05-.01.1-.04.15-.03.07.03.1.1.13.16.1.17.34.22.54.22.2-.02.4-.05.6 0 .16.04.29.14.43.24a2 2 0 002.04-.02c.35.06.7.04 1.05-.02 0 0 .54.83-.14 1-1.2.4-4.17.19-5.26.07-.6-.06-2.22-.58-2.85-.57-.62.02-.96.27-1.49.5-.03 0-.45-.1-.81.43-.24.3-.28.95-.13.97 0 0 .6-.6 2.07.58.01.03.07.07.07.07s.4-.27.92-.03c1.02.6 1.05 1.44 1.05 1.44s.11.28.78.18c.29-.04.85-.22.95-.55.44-.1.72.17 1.15.27.42.1.97-.26 1.31-.03.14.1.78.2 1.2.16.89-.1 1.64-.48 2.58-.45.58.03 1.14.17 1.72.18.15 0 .3 0 .45-.06.28-.1.42-.26.72-.3.41-.04.77-.16 1.15-.25.48-.1 1.05-.02 1.54-.02.14 0 .3 0 .44-.03.42-.04.9-.32 1-.76.1-.44-.25-.88-.4-1.26-.3-.72.18-2.25.18-2.25.42.27.41.34.64.78.35.67 1 1.19 1.73 1.33.59.84 1.43.69 1.73.87.1.05.16.12.25.18.9.65 2.07.21 3.08.19a7.82 7.82 0 006.36-3.64 10.15 10.15 0 001.56-5.68c-.1-9.03-8.39-10.73-8.39-22.62z"/><path d="M92.22 67.68c.6-.17 1.54-.2 1.9-.39.82-.44 1.75-.32 2.34-.65s3.1-.48 3.22-1.22c.13-.73-2.75-1.06-2.75-1.06s-1.67-.37-3.31-.54c-1.34-.14-2.25-.48-3.2-.1-.81.33-1.77.26-2.3 1.23-.17.31-.38.7-.58 1.01"/><path fill="#F6F6F6" d="M80.85 67.94c-.13.22-.67.4-1.1.44-.44.05-.8-.06-.88-.32-.22-.46.24-1.06.51-1.04.28-.03 1.04.51 1.47.92z"/><g fill="none"><path d="M80.06 131.38c-.03.03-.88-.1-1.24.44-.24.3-.4.94-.25.97"/><path d="M98.55 133.4c0-.08.13-.64.36-.76"/><path d="M101.04 113.9c1.13-.34 1.98-.74 3.8-.8 1.1-.02 2.65.36 4 1"/><path d="M82 132.6c-.02.02-.88-.1-1.24.43-.24.3-.4.95-.25.97"/><path d="M82.88 129.22c-.06 1.37-.39 2.81-.88 3.38"/><path d="M102.71 135.25s.22-.36.65-.61"/><path d="M100.97 134.61c0-.08.13-.63.36-.75"/><path d="M82.02 102.7c-.08.68-.18 1.86-.07 2.87.09.8.36 1.25.23 2.03"/><path d="M90.82 110.72c.76-1.73 1.84-3.61 2.02-6.65v-.27"/><path d="M82.01 135.25s.22-.36.65-.61"/><path d="M80.27 134.61c0-.08.13-.63.36-.75"/></g><g fill="#000" stroke="none"><path d="M88.7 68.6c0-.4-.1-.8.2-1.1.7-.8.9-1.9 1.7-2.7.7-.5 1.6-.2 2.4-.2.8.1 1.5.3 2.3.3.8-.1 1.5.2 2.3.3-.8 0-1.6-.1-2.3-.1h-1.9c-.8-.1-1.6-.4-2.4-.1-.8.5-.9 1.4-1.5 2-.4.5-.9 1-.8 1.6z"/><path d="M99.75 131.2l.06.02h.07l.1.03.25.06.27.1c.18.07.35.17.47.25.12.08.18.16.18.16l-.02.02-.2-.1a3 3 0 00-.49-.15l-.26-.04h-.44v-.35z"/><path d="M97.56 130.99l.05.01.13.02c.11.03.26.05.4.1s.28.1.37.17c.05.02.09.06.11.08l.04.04-.03.02-.03-.02c-.03-.01-.06-.04-.11-.05-.1-.04-.23-.05-.37-.05l-.38.01-.13.02h-.05V131z"/><path d="M100.18 133.54l-.07.06-.09.06a.6.6 0 00-.1.09l-.11.1-.13.1-.14.12c-.04.04-.08.09-.13.12-.05.04-.08.09-.13.12l-.12.12-.2.23-.2.24-.04-.01s0-.13.1-.31c.04-.09.09-.2.16-.3l.12-.14.13-.13.15-.12.15-.1a.65.65 0 01.16-.09l.14-.06c.09-.04.17-.06.22-.07.1-.04.12-.04.13-.03z"/><path d="M98.3 133.08l-.05.06-.15.13-.19.18-.21.21-.41.41-.2.2-.03-.02s.02-.12.1-.26a2.05 2.05 0 01.62-.68l.13-.08c.04-.02.09-.03.12-.06a.99.99 0 01.2-.07c.03-.02.07-.02.07-.02z"/><path d="M80.08 131.2l.06.02c.04.02.1 0 .17.03.07.01.15.04.24.07s.17.08.25.12a1.65 1.65 0 01.42.32c.1.1.14.19.14.19l-.03.02-.04-.05-.12-.1-.19-.1c-.07-.04-.16-.06-.24-.08-.08-.03-.17-.04-.24-.05l-.22-.01h-.21l.01-.38z"/><path d="M77.34 130.84l.05.02c.04 0 .07 0 .13.02.06.01.14.02.2.05l.22.08c.15.06.28.16.36.24l.09.11c.02.02.02.05.02.05l-.03.01-.04-.04a.42.42 0 00-.1-.07.85.85 0 00-.37-.12l-.2-.01h-.18l-.13.01h-.05l.03-.35z"/><path d="M78.08 133.08l-.05.06-.15.13-.19.18-.21.21-.41.41-.2.2-.03-.02s.02-.12.1-.26a2.05 2.05 0 01.62-.68l.13-.08c.04-.02.09-.03.12-.06a.99.99 0 01.2-.07c.03-.02.05-.02.07-.02z"/><path d="M81.62 130.34v-.1a4.1 4.1 0 00.07-.46l.03-.2c.03-.14.05-.3.06-.44.03-.14.04-.29.06-.43a.7.7 0 00.03-.2l.02-.19a5.5 5.5 0 01.06-.38l.03.1.04.28c.02.12.03.26.03.4l-.01.23-.03.23c-.01.07-.02.15-.05.22 0 .08-.03.15-.06.22a2.28 2.28 0 01-.26.62c0 .06-.02.1-.02.1z"/><path d="M119.98 131.04l-.02-.03-.03-.02-.01-.01-.02-.03-.09-.13-.07-.16c-.05-.1-.08-.24-.13-.37a4.3 4.3 0 01-.13-.42l-.15-.4c-.05-.14-.1-.26-.15-.35l-.08-.14-.07-.1-.07-.06.08.06.09.08.1.12c.07.1.14.2.2.32l.2.4.2.4c.05.12.11.24.17.32a1.06 1.06 0 00.12.18l.02.01v.01l.03.03.03.01-.22.28z"/><path d="M88.28 86.94s.02.1 0 .24c0 .07-.03.14-.05.22l-.06.12c-.03.04-.05.08-.09.11l-.1.1-.1.08-.1.06-.13.04c-.08.01-.15 0-.19-.03-.02 0-.04-.02-.04-.03v-.01l.05-.03c.04-.01.06-.05.1-.1l.05-.07a.36.36 0 01.06-.08c.04-.06.1-.1.14-.17l.3-.3.12-.1c.01-.04.04-.05.04-.05z"/><path d="M89.63 87.78v.1l-.02.14-.04.16a.57.57 0 01-.07.18l-.1.2-.15.19-.17.18c-.06.06-.12.1-.2.15a.78.78 0 01-.2.14l-.2.1-.2.05-.16.04-.13.01h-.11l.08-.07.23-.17.15-.1c.04-.04.1-.1.15-.13l.16-.13.15-.14.16-.16.14-.16.14-.14.12-.14.18-.22.1-.08z"/><path d="M77.4 91.76l.09-.16.1-.18.16-.22c.06-.08.13-.17.22-.24.08-.09.17-.16.26-.24l.28-.23.25-.27a5.62 5.62 0 01.98-.98l.5-.4-.46.44c-.13.13-.29.28-.44.46a5.24 5.24 0 00-.45.58c-.07.1-.15.22-.24.31l-.25.27-.23.24c-.07.07-.12.15-.17.22l-.12.22a.64.64 0 00-.07.17l-.06.15-.35-.14z"/><path d="M108.92 113.94l.15.08.18.1.23.13.26.17.3.2.3.23.28.25.14.13.14.15.24.28.1.15.1.14.16.27c.03.08.08.16.1.24l.06.19.05.17-.06-.17c-.01-.05-.05-.11-.08-.18-.03-.07-.09-.15-.12-.23a1.95 1.95 0 00-.18-.25l-.11-.13-.12-.14-.26-.25-.15-.12-.14-.12-.3-.21-.3-.2-.29-.16-.26-.15-.23-.1-.18-.09-.16-.07.15-.31z"/><path d="M111.87 131.42l.6-.08.14-.03h.11c.04 0 .07.01.1.03.15.04.24.15.32.22.16.17.32.33.5.47.2.15.4.25.6.31a41.4 41.4 0 001.2.22l-.6-.05c-.18-.01-.4-.02-.62-.07a2.22 2.22 0 01-.68-.28 3.27 3.27 0 01-.58-.44.6.6 0 00-.22-.14h-.1l-.12.03-.6.15-.05-.34z"/><path d="M110.66 126.22l.07.15.08.17.11.2c.04.07.1.14.14.23l.18.24c.08.07.14.15.22.24l.24.23.26.2.27.18.26.14c.09.04.17.09.25.11l.22.09.18.06.16.04-.17.03-.2.01h-.11l-.14-.01c-.04-.01-.1-.01-.14-.03l-.16-.03-.3-.11c-.12-.05-.22-.1-.32-.17l-.3-.21a2.74 2.74 0 01-.48-.56c-.06-.1-.12-.19-.16-.3-.02-.04-.03-.1-.06-.14 0-.05-.02-.1-.04-.13l-.04-.13-.02-.12-.03-.2.03-.18z"/><path d="M112.98 127.2l.05.15.11.37c.1.3.22.69.42 1.02.05.09.1.16.17.24l.18.22a1.8 1.8 0 00.4.31l.17.1.16.06.1.03.04.02h-.03l-.11.02h-.18l-.1-.01c-.04-.01-.08-.03-.13-.03a2.16 2.16 0 01-.25-.1c-.08-.04-.18-.09-.26-.16a1.43 1.43 0 01-.24-.23 2.06 2.06 0 01-.46-.89 1.3 1.3 0 01-.05-.3l-.01-.26.02-.4v-.15z"/><path d="M114.28 128.97c.08.17.18.33.28.47a5.62 5.62 0 00.7.82c.06.06.12.12.2.16l.21.16.22.14a1 1 0 00.23.12c.08.04.15.08.24.11l.24.09c.16.04.33.08.5.1.17.03.35.03.53.04h.01c.06 0 .12.05.13.1l.05.18.07.15a1 1 0 00.1.15c.03.04.07.1.12.13l.07.06.07.06.07.05.09.04.18.08.1.02.09.02c-.06.02-.13.02-.2.02l-.2-.03a.53.53 0 01-.19-.07l-.1-.05-.08-.06c-.06-.03-.1-.08-.15-.13l-.15-.16-.1-.18a.72.72 0 01-.09-.2l.16.1a3.08 3.08 0 01-1.16-.08c-.1-.02-.19-.06-.27-.1l-.27-.11-.25-.15c-.08-.04-.17-.1-.24-.16l-.21-.2c-.08-.07-.15-.13-.2-.2-.14-.14-.25-.3-.36-.46-.22-.3-.37-.66-.44-1.03z"/><path d="M113.67 117.52l.05.1c0 .04.03.07.03.12l.04.17v.1l-.01.1c0 .07-.03.15-.05.23-.03.07-.05.16-.1.22-.03.07-.08.14-.12.2-.18.26-.4.47-.59.61l-.21.17-.09.06.04-.1a2.1 2.1 0 01.31-.6l.25-.36.12-.16.05-.09.05-.08.08-.17c.03-.06.05-.1.06-.16.03-.04.03-.1.04-.14l.02-.12.03-.1z"/><path d="M114.71 119.06l.03.08.02.23a1.47 1.47 0 01-.16.65l-.08.16-.1.14c-.07.08-.14.17-.21.23a.7.7 0 01-.2.12l-.08.03.03-.08c0-.05.04-.12.07-.2.06-.16.15-.36.25-.56l.28-.54.1-.18.05-.08z"/><path d="M93.93 104.25v.12l.01.12c.01.07.02.16.05.23l.08.2.11.2.06.08.07.08.07.08.09.07.18.12.19.08c.06.03.13.04.22.05a.7.7 0 01.28.13.7.7 0 01.18.25l.05.12.04.11.14.46.13.45-.2-.1a.6.6 0 01.29 0 .8.8 0 01.42.27c.05.06.1.12.13.2.04.05.07.13.1.19l.08.19a1.31 1.31 0 00.23.35.83.83 0 01-.33-.3l-.13-.16-.12-.17a1.2 1.2 0 00-.27-.24.4.4 0 00-.16-.05h-.07l-.06.02c-.09.02-.17-.02-.2-.1v-.01l-.16-.45-.16-.44-.03-.1-.04-.1a.37.37 0 00-.08-.14.27.27 0 00-.15-.06l-.24-.08a1.5 1.5 0 01-.24-.12 1.38 1.38 0 01-.29-.26l-.08-.11-.07-.11a1.44 1.44 0 01-.2-.59c0-.08 0-.17.02-.25l.02-.12.04-.1z"/><path d="M97.58 109.2v.06c0 .03 0 .07.02.12l.08.16.16.18c.13.11.31.22.52.27l.08.02.08.01.17.04.37.06c.14.02.27.05.39.1l.19.07a.2.2 0 01.08.05c.03 0 .06.03.09.04.21.14.38.3.51.44.14.13.24.25.33.32l.13.12s-.06-.01-.17-.06c-.1-.05-.25-.12-.4-.23-.17-.1-.35-.21-.55-.31l-.07-.04-.08-.03-.16-.05-.35-.07-.37-.07-.19-.05c-.04-.01-.06-.03-.1-.03-.03 0-.04-.02-.08-.03-.25-.1-.44-.27-.56-.43a.95.95 0 01-.12-.26c-.03-.08-.03-.15-.03-.21s.01-.11.03-.13v-.05z"/><path d="M81 104.84v.13l.03.15.03.19.06.21.09.24a4.99 4.99 0 00.98 1.6l.09.1-.28.22-.08-.1-.2-.3a5.37 5.37 0 01-.46-.94l-.17-.54c-.03-.08-.04-.17-.05-.25l-.04-.23v-.34c-.02-.1 0-.14 0-.14z"/><path d="M119.54 120.43l.03.24a5.52 5.52 0 01.09 1.02l.02.45.01.5v.5l-.01.5-.01.5-.03.45v.4c.02.24.06.44.12.57.03.08.06.12.09.16l.03.05-.04-.04c-.02-.01-.04-.02-.06-.05l-.08-.07a1.5 1.5 0 01-.26-.59 4.42 4.42 0 01-.06-.42l-.02-.46-.02-.5v-.5c0-.17 0-.34.02-.5v-.5l.03-.45.04-.41.07-.61.04-.24z"/><path d="M118.31 121.3l-.03-.14c-.03-.08-.05-.2-.08-.35l-.22-1-.27-1.01a2.08 2.08 0 00-.1-.34l-.03-.13.1.1.1.11.11.17c.09.12.17.28.24.45l.11.26a2.6 2.6 0 01.14.58l.04.28.01.27-.01.24-.02.2-.04.16-.05.14z"/><path d="M102.17 132.4l.06.02h.07l.1.03.25.06.28.1c.18.07.35.17.47.25.12.08.18.16.18.16l-.03.02-.2-.1a3 3 0 00-.48-.15l-.27-.04h-.44l.01-.35z"/><path d="M99.99 132.2l.05.01.13.03c.1.02.25.04.4.1.14.04.27.1.37.16l.1.08.04.04-.02.02-.04-.02-.1-.05a1.4 1.4 0 00-.38-.05c-.13 0-.28 0-.37.02h-.13c-.04 0-.05.02-.05.02v-.36z"/><path d="M103.1 134.61a.45.45 0 010-.18.7.7 0 01.02-.17 1.06 1.06 0 01.22-.46l.12-.14.13-.1.13-.09a2.2 2.2 0 01.6-.26c.06-.01.1-.03.17-.03h.17a.7.7 0 01.16.03c.06.01.11.02.17.05h-.01l.22.07.2.08.2.1c.08.03.14.07.2.12l.18.14.15.16c.05.06.1.12.13.18.04.06.08.13.1.2l-.04.01-.3-.27-.18-.12a.36.36 0 01-.08-.06l-.08-.05a1.31 1.31 0 00-.18-.1c-.06-.02-.12-.06-.2-.08a1.18 1.18 0 00-.19-.06l-.2-.05h-.01a.43.43 0 00-.12-.02l-.12-.01h-.12l-.12.03c-.17.05-.34.13-.48.23l-.12.08a.6.6 0 00-.1.09l-.08.08c-.03.04-.05.06-.06.1a.74.74 0 00-.09.23l-.01.12v.12l-.38.03z"/><path d="M104.81 133.2l.16-.05.19-.06.26-.05.32-.04h.34l.36.03c.12 0 .26.03.38.05l.36.07c.12.02.24.06.34.1l.33.1.27.11c.17.07.32.14.4.2l.14.1v.04l-.6-.15a12.66 12.66 0 00-.6-.14l-.34-.07c-.12-.03-.24-.04-.35-.05l-.35-.04-.34-.01-.3.01-.28.04-.23.05c-.07 0-.13.03-.18.04l-.16.05-.12-.33z"/><path d="M104.81 135.62l-.36.08c-.05.02-.1.04-.17.05l-.18.06a.9.9 0 00-.18.09c-.06.02-.12.06-.18.1l-.16.11-.16.13-.28.24-.27.26-.04-.03s.05-.14.18-.33a2.15 2.15 0 01.42-.46c.06-.05.11-.1.2-.14a.9.9 0 01.21-.11c.07-.04.14-.05.22-.07.07-.03.14-.03.2-.04l.18-.01c.23.02.38.06.37.07z"/><path d="M102.6 134.76l-.07.06c-.02 0-.05.03-.08.06a.6.6 0 00-.1.08c-.03.04-.07.06-.12.1l-.13.1-.13.12-.13.12-.14.12a.46.46 0 01-.12.12l-.2.23-.2.24-.04-.01s.01-.13.1-.31l.16-.29.12-.14.14-.14.14-.12.16-.1c.04-.04.1-.06.15-.09l.15-.06.21-.07c.1-.04.12-.04.13-.02z"/><path d="M100.72 134.29l-.05.06-.14.13-.2.18-.21.22c-.14.14-.3.28-.4.4l-.2.2-.04-.02s.03-.12.1-.26c.04-.07.08-.16.16-.24a2.05 2.05 0 01.46-.44l.14-.08.12-.06a.99.99 0 01.19-.07c.03-.02.07-.02.07-.02z"/><path d="M122.32 133.12l-.04-.06-.08-.16a4.8 4.8 0 01-.2-.52 1.2 1.2 0 01-.04-.29v-.13l.01-.12c0-.04.03-.07.03-.1l.03-.07.04-.06-.01.06c-.02.03-.02.05-.02.07v.1c0 .04 0 .07.02.1 0 .04 0 .1.03.13.03.08.06.17.11.25.08.17.2.32.28.43l.1.13a.2.2 0 01.04.05l-.3.2z"/><path d="M107 129c1 0 1 1 1 1l-1-1z"/><path d="M110.32 130.54l.25.16c.16.1.36.22.55.36a1.9 1.9 0 00.56.29c.08.02.15.05.2.05h.07l-.1.36-.09-.04a2.67 2.67 0 01-.48-.28c-.1-.07-.18-.15-.28-.24l-.48-.45-.2-.2z"/><path d="M112.95 135.45l.08-.01.1-.01c.03-.01.07-.01.1-.03.04 0 .09-.02.14-.04.05-.03.1-.04.14-.08a1 1 0 00.15-.1c.04-.03.1-.06.14-.11l.26-.25.14-.12.12-.11.1-.07.09-.05.08-.04-.07.05a.32.32 0 00-.07.06l-.1.1-.1.12-.09.14-.23.31-.13.16-.14.13c-.05.05-.11.07-.16.1a.9.9 0 01-.14.1.73.73 0 01-.15.05l-.1.04-.08.02-.08-.36z"/><path d="M115.85 135.38l.05-.04.12-.1a11.47 11.47 0 01.74-.64l.15-.08.06-.03s-.03.01-.05.04l-.1.1c-.1.1-.2.25-.3.4l-.26.42-.1.15-.03.04-.28-.26z"/><path d="M109.17 135.81v-.02l.01-.03.02-.06c.02 0 .02-.02.03-.03l.02-.03c.01 0 .04-.03.05-.06l.12-.1c.18-.11.42-.18.66-.26l.35-.1c.1-.03.21-.05.29-.09.08-.03.14-.08.19-.12.02-.01.03-.03.05-.03v-.02.03s-.03.02-.04.05l-.17.15c-.07.06-.18.11-.27.16l-.33.15c-.21.11-.43.23-.54.34a.32.32 0 00-.06.07l-.01.03v.06l-.37-.09z"/><path d="M82.74 99.1l-.02-.08c-.01-.05-.04-.1-.05-.2l-.06-.3c-.01-.12-.03-.26-.03-.41-.02-.15 0-.31 0-.48s.04-.35.08-.53a5.57 5.57 0 01.37-1.12l.15-.26.15-.25a8.38 8.38 0 011.58-1.64l.22-.16-.17.2-.45.54c-.1.11-.2.23-.29.36l-.31.41c-.11.14-.2.3-.3.46l-.15.24-.12.25c-.08.17-.15.33-.21.51l-.17.52c-.05.17-.08.34-.1.5l-.08.45-.04.38v.6z"/><path d="M89.43 106.77l.1-.1c.08-.05.16-.14.28-.23.23-.2.5-.47.77-.76l.37-.43c.06-.07.11-.15.17-.2l.13-.19c.06-.12.09-.24.11-.32l.02-.14s.03.04.05.14c.01.05.03.1.03.17 0 .06 0 .14-.02.23s-.06.18-.1.25l-.12.25-.17.25a1.6 1.6 0 01-.2.24c-.08.07-.15.16-.23.22l-.24.19-.24.16-.23.12c-.15.07-.27.1-.35.13l-.13.02z"/><path d="M88.31 107.28l-.08-.03a.94.94 0 01-.42-.31.98.98 0 01-.2-.4c0-.02 0-.06-.02-.08l-.02-.17.01-.3c.01-.09.04-.15.05-.2.01-.05.03-.07.03-.07l.04.07.08.19.09.26c.01.05.02.1.05.15l.02.07.02.07c.06.18.15.36.22.5.04.08.07.14.08.19.04.03.05.06.05.06z"/><path d="M86.86 106.6h-.07a.27.27 0 01-.18-.1 1.06 1.06 0 01-.28-.44c-.06-.16-.1-.34-.1-.48 0-.07 0-.13.02-.16l.01-.08.06.05.12.13c.08.11.18.27.24.44l.07.25a6.85 6.85 0 00.09.35l.02.03z"/><path d="M85.62 106.16l-.06-.06c-.03-.04-.1-.1-.14-.17a1.1 1.1 0 01-.16-.26l-.12-.33c0-.06-.02-.12-.03-.16l-.01-.17v-.3c0-.08.04-.17.06-.22l.03-.08.04.07.08.2c.06.15.12.36.18.58.05.22.1.43.12.6.01.08.01.16.03.22l-.02.08z"/><path d="M84.28 104.82a.93.93 0 01-.2-.3l-.04-.16-.02-.17a1.14 1.14 0 01.07-.51l.07-.16v.08a.36.36 0 01.02-.25c.04-.07.09-.14.16-.17v.11l.01.09c.01.06.04.1.06.13l.01.01v.07l-.06.59c0 .1 0 .2-.02.3a.7.7 0 01-.02.16c-.03.06-.03.12-.04.18z"/><path d="M82.97 99.8l-.06.12-.14.31a8.05 8.05 0 00-.54 2l-.04.34a.6.6 0 01-.01.13l-.36-.03.02-.13.08-.35a8.13 8.13 0 01.78-1.98l.18-.3c.07-.06.1-.11.1-.11z"/><path d="M92.67 103.8l.01-.17.02-.43a12.4 12.4 0 00-.16-2.62l-.11-.59s.07.23.15.58a16.86 16.86 0 01.4 2.62l.04.44v.17h-.35z"/><path d="M90.23 114.13v-.1l-.01-.1-.02-.14-.1-.3-.13-.36a1.68 1.68 0 00-.15-.3l-.08-.1h-.04c.02 0 0 0 0 0l-.02-.02a.1.1 0 00-.06-.02.74.74 0 01-.24-.13c-.05-.05-.05-.1-.05-.1l.03.01.06.03c.06 0 .13 0 .24-.02h.13l.06.02a.7.7 0 01.2.12c.12.1.2.25.25.4l.04.1.02.1c.02.07.04.13.04.2.02.13.02.26 0 .38a.4.4 0 01-.05.15c-.01.05-.03.07-.06.1-.03.07-.06.08-.06.08z"/><path d="M87.04 122.88l-.02-.06-.06-.2c-.05-.16-.1-.4-.1-.7 0-.15 0-.32.02-.48.02-.17.04-.35.08-.53a9.87 9.87 0 01.28-1.12l.16-.55.16-.53c.04-.17.1-.33.13-.5l.1-.46.08-.68v-.27l.07.27a3.61 3.61 0 01.02 1.19c-.02.16-.04.34-.08.52s-.07.36-.13.56l-.16.56c-.06.18-.1.37-.17.55l-.14.53-.12.5c-.04.16-.06.32-.08.46a3.65 3.65 0 00-.03.88l-.01.06z"/><path d="M82.02 132.42h.06l.17.04c.07.02.16.04.24.08l.25.12a1.65 1.65 0 01.42.3l.15.2-.04.02-.03-.04-.12-.1-.2-.1-.24-.1-.24-.04-.21-.01H82l.01-.37z"/><path d="M79.29 132.06h.05c.03.02.07.02.13.03l.2.05.22.08c.14.06.27.16.36.24l.08.11c.03.03.03.05.03.05l-.04.01-.04-.03a.42.42 0 00-.1-.08.85.85 0 00-.36-.12h-.57l.04-.34z"/><path d="M82.4 134.61a.45.45 0 010-.18.7.7 0 01.02-.17 1.06 1.06 0 01.22-.46l.12-.14.13-.1.13-.09a2.2 2.2 0 01.6-.26c.06-.01.1-.03.17-.03h.17a.7.7 0 01.16.03c.06.01.11.02.17.05h-.01l.2.06a.6.6 0 01.2.08l.1.05.1.05.1.06.08.06.08.07.09.07c.05.05.1.1.14.17a.6.6 0 01.11.19c.02.06.06.13.06.2l-.04.02c-.08-.11-.16-.2-.26-.3l-.07-.05-.07-.06-.16-.11-.08-.05a.2.2 0 01-.09-.05l-.08-.03-.09-.04-.18-.06-.19-.05h-.01a.43.43 0 00-.12-.02l-.12-.01-.12.01-.12.02c-.17.05-.34.14-.48.23l-.12.09a.6.6 0 00-.1.08l-.08.08c-.02.04-.05.06-.06.1a.74.74 0 00-.08.23c-.02.03-.02.08-.02.12v.12l-.4.02z"/><path d="M84 133.3l.04-.07c.01-.02.02-.05.05-.07l.06-.08.31-.41.13-.23a.85.85 0 00.09-.22c0-.03 0-.06.02-.1l.01-.06V132l.01.06.02.07v.1c0 .07-.02.15-.04.25l-.08.27c-.08.18-.16.35-.2.48a.59.59 0 01-.04.09l-.03.06-.02.06-.33-.15z"/><path d="M84.11 135.62l-.36.08c-.05.02-.1.04-.17.05l-.18.06a.9.9 0 00-.18.09c-.06.02-.12.06-.18.1l-.16.11-.16.13-.28.24-.27.26-.04-.03s.05-.14.18-.33a2.15 2.15 0 01.42-.46c.06-.05.11-.1.2-.14a.9.9 0 01.21-.11c.07-.04.14-.05.22-.07.07-.03.14-.03.2-.04l.18-.01c.23.02.37.06.37.07z"/><path d="M81.9 134.88l-.06.06-.16.13-.11.08c-.04.04-.09.06-.12.1l-.13.1-.14.11-.13.11-.12.11a.4.4 0 01-.12.1l-.1.1-.15.16-.06.06-.04-.01.03-.09.1-.2c.04-.08.1-.17.17-.26l.27-.26.14-.1.16-.1c.1-.06.2-.1.29-.13.08-.04.15-.05.21-.06l.07-.01z"/><path d="M80.02 134.29l-.05.06-.14.13-.2.18-.21.22c-.14.14-.3.28-.4.4l-.2.2-.04-.02s.03-.12.1-.26c.04-.07.08-.16.16-.24a2.05 2.05 0 01.46-.44l.14-.08.12-.06a.99.99 0 01.19-.07c.03-.02.07-.02.07-.02z"/><path d="M79.94 93.4l-.08.04a.79.79 0 00-.19.14 1.5 1.5 0 00-.23.3c-.07.11-.14.26-.2.41-.07.17-.12.34-.18.54-.04.1-.06.2-.08.3l-.09.31a17.3 17.3 0 00-.23 1.01l-.06.35-.06.35c0 .12-.02.23-.04.35-.03.22-.05.45-.06.68-.02.1-.02.22-.03.32l-.01.32-.01.57.01.5.01.37.01.32-.08-.32a9.12 9.12 0 01-.22-1.46v-.66c0-.22 0-.46.03-.7l.03-.35.05-.36.07-.36c.03-.12.05-.24.09-.35.06-.23.12-.46.19-.67l.1-.31.13-.3a3.72 3.72 0 01.54-.96c.1-.12.2-.2.3-.26.1-.06.17-.08.23-.1l.06-.02z"/><path d="M83.57 131.55l.01-.1a4.1 4.1 0 00.06-.46l.04-.2.06-.44.06-.43.02-.2.03-.18a5.5 5.5 0 01.06-.39l.02.11c.01.06.04.16.05.28l.02.4v.22l-.03.23-.05.23-.06.21a2.28 2.28 0 01-.26.63.88.88 0 01-.03.1z"/><path d="M79.43 67.15c.12 0 .13.29.15.61 0 .32.02.55-.1.55s-.31-.23-.32-.55c-.03-.31.14-.61.27-.61z"/><path d="M71.8 70.9c.7 0 1.3.2 1.8.7a4 4 0 01-1.8-.7z"/><path d="M78.71 71.89l.03.02.04.06.09.09.1.08c.17.12.43.24.7.37l.2.11.2.12c.12.08.23.18.3.26l.18.22.06.1-.11-.04-.26-.1-.35-.16-.2-.1-.2-.1c-.13-.07-.27-.14-.4-.24a1.06 1.06 0 01-.35-.46c-.03-.05-.03-.1-.04-.14v-.08l.01-.01z"/><path d="M85.2 75.1c.9.1 1.4.6 1.8 1.4-.6-.5-1.2-.9-1.8-1.4z"/><path d="M81.7 67.8c.6-.1.9.3 1.2.6-.5 0-1-.3-1.2-.6z"/><path d="M81.3 69c-.2.3-.3.5-.5 1.2-.2-.8 0-1 .5-1.2z"/><path d="M80.94 67.78l.04.04a5.04 5.04 0 00.42.29l.34.2c.1.06.14.11.14.11l-.17-.06a8.95 8.95 0 01-.78-.22l-.13-.04-.05-.03.2-.29z"/><path d="M78.7 66.2c-.1.3.5.6.9.4.6-.2 1.3-.3 1.8.2-.4-.1-1-.2-1.5.1-.4.1-1.1.4-1.3-.2-.1-.2.2-.7.1-.5z"/><path d="M78.3 68c.3.9-.2 1.2-.7 1.4.3-.4.6-.8.7-1.4z"/><path d="M66.8 71.1c.2 0 .4-.2.5-.4.1-.2.1-.4.2-.5.2-.2.3-.2.6-.1-.2.1-.4-.1-.5.1-.1.1-.1.4-.1.6 0 .3-.2.5-.4.6-.2.1-.3-.1-.3-.3z"/><path d="M67.9 71.2c0-.3.2-.5.4-.5.2.3-.4.6-.4.5z"/><path d="M87.71 66.06l-.03.04-.1.15a1.8 1.8 0 01-.14.24c-.04.05-.06.1-.11.14l-.12.12a1.3 1.3 0 01-.55.28l-.2.03h-.07l.07-.02.18-.07c.15-.06.32-.2.45-.35l.08-.12.06-.12c.04-.08.06-.18.09-.25.02-.09.06-.15.08-.2l.05-.08.26.2z"/><path d="M89.7 68.9c.2-.4.4-.9.6-1.4.2.9.1 1.2-.6 1.4z"/><path d="M92.3 67.84l-.11.04-.1.04c-.03.02-.08.03-.13.07a.9.9 0 00-.28.24c-.1.1-.16.23-.24.37a2.8 2.8 0 00-.23.83l-.03.4-.02-.41V69a2.21 2.21 0 01.3-.94c.1-.13.2-.25.3-.34l.15-.1.13-.08.1-.04.16.34z"/><path d="M83.93 79.18l.07.02.17.03a4.7 4.7 0 001.35.1l-.24.07a5.08 5.08 0 01-1.12.14h-.26l.03-.36z"/></g></g><g id="griffinPassant_coa542991524" stroke-width=".36"><path d="M62.96 91.82s.99-.67.49-1.47c-.5-.81-1.05-.6-1.05-.6s-.27.17-.61.22c-.87.1-1.18-.45-1.25-1.02-.04-.25.06-.4.02-.5-.07-.2-1.08.82-.32 2.37.85 1.68 2.72 1 2.72 1zm-1.28-8.86s.84.83.21 1.54c-.64.72-1.14.4-1.14.4s-.23-.22-.57-.32c-.83-.27-1.23.23-1.4.77-.08.25 0 .4-.07.48-.1.2-.91-.98.1-2.37 1.15-1.5 2.87-.5 2.87-.5zm5.1-2.48s-.17 1.17-1.1 1.1c-.96-.1-1.02-.67-1.02-.67s.04-.34-.07-.66c-.29-.82-.93-.85-1.46-.66-.25.08-.33.24-.43.24-.22.03.25-1.32 1.97-1.33 1.88 0 2.1 1.98 2.1 1.98zm4.35 2.8s-.78.9-1.53.3c-.75-.6-.47-1.12-.47-1.12s.21-.25.3-.58c.2-.84-.32-1.22-.86-1.35-.25-.07-.4 0-.49-.04-.2-.1.94-.97 2.38-.02 1.58 1.04.67 2.81.67 2.81z"/><path d="M62.2 82.68c-.45-.16-.64.2-.64.2s.18.54-.16 1.2c-.25.47-.46.67-.8.75-.04.34-.05.52.14.7.22.19.62.32.76.28.25-.04.48-.3.6-.36.32-.15.6.47.97.65.23.13.58.19.66.26.1.07.34.35.36.65.01.3-.06.44.54.76.3.3 0 .4-.11.43-.1.02-.4-.32-.73.26-.33.58.5.63.05.98-.12-.08-.3-.38-.53-.46-.13-.06-.56 0-.8.14-.21.15-.24.32-.26.67.32.13.49.37.64.88.23.7-.05 1.2-.05 1.2s.12.39.6.32c.71-.18.86-.37.84-.99.2-.5.75-.35.83-1 .09-.64.24-.72.51-.91.48-.32 1 .2 1 .2s3.87 3.41 5.42 5.17c.48 0 2.16-.3.7-2.06l-1.17-1.23s-.26-.42-.73-.75c-.07-.26-.54-.66-.85-.83-.1-.29-.53-.65-.83-.77a1.97 1.97 0 00-.86-.85c-.23-.21-.4-.39-.46-.42-.5-.36-.1-.8-.04-.83.04-.04 1.45-.15 1.3-.79-.08-.3 0-.89.4-.97.42-.07.45-.64.85-.66.7.1.89-.2 1.08-.7.13-.46-.23-.63-.23-.63s-.54.2-1.2-.1c-.5-.23-.7-.42-.8-.75-.35-.01-.54-.02-.7.18-.17.22-.28.64-.24.77.05.24.25.36.34.49.1.12.24.55-.26.67-.75.18-.4.62-.48.86-.2.5-.82.58-.72.43.11-.16.2-.5.15-.86-.04-.3-.37-.53-.22-1.03.05-.13.22-.49.14-.82-.19-.6-.27-.6-.35-.73-.08-.11-.13-.27-.05-.36.57-.25.65-.48.51-1.2-.14-.45-.53-.4-.53-.4s-.35.47-1.07.59c-.54.08-.82.04-1.08-.2-.3.18-.45.28-.48.54-.02.29.1.69.23.78.18.18.52.2.65.28.13.07.03.54.3.9.41.75-.06 1.2.1 1.71.15.51.31.5.34.68.03.28-.23.47-.23.47s-.37-.18-.47-.6c-.1-1.27-1.14-1.2-1.51-1.25-.67-.07-.65-.64-.7-.43.14-.56-.17-.89-.68-1.11z"/><path d="M77.32 94.27c-.2-.18-.62-.66-1.42-1.01s-2.71-1.52-2.62-2.87a2.61 2.61 0 00-.52-1.9 1.54 1.54 0 00-1.37-.57c-.14.03-.61.1-.73.35-.05.12.01.13.12.13a.83.83 0 01.97.68c.06.33-.19.8-.38 1.33-.58 1.67.51 2.5.8 2.9.21.28.21.66.23.74-1.1.12-1.53-.1-1.88-.44-.36-.34-1.01.01-1.1-1-.04-.04-.07 0-.07 0s-.47.93.1 1.43c-1.75.53-2.35-.01-2.77-.63-.05-.04-.08-.1-.1-.01-.3 1.78 1.66 2.06 2.4 1.97.75-.1 2.3.65 3 1.18 1.68 1.2 4.84 6.2 5 6.23"/><path d="M86.6 88.3l-.07-.13-.3-.39c-.12-.16-.3-.34-.5-.56a7.39 7.39 0 00-.76-.63 5.1 5.1 0 00-1.36-.68l-.03-.02h-.06l-.07-.02-.16-.04a6.58 6.58 0 00-1.35-.2h-.7c-1.22.01-3.27.44-4.49.26-1.33-.14-2.14-.8-2.3-.91.2-.07.97-.08 1.05-.08.34-.03.13-.09 0-.13-.1-.04-.88-.34-1.6-.87-.7-.51-1.3-1.3-1.41-1.21-.26.18.47 2.55 1.14 3.57.1.14.23.4.23.26 0-.08.06-.82.11-1.07l.04.03c.44.5 1.53 1 2.85 1.14.74.1 2.35.05 3.1-.05.45-.06.9-.1 1.33-.13l.64-.01c.21 0 .41.02.61.03l.59.1.14.03.07.02h.04l.03.02.26.08a5.82 5.82 0 012.08 1.51c.13.14.21.26.27.35l.06.08.03.03.53-.34-.03-.05z"/><path d="M78.73 88.85a.8.8 0 01.28.77c-.13.44-.63.7-.43 1.21a.75.75 0 00.45.42.73.73 0 01.15-.86c.2-.2.6-.22.63-.64 0 .06.04.34.07.45.17.53.5.42.43.82-.05.34-.64.54-.4.62.32.12.75.1 1.08-.24.4-.38.45-.78.36-1 .13.3.8.6 1.31.08-.16-.04-.83-.28-.83-.85 0-.73 1.02-1.1 1.5-1.16"/><path d="M85.72 89.37a3.32 3.32 0 00.27-1.4c0-.64.02-2.05-1.25-3.53-.62-.72-1.22-1.11-2.66-1.43a1.89 1.89 0 01-1.36-1.07 4.56 4.56 0 01-.46-1.56c-.05-.66-.03-.84-.02-1.08.04-.6.23-1.16.23-1.16-.5-.08-1.44-.12-1.69.68-.72-.1-2.92.78-3.34 2.82a3.23 3.23 0 00.59 2.57c.2.2.34.19.3-.1-.06-.48.37-1.07 1.1-1.35 1.65-.62 2.86.76 3.33 1.1 1.23.99 1.77.2 3.1.9 1.25.68 1.63 2.44 1.52 2.63a5.04 5.04 0 00-1.84-.37c-1.02.03-1.83.7-2.63.9-.63.27-2.26.38-2.7-.5-.1-.23-.1-.13-.15-.03 0 0-.05.36.16.88.23.5.87.85 1.52.89 1.91 0 2.3-.7 4.09-.7 1.11.01 1.64.58 1.89.91z"/><path d="M84.96 79.18a4.45 4.45 0 012.99-2.03c1.16-.16 2.36.18 3.51-.08.92-.21 1.65-.84 2.45-1.33s1.98-.6 2.72-.03c-.12.22-.65.15-1.07.35-1.03.5-1.34 1.8-1.96 2.78a6.28 6.28 0 01-2.54 2.14 6.1 6.1 0 01-2.42.77c-.83.05-1.37-.3-2.47-.15"/><path d="M138.2 80.97s.56 0 .79-.04c.22-.04.17-.21-.02-.26-.27-.06-.84-.3-1.63-.27-.23-.16-1.08 0-1.08 0l-1.08 2.64s.9.09 1.31.25c.66.26.74.9 1.27 1.13.47.2.84-.05.84-.05l1.34-1.08s.8 0 1.67-.83c.36-.3.56-.66 0-.41-1.2.53-2.48.03-2.48.03l-1.01-.43.08-.68z"/><path d="M99.17 121.23c-.76.86-1.06 2.27-.24 3.36.13.15.22.08.24-.03.26-1.25 1.28-1.52 1.72-1.46.2-.84-.43-2.46-1.72-1.87zm11.35-5.27c-.83-.8-2.31-.01-1.32 1.21.61-.02.63.66.75.98.05.13.1.23.25.14.7-.52.8-1.6.32-2.33zm-12.22.49c-2.2.66-1.75 3.28-1.54 3.24.3.08.8-1.42 1.64-.82 1.41-.37.66-2.6-.1-2.42zm5.55 5.4c.01.07-.25.33-.29 1-.03.84.54 1.55.73 1.65.12.07.3.21.25-.13-.05-.56.06-1.35 1.05-1.5.15-1.24-1.46-1.56-1.74-1.02z"/><path d="M111.1 113.62c-.57 1.13-.22 1.64-.4 2.7-.71-.23-1.25.05-1.26.9a1.42 1.42 0 00-.9.24c-.4.28-.27.5-.26 1.24 0 .98.15 2.14-.37 2.84 0 0-.65 1.34-2.07 1.36a2.7 2.7 0 00-.46.07c.13-1.02-.89-1.15-1.54-1.01-.1-.06-.1-.23-.04-.46.05-.18.27-.3.42-.3.06-.1-.11-.27-.1-.32-.57.5-.54-.05-1.59.78-.08.07-.7.45-.69.93.03.32-.6 1-1 .7-.17-.1-.08-.2-.27-.17.33-1.45-.94-1.7-1.59-1.7.12-.26-.1-.12.04-.46a.93.93 0 01.77-.49c.21 0 .53-.25.86-.65a3.56 3.56 0 01.67-.75c-.42.05-.49-.33-1.3-.37-.6.03-.2.4-1.09.4-.19 0-.35 0-.64-.25 1.16-.9.57-1.93-.1-2.39.15-.4.67-.4 1.02-.3 1.93-.67 2.47-.13 3.64-.08.82 0 2.26-1.35 2.26-1.35a10.98 10.98 0 001.2-1.95c.83-1.75 1.16-2.1 1.68-2.47.1-.06-1.79.32-3.12-.82s-1.53-2.63-1.3-3.48c.28-1.4.67-2.07.67-2.07s-.58-.06-1 .11c-.47.2-.69.75-1.53.42.75-.36.64-1.14 1.32-1.31a5.58 5.58 0 001.35-.55c-.16 0-.82 0-1.11-.39.63-.02 1.02-.33 1.3-.43.26-.1.85 0 1.02-.16.54-.43 1.57-1.69 5.28-3.64.77-.47 4.19.48 4.19.48l1.63 1.63s1.4 2.49.85 2.92c-1.28.98-2.64 1.46-3.18 2.1-.86.71-1 1.76-.29 2.6.51.49 1.68-.05 1.68 1.32 0 .82-1.27 1.03-1.63 1.3-.34.68-2.79 2.6-3.02 3.28z"/><path d="M111.63 98.61l-3.02.92s-1.38 1.1-1.75 2c-.15.38-.08.6.08.75.33.35.72.04.95-.1 1.07-.72 2.22-1.25 2.9-1.53s1.79-.5 1.79-.5l-.95-1.54z"/><path d="M126.87 121.83a2.67 2.67 0 00-.11 3.36c.13.14.2.07.23-.04.26-1.24 1.29-1.52 1.72-1.46.2-.84-.54-2.46-1.84-1.86zm11.46-5.27c-.83-.81-2.31-.02-1.31 1.2.6-.02.62.66.74.98.05.13.11.24.25.14.7-.52.8-1.58.32-2.32zm-12.2.5c-2.2.66-1.76 3.27-1.55 3.24.3.08.8-1.43 1.64-.82 1.4-.37.67-2.62-.1-2.43zm5.54 5.4c.01.07-.25.33-.28 1-.04.84.53 1.55.72 1.65.12.07.3.2.25-.14-.05-.55.06-1.35 1.06-1.5.14-1.25-1.46-1.57-1.75-1.01z"/><path d="M141.16 83.47c-.42.1-.83.14-1.26-.19-.27-.19-.49-.6-.75-1.06-.27-.47-.6-1-1.14-1.37-1.27-.94-1.65-1.05-2.56-1.1-1.5-.2-2.53-.03-3.92-1.02-.52-.37-3.82-2.74-7.59-1.32-2.06.74-4.2 2.12-4.2 5.14 0 4.73 6.34 6.67 12.17 8.43 2.24.67 4.9 1.61 5.46 3.7a3.03 3.03 0 01-.71 3.05c-.91 1.01-2.22 1.18-3.79.79a8.29 8.29 0 01-4.1-2.73l-.24-.28c-.72-.82-1.8-1.7-2.64-2.52a13.73 13.73 0 00-8.54-3.6c-3.7 0-5.37.7-10.46 1.54s-5.93 1.32-9.29 1.32l-1.37 1.98c-2.87 0-4.64-2.07-4.61-2.74.1.08.06.03.25.14.33.18.8.43 1.48.27 1.53-.35 1.56-1.78 1.56-1.78s-.03-.21-.16-.08c-.31.28-.7.47-1.11.56-.99.22-1.3-.79-1.33-.98-.12-.53.1-.86-.05-1.52-.14-.6-.13-.69-.13-.95l.01-.16s.51.22.84.22c.55 0 1.33-.3 1.52-1.11.05-.16-.1-.11-.15-.1-.6.2-1.19.18-1.49-.24-.36-.5-.15-1.68-.2-2.04 0-1.53-1.33-2.77-2.11-3.65-.78-.89-.32-1.67-2.25-2.49-.66-.28-1.73-.56-2.44-.69a15.7 15.7 0 00-2.36-.15c-1.62 0-2.5.32-2.93 1.2-.21.42-.32.88-.33 1.35 0 .24-.03.43.03 1.1s.26 1.15.46 1.56c.19.42.6.92 1.38 1.07 1.44.32 2.1.76 2.7 1.52 1.16 1.5 1.16 2.8 1.16 3.43 0 .48-.05 1.07-.28 1.4-.19.26-.21-.1-.58.4-.3.4-.3 1.06-1.35.73-.09.18.04.44.25.58.34.28.78.2.78.2-.55.5-1.32.31-2 .36-.8.06-1.54.25-2.24.64-.38.22-.74.49-1.14.68-.5.26-1.06.35-1.61.27a1.38 1.38 0 01-.66-.37c-.05-.04-.19-.42-.26-.63-.38.15-.44.68-.43 1 .04.47.4.94.81 1.18l-.1.07c-1.05.51-1.09 1.44-2.04 2.07-.41.28-1.64.96-2.2.13-.58-.88-.09-1.45 0-1.68-.02-.16-.46-.02-.81.42-.4.47-.55 1.42.03 2.28.72 1.07 1.84 1.07 2.67.7.67-.3.74-.38 1-.56 0 0-1.1.94-1.23 2.02-.04.28-.12.95-.62 1.2-.58.28-1.25-.26-1.25-.26-.1.2.17.64.32.83.62.78 1.33.44 1.33.44s-.39.65-.4 1.41c-.01 1.41.65 1.7.64 2.65-.02.34-.1.73-.64 1-.63.3-.97-.04-1 .14-.01.21.1.4.23.5.43.4 1.07.48 1.62.21 1.01-.49 1.09-1.69 1.09-1.69h.03c.26 2.8 2.39 3.4 3.08 5.04 0 0 .72 1.96 3.87 2.67 2.29.51 5.76-.87 5.76-.87 7.83 1.55 11.16-13.65 21.54-13.65 2.42 0 3.77 1 4.6 2.3 1.73 2.67 1.4 4.12 2.97 7.38.78 1.59 1.76 1.73 2.8 3.73.5-.43.48-.81.02-1.73.45.44.37.7 1.54 1.38a7.24 7.24 0 003.74 1c2.8-.03 4.7-3.5 6.1-2.38.59.51.48 3.42.33 3.93l-.17.47s-.44 1.3-1.25 1.3c-1.17-.06-1.85-.74-3.8-.08-.34-.1-.86-.1-1.02.3.68.47 1.27 1.5.11 2.4.29.26.46.26.64.25.9 0 .48-.36 1.1-.4.8.04.87.42 1.29.37-.26.22-.48.47-.67.75-.33.4-.65.65-.86.65-.44.02-.83.32-.9.49-.14.34.1.2-.03.46.65 0 2.04.25 1.71 1.7.19-.03.1.06.26.17.42.3 1.02-.38 1.01-.7-.02-.48.6-.86.69-.93 1.04-.83 1.02-.28 1.6-.78 0 .06.15.21.09.32-.16 0-.38.12-.42.3-.06.22-.06.39.04.46.65-.16 1.67-.01 1.54 1l.46-.06c1.42-.02 2.07-1.36 2.07-1.36.52-.7.38-1.87.37-2.84 0-.74-.13-.96.26-1.24.25-.17.65-.29.9-.24.01-.84.54-1.13 1.26-.9 0-.81-.63-1.3-1.37-2.03-.93-.87-.72-2.18-.77-3.14-.14-.83.55-4.17.4-4.75-.15-.58-.52-.89-.56-1.41-.05-.43.32-.49.26-1.14s-.48-1.08-1.25-1.01-1.26.5-2.04 1.03c-1.94 1-1.24 2.02-3.83 2.14-.15.01-.32-.01-.46-.07-1.32-.64-.9-2.22-.94-5.25a12.75 12.75 0 00-.75-3.87l-.04-.14a10.35 10.35 0 005.2 3.38c2.36.58 4.58.4 6.04-1.2a5.3 5.3 0 001.08-5.19c-.91-3.34-3.86-4.29-7.06-5.41-3.03-1.07-10.29-2.24-10.29-6.3a2.93 2.93 0 012.21-2.75c2.35-.9 3.58.91 5.4 2.53 3.45 3.04 6.36-.8 7.9.98.23.23.47.72.83.99 1.29.8 2.57.24 2.85-.51.51-.54.4-.57-.21-.36z"/><path d="M75.11 122.53s-.2-1.18-1.15-1.05c-.95.12-.99.7-.99.7s.05.34-.04.66c-.25.83-.9.88-1.44.7-.25-.06-.34-.22-.44-.2-.23-.03.3 1.31 2.02 1.25 1.89-.07 2.04-2.06 2.04-2.06zm-8.6-2.46s1.1-.43 1.49.44c.39.87-.1 1.2-.1 1.2s-.3.13-.53.38c-.58.65-.3 1.22.13 1.6.19.18.37.18.42.26.14.18-1.28.43-2.13-1.08-.9-1.64.71-2.8.71-2.8zm-.17-5.66s1 .62.53 1.46c-.48.83-1.02.64-1.02.64s-.29-.17-.63-.2c-.87-.09-1.15.5-1.21 1.05-.03.26.07.4.03.49-.06.21-1.1-.77-.4-2.35.8-1.7 2.7-1.1 2.7-1.1zm4.34-2.82s.5 1.08-.35 1.52c-.85.44-1.22-.02-1.22-.02s-.14-.3-.41-.51c-.68-.55-1.24-.23-1.6.22-.16.2-.15.38-.23.43-.18.14-.5-1.25.96-2.19 1.6-1 2.85.55 2.85.55z"/><path d="M66.47 119.49c-.32.34-.09.65-.09.65s.57.07 1.02.64c.34.43.44.7.36 1.04.3.16.46.26.7.15.26-.12.55-.44.57-.58.06-.24-.07-.56-.08-.7-.01-.35.66-.36.98-.62.2-.15.42-.45.51-.5.1-.05.47-.17.74-.06.27.1.37.24.9-.18.4-.15.37.17.35.28-.01.1-.45.23-.06.77s.77-.18.91.35c-.13.08-.46.12-.64.3-.1.1-.24.51-.19.8.04.26.2.34.5.5.25-.23.53-.29 1.07-.22.72.09 1.08.54 1.08.54s.4.04.52-.42c.13-.72.03-.94-.54-1.17-.4-.38-.02-.84-.57-1.17-.55-.33-.56-.52-.62-.84-.1-.57.6-.82.6-.82s4.7-2.13 6.93-2.81c.2-.44.61-2.1-1.58-1.49l-1.6.57s-.5.07-1 .36c-.25-.04-.82.21-1.1.42-.3-.02-.82.23-1.04.44-.36 0-.9.23-1.13.45l-.57.23c-.52.3-.76-.24-.77-.3-.01-.06.46-1.37-.2-1.5-.29-.05-.81-.36-.7-.76.1-.42-.4-.67-.25-1.04.38-.6.18-.89-.22-1.28-.35-.3-.66-.05-.66-.05s-.04.58-.6 1.06c-.4.36-.66.47-1 .42-.16.3-.24.47-.12.7.13.26.46.52.6.54.25.05.43-.08.58-.1.15-.04.61 0 .51.52-.15.76.4.63.59.8.36.37.2.98.1.82-.1-.15-.35-.36-.72-.48-.3-.1-.64.12-1.02-.23-.1-.1-.36-.39-.7-.46-.62-.08-.64 0-.79.02-.14.03-.3.01-.35-.1 0-.62-.17-.79-.88-.95-.46-.06-.58.33-.58.33s.28.5.1 1.2c-.15.53-.3.77-.63.91.05.35.08.52.29.66.25.14.68.17.8.11.23-.1.41-.39.52-.47.12-.1.5.2.95.1.85-.07 1.07.55 1.59.61s.58-.08.76-.03c.27.08.33.4.33.4s-.3.26-.75.19c-1.2-.43-1.55.55-1.75.87-.34.57-.86.33-.68.45-.45-.4-.88-.24-1.28.13z"/><path d="M81.56 110.56c-.65.58-2.8 2.65-3.98 2-.56-.3-1.3-.5-1.93-.3a1.53 1.53 0 00-1.09 1c-.03.14-.16.6 0 .81.09.1.12.04.17-.06a.83.83 0 011.02-.6c.32.08.66.5 1.06.89 1.28 1.23 2.5.58 2.97.49.33-.08.69.07.76.1-.36 1.04-.74 1.34-1.19 1.52s-.41.93-1.39.58c-.05.02-.03.05-.03.05s.65.82 1.35.5c-.25 1.82-.99 2.14-1.73 2.26-.06.02-.13.03-.05.08 1.5 1.02 2.58-.64 2.8-1.37.23-.7 1.56-1.79 2.32-2.24 4.33-2.54 6.22-1.83 8.49-4.05"/><path d="M85.37 108.4a6.92 6.92 0 002.14-.54c1.74.98 5.06.38 6.77-.65 2.3-.58 4.06-2.42 4.14-4.47 0 0 .92 0 2.23-.8.74-.42 1.31-1.54 1.31-1.54.95-.85 1.3-1.36 1.14-2.45 2.23-.29 4.24-1.78 4.31-3.2.55-.33.76-1.34.65-2.09 0 0 .62-.39 1.17-.77a4.57 4.57 0 001.23-1.27c1.07-.95 1.16-2.15.6-3.27 0 0 .77-.28 2.27-1.34 1.22-.85 1.97-2.35 2.33-2.66.47-.39 1.64-1.74 1.58-3.1-.03-.86-.52-1.88-.52-1.88a3.27 3.27 0 001.6-1.54c.37-.66.5-1.42.36-2.17-.02-.15-.05-.3-.03-.45.02-.18.13-.33.19-.51.13-.36.2-1.56-.63-1.87-.4-.14-1.6 1.36-1.95 1.68-1.8 1.68-3.07 2.88-4.62 4.27-2.02 1.8-4.18 3.35-6.24 4.84-2.66 1.92-5.7 4.3-9 6-2.57 1.34-6.68 3.22-11.95 7.24-1.3.94-2.41 2.1-3.3 3.42"/><path d="M88.67 78.28c.45-.19.94-.3 1.45-.3 1.18 0 2.32.5 3.5.4.92-.09 1.75-.6 2.6-.99s2.05-.33 2.7.35c-.15.2-.66.06-1.1.2-1.1.35-1.57 1.6-2.32 2.5a6.47 6.47 0 01-2.81 1.76c-.81.29-1.67.5-2.5.44"/><g fill="#000" stroke="none"><path d="M122.2 126.4c-.32 2.6 2.69 3.38 3.3 5.44.07 1.82-2.7 1.7-2.97 0-.74-1.4-1.64-4.53-.33-5.44zm40.7 57.1c-.68 2.85-1.56.22-2.9-1.1-8.21-9.78-17.85-18.26-26.85-27.29-4.78-4.58-9.6-9.11-14.45-13.61 14.1 12.48 28.79 24.44 41.87 38.02 1.27 1.73 3.22 3.06 4.13 4.98-.17 2.84-4.29.54-1.8-1zm-40.1-40.9a7.6 7.6 0 004.44-7.5c.68-1.73 3.43-.67 2.86 1.1-.04 3.7-5.1 6.58-7.3 6.4zm7.5 7.2c4.29-1.19 3.72-5.76 5.3-8.3 4.27.45.77 6.42-1.9 7.2-1.04.45-2.27 1.22-3.4 1.1zm7.5 6.3c4.66-.38 2.64-11.55 6.7-6.6.1 3.63-3.7 6.24-6.8 6.8zm6.9 7c4.5-.5 2.92-11.74 6.9-6.6-.13 3.62-3.71 6.23-6.9 6.8zm-38.2-45.7c2.1 2.49 1.11 6.39 3.6 8.6-2.14-1.96-6.95-6.07-5.76-9.03.73-.53 1.6-.14 2.16.43zm13.7-.9c-1.54 1.83-2.14 7.97-2.8 1.9-1.9-3.7 4.13-7.25 2.8-1.9zm25.9-9.6c-2.6-.58-5.46-1.66-7.2-3.6 2.68 1.2 5.7.52 8.43.97 1.46.8.31 3.47-1.23 2.63zm-29-22.1c-2.44.91-5.47 1.68-7.9 1 2.09-.15 11.6-7.5 7.9-1zm-23.2 69.6c1.42 2.53 3.03 5.73 2.14 8.6-5.07 2.31-.73-7-2.14-8.6zm21-10.9c-3.14.07-5.84 1.7-8.32 3.42-3.55-.35-.33-3.59 1.75-3.39 1.89-.48 6.07-1.08 6.57-.03zm-34.5-37.3c1.5-2.56.79-5.54 1.19-8.24.91-1.85 3.67-.41 3.01 1.44-.7 2.57-1.94 5.37-4 7zm2.6 47.7c-5.1 3.53-13.4 4.87-17.88-.35-1.22-1.45-2.5-3.93-2.12-5.55.67 6.45 8.2 9.9 13.9 7.5 2.01.22 5.04-3.92 6.1-1.6zm-14.3-48c-4.25-4.43-12.14-7.37-17.22-2.56-1.25 1.07-2.01 2.71-2.68 4.06 1.45-6 8.43-8.83 13.9-6.63 2.66.82 5.11 2.29 7.1 4.23l-1.1.9zM102.5 76c1.08-5.87-1.12-13.77-7.63-15.3-2.8-.5-7.6.41-2.5-.53 5.97-.63 10.58 4.87 11.27 10.42-.13 1.3 1.56 6.85-1.14 5.41zm36.3 15.5c4.47-4.41 6.94-13.09 1.25-17.54-.67-1.02-5.67-2.65-2.16-1.59 5.24 1.67 7.48 7.82 5.76 12.76a18.81 18.81 0 01-3.85 7.57l-1-1.2z" transform="translate(53 72) scale(.11875)"/><path d="M165.2 193.1c-1.85-2.05-2.5-4.77-3.4-7.3-.78-2 2.8-2.81 2.95-.66.14 1.72-.28 3.48.08 5.2-.12.79.84 2.38.37 2.76zm17.8-3.6c1.81.75 3.34 2 4.95 3.1 1.2.86 2.33 1.78 3.36 2.84 1.2.75-.3.71-1.05.64a8.63 8.63 0 01-6.35-4.05c-.4-.8-.82-1.62-.91-2.53z" transform="translate(53 72) scale(.11875)"/><path d="M448 418.8a21.55 21.55 0 00-13.41-6.06c-1.68-.6 3.13-1.4 3.93-1.34 4.25-.39 9.1 3.15 9.48 7.4zm-5.2-18.4c-4.89 1.98-8.17 6.45-10.1 11.2-4.27 2.41-2.3-3.4-.2-4.9 2.58-3.13 6.19-6.1 10.3-6.5zm-47.1 5.4c6.68.41 13.07 5.9 14.4 12.4-2.63-5.4-8.5-10.12-14.81-9.34-1.83-.43-1.4-3 .41-3.06zm9.6-9.9c3.8-3.67 9.1-4.54 14.2-4.5 3.51-1.32 6.66-2.59 1.48.45-6.15-.3-10.93 5.41-15.68 6.25-.68-.62-.48-1.58 0-2.2zM390 370.1c6.3 2.54 9.03 10.68 6.7 16.7.72-5.45-1.78-12.18-7.6-13.7-2.02-.57-1.3-3.55.9-3zm48.6 8.3c6.18-5.73 9.8-13.69 12.6-21.5 1.36 1.04-1.74 3.6-2.14 5.32-2.12 3.27-4.79 6.57-8.16 8.48 4.12-3.95 7.18-9.07 9.8-14.2 2.37-2.07 2.22 2.13 1.19 3.38-2.81 6.85-6.62 13.74-12.59 18.32l-.7.2zM388 437.6c1.4-5.46 7.92-14.56 12.82-12.73-1.98 1.13-5.14 2.22-7 4.23-2.68 2.22-4.35 5.87-5.82 8.5zm44.3-.4a16.4 16.4 0 017.7-14.9c1.99 2.08-2.5 2.6-3.33 4.43-2.96 2.7-3.66 6.78-4.17 10.57zm-62.8-40.3c3.21-6.03 10.26-9.72 16.96-9.79.3 2.59-4.82 1.19-6.74 2.61-3.96 1.35-7.87 3.64-10.02 7.28zm108.8-21.6c2.8 1.42 4.9 11.04 3.79 10.38-.16-3.64-2.18-6.94-4.89-9.28l1.1-1.1zm29.8-61.3c-2.98 5.04-4.68 11.24-9.4 15 1.7-5.45 3.9-12.39 9.4-15zm-42.7-30.9c1.91 2 2.63 4.9 4.8 6.7-3.72 1.56-6.23-3.77-4.8-6.7zm11.4 5.8c3.06-.7 6.87 5.56 1.6 3.4-.94-.8-1.71-2.3-1.6-3.4zm7.5.1c3.3-.68 3.63 3.75 5.9 4.8-3.67 3.01-4.54-2.91-5.9-4.8zm10.5 0c4.23-1.18 4.47 6.4.44 1.83a3.4 3.4 0 01-.44-1.83zm-31.5 32.2c4.95.95 12.69-1.44 15.5-2.2-4.95 2.7-10.38 5.08-16.09 5.14-1.65-.48-1.07-3.12.59-2.94z" transform="translate(53 72) scale(.11875)"/><path d="M696.8 331.2c-3.2-12.9 3.35-10.46 0 0zm-4.2-12.2c-1.03-7.15 8.2-9.2 0 0zm-2.6-9.8c-.56-5.7 8.63-5.65 1.65-1.2-.52.44-1.1.8-1.65 1.2zm-14.4-25.1c6.45 3.28 28.82.3 12.8 5.1-4.73-.35-8.3-3.94-12.8-5.1zm-73.8 44.6c-4.01.25-8.5-4.25-7.9-7.8 2.74 2.5 4.98 5.5 7.9 7.8zm-21.7-9.1c-2.79-1.21-5.28-5.89-3.2-8.2 1.15 2.7 2.6 5.3 3.2 8.2zm-9.7-7.7c-2.48-1.9-2.13-7.02.3-8.3.48 2.79-.14 5.53-.3 8.3zm37.7 12.5c5.25 3.06 8.31 9.6 1.05 3.2a6.2 6.2 0 01-1.05-3.2zm12.2-1.4c7.63 1.17 8.13 5.79 1.36 1.95-.6-.54-1.35-1-1.36-1.95zm-57.9-19.6c-2.08-8.33 5.99-10.63 0 0zm26 20.2c-2.56-1.87-2.25-7 .2-8.3.52 2.8-.22 5.52-.2 8.3zM519 211.4c-1.87 2.77-7.2 3.17-9 .7 2.99-.36 6-.57 9-.7zm-17.1 8.8c-2.37 1.37-6.27.32-6.8-2.3 2.37.36 4.75 1.03 6.8 2.3zm-9.6 2.3c-8.16.78-8.1-7.52 0 0zm25.5-15.4c9.38-4 9.26 3.57 0 0zm5.5-6c3.6-3.85 9.38-2.9 1.9.5zm-38.6 23.4c-7.17 1.33-7.76-7.07 0 0zm24.9-8.4c-2.64 4.15-11.9-3.39-2.32-.58.79.13 1.54.4 2.32.58zm20.5-26.9c-3.11 9.02-11.46 6.41 0 0zm-7.1-1.4c2.89-5.33 7.4-3.55 2.2-.19a4 4 0 01-2.2.19zm-5.1-5.4c3.3-3.41 8.78-2.07 1.8.6zm-6.3-3.4c3.83-2.9 8.2.61 1.4.9a2 2 0 01-1.4-.9zm31.7 43.2c-5.5-14.15 8.55-26.64 8.2-40.1 4.02 14-9.85 25.94-8.2 40.1zm24.4 108.4c-2.72-3.24-9.53-18.01-5.3-11.1-.05 3.58 11.64 8.67 5.3 11.1zm114.5 93.2c-3.38-4.07-9.51-5.35-13.8-6.4 5.35-2.89 13 .33 13.8 6.4zm-5.1-18.4c-5.44 1.99-8.2 7.45-11 11.91-4.48-1.72 1.88-6.9 4.22-9.1 1.83-1.31 4.78-3.31 6.78-2.81zm-47.2 5.5c6.6-.5 14.33 8.14 13.91 11.7-2.59-5.83-9-8.95-14.97-8.95-1.15-.95-.33-2.69 1.06-2.75zm9.9-9.8c4.87-5.42 13.37-3.23 18.7-6.2-5.44 4.1-13.37 2.81-17.9 8.48-1.17.04-1.75-1.59-.8-2.28zm-15.5-26c6.33 2.43 9.15 11.34 6.6 16.5 1.46-6.48-2.75-12.16-8.44-14.18-.93-1.3.52-2.63 1.84-2.32zm51 10c3.59-7.42 2.99-17.35 3.1-24.3 1.13 1.06-.53 6.46-.92 8.95-.82 2.33-1.62 6.05-3.38 7.35 4.6-3.4 0-18.1 5.4-17.2 1.34 8.18.2 18.1-4.2 25.2zm-51.7-170.4c-2.2-5.08-6.47-10.55-9.3-13.56 4.95 3.4 9.6 7.98 12.25 13.29-.29 1.5-2.38 1.65-2.95.27zM224 273.6c3.48 11.66-.45 23.77.3 35.7-5.49-11.45 1.07-23.75-.3-35.7zM209.6 305c2.29 9.36 10.44 16.81 10.3 26.94-4.06.96-2.16-6.58-4-9.33-1.33-6.2-6-11.2-6.3-17.6z" transform="translate(53 72) scale(.11875)"/><path d="M165 374c2.44 1.76 7.85-3.17 6.6 1.5-1.64.8-7.2-.07-6.6-1.5zm68.8-13.3c2.16 1.97-7.46 2.27-9.84 4.02-15.77 5.53-31.18 12.53-46.66 18.48 17.5-8.22 35.17-16.81 53.5-23.24 1.72-.85 7.24-2.16 4.6 1.34-.52.5-1.45.07-1.6-.6zm-53.7 19.4c.23-3.74-8.79-11.25-1.72-8.48 2.26 1.96 2.85 6.39 1.72 8.48zm9.6-3.8c.05-3.52-9.08-11.25-1.92-8.4 2.39 1.95 2.69 6.26 1.92 8.4zm8.8-4.3c.69-3.64-9.6-10.17-1.9-8.01 2.03 1.85 3.02 5.73 1.9 8.01zm9.3-3.5a7.51 7.51 0 00-5.19-6.7c.6-7.6 8.13 4 5.19 6.7zm-57.4 16.1c3.95.17 14.56.47 4.45 2.15-2.34.63-7.77 2.07-4.45-2.15zm4.6-12.7c4.26 3.66 4.02 4.56-1.3 2.1-2.41-.94-.7-4.5 1.3-2.1zm-30-10.3c.45 2.9-3.78 12.32-2.44 3.84-1.24-2.15-.55-8.51 2.44-3.84zm31.9-17.1c-1.8 2.43-12.07 8.8-5.61 2.95 1.37-1.6 5.83-9.9 5.61-2.95zm22 66.8c2.71-.12 6.37-.55 8.44 1.45.94 2.18-2.69 3.29-3.52.9-.64-1.24-5.09-1.48-4.92-2.35zm-1.3-23.6c-2.58 2.5 1.98 11.41-2.7 9.2-.23-2.99 1.02-7.89 2.7-9.2zm-48.2 16.1c-1.68-2.4-4.81-2.91-6.86-4.65-.27-5.18 7.2 1.46 6.96 4.35l-.1.2zM174 421c1.16 6.55-1.69 15.5-9.23 16.42-11.74.06 10.16.12 7.6-8.58 1.62-2.12-1.71-7.96 1.63-7.84zm-49.6-6.6c-7 1.9-13.42 10.77-7.85 17.42 2.41 2.93-1.62-1.05-1.77-2.34-3.2-6.88 2.87-14.21 9.22-16.48l.4 1.4zM111 371.3c-5.27-3.85-14.62-4.62-17.98 2.1-1.75 5.55-1.47 1.48.88-2.3 4.34-5.2 12.6-4.22 17.8-.9l-.7 1.1zm29-26.8c-2.18-6.56-10.65-12.25-17.01-7.54-1.35 1.15-2.93 2.58-.87.36 5.82-5.6 15.46-1.25 18.53 5.38 2.24 1.78.2 1.5-.65 1.8zm194.5-36.8c1.09 2.8-7.2 6.76-4 6.3 2.39.76 7.22-1.81 7.19 2.37.05 4.17-3.92 6.94-7.39 8.33-.23-4.61 3.2.49 4 2.26.7 2.39 1.58 6.1-1.9 6.04-4.18.13-9.05-4.47-6.1.2-.23 3.09-2.42 6.78-5.71 7.25-2.93-2.29 1.7-3.36 2.31-5.55-3.67-7.38 9.63-6.93 9.1-3.9 1.93-3.28-6.7-7.71-.98-9.4 2.72-.24 5.4-5.84 4.58-5.4-2.6.26-6.8.94-8-1.9 1.62-2.63 5.48-4.11 6.9-6.6z" transform="translate(53 72) scale(.11875)"/><path d="M251.5 310.7c-.39 3.16-1.3 6.29-3.5 8.7-1.94 2.52-4.38 4.55-6.7 6.7-3 1.47-2.86-2.72-.44-3.2 3.13-2.05 6.3-4.27 8.53-7.32 1.05-1.46 1.42-3.25 2.11-4.88zm-26.1 31.5a19.72 19.72 0 01-19.6.47c-1.63-3.4 3.07-2.64 4.46-1.01a18.2 18.2 0 0015.04.24c.24.05.22.13.1.3zm14.1 20.3c-2.76.66-5.65.18-8.38-.36-2.1-2.51 2.12-2.82 3.36-1.16 1.47.83 3.87 1.03 5.02 1.52zm39.5-30.9c-3.85 3.43-7.72 7.3-9.03 12.44a12.42 12.42 0 01-6.37 7.56c-.8.54-5.79 2.55-3.72 1.06 3.35-2.46 6.85-5.35 8-9.53 1.3-5.01 5.36-8.83 10.02-10.83.31-.3.67-.58 1.1-.7zm-26.1 7.4c-1.56 4.4-6.59 6.08-10.75 6.87-4.5.74-9.42.85-13.29 3.55-1.33 1.37-.5-.3.2-.98 2.83-3.25 7.35-4.19 11.44-4.74 4.37-.72 9.3-1.11 12.4-4.7z" transform="translate(53 72) scale(.11875)"/><path d="M622.3 442.6c1.4-4.2 3.66-8.3 7.25-11.02a21.74 21.74 0 015.15-2.88l.5 1.4a18.8 18.8 0 00-11.1 9.15 26.24 26.24 0 00-1.6 3.45l-.2-.1z" transform="translate(53 72) scale(.11875)"/><path d="M666.5 442.2c.1-1.57.14-3.15.46-4.7.3-1.91 1.02-3.77 2.2-5.32a18.31 18.31 0 015.04-4.88l.8 1.3a16.6 16.6 0 00-6.3 5.94 13.37 13.37 0 00-1.49 4.68l-.51 3.08-.2-.1z" transform="translate(53 72) scale(.11875)"/><path d="M603.8 402.9a19.56 19.56 0 015.62-6.72c2.59-2 5.7-3.27 8.92-3.8.67-.14 1.34-.29 2-.4.98-.03 1 1.56.02 1.53-1.2.15-2.4.25-3.56.54a20.26 20.26 0 00-10.84 6.1c-.88.72-1.39 2.2-2.15 2.79z" transform="translate(53 72) scale(.11875)"/><path d="M712.6 380.4c.68.88 1.39 1.74 1.94 2.71.57.94 1.05 1.93 1.43 2.96.29.85.5 1.74.63 2.63l.1 2.9c-.2.06-.24-.07-.23-.24l-.37-2.66a13.55 13.55 0 00-4.08-6.69c-.16-.23-.74-.47-.33-.7l.91-.91z" transform="translate(53 72) scale(.11875)"/><path d="M744.7 100.3c-3.5 2.17-8.07 3.45-12.06 1.9-4.92-2.03-8.43-6.34-11.46-10.55-1.79-2.44-3.5-5-6.04-6.74-4.5-3.62-10.07-6.1-15.92-6.06-3.95-.17-7.9.76-11.83.2-.94-.28-2.95-.86-2.89-1.75 2.49 1.55 5.44.65 8.14.34 5.49-1.09 11.31-1.1 16.57 1.02 3.4 1.27 6.5 3.25 9.3 5.54.83.49 2.31 2.16 3.17 3.3 3.55 4.61 6.95 9.94 12.72 11.89 2.98.87 6.16-.22 8.7-1.79l1.6 2.7z" transform="translate(53 72) scale(.11875)"/><path d="M205.2 187.4c2.63 3.75 11.47 2.33 12.14 2.14-4.1 2.53-9.36 2.52-13.64.46l1.5-2.6zM191 216.5c6.55-4.84 9.24-13.63 16.7-17.3-.98 1.34-3.33 2.5-4.3 4.3-3.07 2.6-7.36 14.82-11.12 15.48-.77.14-.38-1.51-1.22-2.4zm.5 26.6a26.95 26.95 0 01-11.3 11.5c-2.5-3.24 1.25-3.53 3.5-4.91a29.01 29.01 0 007.8-6.59zm46.1-87.3c-1.1-1.13-.26-8.82.5-5.3.78 2.96 3.33 3.34-.5 5.3zm-13.2-6.4c1.08-2.53 3.8-4.88 2.6-.67.9 1.69-1.78.42-2.6.67zm43 11.4c4.34-.48 6.8-4.5 10-6.9-2.5 3.6-4.62 8.53-9.3 9.7l-.7-2.8zm53-46.5a22.19 22.19 0 0010.2 10.6c-2.05 6.1-6.93-3.47-8.65-5.9-.63-1.4-1.79-3.35-1.55-4.7zm5.79 46.75c-3.51 1.77-2.63 1.5-2.8-1.16-.49-4.27-1-8.56-2.19-12.7 2.62 3.32 4.06 10.47 4.99 13.86zm-15.99-6.15a36.05 36.05 0 011.9 13.76l-18.07 11.33c-5.4-5.87-7.28-13.83-8.13-19.49 3.42 4.9 4.32 12.27 9.94 16.94L310 168.7c.75-4.21.22-9.79.2-13.8z" transform="translate(53 72) scale(.11875)"/><path d="M298.9 160.4c3.74 1.91 6.11 17.98 2.5 14.32-1.68-4.32-4.24-10.26-2.5-14.32zM287.6 177c-.83 3.72-2.43 6.7-4.14 10.13l-19.61 15.16c-3.72-2.4-5.55-5.93-5.96-10.28a25.8 25.8 0 015.2-18.24c.39-.85 3.14-2.85 1.6-.8-3.17 4.6-4.42 10.35-4.39 15.88.14 4.2 1.44 8.36 5.11 10.8L283 185.87a65.7 65.7 0 004.61-9.06v.12z" transform="translate(53 72) scale(.11875)"/><path d="M272.5 175.9c-1.44 3.83-1.86 7.94-3.06 11.85a28.2 28.2 0 01-2.24 6.15c-1.3-.6-.58-3.09-.83-4.4.27-3.9 1.27-7.89 3.37-11.23a8.1 8.1 0 012.76-2.37zm-18.3 14.2c-3.06 7.43-8.22 14.25-15.2 18.38-3.85 2.25-8.47 3.39-12.9 2.62a11.88 11.88 0 01-3.24-11.99c1.8-6.1 6.32-10.95 11.13-14.9 1-.45 2.32-2.6 3.21-1.8-4.2 4.23-8.03 8.96-10.66 14.33-1.43 3.4-1.79 7.66.61 10.72.65.76 1.28 1.3.05.64 6.16.77 12.07-2.26 16.57-6.23 4.07-3.36 7.26-7.6 10.43-11.77z" transform="translate(53 72) scale(.11875)"/><path d="M241.7 187.7c-3.22 5.24-6.33 10.7-10.8 15-.96-1.07.6-3.2.97-4.52 1.89-3.9 4.52-7.7 8.35-9.9.47-.24.97-.43 1.48-.58zM229.1 214c-.85 8-4.05 15.94-9.67 21.78a20.03 20.03 0 01-11.73 6.02c-2.6-1.54-4.76-3.9-5.54-6.87-1.53-5.35.38-10.99 2.63-15.84a33.2 33.2 0 015.01-7.39c.14 2.04-2.64 4.81-3.1 7.33-1.7 4.9-3.26 10.38-1.64 15.5.18 1.8 3.27 4.07 3.34 4.4-1.55-.24 1.95-.43 2.35-.86 6.61-2.44 10.98-8.45 14.15-14.47a69.54 69.54 0 004-9.6h.13z" transform="translate(53 72) scale(.11875)"/><path d="M216.1 215.5c-2.03 5.63-3.91 11.3-6 16.9-1.4-.8-.86-3.77-.86-5.44.74-4.4 2.79-9.22 6.86-11.46zm100.5-87.1c.7 10.46-1.32 22.48-10.07 29.29-2.67 2.57-6.2 3.1-9.1.55-8.76-5.45-11.24-16.67-10.87-26.32-.31-2.06.63-5.8.87-1.27 1.05 9.24 3.05 20.26 11.9 25.29 2.44.62 2.17 1.82 2.5 1 8.42-3.76 11.83-13.44 13.62-21.87.58-2.11.53-4.86 1.15-6.67z" transform="translate(53 72) scale(.11875)"/><path d="M301.8 131.7a36.19 36.19 0 011.24 13.08c-.04 1.95-.49 3.86-1.04 5.72-1.4-.31-1-2.9-1.42-4.1-.63-4.91-.23-9.94 1.12-14.7zm6.5-36c1.73 6.94 1.6 14.52-1.12 21.19-1.62 3.77-4.38 7.15-8.08 9.01-5.02-.69-9.44-3.86-12.16-8.07-2.75-4.3-3.98-9.42-4.77-14.41.23-1.19-1.17-3.74.13-4.22 1.65 6.07 3.41 12.34 7.22 17.45 2.42 3.1 5.8 5.68 9.78 6.25-2.28.62 1.16-.87 1.58-1.6 5.17-4.62 6.67-11.82 7.3-18.42.2-2.39.26-4.79.22-7.18z" transform="translate(53 72) scale(.11875)"/><path d="M295.5 100.5c3.89 4.5 4.55 11.3 2.6 16.8-1.76-2.3-1.67-6.8-2.13-10.03-.1-2.26-.51-4.5-.47-6.77zM191.7 277.8c.73 3.43 3.55 8.99 1.63 11.04-4.19.46-.5-5.53-1.52-8.18 0-.95-.04-1.9-.11-2.86zm29.5-21c-.9 11.21-6.29 23.68-17.44 27.97-6.67 2.76-10.2-7.38-10.3-12.5-.18-7 1.2-14.22 4.84-20.27.18 2.69-1.86 6.53-1.9 9.76-.73 7.14-1.27 16.4 5.5 20.84-.45-.55 7.18-2.9 8.93-6 5.29-5.44 7.85-12.93 10.37-19.8z" transform="translate(53 72) scale(.11875)"/><path d="M206.1 257.4c-.62 2.52-.82 5.12-1.2 7.69-.49 3.63-.9 7.3-2 10.81-.32.03-.64.05-.63-.37-.78-2.41-.9-4.99-.75-7.5.1-2.06.61-4.08 1.26-6.03a10.42 10.42 0 012.24-3.7c.33-.34.7-.64 1.08-.9z" transform="translate(53 72) scale(.11875)"/><path d="M315.7 91.2c-1-.29-3.31.6-2.73-1.1-.7-3.35 3.26-1.35 5.27-1.98 9.95-.99 19.54-4.63 28.16-9.6 6.85-3.87 11.97-10.04 16.05-16.65 4.02-6.14 9.24-12.89 17.06-13.84 1.32-.35 6.2.37 2.6-1.2-6.5-3.24-14.35-2.08-20.53 1.37-5.33 2.74-10.75 5.48-16.7 6.58-10.62 2.3-21-2.46-31.57-2.77-4.23-.5-9.08 1.52-12.56 2.01-1.32-1.98-.7-3.2 1.81-3.43 8.2-2.83 16.93-1.28 25.15.51 7.33 1.55 15.24 2.35 22.3-.72 6.8-2.48 12.84-7.08 20.12-8.13 6.33-.85 13.5.68 17.87 5.57-.14 4.37-6.2 2.64-9.12 3.48-7.5 1.78-11.53 9-15.54 14.9-6.72 10.73-17.92 18.07-29.88 21.74a61.51 61.51 0 01-17.76 3.26z" transform="translate(53 72) scale(.11875)"/><path d="M312.9 91.1c-6.33-1-11.84-4.85-18.29-5.36-2.03-.21-2.05-.27-.26-.24 3.58-.17 7.15.3 10.62 1.22 2.7.66 5.43 1.31 8.23 1.28l-.3 3.1zm-27.6-27.2a43.02 43.02 0 0114.6-12.4l1.1 2.8a39.53 39.53 0 00-15.7 9.6zm8.5 9.6c3.95-8.09 12.65-13.62 21.7-13.4 11.38-.4 22.96 1.39 34.15-1.46 2.4-.4 6.88-2.44 7.66-2.65-5.64 4.34-12.7 6.3-19.71 6.83-8.53.81-17.08-.13-25.62.19-7.18.52-13.77 4.99-18.18 10.49zm11.6 8.4c13.51-.35 26.87-3.4 39.4-8.4-9.45 7.76-22.23 11.12-34.3 9.61a30.87 30.87 0 01-5.1-1.21z" transform="translate(53 72) scale(.11875)"/><path d="M304.2 71.9c3.77-4.41 9.9-6.42 15.6-5.9-4.6 3.13-10.14 5.04-15.6 5.9zM223 56.6c4.72-.3 4.64 8.6-.16 8.37-2.36.57-4.1-3.65-1.64-4.37-.87 2.02 2.5 2.68 2.47.34.4-1.4.2-3.2-.67-4.34zm-4.5 1.1c-2.22 3.22.55 10 1.09 10.57-3.39-2.56-4.63-7.3-4.09-11.37l3 .8zM180 110.5a15.1 15.1 0 01-2.9-5.3 12 12 0 004.6 2.9l-1.7 2.4zm-4.5 3.7a37.9 37.9 0 01-3.7-9.3c.2 3.16 7.58 6.15 4.76 8.42l-1.06.88zm40.7-37.1c3.96 2.96-3.9 3.78 0 0zm-3.4 2c3.55 3.53-3.82 3.74 0 0zm-3.5 2.5c.82 5.36-5.18.61 0 0zm-3.7 2.8c2.46 4.1-4.44 1.4 0 0zm62.7-23.1c-8-4.7-17.29-6.39-26.3-8 7.93-2.33 17.04-.47 23.57 4.55a13 13 0 012.73 3.45z" transform="translate(53 72) scale(.11875)"/><path fill="#f6f6f6" stroke="#000" stroke-width=".35" d="M82.7 81.14c-1.69.2-1.73-1.56-1.71-1.72.19.03 1.57-.43 2.04-.21.29.2.71 1.78-.33 1.93z"/><path d="M242.4 62.6c1.5-.5 2.6.1 3 1.2.8 2.2-2.3 1.8-2 3.9.5 2.2 3.2 2.9 1 3.6 0 0-3.5.1-4.3-3.4-.3-1.6-.1-4.5 2.3-5.3z" transform="translate(53 72) scale(.11875)"/><path d="M235.4 64c-1.34-.21-2.7-.8-3.38-2.06-1.03-1.53-.86-3.54-.42-5.24.3 1.62.76 3.69 2.5 4.3.77.07 1.57-.36 1.3.73V64zm25.6-.8c-2.83-2.1-6.53-1.98-9.85-1.63-.84.2-1.5.22-1.25-.78V58.7c3.02.36 6.1.91 8.8 2.4.82.64 1.67 1.26 2.3 2.1zM248.9 80a13.2 13.2 0 01-8.1-3.3c-.35-.32-.72-.85 0-.9l2.3-.9c-.06.19.42.8.65 1.1 1 1.21 2.13 2.35 3.52 3.12a17 17 0 001.63.88z" transform="translate(53 72) scale(.11875)"/><path d="M238.3 230.4a61.5 61.5 0 00-7.8 14.5c-1.9 5.2-3 10.7-2.8 16.4-.7-5.6-.1-11.3 1.4-16.8a64.3 64.3 0 016.8-15.7c.4-.7 1.3-1 2.1-.5.7.4 1 1.3.5 2.1-.1-.1-.2 0-.2 0z" transform="translate(53 72) scale(.11875)"/><path d="M246.9 302.8a55.5 55.5 0 0025.5 2.3c.8-.1 1.6.4 1.7 1.3.1.8-.4 1.6-1.3 1.7h-.2c-8.9.3-17.8-1.7-25.7-5.3zm149-164.6c6.3-4 12.6-8.1 18.7-12.4A2060.3 2060.3 0 00451 99.5l17.8-13.6c5.9-4.6 11.6-9.4 17.3-14.2l17.2-14.5A525.5 525.5 0 00536 26.5l-3.6 4.3-3.7 4.2A298.8 298.8 0 01505 59.1l-17 14.8-8.6 7.3-8.8 7a674.2 674.2 0 01-55.2 38.7c-6.4 3.9-12.9 7.8-19.5 11.3zm10.7 24c10.6-5.8 21.3-11.5 31.8-17.5a355.3 355.3 0 0030.4-19.6l14.6-10.8c4.9-3.6 9.6-7.3 14.4-11a762 762 0 0028.1-23c-8.3 8.8-17.3 17-26.6 24.8-4.6 3.9-9.4 7.7-14.1 11.4l-14.5 11a253.7 253.7 0 01-31 19.2 396.6 396.6 0 01-33.1 15.5z" transform="translate(53 72) scale(.11875)"/><path d="M258.2 279.8a64.8 64.8 0 0018.6 5.8 97 97 0 0019.4.8c.8 0 1.5.6 1.6 1.4 0 .8-.6 1.5-1.4 1.6h-.1c-6.6-.1-13.3-.8-19.8-2.3-6.4-1.6-12.7-4-18.3-7.3z" transform="translate(53 72) scale(.11875)"/><path d="M456.6 161.2c-21.01 15.71-44.77 28.03-69.25 37.01 3.9-8.5 24.29-9.82 33.57-16.67a276.44 276.44 0 0035.68-20.34zm-14.1 36.1c-12.82 7.22-26.43 14.15-40.74 17.37 6.2-8.11 27.76-8.28 38.31-16.19zm-42.9 43.1c-13.9 5.69-28.81 10.43-43.8 10.99.66-5.5 11.82-1.92 16.62-4.23 9.24-1.44 18.35-3.7 27.18-6.76zm-46 40.7c-14.7 3.53-30.27 7.84-45.45 5.37-1.88-1.93 1.48-3.58 3.12-2.35 14.18 2.15 28.4-.47 42.33-3.02zm104.3-87.4c-11.9-6 4.02-4.54 0 0zm25.2-35.5c-1.24-.65-3.38-5.07-.41-2.86 3.05-.99.43 1.82.41 2.86zm-59.2 31.3c5.3-9.35 4.35 4.02 0 0zm6.8-29c2.17-3.72 4.07-9.74 3.12-1.98-.14 2.97-.17 3.85-3.12 1.98zm96.8-62.8c-6.73 2.52-12.89 2.24-2.71-1.46.99-1.73 1.77 1.05 2.71 1.46zm26.8-79a29.01 29.01 0 01-9.2 7.6c4.08-1.18 4.93-12.52 9.2-7.6zm-17.6 35.8c-9.76-.75.45-5.62.1-.56zm-53.1 40.9c-1.16-4.95-1.51-9.1 1.71-2.53 2.81 1.7-.87 1.77-1.71 2.53zm-48 34.4c-7.45-8.3 2.9-5.19 0 0zm-23.1 110.9c-12.97-3.7 2.92-5.15 0 0zm-63.7 56.9c-2.3-1.4-4.2-3.48-5.4-5.9 1.83 3.16 8.78 1.5 5.4 5.9zm-46.9-19.9c-9.36-1.67-17.76-9.07-20.3-18.3a129.13 129.13 0 0020.3 18.3zm42.2-29.7c-6.66-2.1-13.93-6.3-15.6-13.6 4.96 4.81 11.3 8.06 15.6 13.6zm39.9-38.1c-11.8-.49-23.6-.63-35.4-.4 11.35-3.82 24.22-4.22 35.4.4zm-3.9-41.4a67 67 0 01-32.6 12.8c10.33-5.47 21.48-9.3 32.6-12.8zm-3.3 27c-8.2.95-15.33 1.2-3.34-1.89 1.63-2.79 7.57.04 3.34 1.89zm-22.1 31.9c-7.05-4.13-13.14-6.71-1.43-3.5 2.99-1.29 5.72 4.81 1.43 3.5zm-46.1 28.3c-2.28-6.48-5.73-14.82.91-3.97 2.08 1.35 2.96 7.07-.91 3.97zm65.9-102.3c-6.16-1.38-26.2 5.76-22.04 3.54 7.17-3.16 15.1-5.66 22.86-6.21 1.33.52.57 3.21-.82 2.67zM251.9 260.3c9-1.9 14.95-10.3 16.8-18.9 3.97-5.98 13.5-10.73 9.56-19.27-.8-7.55 8.45-13.62 8.6-19.59-.14 6.06-3.78 10.99-6.16 16.26-.05 4.43 2.81 9.72-.6 13.7-4.65 5.3-9.94 10.1-12 17.08-3.14 5.74-9.47 10.59-16.2 10.72zm43.8-51.8c.24-4.29 7.64-19.44 5.61-7.4-.84 3-2.74 5.98-5.61 7.4zm12.1-14.3c2.12-3.42 7.42-19.01 6.86-8.39-.79 3.57-2.92 7.75-6.86 8.39zm28.4-11.7c4.5 3.02 5.1 9.46 2.4 13.9 9.1 8.9-6.83 24.32-7.7 21.72-1.49 13.18-16.3 19.66-27.94 20.5-3.37-.54-6.08 5.96-11.19 7.24-3.06 1.55-8.66 2.08-10.66 1.73 7.74-.08 14.49-4.96 19.1-10.69 10.93-1.59 26.05-6.2 28-19.06 4-4.7 15.24-10.02 9.23-19.2-1.83-4.8 5.09-9.42.41-14.24z" transform="translate(53 72) scale(.11875)"/></g><g fill="none"><path d="M88.19 106.18c.64-.02 1.82-.4 1.82-.4s.4-1.2.28-1.76c-.12-.59-.18-1.23-.54-1.82 1.69.8 4.23 1.03 5.3.5.56-.28.43-3.34.06-3.84.6-.13 3.59.42 5.5-1.32-.36-1.74-2.3-2.56-2.92-2.45 1.61-.93 2.74-2.56 2.75-3.66 0-.51-.96-1.45-3-1.38"/><path d="M116.73 78.34c-.39.87-3.27 3.56-6.16 4.94a11.38 11.38 0 01-5.72 4.03 14.84 14.84 0 01-5.09 3.24m11.3-3.22c-2.33 2.65-5.6 3.9-6.71 3.73-.74 1.33-1.78 1.92-3.18 2.53-.72.3-1.49.49-2.26.6m9.15-1.54a11.16 11.16 0 01-3.51 1.69c-.3.08-.7.1-.99.21-.25.1-.41.4-.65.54-.77.47-2.35 1.05-2.85 1.25m-1.65 6.4c-1.76 1.07-4.94 1.55-6.22.99a4.5 4.5 0 01-1.75.51"/><path d="M103.1 97.94a6 6 0 01-2.22.83c-.42.08-1.25.14-1.25.14s-.54.52-.9.75c-.89.57-2.32.9-3.02.72"/></g></g><g id="wolfHeadErased_coa542991524" stroke-width=".324"><path fill="#fff" d="M76.14 84.37c.93 3.76 3.54 5.13 3.8 4.82.27-.3-1.33-1.8-1.16-4.33"/><path fill="#fff" d="M80.88 99.29c-.82-2.51.6-4.6.93-4.48.34.12-.22 1.97 1.03 3.83"/><path d="M94.67 91.74c-2.17-1.14-6.88-2.79-9.57-2.3-6.43 1.17-7.2 4.05-11.33 4.8-4 .72-4.73-2.36-5.37-2.24-.32.2-.5 1.8.65 2.98 1.14 1.19 3.18 2.26 5.16 1.9 5.54-1 6.08-3.79 11.4-4.75 2.85-.52 8.04 1.09 9.54 1.97"/><path d="M118.97 63.5a8.27 8.27 0 00-.45-1.61c-.3-.71-.74-1.59-1.53-1.7-.95-.13-1.18.24-2.25.58-.69.29-3.5.88-4.77 2.04l.82 3.65 8.18-2.97z"/><path d="M116.48 63.48s-8.38-2.12-20.38.6c-1.94.45-2.07.57-3.61 1.8-.6.53-.42.74-1.07 1.52-2.2.74-.9 2.36-1.48 2.8-1.35.08-1.7 1.08-3.68 1.72a80.62 80.62 0 01-9.57 2.21c-1.12.17-3.16.63-4.22.89-.76 0-1.32.54-1.36.9-.06.65.14 1.37.33 2.16.3 1.37 1.26 2.07 1.38 2.58.1.4.37 1.78 1.07 2.8.3.42 3.82 1.62 7.15 2.17 3.84.64 5.42-.44 8.68 1.06 4.91 1.78 5.12 7.47 5.27 8.29.2 1.12-.63 1.72-1.35 2.06-1.01.5-2.96-.39-5.01 0-2.06.39-3.29 1.2-4.29 1.38-1.66.3-2.8.19-4.17.12-1.13.11-.84.28-.58.78a5.53 5.53 0 002.8 2.05c1.18.43 2.42.49 3.45.21.83-.22 1.23-.48 1.69-.77s2.25-.8 3.35-1c1.1-.2 2.94.04 3.52.02.1.52-.17 1.4-1.23 2.44-1.07 1.03-2.03 1.25-3.3 2.38-1.28 1.13-.36 2.25-1.98 3.68-.93.82-2.28.68-3.08.67-.26.23.43 1.4.53 1.52.85 1 1.43 1.02 1.96 1.16-1.7.09-3.05.04-4.82 2.43-1.78 2.39-4.23.9-4.38 1.04-.15.13.17 1.33 1.26 2.56.6.68 1.9 1 1.98 1.03-1.07.47-.43 2.31-1.16 3.38a3.57 3.57 0 01-4.23 1.14c1.52 2.62 3.6 3.06 5.08 2.9 2.9-.33 3.31-2.72 4.12-3.11-1.63 3.16-.15 5.31-3.51 8.31 6.24.88 8.65-5.4 9.86-5.55-1.45 2.27-.89 7.67-4.14 8.49 2.22 1.08 4.95.38 6.48-.7 2.77-1.96 3.89-4.34 4.1-4.17.28.85-1.45 3.95-1.14 6.57.13 1.1.66 3.8 2.12 4.95.52-4.39 4.7-5.92 6.9-12.07l.2-.62c.17.12.19.5.17.79-.03.72-.16 1.56-.07 2.63.14 1.67.84 2.75 2.78 4.4 1.34-5.67 3.38-4.4 4.86-9.68.04-.14.2-.3.25-.46a7.71 7.71 0 002.13 3.74 4.2 4.2 0 003.7 1.14c-1.33-3.15.42-6.42.65-10.2.01-.14-.05-.38.14-.44 1.4 3.37 5.56 3.78 6.94 2.41-2.85-1.97-1.2-5.8-1.5-8.67a5.2 5.2 0 00-.77-2.25c.25.19.84.44 1.3.62 1 .4 2.27.77 3.29-.08-2.97-1.82-1.44-5.99-2.28-8.14a5.5 5.5 0 00-1.2-1.92c.39.34 1.19.97 1.58 1.16a3 3 0 001.84.31c1.3-.1 2.26-.76 2.35-1.02-3.12-1.67-3.18-5.77-3.63-7.76-.1-.5-.43-1.34-.74-1.62.42.01.94.15 1.28.09 1.42-.25 2.15-.72 2.09-1.05-3.55-1.72-1.63-6.21-3.18-7.95a7.35 7.35 0 00-1.72-1.38c.62.15 1.6.14 2.01.05 1.3-.3 1.5-1.3 1.34-1.44-5.6-2.3-3.12-6.4-6.05-9.04"/><path d="M117.9 75.9c1.52-.2 3.55-1.27 5.25-2.92m-7.38-9.27c-1.86.63-2.73 1.3-2.73 1.3m10.07 7.97c2.1-2.06 3.7-5.01 3.17-8.34-.14-.75-.38-1.7-1.13-1.98-.9-.34-1.2-.03-2.31.07-.74.14-2-.13-4.4.3-1.05.2-1.94.43-2.67.68"/><path fill="#fff" d="M95.37 73.22s-.76.82-1.4 1.17c-.65.35-1.56.17-1.84-.26-.14-.29-.24-1.59.26-1.76.43-.23 2.98.85 2.98.85z"/><g fill="#000" stroke="none"><path d="M115.7 72.28c1.36.68 2.83.89 4.29.96.02.07-.07.06-.11.08a4.77 4.77 0 01-4.07-.93c-.04-.04-.1-.07-.12-.11zm2.48-.95c1.32.45 2.73.21 4.05.35-1.39.3-3.17.55-4.06-.35zm4.18-7.25c-3.22.8-6.27 1.64-8.57 3.86 1.51-2.62 5.64-3.75 8.57-3.86zm-5.01 10.02c3.15-.85 5.85-2.9 7.36-5.69-.27 2.76-4.58 5.52-7.2 5.68-.04 0-.13.03-.16.01z"/><path d="M92.77 72.66c.23 0 .43.37.44.84 0 .13 0 .25-.02.36-.05.3-.18.5-.35.5-.17.01-.32-.2-.4-.52a1.8 1.8 0 01-.04-.32c-.02-.47.15-.85.38-.86z"/><path d="M95.43 73.07c.2.07.36.16.47.24-.1.2-.4.11-.59.06l.12-.3zm-2.26-5.44a2.68 2.68 0 013.48.34c-1.3-.41-2.48-.84-3.47-.33l-.01-.01zm-.96 6.63c-.4.27-.74.56-1.16.7.13-.43.63-.73.98-.96zm2.39-3.01c.75.79 1.82 1.03 2.8 1.32.02.06-.03.06-.07.05-1.1.07-2.28-.3-2.74-1.36zm-2.96 2.55c-.67.6-1.13 1.37-1.6 2.1.09-.97.86-1.84 1.6-2.1zm2.56 4.97c.2-.17.32-.38.46-.59.48-.94.52-2.07 1.17-2.92 1-1.19 2.58-1.45 3.99-1.38 0 .09-.16.05-.23.08-1.15.18-2.51.43-3.29 1.25-.63.64-.84 1.53-1.16 2.33-.2.48-.49.95-.93 1.23zm-2.74-10.25c-.14.41-.26.9-.05 1.3.15.25.5.35.76.2.51-.27.87-.79 1.44-.97.4-.16.85-.08 1.2.13.71.33 1.23.94 1.72 1.53.15.23.49.43.6.61-.36-.05-.75-.57-1.05-.8-.42-.4-.85-.82-1.4-1.06-.28-.14-.6-.24-.92-.12-.65.19-1.04.84-1.7.99-.49.1-.96-.38-.9-.86 0-.32.12-.62.26-.9.01 0 .03-.09.04-.05zm-1.8 4.16c-.62 1.22-.79 2.64-1.05 3.92-.2-1.36.05-2.98 1.05-3.92zm3.28-2.84c-.07.25-.19.48-.23.74-.27 1.3.56 1.03 1.33 1.56l.34.25c-.04.1-.18-.04-.27-.04-1.33-.26-2.3-.83-1.32-2.33l.15-.18z"/><path d="M93.03 106.1a6.4 6.4 0 013.04-1.18c.88-.17 1.77-.35 2.59-.74a5.39 5.39 0 002.29-2.04c.11.05-.06.18-.08.26a4.84 4.84 0 01-1.84 1.92c-1.2.73-2.63.82-3.98 1.07-.71.12-1.4.36-2.02.72zm13.09 2.38c-.33.17-.68.32-1 .52a12.12 12.12 0 00-2.74 2.06c-1.04 1.03-1.93 2.2-2.98 3.22-.34.31-.7.6-1.09.85-.05-.1.16-.17.21-.26.7-.64 1.3-1.37 1.9-2.1.68-.82 1.37-1.66 2.2-2.35.55-.5 1.16-.91 1.81-1.24.5-.26 1-.49 1.53-.65l.16-.05zm-6.01.08c.5-.23 1-.48 1.49-.77.32-.21.66-.39.96-.63.4-.3.78-.6 1.13-.97.48-.46.88-1 1.24-1.56.34-.55.64-1.14.91-1.73.13-.25.25-.5.36-.77.11.03-.03.19-.03.27a9.02 9.02 0 01-2.24 4 7.28 7.28 0 01-2.38 1.64c-.46.23-.94.38-1.43.53zm10.45 5.52c1.57-2.93 4.22-3.16 4.63-6.81.71 3.48-3.38 4.5-4.61 6.8l-.01.01zm-.16-12.82c-1.18 4.2.93 8-2.43 10.35 2.57-1.84 1.02-7.9 2.16-9.88.08-.16.17-.32.27-.47zm2.59 21.62a14.58 14.58 0 003.14-8.28c.5 3.54-1.26 6.33-3.13 8.29l-.01-.01zm-8.59 1.57c.14-.8.7-1.46 1.27-2 1.52-1.35 3.34-2.34 4.69-3.87a7.67 7.67 0 001.33-2.07c.1.16-.14.5-.2.7a8.77 8.77 0 01-2.9 3.39c-.64.48-1.3.93-1.94 1.4-.8.6-1.66 1.21-2.11 2.14l-.14.31zm-7.57-.05a7.48 7.48 0 012.39-2.53c1.48-1.09 3.08-2.1 4.1-3.66.4-.62.72-1.28.9-2 .1-.2.07.12.03.2a5.98 5.98 0 01-.88 2.2 9.15 9.15 0 01-2.22 2.26c-1.14.84-2.37 1.56-3.42 2.5-.33.32-.64.65-.89 1.03zm-6.71-1.31a6.08 6.08 0 012.54-2.71c1.56-1 3.36-1.55 4.97-2.45.46-.27.9-.57 1.24-.99.07.07-.1.2-.14.3-.84.98-2.05 1.5-3.2 2.04-1.56.75-3.25 1.43-4.5 2.66-.35.34-.64.76-.91 1.15zm28.36-7.89a8.16 8.16 0 001.25-4.31c.16-2.76-1.24-5.05-.86-7.52.09 1.1.35 2.42.59 3.4.77 3.34 1.13 5.82-.97 8.44h-.01zm-22.78-4.24c-3.24 3.24-2.87 7.2-7.21 7.81 4.17-1.07 4.47-6.6 7.21-7.81zm14.43-15.18c2.56-2.54.18-6.58 1.91-9.24-.86 2.87.79 7.32-1.91 9.24zm4.9-2.68c-.76 3.57 1.67 8.6-1.6 11.08 2.9-3.14.27-7.7 1.6-11.08zm6.26 11.98c1.1-4.6-3.22-8.15-3.82-12.1 1.32 4.05 5.43 7.86 3.82 12.1zm-17.83-10.62c2.88-1.42 4.4-3.65 5.49-6.44-.26 2.93-2.89 5.7-5.49 6.44zm7.2-12.22c-.72-2.72-5.47-4.86-5.56-5.3 2.5 1.32 5.35 2.63 5.58 5.3h-.01zm-1.8-7.83a4.8 4.8 0 00-.87-1.52c-.3-.4-.67-.73-1.01-1.08-.47-.46-1-.88-1.38-1.41-.06-.04-.18-.37-.05-.28.1.17.24.3.4.43.36.31.75.57 1.1.9a6.54 6.54 0 011.45 1.7c.17.33.3.7.35 1.06v.2zm4.27-1.02a6.44 6.44 0 00-2.12-2.49c-1.07-.78-2.46-1.1-3.36-2.1-.23-.27-.4-.6-.46-.94-.03-.14.1.02.1.09.15.34.37.65.67.87.38.31.83.53 1.27.75.56.25 1.12.53 1.64.87a4.98 4.98 0 011.94 2.16c.12.26.23.52.32.79zm10.32 16.23a17.63 17.63 0 00-1.24-4.05 14.3 14.3 0 00-3.74-4.75 5.23 5.23 0 01-1.65-2.28c.17.04.2.43.36.58.65.97 1.65 1.62 2.48 2.43a11.17 11.17 0 013.36 5.49c.23.84.37 1.7.44 2.58zm.09 5.19c-3.03-2.29-3.35-6.63-6.87-8.03 3.8.7 4.57 5.74 6.87 8.03z"/><path d="M87.25 111.8l.1-.31c1.1.4 2.02-.62 3.03-.61-1 .61-1.99 1.17-3.13.92zm32 5.48c.7.85 1.3 1.83 1.54 2.83l-.32.06c-.26-1.07-.92-2.02-1.22-2.89zM85 122.96c.28-1.04 1.44-1.84 2.48-2.03-.86.67-1.8 1.19-2.17 2.12l-.31-.09zm6.34 2.77a5.67 5.67 0 012.22-2.85c-.73 1.06-1.4 1.71-1.76 2.73l-.46.12zm22.51.19c-.1-.93-.22-2.25.51-2.89-.3.98-.33 1.9-.19 2.84l-.32.05zm-7.98 2.24c.49-1.23.75-2.48 1.23-3.65a11.97 11.97 0 01-.93 3.76l-.3-.11zm-6.42-1.93a4.8 4.8 0 01-1.41 3.28l-.22-.24c.83-.9 1.25-2.08 1.63-3.04zm-18.1-7.69c1.26.15 2.48-.1 3.68-.27-1.11.66-2.51.68-3.7.59l.02-.32zm43.12-36.73c.56.45 1.21.78 1.9.93 0 .1-.1.2-.12.31-.73-.2-1.5-.5-1.8-1.22l.02-.02zm3.24 11.5c-.64-.57-1.51-1.31-1.67-2.09.35.28 1.38 1.41 1.86 1.85l-.19.24zm-1.42 8.91c-.6-.67-1.35-1.4-1.44-2.13.35.4 1.18 1.38 1.67 1.91l-.23.22zm-1.11 9.53c-.61-.73-1.35-1.82-.77-2.57-.11.93.43 1.7 1 2.34l-.23.23zM100.3 98.69c-3.6-1.59-3.33.95-5.89 1.26l-.01-.32c.08-.02.17 0 .25-.04 1-.25 1.76-1.06 2.55-1.52 1.14-.6 2.07 0 3.1.62z"/><path d="M72.93 80.64l-.23-.16c1.28-1.53 2.34-1 2.88-2.89.07 2.1-1.92 1.92-2.65 3.05zm19.41.27c.34.04.34.42.23.57-.24-.03-.24-.4-.23-.57zm-.81-.76c.39.17.34.48.2.62-.24-.18-.26-.34-.2-.62zm-.98-.8c.38.15.42.53.35.87-.29-.11-.34-.63-.35-.87zm11.59 10.5c.3.29.16.52-.1.67-.4-.39-.06-.7.1-.68zm-.67-.62a.7.7 0 01.01-.87c.32.3.22.66-.01.87zm-.77-2.36c.3.3.23.96-.04 1.24-.27-.43-.34-.86.04-1.24zm-1.16-1.4c.32.46.25.95-.02 1.39-.24-.5-.32-1.04.02-1.4zm-19.46-1.3c.97.04 2.02.12 2.83.04-.88.53-1.98.34-2.83-.03zm12.63 3.23c1.5-.39 3.17-.1 4.55.58-1.42-.35-3.08-.31-4.55-.59zm-16.8-10.18c-.62-.44-.62.15-.86.58-.7 1.3-2.27 1.56-2.66.03-.04-.08-.03-.28-.1-.1-.21.32-.21.73-.17 1.1-.16-.13-.15-.36-.16-.54 0-.23.03-.47.12-.68.06-.16.28-.32.43-.17.1.1.14.26.17.4.57 1.42 1.97.47 2.36-.54.3-.45.54-.45.87-.08zm-2.32-1.58c-.4-.22-.84-.4-1.12-.64.62-.07 1.09.02 1.12.64z"/></g></g><radialGradient id="backlight" cx="100%" cy="100%" r="150%"><stop stop-color="#fff" stop-opacity=".3" offset="0"/><stop stop-color="#fff" stop-opacity=".15" offset=".25"/><stop stop-color="#000" stop-opacity="0" offset="1"/></radialGradient></defs><g clip-path="url(#french_coa542991524)"><rect x="0" y="0" width="200" height="200" fill="#d7374a"/><g clip-path="url(#divisionClip_coa542991524)"><rect x="0" y="0" width="200" height="200" fill="#fafafa"/></g><g fill="#ffe066" stroke="#000"><use x:href="#crossOrthodox_coa542991524" transform="translate(50 0) scale(0.5)"/></g><g fill="#333333" stroke="#000"><use x:href="#greyhoundSejant_coa542991524" transform="translate(6.25 50) scale(0.5)"/></g><g fill="#d7374a" stroke="#000"><use x:href="#griffinPassant_coa542991524" transform="translate(93.75 50) scale(0.5)"/></g><g fill="#ffe066" stroke="#000"><use x:href="#wolfHeadErased_coa542991524" transform="translate(50 100) scale(0.5)"/></g></g><path d="m 25,25 h 150 v 139.15 c 0,41.745 -66,18.15 -75,36.3 -9,-18.15 -75,5.445 -75,-36.3 v 0 z" fill="url(#backlight)" stroke="#333"/></svg>