<svg id="coa190728790" width="500" height="500" viewBox="0 0 200 200" xmlns="http://www.w3.org/2000/svg"><defs><clipPath id="pavise_coa190728790"><path d="M95 7L39.9 37.3a10 10 0 00-5.1 9.5L46 180c.4 5.2 3.7 10 9 10h90c5.3 0 9.6-4.8 10-10l10.6-133.2a10 10 0 00-5-9.5L105 7c-4.2-2.3-6.2-2.3-10 0z"/></clipPath><clipPath id="divisionClip_coa190728790"><polygon points="0,0 100,100 200,0"/></clipPath><pattern id="ermine-argent-sable" width="0.125" height="0.125" viewBox="0 0 200 200" fill="#333333"><rect width="200" height="200" fill="#fafafa"/><g stroke="none" fill="#333333"><g transform="translate(-100 -50)"><path d="m100 81.1c-4.25 17.6-12.7 29.8-21.2 38.9 3.65-0.607 7.9-3.04 11.5-5.47-2.42 4.86-4.86 8.51-7.3 12.7 1.82-0.607 6.07-4.86 12.7-10.9 1.21 8.51 2.42 17.6 4.25 23.6 1.82-5.47 3.04-15.2 4.25-23.6 3.65 3.65 7.3 7.9 12.7 10.9l-7.9-13.3c3.65 1.82 7.9 4.86 11.5 6.07-9.11-9.11-17-21.2-20.6-38.9z"/><path d="m82.4 81.7c-0.607-0.607-6.07 2.42-9.72-4.25 7.9 6.68 15.2-7.3 21.8 1.82 1.82 4.25-6.68 10.9-12.1 2.42z"/><path d="m117 81.7c0.607-1.21 6.07 2.42 9.11-4.86-7.3 7.3-15.2-7.3-21.2 2.42-1.82 4.25 6.68 10.9 12.1 2.42z"/><path d="m101 66.5c-1.02-0.607 3.58-4.25-3.07-8.51 5.63 7.9-10.2 10.9-1.54 17.6 3.58 2.42 12.2-2.42 4.6-9.11z"/></g><g transform="translate(100 -50)"><path d="m100 81.1c-4.25 17.6-12.7 29.8-21.2 38.9 3.65-0.607 7.9-3.04 11.5-5.47-2.42 4.86-4.86 8.51-7.3 12.7 1.82-0.607 6.07-4.86 12.7-10.9 1.21 8.51 2.42 17.6 4.25 23.6 1.82-5.47 3.04-15.2 4.25-23.6 3.65 3.65 7.3 7.9 12.7 10.9l-7.9-13.3c3.65 1.82 7.9 4.86 11.5 6.07-9.11-9.11-17-21.2-20.6-38.9z"/><path d="m82.4 81.7c-0.607-0.607-6.07 2.42-9.72-4.25 7.9 6.68 15.2-7.3 21.8 1.82 1.82 4.25-6.68 10.9-12.1 2.42z"/><path d="m117 81.7c0.607-1.21 6.07 2.42 9.11-4.86-7.3 7.3-15.2-7.3-21.2 2.42-1.82 4.25 6.68 10.9 12.1 2.42z"/><path d="m101 66.5c-1.02-0.607 3.58-4.25-3.07-8.51 5.63 7.9-10.2 10.9-1.54 17.6 3.58 2.42 12.2-2.42 4.6-9.11z"/></g><g transform="translate(0 50)"><path d="m100 81.1c-4.25 17.6-12.7 29.8-21.2 38.9 3.65-0.607 7.9-3.04 11.5-5.47-2.42 4.86-4.86 8.51-7.3 12.7 1.82-0.607 6.07-4.86 12.7-10.9 1.21 8.51 2.42 17.6 4.25 23.6 1.82-5.47 3.04-15.2 4.25-23.6 3.65 3.65 7.3 7.9 12.7 10.9l-7.9-13.3c3.65 1.82 7.9 4.86 11.5 6.07-9.11-9.11-17-21.2-20.6-38.9z"/><path d="m82.4 81.7c-0.607-0.607-6.07 2.42-9.72-4.25 7.9 6.68 15.2-7.3 21.8 1.82 1.82 4.25-6.68 10.9-12.1 2.42z"/><path d="m117 81.7c0.607-1.21 6.07 2.42 9.11-4.86-7.3 7.3-15.2-7.3-21.2 2.42-1.82 4.25 6.68 10.9 12.1 2.42z"/><path d="m101 66.5c-1.02-0.607 3.58-4.25-3.07-8.51 5.63 7.9-10.2 10.9-1.54 17.6 3.58 2.42 12.2-2.42 4.6-9.11z"/></g></g></pattern><radialGradient id="backlight" cx="100%" cy="100%" r="150%"><stop stop-color="#fff" stop-opacity=".3" offset="0"/><stop stop-color="#fff" stop-opacity=".15" offset=".25"/><stop stop-color="#000" stop-opacity="0" offset="1"/></radialGradient></defs><g clip-path="url(#pavise_coa190728790)"><rect x="0" y="0" width="200" height="200" fill="url(#ermine-argent-sable)"/><g clip-path="url(#divisionClip_coa190728790)"><rect x="0" y="0" width="200" height="200" fill="#26c061"/></g></g><path d="M95 7L39.9 37.3a10 10 0 00-5.1 9.5L46 180c.4 5.2 3.7 10 9 10h90c5.3 0 9.6-4.8 10-10l10.6-133.2a10 10 0 00-5-9.5L105 7c-4.2-2.3-6.2-2.3-10 0z" fill="url(#backlight)" stroke="#333"/></svg>