<svg id="coa158041551" width="500" height="500" viewBox="0 0 200 200" xmlns="http://www.w3.org/2000/svg" xmlns:x="http://www.w3.org/1999/xlink"><defs><clipPath id="pavise_coa158041551"><path d="M95 7L39.9 37.3a10 10 0 00-5.1 9.5L46 180c.4 5.2 3.7 10 9 10h90c5.3 0 9.6-4.8 10-10l10.6-133.2a10 10 0 00-5-9.5L105 7c-4.2-2.3-6.2-2.3-10 0z"/></clipPath><clipPath id="divisionClip_coa158041551"><path d="m 0,95 h 100 v 10 h 100 v 10 H 0 Z"/><rect x="0" y="115" width="200" height="85" shape-rendering="crispedges"/></clipPath><g id="crossFleury_coa158041551" stroke-width=".5"><path d="M95.2 125.9a2.6 2.6 0 01-2.6 2.6 2.6 2.6 0 01-2.6-2.6 4.8 4.8 0 00-1.7 3.7 4.8 4.8 0 004.8 4.8 4.8 4.8 0 003-1.1 7.8 7.8 0 003.9 6.8 7.8 7.8 0 003.9-6.8 4.8 4.8 0 003 1.1 4.8 4.8 0 004.8-4.8 4.8 4.8 0 00-1.7-3.7 2.6 2.6 0 01-2.6 2.6 2.6 2.6 0 01-2.6-2.6v-21.1h21.1a2.6 2.6 0 012.6 2.6 2.6 2.6 0 01-2.6 2.6 4.8 4.8 0 003.7 1.7 4.8 4.8 0 004.8-4.8 4.8 4.8 0 00-1.1-3 7.8 7.8 0 006.8-3.9 7.8 7.8 0 00-6.8-3.9 4.8 4.8 0 001.1-3 4.8 4.8 0 00-4.8-4.8 4.8 4.8 0 00-3.7 1.7 2.6 2.6 0 012.6 2.6 2.6 2.6 0 01-2.6 2.6h-21.1V74.1a2.6 2.6 0 012.6-2.6 2.6 2.6 0 012.6 2.6 4.8 4.8 0 001.7-3.7 4.8 4.8 0 00-4.8-4.8 4.8 4.8 0 00-3 1.1A7.8 7.8 0 00100 60a7.8 7.8 0 00-3.9 6.8 4.8 4.8 0 00-3-1.1 4.8 4.8 0 00-4.8 4.8 4.8 4.8 0 001.7 3.7 2.6 2.6 0 012.6-2.6 2.6 2.6 0 012.6 2.6v21H74.1a2.6 2.6 0 01-2.6-2.6 2.6 2.6 0 012.6-2.6 4.8 4.8 0 00-3.7-1.7 4.8 4.8 0 00-4.8 4.8 4.8 4.8 0 001.1 3A7.8 7.8 0 0060 100a7.8 7.8 0 006.8 3.9 4.8 4.8 0 00-1.1 3 4.8 4.8 0 004.8 4.8 4.8 4.8 0 003.7-1.7 2.6 2.6 0 01-2.6-2.6 2.6 2.6 0 012.6-2.6h21.1z"/></g><radialGradient id="backlight" cx="100%" cy="100%" r="150%"><stop stop-color="#fff" stop-opacity=".3" offset="0"/><stop stop-color="#fff" stop-opacity=".15" offset=".25"/><stop stop-color="#000" stop-opacity="0" offset="1"/></radialGradient></defs><g clip-path="url(#pavise_coa158041551)"><rect x="0" y="0" width="200" height="200" fill="#ffe066"/><g clip-path="url(#divisionClip_coa158041551)"><rect x="0" y="0" width="200" height="200" fill="#333333"/></g><g fill="#d7374a" stroke="#000"><use x:href="#crossFleury_coa158041551" transform="translate(-35 -35) scale(1.35)"/></g></g><path d="M95 7L39.9 37.3a10 10 0 00-5.1 9.5L46 180c.4 5.2 3.7 10 9 10h90c5.3 0 9.6-4.8 10-10l10.6-133.2a10 10 0 00-5-9.5L105 7c-4.2-2.3-6.2-2.3-10 0z" fill="url(#backlight)" stroke="#333"/></svg>