<svg id="coa953713030" width="500" height="500" viewBox="0 0 200 200" xmlns="http://www.w3.org/2000/svg"><defs><clipPath id="pavise_coa953713030"><path d="M95 7L39.9 37.3a10 10 0 00-5.1 9.5L46 180c.4 5.2 3.7 10 9 10h90c5.3 0 9.6-4.8 10-10l10.6-133.2a10 10 0 00-5-9.5L105 7c-4.2-2.3-6.2-2.3-10 0z"/></clipPath><clipPath id="divisionClip_coa953713030"><rect x="15" y="115" width="200" height="200" transform="translate(-70 -70) rotate(225.001 100 100)"/><path d="m 200,105 h -2 v -10 0 0 h -10 v 5 h 5 v 5 H 183 V 95 h -10 v 5 h 5 v 5 H 168 V 95 h -10 v 5 h 5 v 5 H 153 V 95 h -10 v 5 h 5 v 5 H 138 V 95 h -10 v 5 h 5 v 5 H 123 V 95 h -10 v 5 h 5 v 5 h -10 v 0 0 -10 H 98 v 5 h 5 v 5 H 93 V 95 H 83 v 5 h 5 v 5 H 78 V 95 H 68 v 5 h 5 v 5 H 63 V 95 H 53 v 5 h 5 v 5 H 48 V 95 H 38 v 5 h 5 v 5 H 33 V 95 H 23 v 5 h 5 v 5 H 18 V 95 H 8 v 5 h 5 v 5 H 3 V 95 H 0 v 20 h 200 z" transform="translate(-70.7 -70.7) rotate(225 100 100) scale(1 1)"/><path d="m 200,105 h -2 v -10 0 0 h -10 v 5 h 5 v 5 H 183 V 95 h -10 v 5 h 5 v 5 H 168 V 95 h -10 v 5 h 5 v 5 H 153 V 95 h -10 v 5 h 5 v 5 H 138 V 95 h -10 v 5 h 5 v 5 H 123 V 95 h -10 v 5 h 5 v 5 h -10 v 0 0 -10 H 98 v 5 h 5 v 5 H 93 V 95 H 83 v 5 h 5 v 5 H 78 V 95 H 68 v 5 h 5 v 5 H 63 V 95 H 53 v 5 h 5 v 5 H 48 V 95 H 38 v 5 h 5 v 5 H 33 V 95 H 23 v 5 h 5 v 5 H 18 V 95 H 8 v 5 h 5 v 5 H 3 V 95 H 0 v 20 h 200 z" transform="translate(270.7 -70.7) rotate(-225 -100 100) scale(-1 1)"/></clipPath><radialGradient id="backlight" cx="100%" cy="100%" r="150%"><stop stop-color="#fff" stop-opacity=".3" offset="0"/><stop stop-color="#fff" stop-opacity=".15" offset=".25"/><stop stop-color="#000" stop-opacity="0" offset="1"/></radialGradient></defs><g clip-path="url(#pavise_coa953713030)"><rect x="0" y="0" width="200" height="200" fill="#fafafa"/><g clip-path="url(#divisionClip_coa953713030)"><rect x="0" y="0" width="200" height="200" fill="#377cd7"/></g><g fill="#522d5b" stroke="none"><polygon points="0,178 178,0 200,0 200,22 22,200 0,200"/></g></g><path d="M95 7L39.9 37.3a10 10 0 00-5.1 9.5L46 180c.4 5.2 3.7 10 9 10h90c5.3 0 9.6-4.8 10-10l10.6-133.2a10 10 0 00-5-9.5L105 7c-4.2-2.3-6.2-2.3-10 0z" fill="url(#backlight)" stroke="#333"/></svg>