<svg id="coa590571308" width="500" height="500" viewBox="0 0 200 200" xmlns="http://www.w3.org/2000/svg" xmlns:x="http://www.w3.org/1999/xlink"><defs><clipPath id="pavise_coa590571308"><path d="M95 7L39.9 37.3a10 10 0 00-5.1 9.5L46 180c.4 5.2 3.7 10 9 10h90c5.3 0 9.6-4.8 10-10l10.6-133.2a10 10 0 00-5-9.5L105 7c-4.2-2.3-6.2-2.3-10 0z"/></clipPath><clipPath id="divisionClip_coa590571308"><path d="m 0,105 10,-15 15,20 15,-20 15,20 15,-20 15,20 15,-20 15,20 15,-20 15,20 15,-20 15,20 15,-20 10,15 v 10 H 0 Z" transform="rotate(-90 100 100)"/><rect x="115" y="0" width="85" height="200" shape-rendering="crispedges"/></clipPath><g id="heart_coa590571308"><path stroke-width=".5" d="M100 84c-.7-1.1-1.4-2.2-2.4-3.2-6.3-6.8-16.6-6.8-23 0-6.3 6.8-5.4 17.8 1 24.6 6.3 6.8 17.7 12.4 24.2 27 7.3-14.4 18.2-20.2 24.5-27 6.3-6.8 7.3-17.8 1-24.6-6.3-6.8-16.6-6.8-23 0-.9 1-1.6 2.1-2.3 3.2z"/></g><g id="axe_coa590571308" stroke-width=".5"><path d="M102.25 84.98l.03 54.55c0 1.36-1.09 1.65-2.45 1.65-1.35 0-2.46-.27-2.46-1.65l.07-54.7c0-.2 1.06-.42 2.42-.42 1.33 0 2.39.38 2.39.57z"/><path d="M95.9 78.3c-10.6 0-12.89-9.37-13.47-10.87 0 0-4.77 4.83-4.77 15.01 0 11.7 6.15 16.4 6.15 16.4s-1.6-8.62 8.6-11.5v-.46l.02-.12.02-.07.03-.1.04-.1.05-.13.03-.08.04-.07.05-.09.07-.1.07-.09.05-.07.05-.05.05-.05.06-.03a.24.24 0 01.07-.06l.05-.03a.14.14 0 01.07-.04l.08-.05a.85.85 0 01.12-.05l.07-.02.07-.01.12-.04.05-.02.1-.01H96"/><path d="M102.92 84.5c5-.04 7.95.3 11.53 1.88 3.1 1.38 5.23 4.27 5.23 4.27.26-2.6-1.64-5.75-4.58-8.05-3.12-2.46-8.4-3.94-12.18-3.94"/><path d="M102.38 76.53C102.2 68.12 100 62 100 62s-2.14 6.36-2.38 14.53"/><path fill="#000" stroke="none" d="M82.37 71.3a23.97 23.97 0 00-1.52 5.8A34.7 34.7 0 0082 91.91c.3.95.63 1.9 1.02 2.84a17.92 17.92 0 01-1.8-4.17 26.18 26.18 0 01-1.15-7.48 30.84 30.84 0 011.2-8.99 20.08 20.08 0 011.11-2.81z"/><path d="M103.61 86.07h-7.53c-.1 0-.18-.07-.18-.17v-8.37c0-.1.07-.17.18-.17h7.53c.1 0 .17.07.17.17v8.37c0 .1-.06.17-.17.17z"/><circle cx="99.844" cy="81.716" r="2.644"/><rect width="6.359" height="2.177" x="96.82" y="75.185"/><line x1="96.803" x2="102.903" y1="76.273" y2="76.273"/></g><radialGradient id="backlight" cx="100%" cy="100%" r="150%"><stop stop-color="#fff" stop-opacity=".3" offset="0"/><stop stop-color="#fff" stop-opacity=".15" offset=".25"/><stop stop-color="#000" stop-opacity="0" offset="1"/></radialGradient></defs><g clip-path="url(#pavise_coa590571308)"><rect x="0" y="0" width="200" height="200" fill="#26c061"/><g clip-path="url(#divisionClip_coa590571308)"><rect x="0" y="0" width="200" height="200" fill="#fafafa"/></g><g fill="#ffe066" stroke="#000"><use x:href="#heart_coa590571308" transform="translate(7 37) scale(0.63)"/></g><g fill="#d7374a" stroke="#000"><use x:href="#axe_coa590571308" transform="translate(67 37) scale(0.63)"/></g></g><path d="M95 7L39.9 37.3a10 10 0 00-5.1 9.5L46 180c.4 5.2 3.7 10 9 10h90c5.3 0 9.6-4.8 10-10l10.6-133.2a10 10 0 00-5-9.5L105 7c-4.2-2.3-6.2-2.3-10 0z" fill="url(#backlight)" stroke="#333"/></svg>