<svg id="coa514031513" width="500" height="500" viewBox="0 5 200 200" xmlns="http://www.w3.org/2000/svg" xmlns:x="http://www.w3.org/1999/xlink"><defs><clipPath id="renaissance_coa514031513"><path d="M 25,33.9 C 33.4,50.3 36.2,72.9 36.2,81.7 36.2,109.9 25,122.6 25,141 c 0,29.4 24.9,44.1 40.2,47.7 15.3,3.7 29.3,0 34.8,11.3 5.5,-11.3 19.6,-7.6 34.8,-11.3 C 150.1,185 175,170.3 175,141 c 0,-18.4 -11.2,-31.1 -11.2,-59.3 0,-8.8 2.8,-31.3 11.2,-47.7 L 155.7,14.4 C 138.2,21.8 119.3,25.7 100,25.7 c -19.3,0 -38.2,-3.9 -55.7,-11.3 z"/></clipPath><g id="bow_coa514031513" stroke-width=".3"><path d="M107 64.5v70.9h-1l-.3-71"/><path d="M100 103s-2.3 3.1-2.3 6.6c0 6.7 4.3 11.4 6.6 16.2a23.5 23.5 0 012.9 9.6c0 3.7-1.4 6.6-4.9 6.6-1.3 0-2.3-.8-2.3-1.9s1.1-2 2.3-2c.6 0 1.1.1 1.6.5.3-.6.9-1.6.9-3.2 0-2.8-3.2-7.4-5.4-11-3.8-6-6.5-8.8-6.5-14.3a13.2 13.2 0 012.4-7.2v-6.1s-2.4-3.3-2.4-7.2c0-5.5 2.7-8.2 6.6-14.4 2-3.5 5.3-8.1 5.3-11 0-1.5-.6-2.5-1-3-.4.3-1 .4-1.5.4-1.3 0-2.3-1-2.3-2s1.1-2 2.3-2c3.5 0 4.9 3 4.9 6.6a24 24 0 01-2.9 9.7c-2.3 4.8-6.6 9.4-6.6 16.2a13.2 13.2 0 002.2 6.6z"/><path d="M95.3 96.8s0-.5 2.3-.5 2.3.5 2.3.5m0 6.1s.1.5-2.2.5c-1.7 0-2.1-.3-2.3-.4h-.1m9.4 33.3v-1h2.5v1zm0-71.8v-1.1h2.5v1z"/></g><radialGradient id="backlight" cx="100%" cy="100%" r="150%"><stop stop-color="#fff" stop-opacity=".3" offset="0"/><stop stop-color="#fff" stop-opacity=".15" offset=".25"/><stop stop-color="#000" stop-opacity="0" offset="1"/></radialGradient></defs><g clip-path="url(#renaissance_coa514031513)"><rect x="0" y="0" width="200" height="200" fill="#333333"/><g fill="#ffe066" stroke="none"><rect width="200" height="75"/></g><g fill="#333333" stroke="#000"><use x:href="#bow_coa514031513" transform="translate(6.25 0) scale(0.5)"/><use x:href="#bow_coa514031513" transform="translate(50 0) scale(0.5)"/><use x:href="#bow_coa514031513" transform="translate(93.75 0) scale(0.5)"/></g></g><path d="M 25,33.9 C 33.4,50.3 36.2,72.9 36.2,81.7 36.2,109.9 25,122.6 25,141 c 0,29.4 24.9,44.1 40.2,47.7 15.3,3.7 29.3,0 34.8,11.3 5.5,-11.3 19.6,-7.6 34.8,-11.3 C 150.1,185 175,170.3 175,141 c 0,-18.4 -11.2,-31.1 -11.2,-59.3 0,-8.8 2.8,-31.3 11.2,-47.7 L 155.7,14.4 C 138.2,21.8 119.3,25.7 100,25.7 c -19.3,0 -38.2,-3.9 -55.7,-11.3 z" fill="url(#backlight)" stroke="#333"/></svg>