<svg id="coa715445601" width="500" height="500" viewBox="0 0 200 200" xmlns="http://www.w3.org/2000/svg" xmlns:x="http://www.w3.org/1999/xlink"><defs><clipPath id="boeotian_coa715445601"><path d="M150 115c-5 0-10-5-10-15s5-15 10-15c10 0 7 10 15 10 10 0 0-30 0-30-10-25-30-55-65-55S45 40 35 65c0 0-10 30 0 30 8 0 5-10 15-10 5 0 10 5 10 15s-5 15-10 15c-10 0-7-10-15-10-10 0 0 30 0 30 10 25 30 55 65 55s55-30 65-55c0 0 10-30 0-30-8 0-5 10-15 10z"/></clipPath><clipPath id="divisionClip_coa715445601"><rect x="100" y="0" width="100" height="100"/><rect x="0" y="100" width="100" height="100"/></clipPath><g id="crossCalvary_coa715445601" stroke-width=".5"><path d="m 95,55 h 10 v 15 h 20 v 10 h -20 v 40 h 3 v 10 h 10 v 10 h 17 v 10 H 65 v -10 h 17 v -10 h 10 v -10 h 3 V 80 H 75 V 70 h 20 z"/></g><radialGradient id="backlight" cx="100%" cy="100%" r="150%"><stop stop-color="#fff" stop-opacity=".3" offset="0"/><stop stop-color="#fff" stop-opacity=".15" offset=".25"/><stop stop-color="#000" stop-opacity="0" offset="1"/></radialGradient></defs><g clip-path="url(#boeotian_coa715445601)"><rect x="0" y="0" width="200" height="200" fill="#333333"/><g fill="#ffe066" stroke="#000"><use x:href="#crossCalvary_coa715445601" transform="translate(22.5 17.5) scale(0.45)"/><use x:href="#crossCalvary_coa715445601" transform="translate(87.5 17.5) scale(0.45)"/><use x:href="#crossCalvary_coa715445601" transform="translate(22.5 92.5) scale(0.45)"/><use x:href="#crossCalvary_coa715445601" transform="translate(87.5 92.5) scale(0.45)"/></g><g clip-path="url(#divisionClip_coa715445601)"><rect x="0" y="0" width="200" height="200" fill="#ffe066"/><g fill="#333333" stroke="#000"><use x:href="#crossCalvary_coa715445601" transform="translate(22.5 17.5) scale(0.45)"/><use x:href="#crossCalvary_coa715445601" transform="translate(87.5 17.5) scale(0.45)"/><use x:href="#crossCalvary_coa715445601" transform="translate(22.5 92.5) scale(0.45)"/><use x:href="#crossCalvary_coa715445601" transform="translate(87.5 92.5) scale(0.45)"/></g></g></g><path d="M150 115c-5 0-10-5-10-15s5-15 10-15c10 0 7 10 15 10 10 0 0-30 0-30-10-25-30-55-65-55S45 40 35 65c0 0-10 30 0 30 8 0 5-10 15-10 5 0 10 5 10 15s-5 15-10 15c-10 0-7-10-15-10-10 0 0 30 0 30 10 25 30 55 65 55s55-30 65-55c0 0 10-30 0-30-8 0-5 10-15 10z" fill="url(#backlight)" stroke="#333"/></svg>