<svg id="coa368262391" width="500" height="500" viewBox="0 0 200 200" xmlns="http://www.w3.org/2000/svg" xmlns:x="http://www.w3.org/1999/xlink"><defs><clipPath id="boeotian_coa368262391"><path d="M150 115c-5 0-10-5-10-15s5-15 10-15c10 0 7 10 15 10 10 0 0-30 0-30-10-25-30-55-65-55S45 40 35 65c0 0-10 30 0 30 8 0 5-10 15-10 5 0 10 5 10 15s-5 15-10 15c-10 0-7-10-15-10-10 0 0 30 0 30 10 25 30 55 65 55s55-30 65-55c0 0 10-30 0-30-8 0-5 10-15 10z"/></clipPath><clipPath id="divisionClip_coa368262391"><rect x="100" y="0" width="100" height="100"/><rect x="0" y="100" width="100" height="100"/></clipPath><g id="mascle_coa368262391"><path d="M100 55l30 45-30 45-30-45zm0 15.75L80.5 100l19.5 29.25L119.5 100z"/></g><g id="cowHorns_coa368262391" stroke-width=".3"><path d="M95.56 120.94c-.91-.13-1.52.89-2.56 1.24-1.22.4-2.4.18-4.09-.47-6.16-2.37-13.34-12.34-13.34-23.32 0-12.67 5.97-19.14 10.6-28.82 1.94-4.06 1.43-9.1.54-9.52-.62-.3-.92 1.37-1.33 2.57-3.61 10.64-18 20.62-18 38.86 0 13.18 6.16 21.42 12.46 27.63 3.75 3.7 8.2 5.89 9.18 6.8.74.68 1.3 1.5 1.55 2.01.23.51.46 1.1.98 1.59.56.48.97.33 1.38.18 1.35-.67 4.07-4.18 4.76-9.01.7-5.06.1-9.42-2.13-9.74zm8.82 0c.91-.13 1.52.89 2.56 1.24 1.22.4 2.4.18 4.09-.47 6.16-2.37 13.34-12.34 13.34-23.32 0-12.67-5.97-19.14-10.6-28.82-1.94-4.06-1.43-9.1-.54-9.52.62-.3.92 1.37 1.33 2.57 3.61 10.64 18 20.62 18 38.86 0 13.18-6.16 21.42-12.46 27.63-3.75 3.7-8.2 5.89-9.18 6.8-.74.68-1.3 1.5-1.55 2.01-.23.51-.47 1.1-.98 1.59-.56.48-.97.33-1.38.18-1.35-.67-4.07-4.18-4.76-9.01-.7-5.06-.1-9.42 2.13-9.74z"/><g fill="#000" stroke="none"><path d="M83.47 73.4a2.2 2.2 0 01-.67 1.08c.09-.42.23-.94.67-1.07zm-.9 1.38c.22.54-.18.84-.56 1.02.17-.35.41-.66.56-1.02zm-1.66 2.23c.37-.24.68-.56 1-.86-.25.7-.52.85-1 .86zm-.18.42c-.24.36-.53.7-.76 1.09.03-.57.22-.92.76-1.09zm5.33-15.4c.22.43-.04.8-.33 1.11.14-.37.28-.74.33-1.11zm.34.98c.28.44-.08.85-.33 1.11.12-.38.3-.73.33-1.11zm.56-.21c.43.39.2.8-.02 1.15.01-.4.07-.84.02-1.15zm-9.16 49.15c-.34-.67-1.07-1.08-1.14-1.82.45.61 1.03 1.04 1.13 1.82zm-.97-2.4a1.24 1.24 0 01-1.04-1.2c.27.45.67.88 1.04 1.2zm-.44-1.69c-.78-.17-1.31-.65-1.41-1.41.37.62.84.98 1.4 1.41zm-.85-1.86c-.47-.4-.58-.91-.54-1.47a9 9 0 01.53 1.46zm-.08-1.97c-.69-.41-.58-1.2-.12-1.68-.15.62-.13 1.25.12 1.68zm32.92 32.12c.63-3.19-.94-10.94-3.76-12.74-2.06 2.42-.11 13.65 2.68 14.81-3.13-1.32-4.9-11.6-3.23-14.47.15-.27.28-.48.55-.58.29.02.5.24.68.4 2.46 2.41 3.97 8.65 3.08 12.58zm8.09-62.75c.49.22.57.63.67 1.07-.34-.24-.47-.69-.67-1.06zm.9 1.38c.15.35.41.7.57 1.02-.45-.19-.69-.57-.57-1.02zm.66 1.37c.32.3.67.64 1 .86-.56.04-.9-.37-1-.86zm1.18 1.28c.53.2.81.55.77 1.1-.19-.43-.54-.73-.77-1.1zm-5.33-15.4c.01.4.21.76.33 1.12-.36-.35-.5-.69-.32-1.12zm-.34.98c.01.4.21.76.33 1.12-.35-.35-.5-.7-.32-1.12zm-.56-.21c-.1.4-.02.76.01 1.15-.27-.43-.29-.78-.01-1.16zm9.17 49.15c.03-.8.73-1.24 1.13-1.83-.1.72-.75 1.23-1.14 1.83zm.96-2.4a5.7 5.7 0 001.04-1.21c.03.6-.56 1.13-1.04 1.21zm.44-1.69a4.98 4.98 0 001.41-1.41c-.07.94-.7 1.25-1.4 1.41zm.85-1.86c.12-.5.33-.99.54-1.48.1.58-.14 1.1-.54 1.47zm.08-1.97c.37-.58.29-1.05.12-1.67.7.6.47 1.3-.12 1.66zm-32.92 32.12c-.68-4.1.36-8.96 2.8-12.23.25-.32.8-1.05 1.23-.59 2.28 3.49-.04 13.4-2.72 14.85 2.7-2.42 4.33-10.6 2.68-14.52-.4-.7-1.02.48-1.28.75-2.08 3.63-3.34 7.87-2.71 11.74z"/><path d="M94.27 122.29c-.56.43-1.03.97-1.45 1.52-2.5 3.62-3.3 10.66-2.13 14.08l-.27.1c-.84-2.99-.59-10.5 2.33-14.24.45-.53.95-1.05 1.52-1.46zm11.4 0c3.71 2.63 5.55 10.75 3.84 15.7l-.28-.1c1.47-3.84.3-11.96-3.56-15.6z"/></g></g><g id="sword_coa368262391" stroke-width=".28"><path d="M96.6 118.8L98 69.2c0-1.8.7-9.2 2-9.2 1.2 0 2 7.4 2 9.2l1.4 49.6z"/><path d="M98.5 133.8L97 120h5.8l-1.3 13.8z"/><path d="M100 120.9c4.2 0 8.2-.2 12.4-.6l-.8-3.2c-2 .4-3.5 1.3-5.4 1.5-2 .3-4.7-.3-6.2-.6-1.5.3-4.1.9-6.2.6-2-.2-3.5-1-5.4-1.5l-.8 3.2c4.2.4 8.2.6 12.4.6zm0 19.1c2 0 3.6-1.5 3.6-3.5 0-1.5-1-2.7-2.2-3.3-.4.2-1 .3-1.6.3-.5 0-1 0-1.3-.2-1.2.6-2 1.8-2 3.2 0 2 1.5 3.5 3.5 3.5z"/><g fill="none"><path d="M99 118.25s.4-39.35.9-39.35.9 39.35.9 39.35"/><path d="M102.7 121.4c-.3.6-1.5.85-2.7.8-1.2-.05-2.4-.2-2.7-.8m5.1 2.5c-.2.5-1.3.7-2.4.7-1 0-2.2-.3-2.4-.7m4.6 2.3c-.2.4-1.2.6-2.2.6s-2-.2-2.2-.6m4.2 2.3c-.2.4-1 .6-2 .6-.9 0-1.8-.2-2-.6m3.7 2.3c-.2.4-1 .5-1.7.5s-1.5-.1-1.7-.5"/><path d="M97.6 137.1a2.4 2.4 0 014.8 0c0 1.3-1 2.3-2.4 2.3-1.3 0-2.4-1-2.4-2.3z"/><path d="M100 118v2.9"/></g></g><g id="hatchet_coa368262391" stroke-width=".615"><path d="M114.4 137.8c0 2.5 9.5 2.5 9.5 0l-.3-65.4c0-2.5-9-2.5-9-.1z"/><path d="M124.2 75.2c0-3-7.3-3-9.4-1.4-.5.4-.6 1-1.1 1.4-.6.3-4.3.3-5.4.3-11.1 0-23.9-13.3-26.4-14.8 0 0-6.4 10.4-6.4 29.6a72.4 72.4 0 0014.3 41.4s5.6-2.6 6.8-8.8c.9-4.1.5-9.9 1.5-14 2-8 10.6-8.8 10.6-8.8 0-.3-1.6-4-1.6-6.9 0-3.3 3.2-3.8 4.8-2.5.5.4.8 1.5.9 2.3v3.4c0 3 9.5 3 11.4 1.1V75.2z"/><path fill="#000" stroke="none" d="M83.5 68.7c-2.9 19.6-3.6 34.2 7.1 56-10.2-14.6-11.8-41.2-7.1-56zm30.7 8c.3 5.7.5 11.6 0 17.4-.3-5.3-.5-11.7 0-17.3z" opacity=".6"/></g><radialGradient id="backlight" cx="100%" cy="100%" r="150%"><stop stop-color="#fff" stop-opacity=".3" offset="0"/><stop stop-color="#fff" stop-opacity=".15" offset=".25"/><stop stop-color="#000" stop-opacity="0" offset="1"/></radialGradient></defs><g clip-path="url(#boeotian_coa368262391)"><rect x="0" y="0" width="200" height="200" fill="#ffe066"/><g clip-path="url(#divisionClip_coa368262391)"><rect x="0" y="0" width="200" height="200" fill="#377cd7"/></g><g fill="#26c061" stroke="#000"><use x:href="#mascle_coa368262391" transform="translate(22.5 17.5) scale(0.45)"/></g><g fill="#ffe066" stroke="#000"><use x:href="#cowHorns_coa368262391" transform="translate(87.5 17.5) scale(0.45)"/></g><g fill="#fafafa" stroke="#000"><use x:href="#sword_coa368262391" transform="translate(22.5 92.5) scale(0.45)"/></g><g fill="#d7374a" stroke="#000"><use x:href="#hatchet_coa368262391" transform="translate(87.5 92.5) scale(0.45)"/></g></g><path d="M150 115c-5 0-10-5-10-15s5-15 10-15c10 0 7 10 15 10 10 0 0-30 0-30-10-25-30-55-65-55S45 40 35 65c0 0-10 30 0 30 8 0 5-10 15-10 5 0 10 5 10 15s-5 15-10 15c-10 0-7-10-15-10-10 0 0 30 0 30 10 25 30 55 65 55s55-30 65-55c0 0 10-30 0-30-8 0-5 10-15 10z" fill="url(#backlight)" stroke="#333"/></svg>