<svg id="coa359578195" width="500" height="500" viewBox="0 0 200 200" xmlns="http://www.w3.org/2000/svg" xmlns:x="http://www.w3.org/1999/xlink"><defs><clipPath id="polish_coa359578195"><path d="m 90.3,6.3 c -12.7,0 -20.7,10.9 -40.5,14 0,11.8 -4.9,23.5 -11.4,31.1 0,0 12.7,6 12.7,19.3 C 51.1,90.8 30,90.8 30,90.8 c 0,0 -3.6,7.4 -3.6,22.4 0,34.3 23.1,60.2 40.7,68.2 17.6,8 27.7,11.4 32.9,18.6 5.2,-7.3 15.3,-10.7 32.8,-18.6 17.6,-8 40.7,-33.9 40.7,-68.2 0,-15 -3.6,-22.4 -3.6,-22.4 0,0 -21.1,0 -21.1,-20.1 0,-13.3 12.7,-19.3 12.7,-19.3 C 155.1,43.7 150.2,32.1 150.2,20.3 130.4,17.2 122.5,6.3 109.7,6.3 102.5,6.3 100,10 100,10 c 0,0 -2.5,-3.7 -9.7,-3.7 z"/></clipPath><g id="cowHorns_coa359578195" stroke-width=".3"><path d="M95.56 120.94c-.91-.13-1.52.89-2.56 1.24-1.22.4-2.4.18-4.09-.47-6.16-2.37-13.34-12.34-13.34-23.32 0-12.67 5.97-19.14 10.6-28.82 1.94-4.06 1.43-9.1.54-9.52-.62-.3-.92 1.37-1.33 2.57-3.61 10.64-18 20.62-18 38.86 0 13.18 6.16 21.42 12.46 27.63 3.75 3.7 8.2 5.89 9.18 6.8.74.68 1.3 1.5 1.55 2.01.23.51.46 1.1.98 1.59.56.48.97.33 1.38.18 1.35-.67 4.07-4.18 4.76-9.01.7-5.06.1-9.42-2.13-9.74zm8.82 0c.91-.13 1.52.89 2.56 1.24 1.22.4 2.4.18 4.09-.47 6.16-2.37 13.34-12.34 13.34-23.32 0-12.67-5.97-19.14-10.6-28.82-1.94-4.06-1.43-9.1-.54-9.52.62-.3.92 1.37 1.33 2.57 3.61 10.64 18 20.62 18 38.86 0 13.18-6.16 21.42-12.46 27.63-3.75 3.7-8.2 5.89-9.18 6.8-.74.68-1.3 1.5-1.55 2.01-.23.51-.47 1.1-.98 1.59-.56.48-.97.33-1.38.18-1.35-.67-4.07-4.18-4.76-9.01-.7-5.06-.1-9.42 2.13-9.74z"/><g fill="#000" stroke="none"><path d="M83.47 73.4a2.2 2.2 0 01-.67 1.08c.09-.42.23-.94.67-1.07zm-.9 1.38c.22.54-.18.84-.56 1.02.17-.35.41-.66.56-1.02zm-1.66 2.23c.37-.24.68-.56 1-.86-.25.7-.52.85-1 .86zm-.18.42c-.24.36-.53.7-.76 1.09.03-.57.22-.92.76-1.09zm5.33-15.4c.22.43-.04.8-.33 1.11.14-.37.28-.74.33-1.11zm.34.98c.28.44-.08.85-.33 1.11.12-.38.3-.73.33-1.11zm.56-.21c.43.39.2.8-.02 1.15.01-.4.07-.84.02-1.15zm-9.16 49.15c-.34-.67-1.07-1.08-1.14-1.82.45.61 1.03 1.04 1.13 1.82zm-.97-2.4a1.24 1.24 0 01-1.04-1.2c.27.45.67.88 1.04 1.2zm-.44-1.69c-.78-.17-1.31-.65-1.41-1.41.37.62.84.98 1.4 1.41zm-.85-1.86c-.47-.4-.58-.91-.54-1.47a9 9 0 01.53 1.46zm-.08-1.97c-.69-.41-.58-1.2-.12-1.68-.15.62-.13 1.25.12 1.68zm32.92 32.12c.63-3.19-.94-10.94-3.76-12.74-2.06 2.42-.11 13.65 2.68 14.81-3.13-1.32-4.9-11.6-3.23-14.47.15-.27.28-.48.55-.58.29.02.5.24.68.4 2.46 2.41 3.97 8.65 3.08 12.58zm8.09-62.75c.49.22.57.63.67 1.07-.34-.24-.47-.69-.67-1.06zm.9 1.38c.15.35.41.7.57 1.02-.45-.19-.69-.57-.57-1.02zm.66 1.37c.32.3.67.64 1 .86-.56.04-.9-.37-1-.86zm1.18 1.28c.53.2.81.55.77 1.1-.19-.43-.54-.73-.77-1.1zm-5.33-15.4c.01.4.21.76.33 1.12-.36-.35-.5-.69-.32-1.12zm-.34.98c.01.4.21.76.33 1.12-.35-.35-.5-.7-.32-1.12zm-.56-.21c-.1.4-.02.76.01 1.15-.27-.43-.29-.78-.01-1.16zm9.17 49.15c.03-.8.73-1.24 1.13-1.83-.1.72-.75 1.23-1.14 1.83zm.96-2.4a5.7 5.7 0 001.04-1.21c.03.6-.56 1.13-1.04 1.21zm.44-1.69a4.98 4.98 0 001.41-1.41c-.07.94-.7 1.25-1.4 1.41zm.85-1.86c.12-.5.33-.99.54-1.48.1.58-.14 1.1-.54 1.47zm.08-1.97c.37-.58.29-1.05.12-1.67.7.6.47 1.3-.12 1.66zm-32.92 32.12c-.68-4.1.36-8.96 2.8-12.23.25-.32.8-1.05 1.23-.59 2.28 3.49-.04 13.4-2.72 14.85 2.7-2.42 4.33-10.6 2.68-14.52-.4-.7-1.02.48-1.28.75-2.08 3.63-3.34 7.87-2.71 11.74z"/><path d="M94.27 122.29c-.56.43-1.03.97-1.45 1.52-2.5 3.62-3.3 10.66-2.13 14.08l-.27.1c-.84-2.99-.59-10.5 2.33-14.24.45-.53.95-1.05 1.52-1.46zm11.4 0c3.71 2.63 5.55 10.75 3.84 15.7l-.28-.1c1.47-3.84.3-11.96-3.56-15.6z"/></g></g><radialGradient id="backlight" cx="100%" cy="100%" r="150%"><stop stop-color="#fff" stop-opacity=".3" offset="0"/><stop stop-color="#fff" stop-opacity=".15" offset=".25"/><stop stop-color="#000" stop-opacity="0" offset="1"/></radialGradient></defs><g clip-path="url(#polish_coa359578195)"><rect x="0" y="0" width="200" height="200" fill="#d7374a"/><g fill="#ffe066" stroke="#000"><use x:href="#cowHorns_coa359578195" transform="translate(57 7) scale(0.43)"/><use x:href="#cowHorns_coa359578195" transform="translate(57 57) scale(0.43)"/><use x:href="#cowHorns_coa359578195" transform="translate(57 107) scale(0.43)"/></g></g><path d="m 90.3,6.3 c -12.7,0 -20.7,10.9 -40.5,14 0,11.8 -4.9,23.5 -11.4,31.1 0,0 12.7,6 12.7,19.3 C 51.1,90.8 30,90.8 30,90.8 c 0,0 -3.6,7.4 -3.6,22.4 0,34.3 23.1,60.2 40.7,68.2 17.6,8 27.7,11.4 32.9,18.6 5.2,-7.3 15.3,-10.7 32.8,-18.6 17.6,-8 40.7,-33.9 40.7,-68.2 0,-15 -3.6,-22.4 -3.6,-22.4 0,0 -21.1,0 -21.1,-20.1 0,-13.3 12.7,-19.3 12.7,-19.3 C 155.1,43.7 150.2,32.1 150.2,20.3 130.4,17.2 122.5,6.3 109.7,6.3 102.5,6.3 100,10 100,10 c 0,0 -2.5,-3.7 -9.7,-3.7 z" fill="url(#backlight)" stroke="#333"/></svg>