<svg id="coa183673412" width="500" height="500" viewBox="0 0 200 200" xmlns="http://www.w3.org/2000/svg" xmlns:x="http://www.w3.org/1999/xlink"><defs><clipPath id="polish_coa183673412"><path d="m 90.3,6.3 c -12.7,0 -20.7,10.9 -40.5,14 0,11.8 -4.9,23.5 -11.4,31.1 0,0 12.7,6 12.7,19.3 C 51.1,90.8 30,90.8 30,90.8 c 0,0 -3.6,7.4 -3.6,22.4 0,34.3 23.1,60.2 40.7,68.2 17.6,8 27.7,11.4 32.9,18.6 5.2,-7.3 15.3,-10.7 32.8,-18.6 17.6,-8 40.7,-33.9 40.7,-68.2 0,-15 -3.6,-22.4 -3.6,-22.4 0,0 -21.1,0 -21.1,-20.1 0,-13.3 12.7,-19.3 12.7,-19.3 C 155.1,43.7 150.2,32.1 150.2,20.3 130.4,17.2 122.5,6.3 109.7,6.3 102.5,6.3 100,10 100,10 c 0,0 -2.5,-3.7 -9.7,-3.7 z"/></clipPath><clipPath id="divisionClip_coa183673412"><rect x="15" y="115" width="200" height="200" transform="translate(70 70) rotate(45 100 100)"/><path d="M0,102.5 a6.25,6.25,0,0,1,12.5,0 a6.25,6.25,0,0,1,12.5,0 a6.25,6.25,0,0,1,12.5,0 a6.25,6.25,0,0,1,12.5,0 a6.25,6.25,0,0,1,12.5,0 a6.25,6.25,0,0,1,12.5,0 a6.25,6.25,0,0,1,12.5,0 a6.25,6.25,0,0,1,12.5,0 a6.25,6.25,0,0,1,12.5,0 a6.25,6.25,0,0,1,12.5,0 a6.25,6.25,0,0,1,12.5,0 a6.25,6.25,0,0,1,12.5,0 a6.25,6.25,0,0,1,12.5,0 a6.25,6.25,0,0,1,12.5,0 a6.25,6.25,0,0,1,12.5,0 a6.25,6.25,0,0,1,12.5,0 v12.5 H0 z" transform="translate(129 71) rotate(-45 -100 100) scale(-1 1)"/><path d="M0,102.5 a6.25,6.25,0,0,1,12.5,0 a6.25,6.25,0,0,1,12.5,0 a6.25,6.25,0,0,1,12.5,0 a6.25,6.25,0,0,1,12.5,0 a6.25,6.25,0,0,1,12.5,0 a6.25,6.25,0,0,1,12.5,0 a6.25,6.25,0,0,1,12.5,0 a6.25,6.25,0,0,1,12.5,0 a6.25,6.25,0,0,1,12.5,0 a6.25,6.25,0,0,1,12.5,0 a6.25,6.25,0,0,1,12.5,0 a6.25,6.25,0,0,1,12.5,0 a6.25,6.25,0,0,1,12.5,0 a6.25,6.25,0,0,1,12.5,0 a6.25,6.25,0,0,1,12.5,0 a6.25,6.25,0,0,1,12.5,0 v12.5 H0 z" transform="translate(71 71) rotate(45 100 100)"/></clipPath><g id="roundel_coa183673412"><circle cx="100" cy="100" r="30"/></g><radialGradient id="backlight" cx="100%" cy="100%" r="150%"><stop stop-color="#fff" stop-opacity=".3" offset="0"/><stop stop-color="#fff" stop-opacity=".15" offset=".25"/><stop stop-color="#000" stop-opacity="0" offset="1"/></radialGradient></defs><g clip-path="url(#polish_coa183673412)"><rect x="0" y="0" width="200" height="200" fill="#ffe066"/><g fill="#d7374a" stroke="#000"><use x:href="#roundel_coa183673412" transform="translate(17 57) scale(0.43)"/><use x:href="#roundel_coa183673412" transform="translate(97 57) scale(0.43)"/><use x:href="#roundel_coa183673412" transform="translate(57 7) scale(0.43)"/><use x:href="#roundel_coa183673412" transform="translate(57 107) scale(0.43)"/></g><g clip-path="url(#divisionClip_coa183673412)"><rect x="0" y="0" width="200" height="200" fill="#d7374a"/><g fill="#ffe066" stroke="#000"><use x:href="#roundel_coa183673412" transform="translate(17 57) scale(0.43)"/><use x:href="#roundel_coa183673412" transform="translate(97 57) scale(0.43)"/><use x:href="#roundel_coa183673412" transform="translate(57 7) scale(0.43)"/><use x:href="#roundel_coa183673412" transform="translate(57 107) scale(0.43)"/></g></g></g><path d="m 90.3,6.3 c -12.7,0 -20.7,10.9 -40.5,14 0,11.8 -4.9,23.5 -11.4,31.1 0,0 12.7,6 12.7,19.3 C 51.1,90.8 30,90.8 30,90.8 c 0,0 -3.6,7.4 -3.6,22.4 0,34.3 23.1,60.2 40.7,68.2 17.6,8 27.7,11.4 32.9,18.6 5.2,-7.3 15.3,-10.7 32.8,-18.6 17.6,-8 40.7,-33.9 40.7,-68.2 0,-15 -3.6,-22.4 -3.6,-22.4 0,0 -21.1,0 -21.1,-20.1 0,-13.3 12.7,-19.3 12.7,-19.3 C 155.1,43.7 150.2,32.1 150.2,20.3 130.4,17.2 122.5,6.3 109.7,6.3 102.5,6.3 100,10 100,10 c 0,0 -2.5,-3.7 -9.7,-3.7 z" fill="url(#backlight)" stroke="#333"/></svg>