<svg id="coa2666475" width="500" height="500" viewBox="0 0 200 200" xmlns="http://www.w3.org/2000/svg"><defs><clipPath id="oval_coa2666475"><path d="m 32.3,99.5 a 67.7,93.7 0 1 1 0,1.3 z"/></clipPath><clipPath id="divisionClip_coa2666475"><path d="M 9.4,85 C 6.5,88.1 4.1,92.9 3,98.8 1.9,104.6 2.3,110.4 3.8,115 2.4,113.5 0,106.6 0,109.3 v 5.7 h 200 v -5.7 c -1.1,-2.4 -2,-5.1 -2.6,-8 -1.1,-5.9 -0.7,-11.6 0.8,-16.2 -2.9,3.1 -5.3,7.9 -6.4,13.8 -1.1,5.9 -0.7,11.6 0.8,16.2 -2.9,-3.1 -5.3,-7.9 -6.4,-13.8 -1.1,-5.9 -0.7,-11.6 0.8,-16.2 -2.9,3.1 -5.3,7.9 -6.4,13.8 -1.1,5.9 -0.7,11.6 0.8,16.2 -2.9,-3.1 -5.3,-7.9 -6.4,-13.8 -1.1,-5.9 -0.7,-11.6 0.8,-16.2 -2.9,3.1 -5.3,7.9 -6.4,13.8 -1.1,5.9 -0.7,11.6 0.8,16.2 -2.9,-3.1 -5.3,-7.9 -6.4,-13.8 -1.1,-5.9 -0.7,-11.6 0.8,-16.2 -2.9,3.1 -5.3,7.9 -6.4,13.8 -1.1,5.9 -0.7,11.6 0.8,16.2 -2.9,-3.1 -5.3,-7.9 -6.4,-13.8 -1.1,-5.9 -0.7,-11.6 0.8,-16.2 -2.9,3.1 -5.3,7.9 -6.4,13.8 -1.1,5.9 -0.7,11.6 0.8,16.2 -2.9,-3.1 -5.3,-7.9 -6.4,-13.8 -1.1,-5.9 -0.7,-11.6 0.8,-16.2 -2.9,3.1 -5.3,7.9 -6.4,13.8 -1.1,5.9 -0.7,11.6 0.8,16.2 -2.9,-3.1 -5.3,-7.9 -6.4,-13.8 -1.1,-5.9 -0.7,-11.6 0.8,-16.2 -2.9,3.1 -5.3,7.9 -6.4,13.8 -1.1,5.9 -0.7,11.6 0.8,16.2 -2.9,-3.1 -5.3,-7.9 -6.4,-13.8 -1.1,-5.9 -0.7,-11.6 0.8,-16.2 -2.9,3.1 -5.3,7.9 -6.4,13.8 -1.1,5.9 -0.7,11.6 0.8,16.2 -2.9,-3.1 -5.3,-7.9 -6.4,-13.8 -1.1,-5.9 -0.7,-11.6 0.8,-16.2 -2.9,3.1 -5.3,7.9 -6.4,13.8 -1.1,5.9 -0.7,11.6 0.8,16.2 -1.4,-1.5 -2.8,-3.9 -3.8,-6.1 -1.1,-2.4 -2.3,-6.1 -2.6,-7.7 -0.2,-5.9 0.2,-11.7 1.7,-16.3 -3,3.1 -5.3,7.9 -6.4,13.8 -1.1,5.8 -0.7,11.6 0.8,16.2 -2.9,-3.1 -5.3,-7.9 -6.4,-13.8 -1,-5.8 -0.7,-11.6 0.9,-16.2 -3,3.1 -5.3,7.9 -6.4,13.8 -1.1,5.8 -0.7,11.6 0.8,16.2 -2.9,-3.1 -5.3,-7.9 -6.4,-13.8 -1.1,-5.8 -0.7,-11.6 0.9,-16.2 -3,3.1 -5.3,7.9 -6.4,13.8 -1.1,5.8 -0.7,11.6 0.8,16.2 -2.9,-3.1 -5.3,-7.9 -6.4,-13.8 C 63,95.4 63.4,89.6 64.9,85 c -2.9,3.1 -5.3,7.9 -6.3,13.8 -1.1,5.8 -0.7,11.6 0.8,16.2 -3,-3.1 -5.3,-7.9 -6.4,-13.8 -1.1,-5.8 -0.7,-11.6 0.8,-16.2 -2.9,3.1 -5.3,7.9 -6.4,13.8 -1,5.8 -0.6,11.6 0.9,16.2 -3,-3.1 -5.3,-7.9 -6.4,-13.8 -1.1,-5.8 -0.7,-11.6 0.8,-16.2 -2.9,3.1 -5.3,7.9 -6.4,13.8 -1,5.8 -0.7,11.6 0.9,16.2 -3,-3.1 -5.3,-7.9 -6.4,-13.8 -1.1,-5.8 -0.7,-11.6 0.8,-16.2 -2.9,3.1 -5.3,7.9 -6.4,13.8 -1.1,5.8 -0.7,11.6 0.9,16.2 -3,-3.1 -5.3,-7.9 -6.4,-13.8 C 18.6,95.4 19,89.6 20.5,85 17.6,88.1 15.2,92.9 14.1,98.8 13,104.6 13.4,110.4 14.9,115 12,111.9 9.6,107.1 8.6,101.2 7.5,95.4 7.9,89.6 9.4,85 Z" transform="translate(-10 -10) rotate(45 110 110) scale(1.1)"/><rect x="0" y="115" width="200" height="85" transform="translate(-10 -10) rotate(45 110 110) scale(1.1)" shape-rendering="crispedges"/></clipPath><radialGradient id="backlight" cx="100%" cy="100%" r="150%"><stop stop-color="#fff" stop-opacity=".3" offset="0"/><stop stop-color="#fff" stop-opacity=".15" offset=".25"/><stop stop-color="#000" stop-opacity="0" offset="1"/></radialGradient></defs><g clip-path="url(#oval_coa2666475)"><rect x="0" y="0" width="200" height="200" fill="#fafafa"/><g clip-path="url(#divisionClip_coa2666475)"><rect x="0" y="0" width="200" height="200" fill="#d7374a"/></g></g><path d="m 32.3,99.5 a 67.7,93.7 0 1 1 0,1.3 z" fill="url(#backlight)" stroke="#333"/></svg>