<svg id="coa377641867" width="500" height="500" viewBox="0 0 200 200" xmlns="http://www.w3.org/2000/svg" xmlns:x="http://www.w3.org/1999/xlink"><defs><clipPath id="polish_coa377641867"><path d="m 90.3,6.3 c -12.7,0 -20.7,10.9 -40.5,14 0,11.8 -4.9,23.5 -11.4,31.1 0,0 12.7,6 12.7,19.3 C 51.1,90.8 30,90.8 30,90.8 c 0,0 -3.6,7.4 -3.6,22.4 0,34.3 23.1,60.2 40.7,68.2 17.6,8 27.7,11.4 32.9,18.6 5.2,-7.3 15.3,-10.7 32.8,-18.6 17.6,-8 40.7,-33.9 40.7,-68.2 0,-15 -3.6,-22.4 -3.6,-22.4 0,0 -21.1,0 -21.1,-20.1 0,-13.3 12.7,-19.3 12.7,-19.3 C 155.1,43.7 150.2,32.1 150.2,20.3 130.4,17.2 122.5,6.3 109.7,6.3 102.5,6.3 100,10 100,10 c 0,0 -2.5,-3.7 -9.7,-3.7 z"/></clipPath><clipPath id="divisionClip_coa377641867"><path d="m 28.83,94.9 c -4.25,0 -7.16,3.17 -8.75,5.18 -1.59,2.01 -4.5,5.18 -8.75,5.18 -2.16,0 -3.91,-1.63 -3.91,-3.64 0,-2.01 1.44,-3.6 3.6,-3.6 0.7,0 1.36,0.17 1.93,0.48 -0.33,-2.03 -2.19,-3.56 -4.45,-3.56 -4.24,0 -6.91,3.13 -8.5,5.13 V 115 h 200 v -14.89 c -1.59,2.01 -4.5,5.18 -8.75,5.18 -2.16,0 -3.91,-1.63 -3.91,-3.64 0,-2.01 1.75,-3.64 3.91,-3.64 0.7,0 1.36,0.17 1.93,0.48 -0.34,-2.01 -2.2,-3.55 -4.46,-3.55 -4.25,0 -7.16,3.17 -8.75,5.18 -1.59,2.01 -4.5,5.18 -8.75,5.18 -2.16,0 -3.91,-1.63 -3.91,-3.64 0,-2.01 1.75,-3.64 3.91,-3.64 0.7,0 1.36,0.17 1.93,0.48 -0.34,-2.01 -2.21,-3.55 -4.46,-3.55 -4.25,0 -7.16,3.17 -8.75,5.18 -1.59,2.01 -4.5,5.18 -8.75,5.18 -2.16,0 -3.91,-1.63 -3.91,-3.64 0,-2.01 1.75,-3.64 3.91,-3.64 0.7,0 1.36,0.17 1.93,0.48 -0.34,-2.01 -2.21,-3.55 -4.46,-3.55 -4.25,0 -7.16,3.17 -8.75,5.18 -1.59,2.01 -4.5,5.18 -8.75,5.18 -2.16,0 -3.91,-1.63 -3.91,-3.64 0,-2.01 1.75,-3.64 3.91,-3.64 0.7,0 1.36,0.17 1.93,0.48 -0.34,-2.01 -2.2,-3.55 -4.46,-3.55 -4.25,0 -7.16,3.17 -8.75,5.18 -1.59,2.01 -4.5,5.18 -8.75,5.18 -2.16,0 -3.91,-1.63 -3.91,-3.64 0,-2.01 1.44,-3.6 3.6,-3.6 0.7,0 1.36,0.17 1.93,0.48 -0.34,-2.01 -2.21,-3.55 -4.46,-3.55 -4.25,0 -6.6,3.09 -8.19,5.09 -1.59,2.01 -4.5,5.18 -8.75,5.18 -2.16,0 -3.91,-1.63 -3.91,-3.64 0,-2.01 1.75,-3.64 3.91,-3.64 0.7,0 1.36,0.17 1.93,0.48 -0.34,-2.01 -2.21,-3.55 -4.46,-3.55 -4.25,0 -7.16,3.17 -8.75,5.18 -1.59,2.01 -4.5,5.18 -8.75,5.18 -2.16,0 -3.91,-1.63 -3.91,-3.64 0,-2.01 1.75,-3.64 3.91,-3.64 0.7,0 1.36,0.17 1.93,0.48 -0.34,-2.01 -2.2,-3.55 -4.46,-3.55 -4.25,0 -7.16,3.17 -8.75,5.18 -1.59,2.01 -4.5,5.18 -8.75,5.18 -2.16,0 -3.91,-1.63 -3.91,-3.64 0,-2.01 1.75,-3.64 3.91,-3.64 0.7,0 1.36,0.17 1.93,0.48 -0.34,-2.01 -2.2,-3.55 -4.46,-3.55 -4.25,0 -7.16,3.17 -8.75,5.18 -1.59,2.01 -4.5,5.18 -8.75,5.18 -2.16,0 -3.91,-1.63 -3.91,-3.64 0,-2.01 1.75,-3.64 3.91,-3.64 0.7,0 1.36,0.17 1.93,0.48 -0.34,-2.01 -2.21,-3.55 -4.46,-3.55 z" transform="rotate(-90 100 100)"/><rect x="115" y="0" width="85" height="200" shape-rendering="crispedges"/></clipPath><g id="mullet8_coa377641867"><polygon points="100 60 105.85 85.88 128.28 71.72 114.12 94.15 140 100 114.12 105.85 128.28 128.28 105.85 114.12 100 140 94.15 114.12 71.72 128.28 85.88 105.85 60 100 85.88 94.15 71.72 71.72 94.15 85.88"/></g><g id="inescutcheon_coa377641867"><path transform="translate(66 66) scale(.34)" d="m 90.3,6.3 c -12.7,0 -20.7,10.9 -40.5,14 0,11.8 -4.9,23.5 -11.4,31.1 0,0 12.7,6 12.7,19.3 C 51.1,90.8 30,90.8 30,90.8 c 0,0 -3.6,7.4 -3.6,22.4 0,34.3 23.1,60.2 40.7,68.2 17.6,8 27.7,11.4 32.9,18.6 5.2,-7.3 15.3,-10.7 32.8,-18.6 17.6,-8 40.7,-33.9 40.7,-68.2 0,-15 -3.6,-22.4 -3.6,-22.4 0,0 -21.1,0 -21.1,-20.1 0,-13.3 12.7,-19.3 12.7,-19.3 C 155.1,43.7 150.2,32.1 150.2,20.3 130.4,17.2 122.5,6.3 109.7,6.3 102.5,6.3 100,10 100,10 c 0,0 -2.5,-3.7 -9.7,-3.7 z"/></g><radialGradient id="backlight" cx="100%" cy="100%" r="150%"><stop stop-color="#fff" stop-opacity=".3" offset="0"/><stop stop-color="#fff" stop-opacity=".15" offset=".25"/><stop stop-color="#000" stop-opacity="0" offset="1"/></radialGradient></defs><g clip-path="url(#polish_coa377641867)"><rect x="0" y="0" width="200" height="200" fill="#fafafa"/><g clip-path="url(#divisionClip_coa377641867)"><rect x="0" y="0" width="200" height="200" fill="#26c061"/></g><g fill="#333333" stroke="#000"><use x:href="#mullet8_coa377641867" transform="translate(7.5 40) scale(0.6)"/></g><g fill="#fafafa" stroke="#000"><use x:href="#inescutcheon_coa377641867" transform="translate(72.5 40) scale(0.6)"/></g></g><path d="m 90.3,6.3 c -12.7,0 -20.7,10.9 -40.5,14 0,11.8 -4.9,23.5 -11.4,31.1 0,0 12.7,6 12.7,19.3 C 51.1,90.8 30,90.8 30,90.8 c 0,0 -3.6,7.4 -3.6,22.4 0,34.3 23.1,60.2 40.7,68.2 17.6,8 27.7,11.4 32.9,18.6 5.2,-7.3 15.3,-10.7 32.8,-18.6 17.6,-8 40.7,-33.9 40.7,-68.2 0,-15 -3.6,-22.4 -3.6,-22.4 0,0 -21.1,0 -21.1,-20.1 0,-13.3 12.7,-19.3 12.7,-19.3 C 155.1,43.7 150.2,32.1 150.2,20.3 130.4,17.2 122.5,6.3 109.7,6.3 102.5,6.3 100,10 100,10 c 0,0 -2.5,-3.7 -9.7,-3.7 z" fill="url(#backlight)" stroke="#333"/></svg>