<svg id="coa280746698" width="500" height="500" viewBox="0 0 200 200" xmlns="http://www.w3.org/2000/svg" xmlns:x="http://www.w3.org/1999/xlink"><defs><clipPath id="oval_coa280746698"><path d="m 32.3,99.5 a 67.7,93.7 0 1 1 0,1.3 z"/></clipPath><g id="goutte_coa280746698"><path d="M100 134c17-1 16-19 10-25-1.9-1.8-4.6-5.3-3.9-8.1C108 94 102 90 102 87c-1-7 3-7 3-13-.1-6.2-3.3-8.7-6-12 1.2 3 2 6 1 9-1.5 5.9-6.2 6.9-8 11-2 5 3 11 3 15-.6 9.1-9 13-9 23 .3 11.3 9 14 14 14z"/></g><radialGradient id="backlight" cx="100%" cy="100%" r="150%"><stop stop-color="#fff" stop-opacity=".3" offset="0"/><stop stop-color="#fff" stop-opacity=".15" offset=".25"/><stop stop-color="#000" stop-opacity="0" offset="1"/></radialGradient></defs><g clip-path="url(#oval_coa280746698)"><rect x="0" y="0" width="200" height="200" fill="#fafafa"/><g fill="#333333" stroke="#000"><use x:href="#goutte_coa280746698" transform="translate(-1.5 -3.5) scale(0.66)"/><use x:href="#goutte_coa280746698" transform="translate(69.5 -3.5) scale(0.66)"/><use x:href="#goutte_coa280746698" transform="translate(34 84) scale(0.66)"/></g></g><path d="m 32.3,99.5 a 67.7,93.7 0 1 1 0,1.3 z" fill="url(#backlight)" stroke="#333"/></svg>