<svg id="coa473526017" width="500" height="500" viewBox="0 0 200 200" xmlns="http://www.w3.org/2000/svg" xmlns:x="http://www.w3.org/1999/xlink"><defs><clipPath id="polish_coa473526017"><path d="m 90.3,6.3 c -12.7,0 -20.7,10.9 -40.5,14 0,11.8 -4.9,23.5 -11.4,31.1 0,0 12.7,6 12.7,19.3 C 51.1,90.8 30,90.8 30,90.8 c 0,0 -3.6,7.4 -3.6,22.4 0,34.3 23.1,60.2 40.7,68.2 17.6,8 27.7,11.4 32.9,18.6 5.2,-7.3 15.3,-10.7 32.8,-18.6 17.6,-8 40.7,-33.9 40.7,-68.2 0,-15 -3.6,-22.4 -3.6,-22.4 0,0 -21.1,0 -21.1,-20.1 0,-13.3 12.7,-19.3 12.7,-19.3 C 155.1,43.7 150.2,32.1 150.2,20.3 130.4,17.2 122.5,6.3 109.7,6.3 102.5,6.3 100,10 100,10 c 0,0 -2.5,-3.7 -9.7,-3.7 z"/></clipPath><g id="mulletFaceted_coa473526017"><path d="M100 60l8.98 27.64h29.06l-23.51 17.08 8.98 27.64L100 115.28l-23.51 17.08 8.98-27.64-23.51-17.08h29.06z"/><path fill="#000" fill-opacity=".2" stroke-width=".2" d="M100 100V60l8.98 27.64L100 100l38.04-12.36-23.51 17.08L100 100l23.51 32.36L100 115.28V100l-23.51 32.36 8.98-27.64L100 100 61.96 87.64h29.06z"/></g><radialGradient id="backlight" cx="100%" cy="100%" r="150%"><stop stop-color="#fff" stop-opacity=".3" offset="0"/><stop stop-color="#fff" stop-opacity=".15" offset=".25"/><stop stop-color="#000" stop-opacity="0" offset="1"/></radialGradient></defs><g clip-path="url(#polish_coa473526017)"><rect x="0" y="0" width="200" height="200" fill="#522d5b"/><g fill="#fafafa" stroke="none"><path d="m 90.3,6.3 c -12.7,0 -20.7,10.9 -40.5,14 0,11.8 -4.9,23.5 -11.4,31.1 0,0 12.7,6 12.7,19.3 C 51.1,90.8 30,90.8 30,90.8 c 0,0 -3.6,7.4 -3.6,22.4 0,34.3 23.1,60.2 40.7,68.2 17.6,8 27.7,11.4 32.9,18.6 5.2,-7.3 15.3,-10.7 32.8,-18.6 17.6,-8 40.7,-33.9 40.7,-68.2 0,-15 -3.6,-22.4 -3.6,-22.4 0,0 -21.1,0 -21.1,-20.1 0,-13.3 12.7,-19.3 12.7,-19.3 C 155.1,43.7 150.2,32.1 150.2,20.3 130.4,17.2 122.5,6.3 109.7,6.3 102.5,6.3 100,10 100,10 c 0,0 -2.5,-3.7 -9.7,-3.7 z" fill="none" stroke="#fafafa" stroke-width="16.7%"/></g><g fill="#d7374a" stroke="#000"><use x:href="#mulletFaceted_coa473526017" transform="translate(37 33) scale(0.15)"/><use x:href="#mulletFaceted_coa473526017" transform="translate(62 5) scale(0.15)"/><use x:href="#mulletFaceted_coa473526017" transform="translate(108 5) scale(0.15)"/><use x:href="#mulletFaceted_coa473526017" transform="translate(133 33) scale(0.15)"/><use x:href="#mulletFaceted_coa473526017" transform="translate(132 75) scale(0.15)"/><use x:href="#mulletFaceted_coa473526017" transform="translate(147 117) scale(0.15)"/><use x:href="#mulletFaceted_coa473526017" transform="translate(122 153) scale(0.15)"/><use x:href="#mulletFaceted_coa473526017" transform="translate(85 171) scale(0.15)"/><use x:href="#mulletFaceted_coa473526017" transform="translate(48 153) scale(0.15)"/><use x:href="#mulletFaceted_coa473526017" transform="translate(23 117) scale(0.15)"/><use x:href="#mulletFaceted_coa473526017" transform="translate(38 75) scale(0.15)"/></g></g><path d="m 90.3,6.3 c -12.7,0 -20.7,10.9 -40.5,14 0,11.8 -4.9,23.5 -11.4,31.1 0,0 12.7,6 12.7,19.3 C 51.1,90.8 30,90.8 30,90.8 c 0,0 -3.6,7.4 -3.6,22.4 0,34.3 23.1,60.2 40.7,68.2 17.6,8 27.7,11.4 32.9,18.6 5.2,-7.3 15.3,-10.7 32.8,-18.6 17.6,-8 40.7,-33.9 40.7,-68.2 0,-15 -3.6,-22.4 -3.6,-22.4 0,0 -21.1,0 -21.1,-20.1 0,-13.3 12.7,-19.3 12.7,-19.3 C 155.1,43.7 150.2,32.1 150.2,20.3 130.4,17.2 122.5,6.3 109.7,6.3 102.5,6.3 100,10 100,10 c 0,0 -2.5,-3.7 -9.7,-3.7 z" fill="url(#backlight)" stroke="#333"/></svg>