<svg id="coa220196413" width="500" height="500" viewBox="0 0 200 200" xmlns="http://www.w3.org/2000/svg" xmlns:x="http://www.w3.org/1999/xlink"><defs><clipPath id="boeotian_coa220196413"><path d="M150 115c-5 0-10-5-10-15s5-15 10-15c10 0 7 10 15 10 10 0 0-30 0-30-10-25-30-55-65-55S45 40 35 65c0 0-10 30 0 30 8 0 5-10 15-10 5 0 10 5 10 15s-5 15-10 15c-10 0-7-10-15-10-10 0 0 30 0 30 10 25 30 55 65 55s55-30 65-55c0 0 10-30 0-30-8 0-5 10-15 10z"/></clipPath><clipPath id="divisionClip_coa220196413"><rect x="0" y="100" width="200" height="100"/></clipPath><g id="crossFleury_coa220196413" stroke-width=".5"><path d="M95.2 125.9a2.6 2.6 0 01-2.6 2.6 2.6 2.6 0 01-2.6-2.6 4.8 4.8 0 00-1.7 3.7 4.8 4.8 0 004.8 4.8 4.8 4.8 0 003-1.1 7.8 7.8 0 003.9 6.8 7.8 7.8 0 003.9-6.8 4.8 4.8 0 003 1.1 4.8 4.8 0 004.8-4.8 4.8 4.8 0 00-1.7-3.7 2.6 2.6 0 01-2.6 2.6 2.6 2.6 0 01-2.6-2.6v-21.1h21.1a2.6 2.6 0 012.6 2.6 2.6 2.6 0 01-2.6 2.6 4.8 4.8 0 003.7 1.7 4.8 4.8 0 004.8-4.8 4.8 4.8 0 00-1.1-3 7.8 7.8 0 006.8-3.9 7.8 7.8 0 00-6.8-3.9 4.8 4.8 0 001.1-3 4.8 4.8 0 00-4.8-4.8 4.8 4.8 0 00-3.7 1.7 2.6 2.6 0 012.6 2.6 2.6 2.6 0 01-2.6 2.6h-21.1V74.1a2.6 2.6 0 012.6-2.6 2.6 2.6 0 012.6 2.6 4.8 4.8 0 001.7-3.7 4.8 4.8 0 00-4.8-4.8 4.8 4.8 0 00-3 1.1A7.8 7.8 0 00100 60a7.8 7.8 0 00-3.9 6.8 4.8 4.8 0 00-3-1.1 4.8 4.8 0 00-4.8 4.8 4.8 4.8 0 001.7 3.7 2.6 2.6 0 012.6-2.6 2.6 2.6 0 012.6 2.6v21H74.1a2.6 2.6 0 01-2.6-2.6 2.6 2.6 0 012.6-2.6 4.8 4.8 0 00-3.7-1.7 4.8 4.8 0 00-4.8 4.8 4.8 4.8 0 001.1 3A7.8 7.8 0 0060 100a7.8 7.8 0 006.8 3.9 4.8 4.8 0 00-1.1 3 4.8 4.8 0 004.8 4.8 4.8 4.8 0 003.7-1.7 2.6 2.6 0 01-2.6-2.6 2.6 2.6 0 012.6-2.6h21.1z"/></g><radialGradient id="backlight" cx="100%" cy="100%" r="150%"><stop stop-color="#fff" stop-opacity=".3" offset="0"/><stop stop-color="#fff" stop-opacity=".15" offset=".25"/><stop stop-color="#000" stop-opacity="0" offset="1"/></radialGradient></defs><g clip-path="url(#boeotian_coa220196413)"><rect x="0" y="0" width="200" height="200" fill="#ffe066"/><g clip-path="url(#divisionClip_coa220196413)"><rect x="0" y="0" width="200" height="200" fill="#377cd7"/></g><g fill="#d7374a" stroke="none"><path d="M 0,21 79,100 0,179 0,200 21,200 100,121 179,200 200,200 200,179 121,100 200,21 200,0 179,0 100,79 21,0 0,0 Z"/></g><g fill="#fafafa" stroke="#000"><use x:href="#crossFleury_coa220196413" transform="translate(48 48) scale(0.52)"/></g></g><path d="M150 115c-5 0-10-5-10-15s5-15 10-15c10 0 7 10 15 10 10 0 0-30 0-30-10-25-30-55-65-55S45 40 35 65c0 0-10 30 0 30 8 0 5-10 15-10 5 0 10 5 10 15s-5 15-10 15c-10 0-7-10-15-10-10 0 0 30 0 30 10 25 30 55 65 55s55-30 65-55c0 0 10-30 0-30-8 0-5 10-15 10z" fill="url(#backlight)" stroke="#333"/></svg>