<svg id="coa216078459" width="500" height="500" viewBox="0 10 200 200" xmlns="http://www.w3.org/2000/svg" xmlns:x="http://www.w3.org/1999/xlink"><defs><clipPath id="spanish_coa216078459"><path d="m25,25 h150 v100 a75,75,0,0,1,-150,0 z"/></clipPath><clipPath id="divisionClip_coa216078459"><path d="M 200,200 V 100 l -5,-5 v 10 l -5,-5 -5,5 V 95 l -5,5 -5,-5 v 10 l -5,-5 -5,5 V 95 l -5,5 -5,-5 v 10 l -5,-5 -5,5 V 95 l -5,5 -5,-5 v 10 l -5,-5 -5,5 V 95 l -5,5 -5,-5 v 10 l -5,-5 -5,5 V 95 l -5,5 -5,-5 v 10 l -5,-5 -5,5 V 95 l -5,5 -5,-5 v 10 l -5,-5 -5,5 V 95 l -5,5 -5,-5 v 10 l -5,-5 -5,5 V 95 l -5,5 -5,-5 v 10 l -5,-5 -5,5 V 95 l -5,5 -5,-5 v 10 l -5,-5 -5,5 V 95 l -5,5 v 15 h 200" transform="translate(161.66 10) rotate(66.66 -100 100) scale(-1 1)"/><path d="M 200,200 V 100 l -5,-5 v 10 l -5,-5 -5,5 V 95 l -5,5 -5,-5 v 10 l -5,-5 -5,5 V 95 l -5,5 -5,-5 v 10 l -5,-5 -5,5 V 95 l -5,5 -5,-5 v 10 l -5,-5 -5,5 V 95 l -5,5 -5,-5 v 10 l -5,-5 -5,5 V 95 l -5,5 -5,-5 v 10 l -5,-5 -5,5 V 95 l -5,5 -5,-5 v 10 l -5,-5 -5,5 V 95 l -5,5 -5,-5 v 10 l -5,-5 -5,5 V 95 l -5,5 -5,-5 v 10 l -5,-5 -5,5 V 95 l -5,5 -5,-5 v 10 l -5,-5 -5,5 V 95 l -5,5 v 15 h 200" transform="translate(38.33 10) rotate(-66.66 100 100)"/><polygon points="-2.15,0 84.15,200 115.85,200 202.15,0 200,200 0,200"/></clipPath><g id="annulet_coa216078459"><path d="M70 100c0 16.569 13.431 30 30 30 16.569 0 30-13.431 30-30 0-16.569-13.431-30-30-30-16.569 0-30 13.431-30 30m10 0c0-11.046 8.954-20 20-20s20 8.954 20 20-8.954 20-20 20-20-8.954-20-20"/></g><radialGradient id="backlight" cx="100%" cy="100%" r="150%"><stop stop-color="#fff" stop-opacity=".3" offset="0"/><stop stop-color="#fff" stop-opacity=".15" offset=".25"/><stop stop-color="#000" stop-opacity="0" offset="1"/></radialGradient></defs><g clip-path="url(#spanish_coa216078459)"><rect x="0" y="0" width="200" height="200" fill="#377cd7"/><g fill="#fafafa" stroke="#000"><use x:href="#annulet_coa216078459" transform="translate(30 30) scale(0.7)"/></g><g clip-path="url(#divisionClip_coa216078459)"><rect x="0" y="0" width="200" height="200" fill="#fafafa"/><g fill="#377cd7" stroke="#000"><use x:href="#annulet_coa216078459" transform="translate(30 30) scale(0.7)"/></g></g></g><path d="m25,25 h150 v100 a75,75,0,0,1,-150,0 z" fill="url(#backlight)" stroke="#333"/></svg>