<svg id="coa329918769" width="500" height="500" viewBox="0 10 200 200" xmlns="http://www.w3.org/2000/svg"><defs><clipPath id="spanish_coa329918769"><path d="m25,25 h150 v100 a75,75,0,0,1,-150,0 z"/></clipPath><clipPath id="divisionClip_coa329918769"><rect x="100" y="0" width="100" height="100"/><rect x="0" y="100" width="100" height="100"/></clipPath><pattern id="lozengy-gules-argent" width="0.125" height="0.125" viewBox="0 0 50 50"><rect width="50" height="50" fill="#d7374a"/><polygon points="25,0 50,25 25,50 0,25" fill="#fafafa"/></pattern><radialGradient id="backlight" cx="100%" cy="100%" r="150%"><stop stop-color="#fff" stop-opacity=".3" offset="0"/><stop stop-color="#fff" stop-opacity=".15" offset=".25"/><stop stop-color="#000" stop-opacity="0" offset="1"/></radialGradient></defs><g clip-path="url(#spanish_coa329918769)"><rect x="0" y="0" width="200" height="200" fill="url(#lozengy-gules-argent)"/><g clip-path="url(#divisionClip_coa329918769)"><rect x="0" y="0" width="200" height="200" fill="#ffe066"/></g><g fill="#377cd7" stroke="none"><polygon points="22,0 200,178 200,200 178,200 0,22 0,0"/></g></g><path d="m25,25 h150 v100 a75,75,0,0,1,-150,0 z" fill="url(#backlight)" stroke="#333"/></svg>