<svg id="coa661435998" width="500" height="500" viewBox="0 0 200 200" xmlns="http://www.w3.org/2000/svg" xmlns:x="http://www.w3.org/1999/xlink"><defs><clipPath id="polish_coa661435998"><path d="m 90.3,6.3 c -12.7,0 -20.7,10.9 -40.5,14 0,11.8 -4.9,23.5 -11.4,31.1 0,0 12.7,6 12.7,19.3 C 51.1,90.8 30,90.8 30,90.8 c 0,0 -3.6,7.4 -3.6,22.4 0,34.3 23.1,60.2 40.7,68.2 17.6,8 27.7,11.4 32.9,18.6 5.2,-7.3 15.3,-10.7 32.8,-18.6 17.6,-8 40.7,-33.9 40.7,-68.2 0,-15 -3.6,-22.4 -3.6,-22.4 0,0 -21.1,0 -21.1,-20.1 0,-13.3 12.7,-19.3 12.7,-19.3 C 155.1,43.7 150.2,32.1 150.2,20.3 130.4,17.2 122.5,6.3 109.7,6.3 102.5,6.3 100,10 100,10 c 0,0 -2.5,-3.7 -9.7,-3.7 z"/></clipPath><g id="hatchet_coa661435998" stroke-width=".615"><path d="M114.4 137.8c0 2.5 9.5 2.5 9.5 0l-.3-65.4c0-2.5-9-2.5-9-.1z"/><path d="M124.2 75.2c0-3-7.3-3-9.4-1.4-.5.4-.6 1-1.1 1.4-.6.3-4.3.3-5.4.3-11.1 0-23.9-13.3-26.4-14.8 0 0-6.4 10.4-6.4 29.6a72.4 72.4 0 0014.3 41.4s5.6-2.6 6.8-8.8c.9-4.1.5-9.9 1.5-14 2-8 10.6-8.8 10.6-8.8 0-.3-1.6-4-1.6-6.9 0-3.3 3.2-3.8 4.8-2.5.5.4.8 1.5.9 2.3v3.4c0 3 9.5 3 11.4 1.1V75.2z"/><path fill="#000" stroke="none" d="M83.5 68.7c-2.9 19.6-3.6 34.2 7.1 56-10.2-14.6-11.8-41.2-7.1-56zm30.7 8c.3 5.7.5 11.6 0 17.4-.3-5.3-.5-11.7 0-17.3z" opacity=".6"/></g><pattern id="pappellony2-argent-vert" width="0.125" height="0.125" viewBox="0 0 100 100" stroke="#000" stroke-width="2"><rect width="100" height="100" fill="#fafafa" stroke="none"/><circle cy="50" r="49" fill="#26c061"/><circle cx="100" cy="50" r="49" fill="#26c061"/><circle cx="50" cy="0" r="49" fill="#fafafa"/></pattern><radialGradient id="backlight" cx="100%" cy="100%" r="150%"><stop stop-color="#fff" stop-opacity=".3" offset="0"/><stop stop-color="#fff" stop-opacity=".15" offset=".25"/><stop stop-color="#000" stop-opacity="0" offset="1"/></radialGradient></defs><g clip-path="url(#polish_coa661435998)"><rect x="0" y="0" width="200" height="200" fill="url(#pappellony2-argent-vert)"/><g fill="#333333" stroke="none"><path d="m 90.3,6.3 c -12.7,0 -20.7,10.9 -40.5,14 0,11.8 -4.9,23.5 -11.4,31.1 0,0 12.7,6 12.7,19.3 C 51.1,90.8 30,90.8 30,90.8 c 0,0 -3.6,7.4 -3.6,22.4 0,34.3 23.1,60.2 40.7,68.2 17.6,8 27.7,11.4 32.9,18.6 5.2,-7.3 15.3,-10.7 32.8,-18.6 17.6,-8 40.7,-33.9 40.7,-68.2 0,-15 -3.6,-22.4 -3.6,-22.4 0,0 -21.1,0 -21.1,-20.1 0,-13.3 12.7,-19.3 12.7,-19.3 C 155.1,43.7 150.2,32.1 150.2,20.3 130.4,17.2 122.5,6.3 109.7,6.3 102.5,6.3 100,10 100,10 c 0,0 -2.5,-3.7 -9.7,-3.7 z" fill="none" stroke="#333333" stroke-width="16.7%"/></g><g fill="#fafafa" stroke="#000"><use x:href="#hatchet_coa661435998" transform="translate(37 33) scale(0.15)"/><use x:href="#hatchet_coa661435998" transform="translate(62 5) scale(0.15)"/><use x:href="#hatchet_coa661435998" transform="translate(108 5) scale(0.15)"/><use x:href="#hatchet_coa661435998" transform="translate(133 33) scale(0.15)"/><use x:href="#hatchet_coa661435998" transform="translate(132 75) scale(0.15)"/><use x:href="#hatchet_coa661435998" transform="translate(147 117) scale(0.15)"/><use x:href="#hatchet_coa661435998" transform="translate(122 153) scale(0.15)"/><use x:href="#hatchet_coa661435998" transform="translate(85 171) scale(0.15)"/><use x:href="#hatchet_coa661435998" transform="translate(48 153) scale(0.15)"/><use x:href="#hatchet_coa661435998" transform="translate(23 117) scale(0.15)"/><use x:href="#hatchet_coa661435998" transform="translate(38 75) scale(0.15)"/></g></g><path d="m 90.3,6.3 c -12.7,0 -20.7,10.9 -40.5,14 0,11.8 -4.9,23.5 -11.4,31.1 0,0 12.7,6 12.7,19.3 C 51.1,90.8 30,90.8 30,90.8 c 0,0 -3.6,7.4 -3.6,22.4 0,34.3 23.1,60.2 40.7,68.2 17.6,8 27.7,11.4 32.9,18.6 5.2,-7.3 15.3,-10.7 32.8,-18.6 17.6,-8 40.7,-33.9 40.7,-68.2 0,-15 -3.6,-22.4 -3.6,-22.4 0,0 -21.1,0 -21.1,-20.1 0,-13.3 12.7,-19.3 12.7,-19.3 C 155.1,43.7 150.2,32.1 150.2,20.3 130.4,17.2 122.5,6.3 109.7,6.3 102.5,6.3 100,10 100,10 c 0,0 -2.5,-3.7 -9.7,-3.7 z" fill="url(#backlight)" stroke="#333"/></svg>