<svg id="coa2496989" width="500" height="500" viewBox="0 0 200 200" xmlns="http://www.w3.org/2000/svg"><defs><clipPath id="polish_coa2496989"><path d="m 90.3,6.3 c -12.7,0 -20.7,10.9 -40.5,14 0,11.8 -4.9,23.5 -11.4,31.1 0,0 12.7,6 12.7,19.3 C 51.1,90.8 30,90.8 30,90.8 c 0,0 -3.6,7.4 -3.6,22.4 0,34.3 23.1,60.2 40.7,68.2 17.6,8 27.7,11.4 32.9,18.6 5.2,-7.3 15.3,-10.7 32.8,-18.6 17.6,-8 40.7,-33.9 40.7,-68.2 0,-15 -3.6,-22.4 -3.6,-22.4 0,0 -21.1,0 -21.1,-20.1 0,-13.3 12.7,-19.3 12.7,-19.3 C 155.1,43.7 150.2,32.1 150.2,20.3 130.4,17.2 122.5,6.3 109.7,6.3 102.5,6.3 100,10 100,10 c 0,0 -2.5,-3.7 -9.7,-3.7 z"/></clipPath><pattern id="maily-argent-vert" width="0.167" height="0.167" viewBox="0 0 200 200" stroke="#000" stroke-width="1.2"><path fill="#fafafa" stroke="none" d="M0 0h200v200H0z"/><g fill="#26c061"><path d="m80-2c-5.27e-4 2.403-0.1094 6.806-0.3262 9.199 5.014-1.109 10.1-1.768 15.19-2.059 0.09325-1.712 0.1401-5.426 0.1406-7.141z"/><path d="m100 5a95 95 0 0 0-95 95 95 95 0 0 0 95 95 95 95 0 0 0 95-95 95 95 0 0 0-95-95zm0 15a80 80 0 0 1 80 80 80 80 0 0 1-80 80 80 80 0 0 1-80-80 80 80 0 0 1 80-80z"/><path d="m92.8 20.33c-5.562 0.4859-11.04 1.603-16.34 3.217-7.793 25.31-27.61 45.12-52.91 52.91-5.321 1.638-10.8 2.716-16.34 3.217-2.394 0.2168-6.796 0.3256-9.199 0.3262v15c1.714-4.79e-4 5.429-0.04737 7.141-0.1406 5.109-0.2761 10.19-0.9646 15.19-2.059 36.24-7.937 64.54-36.24 72.47-72.47z"/><path d="m202 80c-2.403-5.31e-4 -6.806-0.1094-9.199-0.3262 1.109 5.014 1.768 10.1 2.059 15.19 1.712 0.09326 5.426 0.1401 7.141 0.1406z"/><path d="m179.7 92.8c-0.4859-5.562-1.603-11.04-3.217-16.34-25.31-7.793-45.12-27.61-52.91-52.91-1.638-5.321-2.716-10.8-3.217-16.34-0.2168-2.394-0.3256-6.796-0.3262-9.199h-15c4.8e-4 1.714 0.0474 5.429 0.1406 7.141 0.2761 5.109 0.9646 10.19 2.059 15.19 7.937 36.24 36.24 64.54 72.47 72.47z"/><path d="m120 202c5.3e-4 -2.403 0.1094-6.806 0.3262-9.199-5.014 1.109-10.1 1.768-15.19 2.059-0.0933 1.712-0.1402 5.426-0.1406 7.141z"/><path d="m107.2 179.7c5.562-0.4859 11.04-1.603 16.34-3.217 7.793-25.31 27.61-45.12 52.91-52.91 5.321-1.638 10.8-2.716 16.34-3.217 2.394-0.2168 6.796-0.3256 9.199-0.3262v-15c-1.714 4.7e-4 -5.429 0.0474-7.141 0.1406-5.109 0.2761-10.19 0.9646-15.19 2.059-36.24 7.937-64.54 36.24-72.47 72.47z"/><path d="m -2,120 c 2.403,5.4e-4 6.806,0.1094 9.199,0.3262 -1.109,-5.014 -1.768,-10.1 -2.059,-15.19 -1.712,-0.0933 -5.426,-0.1402 -7.141,-0.1406 z"/><path d="m 20.33,107.2 c 0.4859,5.562 1.603,11.04 3.217,16.34 25.31,7.793 45.12,27.61 52.91,52.91 1.638,5.321 2.716,10.8 3.217,16.34 0.2168,2.394 0.3256,6.796 0.3262,9.199 L 95,202 c -4.8e-4,-1.714 -0.0472,-5.44 -0.1404,-7.152 -0.2761,-5.109 -0.9646,-10.19 -2.059,-15.19 -7.937,-36.24 -36.24,-64.54 -72.47,-72.47 z"/></g></pattern><radialGradient id="backlight" cx="100%" cy="100%" r="150%"><stop stop-color="#fff" stop-opacity=".3" offset="0"/><stop stop-color="#fff" stop-opacity=".15" offset=".25"/><stop stop-color="#000" stop-opacity="0" offset="1"/></radialGradient></defs><g clip-path="url(#polish_coa2496989)"><rect x="0" y="0" width="200" height="200" fill="url(#maily-argent-vert)"/><g fill="#333333" stroke="none"><rect width="37.5%" height="37.5%"/></g></g><path d="m 90.3,6.3 c -12.7,0 -20.7,10.9 -40.5,14 0,11.8 -4.9,23.5 -11.4,31.1 0,0 12.7,6 12.7,19.3 C 51.1,90.8 30,90.8 30,90.8 c 0,0 -3.6,7.4 -3.6,22.4 0,34.3 23.1,60.2 40.7,68.2 17.6,8 27.7,11.4 32.9,18.6 5.2,-7.3 15.3,-10.7 32.8,-18.6 17.6,-8 40.7,-33.9 40.7,-68.2 0,-15 -3.6,-22.4 -3.6,-22.4 0,0 -21.1,0 -21.1,-20.1 0,-13.3 12.7,-19.3 12.7,-19.3 C 155.1,43.7 150.2,32.1 150.2,20.3 130.4,17.2 122.5,6.3 109.7,6.3 102.5,6.3 100,10 100,10 c 0,0 -2.5,-3.7 -9.7,-3.7 z" fill="url(#backlight)" stroke="#333"/></svg>