<svg id="coa14270096" width="500" height="500" viewBox="0 10 200 200" xmlns="http://www.w3.org/2000/svg"><defs><clipPath id="french_coa14270096"><path d="m 25,25 h 150 v 139.15 c 0,41.745 -66,18.15 -75,36.3 -9,-18.15 -75,5.445 -75,-36.3 v 0 z"/></clipPath><clipPath id="divisionClip_coa14270096"><rect x="0" y="100" width="200" height="100"/></clipPath><pattern id="vair-argent-gules" width="0.125" height="0.25" viewBox="0 0 25 50" stroke="#000" stroke-width=".2"><rect width="25" height="25" fill="#fafafa" stroke="none"/><path d="m12.5,0 l6.25,6.25 v12.5 l6.25,6.25 h-25 l6.25,-6.25 v-12.5 z" fill="#d7374a"/><rect x="0" y="25" width="25" height="25" fill="#d7374a" stroke="none"/><path d="m25,25 l-6.25,6.25 v12.5 l-6.25,6.25 l-6.25,-6.25 v-12.5 l-6.25,-6.25 z" fill="#fafafa"/><path d="M0 50 h25" fill="none"/></pattern><radialGradient id="backlight" cx="100%" cy="100%" r="150%"><stop stop-color="#fff" stop-opacity=".3" offset="0"/><stop stop-color="#fff" stop-opacity=".15" offset=".25"/><stop stop-color="#000" stop-opacity="0" offset="1"/></radialGradient></defs><g clip-path="url(#french_coa14270096)"><rect x="0" y="0" width="200" height="200" fill="url(#vair-argent-gules)"/><g clip-path="url(#divisionClip_coa14270096)"><rect x="0" y="0" width="200" height="200" fill="#333333"/></g><g fill="#377cd7" stroke="none"><polygon points="85,0 85,85 0,85 0,115 85,115 85,200 115,200 115,115 200,115 200,85 115,85 115,0"/></g></g><path d="m 25,25 h 150 v 139.15 c 0,41.745 -66,18.15 -75,36.3 -9,-18.15 -75,5.445 -75,-36.3 v 0 z" fill="url(#backlight)" stroke="#333"/></svg>