<svg id="coa316396004" width="500" height="500" viewBox="0 10 200 200" xmlns="http://www.w3.org/2000/svg" xmlns:x="http://www.w3.org/1999/xlink"><defs><clipPath id="french_coa316396004"><path d="m 25,25 h 150 v 139.15 c 0,41.745 -66,18.15 -75,36.3 -9,-18.15 -75,5.445 -75,-36.3 v 0 z"/></clipPath><g id="inescutcheon_coa316396004"><path transform="translate(66 66) scale(.34)" d="m 25,25 h 150 v 139.15 c 0,41.745 -66,18.15 -75,36.3 -9,-18.15 -75,5.445 -75,-36.3 v 0 z"/></g><g id="annulet_coa316396004"><path d="M70 100c0 16.569 13.431 30 30 30 16.569 0 30-13.431 30-30 0-16.569-13.431-30-30-30-16.569 0-30 13.431-30 30m10 0c0-11.046 8.954-20 20-20s20 8.954 20 20-8.954 20-20 20-20-8.954-20-20"/></g><radialGradient id="backlight" cx="100%" cy="100%" r="150%"><stop stop-color="#fff" stop-opacity=".3" offset="0"/><stop stop-color="#fff" stop-opacity=".15" offset=".25"/><stop stop-color="#000" stop-opacity="0" offset="1"/></radialGradient></defs><g clip-path="url(#french_coa316396004)"><rect x="0" y="0" width="200" height="200" fill="#fafafa"/><g fill="#377cd7" stroke="none"><polygon points="0,165 165,0 200,0 200,35 35,200 0,200"/></g><g fill="#ffe066" stroke="#000"><use x:href="#inescutcheon_coa316396004" transform="translate(67.5 -7.5) scale(0.7)"/><use x:href="#inescutcheon_coa316396004" transform="translate(-7.5 67.5) scale(0.7)"/></g><g fill="#d7374a" stroke="#000"><use x:href="#annulet_coa316396004" transform="translate(102.5 27.5) scale(0.35)"/><use x:href="#annulet_coa316396004" transform="translate(27.5 102.5) scale(0.35)"/></g></g><path d="m 25,25 h 150 v 139.15 c 0,41.745 -66,18.15 -75,36.3 -9,-18.15 -75,5.445 -75,-36.3 v 0 z" fill="url(#backlight)" stroke="#333"/></svg>