<svg id="coa37360935" width="500" height="500" viewBox="0 0 200 200" xmlns="http://www.w3.org/2000/svg" xmlns:x="http://www.w3.org/1999/xlink"><defs><clipPath id="pavise_coa37360935"><path d="M95 7L39.9 37.3a10 10 0 00-5.1 9.5L46 180c.4 5.2 3.7 10 9 10h90c5.3 0 9.6-4.8 10-10l10.6-133.2a10 10 0 00-5-9.5L105 7c-4.2-2.3-6.2-2.3-10 0z"/></clipPath><g id="apple_coa37360935" stroke-width="1"><path d="M80.96 73.92c-1.92 0-5.44.64-8.32 2.56-5.12 3.2-9.6 11.84-9.6 22.08 0 11.52 4.8 23.04 10.88 30.4 5.44 6.08 12.16 8.32 14.4 8.32 5.12 0 6.4-1.6 11.2-1.6s6.08 1.6 11.2 1.6c2.24 0 8.96-2.24 14.4-8.32 6.08-7.36 10.88-18.88 10.88-30.4 0-10.24-4.48-18.88-9.6-22.08a16.3 16.3 0 00-8.32-2.56c-5.44 0-12.8 3.52-18.56 3.52s-13.12-3.52-18.56-3.52z"/><path fill="none" stroke-width=".5" d="M90.56 135.36c10.56-3.84 11.2-1.6 17.92-.32"/><path fill="#328A35" d="M100.48 79.68s.32-3.52-.64-8.64c-1.28-5.44-2.88-8-2.88-8s-.32-.64-1.92-.32c-1.28.32-1.28 1.28-1.28 1.28s2.24 1.92 3.84 7.36c1.28 4.48 1.28 8.32 1.28 8.32s.32.32.96.32.64-.32.64-.32z"/></g><radialGradient id="backlight" cx="100%" cy="100%" r="150%"><stop stop-color="#fff" stop-opacity=".3" offset="0"/><stop stop-color="#fff" stop-opacity=".15" offset=".25"/><stop stop-color="#000" stop-opacity="0" offset="1"/></radialGradient></defs><g clip-path="url(#pavise_coa37360935)"><rect x="0" y="0" width="200" height="200" fill="#26c061"/><g fill="#fafafa" stroke="none"><polygon points="22,0 200,178 200,200 178,200 0,22 0,0"/></g><g fill="#fafafa" stroke="#000"><use x:href="#apple_coa37360935" transform="translate(95 2.5) scale(0.45)"/><use x:href="#apple_coa37360935" transform="translate(15 107.5) scale(0.45)"/></g></g><path d="M95 7L39.9 37.3a10 10 0 00-5.1 9.5L46 180c.4 5.2 3.7 10 9 10h90c5.3 0 9.6-4.8 10-10l10.6-133.2a10 10 0 00-5-9.5L105 7c-4.2-2.3-6.2-2.3-10 0z" fill="url(#backlight)" stroke="#333"/></svg>