<svg id="coa873373465" width="500" height="500" viewBox="0 10 200 200" xmlns="http://www.w3.org/2000/svg"><defs><clipPath id="heater_coa873373465"><path d="m25,25 h150 v50 a150,150,0,0,1,-75,125 a150,150,0,0,1,-75,-125 z"/></clipPath><clipPath id="divisionClip_coa873373465"><rect x="100" y="0" width="100" height="200"/></clipPath><pattern id="pally-or-purpure" width="0.5" height="0.125" viewBox="0 0 100 25"><rect width="100" height="25" fill="#522d5b"/><rect x="25" y="0" width="25" height="25" fill="#ffe066"/><rect x="75" y="0" width="25" height="25" fill="#ffe066"/></pattern><radialGradient id="backlight" cx="100%" cy="100%" r="150%"><stop stop-color="#fff" stop-opacity=".3" offset="0"/><stop stop-color="#fff" stop-opacity=".15" offset=".25"/><stop stop-color="#000" stop-opacity="0" offset="1"/></radialGradient></defs><g clip-path="url(#heater_coa873373465)"><rect x="0" y="0" width="200" height="200" fill="url(#pally-or-purpure)"/><g clip-path="url(#divisionClip_coa873373465)"><rect x="0" y="0" width="200" height="200" fill="#333333"/></g></g><path d="m25,25 h150 v50 a150,150,0,0,1,-75,125 a150,150,0,0,1,-75,-125 z" fill="url(#backlight)" stroke="#333"/></svg>