<svg id="coa361919733" width="500" height="500" viewBox="0 0 200 200" xmlns="http://www.w3.org/2000/svg"><defs><clipPath id="pavise_coa361919733"><path d="M95 7L39.9 37.3a10 10 0 00-5.1 9.5L46 180c.4 5.2 3.7 10 9 10h90c5.3 0 9.6-4.8 10-10l10.6-133.2a10 10 0 00-5-9.5L105 7c-4.2-2.3-6.2-2.3-10 0z"/></clipPath><clipPath id="divisionClip_coa361919733"><polygon points="0,0 200,200 200,100 0,100"/><polygon points="200,0 0,200 100,200 100,0"/></clipPath><radialGradient id="backlight" cx="100%" cy="100%" r="150%"><stop stop-color="#fff" stop-opacity=".3" offset="0"/><stop stop-color="#fff" stop-opacity=".15" offset=".25"/><stop stop-color="#000" stop-opacity="0" offset="1"/></radialGradient></defs><g clip-path="url(#pavise_coa361919733)"><rect x="0" y="0" width="200" height="200" fill="#fafafa"/><g fill="#522d5b" stroke="none"><path d="m 46,54.8 6.6,-15.6 95.1,0 5.9,15.5 -16.8,0.1 4.5,-11.8 L 104,43 l 4.3,11.9 -16.8,0 4.3,-11.8 -37.2,0 4.5,11.8 -16.9,0 z"/></g><g clip-path="url(#divisionClip_coa361919733)"><rect x="0" y="0" width="200" height="200" fill="#522d5b"/><g fill="#fafafa" stroke="none"><path d="m 46,54.8 6.6,-15.6 95.1,0 5.9,15.5 -16.8,0.1 4.5,-11.8 L 104,43 l 4.3,11.9 -16.8,0 4.3,-11.8 -37.2,0 4.5,11.8 -16.9,0 z"/></g></g></g><path d="M95 7L39.9 37.3a10 10 0 00-5.1 9.5L46 180c.4 5.2 3.7 10 9 10h90c5.3 0 9.6-4.8 10-10l10.6-133.2a10 10 0 00-5-9.5L105 7c-4.2-2.3-6.2-2.3-10 0z" fill="url(#backlight)" stroke="#333"/></svg>